<svg id="_レイヤー_2" xmlns="http://www.w3.org/2000/svg" viewBox="0 0 196 102.3"><defs><style>.cls-1{fill:#f2f9fe}.cls-2{fill:#1f88ff}.cls-3{fill:#2e3840}</style></defs><g id="contents"><path class="cls-3" d="M24.97 89.74v12.52h-1.74v-.62h-8.49v.62h-1.67V89.74h11.89Zm-1.74 10.37v-8.82h-8.49v8.82h8.49Zm-3.46-5.74v1.13h2.33v3.68h-6.09V95.5h2.2v-1.13h-2.83v-1.32h2.83v-1.34h1.57v1.34h2.9v1.32h-2.9Zm.78 2.37h-3.1v1.22h3.1v-1.22ZM33.86 100.33c.5.06 1.04.08 1.6.08.76 0 3.07 0 4.01-.04-.24.41-.5 1.2-.59 1.69h-3.5c-2.58 0-4.5-.42-5.79-2.41-.45 1.06-1.06 1.96-1.86 2.65-.28-.29-.98-.88-1.37-1.13 1.51-1.12 2.2-3.05 2.45-5.45l1.74.17c-.08.63-.18 1.22-.31 1.78.42 1.12 1.08 1.79 1.91 2.2v-4.94h-2.98v-1.58h7.7v1.58h-3v1.75h3.85v1.57h-3.85v2.09Zm-5.2-6.28h-1.64v-3.5h5.08v-1.4h1.76v1.4h5.13v3.5h-1.72v-1.92h-8.61v1.92ZM42.34 94.23h-1.47v-2.84h5.28v-.53h-4.33v-1.23h10.32v1.23h-4.37v.53h5.39v2.84h-1.54v-1.74h-3.85v2.91h-1.62v-2.91h-3.81v1.74Zm8.98 6.67c.7 0 .83-.21.92-1.4.34.24.97.45 1.39.53-.2 1.68-.64 2.14-2.17 2.14h-2.94c-1.92 0-2.45-.41-2.45-1.88v-.04h-2.33v.62h-1.58v-5.08h9.69v4.47h-4.19v.04c0 .52.15.6 1.01.6h2.65Zm-8.7-6.54h3.03v.91h-3.03v-.91Zm3.03-.49h-2.76v-.9h2.76v.9Zm-1.91 3.04v.62h2.33v-.62h-2.33Zm2.33 2.23v-.6h-2.33v.6h2.33Zm4.13-2.23h-2.54v.62h2.54v-.62Zm0 2.23v-.6h-2.54v.6h2.54Zm.84-6.16v.9h-2.73v-.9h2.73Zm-2.73 1.39h3.05v.91h-3.05v-.91ZM54.46 91.5h5.32v1.32h-5.32V91.5Zm4.93 10.16h-2.91v.55h-1.4v-4.78h4.31v4.23Zm-.07-6.91h-4.2V93.5h4.2v1.25Zm-4.2.7h4.2v1.26h-4.2v-1.26Zm4.22-4.62h-4.13v-1.26h4.13v1.26Zm-2.86 7.91v1.6h1.5v-1.6h-1.5Zm8.11-4.01v1.85h2.45v5.58h-1.67v-.62h-3.18v.67h-1.58v-5.63h2.28v-1.85h-3.01v-1.56h3.01v-1.71c-.79.1-1.58.17-2.33.22-.06-.41-.27-1.04-.45-1.4 2.1-.18 4.46-.55 5.94-1.02l1.18 1.39c-.8.24-1.7.42-2.65.57v1.95h3.01v1.56h-3.01Zm.78 3.35h-3.18v1.96h3.18v-1.96ZM93.28 42.37c0-1.34.37-2.34 1.12-2.99.62-.54 1.38-.81 2.28-.81 1 0 1.81.33 2.45.98.63.65.95 1.56.95 2.71 0 .93-.14 1.67-.42 2.2s-.69.95-1.22 1.25c-.54.3-1.12.44-1.75.44-1.02 0-1.84-.33-2.46-.98-.63-.65-.94-1.59-.94-2.82Zm1.26 0c0 .93.2 1.63.61 2.09.41.46.92.69 1.53.69s1.12-.23 1.52-.7c.41-.46.61-1.17.61-2.13 0-.9-.2-1.58-.61-2.04-.41-.46-.92-.69-1.52-.69s-1.13.23-1.53.69c-.41.46-.61 1.16-.61 2.08ZM101.51 46v-7.26h1.11v1.1c.28-.52.54-.85.78-1.02s.5-.25.79-.25c.41 0 .84.13 1.26.4l-.42 1.14c-.3-.18-.6-.27-.9-.27-.27 0-.51.08-.72.24-.21.16-.37.39-.46.67-.14.44-.21.92-.21 1.44v3.8h-1.23Z"/><circle class="cls-1" cx="40" cy="40" r="40"/><path class="cls-3" d="M146.19 92.37c-.48 1.09-1.26 2.59-2.2 3.85 1.39 1.2 3.08 3 3.91 4.01l-1.6 1.39c-.91-1.26-2.21-2.69-3.53-3.96-1.48 1.57-3.35 3.03-5.27 3.94l-1.44-1.51c2.26-.84 4.43-2.55 5.74-4.02.92-1.05 1.78-2.44 2.09-3.43h-4.75c-.59 0-1.36.08-1.65.1v-1.99c.38.06 1.23.1 1.65.1h4.94c.6 0 1.16-.08 1.44-.18l1.15.85c-.11.15-.36.59-.49.87ZM161.87 92.76c-1.01 1.64-2.8 3.88-4.78 5.48.8.8 1.62 1.71 2.17 2.37l-1.64 1.3c-.59-.78-1.76-2.1-2.68-3.03-.81-.83-2.24-2.09-3.08-2.69l1.48-1.19c.56.42 1.49 1.18 2.37 1.95 1.58-1.26 2.9-2.89 3.56-4.03h-7.41c-.56 0-1.32.07-1.61.1v-1.96c.36.06 1.13.13 1.61.13h7.77c.53 0 1.01-.06 1.3-.15l1.4 1.15c-.2.22-.36.41-.48.59ZM165.26 99.71l-1.53-1.04c.94-.88 2.06-2.42 2.63-3.61l1.6.74c-.64 1.25-1.95 3.08-2.7 3.91Zm5.87-8.71v1.12h3.25c.41 0 1.01-.04 1.39-.1v1.83c-.43-.03-.98-.04-1.37-.04h-3.26v6.51c0 .81-.48 1.32-1.47 1.32-.74 0-1.57-.03-2.27-.13l-.18-1.74c.6.11 1.22.17 1.57.17s.49-.14.5-.5c.01-.52.01-4.96.01-5.62s-3.56-.01-3.56-.01c-.42 0-.95.01-1.34.06v-1.85c.42.04.91.1 1.34.1h3.56V91c0-.36-.07-.98-.11-1.22h2.07c-.04.2-.13.87-.13 1.22Zm5.24 7.7-1.64.9c-.6-1.19-1.6-2.89-2.28-3.75l1.53-.83c.71.9 1.83 2.66 2.4 3.68Z"/><circle class="cls-1" cx="156" cy="40" r="40"/><path class="cls-2" d="M56.98 22.99H39.33a.97.97 0 0 0 0 1.94h17.65c1.79 0 3.26 1.46 3.26 3.26v25.98c0 1.79-1.46 3.26-3.26 3.26H23.96c-1.79 0-3.26-1.46-3.26-3.26V28.19c0-1.76 1.4-3.19 3.14-3.25v23.9c0 2.62 2.13 4.75 4.75 4.75h3.43c2.62 0 4.75-2.13 4.75-4.75V23.68c0-2.62-2.13-4.75-4.75-4.75h-3.43c-2.39 0-4.37 1.78-4.7 4.08a5.197 5.197 0 0 0-5.12 5.19v25.98c0 2.86 2.33 5.19 5.19 5.19h33.02c2.86 0 5.19-2.33 5.19-5.19V28.2c0-2.86-2.33-5.19-5.19-5.19Zm-31.2.67c0-1.55 1.26-2.82 2.82-2.82h3.43c1.55 0 2.82 1.26 2.82 2.82v25.16c0 1.55-1.26 2.82-2.82 2.82H28.6c-1.55 0-2.82-1.26-2.82-2.82V23.66Z"/><path class="cls-2" d="M27.59 26.39c.53 0 .97-.43.97-.97v-1.73h1.73a.97.97 0 0 0 0-1.94h-2.7a.97.97 0 0 0-.97.97v2.7c0 .53.43.97.97.97ZM29.35 49.76c0 .53.43.97.97.97h2.7c.53 0 .97-.43.97-.97v-2.7a.97.97 0 0 0-1.94 0v1.73h-1.73a.97.97 0 0 0-.97.97ZM56.1 28.27H40.85a.97.97 0 0 0-.97.97v5.75c0 .53.43.97.97.97H56.1c.53 0 .97-.43.97-.97v-5.75a.97.97 0 0 0-.97-.97Zm-.97 5.75H41.82v-3.81h13.31v3.81ZM48.47 37.18c-1.41 0-2.55 1.14-2.55 2.55s1.14 2.55 2.55 2.55 2.55-1.14 2.55-2.55-1.14-2.55-2.55-2.55Zm0 3.17c-.34 0-.62-.28-.62-.62s.28-.62.62-.62.62.28.62.62-.28.62-.62.62ZM48.47 42.82c-1.41 0-2.55 1.14-2.55 2.55s1.14 2.55 2.55 2.55 2.55-1.14 2.55-2.55-1.14-2.55-2.55-2.55Zm0 3.17c-.34 0-.62-.28-.62-.62s.28-.62.62-.62.62.28.62.62-.28.62-.62.62ZM48.47 48.45c-1.41 0-2.55 1.14-2.55 2.55s1.14 2.55 2.55 2.55 2.55-1.14 2.55-2.55-1.14-2.55-2.55-2.55Zm0 3.17c-.34 0-.62-.28-.62-.62s.28-.62.62-.62.62.28.62.62-.28.62-.62.62ZM54.57 37.18c-1.41 0-2.55 1.14-2.55 2.55s1.14 2.55 2.55 2.55 2.55-1.14 2.55-2.55-1.14-2.55-2.55-2.55Zm0 3.17c-.34 0-.62-.28-.62-.62s.28-.62.62-.62.62.28.62.62-.28.62-.62.62ZM54.57 42.82c-1.41 0-2.55 1.14-2.55 2.55s1.14 2.55 2.55 2.55 2.55-1.14 2.55-2.55-1.14-2.55-2.55-2.55Zm0 3.17c-.34 0-.62-.28-.62-.62s.28-.62.62-.62.62.28.62.62-.28.62-.62.62ZM54.57 48.45c-1.41 0-2.55 1.14-2.55 2.55s1.14 2.55 2.55 2.55 2.55-1.14 2.55-2.55-1.14-2.55-2.55-2.55Zm0 3.17c-.34 0-.62-.28-.62-.62s.28-.62.62-.62.62.28.62.62-.28.62-.62.62ZM42.37 42.29c1.41 0 2.55-1.14 2.55-2.55s-1.14-2.55-2.55-2.55-2.55 1.14-2.55 2.55 1.14 2.55 2.55 2.55Zm0-3.17c.34 0 .62.28.62.62s-.28.62-.62.62-.62-.28-.62-.62.28-.62.62-.62ZM42.37 47.92c1.41 0 2.55-1.14 2.55-2.55s-1.14-2.55-2.55-2.55-2.55 1.14-2.55 2.55 1.14 2.55 2.55 2.55Zm0-3.17c.34 0 .62.28.62.62s-.28.62-.62.62-.62-.28-.62-.62.28-.62.62-.62ZM42.37 53.55c1.41 0 2.55-1.14 2.55-2.55s-1.14-2.55-2.55-2.55-2.55 1.14-2.55 2.55 1.14 2.55 2.55 2.55Zm0-3.17c.34 0 .62.28.62.62s-.28.62-.62.62-.62-.28-.62-.62.28-.62.62-.62ZM163.96 17.25h-14.84a4.55 4.55 0 0 0-4.54 4.54v37.25c0 2.5 2.04 4.54 4.54 4.54h14.84c2.5 0 4.54-2.04 4.54-4.54V21.79c0-2.5-2.04-4.54-4.54-4.54Zm-14.84 1.59h14.84c1.63 0 2.95 1.33 2.95 2.95v1.37h-20.75v-1.37c0-1.63 1.33-2.95 2.95-2.95Zm17.8 5.91v31.41h-20.75V24.75h20.75ZM163.97 62h-14.84c-1.63 0-2.95-1.33-2.95-2.95v-1.3h20.75v1.3c0 1.63-1.33 2.95-2.95 2.95Z"/><path class="cls-2" d="M152.77 59.04h7.54v1.59h-7.54z"/><circle class="cls-2" cx="159.6" cy="21.11" r=".76"/><circle class="cls-2" cx="156.53" cy="21.11" r=".76"/><circle class="cls-2" cx="153.47" cy="21.11" r=".76"/></g></svg>