<svg version="1.1" id="_レイヤー_2" xmlns="http://www.w3.org/2000/svg" xmlns:xlink="http://www.w3.org/1999/xlink" x="0" y="0" viewBox="0 0 420 217.6" style="enable-background:new 0 0 420 217.6" xml:space="preserve"><style>.st0{fill:#1f88ff}.st1,.st3{fill:none;stroke:#1f88ff;stroke-width:10;stroke-miterlimit:10}.st3{stroke-dasharray:4.9481,1.9792}.st4{fill:#85cee7}.st6{fill:#a5c3d9}.st7{fill:#73a9d1}.st8{fill:#d7d8eb}.st9{fill:#2c345c}.st10{fill:#f2aac2}.st11{fill:#272e52}.st12{fill:#304464}.st13{fill:#e8e6fb}.st14{fill:#495699}.st15{fill:#ed9bb6}.st16{fill:#f2f2f2}.st17{fill:#94cbf2}.st18{fill:#fff}</style><path class="st0" d="m255.7 110.9-22.9 11.9V99z"/><path class="st1" d="M113.7 110.9h2.5"/><path style="fill:none;stroke:#1f88ff;stroke-width:10;stroke-miterlimit:10;stroke-dasharray:5.0063,2.0025" d="M118.2 110.9h111.1"/><path class="st1" d="M230.3 110.9h2.5"/><path class="st0" d="m248.7 40.4-17.5 19-8.1-22.3z"/><path class="st1" d="m116.6 88.9 2.3-.8"/><path class="st3" d="M120.8 87.4 224 49.8"/><path class="st1" d="m225 49.5 2.3-.8"/><path class="st0" d="m248.7 183.2-25.6 3.4 8.1-22.4z"/><path class="st1" d="m116.3 135.5 2.4.9"/><path class="st3" d="m120.5 137 103.2 37.6"/><path class="st1" d="m224.7 174.9 2.3.9"/><circle class="st4" cx="296.3" cy="30" r="30"/><defs><circle id="SVGID_1_" cx="296.3" cy="30" r="30"/></defs><clipPath id="SVGID_00000071559779808897216760000013003403132462883717_"><use xlink:href="#SVGID_1_" style="overflow:visible"/></clipPath><g style="clip-path:url(#SVGID_00000071559779808897216760000013003403132462883717_)"><path class="st6" d="M270.6 82.7v-38l-27.3 8.1v43.6c0 .7.6 1.2 1.2 1.2.1 0 26.1-14.9 26.1-14.9z"/><path class="st7" d="M315.4 41.5c1.4 4.4-2.3 24.6-2.8 25.6-1.1 2.2-18.5-6.4-19-9.3-.9-5.4 0-19.9.8-22.2 1.7-4.8 19.5.9 21 5.9z"/><path class="st7" d="m273.2 68 18.7 10.9c.3.2.7.2 1 0L311.8 68c.7-.4.7-1.4 0-1.8l-18.7-10.9c-.3-.2-.7-.2-1 0l-18.9 10.9c-.7.4-.7 1.4 0 1.8z"/><path class="st8" d="M287.4 41.4s5.2-14.8 6.9-15.5c1.6-.7 6.4-1.1 5.2 1.2-2.6 4.7-7.1 14.5-8.9 14.5-2.8 0-3.2-.2-3.2-.2z"/><path class="st9" d="M269.4 102.3c2.9-2.5 1.4-.5 3.3-3.5 1 0 2.7-.1 2.9.6.3.7.4 1.7.4 1.7.2 2.5-.6 3.8-.6 3.8-.4.2-.7.2-1.1 0v-.7l-3.3 2.4c-.6.5-1.5 1-2.4 1.2-1 .3-2 .1-2.8-.5-.3-.2-.6-.5-.6-.9.1-.7 3.5-3 4.2-4.1z"/><path class="st10" d="M269.4 104.2c2.3.9 5.8-2.8 5.7-4.7-.4-2.4.4-7.5.4-9.1 0-6.2-4.2-1-4.2-1s.1 2.1-.1 8.1c0 4.6-4.2 5.7-1.8 6.7z"/><path class="st11" d="M275.3 75.6c-.3 9.6 1 15.2.8 15.7-.4 1.2-5.1 1-5.5 0-.2-.4-1.3-16.1-.6-18.6.9-2.5 5.3 2.9 5.3 2.9z"/><path class="st11" d="M270.4 71.1c1.3-2.5 22.7-17 22.7-17s6 6.5 3.8 8.8c-.5.5-19.7 13.7-21.9 15.4-1.6 1.2-3.2 3.7-3.9 2.3-.7-1.3-2-7-.7-9.5z"/><path class="st9" d="M272.2 108.5c2.9-2.5 3.4-2.6 5.3-5.6 1 0 2.4-.5 3.2.8l.1 1.1c.2 2.5-.6 4.2-.6 4.2-.4.2-.7.2-1.1 0v-.7l-3.3 2.4c-.9.9-2.7 1.5-3.9 1.4 0 0-1.9-.7-1.9-1.6-.1-1.2 1.8-1.5 2.2-2z"/><path class="st10" d="M274.4 108.1c2.3.9 6.1-1.9 5.9-3.9-.2-1.4-.6-2.4-.6-3.5.1-6.9.4-7.9.1-9-.4-1.2-3.4-.6-3.9.1-.5.8.2 3.6.1 9.8-.1 1.9-.1 3.1-.5 4.1-.7 1.4-2 1.7-1.1 2.4z"/><path class="st9" d="M280.9 75.2s.6 19 .1 20.1c-.5 1.1-5.4.7-5.9-.2-.5-1-.9-12.1-1.4-22.3l7.2 2.4z"/><path class="st9" d="M273.8 72.9c1.2-1.4 23.6-15.5 23.6-15.5l10.6-3.6c.9-.2 3.4 8.1.6 10.5-2.3 2-25.5 13.4-27.9 14.1-2.5.7-8.1-4-6.9-5.5z"/><path class="st9" d="M308.5 64.3c-.3.1-3.8 1.3-5.7.9-3.3-.6-10.8-8.3-10.8-8.3l1.4-8.4s10.6 5.5 13.1 6.6c5.9 2.6 2.3 9.1 2 9.2z"/><path class="st12" d="M308 14.2c-.4-1.6-13-.6-13-.6s-2.6 3.6-2.7 6.5c-.1 2.9 2.1 5.5 2.9 6 1.2.9 5.6 3.6 5.6 3.6s3.8-.5 5.6-1.2c1.8-.7 3.9-5.5 3.9-6.4.1-3.3-2.1-6.9-2.3-7.9z"/><path class="st13" d="M301.8 22.9c2.6 1.3 5.2 4.4 5.2 4.4l-3.2 29.5-7.2-5.9-2.7-17.1.7-7.8s4.6-4.4 7.2-3.1z"/><path class="st14" d="M292.5 33.5c.1-2.8.7-6.9.7-6.9s2.6-2.9 3.7-3.5c.6-.2 1.4-.9 1.3-.3-.2.6-1.9 2.1-2.2 2.9-.8 2.1-.6 6.4-.5 8.1.1 1.7.7 7.1 2.1 11.5 3.9-7.7 5.8-16.1 6.4-17.6.7-1.7-2.5-4.4-2.7-4.9l1.4-.4c2.3 1.6 6.8 7 7.7 9.3.9 2.3-.2 7.9-1.2 15.4 0 0 1.2 5.7.6 7.6-.6 1.9-4.6 3.5-6.1 3.3-11-1.3-9.7-6.6-9.7-6.6l-.2-4.8c0-.1-1.4-10.3-1.3-13.1z"/><path class="st13" d="M298.7 23.4c-.7-.1-2 .7-2.4 2.1-.4 1.5.1 3.4.1 3.4l2.4-.1.3-.5c-.1-.5-.3-3.8-.4-4.9zM304 27.1c.2-.6 0-2.7-.9-3.7-1-1.2-3.1-1.4-3.1-1.4l-1 2.1.3.5c.6.2 3.7 2.2 4.7 2.5z"/><path class="st15" d="M296.3 18.6c.4 2.9 2.7 2.8 1.6 5.8-.3.7.9 1.8.9 1.8l4-2.3c-1.2-3.9-.7-5.5-.7-5.5l-5.8.2z"/><path class="st10" d="M303 7.7c-.4-.2-4.2-.3-4.7-.2-6.9 2.3-3.8 11.8-3.6 12.5.4 1.1 1.3 2.5 2.1 3.1 3 2 7-1.7 7.2-2.3.3-.7 5.7-10.3-1-13.1z"/><path class="st15" d="M303.8 20.5c.7.2 1.5-.5 1.8-1.5.3-1 .1-2-.6-2.2-.7-.2-1.9 3.5-1.2 3.7z"/><path class="st12" d="M307.8 11.7c-.8-2.8-3.3-4.7-7.2-5-3.1-.2-6.3 2.9-6.6 5.5 0 .4-.7 3.9-.3 4.1.3.1.3-1.1 1-2.8.5-1.2 1.3-1.7 2.4-2.3 1.2 1.7 2 .7 3.7.8 1.8.1 2.5-.4 2.5-.4s.1 1.1.2 2.4c.1 1.2.1 5.2.1 5.2s4.4-2.2 4.5-5.3c-.1-.5-.1-1.7-.3-2.2z"/><path class="st12" d="m303.9 10.4-8-1c.1.8.1 1.8 2.3 3.6 2.3 2 4.8 2.2 6.8 1-.1-.9-1.1-3.6-1.1-3.6z"/><path class="st13" d="M302.7 23.7s-2 3.1-5.4 3.2l-.3.5c.4 1 2.3 2.6 2.3 2.6s4.8-2.7 4.6-3.9c-.1-1.1-1.2-2.4-1.2-2.4z"/><path class="st7" d="M308 16.8c0 1.5-1.2 3.4-2.7 4.3-1.5.9-2.7.3-2.7-1.1 0-1.5 1.2-3.4 2.7-4.3 1.5-.9 2.7-.4 2.7 1.1z"/><path class="st7" d="M305.5 18c-.3 0-.5-.2-.5-.5-.1-.4-.1-.9 0-1.6.1-2.4.3-6.4-3.7-8.4-2-1-4 .7-4.1.7-.2.2-.6.2-.8-.1-.2-.2-.2-.6.1-.8.1-.1 2.6-2.1 5.3-.8 4.6 2.3 4.4 6.9 4.3 9.4 0 .6-.1 1.1 0 1.4.1.3-.1.6-.4.7h-.2z"/><path class="st12" d="M305.6 16.7c-1 .6-1.8 1.9-1.8 2.9 0 .2 0 .3.1.4-1.8 1.1-4.1 1.9-5.6 2.2h-.1v-.1c-.2-.3-.6-.7-.9-.7-.2 0-.3.1-.3.2-.2.4.1.9.5 1 .2.1.3.1.5.1h.5c1.5-.2 3.9-1.1 5.8-2.3.3.2.9.2 1.4-.1 1-.6 1.8-1.9 1.8-2.9s-.8-1.3-1.9-.7z"/><path class="st6" d="M316.7 105.8v-38l-27.3 8.1v43.6c0 .7.6 1.2 1.2 1.2.1 0 26.1-14.9 26.1-14.9z"/><path class="st6" d="m239.4 53.3 52.3 30.4 29.2-16.8v-2.2l-52.4-28.2-29.1 14.7z"/><path class="st16" d="m239.4 51.2 52.3 30.4 29.2-16.9-52.4-30.4z"/><path class="st10" d="M276.8 46.8c-1-.2-2.9-.4-2.9-.4l3.8-2.5 1.3 1.5-2.2 1.4z"/><path class="st10" d="M276.8 47.5c.3 1.8-2.9 5-3 4.8-.4-.6-.1-.9.1-1.2.5-.7.4-1.6.5-2.4 0-1 2-3 2.4-1.2z"/><path class="st10" d="M269.5 52.4c.1.3.6.2.9.1.4-.2 3-2 3.6-2.5.3-.2.4-1.1-.2-1 0 0-4.4 3-4.3 3.4z"/><path class="st10" d="M274.3 46.1c.7-.4 1.8-1.2 2.4-.6.3.2.4.7.4 1 0 .5-1.5 3-1.5 3s-2.6.9-2.8.7c-.7-.8-1.1-2.3-.7-2.6.7-.7 1.5-1.1 2.2-1.5z"/><path class="st10" d="M273.3 49.1c-.7.7-1.4 1.7-1.9 2-.5.3-2 1.8-2.5 1.3s3.9-3.9 4.3-4c.5-.2.4.4.1.7z"/><path class="st10" d="M272.9 48.4c-.2.6-2.3 2.6-2.3 2.6s-1.1.9-1.3.6c-.2-.4 1-1.4 1-1.4s.7-.6 1-.9c.3-.3.5-.8.9-1 .5-.3.7-.2.7.1z"/><path class="st10" d="M272.1 47.5s.3.4.5.5c.1.1-2.2 2.2-2.2 2.2s-.9.6-1 .2c-.1-.2 2.7-2.9 2.7-2.9z"/><path class="st13" d="m279.4 42.7 1.5 2.4-2.8 1.2-1.2-2.2z"/><path class="st8" d="M290 37.1c1.5 0 2.6 3.1.8 4.6-1.8 1.6-10.9 3.9-10.9 3.9l-2-2.3s10.6-6.2 12.1-6.2z"/><path class="st10" d="M284.1 55.6c.2 0 3.5-.3 5.1-.2 0 0-.2 1-.4 1-.7 0-4.7 0-5-.3-.2-.1-.2-.6.3-.5z"/><path class="st10" d="M284.9 56.9c0-.2 0-.4.2-.5.3-.1 2.3 0 2.7 0 1 0 2.2-.1 2.2-.1l.2 1.3c-.2 0-3-.3-3-.3s-2.3 0-2.3-.4z"/><path class="st10" d="M286 57.7c0-.2-.1-.4.2-.5.3-.1.9 0 1.2-.1h1.3c1 0 .7.9 0 .9s-2.7.1-2.7-.3z"/><path class="st10" d="M286.6 58c0-.2.1-.4.3-.5.3 0 .8.2 1.2.2.1 0 1 .2 1.3.3.9.3-.4.8-.8.7-.4-.1-2.1-.3-2-.7z"/><path class="st10" d="M287.3 57c-.2-.2-.1-.7.1-.9.2-.3 1.9-2.1 4.7-2.2 2.7-.2 3.7 1.7 3.3 2.2-.4.5-.6.8-1.6 1.1-2 .7-5 1.7-5.2 1.6-.1-.3-1.1-1.6-1.3-1.8z"/><path class="st10" d="m297.2 52.8-3.1 1.6-.7 2.9 4.6-2.1z"/><path class="st13" d="m306.1 46.5-11 7.1 1.4 2.4s9.1-2.9 12.8-5.7c2.5-1.7-.7-5.5-3.2-3.8z"/><path class="st10" d="M294.5 54.2c-.3-.3-6.1-1.2-6.5-.6-.4.6 2.4.8 2.6 1.2.3.4-.5.9-.1 1.1.6.2 4.6-1.1 4-1.7z"/><path class="st13" d="M311 33.6c-.3-3.8-3.2-1.6-4.9 1.1-1.5 2.4-.4 15.3-.4 15.3l4.6-.8.7-15.6z"/><path class="st17" d="m263.7 59.6 15 8.7 11-6.4v1.2l-11 6.4-15-8.7z"/><path class="st17" d="m274.6 53.2-11 6.4 15.1 8.7 11-6.4-15.1-8.7z"/><path class="st18" d="m264.8 59.6 13.9 8.1 9.9-5.8-14-8z"/><path class="st17" d="m261.4 50.5 14 8.1 3.8 9.4-.5.3-15-8.7-2.8-8.8z"/></g><circle class="st4" cx="296.3" cy="104.8" r="30"/><defs><circle id="SVGID_00000167398539898625517650000007094506063784259772_" cx="296.3" cy="104.8" r="30"/></defs><clipPath id="SVGID_00000090265449752977008800000010128798846953298066_"><use xlink:href="#SVGID_00000167398539898625517650000007094506063784259772_" style="overflow:visible"/></clipPath><g style="clip-path:url(#SVGID_00000090265449752977008800000010128798846953298066_)"><path class="st6" d="M270.6 157.5v-38l-27.3 8.1v43.6c0 .7.6 1.2 1.2 1.2.1 0 26.1-14.9 26.1-14.9z"/><path class="st7" d="M315.4 116.3c1.4 4.4-2.3 24.6-2.8 25.6-1.1 2.2-18.5-6.4-19-9.3-.9-5.4 0-19.9.8-22.2 1.7-4.8 19.5.9 21 5.9z"/><path class="st7" d="m273.2 142.8 18.7 10.9c.3.2.7.2 1 0l18.9-10.9c.7-.4.7-1.4 0-1.8l-18.7-10.9c-.3-.2-.7-.2-1 0L273.2 141c-.7.4-.7 1.4 0 1.8z"/><path class="st8" d="M287.4 116.2s5.2-14.8 6.9-15.5c1.6-.7 6.4-1.1 5.2 1.2-2.6 4.7-7.1 14.5-8.9 14.5-2.8 0-3.2-.2-3.2-.2z"/><path class="st9" d="M269.4 177.1c2.9-2.5 1.4-.5 3.3-3.5 1 0 2.7-.1 2.9.6.3.7.4 1.7.4 1.7.2 2.5-.6 3.8-.6 3.8-.4.2-.7.2-1.1 0v-.7l-3.3 2.4c-.6.5-1.5 1-2.4 1.2-1 .3-2 .1-2.8-.5-.3-.2-.6-.5-.6-.9.1-.7 3.5-3 4.2-4.1z"/><path class="st10" d="M269.4 179c2.3.9 5.8-2.8 5.7-4.7-.4-2.4.4-7.5.4-9.1 0-6.2-4.2-1-4.2-1s.1 2.1-.1 8.1c0 4.5-4.2 5.7-1.8 6.7z"/><path class="st11" d="M275.3 150.4c-.3 9.6 1 15.2.8 15.7-.4 1.2-5.1 1-5.5 0-.2-.4-1.3-16.1-.6-18.6s5.3 2.9 5.3 2.9z"/><path class="st11" d="M270.4 145.9c1.3-2.5 22.7-17 22.7-17s6 6.5 3.8 8.8c-.5.5-19.7 13.7-21.9 15.4-1.6 1.2-3.2 3.7-3.9 2.3-.7-1.3-2-7-.7-9.5z"/><path class="st9" d="M272.2 183.3c2.9-2.5 3.4-2.6 5.3-5.6 1 0 2.4-.5 3.2.8l.1 1.1c.2 2.5-.6 4.2-.6 4.2-.4.2-.7.2-1.1 0v-.7l-3.3 2.4c-.9.9-2.7 1.5-3.9 1.4 0 0-1.9-.7-1.9-1.6-.1-1.2 1.8-1.5 2.2-2z"/><path class="st10" d="M274.4 182.9c2.3.9 6.1-1.9 5.9-3.9-.2-1.4-.6-2.4-.6-3.5.1-6.9.4-7.9.1-9-.4-1.2-3.4-.6-3.9.1-.5.8.2 3.6.1 9.8-.1 1.9-.1 3.1-.5 4.1-.7 1.4-2 1.7-1.1 2.4z"/><path class="st9" d="M280.9 150s.6 19 .1 20.1c-.5 1.1-5.4.7-5.9-.2-.5-1-.9-12.1-1.4-22.3l7.2 2.4z"/><path class="st9" d="M273.8 147.7c1.2-1.4 23.6-15.5 23.6-15.5l10.6-3.6c.9-.2 3.4 8.1.6 10.5-2.3 2-25.5 13.4-27.9 14.1-2.5.7-8.1-4.1-6.9-5.5z"/><path class="st9" d="M308.5 139.1c-.3.1-3.8 1.3-5.7.9-3.3-.6-10.8-8.3-10.8-8.3l1.4-8.4s10.6 5.5 13.1 6.6c5.9 2.6 2.3 9.1 2 9.2z"/><path class="st12" d="M308 89c-.4-1.6-13-.6-13-.6s-2.6 3.6-2.7 6.5c-.1 2.9 2.1 5.5 2.9 6 1.2.9 5.6 3.6 5.6 3.6s3.8-.5 5.6-1.2c1.8-.7 3.9-5.5 3.9-6.4.1-3.3-2.1-6.9-2.3-7.9z"/><path class="st13" d="M301.8 97.7c2.6 1.3 5.2 4.4 5.2 4.4l-3.2 29.5-7.2-5.9-2.7-17.1.7-7.8s4.6-4.4 7.2-3.1z"/><path class="st14" d="M292.5 108.3c.1-2.8.7-6.9.7-6.9s2.6-2.9 3.7-3.5c.6-.2 1.4-.9 1.3-.3-.2.6-1.9 2.1-2.2 2.9-.8 2.1-.6 6.4-.5 8.1.1 1.7.7 7.1 2.1 11.5 3.9-7.7 5.8-16.1 6.4-17.6.7-1.7-2.5-4.4-2.7-4.9l1.4-.4c2.3 1.6 6.8 7 7.7 9.3.9 2.3-.2 7.9-1.2 15.4 0 0 1.2 5.7.6 7.6-.6 1.9-4.6 3.5-6.1 3.3-11-1.3-9.7-6.6-9.7-6.6l-.2-4.8c0-.1-1.4-10.3-1.3-13.1z"/><path class="st13" d="M298.7 98.2c-.7-.1-2 .7-2.4 2.1-.4 1.5.1 3.4.1 3.4l2.4-.1.3-.5c-.1-.5-.3-3.8-.4-4.9zM304 101.9c.2-.6 0-2.7-.9-3.7-1-1.2-3.1-1.4-3.1-1.4l-1 2.1.3.5c.6.2 3.7 2.2 4.7 2.5z"/><path class="st15" d="M296.3 93.4c.4 2.9 2.7 2.8 1.6 5.8-.3.7.9 1.8.9 1.8l4-2.3c-1.2-3.9-.7-5.5-.7-5.5l-5.8.2z"/><path class="st10" d="M303 82.5c-.4-.2-4.2-.3-4.7-.2-6.9 2.3-3.8 11.8-3.6 12.5.4 1.1 1.3 2.5 2.1 3.1 3 2 7-1.7 7.2-2.3.3-.7 5.7-10.4-1-13.1z"/><path class="st15" d="M303.8 95.3c.7.2 1.5-.5 1.8-1.5.3-1 .1-2-.6-2.2-.7-.2-1.9 3.5-1.2 3.7z"/><path class="st12" d="M307.8 86.5c-.8-2.8-3.3-4.7-7.2-5-3.1-.2-6.3 2.9-6.6 5.5 0 .4-.7 3.9-.3 4.1.3.1.3-1.1 1-2.8.5-1.2 1.3-1.7 2.4-2.3 1.2 1.7 2 .7 3.7.8 1.8.1 2.5-.4 2.5-.4s.1 1.1.2 2.4c.1 1.2.1 5.2.1 5.2s4.4-2.2 4.5-5.3c-.1-.5-.1-1.7-.3-2.2z"/><path class="st12" d="m303.9 85.2-8-1c.1.8.1 1.8 2.3 3.6 2.3 2 4.8 2.2 6.8 1-.1-.9-1.1-3.6-1.1-3.6z"/><path class="st13" d="M302.7 98.5s-2 3.1-5.4 3.2l-.3.5c.4 1 2.3 2.6 2.3 2.6s4.8-2.7 4.6-3.9c-.1-1.1-1.2-2.4-1.2-2.4z"/><path class="st7" d="M308 91.6c0 1.5-1.2 3.4-2.7 4.3-1.5.9-2.7.3-2.7-1.1 0-1.5 1.2-3.4 2.7-4.3 1.5-.9 2.7-.4 2.7 1.1z"/><path class="st7" d="M305.5 92.8c-.3 0-.5-.2-.5-.5-.1-.4-.1-.9 0-1.6.1-2.4.3-6.4-3.7-8.4-2-1-4 .7-4.1.7-.2.2-.6.2-.8-.1-.2-.2-.2-.6.1-.8.1-.1 2.6-2.1 5.3-.8 4.6 2.3 4.4 6.9 4.3 9.4 0 .6-.1 1.1 0 1.4.1.3-.1.6-.4.7h-.2z"/><path class="st12" d="M305.6 91.4c-1 .6-1.8 1.9-1.8 2.9 0 .2 0 .3.1.4-1.8 1.1-4.1 1.9-5.6 2.2h-.1v-.1c-.2-.3-.6-.7-.9-.7-.2 0-.3.1-.3.2-.2.4.1.9.5 1 .2.1.3.1.5.1h.5c1.5-.2 3.9-1.1 5.8-2.3.3.2.9.2 1.4-.1 1-.6 1.8-1.9 1.8-2.9s-.8-1.2-1.9-.7z"/><path class="st6" d="M316.7 180.6v-38l-27.3 8.1v43.6c0 .7.6 1.2 1.2 1.2.1 0 26.1-14.9 26.1-14.9z"/><path class="st6" d="m239.4 128.1 52.3 30.4 29.2-16.8v-2.2l-52.4-28.3-29.1 14.7z"/><path class="st16" d="m239.4 125.9 52.3 30.5 29.2-16.9-52.4-30.4z"/><path class="st10" d="M276.8 121.6c-1-.2-2.9-.4-2.9-.4l3.8-2.5 1.3 1.5-2.2 1.4z"/><path class="st10" d="M276.8 122.3c.3 1.8-2.9 5-3 4.8-.4-.6-.1-.9.1-1.2.5-.7.4-1.6.5-2.4 0-1 2-3 2.4-1.2z"/><path class="st10" d="M269.5 127.2c.1.3.6.2.9.1.4-.2 3-2 3.6-2.5.3-.2.4-1.1-.2-1 0 0-4.4 3-4.3 3.4z"/><path class="st10" d="M274.3 120.9c.7-.4 1.8-1.2 2.4-.6.3.2.4.7.4 1 0 .5-1.5 3-1.5 3s-2.6.9-2.8.7c-.7-.8-1.1-2.3-.7-2.6.7-.7 1.5-1.1 2.2-1.5z"/><path class="st10" d="M273.3 123.9c-.7.7-1.4 1.7-1.9 2-.5.3-2 1.8-2.5 1.3s3.9-3.9 4.3-4c.5-.2.4.4.1.7z"/><path class="st10" d="M272.9 123.2c-.2.6-2.3 2.6-2.3 2.6s-1.1.9-1.3.6c-.2-.4 1-1.4 1-1.4s.7-.6 1-.9c.3-.3.5-.8.9-1 .5-.3.7-.2.7.1z"/><path class="st10" d="M272.1 122.3s.3.4.5.5c.1.1-2.2 2.2-2.2 2.2s-.9.6-1 .2c-.1-.2 2.7-2.9 2.7-2.9z"/><path class="st13" d="m279.4 117.5 1.5 2.4-2.8 1.2-1.2-2.3z"/><path class="st8" d="M290 111.9c1.5 0 2.6 3.1.8 4.6-1.8 1.6-10.9 3.9-10.9 3.9l-2-2.3s10.6-6.2 12.1-6.2z"/><path class="st10" d="M284.1 130.4c.2 0 3.5-.3 5.1-.2 0 0-.2 1-.4 1-.7 0-4.7 0-5-.3-.2-.1-.2-.6.3-.5z"/><path class="st10" d="M284.9 131.7c0-.2 0-.4.2-.5.3-.1 2.3 0 2.7 0 1 0 2.2-.1 2.2-.1l.2 1.3c-.2 0-3-.3-3-.3s-2.3 0-2.3-.4z"/><path class="st10" d="M286 132.5c0-.2-.1-.4.2-.5.3-.1.9 0 1.2-.1h1.3c1 0 .7.9 0 .9s-2.7.1-2.7-.3z"/><path class="st10" d="M286.6 132.8c0-.2.1-.4.3-.5.3 0 .8.2 1.2.2.1 0 1 .2 1.3.3.9.3-.4.8-.8.7-.4-.1-2.1-.3-2-.7z"/><path class="st10" d="M287.3 131.8c-.2-.2-.1-.7.1-.9.2-.3 1.9-2.1 4.7-2.2 2.7-.2 3.7 1.7 3.3 2.2-.4.5-.6.8-1.6 1.1-2 .7-5 1.7-5.2 1.6-.1-.3-1.1-1.6-1.3-1.8z"/><path class="st10" d="m297.2 127.6-3.1 1.6-.7 2.9 4.6-2.1z"/><path class="st13" d="m306.1 121.3-11 7.1 1.4 2.4s9.1-2.9 12.8-5.7c2.5-1.7-.7-5.5-3.2-3.8z"/><path class="st10" d="M294.5 129c-.3-.3-6.1-1.2-6.5-.6-.4.6 2.4.8 2.6 1.2.3.4-.5.9-.1 1.1.6.2 4.6-1.1 4-1.7z"/><path class="st13" d="M311 108.4c-.3-3.8-3.2-1.6-4.9 1.1-1.5 2.4-.4 15.3-.4 15.3l4.6-.8.7-15.6z"/><path class="st17" d="m263.7 134.4 15 8.7 11-6.4v1.2l-11 6.4-15-8.7z"/><path class="st17" d="m274.6 128-11 6.4 15.1 8.7 11-6.4-15.1-8.7z"/><path class="st18" d="m264.8 134.4 13.9 8 9.9-5.7-14-8z"/><path class="st17" d="m261.4 125.3 14 8.1 3.8 9.4-.5.3-15-8.7-2.8-8.8z"/></g><circle class="st4" cx="296.3" cy="179.6" r="30"/><defs><circle id="SVGID_00000134233280823243902950000008648878109305076893_" cx="296.3" cy="179.6" r="30"/></defs><clipPath id="SVGID_00000168118438598387188500000015318271894860776856_"><use xlink:href="#SVGID_00000134233280823243902950000008648878109305076893_" style="overflow:visible"/></clipPath><g style="clip-path:url(#SVGID_00000168118438598387188500000015318271894860776856_)"><path class="st6" d="M270.6 232.3v-38l-27.3 8.1V246c0 .7.6 1.2 1.2 1.2.1 0 26.1-14.9 26.1-14.9z"/><path class="st7" d="M315.4 191c1.4 4.4-2.3 24.6-2.8 25.6-1.1 2.2-18.5-6.4-19-9.3-.9-5.4 0-19.9.8-22.2 1.7-4.7 19.5 1 21 5.9z"/><path class="st7" d="m273.2 217.6 18.7 10.9c.3.2.7.2 1 0l18.9-10.9c.7-.4.7-1.4 0-1.8l-18.7-10.9c-.3-.2-.7-.2-1 0l-18.9 10.9c-.7.4-.7 1.4 0 1.8z"/><path class="st8" d="M287.4 190.9s5.2-14.8 6.9-15.5c1.6-.7 6.4-1.1 5.2 1.2-2.6 4.7-7.1 14.5-8.9 14.5-2.8.1-3.2-.2-3.2-.2z"/><path class="st9" d="M269.4 251.9c2.9-2.5 1.4-.5 3.3-3.5 1 0 2.7-.1 2.9.6.3.7.4 1.7.4 1.7.2 2.5-.6 3.8-.6 3.8-.4.2-.7.2-1.1 0v-.7l-3.3 2.4c-.6.5-1.5 1-2.4 1.2-1 .3-2 .1-2.8-.5-.3-.2-.6-.5-.6-.9.1-.7 3.5-3 4.2-4.1z"/><path class="st10" d="M269.4 253.7c2.3.9 5.8-2.8 5.7-4.7-.4-2.4.4-7.5.4-9.1 0-6.2-4.2-1-4.2-1s.1 2.1-.1 8.1c0 4.6-4.2 5.8-1.8 6.7z"/><path class="st11" d="M275.3 225.2c-.3 9.6 1 15.2.8 15.7-.4 1.2-5.1 1-5.5 0-.2-.4-1.3-16.1-.6-18.6s5.3 2.9 5.3 2.9z"/><path class="st11" d="M270.4 220.7c1.3-2.5 22.7-17 22.7-17s6 6.5 3.8 8.8c-.5.5-19.7 13.7-21.9 15.4-1.6 1.2-3.2 3.7-3.9 2.3-.7-1.3-2-7-.7-9.5z"/><path class="st9" d="M272.2 258.1c2.9-2.5 3.4-2.6 5.3-5.6 1 0 2.4-.5 3.2.8l.1 1.1c.2 2.5-.6 4.2-.6 4.2-.4.2-.7.2-1.1 0v-.7l-3.3 2.4c-.9.9-2.7 1.5-3.9 1.4 0 0-1.9-.7-1.9-1.6-.1-1.2 1.8-1.6 2.2-2z"/><path class="st10" d="M274.4 257.7c2.3.9 6.1-1.9 5.9-3.9-.2-1.4-.6-2.4-.6-3.5.1-6.9.4-7.9.1-9-.4-1.2-3.4-.6-3.9.1-.5.8.2 3.6.1 9.8-.1 1.9-.1 3.1-.5 4.1-.7 1.4-2 1.7-1.1 2.4z"/><path class="st9" d="M280.9 224.8s.6 19 .1 20.1c-.5 1.1-5.4.7-5.9-.2-.5-1-.9-12.1-1.4-22.3l7.2 2.4z"/><path class="st9" d="M273.8 222.5c1.2-1.4 23.6-15.5 23.6-15.5l10.6-3.6c.9-.2 3.4 8.1.6 10.5-2.3 2-25.5 13.4-27.9 14.1-2.5.7-8.1-4.1-6.9-5.5z"/><path class="st9" d="M308.5 213.9c-.3.1-3.8 1.3-5.7.9-3.3-.6-10.8-8.3-10.8-8.3l1.4-8.4s10.6 5.5 13.1 6.6c5.9 2.6 2.3 9.1 2 9.2z"/><path class="st12" d="M308 163.8c-.4-1.6-13-.6-13-.6s-2.6 3.6-2.7 6.5c-.1 2.9 2.1 5.5 2.9 6 1.2.9 5.6 3.6 5.6 3.6s3.8-.5 5.6-1.2c1.8-.7 3.9-5.5 3.9-6.4.1-3.3-2.1-6.9-2.3-7.9z"/><path class="st13" d="M301.8 172.5c2.6 1.3 5.2 4.4 5.2 4.4l-3.2 29.5-7.2-5.9-2.7-17.1.7-7.8s4.6-4.4 7.2-3.1z"/><path class="st14" d="M292.5 183c.1-2.8.7-6.9.7-6.9s2.6-2.9 3.7-3.5c.6-.2 1.4-.9 1.3-.3-.2.6-1.9 2.1-2.2 2.9-.8 2.1-.6 6.4-.5 8.1.1 1.7.7 7.1 2.1 11.5 3.9-7.7 5.8-16.1 6.4-17.6.7-1.7-2.5-4.4-2.7-4.9l1.4-.4c2.3 1.6 6.8 7 7.7 9.3.9 2.3-.2 7.9-1.2 15.4 0 0 1.2 5.7.6 7.6-.6 1.9-4.6 3.5-6.1 3.3-11-1.3-9.7-6.6-9.7-6.6l-.2-4.8s-1.4-10.2-1.3-13.1z"/><path class="st13" d="M298.7 173c-.7-.1-2 .7-2.4 2.1-.4 1.5.1 3.4.1 3.4l2.4-.1.3-.5c-.1-.5-.3-3.8-.4-4.9zM304 176.7c.2-.6 0-2.7-.9-3.7-1-1.2-3.1-1.4-3.1-1.4l-1 2.1.3.5c.6.2 3.7 2.1 4.7 2.5z"/><path class="st15" d="M296.3 168.2c.4 2.9 2.7 2.8 1.6 5.8-.3.7.9 1.8.9 1.8l4-2.3c-1.2-3.9-.7-5.5-.7-5.5l-5.8.2z"/><path class="st10" d="M303 157.3c-.4-.2-4.2-.3-4.7-.2-6.9 2.3-3.8 11.8-3.6 12.5.4 1.1 1.3 2.5 2.1 3.1 3 2 7-1.7 7.2-2.3.3-.7 5.7-10.4-1-13.1z"/><path class="st15" d="M303.8 170.1c.7.2 1.5-.5 1.8-1.5.3-1 .1-2-.6-2.2-.7-.2-1.9 3.5-1.2 3.7z"/><path class="st12" d="M307.8 161.3c-.8-2.8-3.3-4.7-7.2-5-3.1-.2-6.3 2.9-6.6 5.5 0 .4-.7 3.9-.3 4.1.3.1.3-1.1 1-2.8.5-1.2 1.3-1.7 2.4-2.3 1.2 1.7 2 .7 3.7.8 1.8.1 2.5-.4 2.5-.4s.1 1.1.2 2.4c.1 1.2.1 5.2.1 5.2s4.4-2.2 4.5-5.3c-.1-.5-.1-1.7-.3-2.2z"/><path class="st12" d="m303.9 160-8-1c.1.8.1 1.8 2.3 3.6 2.3 2 4.8 2.2 6.8 1-.1-.9-1.1-3.6-1.1-3.6z"/><path class="st13" d="M302.7 173.3s-2 3.1-5.4 3.2l-.3.5c.4 1 2.3 2.6 2.3 2.6s4.8-2.7 4.6-3.9c-.1-1.1-1.2-2.4-1.2-2.4z"/><path class="st7" d="M308 166.4c0 1.5-1.2 3.4-2.7 4.3-1.5.9-2.7.3-2.7-1.1s1.2-3.4 2.7-4.3c1.5-.9 2.7-.4 2.7 1.1z"/><path class="st7" d="M305.5 167.6c-.3 0-.5-.2-.5-.5-.1-.4-.1-.9 0-1.6.1-2.4.3-6.4-3.7-8.4-2-1-4 .7-4.1.7-.2.2-.6.2-.8-.1-.2-.2-.2-.6.1-.8.1-.1 2.6-2.1 5.3-.8 4.6 2.3 4.4 6.9 4.3 9.4 0 .6-.1 1.1 0 1.4.1.3-.1.6-.4.7-.1-.1-.2 0-.2 0z"/><path class="st12" d="M305.6 166.2c-1 .6-1.8 1.9-1.8 2.9 0 .2 0 .3.1.4-1.8 1.1-4.1 1.9-5.6 2.2h-.1v-.1c-.2-.3-.6-.7-.9-.7-.2 0-.3.1-.3.2-.2.4.1.9.5 1 .2.1.3.1.5.1h.5c1.5-.2 3.9-1.1 5.8-2.3.3.2.9.2 1.4-.1 1-.6 1.8-1.9 1.8-2.9s-.8-1.2-1.9-.7z"/><path class="st6" d="M316.7 255.4v-38l-27.3 8.1V269c0 .7.6 1.2 1.2 1.2.1.1 26.1-14.8 26.1-14.8z"/><path class="st6" d="m239.4 202.9 52.3 30.4 29.2-16.8v-2.2L268.5 186l-29.1 14.7z"/><path class="st16" d="m239.4 200.7 52.3 30.5 29.2-16.9-52.4-30.4z"/><path class="st10" d="M276.8 196.4c-1-.2-2.9-.4-2.9-.4l3.8-2.5 1.3 1.5-2.2 1.4z"/><path class="st10" d="M276.8 197c.3 1.8-2.9 5-3 4.8-.4-.6-.1-.9.1-1.2.5-.7.4-1.6.5-2.4 0-.9 2-2.9 2.4-1.2z"/><path class="st10" d="M269.5 201.9c.1.3.6.2.9.1.4-.2 3-2 3.6-2.5.3-.2.4-1.1-.2-1 0 .1-4.4 3.1-4.3 3.4z"/><path class="st10" d="M274.3 195.7c.7-.4 1.8-1.2 2.4-.6.3.2.4.7.4 1 0 .5-1.5 3-1.5 3s-2.6.9-2.8.7c-.7-.8-1.1-2.3-.7-2.6.7-.7 1.5-1.1 2.2-1.5z"/><path class="st10" d="M273.3 198.7c-.7.7-1.4 1.7-1.9 2-.5.3-2 1.8-2.5 1.3s3.9-3.9 4.3-4c.5-.2.4.4.1.7z"/><path class="st10" d="M272.9 198c-.2.6-2.3 2.6-2.3 2.6s-1.1.9-1.3.6c-.2-.4 1-1.4 1-1.4s.7-.6 1-.9c.3-.3.5-.8.9-1 .5-.3.7-.2.7.1z"/><path class="st10" d="M272.1 197.1s.3.4.5.5c.1.1-2.2 2.2-2.2 2.2s-.9.6-1 .2c-.1-.3 2.7-2.9 2.7-2.9z"/><path class="st13" d="m279.4 192.3 1.5 2.4-2.8 1.2-1.2-2.3z"/><path class="st8" d="M290 186.7c1.5 0 2.6 3.1.8 4.6-1.8 1.6-10.9 3.9-10.9 3.9l-2-2.3s10.6-6.2 12.1-6.2z"/><path class="st10" d="M284.1 205.1c.2 0 3.5-.3 5.1-.2 0 0-.2 1-.4 1-.7 0-4.7 0-5-.3-.2-.1-.2-.6.3-.5zM284.9 206.5c0-.2 0-.4.2-.5.3-.1 2.3 0 2.7 0 1 0 2.2-.1 2.2-.1l.2 1.3c-.2 0-3-.3-3-.3s-2.3 0-2.3-.4z"/><path class="st10" d="M286 207.3c0-.2-.1-.4.2-.5.3-.1.9 0 1.2-.1h1.3c1 0 .7.9 0 .9s-2.7.1-2.7-.3z"/><path class="st10" d="M286.6 207.6c0-.2.1-.4.3-.5.3 0 .8.2 1.2.2.1 0 1 .2 1.3.3.9.3-.4.8-.8.7-.4-.1-2.1-.3-2-.7z"/><path class="st10" d="M287.3 206.5c-.2-.2-.1-.7.1-.9.2-.3 1.9-2.1 4.7-2.2 2.7-.2 3.7 1.7 3.3 2.2-.4.5-.6.8-1.6 1.1-2 .7-5 1.7-5.2 1.6-.1-.2-1.1-1.6-1.3-1.8z"/><path class="st10" d="m297.2 202.4-3.1 1.6-.7 2.9 4.6-2.2z"/><path class="st13" d="m306.1 196.1-11 7.1 1.4 2.4s9.1-2.9 12.8-5.7c2.5-1.7-.7-5.5-3.2-3.8z"/><path class="st10" d="M294.5 203.8c-.3-.3-6.1-1.2-6.5-.6-.4.6 2.4.8 2.6 1.2.3.4-.5.9-.1 1.1.6.2 4.6-1.1 4-1.7z"/><path class="st13" d="M311 183.2c-.3-3.8-3.2-1.6-4.9 1.1-1.5 2.4-.4 15.3-.4 15.3l4.6-.8.7-15.6z"/><path class="st17" d="m263.7 209.2 15 8.7 11-6.4v1.2l-11 6.4-15-8.7z"/><path class="st17" d="m274.6 202.8-11 6.4 15.1 8.7 11-6.4-15.1-8.7z"/><path class="st18" d="m264.8 209.2 13.9 8 9.9-5.7-14-8z"/><path class="st17" d="m261.4 200.1 14 8.1 3.8 9.4-.5.3-15-8.7-2.8-8.8z"/></g><circle cx="120.2" cy="110.9" r="40" style="fill:#fff;stroke:#ffe410;stroke-width:5;stroke-miterlimit:10"/><path class="st0" d="M342.3 134.8c0 4.4-3.6 8-8 8h-76c-4.4 0-8-3.6-8-8s3.6-8 8-8h76c4.4 0 8 3.6 8 8z"/><path class="st18" d="M265.8 131.8c-.2.3-.3.6-.4.8h2v5.4c0 .6-.1.9-.5 1.1-.4.2-.9.2-1.7.2 0-.3-.2-.7-.3-1h-2.4v.5h-1v-3.1h3.9v2.5h.8c.2 0 .2-.1.2-.2v-3.1c-.1.3-.4.4-.8.4h-.8c-.9 0-1.1-.3-1.1-1.1v-.6h-.8c-.1 1.1-.5 1.7-2 2.1-.1-.2-.2-.5-.4-.7v4.3h-1.1v-6.7h1.8c-.1-.2-.2-.5-.3-.8h-1.8v-1.1h3.7v-.7h1.2v.8h3.8v1.1h-2zm-5.5 3.1c1.1-.2 1.3-.6 1.4-1.3h-1.4v1.3zm3.8-2.3c.1-.2.3-.5.4-.8H262c.1.3.3.6.3.8h1.8zm0 4h-1.8v.8h1.8v-.8zm2.1-3h-1.7v.6c0 .2 0 .2.2.2h.5c.2 0 .2-.1.2-.5.1.1.4.2.7.3v-.6zM268.9 134.8h3.8v4.4h-1.2v-.4H270v.5h-1.1v-4.5zm1.2 1.2v1.7h1.5V136h-1.5zm6.1-2h-5.9v-3.6h5.9v3.6zm-1.2-2.5h-3.5v1.3h3.5v-1.3zm2.5 3.3v4.5h-1.2v-.5h-1.6v.5h-1.1v-4.5h3.9zm-1.2 2.9V136h-1.6v1.7h1.6zM281.6 131h2.4c1.5 0 2.7.4 2.7 1.8 0 .7-.4 1.4-1 1.6v.1c.8.2 1.4.7 1.4 1.7 0 1.5-1.2 2.2-2.9 2.2h-2.6V131zm2.4 3.1c.9 0 1.3-.4 1.3-1s-.4-.9-1.3-.9h-.9v1.9h.9zm.1 3.2c1 0 1.6-.4 1.6-1.1 0-.7-.5-1-1.6-1h-1v2.2h1zM301.4 135.3c-.4.1-.7.2-1.1.3v2.4c0 .6-.1.9-.4 1-.3.2-.8.2-1.5.2 0-.3-.2-.8-.3-1.1h.9c.1 0 .2 0 .2-.2v-2.1l-1.1.3-.3-1.1c.4-.1.9-.2 1.4-.3V133H298v-1.1h1.2V130h1.2v1.9h1v1.1h-1v1.5l1-.2v1zm5.7 2.6v1.1H301v-1.1h6.1zm-.6-1h-4.8v-6.3h4.8v6.3zm-1.2-5.2h-2.5v1.5h2.5v-1.5zm0 2.6h-2.5v1.5h2.5v-1.5zM309.8 133.1c-.2-.6-.7-1.6-1.2-2.3l1.1-.4c.5.7 1 1.6 1.2 2.2l-1.1.5zm3.4.3h3.2v5.9h-1.3v-.4h-6.5v-1.2h6.5v-1h-5.9v-1.1h5.9v-.9h-6.2v-1.2h3V130h1.3v3.4zm3.3-2.7c-.4.9-.9 1.8-1.4 2.5l-1-.4c.4-.7.8-1.7 1.1-2.5l1.3.4zM320.6 134.7c0-2.4 1.3-3.8 3.3-3.8 2 0 3.3 1.4 3.3 3.8s-1.3 3.9-3.3 3.9c-2 0-3.3-1.5-3.3-3.9zm5.1 0c0-1.6-.7-2.5-1.8-2.5s-1.8.9-1.8 2.5.7 2.6 1.8 2.6 1.8-1 1.8-2.6zM328.6 131h2.4c1.6 0 2.9.6 2.9 2.3 0 1.7-1.3 2.4-2.9 2.4h-1v2.6h-1.5V131zm2.4 3.6c1 0 1.5-.4 1.5-1.3s-.5-1.1-1.6-1.1h-.8v2.4h.9z"/><path class="st0" d="M341.3 60c0 4.4-3.6 8-8 8h-74c-4.4 0-8-3.6-8-8s3.6-8 8-8h74c4.4 0 8 3.6 8 8z"/><path class="st18" d="M266 57c-.2.3-.3.6-.4.8h2v5.4c0 .6-.1.9-.5 1.1-.4.2-.9.2-1.7.2 0-.3-.2-.7-.3-1h-2.4v.5h-1v-3.1h3.9v2.5h.8c.2 0 .2-.1.2-.2v-3.1c-.1.3-.4.4-.8.4h-.8c-.9 0-1.1-.3-1.1-1.1v-.6h-.8c-.1 1.1-.5 1.7-2 2.1-.1-.2-.2-.5-.4-.7v4.3h-1.1v-6.7h1.8c-.1-.2-.2-.5-.3-.8H259v-1.1h3.7v-.8h1.2v.8h3.8V57H266zm-5.5 3.1c1.1-.2 1.3-.6 1.4-1.3h-1.4v1.3zm3.8-2.3c.1-.2.3-.5.4-.8h-2.5c.1.3.3.6.3.8h1.8zm0 4h-1.8v.8h1.8v-.8zm2.1-3h-1.7v.6c0 .2 0 .2.2.2h.5c.2 0 .2-.1.2-.5.1.1.4.2.7.3v-.6zM269.1 60h3.8v4.4h-1.2V64h-1.5v.5h-1.1V60zm1.2 1.2v1.7h1.5v-1.7h-1.5zm6.1-2h-5.9v-3.6h5.9v3.6zm-1.2-2.5h-3.5V58h3.5v-1.3zm2.5 3.3v4.5h-1.2V64h-1.6v.5h-1.1V60h3.9zm-1.2 2.9v-1.7h-1.6v1.7h1.6zM283.2 56.2h1.7l2.4 7.4h-1.5l-.5-1.9h-2.4l-.5 1.9h-1.5l2.3-7.4zm0 4.4h1.8l-.2-.8-.6-2.4-.6 2.4-.4.8zM301.2 60.5c-.4.1-.7.2-1.1.3v2.4c0 .6-.1.9-.4 1-.3.2-.8.2-1.5.2 0-.3-.2-.8-.3-1.1h.9c.1 0 .2 0 .2-.2V61l-1.1.3-.3-1.1c.4-.1.9-.2 1.4-.3v-1.7h-1.2v-1.1h1.2v-1.9h1.2v1.9h1v1.1h-1v1.5l1-.2v1zm5.7 2.6v1.1h-6.1v-1.1h6.1zm-.6-1h-4.8v-6.3h4.8v6.3zm-1.2-5.2h-2.5v1.5h2.5v-1.5zm0 2.6h-2.5V61h2.5v-1.5zM309.6 58.3c-.2-.6-.7-1.6-1.2-2.3l1.1-.4c.5.7 1 1.6 1.2 2.2l-1.1.5zm3.4.3h3.2v5.9h-1.3v-.4h-6.5v-1.2h6.5v-1H309v-1.1h5.9v-.9h-6.2v-1.2h3v-3.5h1.3v3.4zm3.3-2.7c-.4.9-.9 1.8-1.4 2.5l-1-.4c.4-.7.8-1.7 1.1-2.5l1.3.4zM320.4 59.9c0-2.4 1.3-3.8 3.3-3.8 2 0 3.3 1.4 3.3 3.8s-1.3 3.9-3.3 3.9c-2 0-3.3-1.5-3.3-3.9zm5.1 0c0-1.6-.7-2.5-1.8-2.5s-1.8.9-1.8 2.5.7 2.6 1.8 2.6 1.8-1 1.8-2.6zM328.4 56.2h2.4c1.6 0 2.9.6 2.9 2.3 0 1.7-1.3 2.4-2.9 2.4h-1v2.6h-1.5v-7.3zm2.4 3.7c1 0 1.5-.4 1.5-1.3s-.5-1.1-1.6-1.1h-.8v2.4h.9z"/><path class="st0" d="M341.3 209.6c0 4.4-3.6 8-8 8h-74c-4.4 0-8-3.6-8-8s3.6-8 8-8h74c4.4 0 8 3.6 8 8z"/><path class="st18" d="M261.3 205.7c.4 0 2.3-.1 2.9-.1.3 0 .5-.1.7-.1l.8.9c-.2.1-.6.4-.8.5-.7.6-1.7 1.4-2.4 1.9 1.3-.1 3-.2 4.2-.2v1.2c-1 0-2-.1-2.6 0-.9.1-1.7.8-1.7 1.6s.6 1.1 1.5 1.2c.6.1 1.1.1 1.5 0l-.3 1.3c-2.6.1-4-.7-4-2.3 0-.6.3-1.2.7-1.6-.9.1-2 .2-3 .4l-.1-1.2c.5 0 1.2-.1 1.8-.2.9-.6 2.2-1.7 2.8-2.3-.4 0-1.6.1-2 .1-.2 0-.6.1-.9.1l-.1-1.3c.3 0 .6.1 1 .1zM273.3 213.7l-.7-1.2c.4 0 .7-.1.9-.2 1.3-.3 2.3-1.2 2.3-2.7 0-1.4-.7-2.4-2.1-2.6-.1.8-.3 1.8-.6 2.7-.6 2-1.5 3.3-2.5 3.3-1.1 0-2-1.2-2-2.9 0-2.3 2-4.3 4.6-4.3 2.5 0 4 1.7 4 3.9-.1 2.2-1.4 3.7-3.9 4zm-2.7-2.2c.4 0 .8-.6 1.2-2 .2-.7.4-1.6.5-2.4-1.6.3-2.5 1.8-2.5 2.9 0 1 .4 1.5.8 1.5zM281.4 205.2c-.3.7-.6 1.4-.9 2v6.9h-1.2V209c-.2.3-.4.5-.6.7-.1-.3-.4-.9-.6-1.2.9-.9 1.8-2.3 2.3-3.7l1 .4zm4.3 7.7c.6 0 .7-.2.8-1.4.3.2.7.4 1.1.5-.1 1.5-.5 2-1.8 2h-2.2c-1.4 0-1.8-.4-1.8-1.8v-2.7l-.7.3-.5-1 1.2-.5v-2.4h1.2v1.9l1-.4v-2.6h1.1v2.2l1-.4.4-.3.8.3v.2c0 1.7 0 2.9-.1 3.4 0 .5-.2.8-.6.9-.3.1-.8.1-1.1.1 0-.3-.1-.8-.3-1.1h.6c.1 0 .2 0 .3-.2 0-.2 0-.8.1-2.1l-1 .4v3.6h-1.1v-3.1l-1 .4v3.2c0 .6.1.7.7.7h1.9zM301.8 210.1c-.4.1-.7.2-1.1.3v2.4c0 .6-.1.9-.4 1-.3.2-.8.2-1.5.2 0-.3-.2-.8-.3-1.1h.9c.1 0 .2 0 .2-.2v-2.1l-1.1.3-.3-1.1c.4-.1.9-.2 1.4-.3v-1.7h-1.2v-1.1h1.2v-1.9h1.2v1.9h1v1.1h-1v1.5l1-.2v1zm5.7 2.6v1.1h-6.1v-1.1h6.1zm-.6-1H302v-6.3h4.8v6.3zm-1.2-5.2h-2.5v1.5h2.5v-1.5zm0 2.6h-2.5v1.5h2.5v-1.5zM310.1 207.9c-.2-.6-.7-1.6-1.2-2.3l1.1-.4c.5.7 1 1.6 1.2 2.2l-1.1.5zm3.4.4h3.2v5.9h-1.3v-.4H309v-1.2h6.5v-1h-5.9v-1.1h5.9v-.9h-6.2v-1.2h3v-3.5h1.3v3.4zm3.4-2.8c-.4.9-.9 1.8-1.4 2.5l-1-.4c.4-.7.8-1.7 1.1-2.5l1.3.4zM320.9 209.5c0-2.4 1.3-3.8 3.3-3.8 2 0 3.3 1.4 3.3 3.8s-1.3 3.9-3.3 3.9c-1.9 0-3.3-1.5-3.3-3.9zm5.1 0c0-1.6-.7-2.5-1.8-2.5s-1.8.9-1.8 2.5.7 2.6 1.8 2.6 1.8-1 1.8-2.6zM329 205.9h2.4c1.6 0 2.9.6 2.9 2.3 0 1.7-1.3 2.4-2.9 2.4h-1v2.6H329v-7.3zm2.3 3.6c1 0 1.5-.4 1.5-1.3s-.5-1.1-1.6-1.1h-.8v2.4h.9z"/><path d="M153.2 62.4c0 8.8-7.2 16-16 16h-34c-8.8 0-16-7.2-16-16s7.2-16 16-16h34c8.8 0 16 7.2 16 16z" style="fill:#ffe410"/><path class="st0" d="m110.3 62.2-.3.6h7.9v7h-2v-.5h-5.6v.5h-1.9v-4.2c-.7 1-1.6 1.8-2.4 2.4-.3-.4-1-1.1-1.4-1.4 1.6-1 2.9-2.6 3.7-4.4h-3.1v-1.5h6.1V60h-4.5v-1.4h4.5V58H106v-1.5h2.7c-.2-.4-.4-.8-.7-1.1l1.7-.5c.4.5.8 1.1 1 1.6h-.1 3.5-.1c.3-.5.7-1.1.8-1.6l2.1.5c-.3.4-.6.8-.9 1.1h2.7V58h-5.5v.7h4.6V60h-4.6v.7h6.1v1.5h-9zm0 2v.6h5.6v-.6h-5.6zm5.6 1.6h-5.6v.6h5.6v-.6zm0 2.2v-.6h-5.6v.6h5.6zM126.1 55.5c-.4 1-.9 2.1-1.5 3.1v11.2h-1.8v-8.5c-.4.6-.9 1.1-1.3 1.5-.2-.4-.7-1.5-1-1.9 1.5-1.4 3-3.7 3.9-6l1.7.6zm9.6 2.3v1.5h-10.2v-1.5h10.2zm-9.2 6.9h8.4v5.1H133v-.6h-4.6v.6h-1.8v-5.1zm8.1-3.1h-7.9v-1.5h7.9v1.5zm-7.9.8h7.8v1.5h-7.8v-1.5zm7.6-5.4H127v-1.5h7.3V57zm-6 9.2v1.6h4.6v-1.6h-4.6zM137.2 93.9h-17.7c-.5 0-1 .4-1 1 0 .5.4 1 1 1h17.7c1.8 0 3.3 1.5 3.3 3.3v26c0 1.8-1.5 3.3-3.3 3.3h-33c-1.8 0-3.3-1.5-3.3-3.3v-26c0-1.8 1.4-3.2 3.1-3.3v23.9c0 2.6 2.1 4.8 4.8 4.8h3.4c2.6 0 4.8-2.1 4.8-4.8V94.6c0-2.6-2.1-4.8-4.8-4.8h-3.4c-2.4 0-4.4 1.8-4.7 4.1-2.8 0-5.1 2.3-5.1 5.2v26c0 2.9 2.3 5.2 5.2 5.2h33c2.9 0 5.2-2.3 5.2-5.2v-26c0-2.9-2.4-5.2-5.2-5.2zm-31.2.7c0-1.6 1.3-2.8 2.8-2.8h3.4c1.6 0 2.8 1.3 2.8 2.8v25.2c0 1.6-1.3 2.8-2.8 2.8h-3.4c-1.6 0-2.8-1.3-2.8-2.8V94.6z"/><path class="st0" d="M107.8 97.3c.5 0 1-.4 1-1v-1.7h1.7c.5 0 1-.4 1-1 0-.5-.4-1-1-1h-2.7c-.5 0-1 .4-1 1v2.7c0 .6.5 1 1 1zM109.6 120.7c0 .5.4 1 1 1h2.7c.5 0 1-.4 1-1V118c0-.5-.4-1-1-1s-1 .4-1 1v1.7h-1.7c-.6 0-1 .4-1 1zM136.3 99.2H121c-.5 0-1 .4-1 1v5.7c0 .5.4 1 1 1h15.2c.5 0 1-.4 1-1v-5.7c.1-.6-.4-1-.9-1zm-1 5.7H122v-3.8h13.3v3.8zM128.7 108.1c-1.4 0-2.6 1.1-2.6 2.6 0 1.4 1.1 2.6 2.6 2.6 1.4 0 2.6-1.1 2.6-2.6-.1-1.5-1.2-2.6-2.6-2.6zm0 3.2c-.3 0-.6-.3-.6-.6s.3-.6.6-.6.6.3.6.6-.3.6-.6.6zM128.7 113.7c-1.4 0-2.6 1.1-2.6 2.6s1.1 2.6 2.6 2.6c1.4 0 2.6-1.1 2.6-2.6s-1.2-2.6-2.6-2.6zm0 3.2c-.3 0-.6-.3-.6-.6s.3-.6.6-.6.6.3.6.6-.3.6-.6.6zM128.7 119.3c-1.4 0-2.6 1.1-2.6 2.6 0 1.4 1.1 2.6 2.6 2.6 1.4 0 2.6-1.1 2.6-2.6-.1-1.4-1.2-2.6-2.6-2.6zm0 3.2c-.3 0-.6-.3-.6-.6s.3-.6.6-.6.6.3.6.6-.3.6-.6.6zM134.8 108.1c-1.4 0-2.6 1.1-2.6 2.6 0 1.4 1.1 2.6 2.6 2.6 1.4 0 2.6-1.1 2.6-2.6-.1-1.5-1.2-2.6-2.6-2.6zm0 3.2c-.3 0-.6-.3-.6-.6s.3-.6.6-.6.6.3.6.6-.3.6-.6.6zM134.8 113.7c-1.4 0-2.6 1.1-2.6 2.6s1.1 2.6 2.6 2.6c1.4 0 2.6-1.1 2.6-2.6s-1.2-2.6-2.6-2.6zm0 3.2c-.3 0-.6-.3-.6-.6s.3-.6.6-.6.6.3.6.6-.3.6-.6.6zM134.8 119.3c-1.4 0-2.6 1.1-2.6 2.6 0 1.4 1.1 2.6 2.6 2.6 1.4 0 2.6-1.1 2.6-2.6-.1-1.4-1.2-2.6-2.6-2.6zm0 3.2c-.3 0-.6-.3-.6-.6s.3-.6.6-.6.6.3.6.6-.3.6-.6.6zM122.6 113.2c1.4 0 2.6-1.1 2.6-2.6 0-1.4-1.1-2.6-2.6-2.6s-2.6 1.1-2.6 2.6c0 1.4 1.2 2.6 2.6 2.6zm0-3.2c.3 0 .6.3.6.6s-.3.6-.6.6-.6-.3-.6-.6.2-.6.6-.6zM122.6 118.8c1.4 0 2.6-1.1 2.6-2.6s-1.1-2.6-2.6-2.6-2.6 1.1-2.6 2.6 1.2 2.6 2.6 2.6zm0-3.1c.3 0 .6.3.6.6s-.3.6-.6.6-.6-.3-.6-.6.2-.6.6-.6zM122.6 124.4c1.4 0 2.6-1.1 2.6-2.6 0-1.4-1.1-2.6-2.6-2.6s-2.6 1.1-2.6 2.6 1.2 2.6 2.6 2.6zm0-3.1c.3 0 .6.3.6.6s-.3.6-.6.6-.6-.3-.6-.6.2-.6.6-.6z"/><path class="st18" d="M254.2 5.1h17.5v17.5h-17.5z"/><path class="st0" d="M271.4 5.4v17h-17v-17h17m.5-.5h-18v18h18v-18z"/><path class="st0" d="M264.6 18.7h-1.9v-7.2c-.7.7-1.5 1.1-2.5 1.5v-1.7c.5-.2 1-.5 1.6-.9s1-1 1.2-1.6h1.6v9.9z"/><path class="st18" d="M254.2 79.9h17.5v17.5h-17.5z"/><path class="st0" d="M271.4 80.2v17h-17v-17h17m.5-.5h-18v18h18v-18z"/><path class="st0" d="M266.1 91.8v1.8h-6.7c.1-.7.3-1.3.7-1.9s1.1-1.4 2.2-2.4c.9-.8 1.4-1.4 1.6-1.6.3-.4.4-.8.4-1.2 0-.4-.1-.8-.3-1s-.5-.3-1-.3c-.4 0-.7.1-1 .4s-.4.6-.4 1.2l-1.9-.2c.1-1.1.5-1.8 1.1-2.3s1.4-.7 2.3-.7c1 0 1.8.3 2.3.8s.8 1.2.8 2c0 .5-.1.9-.2 1.3s-.4.8-.8 1.3c-.2.3-.7.7-1.3 1.3s-1 .9-1.2 1.1-.3.4-.4.5h3.8z"/><path class="st18" d="M254.2 154.7h17.5v17.5h-17.5z"/><path class="st0" d="M271.4 155v17h-17v-17h17m.5-.5h-18v18h18v-18z"/><path class="st0" d="m259.7 166 1.9-.2c0 .4.2.7.4.8s.4.3.8.3.7-.2 1-.5.5-1.1.5-2.3c-.5.6-1.1.8-1.8.8-.8 0-1.5-.3-2-.9s-.9-1.4-.9-2.4.3-1.8.9-2.5 1.4-.9 2.3-.9c1 0 1.9.4 2.5 1.2s1 2.1 1 3.9c0 1.8-.3 3.2-1 4s-1.6 1.2-2.7 1.2c-.8 0-1.4-.2-1.9-.6s-.9-1.1-1-1.9zm4.3-4.2c0-.6-.1-1.1-.4-1.4s-.6-.5-1-.5-.7.1-.9.4-.4.7-.4 1.4c0 .6.1 1.1.4 1.4s.6.5 1 .5.7-.1.9-.4.4-.8.4-1.4z"/></svg>