<svg version="1.1" id="_レイヤー_2" xmlns="http://www.w3.org/2000/svg" xmlns:xlink="http://www.w3.org/1999/xlink" x="0" y="0" viewBox="0 0 795 164.3" style="enable-background:new 0 0 795 164.3" xml:space="preserve"><style>.st0{fill:#1f88ff}.st1{fill:none;stroke:#1f88ff;stroke-width:10;stroke-miterlimit:10}.st3{fill:#fff}.st4{fill:#85cee7}.st6{fill:#a5c3d9}.st7{fill:#73a9d1}.st8{fill:#d7d8eb}.st9{fill:#2c345c}.st10{fill:#f2aac2}.st11{fill:#272e52}.st12{fill:#304464}.st13{fill:#e8e6fb}.st14{fill:#495699}.st15{fill:#ed9bb6}.st16{fill:#f2f2f2}.st17{fill:#94cbf2}.st20{fill:#b8c8f2}.st22{fill:#484a8a}.st23{fill:#3c3e73}.st24{fill:#9dafe0}.st25{fill:#313a5d}.st26{fill:#bedef7}.st27{fill:#e6e8fb}.st29,.st31,.st32{stroke-miterlimit:10}.st29{fill:#2e3840;stroke:#fff;stroke-width:3;stroke-linecap:round;stroke-linejoin:round}.st31,.st32{fill:none;stroke:#1f88ff;stroke-width:6}.st32{stroke-dasharray:5.4076,2.1631}</style><path class="st0" d="m641.6 30 13.9 21.8 11.9-20.6z"/><path class="st1" d="m661.4 41.5 2.2 1.2"/><path style="fill:none;stroke:#1f88ff;stroke-width:10;stroke-miterlimit:10;stroke-dasharray:4.9012,1.9605" d="M665.3 43.7 771.4 105"/><path class="st1" d="m772.2 105.5 2.2 1.2"/><path class="st0" d="M126 17.2c0 8.8-7.2 16-16 16H16c-8.8 0-16-7.2-16-16s7.2-16 16-16h94c8.8 0 16 7.2 16 16z"/><path class="st3" d="M19.3 11.6H27c.5 0 1.1 0 1.4-.1v2H23.2v2.7H28c.3 0 1.1 0 1.6-.1v2h-6.4v2.4c0 .9.5 1.2 1.8 1.2 1.4 0 2.8-.1 4.1-.2l-.1 2.2c-1 .1-2.8.1-4.4.1-2.9 0-3.6-1-3.6-2.6v-3.1h-2.6c-.5 0-1.3 0-1.7.1v-2.1c.4 0 1.2.1 1.7.1H21v-2.7h-3.3v-2c.5 0 1 .1 1.6.1zM34.4 20.3h9.2c.5 0 1.2 0 1.8-.1v2.4c-.6-.1-1.3-.1-1.8-.1h-9.2c-.6 0-1.4 0-2 .1v-2.4c.6 0 1.4.1 2 .1zm1.2-7.8h6.6c.6 0 1.3 0 1.8-.1v2.3c-.5 0-1.2-.1-1.8-.1h-6.6c-.6 0-1.3 0-1.9.1v-2.3c.6 0 1.3.1 1.9.1zM55.1 12.2h3.2c.5 0 1-.1 1.4-.2l1.6 1c-.2.3-.4.7-.5 1.1-.4 1.3-1.2 3-2.4 4.6.7.5 1.3 1 1.8 1.3l-1.5 1.8c-.4-.4-1-.9-1.7-1.4-1.4 1.5-3.2 2.8-5.7 3.8l-1.9-1.6c2.8-.8 4.5-2.1 5.9-3.5-1-.8-2.1-1.5-2.9-2l1.4-1.5c.8.5 1.9 1.1 2.9 1.8.8-1.2 1.5-2.5 1.8-3.5h-4.6c-1.1 1.5-2.6 3-4.2 4.1L48 16.8c2.8-1.7 4.3-3.9 5.1-5.3.3-.4.6-1.1.7-1.7l2.3.7c-.4.6-.8 1.3-1 1.7zM68.4 12.2V19h-2.3c0-.3.1-.9.1-1.4v-5.4c0-.3 0-.9-.1-1.2h2.3v1.2zm7.4.2v3.2c0 3.4-.7 4.9-1.9 6.2-1.1 1.2-2.7 1.9-3.9 2.3l-1.7-1.8c1.6-.4 2.9-1 3.8-2 1.1-1.2 1.3-2.4 1.3-4.9v-3c0-.6 0-1.2-.1-1.6h2.4c.1.5.1 1 .1 1.6zM87 19.6c2.7-1.6 4.8-4.1 5.8-6.2l1.2 2.3c-1.2 2.2-3.3 4.4-5.9 5.9-1.6 1-3.7 1.9-5.9 2.3l-1.3-2.1c2.5-.4 4.5-1.2 6.1-2.2zm0-5.1-1.6 1.7c-.8-.9-2.8-2.6-4-3.5l1.5-1.6c1.1.7 3.2 2.4 4.1 3.4zM108.7 12.3l-1.2.5 1.4.8c-.2.3-.4.8-.5 1.2-.4 1.4-1.3 3.6-2.8 5.3-1.5 1.9-3.4 3.3-6.5 4.5L97.2 23c3.3-1 5-2.4 6.5-4 1.1-1.2 2-3.2 2.3-4.4h-4.5c-1.1 1.4-2.5 2.8-4 3.9l-1.8-1.3c2.8-1.7 4.2-3.8 5-5.2.2-.4.6-1.1.7-1.7l2.4.8c-.4.6-.8 1.3-1 1.6v.1h3.2c.5 0 1-.1 1.4-.2l.1.1c-.3-.6-.8-1.5-1.2-2.1l1.3-.5 1.1 2.2zm2-.7-1.3.5c-.3-.7-.8-1.6-1.3-2.2l1.3-.5c.4.6 1 1.6 1.3 2.2z"/><path class="st0" d="M562.7 17.2c0 8.8-7.2 16-16 16h-114c-8.8 0-16-7.2-16-16s7.2-16 16-16h114c8.8 0 16 7.2 16 16z"/><path class="st3" d="M442.7 11.6v1.2h2.8c.7 0 1.1-.1 1.3-.2l1.4.8c-.1.4-.3 1-.3 1.3-.3 1.5-.7 3.1-1.5 4.5-1.3 2.4-3.7 4.1-6.5 4.8l-1.7-1.9c.7-.1 1.6-.4 2.3-.6 1.3-.5 2.7-1.4 3.6-2.7.8-1.2 1.2-2.7 1.4-4.1h-7.9v3.5h-2.2c0-.4.1-.9.1-1.3v-2.8c0-.4 0-1-.1-1.4.5.1 1 .1 1.6.1h3.4v-1.2c0-.4 0-.8-.1-1.5h2.5c-.1.8-.1 1.1-.1 1.5zM457.1 16.4c1.6-.9 3.2-2.4 4-3.4l1.6 1.6c-.8.8-2.2 2-3.6 2.9V23c0 .6 0 1.4.1 1.7h-2.4c0-.3.1-1.2.1-1.7v-4.2c-1.4.7-3.2 1.4-4.6 1.9l-.9-1.9c2.1-.6 4.4-1.6 5.7-2.4zM478.5 13.4c-.5 1.2-1.4 3-2.5 4.4 1.6 1.4 3.5 3.4 4.5 4.6l-1.8 1.6c-1-1.4-2.5-3.1-4-4.5-1.7 1.8-3.8 3.5-6 4.5l-1.6-1.7c2.6-1 5.1-2.9 6.6-4.6 1.1-1.2 2-2.8 2.4-3.9h-5.4c-.7 0-1.6.1-1.9.1v-2.3c.4.1 1.4.1 1.9.1h5.7c.7 0 1.3-.1 1.6-.2l1.3 1c-.4.1-.7.6-.8.9zM486.3 12.2l2.3.5c-.1.5-.3 1.2-.4 1.6-.2 1.1-.8 3.3-1.4 4.8-.6 1.6-1.5 3.4-2.4 4.6l-2.2-.9c1-1.3 2-3 2.5-4.4.8-1.9 1.4-4.2 1.6-6.2zm4 .5 2.1-.7c.7 1.2 1.8 3.7 2.4 5.3.6 1.4 1.4 4 1.9 5.6l-2.4.8c-.4-1.9-1-3.9-1.7-5.6-.6-1.9-1.6-4.2-2.3-5.4zm5.1-2.9c1.1 0 1.9.9 1.9 1.9 0 1-.9 1.9-1.9 1.9-1.1 0-1.9-.9-1.9-1.9 0-1 .9-1.9 1.9-1.9zm0 2.8c.5 0 .9-.4.9-.9s-.4-.9-.9-.9-.9.4-.9.9.4.9.9.9zM503 12.2V19h-2.3c0-.3.1-.9.1-1.4v-5.4c0-.3 0-.9-.1-1.2h2.3c.1.3 0 .7 0 1.2zm7.5.2v3.2c0 3.4-.7 4.9-1.9 6.2-1.1 1.2-2.7 1.9-3.9 2.3l-1.7-1.8c1.6-.4 2.9-1 3.8-2 1.1-1.2 1.3-2.4 1.3-4.9v-3c0-.6 0-1.2-.1-1.6h2.4c.1.5.1 1 .1 1.6zM521.7 19.6c2.7-1.6 4.8-4.1 5.8-6.2l1.2 2.3c-1.2 2.2-3.3 4.4-5.9 5.9-1.6 1-3.7 1.9-5.9 2.3l-1.3-2.1c2.4-.4 4.5-1.2 6.1-2.2zm0-5.1-1.6 1.7c-.8-.9-2.8-2.6-4-3.5l1.5-1.6c1 .7 3.1 2.4 4.1 3.4zM543.4 12.3l-1.2.5 1.4.8c-.2.3-.4.8-.5 1.2-.4 1.4-1.3 3.6-2.8 5.3-1.5 1.9-3.4 3.3-6.5 4.5l-1.9-1.7c3.3-1 5-2.4 6.5-4 1.1-1.2 2-3.2 2.3-4.4h-4.5c-1.1 1.4-2.5 2.8-4 3.9l-1.8-1.3c2.8-1.7 4.2-3.8 5-5.2.2-.4.6-1.1.7-1.7l2.4.8c-.4.6-.8 1.3-1 1.6v.1h3.2c.5 0 1-.1 1.4-.2l.1.1c-.3-.6-.8-1.5-1.2-2.1l1.3-.5c.2.7.8 1.7 1.1 2.3zm1.9-.7-1.3.5c-.3-.7-.8-1.6-1.3-2.2l1.3-.5c.4.6 1 1.6 1.3 2.2z"/><circle class="st4" cx="186.7" cy="30" r="30"/><defs><circle id="SVGID_1_" cx="186.7" cy="30" r="30"/></defs><clipPath id="SVGID_00000137099941224013263110000016311050108951685524_"><use xlink:href="#SVGID_1_" style="overflow:visible"/></clipPath><g style="clip-path:url(#SVGID_00000137099941224013263110000016311050108951685524_)"><path class="st6" d="M160.9 82.7v-38l-27.3 8.1v43.6c0 .7.6 1.2 1.2 1.2.2 0 26.1-14.9 26.1-14.9z"/><path class="st7" d="M205.8 41.5c1.4 4.4-2.3 24.6-2.8 25.6-1.1 2.2-18.5-6.4-19-9.3-.9-5.4 0-19.9.8-22.2 1.7-4.8 19.4 1 21 5.9z"/><path class="st7" d="m163.5 68 18.7 10.9c.3.2.7.2 1 0l19-10.9c.7-.4.7-1.4 0-1.8l-18.7-10.9c-.3-.2-.7-.2-1 0l-18.9 10.9c-.7.4-.7 1.4-.1 1.8z"/><path class="st8" d="M177.8 41.4s5.2-14.8 6.9-15.5c1.6-.7 6.4-1.1 5.2 1.2-2.6 4.7-7.1 14.5-8.9 14.5-2.8 0-3.2-.2-3.2-.2z"/><path class="st9" d="M159.8 102.4c2.9-2.5 1.4-.5 3.3-3.5 1 0 2.7-.1 2.9.6.3.7.4 1.7.4 1.7.2 2.5-.6 3.8-.6 3.8-.4.2-.7.2-1.1 0v-.7l-3.3 2.4c-.6.5-1.5 1-2.4 1.2-1 .3-2 .1-2.8-.5-.3-.2-.6-.5-.6-.9 0-.8 3.5-3.1 4.2-4.1z"/><path class="st10" d="M159.8 104.2c2.3.9 5.8-2.8 5.7-4.7-.4-2.4.4-7.5.4-9.1 0-6.2-4.2-1-4.2-1s.1 2.1-.1 8.1c0 4.6-4.3 5.7-1.8 6.7z"/><path class="st11" d="M165.7 75.6c-.3 9.6 1 15.2.8 15.7-.4 1.2-5.1 1-5.5 0-.2-.4-1.3-16.1-.6-18.6.8-2.5 5.3 2.9 5.3 2.9z"/><path class="st11" d="M160.8 71.1c1.3-2.5 22.7-17 22.7-17s6 6.5 3.8 8.8c-.5.5-19.7 13.7-21.9 15.4-1.6 1.2-3.2 3.7-3.9 2.3-.7-1.3-2-7-.7-9.5z"/><path class="st9" d="M162.5 108.5c2.9-2.5 3.4-2.6 5.3-5.6 1 0 2.4-.5 3.2.8l.1 1.1c.2 2.5-.6 4.2-.6 4.2-.4.2-.7.2-1.1 0v-.7l-3.3 2.4c-.9.9-2.7 1.5-3.9 1.4 0 0-1.9-.7-1.9-1.6-.1-1.2 1.8-1.5 2.2-2z"/><path class="st10" d="M164.7 108.1c2.3.9 6.1-1.9 5.9-3.9-.2-1.4-.6-2.4-.6-3.5.1-6.9.4-7.9.1-9-.4-1.2-3.4-.6-3.9.1-.5.8.2 3.6.1 9.8-.1 1.9-.1 3.1-.5 4.1-.6 1.4-1.9 1.7-1.1 2.4z"/><path class="st9" d="M171.2 75.2s.6 19 .1 20.1c-.5 1.1-5.4.7-5.9-.2-.5-1-.9-12.1-1.4-22.3l7.2 2.4z"/><path class="st9" d="M164.2 72.9c1.2-1.4 23.6-15.5 23.6-15.5l10.6-3.6c.9-.2 3.4 8.1.6 10.5-2.3 2-25.5 13.4-27.9 14.1-2.5.8-8.1-4-6.9-5.5z"/><path class="st9" d="M198.9 64.3c-.3.1-3.8 1.3-5.7.9-3.3-.6-10.8-8.3-10.8-8.3l1.4-8.4s10.6 5.5 13.1 6.6c5.9 2.7 2.3 9.1 2 9.2z"/><path class="st12" d="M198.4 14.3c-.4-1.6-13-.6-13-.6s-2.6 3.6-2.7 6.5c-.1 2.9 2.1 5.5 2.9 6 1.2.9 5.6 3.6 5.6 3.6s3.8-.5 5.6-1.2c1.8-.7 3.9-5.5 3.9-6.4 0-3.4-2.1-7-2.3-7.9z"/><path class="st13" d="M192.2 22.9c2.6 1.3 5.2 4.4 5.2 4.4l-3.2 29.5-7.2-5.9-2.7-17.1.7-7.8s4.6-4.4 7.2-3.1z"/><path class="st14" d="M182.9 33.5c.1-2.8.7-6.9.7-6.9s2.6-2.9 3.7-3.5c.6-.2 1.4-.9 1.3-.3-.2.6-1.9 2.1-2.2 2.9-.8 2.1-.6 6.4-.5 8.1.1 1.7.7 7.1 2.1 11.5 3.9-7.7 5.8-16.1 6.4-17.6.7-1.7-2.5-4.4-2.7-4.9l1.4-.4c2.3 1.6 6.8 7 7.7 9.3.9 2.3-.2 7.9-1.2 15.4 0 0 1.2 5.7.6 7.6-.6 1.9-4.6 3.5-6.1 3.3-11-1.3-9.7-6.6-9.7-6.6l-.2-4.8c0-.1-1.4-10.3-1.3-13.1z"/><path class="st13" d="M189 23.4c-.7-.1-2 .7-2.4 2.1-.4 1.5.1 3.4.1 3.4l2.4-.1.3-.5c0-.4-.2-3.8-.4-4.9zM194.4 27.2c.2-.6 0-2.7-.9-3.7-1-1.2-3.1-1.4-3.1-1.4l-1 2.1.3.5c.6.1 3.6 2.1 4.7 2.5z"/><path class="st15" d="M186.7 18.6c.4 2.9 2.7 2.8 1.6 5.8-.3.7.9 1.8.9 1.8l4-2.3c-1.2-3.9-.7-5.5-.7-5.5l-5.8.2z"/><path class="st10" d="M193.4 7.7c-.4-.2-4.2-.3-4.7-.2-6.9 2.3-3.8 11.8-3.6 12.5.4 1.1 1.3 2.5 2.1 3.1 3 2 7-1.7 7.2-2.3.3-.6 5.7-10.3-1-13.1z"/><path class="st15" d="M194.1 20.5c.7.2 1.5-.5 1.8-1.5.3-1 .1-2-.6-2.2-.6-.2-1.8 3.5-1.2 3.7z"/><path class="st12" d="M198.2 11.7c-.8-2.8-3.3-4.7-7.2-5-3.1-.2-6.3 2.9-6.6 5.5 0 .4-.7 3.9-.3 4.1.3.1.3-1.1 1-2.8.5-1.2 1.3-1.7 2.4-2.3 1.2 1.7 2 .7 3.7.8 1.8.1 2.5-.4 2.5-.4s.1 1.1.2 2.4c.1 1.2.1 5.2.1 5.2s4.4-2.2 4.5-5.3c-.1-.5-.1-1.7-.3-2.2z"/><path class="st12" d="m194.3 10.4-8-1c.1.8.1 1.8 2.3 3.6 2.3 2 4.8 2.2 6.8 1-.2-.9-1.1-3.6-1.1-3.6z"/><path class="st13" d="M193.1 23.7s-2 3.1-5.4 3.2l-.3.5c.4 1 2.3 2.6 2.3 2.6s4.8-2.7 4.6-3.9c-.1-1.1-1.2-2.4-1.2-2.4z"/><path class="st7" d="M198.4 16.8c0 1.5-1.2 3.4-2.7 4.3-1.5.9-2.7.3-2.7-1.1 0-1.5 1.2-3.4 2.7-4.3 1.5-.9 2.7-.4 2.7 1.1z"/><path class="st7" d="M195.9 18c-.3 0-.5-.2-.5-.5-.1-.4-.1-.9 0-1.6.1-2.4.3-6.4-3.7-8.4-2-1-4 .7-4.1.7-.2.2-.6.2-.8-.1-.2-.2-.2-.6.1-.8.1-.1 2.6-2.1 5.3-.8 4.6 2.3 4.4 6.9 4.3 9.4 0 .6-.1 1.1 0 1.4.1.3-.1.6-.4.7h-.2z"/><path class="st12" d="M196 16.7c-1 .6-1.8 1.9-1.8 2.9 0 .2 0 .3.1.4-1.8 1.1-4.1 1.9-5.6 2.2h-.1v-.1c-.2-.3-.6-.7-.9-.7-.2 0-.3.1-.3.2-.2.4.1.9.5 1 .2.1.3.1.5.1h.5c1.5-.2 3.9-1.1 5.8-2.3.3.2.9.2 1.4-.1 1-.6 1.8-1.9 1.8-2.9s-.9-1.3-1.9-.7z"/><path class="st6" d="M207 105.8v-38l-27.3 8.1v43.6c0 .7.6 1.2 1.2 1.2.2 0 26.1-14.9 26.1-14.9z"/><path class="st6" d="m129.7 53.3 52.4 30.5 29.2-16.9v-2.2l-52.4-28.2-29.2 14.7z"/><path class="st16" d="m129.7 51.2 52.4 30.4 29.2-16.9-52.4-30.4z"/><path class="st10" d="M167.2 46.8c-1-.2-2.9-.4-2.9-.4l3.8-2.5 1.3 1.5-2.2 1.4z"/><path class="st10" d="M167.2 47.5c.3 1.8-2.9 5-3 4.8-.4-.6-.1-.9.1-1.2.5-.7.4-1.6.5-2.4 0-1 2-3 2.4-1.2z"/><path class="st10" d="M159.9 52.4c.1.3.6.2.9.1.4-.2 3-2 3.6-2.5.3-.2.4-1.1-.2-1 0 0-4.4 3.1-4.3 3.4z"/><path class="st10" d="M164.7 46.1c.7-.4 1.8-1.2 2.4-.6.3.2.4.7.4 1 0 .5-1.5 3-1.5 3s-2.6.9-2.8.7c-.7-.8-1.1-2.3-.7-2.6.6-.6 1.5-1.1 2.2-1.5z"/><path class="st10" d="M163.7 49.1c-.7.7-1.4 1.7-1.9 2-.5.3-2 1.8-2.5 1.3s3.9-3.9 4.3-4c.4-.2.4.4.1.7z"/><path class="st10" d="M163.3 48.4c-.2.6-2.3 2.6-2.3 2.6s-1.1.9-1.3.6c-.2-.4 1-1.4 1-1.4s.7-.6 1-.9c.3-.3.5-.8.9-1 .4-.2.7-.2.7.1z"/><path class="st10" d="M162.4 47.6s.3.4.5.5c.1.1-2.2 2.2-2.2 2.2s-.9.6-1 .2c0-.3 2.7-2.9 2.7-2.9z"/><path class="st13" d="m169.8 42.7 1.5 2.4-2.8 1.2-1.2-2.2z"/><path class="st8" d="M180.4 37.1c1.5 0 2.6 3.1.8 4.6-1.8 1.6-10.9 3.9-10.9 3.9l-2-2.3s10.6-6.2 12.1-6.2z"/><path class="st10" d="M174.5 55.6c.2 0 3.5-.3 5.1-.2 0 0-.2 1-.4 1-.7 0-4.7 0-5-.3-.2-.1-.2-.6.3-.5z"/><path class="st10" d="M175.2 56.9c0-.2 0-.4.2-.5.3-.1 2.3 0 2.7 0 1 0 2.2-.1 2.2-.1l.2 1.3c-.2 0-3-.3-3-.3s-2.2 0-2.3-.4z"/><path class="st10" d="M176.4 57.7c0-.2-.1-.4.2-.5.3-.1.9 0 1.2-.1h1.3c1 0 .7.9 0 .9-.8 0-2.7.1-2.7-.3z"/><path class="st10" d="M176.9 58c0-.2.1-.4.3-.5.3 0 .8.2 1.2.2.1 0 1 .2 1.3.3.9.3-.4.8-.8.7-.3-.1-2-.3-2-.7z"/><path class="st10" d="M177.7 57c-.2-.2-.1-.7.1-.9.2-.3 1.9-2.1 4.7-2.2 2.7-.2 3.7 1.7 3.3 2.2-.4.5-.6.8-1.6 1.1-2 .7-5 1.7-5.2 1.6-.2-.3-1.1-1.6-1.3-1.8z"/><path class="st10" d="m187.6 52.9-3.2 1.5-.6 2.9 4.6-2.1z"/><path class="st13" d="m196.5 46.5-11 7.1 1.4 2.4s9.1-2.9 12.8-5.7c2.5-1.7-.7-5.5-3.2-3.8z"/><path class="st10" d="M184.9 54.3c-.3-.3-6.1-1.2-6.5-.6-.4.6 2.4.8 2.6 1.2.3.4-.5.9-.1 1.1.5.1 4.6-1.2 4-1.7z"/><path class="st13" d="M201.4 33.6c-.3-3.8-3.2-1.6-4.9 1.1-1.6 2.4-.5 15.3-.5 15.3l4.6-.8.8-15.6z"/><path class="st17" d="m154 59.6 15.1 8.7 11-6.3v1.1l-11 6.4-15.1-8.7z"/><path class="st17" d="m165 53.3-11 6.4 15.1 8.7 11-6.4-15.1-8.7z"/><path class="st3" d="m155.2 59.6 13.9 8.1 9.8-5.7-13.9-8.1z"/><path class="st17" d="m151.8 50.5 14 8.1 3.8 9.5-.5.2-15.1-8.7-2.7-8.8z"/></g><circle class="st4" cx="611.6" cy="30" r="30"/><defs><circle id="SVGID_00000110467132349528812720000003460184408848918716_" cx="611.6" cy="30" r="30"/></defs><clipPath id="SVGID_00000096753965158736156740000013619592976579451070_"><use xlink:href="#SVGID_00000110467132349528812720000003460184408848918716_" style="overflow:visible"/></clipPath><g style="clip-path:url(#SVGID_00000096753965158736156740000013619592976579451070_)"><path class="st6" d="M585.8 82.7v-38l-27.3 8.1v43.6c0 .7.6 1.2 1.2 1.2.2 0 26.1-14.9 26.1-14.9z"/><path class="st7" d="M630.7 41.5c1.4 4.4-2.3 24.6-2.8 25.6-1.1 2.2-18.5-6.4-19-9.3-.9-5.4 0-19.9.8-22.2 1.7-4.8 19.4 1 21 5.9z"/><path class="st7" d="m588.4 68 18.7 10.9c.3.2.7.2 1 0l19-10.9c.7-.4.7-1.4 0-1.8l-18.7-10.9c-.3-.2-.7-.2-1 0l-18.9 10.9c-.8.4-.8 1.4-.1 1.8z"/><path class="st8" d="M602.7 41.4s5.2-14.8 6.9-15.5c1.6-.7 6.4-1.1 5.2 1.2-2.6 4.7-7.1 14.5-8.9 14.5-2.8 0-3.2-.2-3.2-.2z"/><path class="st9" d="M584.7 102.4c2.9-2.5 1.4-.5 3.3-3.5 1 0 2.7-.1 2.9.6.3.7.4 1.7.4 1.7.2 2.5-.6 3.8-.6 3.8-.4.2-.7.2-1.1 0v-.7l-3.3 2.4c-.6.5-1.5 1-2.4 1.2-1 .3-2 .1-2.8-.5-.3-.2-.6-.5-.6-.9 0-.8 3.5-3.1 4.2-4.1z"/><path class="st10" d="M584.7 104.2c2.3.9 5.8-2.8 5.7-4.7-.4-2.4.4-7.5.4-9.1 0-6.2-4.2-1-4.2-1s.1 2.1-.1 8.1c0 4.6-4.3 5.7-1.8 6.7z"/><path class="st11" d="M590.6 75.6c-.3 9.6 1 15.2.8 15.7-.4 1.2-5.1 1-5.5 0-.2-.4-1.3-16.1-.6-18.6.8-2.5 5.3 2.9 5.3 2.9z"/><path class="st11" d="M585.7 71.1c1.3-2.5 22.7-17 22.7-17s6 6.5 3.8 8.8c-.5.5-19.7 13.7-21.9 15.4-1.6 1.2-3.2 3.7-3.9 2.3-.7-1.3-2-7-.7-9.5z"/><path class="st9" d="M587.4 108.5c2.9-2.5 3.4-2.6 5.3-5.6 1 0 2.4-.5 3.2.8l.1 1.1c.2 2.5-.6 4.2-.6 4.2-.4.2-.7.2-1.1 0v-.7l-3.3 2.4c-.9.9-2.7 1.5-3.9 1.4 0 0-1.9-.7-1.9-1.6-.1-1.2 1.8-1.5 2.2-2z"/><path class="st10" d="M589.6 108.1c2.3.9 6.1-1.9 5.9-3.9-.2-1.4-.6-2.4-.6-3.5.1-6.9.4-7.9.1-9-.4-1.2-3.4-.6-3.9.1-.5.8.2 3.6.1 9.8-.1 1.9-.1 3.1-.5 4.1-.6 1.4-1.9 1.7-1.1 2.4z"/><path class="st9" d="M596.1 75.2s.6 19 .1 20.1c-.5 1.1-5.4.7-5.9-.2-.5-1-.9-12.1-1.4-22.3l7.2 2.4z"/><path class="st9" d="M589.1 72.9c1.2-1.4 23.6-15.5 23.6-15.5l10.6-3.6c.9-.2 3.4 8.1.6 10.5-2.3 2-25.5 13.4-27.9 14.1-2.5.8-8.1-4-6.9-5.5z"/><path class="st9" d="M623.8 64.3c-.3.1-3.8 1.3-5.7.9-3.3-.6-10.8-8.3-10.8-8.3l1.4-8.4s10.6 5.5 13.1 6.6c5.9 2.7 2.3 9.1 2 9.2z"/><path class="st12" d="M623.3 14.3c-.4-1.6-13-.6-13-.6s-2.6 3.6-2.7 6.5c-.1 2.9 2.1 5.5 2.9 6 1.2.9 5.6 3.6 5.6 3.6s3.8-.5 5.6-1.2c1.8-.7 3.9-5.5 3.9-6.4 0-3.4-2.1-7-2.3-7.9z"/><path class="st13" d="M617 22.9c2.6 1.3 5.2 4.4 5.2 4.4L619 56.8l-7.2-5.9-2.7-17.1.7-7.8c.1 0 4.7-4.4 7.2-3.1z"/><path class="st14" d="M607.8 33.5c.1-2.8.7-6.9.7-6.9s2.6-2.9 3.7-3.5c.6-.2 1.4-.9 1.3-.3-.2.6-1.9 2.1-2.2 2.9-.8 2.1-.6 6.4-.5 8.1.1 1.7.7 7.1 2.1 11.5 3.9-7.7 5.8-16.1 6.4-17.6.7-1.7-2.5-4.4-2.7-4.9l1.4-.4c2.3 1.6 6.8 7 7.7 9.3.9 2.3-.2 7.9-1.2 15.4 0 0 1.2 5.7.6 7.6-.6 1.9-4.6 3.5-6.1 3.3-11-1.3-9.7-6.6-9.7-6.6l-.2-4.8c-.1-.1-1.4-10.3-1.3-13.1z"/><path class="st13" d="M613.9 23.4c-.7-.1-2 .7-2.4 2.1-.4 1.5.1 3.4.1 3.4l2.4-.1.3-.5c-.1-.4-.3-3.8-.4-4.9zM619.3 27.2c.2-.6 0-2.7-.9-3.7-1-1.2-3.1-1.4-3.1-1.4l-1 2.1.3.5c.5.1 3.6 2.1 4.7 2.5z"/><path class="st15" d="M611.5 18.6c.4 2.9 2.7 2.8 1.6 5.8-.3.7.9 1.8.9 1.8l4-2.3c-1.2-3.9-.7-5.5-.7-5.5l-5.8.2z"/><path class="st10" d="M618.2 7.7c-.4-.2-4.2-.3-4.7-.2-6.9 2.3-3.8 11.8-3.6 12.5.4 1.1 1.3 2.5 2.1 3.1 3 2 7-1.7 7.2-2.3.3-.6 5.8-10.3-1-13.1z"/><path class="st15" d="M619 20.5c.7.2 1.5-.5 1.8-1.5.3-1 .1-2-.6-2.2-.6-.2-1.8 3.5-1.2 3.7z"/><path class="st12" d="M623.1 11.7c-.8-2.8-3.3-4.7-7.2-5-3.1-.2-6.3 2.9-6.6 5.5 0 .4-.7 3.9-.3 4.1.3.1.3-1.1 1-2.8.5-1.2 1.3-1.7 2.4-2.3 1.2 1.7 2 .7 3.7.8 1.8.1 2.5-.4 2.5-.4s.1 1.1.2 2.4c.1 1.2.1 5.2.1 5.2s4.4-2.2 4.5-5.3c-.1-.5-.2-1.7-.3-2.2z"/><path class="st12" d="m619.2 10.4-8-1c.1.8.1 1.8 2.3 3.6 2.3 2 4.8 2.2 6.8 1-.2-.9-1.1-3.6-1.1-3.6z"/><path class="st13" d="M618 23.7s-2 3.1-5.4 3.2l-.3.5c.4 1 2.3 2.6 2.3 2.6s4.8-2.7 4.6-3.9c-.1-1.1-1.2-2.4-1.2-2.4z"/><path class="st7" d="M623.3 16.8c0 1.5-1.2 3.4-2.7 4.3-1.5.9-2.7.3-2.7-1.1 0-1.5 1.2-3.4 2.7-4.3 1.5-.9 2.7-.4 2.7 1.1z"/><path class="st7" d="M620.7 18c-.3 0-.5-.2-.5-.5-.1-.4-.1-.9 0-1.6.1-2.4.3-6.4-3.7-8.4-2-1-4 .7-4.1.7-.2.2-.6.2-.8-.1-.2-.2-.2-.6.1-.8.1-.1 2.6-2.1 5.3-.8 4.6 2.3 4.4 6.9 4.3 9.4 0 .6-.1 1.1 0 1.4.1.3-.1.6-.4.7h-.2z"/><path class="st12" d="M620.9 16.7c-1 .6-1.8 1.9-1.8 2.9 0 .2 0 .3.1.4-1.8 1.1-4.1 1.9-5.6 2.2h-.1v-.1c-.2-.3-.6-.7-.9-.7-.2 0-.3.1-.3.2-.2.4.1.9.5 1 .2.1.3.1.5.1h.5c1.5-.2 3.9-1.1 5.8-2.3.3.2.9.2 1.4-.1 1-.6 1.8-1.9 1.8-2.9-.1-1-.9-1.3-1.9-.7z"/><path class="st6" d="M631.9 105.8v-38l-27.3 8.1v43.6c0 .7.6 1.2 1.2 1.2.2 0 26.1-14.9 26.1-14.9z"/><path class="st6" d="M554.6 53.3 607 83.8l29.2-16.9v-2.2l-52.4-28.2-29.2 14.7z"/><path class="st16" d="M554.6 51.2 607 81.6l29.2-16.9-52.4-30.4z"/><path class="st10" d="M592.1 46.8c-1-.2-2.9-.4-2.9-.4l3.8-2.5 1.3 1.5-2.2 1.4z"/><path class="st10" d="M592 47.5c.3 1.8-2.9 5-3 4.8-.4-.6-.1-.9.1-1.2.5-.7.4-1.6.5-2.4.1-1 2.1-3 2.4-1.2z"/><path class="st10" d="M584.8 52.4c.1.3.6.2.9.1.4-.2 3-2 3.6-2.5.3-.2.4-1.1-.2-1 0 0-4.4 3.1-4.3 3.4z"/><path class="st10" d="M589.6 46.1c.7-.4 1.8-1.2 2.4-.6.3.2.4.7.4 1 0 .5-1.5 3-1.5 3s-2.6.9-2.8.7c-.7-.8-1.1-2.3-.7-2.6.6-.6 1.5-1.1 2.2-1.5z"/><path class="st10" d="M588.6 49.1c-.7.7-1.4 1.7-1.9 2-.5.3-2 1.8-2.5 1.3s3.9-3.9 4.3-4c.4-.2.4.4.1.7z"/><path class="st10" d="M588.2 48.4c-.2.6-2.3 2.6-2.3 2.6s-1.1.9-1.3.6c-.2-.4 1-1.4 1-1.4s.7-.6 1-.9c.3-.3.5-.8.9-1 .4-.2.7-.2.7.1z"/><path class="st10" d="M587.3 47.6s.3.4.5.5c.1.1-2.2 2.2-2.2 2.2s-.9.6-1 .2c0-.3 2.7-2.9 2.7-2.9z"/><path class="st13" d="m594.7 42.7 1.5 2.4-2.8 1.2-1.2-2.2z"/><path class="st8" d="M605.3 37.1c1.5 0 2.6 3.1.8 4.6-1.8 1.6-10.9 3.9-10.9 3.9l-2-2.3s10.6-6.2 12.1-6.2z"/><path class="st10" d="M599.3 55.6c.2 0 3.5-.3 5.1-.2 0 0-.2 1-.4 1-.7 0-4.7 0-5-.3-.1-.1-.1-.6.3-.5z"/><path class="st10" d="M600.1 56.9c0-.2 0-.4.2-.5.3-.1 2.3 0 2.7 0 1 0 2.2-.1 2.2-.1l.2 1.3c-.2 0-3-.3-3-.3s-2.2 0-2.3-.4z"/><path class="st10" d="M601.3 57.7c0-.2-.1-.4.2-.5.3-.1.9 0 1.2-.1h1.3c1 0 .7.9 0 .9-.8 0-2.7.1-2.7-.3z"/><path class="st10" d="M601.8 58c0-.2.1-.4.3-.5.3 0 .8.2 1.2.2.1 0 1 .2 1.3.3.9.3-.4.8-.8.7-.3-.1-2-.3-2-.7z"/><path class="st10" d="M602.5 57c-.2-.2-.1-.7.1-.9.2-.3 1.9-2.1 4.7-2.2 2.7-.2 3.7 1.7 3.3 2.2-.4.5-.6.8-1.6 1.1-2 .7-5 1.7-5.2 1.6-.1-.3-1.1-1.6-1.3-1.8z"/><path class="st10" d="m612.5 52.9-3.2 1.5-.6 2.9 4.6-2.1z"/><path class="st13" d="m621.4 46.5-11 7.1 1.4 2.4s9.1-2.9 12.8-5.7c2.4-1.7-.7-5.5-3.2-3.8z"/><path class="st10" d="M609.8 54.3c-.3-.3-6.1-1.2-6.5-.6-.4.6 2.4.8 2.6 1.2.3.4-.5.9-.1 1.1.5.1 4.6-1.2 4-1.7z"/><path class="st13" d="M626.3 33.6c-.3-3.8-3.2-1.6-4.9 1.1-1.5 2.4-.4 15.3-.4 15.3l4.6-.8.7-15.6z"/><path class="st17" d="m578.9 59.6 15.1 8.7 11-6.3-.1 1.1-10.9 6.4-15.1-8.7z"/><path class="st17" d="m589.9 53.3-11 6.4 15.1 8.7 11-6.4-15.1-8.7z"/><path class="st3" d="m580.1 59.6 13.9 8.1 9.8-5.7-13.9-8.1z"/><path class="st17" d="m576.6 50.5 14.1 8.1 3.8 9.5-.5.2-15.1-8.7-2.7-8.8z"/></g><circle class="st4" cx="344.6" cy="78.8" r="30"/><defs><circle id="SVGID_00000116206624531617946310000013290829009054337425_" cx="344.6" cy="78.8" r="30"/></defs><clipPath id="SVGID_00000159463075255538080350000004840592254104152470_"><use xlink:href="#SVGID_00000116206624531617946310000013290829009054337425_" style="overflow:visible"/></clipPath><g style="clip-path:url(#SVGID_00000159463075255538080350000004840592254104152470_)"><path class="st6" d="M318.8 131.5v-38l-27.3 8.1v43.6c0 .7.6 1.2 1.2 1.2.2 0 26.1-14.9 26.1-14.9z"/><path class="st7" d="M358.6 88.6c1.4 4.5-2.4 24.8-2.8 25.8-1.1 2.2-18.6-6.5-19.1-9.4-.9-5.4 0-20.1.8-22.4 1.6-4.7 19.5 1 21.1 6z"/><path class="st7" d="m316 115.3 18.9 11c.3.2.7.2 1 0l19-11c.7-.4.7-1.4 0-1.8l-18.9-11c-.3-.2-.7-.2-1 0l-19 11c-.7.4-.7 1.4 0 1.8z"/><path class="st9" d="M312.2 152.3c3.3-2.8 1.6-.6 3.7-3.9 1.2 0 3-.1 3.3.7.3.8.5 1.9.5 1.9.2 2.8-.7 4.3-.7 4.3-.4.3-.8.3-1.2 0v-.8l-3.7 2.7c-.7.6-1.7 1.1-2.7 1.4-1.1.3-2.3.1-3.2-.6-.4-.3-.7-.6-.6-1-.1-1 3.8-3.5 4.6-4.7z"/><path class="st10" d="M312.5 154.3c2.5 1 6.5-3.2 6.5-5.3-.4-2.7.5-8.4.5-10.3 0-6.9-4.7-1.1-4.7-1.1s.1 2.4-.1 9.1c-.2 5.3-5 6.6-2.2 7.6z"/><path class="st11" d="M318.9 123.2c-.3 9.7 1 15.3.8 15.8-.4 1.2-5.1 1-5.5 0-.2-.4-1.4-16.2-.6-18.7.8-2.5 5.3 2.9 5.3 2.9z"/><path class="st11" d="M314 118.7c1.4-2.5 22.8-17.1 22.8-17.1s6 6.6 3.9 8.8c-.5.5-19.8 13.8-22.1 15.5-1.6 1.2-3.2 3.7-3.9 2.3-.7-1.3-2.1-7-.7-9.5z"/><path class="st9" d="M315.3 159.2c3.3-2.8 3.8-2.9 6-6.3 1.2 0 2.7-.5 3.6 1l.2 1.2c.2 2.8-.6 4.8-.6 4.8-.4.3-.8.3-1.2 0v-.8l-3.7 2.7c-1.1 1-3 1.7-4.4 1.6 0 0-2.2-.8-2.2-1.8-.3-1.5 1.8-1.9 2.3-2.4z"/><path class="st10" d="M317.8 158.8c2.5 1 6.9-2.1 6.6-4.3-.2-1.6-.7-2.7-.7-3.9.1-7.8.5-8.8.1-10.2-.4-1.3-3.8-.7-4.4.2-.5.9.3 4 .1 11-.1 2.2-.1 3.5-.6 4.6-.6 1.4-2.1 1.8-1.1 2.6z"/><path class="st9" d="M324.5 122.9s.6 19.1.1 20.2c-.5 1.1-5.5.8-6-.2s-.9-12.2-1.4-22.4l7.3 2.4z"/><path class="st9" d="M317.4 120.5c1.2-1.4 23.7-15.6 23.7-15.6l10.7-3.7c.9-.2 3.4 8.1.6 10.6-2.4 2-25.7 13.5-28.1 14.2-2.5.8-8.1-4-6.9-5.5z"/><path class="st9" d="M352.3 111.9c-.3.1-3.9 1.3-5.7 1-3.3-.6-10.9-8.4-10.9-8.4l1.4-8.5s10.7 5.6 13.2 6.6c6 2.7 2.3 9.2 2 9.3z"/><path class="st8" d="M330.4 88.5s5.3-14.9 6.9-15.6c1.6-.7 6.4-1.1 5.2 1.2-2.6 4.8-7.1 14.6-9 14.6-2.7 0-3.1-.2-3.1-.2z"/><path class="st12" d="M351.1 61.2c-.4-1.6-13.1-.6-13.1-.6s-2.6 3.6-2.7 6.5c-.1 2.9 2.1 5.5 2.9 6.1 1.2.9 5.6 3.7 5.6 3.7s3.8-.5 5.6-1.2c1.8-.7 3.9-5.6 3.9-6.5.2-3.4-2-7.1-2.2-8z"/><path class="st13" d="M344.8 69.1c2.6 1.3 5.3 5.2 5.3 5.2l-3.2 29.7-7.3-5.9-2.7-17.2.6-7.1s4.7-6 7.3-4.7z"/><path class="st14" d="M335.5 80.5c.1-2.8.5-6.6.5-6.6s2.7-3 3.8-3.5c.6-.2 2.6-.6 2.4 0-.2.6-2.9 1.5-3.2 2.3-.8 2.1-.6 6.4-.5 8.1.1 1.7.7 7.1 2.1 11.5 3.9-7.8 5.8-16.2 6.4-17.7.7-1.7-2.5-4.4-2.8-4.9l1.4-.4c2.4 1.6 6.9 7 7.8 9.4.9 2.4-.2 8-1.2 15.5 0 0 1.2 5.8.6 7.7-.6 1.9-4.6 3.5-6.1 3.4-11.1-1.3-9.7-6.7-9.7-6.7l-.2-4.8c0-.2-1.4-10.4-1.3-13.3z"/><path class="st13" d="M341.7 70.4c-.7-.1-2.1.7-2.4 2.1-.4 1.5.1 3.4.1 3.4l2.4-.1.3-.5c-.1-.4-.3-3.8-.4-4.9zM347.1 74.2c.2-.6 0-2.8-.9-3.7-1-1.2-3.1-1.4-3.1-1.4l-1 2.2.3.5c.5 0 3.6 2 4.7 2.4z"/><path class="st15" d="M339.3 65.6c.4 2.9 2.7 2.8 1.6 5.9-.3.7.9 1.8.9 1.8l4-2.3c-1.2-3.9-.7-5.6-.7-5.6l-5.8.2z"/><path class="st10" d="M346 54.6c-.4-.2-4.2-.3-4.7-.2-7 2.3-3.8 11.9-3.6 12.6.4 1.1 1.3 2.5 2.2 3.1 3.1 2 7-1.7 7.2-2.3.3-.7 5.7-10.4-1.1-13.2z"/><path class="st15" d="M346.8 67.5c.7.2 1.5-.5 1.8-1.5.3-1 .1-2-.6-2.2-.6-.2-1.8 3.5-1.2 3.7z"/><path class="st12" d="M350.9 58.6c-.8-2.8-3.4-4.8-7.3-5-3.1-.2-6.4 2.9-6.7 5.6 0 .5-.7 3.9-.3 4.2.3.1.2-1.1.9-2.9.5-1.2 1.4-1.8 2.2-2.8 1.2 1.7 2.3 1.1 4 1.2 1.8.1 2.5-.4 2.5-.4s.1 1.1.2 2.4c.1 1.2.1 5.2.1 5.2s4.4-2.2 4.5-5.3c.1-.4.1-1.6-.1-2.2z"/><path class="st12" d="m347 57.3-8.1-1c.1.8.1 1.8 2.3 3.6 2.3 2 4.9 2.2 6.9 1-.2-.9-1.1-3.6-1.1-3.6z"/><path class="st13" d="M345.8 70.7s-2 3.1-5.4 3.3l-.3.5c.4 1.1 2.3 2.6 2.3 2.6s4.8-2.7 4.6-3.9c-.1-1.2-1.2-2.5-1.2-2.5z"/><path class="st7" d="M351.1 63.8c0 1.5-1.2 3.4-2.7 4.3-1.5.9-2.7.4-2.7-1.1s1.2-3.4 2.7-4.3c1.5-1 2.7-.4 2.7 1.1z"/><path class="st7" d="M348.6 64.9c-.3 0-.5-.2-.6-.5-.1-.4-.1-.9 0-1.6.1-2.4.3-6.5-3.7-8.4-2-1-4.1.7-4.1.7-.2.2-.6.2-.8-.1-.2-.2-.2-.6.1-.8.1-.1 2.7-2.1 5.3-.8 4.6 2.3 4.4 7 4.3 9.5 0 .6-.1 1.1 0 1.4.1.3-.1.6-.4.7l-.1-.1z"/><path class="st12" d="M348.7 63.6c-1 .6-1.8 1.9-1.8 2.9 0 .2 0 .3.1.4-1.9 1.1-4.2 2-5.6 2.2h-.1V69c-.2-.3-.6-.7-1-.7-.2 0-.3.1-.3.2-.2.4.1.9.5 1 .2.1.3.1.5.1h.5c1.5-.2 3.9-1.1 5.8-2.3.3.2.9.2 1.5-.1 1-.6 1.8-1.9 1.8-2.9 0-.9-.8-1.3-1.9-.7z"/><path class="st6" d="M364.9 154.6v-38l-27.3 8.1v43.6c0 .7.6 1.2 1.2 1.2.2 0 26.1-14.9 26.1-14.9z"/><path class="st6" d="m287.6 102.1 52.4 30.5 29.2-16.9v-2.1l-52.4-28.3-29.2 14.7z"/><path class="st16" d="m287.6 100 52.4 30.4 29.2-16.8-52.4-30.5z"/><path class="st3" d="m338.8 102.4-11.2-6.5-15.8 9.2 11.2 6.4z"/><path class="st20" d="m326.4 108.3-8.7-5-.3.1 8.7 5.1zM327.6 107.6l-8.7-5-.3.2 8.7 5zM328.9 106.9l-8.7-5-.3.2 8.7 5zM330.1 106.3l-8.7-5.1-.3.2 8.7 5zM331.2 105.5l-8.7-5.1-.3.2 8.7 5zM332.4 104.8l-8.7-5-.3.2 8.7 5zM329.5 100.5l-.3.2-3.4-1.9.3-.2z"/><path class="st10" d="M322.7 97.4c0 .7-.3 2.6-.6 3.1s-.2.9-.4 1.4c-.4.2-.7-.6-.7-1.2 0-2.7-.8-2.3-.7-3.1.2-1.3 1.5-2.1 1.9-2.1.4 0 .5 1 .5 1.9z"/><path class="st10" d="M320.7 94.3c1-.6 1.3.1 1.6.7.3.6.3 1.1.1 1.6-.2.5-2.6 3.3-2.8 3.3-.8-.2-3.9.8-2.9-1.2.4-.7 1.1-1.8 1.7-2.4 1-1 1.3-1.4 2.3-2z"/><path class="st10" d="m324.7 90.9 1.7 1.7-4.1 3-2.1-.9c1-1.2 4.5-3.8 4.5-3.8zM316.2 101.8c.1-.2.5-1.3 1.1-2.1.4-.6.9-1.1 1-1.2.2-.3-.6-.8-1.2-.3-.3.3-1.4 2.7-1.4 3.2 0 .6.2.7.5.4z"/><path class="st10" d="M316.2 100.8c.2-.1.7-1.2 1.4-1.9.5-.5 1.1-.9 1.2-1 .2-.3-.5-.9-1.1-.5-.3.3-1.7 2.4-1.8 2.9-.1.5 0 .8.3.5z"/><path class="st10" d="M316.8 101.9c.3-.4 1.6-2.4 1.8-2.8.2-.4-.2-.7-.7-.3-.3.3-2.2 2.8-2.3 3.2-.2.5.5.9 1.2-.1z"/><path class="st10" d="M316.5 102.6c.7-.6 3.5-2.9 3.7-3.1.3-.3-.8-.6-2.1.3-.8.6-2.8 2.5-2.8 3 .1.4.5.4 1.2-.2z"/><path class="st13" d="m324.3 90.9 1.9 2.1-2.5 1.7-1.6-1.9z"/><path class="st8" d="M333.5 83.6c1.5-.3 3.2 2.5 1.7 4.4-1.4 1.9-10 6-10 6l-2.3-2.2s9.1-7.9 10.6-8.2zM353.9 81.1c-.3-3.8-2.6-5.6-4.3-2.9-1.6 2.5-2.5 14.3-.4 15.5 2.1 1.1 4.6-.8 4.6-.8l.1-11.8z"/><path class="st10" d="M348.8 64.9c0 .2.3 2.3.8 5 0 0-1.1-.4-1.1-.5-.1-.6-.5-4.3-.3-4.7.2-.2.6-.3.6.2z"/><path class="st10" d="M347.7 66.9c.1-.1.4-.2.5 0 .2.3.3.8.4 1 .1.1.3.9.4 1.2.2.9-.6.8-.8.2-.3-.6-.9-2.2-.5-2.4z"/><path class="st10" d="M347.1 67.8c.1-.1.4-.2.5 0 .2.3.3.8.4 1 .1.1.3.9.4 1.2.2.9-.6.8-.8.2-.3-.6-.9-2.3-.5-2.4z"/><path class="st10" d="M346.6 68.4c.2 0 .4-.1.5.1.1.3.1.8.3 1.1.1.1.2.9.2 1.2.1.9-.8-.1-.9-.5-.1-.3-.5-1.8-.1-1.9z"/><path class="st10" d="M348.1 67.4c.2-.1.6.1.8.3.1.1.6 1.6.9 2.8.2.7.3 1 .1 2-.4 2.5-2 3.2-2.3 2.8-.4-.4-.8-1-.9-1.9-.2-2-.2-3.4-.2-3.9 0-.7 1.4-2 1.6-2.1z"/><path class="st10" d="m350 77.2-.8-3.2-1.9.2.5 3.3z"/><path class="st13" d="M353.6 92c-.1-2.9-3.3-16.1-3.3-16.1l-2.7.9s-1.4 11.8.7 16c1.3 2.7 5.3 2.1 5.3-.8z"/><path class="st10" d="M349.2 74.4c.3-.3 2.1-5.4 1.6-5.8-.5-.5-1.2 2-1.5 2.2-.4.2-.7 4.1-.1 3.6z"/></g><circle class="st4" cx="611.6" cy="134.3" r="30"/><defs><circle id="SVGID_00000066476055260916070100000001560946052586417316_" cx="611.6" cy="134.3" r="30"/></defs><clipPath id="SVGID_00000105399821588025204110000005026010526136046476_"><use xlink:href="#SVGID_00000066476055260916070100000001560946052586417316_" style="overflow:visible"/></clipPath><g style="clip-path:url(#SVGID_00000105399821588025204110000005026010526136046476_)"><path class="st6" d="M585.8 192.5v-38l-27.3 8.1v43.6c0 .7.6 1.2 1.2 1.2.2 0 26.1-14.9 26.1-14.9zM631.9 215.6v-38l-27.3 8.1v43.6c0 .7.6 1.2 1.2 1.2.2 0 26.1-14.9 26.1-14.9z"/><path class="st7" d="M632.8 173.2 613.5 162c-.7-.4-1.5-1.9-1.4-2.6l3.4-21.2c.1-.5.4-.6.9-.3l19.2 10c1.3.8.7 3.5.5 4.7l-3.3 20.6z"/><path class="st7" d="m632.2 174-18.7 10.9c-.3.2-.7.2-1 0L593.6 174c-.7-.4-.7-1.4 0-1.8l18.7-10.9c.3-.2.7-.2 1 0l18.9 10.9c.7.5.7 1.4 0 1.8z"/><path class="st22" d="M584.3 209c.6-.3 1.5-1 1.9-1.9.2-.4-.1-1.6 1.9-1.5 2 .1 2.4 1 2.5 1.4.1.4 1.1 2.1.4 3.1-.7.9-2.6 1.2-4.7 2.6-1.8 1.2-2.3 2-3.4 2.2-1.1.2-2.9-.4-3.2-1.6-.3-1.1.5-1.9 1.1-2.3.7-.3 2.9-1.6 3.5-2z"/><path class="st3" d="m585.2 202.8 4.3-.4c.3 1.1-.6 2.5.6 4.4.7 1.2-4 4.2-4 4.2l-2.4-1.4c-.1-.1 2.9-3.6 1.5-6.8z"/><path class="st23" d="M583.5 179.5c-1.4 3.6.7 24.8.6 25.9s2.7 2.7 4 2.4c1.3-.3 3.6-2.3 3.6-2.3s-1.4-19.9-.5-22.5c.8-2.5 28.9-17.8 28.9-17.8l-9.5-7.6-3.9 5.6s-21.9 12.7-23.2 16.3z"/><path class="st22" d="M588.5 218.9c-.7-.6-.7-1.6 0-2.1 1.8-1.2 3.8-3.2 5.2-4 .9-.5 3.1-2.8 4.2-2.4 1.2.4 2 1.6 2 2.9 0 1.2-.5 1.9-1.1 2.3-.6.5-3.6 2-4.2 2.7-1.2 1.2-2.8 1.8-3.4 1.8-1.3-.1-2-.7-2.7-1.2z"/><path class="st3" d="m593.9 204.7 4.8-.3s-.8 5.7.9 7.4c1 1-4.4 3.1-4.4 3.1s-2.3-1.5-2.2-1.6c2.7-3.2.9-8.6.9-8.6z"/><path class="st23" d="M593.9 209.3c0 1.2 2.4 2.3 4.8 1.8 2.4-.4 2.2-2.8 2.2-3.7-.1-1-.4-16.9 1.4-20 1.8-3.1 21.7-10.8 23.4-13.8 1.7-3.1-.4-10.5-.4-10.5-.2-.5-11.1-6.7-11.1-6.7l-.8 11.5s-16.4 12.8-18.2 15.6c-1.9 2.8-1.3 24.7-1.3 25.8z"/><path class="st24" d="M607.5 128.3c1.2-.8 4.2.8 4.2.8s-8.2 17.7-10.8 18.3c-2.6.6-3.1-3-3.1-3s8.5-15.3 9.7-16.1z"/><path class="st13" d="M615.6 126c2.2 1.4 5.3 5.8 5.3 5.8l-3.8 33.8-9.7-4.1s-1.3-23.7-1-26.3c.4-2.7 1.8-6.2 3.9-7.2 2.2-.9 3.1-3.3 5.3-2z"/><path class="st14" d="m609.8 145.3 1.2-10.4c-.6-1-.8-3.8-.4-4.2.4-.4 2.3-.7 2.3-.7l1.6 2.8-2.2 2.4 1.7 10.4-.1 14.2-3 .5-1.7-2.3.6-12.7z"/><path class="st20" d="M614 126.1s-2.3-.9-4.1-.1c-1.3.6-2.4 1.3-3.1 2.5-.5.8-.8 2-1 3.1-.3 2.5.3 33.2.3 33.2l3.6 2.3.1-12.4s-.7-14.2-.9-18.7c-.1-9.2 5.1-9.9 5.1-9.9zM626.7 137.5c-.7-2.2-4.6-6.9-4.6-6.9-1.1-1.2-2.4-2.7-4.3-4.3 0 0 .4 1.7-.1 3.5-.2.9-2.2 4.9-3 8.4-.9 3.6-.6 7.3-.8 10.7-.1 2.8-2.1 9.4-2 13.8.1 4.9.5 7 .5 7s3.6 2.8 5.2 2.1c3.9-1.9 8.1-5.3 8.1-5.3s.6-15.1 1.2-20.5c.3-2.1.5-6.3-.2-8.5z"/><path class="st13" d="M612 125c-2 1.9-2.2 5.7-2.2 5.7s1.3.2 2.6-.3l.2-.6c-.1-.3 5.1-3.1 4.9-4.3-.2-.6-4.9-1.1-5.5-.5z"/><path class="st25" d="M608.8 112c-1.5.9-1 4.5-.9 5.1 0 .5 1.3 2.1 1.3 2.1s1.2-1.9 1.6-4.1c.4-2.1-1.5-3.3-2-3.1zM622.7 116.7c-.5-1.2-2.8-.2-3.8.4-1.5.9-2 5.9-2 5.9.6 1.3 6.8-4 5.8-6.3z"/><path class="st15" d="M610.6 123.1c.2 1.2.5 2.1.5 3.5-.1 1.4 0 1.7.6 2.2.6.4.8 1 2.4.5 1.1-.4 3.4-1.8 3.2-2.3-.6-2.8.1-3.1.9-4.7 1.7-3.6-6.1-1-7.6.8z"/><path class="st10" d="M613.4 126c-1.3 0-2 .1-3.1-.6-1.2-.7-1.7-4.2-1.7-5 0-.8.1-3.4.1-3.4s0-1.6.1-2.2c.6-5.4 5.9-7.6 10.2-5.1 5.5 3.1 3 7.4.9 10.9-.3.6-1.9 2.9-2.6 3.5-.5.7-2.5 2-3.9 1.9z"/><path class="st25" d="M622.6 114.5c1.1-1.4-.9-3.5-2.5-5-1.4-1.6-3.6-2.1-5.5-2-1 .1-2.1-.2-4.1 1.9-.8.9-2.7 2.9-2.5 3.7.2 1.1.9.7.9.7l7.3-.2 1.9.8v3.3l-.3 1.1s.6.1.8-.1c.8-.6 1.7-.3 1.6.5.4.2 1 1.9 2.1-.3.7-1.3 1.3-2.4.3-4.4z"/><path class="st25" d="M614 108.8s-.9 1.2-.4 2.1l3.8 2c.8.4 1.3 1.2 1.4 2l.1.5c.4 1.2-9.7-2.3-9.7-2.3l-.8 1.6v-2.2l5.6-3.7z"/><path class="st10" d="M620.4 118c.9.1.4 1.5-.6 3-.1.2-1 1.1-1.3.9-.4-.2 0-1.8 0-2.1.4-1.1 0-2.1 1.9-1.8z"/><path class="st15" d="M620.2 118.4c.8.1.3 1.2-.5 2.6-.1.1-.8.9-1.1.8-.4-.2 0-1.5 0-1.7.4-1.1 0-2 1.6-1.7z"/><path class="st13" d="M617.2 125c.2 1-1.5 4.7-4.6 4.8l-.2.7 3.5 3.8s2.2-2.9 2.4-4.4c.1-1.4-.1-4.6-1.1-4.9z"/><path class="st7" d="M623.2 118.9c0 1.6-1.3 3.7-3 4.7-1.6.9-3 .4-3-1.2s1.3-3.7 3-4.7 3-.4 3 1.2z"/><path class="st7" d="M620.5 120.2c-.3 0-.5-.2-.6-.5-.1-.4-.1-1 0-1.8.1-2.6.3-7-4-9.2-2.2-1.1-4.4.7-4.4.7-.3.2-.6.2-.9-.1-.2-.3-.2-.6.1-.9.1-.1 2.9-2.3 5.7-.9 5 2.5 4.8 7.6 4.7 10.3 0 .6-.1 1.2 0 1.5.1.3-.1.7-.5.7 0 .2-.1.2-.1.2z"/><path class="st12" d="M620.7 118.7c-1.1.6-2 2.1-2 3.2 0 .2 0 .3.1.5-2 1.2-4.5 2.1-6.1 2.4h-.1v-.1c-.2-.3-.7-.8-1-.8-.2 0-.3.1-.4.3-.2.5.1 1 .5 1.1.2.1.4.1.6.1.2 0 .3 0 .5-.1 1.6-.3 4.2-1.2 6.3-2.5.4.3.9.2 1.6-.1 1.1-.6 2-2.1 2-3.2 0-1-.9-1.4-2-.8z"/><path class="st6" d="m554.6 163.1 52.4 30.4 29.2-16.8v-2.2l-52.4-28.3-29.2 14.7z"/><path class="st16" d="m554.6 160.9 52.4 30.5 29.2-16.9-52.4-30.4z"/><path class="st26" d="m572.8 161.4 10.2 5.8 14.4-8.3-10.2-5.8z"/><path class="st10" d="M588.2 152.4c0 .6-.2 2.3-.5 2.7-.2.4-.1.8-.3 1.2-.4.2-.7-.5-.6-1 .1-.5-1.2-1.7-1.1-2.4.1-1.2 1.8-1.6 2.1-1.6.4-.1.4.3.4 1.1z"/><path class="st27" d="m573.9 161.4 8.9 5c4.3-1.7 7.3-4.6 10-9.1l-9.3-5.1c-1.9 5.2-5.3 7.6-9.6 9.2z"/><path class="st20" d="M584.6 164.9c.1 0 .1 0 .2-.1s0-.2-.1-.3l-7.2-4c-.1-.1-.2 0-.3.1-.1.1 0 .2.1.3l7.3 4c-.1 0 0 0 0 0zM586.4 163.6c.1 0 .1 0 .2-.1s0-.2-.1-.3l-6.9-3.9c-.1-.1-.2 0-.3.1-.1.1 0 .2.1.3l7 3.9c-.1 0 0 0 0 0zM587.8 162.2c.1 0 .1 0 .2-.1s0-.2-.1-.3l-6.9-3.9c-.1-.1-.2 0-.3.1-.1.1 0 .2.1.3l7 3.9c-.1 0-.1 0 0 0zM589 161c.1 0 .1 0 .2-.1s0-.2-.1-.3l-6.9-3.9c-.1-.1-.2 0-.3.1-.1.1 0 .2.1.3l7 3.9c0-.1 0 0 0 0z"/><path class="st10" d="M586.9 149.5c.7-.4.8.6 1 1.1.3.5 0 1-.2 1.4-.2.4-2.2 2.9-2.4 2.9-.7-.1-3.3.3-2.5-1.4.3-.7.9-1.5 1.4-1.9.9-.8 2.3-1.9 2.7-2.1z"/><path class="st10" d="m590.8 147.7 1.6 2.5-4.6 1.5-1.6-1.7c.9-.9 4.6-2.3 4.6-2.3z"/><path class="st13" d="m590.5 147.6 1.4 2.8-2.3 1.2-1.3-2.9z"/><path class="st10" d="M582.2 157.2c.1-.1.6-1 1.1-1.7.4-.5.8-.9.9-1.1.2-.3.3-.5.5-.8.1-.5-.5-.8-1-.4-.2.3-1.8 3.6-1.8 3.7-.2.2.1.5.3.3z"/><path class="st10" d="M582.5 155.9c.3-.2 1.8-2.5 1.9-2.8.2-.3.3-.5.5-.8.1-.5-1.3.4-1.8.8-.3.4-1.4 2.5-1.3 2.8.2.4.4.2.7 0zM583 157.5c.2-.3 1.3-1.9 1.4-2.2.2-.3.3-.5.5-.8.1-.5-.3-.9-.8-.5-.2.3-1.9 3.3-2 3.6-.2.4.2.8.9-.1z"/><path class="st10" d="M584.4 157.5c.3-.7 1-2.6 1.4-3.3.1-.9-.6-.8-1.2.4-.4.7-1.3 3.1-1.2 3.4.2.4.7.3 1-.5z"/><path class="st24" d="M600 143.4c1.3 0 2.1 2.8.5 4.1-1.6 1.3-9.4 3.7-9.4 3.7l-1.8-3.2c0 .1 9.3-4.6 10.7-4.6z"/><path class="st17" d="m584.8 170.3 13.8 8 10.1-5.8v1l-10.1 5.9-13.8-8z"/><path class="st17" d="m594.9 164.5-10.1 5.9 13.8 8 10.1-5.9-13.8-8z"/><path class="st3" d="m585.8 170.3 12.8 7.4 9.1-5.2-12.8-7.4z"/><path class="st17" d="m582.7 161.9 12.9 7.5 3.4 8.7-.4.2-13.8-8-2.6-8.1z"/><path class="st10" d="M610.8 168.8c-.4 0-1.5.1-2 .1-.6 0-2.2.2-2.1.6.1.5 2.2.4 2.6.5.5.1.9.7 1.4.5.4-.1.9-1.7.1-1.7z"/><path class="st10" d="M606.4 172.2c.1-.2 1-1.4 2.2-2.3l.7.9s-.1 0-.3.1c-.6.3-1.9 2-2.4 2-.6.1-.4-.3-.2-.7z"/><path class="st10" d="M606.9 174.2c-.1-.1-.2-.3-.2-.5.1-.3.4-.6.5-.9.2-.5 2.1-2.2 2.1-2.2l.6.8c-.2.2-1.7 1.2-1.7 1.2s-1 1.8-1.3 1.6z"/><path class="st10" d="M607.6 174.4c.4-.7 1.5-2.3 2-2.8-.1 0-.6-.1-.8-.3-.2-.2.2-.5.2-.5s-.6-.1-.8-.3c-.2-.2.2-.5.2-.5 1.2-1.1 3-1.3 3.4-1.4 1.5-.3 2-.2 2.8-.7.8-.5 1.8-1.8 1.8-1.8l2.1 1.1s-2 2.4-2.6 3.1c-.9 1.1-3.5 2.3-4.8 2.7-.5.2-1 .6-1.5.9-.3.3-.6.4-.7.6-.2.2-.6-.1-.3-.4l1.8-1.8c-.3.2-.6.5-.6.5s-1.6 1.6-1.7 1.9-.7 0-.5-.3z"/><path class="st27" d="m615.8 166.6-.9 1c.4.9 1.7 1.8 2 1.8s1.3-1 1.3-1l-2.4-1.8z"/><path class="st24" d="M620 145.7c-.5 3.7 1.5 11 1.5 11s-2.5 10.7-1.4 10.4c.6-.2 4.5-4.4 6.1-6.9 1.6-2.5-.2-18.2-2.3-20.1-1.4-1.1-3.4 1.9-3.9 5.6z"/><path class="st20" d="M621 141.8c-.5 3.7 2.4 12.6 2.4 12.6s-7.8 11.6-7.9 12.2c-.1.6 1.9 2.5 2.9 2.2.6-.2 7.7-9.6 9.2-12.1 1.6-2.5-.5-16.2-2-18.5-1.5-2.4-4.1-.1-4.6 3.6z"/></g><circle class="st4" cx="186.7" cy="134.3" r="30"/><defs><circle id="SVGID_00000163756600168636223470000002087442407147383715_" cx="186.7" cy="134.3" r="30"/></defs><clipPath id="SVGID_00000039835414467844748050000008445878757543043754_"><use xlink:href="#SVGID_00000163756600168636223470000002087442407147383715_" style="overflow:visible"/></clipPath><g style="clip-path:url(#SVGID_00000039835414467844748050000008445878757543043754_)"><path class="st6" d="M160.9 192.5v-38l-27.3 8.1v43.6c0 .7.6 1.2 1.2 1.2.2 0 26.1-14.9 26.1-14.9zM207 215.6v-38l-27.3 8.1v43.6c0 .7.6 1.2 1.2 1.2.2 0 26.1-14.9 26.1-14.9z"/><path class="st7" d="M207.9 173.2 188.6 162c-.7-.4-1.5-1.9-1.4-2.6l3.4-21.2c.1-.5.4-.6.9-.3l19.2 10c1.3.8.7 3.5.5 4.7l-3.3 20.6z"/><path class="st7" d="m207.3 174-18.7 10.9c-.3.2-.7.2-1 0L168.7 174c-.7-.4-.7-1.4 0-1.8l18.7-10.9c.3-.2.7-.2 1 0l18.9 10.9c.7.5.7 1.4 0 1.8z"/><path class="st22" d="M159.4 209c.6-.3 1.5-1 1.9-1.9.2-.4-.1-1.6 1.9-1.5 2 .1 2.4 1 2.5 1.4.1.4 1.1 2.1.4 3.1-.7.9-2.6 1.2-4.7 2.6-1.8 1.2-2.3 2-3.4 2.2-1.1.2-2.9-.4-3.2-1.6-.3-1.1.5-1.9 1.1-2.3.7-.3 2.9-1.6 3.5-2z"/><path class="st3" d="m160.3 202.8 4.3-.4c.3 1.1-.6 2.5.6 4.4.7 1.2-4 4.2-4 4.2l-2.4-1.4c0-.1 2.9-3.6 1.5-6.8z"/><path class="st23" d="M158.6 179.5c-1.4 3.6.7 24.8.6 25.9-.1 1 2.7 2.7 4 2.4 1.3-.3 3.6-2.3 3.6-2.3s-1.4-19.9-.5-22.5c.8-2.5 28.9-17.8 28.9-17.8l-9.5-7.6-3.9 5.6s-21.8 12.7-23.2 16.3z"/><path class="st22" d="M163.6 218.9c-.7-.6-.7-1.6 0-2.1 1.8-1.2 3.8-3.2 5.2-4 .9-.5 3.1-2.8 4.2-2.4 1.2.4 2 1.6 2 2.9 0 1.2-.5 1.9-1.1 2.3-.6.5-3.6 2-4.2 2.7-1.2 1.2-2.8 1.8-3.4 1.8-1.3-.1-2-.7-2.7-1.2z"/><path class="st3" d="m169 204.7 4.8-.3s-.8 5.7.9 7.4c1 1-4.4 3.1-4.4 3.1s-2.3-1.5-2.2-1.6c2.7-3.2.9-8.6.9-8.6z"/><path class="st23" d="M169 209.3c0 1.2 2.4 2.3 4.8 1.8 2.4-.4 2.2-2.8 2.2-3.7-.1-1-.4-16.9 1.4-20 1.8-3.1 21.7-10.8 23.4-13.8 1.7-3.1-.4-10.5-.4-10.5-.2-.5-11.1-6.7-11.1-6.7l-.8 11.5s-16.4 12.8-18.2 15.6c-1.9 2.8-1.3 24.7-1.3 25.8z"/><path class="st24" d="M182.6 128.3c1.2-.8 4.2.8 4.2.8s-8.2 17.7-10.8 18.3c-2.6.6-3.1-3-3.1-3s8.5-15.3 9.7-16.1z"/><path class="st13" d="M190.7 126c2.2 1.4 5.3 5.8 5.3 5.8l-3.8 33.8-9.7-4.1s-1.3-23.7-1-26.3c.4-2.7 1.8-6.2 3.9-7.2 2.2-.9 3.1-3.3 5.3-2z"/><path class="st14" d="m184.9 145.3 1.2-10.4c-.6-1-.8-3.8-.4-4.2.4-.4 2.3-.7 2.3-.7l1.6 2.8-2.2 2.4 1.7 10.4-.1 14.2-3 .5-1.7-2.3.6-12.7z"/><path class="st20" d="M189.1 126.1s-2.3-.9-4.1-.1c-1.3.6-2.4 1.3-3.1 2.5-.5.8-.8 2-1 3.1-.3 2.5.3 33.2.3 33.2l3.6 2.3.1-12.4s-.7-14.2-.9-18.7c-.1-9.2 5.1-9.9 5.1-9.9zM201.9 137.5c-.7-2.2-4.6-6.9-4.6-6.9-1.1-1.2-2.4-2.7-4.3-4.3 0 0 .4 1.7-.1 3.5-.2.9-2.2 4.9-3 8.4-.9 3.6-.6 7.3-.8 10.7-.1 2.8-2.1 9.4-2 13.8.1 4.9.5 7 .5 7s3.6 2.8 5.2 2.1c3.9-1.9 8.1-5.3 8.1-5.3s.6-15.1 1.2-20.5c.2-2.1.4-6.3-.2-8.5z"/><path class="st13" d="M187.1 125c-2 1.9-2.2 5.7-2.2 5.7s1.3.2 2.6-.3l.2-.6c-.1-.3 5.1-3.1 4.9-4.3-.2-.6-4.9-1.1-5.5-.5z"/><path class="st25" d="M183.9 112c-1.5.9-1 4.5-.9 5.1 0 .5 1.3 2.1 1.3 2.1s1.2-1.9 1.6-4.1c.5-2.1-1.5-3.3-2-3.1zM197.8 116.7c-.5-1.2-2.8-.2-3.8.4-1.5.9-2 5.9-2 5.9.6 1.3 6.9-4 5.8-6.3z"/><path class="st15" d="M185.7 123.1c.2 1.2.5 2.1.5 3.5-.1 1.4 0 1.7.6 2.2.6.4.8 1 2.4.5 1.1-.4 3.4-1.8 3.2-2.3-.6-2.8.1-3.1.9-4.7 1.7-3.6-6.1-1-7.6.8z"/><path class="st10" d="M188.5 126c-1.3 0-2 .1-3.1-.6-1.2-.7-1.7-4.2-1.7-5 0-.8.1-3.4.1-3.4s0-1.6.1-2.2c.6-5.4 5.9-7.6 10.2-5.1 5.5 3.1 3 7.4.9 10.9-.3.6-1.9 2.9-2.6 3.5-.5.7-2.5 2-3.9 1.9z"/><path class="st25" d="M197.8 114.5c1.1-1.4-.9-3.5-2.5-5-1.4-1.6-3.6-2.1-5.5-2-1 .1-2.1-.2-4.1 1.9-.8.9-2.7 2.9-2.5 3.7.2 1.1.9.7.9.7l7.3-.2 1.9.8v3.3l-.3 1.1s.6.1.8-.1c.8-.6 1.7-.3 1.6.5.4.2 1 1.9 2.1-.3.6-1.3 1.2-2.4.3-4.4z"/><path class="st25" d="M189.1 108.8s-.9 1.2-.4 2.1l3.8 2c.8.4 1.3 1.2 1.4 2l.1.5c.4 1.2-9.7-2.3-9.7-2.3l-.8 1.6v-2.2l5.6-3.7z"/><path class="st10" d="M195.5 118c.9.1.4 1.5-.6 3-.1.2-1 1.1-1.3.9-.4-.2 0-1.8 0-2.1.4-1.1 0-2.1 1.9-1.8z"/><path class="st15" d="M195.4 118.4c.8.1.3 1.2-.5 2.6-.1.1-.8.9-1.1.8-.4-.2 0-1.5 0-1.7.3-1.1-.1-2 1.6-1.7z"/><path class="st13" d="M192.3 125c.2 1-1.5 4.7-4.6 4.8l-.2.7 3.5 3.8s2.2-2.9 2.4-4.4c.1-1.4-.1-4.6-1.1-4.9z"/><path class="st7" d="M198.3 118.9c0 1.6-1.3 3.7-3 4.7-1.6.9-3 .4-3-1.2s1.3-3.7 3-4.7 3-.4 3 1.2z"/><path class="st7" d="M195.6 120.2c-.3 0-.5-.2-.6-.5-.1-.4-.1-1 0-1.8.1-2.6.3-7-4-9.2-2.2-1.1-4.4.7-4.4.7-.3.2-.6.2-.9-.1-.2-.3-.2-.6.1-.9.1-.1 2.9-2.3 5.7-.9 5 2.5 4.8 7.6 4.7 10.3 0 .6-.1 1.2 0 1.5.1.3-.1.7-.5.7 0 .2-.1.2-.1.2z"/><path class="st12" d="M195.8 118.7c-1.1.6-2 2.1-2 3.2 0 .2 0 .3.1.5-2 1.2-4.5 2.1-6.1 2.4h-.1v-.1c-.2-.3-.7-.8-1-.8-.2 0-.3.1-.4.3-.2.5.1 1 .5 1.1.2.1.4.1.6.1.2 0 .3 0 .5-.1 1.6-.3 4.2-1.2 6.3-2.5.4.3.9.2 1.6-.1 1.1-.6 2-2.1 2-3.2 0-1-.9-1.4-2-.8z"/><path class="st6" d="m129.7 163.1 52.4 30.4 29.2-16.8v-2.2l-52.4-28.3-29.2 14.7z"/><path class="st16" d="m129.7 160.9 52.4 30.5 29.2-16.9-52.4-30.4z"/><path class="st26" d="m148 161.4 10.1 5.8 14.4-8.3-10.2-5.8z"/><path class="st10" d="M163.3 152.4c0 .6-.2 2.3-.5 2.7-.2.4-.1.8-.3 1.2-.4.2-.7-.5-.6-1 .1-.5-1.2-1.7-1.1-2.4.1-1.2 1.8-1.6 2.1-1.6.4-.1.4.3.4 1.1z"/><path class="st27" d="m149 161.4 8.9 5c4.3-1.7 7.3-4.6 10-9.1l-9.3-5.1c-1.9 5.2-5.3 7.6-9.6 9.2z"/><path class="st20" d="M159.7 164.9c.1 0 .1 0 .2-.1s0-.2-.1-.3l-7.2-4c-.1-.1-.2 0-.3.1-.1.1 0 .2.1.3l7.3 4c-.1 0 0 0 0 0zM161.5 163.6c.1 0 .1 0 .2-.1s0-.2-.1-.3l-6.9-3.9c-.1-.1-.2 0-.3.1-.1.1 0 .2.1.3l7 3.9c-.1 0 0 0 0 0zM162.9 162.2c.1 0 .1 0 .2-.1s0-.2-.1-.3l-7-3.8c-.1-.1-.2 0-.3.1-.1.1 0 .2.1.3l7.1 3.8c-.1 0-.1 0 0 0zM164.2 161c.1 0 .1 0 .2-.1s0-.2-.1-.3l-6.9-3.9c-.1-.1-.2 0-.3.1-.1.1 0 .2.1.3l7 3.9c-.1-.1-.1 0 0 0z"/><path class="st10" d="M162 149.5c.7-.4.8.6 1 1.1.3.5 0 1-.2 1.4-.2.4-2.2 2.9-2.4 2.9-.7-.1-3.3.3-2.5-1.4.3-.7.9-1.5 1.4-1.9.9-.8 2.3-1.9 2.7-2.1z"/><path class="st10" d="m166 147.7 1.6 2.5-4.6 1.5-1.6-1.7c.8-.9 4.6-2.3 4.6-2.3z"/><path class="st13" d="m165.6 147.6 1.4 2.8-2.3 1.2-1.3-2.9z"/><path class="st10" d="M157.3 157.2c.1-.1.6-1 1.1-1.7.4-.5.8-.9.9-1.1.2-.3.3-.5.5-.8.1-.5-.5-.8-1-.4-.2.3-1.8 3.6-1.8 3.7-.2.2.1.5.3.3z"/><path class="st10" d="M157.6 155.9c.3-.2 1.8-2.5 1.9-2.8.2-.3.3-.5.5-.8.1-.5-1.3.4-1.8.8-.3.4-1.4 2.5-1.3 2.8.2.4.4.2.7 0zM158.1 157.5c.2-.3 1.3-1.9 1.4-2.2.2-.3.3-.5.5-.8.1-.5-.3-.9-.8-.5-.2.3-1.9 3.3-2 3.6-.2.4.2.8.9-.1z"/><path class="st10" d="M159.5 157.5c.3-.7 1-2.6 1.4-3.3.1-.9-.6-.8-1.2.4-.4.7-1.3 3.1-1.2 3.4.2.4.7.3 1-.5z"/><path class="st24" d="M175.1 143.4c1.3 0 2.1 2.8.5 4.1-1.6 1.3-9.4 3.7-9.4 3.7l-1.8-3.2c0 .1 9.3-4.6 10.7-4.6z"/><path class="st17" d="m159.9 170.3 13.8 8 10.1-5.8v1l-10.1 5.9-13.8-8z"/><path class="st17" d="m170 164.5-10.1 5.9 13.8 8 10.1-5.9-13.8-8z"/><path class="st3" d="m160.9 170.3 12.8 7.4 9.1-5.2-12.8-7.4z"/><path class="st17" d="m157.8 161.9 12.9 7.5 3.5 8.7-.5.2-13.8-8-2.6-8.1z"/><path class="st10" d="M185.9 168.8c-.4 0-1.5.1-2 .1-.6 0-2.2.2-2.1.6.1.5 2.2.4 2.6.5.5.1.9.7 1.4.5.4-.1 1-1.7.1-1.7z"/><path class="st10" d="M181.5 172.2c.1-.2 1-1.4 2.2-2.3l.7.9s-.1 0-.3.1c-.6.3-1.9 2-2.4 2-.6.1-.4-.3-.2-.7z"/><path class="st10" d="M182 174.2c-.1-.1-.2-.3-.2-.5.1-.3.4-.6.5-.9.2-.5 2.1-2.2 2.1-2.2l.6.8c-.2.2-1.7 1.2-1.7 1.2s-1 1.8-1.3 1.6z"/><path class="st10" d="M182.7 174.4c.4-.7 1.5-2.3 2-2.8-.1 0-.6-.1-.8-.3-.2-.2.2-.5.2-.5s-.6-.1-.8-.3c-.2-.2.2-.5.2-.5 1.2-1.1 3-1.3 3.4-1.4 1.5-.3 2-.2 2.8-.7.8-.5 1.8-1.8 1.8-1.8l2.1 1.1s-2 2.4-2.6 3.1c-.9 1.1-3.5 2.3-4.8 2.7-.5.2-1 .6-1.5.9-.3.3-.6.4-.7.6-.2.2-.6-.1-.3-.4l1.8-1.8c-.3.2-.6.5-.6.5s-1.6 1.6-1.7 1.9c-.2.2-.6 0-.5-.3z"/><path class="st27" d="m190.9 166.6-.9 1c.4.9 1.7 1.8 2 1.8.4 0 1.3-1 1.3-1l-2.4-1.8z"/><path class="st24" d="M195.1 145.7c-.5 3.7 1.5 11 1.5 11s-2.5 10.7-1.4 10.4c.6-.2 4.5-4.4 6.1-6.9 1.6-2.5-.2-18.2-2.3-20.1-1.4-1.1-3.4 1.9-3.9 5.6z"/><path class="st20" d="M196.1 141.8c-.5 3.7 2.4 12.6 2.4 12.6s-7.8 11.6-7.9 12.2c-.1.6 1.9 2.5 2.9 2.2.6-.2 7.7-9.6 9.2-12.1 1.6-2.5-.5-16.2-2-18.5-1.5-2.4-4.1-.1-4.6 3.6z"/></g><path class="st29" d="M699.9 46.1c.5.8 1.3 1.1 2.5 1.2 1.4.1 4.3 0 5.9-.1-.2.3-.4 1-.4 1.4-1.5.1-4 .1-5.5 0-1.4-.1-2.4-.4-3.1-1.3-.6.5-1.1.9-1.8 1.4l-.7-1.4c.5-.3 1.1-.7 1.7-1.1v-2.6H697v-1.3h2.9v3.8zm-.7-5.3c-.4-.6-1.3-1.4-2-2l1-.9c.7.5 1.7 1.3 2.1 1.8l-1.1 1.1zm3.1 6H701v-6.2h2.7c-.5-.3-1.1-.5-1.6-.7l.9-.8c.4.2.9.3 1.4.6.3-.2.7-.4 1-.6H701V38h5.5l.3-.1.9.7c-.6.6-1.4 1.1-2.1 1.6.3.1.5.3.7.4h1.5v4.9c0 .6-.1.9-.5 1.1-.4.2-.9.2-1.6.2 0-.3-.2-.8-.3-1.1h.9c.1 0 .2-.1.2-.2V45h-1.4v1.8h-1.3V45h-1.4v1.8zm0-5.1v.6h1.4v-.6h-1.4zm1.4 2.3v-.7h-1.4v.7h1.4zm2.7-2.3H705v.6h1.4v-.6zm0 2.3v-.7H705v.7h1.4zM709 39.7h4.6v1.1H709v-1.1zm4.2 8.7h-2.5v.5h-1.2v-4.1h3.7v3.6zm0-5.9h-3.6v-1.1h3.6v1.1zm-3.6.6h3.6v1.1h-3.6v-1.1zm3.6-4h-3.5V38h3.5v1.1zm-2.5 6.8v1.4h1.3v-1.4h-1.3zm7-3.4V44h2.1v4.8h-1.4v-.5h-2.7v.6h-1.4V44h2v-1.6h-2.6v-1.3h2.6v-1.5c-.7.1-1.4.1-2 .2 0-.3-.2-.9-.4-1.2 1.8-.2 3.8-.5 5.1-.9l1 1.2c-.7.2-1.5.4-2.3.5v1.7h2.6v1.3h-2.6zm.7 2.8h-2.7V47h2.7v-1.7zM726.1 39.4c1.1-.1 2.3-.2 3.4-.3v1.4c-1.1.2-2.6.3-3.9.3-.2.4-.4.9-.7 1.2.3-.1 1-.2 1.4-.2.7 0 1.3.3 1.6.9.6-.3 1.1-.5 1.6-.7.5-.2.9-.4 1.3-.6l.6 1.4c-.4.1-1 .3-1.4.5-.5.2-1.2.5-2 .8v2.1h-1.4c0-.4 0-.9.1-1.5-.9.5-1.4 1-1.4 1.6 0 .7.6.8 1.7.8 1 0 2.4-.1 3.4-.3v1.5c-.8.1-2.3.2-3.4.2-1.9 0-3.3-.5-3.3-2s1.4-2.5 2.8-3.2c-.2-.3-.5-.4-.8-.4-.7 0-1.4.4-1.9.8-.4.4-.7.8-1.1 1.3l-1.3-1c1.3-1.2 2.1-2.2 2.7-3.3h-.2c-.5 0-1.4 0-2-.1v-1.4c.6.1 1.5.1 2.1.1h.6c.1-.5.2-.9.2-1.4l1.6.1c0 .5-.1.9-.3 1.4zM735 42.2v6.6h-1.4V38.1h4.6v4.1H735zm0-3.1v.6h1.9v-.6H735zm1.9 2.1v-.6H735v.6h1.9zm3.9 2.5v4.8h-1.3v-.7c-1.4.1-2.8.2-3.9.3l-.1-1.1h.8v-3.3h-.7v-1h5.8v1h-.6zm-1.3 0h-1.9v.5h1.9v-.5zm0 1.3h-1.9v.5h1.9V45zm-1.9 1.9c.6 0 1.2-.1 1.9-.1v-.5h-1.9v.6zm6.1.3c0 .7-.1 1.1-.5 1.3-.4.2-1 .3-1.9.3 0-.4-.2-1-.4-1.4h1.2c.2 0 .2-.1.2-.2v-4.9H739v-4.2h4.7v9.1zm-3.4-8.1v.6h1.9v-.6h-1.9zm2 2.2v-.6h-1.9v.6h1.9zM751.1 41.8c-.1-.1-.1-.3-.2-.4-.1-.3-.2-.5-.2-.7-1.1.1-2.5 0-4-.1l-.1-1.4c1.4.2 2.7.2 3.8.2-.1-.4-.2-.8-.4-1.2l1.6-.2c.1.4.1.9.2 1.3.8-.1 1.6-.3 2.4-.5l.2 1.4c-.7.2-1.4.3-2.2.4.1.2.1.4.2.6.1.2.1.3.2.5 1-.1 1.7-.3 2.3-.5l.2 1.4c-.6.1-1.2.3-1.9.4.2.4.4.8.6 1.1.2.2.3.4.5.6l-.7 1.1c-.7-.1-2-.3-2.8-.4l.1-1.1c.5 0 1.2.1 1.5.1-.3-.4-.5-.8-.7-1.2-1.5.1-3.4.1-5.2 0l-.1-1.4c1.8.1 3.4.1 4.7 0zm-3 4c0 .9.8 1.2 2.4 1.2 1.1 0 2.2-.1 3-.3l-.1 1.5c-.8.1-1.9.2-2.9.2-2.4 0-3.9-.7-3.9-2.4 0-.8.2-1.4.5-1.9l1.5.3c-.2.5-.5.9-.5 1.4zM683.6 54.3c-.6.9-1.7 2.4-2.9 3.3l-1.2-1c1-.6 1.9-1.6 2.2-2.2h-6.2c-.5 0-.9 0-1.5.1v-1.7c.5.1 1 .1 1.5.1h6.5c.3 0 1 0 1.2-.1l.9.9c-.2.2-.4.4-.5.6zm-7.7 8.2-1.4-1.1c.4-.1.8-.3 1.3-.7 1.5-1.1 1.8-2.3 1.8-4.3 0-.4 0-.7-.1-1.1h1.7c0 3-.1 5.4-3.3 7.2zM688 53.9c0-.4 0-1-.1-1.5h1.9c0 .4-.1.9-.1 1.5v1.8c1.6.5 3.9 1.3 5 1.9l-.7 1.7c-1.2-.7-3-1.4-4.3-1.8v3.4c0 .3.1 1.2.1 1.7h-1.9c.1-.5.1-1.2.1-1.7v-7zm5.9.8-1 .5c-.3-.8-.6-1.2-1.1-1.9l1-.4c.3.5.8 1.3 1.1 1.8zm1.6-.7-1 .5c-.4-.8-.7-1.2-1.1-1.8l1-.5c.3.5.8 1.3 1.1 1.8zM700.1 53.5l1.8.4c-.1.3-.2.9-.3 1.2-.2.8-.6 2.5-1 3.6-.4 1.2-1.1 2.5-1.8 3.4l-1.7-.7c.8-1 1.5-2.3 1.9-3.3.5-1.4.9-3 1.1-4.6zm3 .4 1.6-.5c.5.9 1.3 2.8 1.8 3.9.4 1.1 1.1 3 1.4 4.2l-1.8.6c-.3-1.4-.8-2.9-1.2-4.2-.5-1.3-1.3-3.1-1.8-4zm3.8 0-1 .4c-.3-.5-.6-1.2-.9-1.7l.9-.4c.4.5.8 1.2 1 1.7zm1.5-.6-1 .4c-.2-.5-.6-1.2-1-1.6l.9-.4c.4.5.8 1.2 1.1 1.6zM714.6 55c1.2-.8 2.6-2 3.4-2.9l1.3 1.2c-.9.9-2.1 1.8-3.2 2.6v4.8c0 .5 0 1.3.1 1.6h-1.9c0-.3.1-1 .1-1.6v-3.8c-1.2.6-2.8 1.3-4.2 1.7l-.8-1.5c2.1-.5 3.9-1.3 5.2-2.1zM730.2 54.4c-.4.9-1.1 2.2-1.9 3.3 1.2 1 2.6 2.6 3.3 3.4l-1.4 1.2c-.8-1.1-1.9-2.3-3-3.4-1.3 1.3-2.9 2.6-4.5 3.4l-1.2-1.3c1.9-.7 3.8-2.2 4.9-3.4.8-.9 1.5-2.1 1.8-2.9h-4.1c-.5 0-1.2.1-1.4.1V53c.3 0 1.1.1 1.4.1h4.2c.5 0 1-.1 1.2-.2l1 .7c0 .2-.2.6-.3.8zM737.9 53.4l-.3 1.2h1c1.3 0 2.2.6 2.2 2.3 0 1.4-.2 3.4-.7 4.4-.4.8-1.1 1.1-2 1.1-.5 0-1-.1-1.4-.2l-.3-1.6c.5.1 1.2.3 1.5.3.4 0 .7-.1.9-.5.3-.7.5-2.1.5-3.3 0-1-.4-1.1-1.2-1.1h-.8c-.5 1.8-1.3 4.7-2.4 6.4l-1.6-.6c1.2-1.6 2-4 2.4-5.6-.4 0-.8.1-1 .1-.3.1-1 .1-1.3.2l-.1-1.6h1.3c.4 0 .9 0 1.5-.1.2-.9.3-1.8.3-2.5l1.8.2c-.2.2-.3.6-.3.9zm5 .2-.6.3c.7 1.1 1.6 3.1 2 4.2l-1.5.7c-.3-1.3-1.2-3.4-2-4.5l1.1-.5c-.2-.5-.5-1-.8-1.4l.9-.4c.3.4.7 1.2.9 1.6zm1.5-.5-.9.4c-.3-.5-.6-1.2-1-1.7l1-.4c.2.5.7 1.2.9 1.7zM746.6 53.5c1-.1 3-.3 5.2-.4 1.2-.1 2.5-.2 3.4-.2v1.5c-.6 0-1.7 0-2.3.2-1.5.4-2.5 1.9-2.5 3.4 0 2 1.8 2.7 3.9 2.8l-.6 1.6c-2.5-.2-4.9-1.5-4.9-4.1 0-1.7 1-3.1 1.8-3.7-1.1.1-3.6.4-5 .7l-.2-1.6c.5-.1 1-.1 1.2-.2zm7.8 3.7-.9.4c-.3-.7-.6-1.1-.9-1.7l.9-.4c.3.5.7 1.2.9 1.7zm1.4-.6-.9.4c-.3-.6-.6-1.1-1-1.6l.9-.4c.3.4.8 1.2 1 1.6zM763.1 55.8c-.1-.1-.1-.3-.2-.4-.1-.3-.2-.5-.2-.7-1.1.1-2.5 0-4-.1l-.1-1.4c1.4.2 2.7.2 3.8.2-.1-.4-.2-.8-.4-1.2l1.6-.2c.1.4.1.9.2 1.3.8-.1 1.6-.3 2.4-.5l.2 1.4c-.7.2-1.4.3-2.2.4.1.2.1.4.2.6.1.2.1.3.2.5 1-.1 1.7-.3 2.3-.5l.2 1.4c-.6.1-1.2.3-1.9.4.2.4.4.8.6 1.1.2.2.3.4.5.6l-.7 1.1c-.7-.1-2-.3-2.8-.4l.1-1.1c.5 0 1.2.1 1.5.1-.3-.4-.5-.8-.7-1.2-1.5.1-3.4.1-5.2 0l-.1-1.4c1.8.1 3.4.1 4.7 0zm-3 4c0 .9.8 1.2 2.4 1.2 1.1 0 2.2-.1 3-.3l-.1 1.5c-.8.1-1.9.2-2.9.2-2.4 0-3.9-.7-3.9-2.4 0-.8.2-1.4.5-1.9l1.5.3c-.2.5-.5.9-.5 1.4zM772.3 52.7c.6 0 3.2 0 3.9-.1.5 0 .8-.1.9-.1l.8 1.1c-.3.2-.6.3-.8.6-.6.5-1.9 1.5-2.7 2.1.4-.1.8-.1 1.1-.1 2 0 3.6 1.3 3.6 3 0 1.9-1.4 3.4-4.3 3.4-1.7 0-2.9-.8-2.9-2 0-1 .9-1.9 2.1-1.9 1.5 0 2.4.9 2.6 2.1.7-.3 1-.9 1-1.6 0-1.1-1.1-1.8-2.5-1.8-1.8 0-3 1-4.3 2.4l-1.1-1.1c.9-.7 2.3-1.9 3-2.5.7-.6 1.9-1.6 2.5-2.1-.6 0-2.3.1-2.9.1-.3 0-.7.1-1 .1v-1.6h1zm2.2 8.4h.7c-.1-.8-.5-1.3-1.2-1.3-.5 0-.7.3-.7.6 0 .4.5.7 1.2.7z"/><path class="st0" d="M699.9 46.1c.5.8 1.3 1.1 2.5 1.2 1.4.1 4.3 0 5.9-.1-.2.3-.4 1-.4 1.4-1.5.1-4 .1-5.5 0-1.4-.1-2.4-.4-3.1-1.3-.6.5-1.1.9-1.8 1.4l-.7-1.4c.5-.3 1.1-.7 1.7-1.1v-2.6H697v-1.3h2.9v3.8zm-.7-5.3c-.4-.6-1.3-1.4-2-2l1-.9c.7.5 1.7 1.3 2.1 1.8l-1.1 1.1zm3.1 6H701v-6.2h2.7c-.5-.3-1.1-.5-1.6-.7l.9-.8c.4.2.9.3 1.4.6.3-.2.7-.4 1-.6H701V38h5.5l.3-.1.9.7c-.6.6-1.4 1.1-2.1 1.6.3.1.5.3.7.4h1.5v4.9c0 .6-.1.9-.5 1.1-.4.2-.9.2-1.6.2 0-.3-.2-.8-.3-1.1h.9c.1 0 .2-.1.2-.2V45h-1.4v1.8h-1.3V45h-1.4v1.8zm0-5.1v.6h1.4v-.6h-1.4zm1.4 2.3v-.7h-1.4v.7h1.4zm2.7-2.3H705v.6h1.4v-.6zm0 2.3v-.7H705v.7h1.4zM709 39.7h4.6v1.1H709v-1.1zm4.2 8.7h-2.5v.5h-1.2v-4.1h3.7v3.6zm0-5.9h-3.6v-1.1h3.6v1.1zm-3.6.6h3.6v1.1h-3.6v-1.1zm3.6-4h-3.5V38h3.5v1.1zm-2.5 6.8v1.4h1.3v-1.4h-1.3zm7-3.4V44h2.1v4.8h-1.4v-.5h-2.7v.6h-1.4V44h2v-1.6h-2.6v-1.3h2.6v-1.5c-.7.1-1.4.1-2 .2 0-.3-.2-.9-.4-1.2 1.8-.2 3.8-.5 5.1-.9l1 1.2c-.7.2-1.5.4-2.3.5v1.7h2.6v1.3h-2.6zm.7 2.8h-2.7V47h2.7v-1.7zM726.1 39.4c1.1-.1 2.3-.2 3.4-.3v1.4c-1.1.2-2.6.3-3.9.3-.2.4-.4.9-.7 1.2.3-.1 1-.2 1.4-.2.7 0 1.3.3 1.6.9.6-.3 1.1-.5 1.6-.7.5-.2.9-.4 1.3-.6l.6 1.4c-.4.1-1 .3-1.4.5-.5.2-1.2.5-2 .8v2.1h-1.4c0-.4 0-.9.1-1.5-.9.5-1.4 1-1.4 1.6 0 .7.6.8 1.7.8 1 0 2.4-.1 3.4-.3v1.5c-.8.1-2.3.2-3.4.2-1.9 0-3.3-.5-3.3-2s1.4-2.5 2.8-3.2c-.2-.3-.5-.4-.8-.4-.7 0-1.4.4-1.9.8-.4.4-.7.8-1.1 1.3l-1.3-1c1.3-1.2 2.1-2.2 2.7-3.3h-.2c-.5 0-1.4 0-2-.1v-1.4c.6.1 1.5.1 2.1.1h.6c.1-.5.2-.9.2-1.4l1.6.1c0 .5-.1.9-.3 1.4zM735 42.2v6.6h-1.4V38.1h4.6v4.1H735zm0-3.1v.6h1.9v-.6H735zm1.9 2.1v-.6H735v.6h1.9zm3.9 2.5v4.8h-1.3v-.7c-1.4.1-2.8.2-3.9.3l-.1-1.1h.8v-3.3h-.7v-1h5.8v1h-.6zm-1.3 0h-1.9v.5h1.9v-.5zm0 1.3h-1.9v.5h1.9V45zm-1.9 1.9c.6 0 1.2-.1 1.9-.1v-.5h-1.9v.6zm6.1.3c0 .7-.1 1.1-.5 1.3-.4.2-1 .3-1.9.3 0-.4-.2-1-.4-1.4h1.2c.2 0 .2-.1.2-.2v-4.9H739v-4.2h4.7v9.1zm-3.4-8.1v.6h1.9v-.6h-1.9zm2 2.2v-.6h-1.9v.6h1.9zM751.1 41.8c-.1-.1-.1-.3-.2-.4-.1-.3-.2-.5-.2-.7-1.1.1-2.5 0-4-.1l-.1-1.4c1.4.2 2.7.2 3.8.2-.1-.4-.2-.8-.4-1.2l1.6-.2c.1.4.1.9.2 1.3.8-.1 1.6-.3 2.4-.5l.2 1.4c-.7.2-1.4.3-2.2.4.1.2.1.4.2.6.1.2.1.3.2.5 1-.1 1.7-.3 2.3-.5l.2 1.4c-.6.1-1.2.3-1.9.4.2.4.4.8.6 1.1.2.2.3.4.5.6l-.7 1.1c-.7-.1-2-.3-2.8-.4l.1-1.1c.5 0 1.2.1 1.5.1-.3-.4-.5-.8-.7-1.2-1.5.1-3.4.1-5.2 0l-.1-1.4c1.8.1 3.4.1 4.7 0zm-3 4c0 .9.8 1.2 2.4 1.2 1.1 0 2.2-.1 3-.3l-.1 1.5c-.8.1-1.9.2-2.9.2-2.4 0-3.9-.7-3.9-2.4 0-.8.2-1.4.5-1.9l1.5.3c-.2.5-.5.9-.5 1.4zM683.6 54.3c-.6.9-1.7 2.4-2.9 3.3l-1.2-1c1-.6 1.9-1.6 2.2-2.2h-6.2c-.5 0-.9 0-1.5.1v-1.7c.5.1 1 .1 1.5.1h6.5c.3 0 1 0 1.2-.1l.9.9c-.2.2-.4.4-.5.6zm-7.7 8.2-1.4-1.1c.4-.1.8-.3 1.3-.7 1.5-1.1 1.8-2.3 1.8-4.3 0-.4 0-.7-.1-1.1h1.7c0 3-.1 5.4-3.3 7.2zM688 53.9c0-.4 0-1-.1-1.5h1.9c0 .4-.1.9-.1 1.5v1.8c1.6.5 3.9 1.3 5 1.9l-.7 1.7c-1.2-.7-3-1.4-4.3-1.8v3.4c0 .3.1 1.2.1 1.7h-1.9c.1-.5.1-1.2.1-1.7v-7zm5.9.8-1 .5c-.3-.8-.6-1.2-1.1-1.9l1-.4c.3.5.8 1.3 1.1 1.8zm1.6-.7-1 .5c-.4-.8-.7-1.2-1.1-1.8l1-.5c.3.5.8 1.3 1.1 1.8zM700.1 53.5l1.8.4c-.1.3-.2.9-.3 1.2-.2.8-.6 2.5-1 3.6-.4 1.2-1.1 2.5-1.8 3.4l-1.7-.7c.8-1 1.5-2.3 1.9-3.3.5-1.4.9-3 1.1-4.6zm3 .4 1.6-.5c.5.9 1.3 2.8 1.8 3.9.4 1.1 1.1 3 1.4 4.2l-1.8.6c-.3-1.4-.8-2.9-1.2-4.2-.5-1.3-1.3-3.1-1.8-4zm3.8 0-1 .4c-.3-.5-.6-1.2-.9-1.7l.9-.4c.4.5.8 1.2 1 1.7zm1.5-.6-1 .4c-.2-.5-.6-1.2-1-1.6l.9-.4c.4.5.8 1.2 1.1 1.6zM714.6 55c1.2-.8 2.6-2 3.4-2.9l1.3 1.2c-.9.9-2.1 1.8-3.2 2.6v4.8c0 .5 0 1.3.1 1.6h-1.9c0-.3.1-1 .1-1.6v-3.8c-1.2.6-2.8 1.3-4.2 1.7l-.8-1.5c2.1-.5 3.9-1.3 5.2-2.1zM730.2 54.4c-.4.9-1.1 2.2-1.9 3.3 1.2 1 2.6 2.6 3.3 3.4l-1.4 1.2c-.8-1.1-1.9-2.3-3-3.4-1.3 1.3-2.9 2.6-4.5 3.4l-1.2-1.3c1.9-.7 3.8-2.2 4.9-3.4.8-.9 1.5-2.1 1.8-2.9h-4.1c-.5 0-1.2.1-1.4.1V53c.3 0 1.1.1 1.4.1h4.2c.5 0 1-.1 1.2-.2l1 .7c0 .2-.2.6-.3.8zM737.9 53.4l-.3 1.2h1c1.3 0 2.2.6 2.2 2.3 0 1.4-.2 3.4-.7 4.4-.4.8-1.1 1.1-2 1.1-.5 0-1-.1-1.4-.2l-.3-1.6c.5.1 1.2.3 1.5.3.4 0 .7-.1.9-.5.3-.7.5-2.1.5-3.3 0-1-.4-1.1-1.2-1.1h-.8c-.5 1.8-1.3 4.7-2.4 6.4l-1.6-.6c1.2-1.6 2-4 2.4-5.6-.4 0-.8.1-1 .1-.3.1-1 .1-1.3.2l-.1-1.6h1.3c.4 0 .9 0 1.5-.1.2-.9.3-1.8.3-2.5l1.8.2c-.2.2-.3.6-.3.9zm5 .2-.6.3c.7 1.1 1.6 3.1 2 4.2l-1.5.7c-.3-1.3-1.2-3.4-2-4.5l1.1-.5c-.2-.5-.5-1-.8-1.4l.9-.4c.3.4.7 1.2.9 1.6zm1.5-.5-.9.4c-.3-.5-.6-1.2-1-1.7l1-.4c.2.5.7 1.2.9 1.7zM746.6 53.5c1-.1 3-.3 5.2-.4 1.2-.1 2.5-.2 3.4-.2v1.5c-.6 0-1.7 0-2.3.2-1.5.4-2.5 1.9-2.5 3.4 0 2 1.8 2.7 3.9 2.8l-.6 1.6c-2.5-.2-4.9-1.5-4.9-4.1 0-1.7 1-3.1 1.8-3.7-1.1.1-3.6.4-5 .7l-.2-1.6c.5-.1 1-.1 1.2-.2zm7.8 3.7-.9.4c-.3-.7-.6-1.1-.9-1.7l.9-.4c.3.5.7 1.2.9 1.7zm1.4-.6-.9.4c-.3-.6-.6-1.1-1-1.6l.9-.4c.3.4.8 1.2 1 1.6zM763.1 55.8c-.1-.1-.1-.3-.2-.4-.1-.3-.2-.5-.2-.7-1.1.1-2.5 0-4-.1l-.1-1.4c1.4.2 2.7.2 3.8.2-.1-.4-.2-.8-.4-1.2l1.6-.2c.1.4.1.9.2 1.3.8-.1 1.6-.3 2.4-.5l.2 1.4c-.7.2-1.4.3-2.2.4.1.2.1.4.2.6.1.2.1.3.2.5 1-.1 1.7-.3 2.3-.5l.2 1.4c-.6.1-1.2.3-1.9.4.2.4.4.8.6 1.1.2.2.3.4.5.6l-.7 1.1c-.7-.1-2-.3-2.8-.4l.1-1.1c.5 0 1.2.1 1.5.1-.3-.4-.5-.8-.7-1.2-1.5.1-3.4.1-5.2 0l-.1-1.4c1.8.1 3.4.1 4.7 0zm-3 4c0 .9.8 1.2 2.4 1.2 1.1 0 2.2-.1 3-.3l-.1 1.5c-.8.1-1.9.2-2.9.2-2.4 0-3.9-.7-3.9-2.4 0-.8.2-1.4.5-1.9l1.5.3c-.2.5-.5.9-.5 1.4zM772.3 52.7c.6 0 3.2 0 3.9-.1.5 0 .8-.1.9-.1l.8 1.1c-.3.2-.6.3-.8.6-.6.5-1.9 1.5-2.7 2.1.4-.1.8-.1 1.1-.1 2 0 3.6 1.3 3.6 3 0 1.9-1.4 3.4-4.3 3.4-1.7 0-2.9-.8-2.9-2 0-1 .9-1.9 2.1-1.9 1.5 0 2.4.9 2.6 2.1.7-.3 1-.9 1-1.6 0-1.1-1.1-1.8-2.5-1.8-1.8 0-3 1-4.3 2.4l-1.1-1.1c.9-.7 2.3-1.9 3-2.5.7-.6 1.9-1.6 2.5-2.1-.6 0-2.3.1-2.9.1-.3 0-.7.1-1 .1v-1.6h1zm2.2 8.4h.7c-.1-.8-.5-1.3-1.2-1.3-.5 0-.7.3-.7.6 0 .4.5.7 1.2.7z"/><circle class="st4" cx="765" cy="101.3" r="30"/><defs><circle id="SVGID_00000062913755612374569230000010133244127285783486_" cx="765" cy="101.3" r="30"/></defs><clipPath id="SVGID_00000111166734146376284270000004236935091261050269_"><use xlink:href="#SVGID_00000062913755612374569230000010133244127285783486_" style="overflow:visible"/></clipPath><g style="clip-path:url(#SVGID_00000111166734146376284270000004236935091261050269_)"><path class="st6" d="M739.3 154v-38l-27.3 8.1v43.6c0 .7.6 1.2 1.2 1.2.1 0 26.1-14.9 26.1-14.9z"/><path class="st7" d="M779 111c1.4 4.5-2.4 24.8-2.8 25.8-1.1 2.2-18.6-6.5-19.1-9.4-.9-5.4 0-20.1.8-22.4 1.7-4.7 19.6 1.1 21.1 6z"/><path class="st7" d="m736.5 137.8 18.9 11c.3.2.7.2 1 0l19-11c.7-.4.7-1.4 0-1.8l-18.9-11c-.3-.2-.7-.2-1 0l-19 11c-.7.4-.7 1.4 0 1.8z"/><path class="st9" d="M732.6 174.7c3.3-2.8 1.6-.6 3.7-3.9 1.2 0 3-.1 3.3.7.3.8.5 1.9.5 1.9.2 2.8-.7 4.3-.7 4.3-.4.3-.8.3-1.2 0v-.8l-3.7 2.7c-.7.6-1.7 1.1-2.7 1.4-1.1.3-2.3.1-3.2-.6-.4-.3-.7-.6-.6-1-.1-.9 3.8-3.5 4.6-4.7z"/><path class="st10" d="M732.9 176.8c2.5 1 6.5-3.2 6.5-5.3-.4-2.7.5-8.4.5-10.3 0-6.9-4.7-1.1-4.7-1.1s.1 2.4-.1 9.1c-.1 5.2-5 6.5-2.2 7.6z"/><path class="st11" d="M739.3 145.7c-.3 9.7 1 15.3.8 15.8-.4 1.2-5.1 1-5.5 0-.2-.4-1.4-16.2-.6-18.7s5.3 2.9 5.3 2.9z"/><path class="st11" d="M734.4 141.2c1.4-2.5 22.8-17.1 22.8-17.1s6 6.6 3.9 8.8c-.5.5-19.8 13.8-22.1 15.5-1.6 1.2-3.2 3.7-3.9 2.3-.7-1.3-2-7-.7-9.5z"/><path class="st9" d="M735.7 181.7c3.3-2.8 3.8-2.9 6-6.3 1.2 0 2.7-.5 3.6 1l.2 1.2c.2 2.8-.6 4.8-.6 4.8-.4.3-.8.3-1.2 0v-.8l-3.7 2.7c-1.1 1-3 1.7-4.4 1.6 0 0-2.2-.8-2.2-1.8-.3-1.6 1.9-1.9 2.3-2.4z"/><path class="st10" d="M738.2 181.2c2.5 1 6.9-2.1 6.6-4.3-.2-1.6-.7-2.7-.7-3.9.1-7.8.5-8.8.1-10.2-.4-1.3-3.8-.7-4.4.2-.5.9.3 4 .1 11-.1 2.2-.1 3.5-.6 4.6-.6 1.5-2.1 1.8-1.1 2.6z"/><path class="st9" d="M744.9 145.3s.6 19.1.1 20.2c-.5 1.1-5.5.8-6-.2s-.9-12.2-1.4-22.4l7.3 2.4z"/><path class="st9" d="M737.8 143c1.2-1.4 23.7-15.6 23.7-15.6l10.7-3.7c.9-.2 3.4 8.1.6 10.6-2.4 2-25.7 13.5-28.1 14.2-2.5.8-8.1-4.1-6.9-5.5z"/><path class="st9" d="M772.8 134.3c-.3.1-3.9 1.3-5.7 1-3.3-.6-10.9-8.4-10.9-8.4l1.4-8.5s10.7 5.6 13.2 6.6c5.9 2.7 2.3 9.2 2 9.3z"/><path class="st8" d="M750.8 110.9s5.3-14.9 6.9-15.6c1.6-.7 6.4-1.1 5.2 1.2-2.6 4.8-7.1 14.6-9 14.6-2.7.1-3.1-.2-3.1-.2z"/><path class="st12" d="M771.5 83.6c-.4-1.6-13.1-.6-13.1-.6s-2.6 3.6-2.7 6.5c-.1 2.9 2.1 5.5 2.9 6.1 1.2.9 5.6 3.7 5.6 3.7s3.8-.5 5.6-1.2c1.8-.7 3.9-5.6 3.9-6.5.2-3.4-1.9-7-2.2-8z"/><path class="st13" d="M765.2 91.6c2.6 1.3 5.3 5.2 5.3 5.2l-3.2 29.7-7.3-5.9-2.7-17.2.6-7.1c0-.1 4.7-6.1 7.3-4.7z"/><path class="st14" d="M756 103c.1-2.8.5-6.6.5-6.6s2.7-3 3.8-3.5c.6-.2 2.6-.6 2.4 0-.2.6-2.9 1.5-3.2 2.3-.8 2.1-.6 6.4-.5 8.1.1 1.7.7 7.1 2.1 11.5 3.9-7.8 5.8-16.2 6.4-17.7.7-1.7-2.5-4.4-2.8-4.9l1.4-.4c2.4 1.6 6.9 7 7.8 9.4.9 2.4-.2 8-1.2 15.5 0 0 1.2 5.8.6 7.7-.6 1.9-4.6 3.5-6.1 3.4-11.1-1.3-9.7-6.7-9.7-6.7l-.2-4.8c-.1-.2-1.5-10.5-1.3-13.3z"/><path class="st13" d="M762.1 92.8c-.7-.1-2.1.7-2.4 2.1-.4 1.5.1 3.4.1 3.4l2.4-.1.3-.5c0-.4-.2-3.8-.4-4.9zM767.5 96.6c.2-.6 0-2.8-.9-3.7-1-1.2-3.1-1.4-3.1-1.4l-1 2.2.3.5c.6.1 3.7 2 4.7 2.4z"/><path class="st15" d="M759.7 88c.4 2.9 2.7 2.8 1.6 5.9-.3.7.9 1.8.9 1.8l4-2.3c-1.2-3.9-.7-5.6-.7-5.6l-5.8.2z"/><path class="st10" d="M766.5 77c-.4-.2-4.2-.3-4.7-.2-7 2.3-3.8 11.9-3.6 12.6.4 1.1 1.3 2.5 2.2 3.1 3.1 2 7-1.7 7.2-2.3.2-.6 5.7-10.4-1.1-13.2z"/><path class="st15" d="M767.3 89.9c.7.2 1.5-.5 1.8-1.5.3-1 .1-2-.6-2.2-.7-.2-1.9 3.5-1.2 3.7z"/><path class="st12" d="M771.4 81.1c-.8-2.8-3.4-4.8-7.3-5-3.1-.2-6.4 2.9-6.7 5.6 0 .5-.7 3.9-.3 4.2.3.1.2-1.1.9-2.9.5-1.2 1.4-1.8 2.2-2.8 1.2 1.7 2.3 1.1 4 1.2 1.8.1 2.5-.4 2.5-.4s.1 1.1.2 2.4c.1 1.2.1 5.2.1 5.2s4.4-2.2 4.5-5.3c.1-.5 0-1.7-.1-2.2z"/><path class="st12" d="m767.5 79.7-8.1-1c.1.8.1 1.8 2.3 3.6 2.3 2 4.9 2.2 6.9 1-.2-.8-1.1-3.6-1.1-3.6z"/><path class="st13" d="M766.2 93.2s-2 3.1-5.4 3.3l-.3.5c.4 1.1 2.3 2.6 2.3 2.6s4.8-2.7 4.6-3.9c-.1-1.3-1.2-2.5-1.2-2.5z"/><path class="st7" d="M771.5 86.2c0 1.5-1.2 3.4-2.7 4.3-1.5.9-2.7.4-2.7-1.1s1.2-3.4 2.7-4.3c1.5-.9 2.7-.4 2.7 1.1z"/><path class="st7" d="M769 87.4c-.3 0-.5-.2-.6-.5-.1-.4-.1-.9 0-1.6.1-2.4.3-6.5-3.7-8.4-2-1-4.1.7-4.1.7-.2.2-.6.2-.8-.1-.2-.2-.2-.6.1-.8.1-.1 2.7-2.1 5.3-.8 4.6 2.3 4.4 7 4.3 9.5 0 .6-.1 1.1 0 1.4.1.3-.1.6-.4.7 0-.1-.1-.1-.1-.1z"/><path class="st12" d="M769.2 86.1c-1 .6-1.8 1.9-1.8 2.9 0 .2 0 .3.1.4-1.9 1.1-4.2 2-5.6 2.2h-.1v-.1c-.2-.3-.6-.7-1-.7-.2 0-.3.1-.3.2-.2.4.1.9.5 1 .2.1.3.1.5.1h.5c1.5-.2 3.9-1.1 5.8-2.3.3.2.9.2 1.5-.1 1-.6 1.8-1.9 1.8-2.9-.1-1-.9-1.3-1.9-.7z"/><path class="st6" d="M785.4 177.1v-38l-27.3 8.1v43.6c0 .7.6 1.2 1.2 1.2.1 0 26.1-14.9 26.1-14.9z"/><path class="st6" d="m708.1 124.6 52.3 30.4 29.2-16.8V136l-52.4-28.3-29.1 14.7z"/><path class="st16" d="m708.1 122.4 52.3 30.5 29.2-16.9-52.4-30.4z"/><path class="st3" d="m759.2 124.8-11.2-6.4-15.8 9.1 11.2 6.5z"/><path class="st20" d="m746.8 130.7-8.7-5-.3.2 8.7 5zM748 130.1l-8.7-5-.3.1 8.7 5zM749.3 129.4l-8.7-5.1-.3.2 8.7 5zM750.5 128.7l-8.7-5-.3.2 8.7 5zM751.6 127.9l-8.7-5-.3.2 8.7 5zM752.8 127.3l-8.7-5.1-.3.2 8.7 5zM749.9 123l-.3.1-3.4-1.9.3-.2z"/><path class="st10" d="M743.1 119.9c0 .7-.3 2.6-.6 3.1s-.2.9-.4 1.4c-.4.2-.7-.6-.7-1.2 0-2.7-.8-2.3-.7-3.1.2-1.3 1.5-2.1 1.9-2.1.4-.1.5 1 .5 1.9z"/><path class="st10" d="M741.2 116.8c1-.6 1.3.1 1.6.7.3.6.3 1.1.1 1.6-.2.5-2.6 3.3-2.8 3.3-.8-.2-3.9.8-2.9-1.2.4-.7 1.1-1.8 1.7-2.4 1-1.1 1.3-1.5 2.3-2z"/><path class="st10" d="m745.1 113.4 1.7 1.7-4.1 3-2.1-.9c1-1.3 4.5-3.8 4.5-3.8zM736.6 124.3c.1-.2.5-1.3 1.1-2.1.4-.6.9-1.1 1-1.2.2-.3-.6-.8-1.2-.3-.3.3-1.4 2.7-1.4 3.2s.3.7.5.4z"/><path class="st10" d="M736.7 123.2c.2-.1.7-1.2 1.4-1.9.5-.5 1.1-.9 1.2-1 .2-.3-.5-.9-1.1-.5-.3.3-1.7 2.4-1.8 2.9-.2.5-.1.8.3.5z"/><path class="st10" d="M737.2 124.4c.3-.4 1.6-2.4 1.8-2.8.2-.4-.2-.7-.7-.3-.3.3-2.2 2.8-2.3 3.2-.2.4.5.9 1.2-.1z"/><path class="st10" d="M736.9 125c.7-.6 3.5-2.9 3.7-3.1.3-.3-.8-.6-2.1.3-.8.6-2.8 2.5-2.8 3 .1.5.5.5 1.2-.2z"/><path class="st13" d="m744.7 113.4 1.9 2.1-2.5 1.7-1.6-2z"/><path class="st8" d="M753.9 106.1c1.5-.3 3.2 2.5 1.7 4.4-1.4 1.9-10 6-10 6l-2.3-2.2c.1-.1 9.1-7.9 10.6-8.2zM774.3 103.6c-.3-3.8-2.6-5.6-4.3-2.9-1.6 2.5-2.5 14.3-.4 15.5 2.1 1.1 4.6-.8 4.6-.8l.1-11.8z"/><path class="st10" d="M769.2 87.3c0 .2.3 2.3.8 5 0 0-1.1-.4-1.1-.5-.1-.6-.5-4.3-.3-4.7.2-.2.7-.2.6.2z"/><path class="st10" d="M768.1 89.4c.1-.1.4-.2.5 0 .2.3.3.8.4 1 .1.1.3.9.4 1.2.2.9-.6.8-.8.2-.3-.6-.8-2.3-.5-2.4z"/><path class="st10" d="M767.5 90.2c.1-.1.4-.2.5 0 .2.3.3.8.4 1 .1.1.3.9.4 1.2.2.9-.6.8-.8.2-.3-.6-.8-2.3-.5-2.4z"/><path class="st10" d="M767 90.8c.2 0 .4-.1.5.1.1.3.1.8.3 1.1.1.1.2.9.2 1.2.1.9-.8-.1-.9-.5 0-.2-.4-1.8-.1-1.9z"/><path class="st10" d="M768.5 89.8c.2-.1.6.1.8.3.1.1.6 1.6.9 2.8.2.7.3 1 .1 2-.4 2.5-2 3.2-2.3 2.8-.4-.4-.8-1-.9-1.9-.2-2-.2-3.4-.2-3.9 0-.6 1.4-1.9 1.6-2.1z"/><path class="st10" d="m770.5 99.6-.9-3.1-1.9.2.5 3.3z"/><path class="st13" d="M774 114.4c-.1-2.9-3.3-16.1-3.3-16.1l-2.7.9s-1.4 11.8.7 16c1.3 2.7 5.4 2.2 5.3-.8z"/><path class="st10" d="M769.7 96.9c.3-.3 2.1-5.4 1.6-5.8-.5-.5-1.2 2-1.5 2.2-.4.2-.7 4.1-.1 3.6z"/></g><path class="st0" d="M186.7 60 179 74.8h15.3zM186.7 104.3 179 89.5h15.3z"/><path class="st31" d="M186.7 74.8v2.5"/><path class="st32" d="M186.7 79.4v6.5"/><path class="st31" d="M186.7 87v2.5"/><path class="st0" d="m611.6 60-7.7 14.8h15.3zM611.6 104.3l-7.7-14.8h15.3z"/><path class="st31" d="M611.6 74.8v2.5"/><path class="st32" d="M611.6 79.4v6.5"/><path class="st31" d="M611.6 87v2.5"/><path class="st0" d="M196.1 82.1 219 94V70.3zM312.6 82.1 289.7 94V70.3z"/><path class="st1" d="M219 82.1h2.5"/><path style="fill:none;stroke:#1f88ff;stroke-width:10;stroke-miterlimit:10;stroke-dasharray:5.0506,2.0202" d="M223.6 82.1h62.6"/><path class="st1" d="M287.2 82.1h2.5"/><path class="st0" d="M224.4 68.7c.4.7 1.2 1 2.3 1.1 1.3.1 3.9 0 5.4-.1-.2.3-.4.9-.4 1.3-1.4.1-3.7.1-5 0-1.3-.1-2.2-.4-2.8-1.2-.5.4-1 .9-1.6 1.3l-.6-1.3c.5-.3 1-.6 1.5-1v-2.4h-1.4v-1.2h2.7v3.5zm-.6-4.9c-.3-.5-1.2-1.3-1.8-1.8l.9-.8c.7.5 1.5 1.2 1.9 1.7l-1 .9zm2.8 5.6h-1.2v-5.7h2.5c-.5-.2-1-.5-1.5-.6l.8-.7c.4.1.8.3 1.3.5l.9-.6h-3.9v-1h5l.3-.1.8.6c-.5.5-1.2 1-2 1.5.2.1.5.2.7.3h1.3v4.5c0 .5-.1.8-.5 1-.4.2-.8.2-1.5.2 0-.3-.2-.7-.3-1h.8c.1 0 .2-.1.2-.2v-.5H229v1.6h-1.2v-1.6h-1.3v1.8zm0-4.8v.6h1.3v-.6h-1.3zm1.3 2.2v-.6h-1.3v.6h1.3zm2.4-2.2H229v.6h1.3v-.6zm0 2.2v-.6H229v.6h1.3zM232.8 62.8h4.2v1h-4.2v-1zm3.8 8h-2.3v.4h-1.1v-3.8h3.4v3.4zm0-5.4h-3.3v-1h3.3v1zm-3.3.5h3.3v1h-3.3v-1zm3.3-3.6h-3.2v-1h3.2v1zm-2.3 6.2v1.3h1.2v-1.3h-1.2zm6.4-3.2v1.5h1.9v4.4h-1.3v-.5h-2.5v.5h-1.2v-4.4h1.8v-1.5H237v-1.2h2.4v-1.3c-.6.1-1.2.1-1.8.2 0-.3-.2-.8-.4-1.1 1.7-.1 3.5-.4 4.7-.8l.9 1.1c-.6.2-1.3.3-2.1.5v1.5h2.4v1.2h-2.4zm.6 2.7h-2.5v1.5h2.5V68zM248.2 62.6c-.1.3-.2.7-.2 1.1h.9c1.2 0 2 .5 2 2.1 0 1.3-.2 3.1-.6 4-.4.8-1 1-1.8 1-.4 0-.9-.1-1.3-.2l-.2-1.5c.4.1 1.1.2 1.3.2.4 0 .6-.1.8-.5.3-.6.5-2 .5-3 0-.9-.4-1-1.1-1h-.8c-.4 1.7-1.2 4.3-2.2 5.9l-1.4-.6c1.1-1.4 1.8-3.7 2.2-5.2-.4 0-.7.1-.9.1-.3.1-.9.1-1.2.2l-.1-1.5h1.2c.3 0 .9 0 1.4-.1.2-.8.3-1.6.2-2.3l1.6.2c-.2.4-.2.8-.3 1.1zm4.7.1-.5.2c.7 1 1.5 2.9 1.8 3.8l-1.4.6c-.3-1.2-1.1-3.2-1.8-4.1l1-.4c-.2-.4-.5-.9-.7-1.3l.9-.4c.1.5.5 1.2.7 1.6zm1.3-.5-.9.4c-.2-.5-.6-1.1-.9-1.5l.9-.4c.3.4.7 1.1.9 1.5zM256.6 65.2v6.1h-1.3v-9.9h4.2v3.8h-2.9zm0-2.9v.5h1.7v-.5h-1.7zm1.7 1.9v-.6h-1.7v.6h1.7zm3.6 2.3v4.4h-1.2v-.6c-1.3.1-2.6.2-3.6.3l-.1-1h.8v-3h-.6v-.9h5.4v.9h-.7zm-1.2 0H259v.4h1.7v-.4zm0 1.2H259v.5h1.7v-.5zm-1.7 1.7c.6 0 1.1-.1 1.7-.1v-.5H259v.6zm5.6.3c0 .6-.1 1-.5 1.2-.4.2-.9.3-1.7.3 0-.4-.2-1-.4-1.3h1.1c.2 0 .2-.1.2-.2v-4.5h-3v-3.8h4.3v8.3zm-3.1-7.4v.5h1.8v-.5h-1.8zm1.8 2v-.6h-1.8v.6h1.8zM268.2 62.6c-.3 1.2-.7 3.5-.4 4.9.1-.3.3-.9.5-1.3l.7.4c-.3.9-.6 2.1-.7 2.7 0 .2-.1.4-.1.5v.5l-1.2.1c-.2-.7-.6-2.2-.6-3.6 0-1.8.2-3.5.4-4.4.1-.3.1-.7.1-1l1.6.2c-.1.4-.2.8-.3 1zm5.7-.3v1.4c.6 0 1.2-.1 1.6-.2v1.4c-.4.1-1 .1-1.6.1v.5c0 2.6-.2 4.2-2.4 5.6l-1.3-1c.4-.2 1-.5 1.3-.9.8-.9 1-1.9 1-3.7v-.4h-1.2c-.5 0-1.2 0-1.7-.1v-1.4c.5.1 1.1.1 1.7.1h1.2v-1.5c0-.3-.1-.6-.1-.8h1.6c-.1.4-.1.6-.1.9zM279.8 61.9c.6 0 2.9 0 3.6-.1.5 0 .7-.1.8-.1l.7 1c-.3.2-.5.3-.8.5-.6.4-1.7 1.4-2.4 1.9.4-.1.7-.1 1-.1 1.9 0 3.3 1.2 3.3 2.8 0 1.7-1.3 3.1-4 3.1-1.5 0-2.7-.7-2.7-1.8 0-.9.8-1.7 2-1.7 1.4 0 2.2.8 2.3 1.9.6-.3.9-.8.9-1.5 0-1-1-1.7-2.3-1.7-1.7 0-2.8.9-4 2.2l-1-1c.8-.6 2.1-1.7 2.8-2.3.6-.5 1.8-1.4 2.3-1.9-.6 0-2.1.1-2.7.1-.3 0-.6.1-.9.1v-1.4h1.1zm2 7.7h.6c-.1-.7-.5-1.2-1.1-1.2-.4 0-.7.3-.7.5.1.5.5.7 1.2.7z"/><path class="st0" d="M224.4 68.7c.4.7 1.2 1 2.3 1.1 1.3.1 3.9 0 5.4-.1-.2.3-.4.9-.4 1.3-1.4.1-3.7.1-5 0-1.3-.1-2.2-.4-2.8-1.2-.5.4-1 .9-1.6 1.3l-.6-1.3c.5-.3 1-.6 1.5-1v-2.4h-1.4v-1.2h2.7v3.5zm-.6-4.9c-.3-.5-1.2-1.3-1.8-1.8l.9-.8c.7.5 1.5 1.2 1.9 1.7l-1 .9zm2.8 5.6h-1.2v-5.7h2.5c-.5-.2-1-.5-1.5-.6l.8-.7c.4.1.8.3 1.3.5l.9-.6h-3.9v-1h5l.3-.1.8.6c-.5.5-1.2 1-2 1.5.2.1.5.2.7.3h1.3v4.5c0 .5-.1.8-.5 1-.4.2-.8.2-1.5.2 0-.3-.2-.7-.3-1h.8c.1 0 .2-.1.2-.2v-.5H229v1.6h-1.2v-1.6h-1.3v1.8zm0-4.8v.6h1.3v-.6h-1.3zm1.3 2.2v-.6h-1.3v.6h1.3zm2.4-2.2H229v.6h1.3v-.6zm0 2.2v-.6H229v.6h1.3zM232.8 62.8h4.2v1h-4.2v-1zm3.8 8h-2.3v.4h-1.1v-3.8h3.4v3.4zm0-5.4h-3.3v-1h3.3v1zm-3.3.5h3.3v1h-3.3v-1zm3.3-3.6h-3.2v-1h3.2v1zm-2.3 6.2v1.3h1.2v-1.3h-1.2zm6.4-3.2v1.5h1.9v4.4h-1.3v-.5h-2.5v.5h-1.2v-4.4h1.8v-1.5H237v-1.2h2.4v-1.3c-.6.1-1.2.1-1.8.2 0-.3-.2-.8-.4-1.1 1.7-.1 3.5-.4 4.7-.8l.9 1.1c-.6.2-1.3.3-2.1.5v1.5h2.4v1.2h-2.4zm.6 2.7h-2.5v1.5h2.5V68zM248.2 62.6c-.1.3-.2.7-.2 1.1h.9c1.2 0 2 .5 2 2.1 0 1.3-.2 3.1-.6 4-.4.8-1 1-1.8 1-.4 0-.9-.1-1.3-.2l-.2-1.5c.4.1 1.1.2 1.3.2.4 0 .6-.1.8-.5.3-.6.5-2 .5-3 0-.9-.4-1-1.1-1h-.8c-.4 1.7-1.2 4.3-2.2 5.9l-1.4-.6c1.1-1.4 1.8-3.7 2.2-5.2-.4 0-.7.1-.9.1-.3.1-.9.1-1.2.2l-.1-1.5h1.2c.3 0 .9 0 1.4-.1.2-.8.3-1.6.2-2.3l1.6.2c-.2.4-.2.8-.3 1.1zm4.7.1-.5.2c.7 1 1.5 2.9 1.8 3.8l-1.4.6c-.3-1.2-1.1-3.2-1.8-4.1l1-.4c-.2-.4-.5-.9-.7-1.3l.9-.4c.1.5.5 1.2.7 1.6zm1.3-.5-.9.4c-.2-.5-.6-1.1-.9-1.5l.9-.4c.3.4.7 1.1.9 1.5zM256.6 65.2v6.1h-1.3v-9.9h4.2v3.8h-2.9zm0-2.9v.5h1.7v-.5h-1.7zm1.7 1.9v-.6h-1.7v.6h1.7zm3.6 2.3v4.4h-1.2v-.6c-1.3.1-2.6.2-3.6.3l-.1-1h.8v-3h-.6v-.9h5.4v.9h-.7zm-1.2 0H259v.4h1.7v-.4zm0 1.2H259v.5h1.7v-.5zm-1.7 1.7c.6 0 1.1-.1 1.7-.1v-.5H259v.6zm5.6.3c0 .6-.1 1-.5 1.2-.4.2-.9.3-1.7.3 0-.4-.2-1-.4-1.3h1.1c.2 0 .2-.1.2-.2v-4.5h-3v-3.8h4.3v8.3zm-3.1-7.4v.5h1.8v-.5h-1.8zm1.8 2v-.6h-1.8v.6h1.8zM268.2 62.6c-.3 1.2-.7 3.5-.4 4.9.1-.3.3-.9.5-1.3l.7.4c-.3.9-.6 2.1-.7 2.7 0 .2-.1.4-.1.5v.5l-1.2.1c-.2-.7-.6-2.2-.6-3.6 0-1.8.2-3.5.4-4.4.1-.3.1-.7.1-1l1.6.2c-.1.4-.2.8-.3 1zm5.7-.3v1.4c.6 0 1.2-.1 1.6-.2v1.4c-.4.1-1 .1-1.6.1v.5c0 2.6-.2 4.2-2.4 5.6l-1.3-1c.4-.2 1-.5 1.3-.9.8-.9 1-1.9 1-3.7v-.4h-1.2c-.5 0-1.2 0-1.7-.1v-1.4c.5.1 1.1.1 1.7.1h1.2v-1.5c0-.3-.1-.6-.1-.8h1.6c-.1.4-.1.6-.1.9zM279.8 61.9c.6 0 2.9 0 3.6-.1.5 0 .7-.1.8-.1l.7 1c-.3.2-.5.3-.8.5-.6.4-1.7 1.4-2.4 1.9.4-.1.7-.1 1-.1 1.9 0 3.3 1.2 3.3 2.8 0 1.7-1.3 3.1-4 3.1-1.5 0-2.7-.7-2.7-1.8 0-.9.8-1.7 2-1.7 1.4 0 2.2.8 2.3 1.9.6-.3.9-.8.9-1.5 0-1-1-1.7-2.3-1.7-1.7 0-2.8.9-4 2.2l-1-1c.8-.6 2.1-1.7 2.8-2.3.6-.5 1.8-1.4 2.3-1.9-.6 0-2.1.1-2.7.1-.3 0-.6.1-.9.1v-1.4h1.1zm2 7.7h.6c-.1-.7-.5-1.2-1.1-1.2-.4 0-.7.3-.7.5.1.5.5.7 1.2.7z"/></svg>