<svg version="1.1" id="_レイヤー_2" xmlns="http://www.w3.org/2000/svg" xmlns:xlink="http://www.w3.org/1999/xlink" x="0" y="0" viewBox="0 0 420 297" style="enable-background:new 0 0 420 297" xml:space="preserve"><style>.st0{fill:#85cee7}.st2{fill:#a5c3d9}.st3{fill:#73a9d1}.st4{fill:#d7d8eb}.st5{fill:#2c345c}.st6{fill:#f2aac2}.st7{fill:#272e52}.st8{fill:#304464}.st9{fill:#e8e6fb}.st10{fill:#495699}.st11{fill:#ed9bb6}.st12{fill:#f2f2f2}.st13{fill:#94cbf2}.st14{fill:#fff}.st16{fill:#b8c8f2}.st20{fill:#1f88ff}.st22,.st23{fill:none;stroke:#1f88ff;stroke-width:10;stroke-miterlimit:10}.st23{stroke-dasharray:5.0506,2.0202}</style><circle class="st0" cx="121.2" cy="30" r="30"/><defs><circle id="SVGID_1_" cx="121.2" cy="30" r="30"/></defs><clipPath id="SVGID_00000048500617938967691750000003337276153385718719_"><use xlink:href="#SVGID_1_" style="overflow:visible"/></clipPath><g style="clip-path:url(#SVGID_00000048500617938967691750000003337276153385718719_)"><path class="st2" d="M146.9 82.7v-38l27.3 8.1v43.6c0 .7-.6 1.2-1.2 1.2-.1 0-26.1-14.9-26.1-14.9z"/><path class="st3" d="M102.1 41.5c-1.4 4.4 2.3 24.6 2.8 25.6 1.1 2.2 18.5-6.4 19-9.3.9-5.4 0-19.9-.8-22.2-1.7-4.8-19.5 1-21 5.9z"/><path class="st3" d="m144.3 68-18.7 10.9c-.3.2-.7.2-1 0L105.7 68c-.7-.4-.7-1.4 0-1.8l18.7-10.9c.3-.2.7-.2 1 0l18.9 10.9c.7.4.7 1.4 0 1.8z"/><path class="st4" d="M130.1 41.4s-5.2-14.8-6.9-15.5c-1.6-.7-6.4-1.1-5.2 1.2 2.6 4.7 7.1 14.5 8.9 14.5 2.8 0 3.2-.2 3.2-.2z"/><path class="st5" d="M148.1 102.4c-2.9-2.5-1.4-.5-3.3-3.5-1 0-2.7-.1-2.9.6-.3.7-.4 1.7-.4 1.7-.2 2.5.6 3.8.6 3.8.4.2.7.2 1.1 0v-.7l3.3 2.4c.6.5 1.5 1 2.4 1.2 1 .3 2 .1 2.8-.5.3-.2.6-.5.6-.9-.1-.8-3.5-3.1-4.2-4.1z"/><path class="st6" d="M148.1 104.2c-2.3.9-5.8-2.8-5.7-4.7.4-2.4-.4-7.5-.4-9.1 0-6.2 4.2-1 4.2-1s-.1 2.1.1 8.1c0 4.6 4.2 5.7 1.8 6.7z"/><path class="st7" d="M142.2 75.6c.3 9.6-1 15.2-.8 15.7.4 1.2 5.1 1 5.5 0 .2-.4 1.3-16.1.6-18.6-.9-2.5-5.3 2.9-5.3 2.9z"/><path class="st7" d="M147.1 71.1c-1.3-2.5-22.7-17-22.7-17s-6 6.5-3.8 8.8c.5.5 19.7 13.7 21.9 15.4 1.6 1.2 3.2 3.7 3.9 2.3.7-1.3 2-7 .7-9.5z"/><path class="st5" d="M145.3 108.5c-2.9-2.5-3.4-2.6-5.3-5.6-1 0-2.4-.5-3.2.8l-.1 1.1c-.2 2.5.6 4.2.6 4.2.4.2.7.2 1.1 0v-.7l3.3 2.4c.9.9 2.7 1.5 3.9 1.4 0 0 1.9-.7 1.9-1.6.1-1.2-1.8-1.5-2.2-2z"/><path class="st6" d="M143.1 108.1c-2.3.9-6.1-1.9-5.9-3.9.2-1.4.6-2.4.6-3.5-.1-6.9-.4-7.9-.1-9 .4-1.2 3.4-.6 3.9.1.5.8-.2 3.6-.1 9.8.1 1.9.1 3.1.5 4.1.7 1.4 2 1.7 1.1 2.4z"/><path class="st5" d="M136.6 75.2s-.6 19-.1 20.1c.5 1.1 5.4.7 5.9-.2.5-1 .9-12.1 1.4-22.3l-7.2 2.4z"/><path class="st5" d="M143.7 72.9c-1.2-1.4-23.6-15.5-23.6-15.5l-10.6-3.6c-.9-.2-3.4 8.1-.6 10.5 2.3 2 25.5 13.4 27.9 14.1 2.5.8 8.1-4 6.9-5.5z"/><path class="st5" d="M109 64.3c.3.1 3.8 1.3 5.7.9 3.3-.6 10.8-8.3 10.8-8.3l-1.4-8.4S113.5 54 111 55.1c-5.9 2.7-2.3 9.1-2 9.2z"/><path class="st8" d="M109.5 14.3c.4-1.6 13-.6 13-.6s2.6 3.6 2.7 6.5c.1 2.9-2.1 5.5-2.9 6-1.2.9-5.6 3.6-5.6 3.6s-3.8-.5-5.6-1.2c-1.8-.7-3.9-5.5-3.9-6.4-.1-3.4 2.1-7 2.3-7.9z"/><path class="st9" d="M115.7 22.9c-2.6 1.3-5.2 4.4-5.2 4.4l3.2 29.5 7.2-5.9 2.7-17.1-.7-7.8s-4.6-4.4-7.2-3.1z"/><path class="st10" d="M125 33.5c-.1-2.8-.7-6.9-.7-6.9s-2.6-2.9-3.7-3.5c-.6-.2-1.4-.9-1.3-.3.2.6 1.9 2.1 2.2 2.9.8 2.1.6 6.4.5 8.1-.1 1.7-.7 7.1-2.1 11.5-3.9-7.7-5.8-16.1-6.4-17.6-.7-1.7 2.5-4.4 2.7-4.9l-1.4-.4c-2.3 1.6-6.8 7-7.7 9.3-.9 2.3.2 7.9 1.2 15.4 0 0-1.2 5.7-.6 7.6.6 1.9 4.6 3.5 6.1 3.3 11-1.3 9.7-6.6 9.7-6.6l.2-4.8c0-.1 1.4-10.3 1.3-13.1z"/><path class="st9" d="M118.8 23.4c.7-.1 2 .7 2.4 2.1.4 1.5-.1 3.4-.1 3.4l-2.4-.1-.3-.5c.1-.4.3-3.8.4-4.9zM113.5 27.2c-.2-.6 0-2.7.9-3.7 1-1.2 3.1-1.4 3.1-1.4l1 2.1-.3.5c-.6.1-3.7 2.1-4.7 2.5z"/><path class="st11" d="M121.2 18.6c-.4 2.9-2.7 2.8-1.6 5.8.3.7-.9 1.8-.9 1.8l-4-2.3c1.2-3.9.7-5.5.7-5.5l5.8.2z"/><path class="st6" d="M114.5 7.7c.4-.2 4.2-.3 4.7-.2 6.9 2.3 3.8 11.8 3.6 12.5-.4 1.1-1.3 2.5-2.1 3.1-3 2-7-1.7-7.2-2.3-.3-.6-5.7-10.3 1-13.1z"/><path class="st11" d="M113.7 20.5c-.7.2-1.5-.5-1.8-1.5-.3-1-.1-2 .6-2.2.7-.2 1.9 3.5 1.2 3.7z"/><path class="st8" d="M109.7 11.7c.8-2.8 3.3-4.7 7.2-5 3.1-.2 6.3 2.9 6.6 5.5 0 .4.7 3.9.3 4.1-.3.1-.3-1.1-1-2.8-.5-1.2-1.3-1.7-2.4-2.3-1.2 1.7-2 .7-3.7.8-1.8.1-2.5-.4-2.5-.4s-.1 1.1-.2 2.4c-.1 1.2-.1 5.2-.1 5.2s-4.4-2.2-4.5-5.3c.1-.5.1-1.7.3-2.2z"/><path class="st8" d="m113.6 10.4 8-1c-.1.8-.1 1.8-2.3 3.6-2.3 2-4.8 2.2-6.8 1 .1-.9 1.1-3.6 1.1-3.6z"/><path class="st9" d="M114.8 23.7s2 3.1 5.4 3.2l.3.5c-.4 1-2.3 2.6-2.3 2.6s-4.8-2.7-4.6-3.9c.1-1.1 1.2-2.4 1.2-2.4z"/><path class="st3" d="M109.5 16.8c0 1.5 1.2 3.4 2.7 4.3 1.5.9 2.7.3 2.7-1.1 0-1.5-1.2-3.4-2.7-4.3-1.5-.9-2.7-.4-2.7 1.1z"/><path class="st3" d="M112 18c.3 0 .5-.2.5-.5.1-.4.1-.9 0-1.6-.1-2.4-.3-6.4 3.7-8.4 2-1 4 .7 4.1.7.2.2.6.2.8-.1.2-.2.2-.6-.1-.8-.1-.1-2.6-2.1-5.3-.8-4.6 2.3-4.4 6.9-4.3 9.4 0 .6.1 1.1 0 1.4-.1.3.1.6.4.7h.2z"/><path class="st8" d="M111.9 16.7c1 .6 1.8 1.9 1.8 2.9 0 .2 0 .3-.1.4 1.8 1.1 4.1 1.9 5.6 2.2h.1v-.1c.2-.3.6-.7.9-.7.2 0 .3.1.3.2.2.4-.1.9-.5 1-.2.1-.3.1-.5.1h-.5c-1.5-.2-3.9-1.1-5.8-2.3-.3.2-.9.2-1.4-.1-1-.6-1.8-1.9-1.8-2.9s.8-1.3 1.9-.7z"/><path class="st2" d="M100.8 105.8v-38l27.3 8.1v43.6c0 .7-.6 1.2-1.2 1.2-.1 0-26.1-14.9-26.1-14.9z"/><path class="st2" d="m178.1 53.3-52.3 30.5-29.2-16.9v-2.2L149 36.5l29.1 14.7z"/><path class="st12" d="m178.1 51.2-52.3 30.4-29.2-16.9L149 34.3z"/><path class="st6" d="M140.7 46.8c1-.2 2.9-.4 2.9-.4l-3.8-2.5-1.3 1.5 2.2 1.4z"/><path class="st6" d="M140.7 47.5c-.3 1.8 2.9 5 3 4.8.4-.6.1-.9-.1-1.2-.5-.7-.4-1.6-.5-2.4 0-1-2-3-2.4-1.2z"/><path class="st6" d="M148 52.4c-.1.3-.6.2-.9.1-.4-.2-3-2-3.6-2.5-.3-.2-.4-1.1.2-1 0 0 4.4 3.1 4.3 3.4z"/><path class="st6" d="M143.2 46.1c-.7-.4-1.8-1.2-2.4-.6-.3.2-.4.7-.4 1 0 .5 1.5 3 1.5 3s2.6.9 2.8.7c.7-.8 1.1-2.3.7-2.6-.7-.6-1.5-1.1-2.2-1.5z"/><path class="st6" d="M144.2 49.1c.7.7 1.4 1.7 1.9 2 .5.3 2 1.8 2.5 1.3s-3.9-3.9-4.3-4c-.5-.2-.4.4-.1.7z"/><path class="st6" d="M144.6 48.4c.2.6 2.3 2.6 2.3 2.6s1.1.9 1.3.6c.2-.4-1-1.4-1-1.4s-.7-.6-1-.9c-.3-.3-.5-.8-.9-1-.5-.2-.7-.2-.7.1z"/><path class="st6" d="M145.4 47.6s-.3.4-.5.5c-.1.1 2.2 2.2 2.2 2.2s.9.6 1 .2c.1-.3-2.7-2.9-2.7-2.9z"/><path class="st9" d="m138.1 42.7-1.5 2.4 2.8 1.2 1.2-2.2z"/><path class="st4" d="M127.5 37.1c-1.5 0-2.6 3.1-.8 4.6 1.8 1.6 10.9 3.9 10.9 3.9l2-2.3s-10.6-6.2-12.1-6.2z"/><path class="st6" d="M133.4 55.6c-.2 0-3.5-.3-5.1-.2 0 0 .2 1 .4 1 .7 0 4.7 0 5-.3.2-.1.2-.6-.3-.5z"/><path class="st6" d="M132.6 56.9c0-.2 0-.4-.2-.5-.3-.1-2.3 0-2.7 0-1 0-2.2-.1-2.2-.1l-.2 1.3c.2 0 3-.3 3-.3s2.3 0 2.3-.4z"/><path class="st6" d="M131.5 57.7c0-.2.1-.4-.2-.5-.3-.1-.9 0-1.2-.1h-1.3c-1 0-.7.9 0 .9s2.7.1 2.7-.3z"/><path class="st6" d="M130.9 58c0-.2-.1-.4-.3-.5-.3 0-.8.2-1.2.2-.1 0-1 .2-1.3.3-.9.3.4.8.8.7.4-.1 2.1-.3 2-.7z"/><path class="st6" d="M130.2 57c.2-.2.1-.7-.1-.9-.2-.3-1.9-2.1-4.7-2.2-2.7-.2-3.7 1.7-3.3 2.2.4.5.6.8 1.6 1.1 2 .7 5 1.7 5.2 1.6.1-.3 1.1-1.6 1.3-1.8z"/><path class="st6" d="m120.3 52.9 3.1 1.5.7 2.9-4.6-2.1z"/><path class="st9" d="m111.4 46.5 11 7.1L121 56s-9.1-2.9-12.8-5.7c-2.5-1.7.7-5.5 3.2-3.8z"/><path class="st6" d="M123 54.3c.3-.3 6.1-1.2 6.5-.6.4.6-2.4.8-2.6 1.2-.3.4.5.9.1 1.1-.6.1-4.6-1.2-4-1.7z"/><path class="st9" d="M106.5 33.6c.3-3.8 3.2-1.6 4.9 1.1 1.5 2.4.4 15.3.4 15.3l-4.6-.8-.7-15.6z"/><path class="st13" d="m153.8 59.6-15 8.7-11-6.3v1.1l11 6.4 15-8.7z"/><path class="st13" d="M142.9 53.3 127.8 62l11 6.4 15.1-8.7-11-6.4z"/><path class="st14" d="m152.7 59.6-13.9 8.1-9.9-5.7 14-8.1z"/><path class="st13" d="m156.1 50.5-14 8.1-3.8 9.5.5.2 15-8.7 2.8-8.8z"/></g><circle class="st0" cx="297.7" cy="30" r="30"/><defs><circle id="SVGID_00000179632175623626789540000016676920338318801812_" cx="297.7" cy="30" r="30"/></defs><clipPath id="SVGID_00000173855974717157612220000002296197337267195291_"><use xlink:href="#SVGID_00000179632175623626789540000016676920338318801812_" style="overflow:visible"/></clipPath><g style="clip-path:url(#SVGID_00000173855974717157612220000002296197337267195291_)"><path class="st2" d="M272 82.7v-38l-27.3 8.1v43.6c0 .7.6 1.2 1.2 1.2.1 0 26.1-14.9 26.1-14.9z"/><path class="st3" d="M311.7 39.8c1.4 4.5-2.4 24.8-2.8 25.8-1.1 2.2-18.6-6.5-19.1-9.4-.9-5.4 0-20.1.8-22.4 1.7-4.8 19.6 1 21.1 6z"/><path class="st3" d="m269.2 66.5 18.9 11c.3.2.7.2 1 0l19-11c.7-.4.7-1.4 0-1.8l-18.9-11c-.3-.2-.7-.2-1 0l-19 11c-.7.4-.7 1.4 0 1.8z"/><path class="st5" d="M265.4 103.5c3.3-2.8 1.6-.6 3.7-3.9 1.2 0 3-.1 3.3.7.3.8.5 1.9.5 1.9.2 2.8-.7 4.3-.7 4.3-.4.3-.8.3-1.2 0v-.8l-3.7 2.7c-.7.6-1.7 1.1-2.7 1.4-1.1.3-2.3.1-3.2-.6-.4-.3-.7-.6-.6-1-.1-1 3.7-3.6 4.6-4.7z"/><path class="st6" d="M265.7 105.5c2.5 1 6.5-3.2 6.5-5.3-.4-2.7.5-8.4.5-10.3 0-6.9-4.7-1.1-4.7-1.1s.1 2.4-.1 9.1c-.2 5.3-5 6.6-2.2 7.6z"/><path class="st7" d="M272.1 74.4c-.3 9.7 1 15.3.8 15.8-.4 1.2-5.1 1-5.5 0-.2-.4-1.4-16.2-.6-18.7.8-2.5 5.3 2.9 5.3 2.9z"/><path class="st7" d="M267.1 69.9c1.4-2.5 22.8-17.1 22.8-17.1s6 6.6 3.9 8.8c-.5.5-19.8 13.8-22.1 15.5-1.6 1.2-3.2 3.7-3.9 2.3-.7-1.3-2-7-.7-9.5z"/><path class="st5" d="M268.4 110.4c3.3-2.8 3.8-2.9 6-6.3 1.2 0 2.7-.5 3.6 1l.2 1.2c.2 2.8-.6 4.8-.6 4.8-.4.3-.8.3-1.2 0v-.8l-3.7 2.7c-1.1 1-3 1.7-4.4 1.6 0 0-2.2-.8-2.2-1.8-.2-1.5 1.9-1.9 2.3-2.4z"/><path class="st6" d="M270.9 110c2.5 1 6.9-2.1 6.6-4.3-.2-1.6-.7-2.7-.7-3.9.1-7.8.5-8.8.1-10.2-.4-1.3-3.8-.7-4.4.2-.5.9.3 4 .1 11-.1 2.2-.1 3.5-.6 4.6-.6 1.4-2 1.7-1.1 2.6z"/><path class="st5" d="M277.6 74s.6 19.1.1 20.2c-.5 1.1-5.5.8-6-.2s-.9-12.2-1.4-22.4l7.3 2.4z"/><path class="st5" d="M270.5 71.7c1.2-1.4 23.7-15.6 23.7-15.6l10.7-3.7c.9-.2 3.4 8.1.6 10.6-2.4 2-25.7 13.5-28.1 14.2-2.4.8-8.1-4-6.9-5.5z"/><path class="st5" d="M305.5 63.1c-.3.1-3.9 1.3-5.7 1-3.3-.6-10.9-8.4-10.9-8.4l1.4-8.5s10.7 5.6 13.2 6.6c5.9 2.6 2.3 9.2 2 9.3z"/><path class="st4" d="M283.5 39.7s5.3-14.9 6.9-15.6c1.6-.7 6.4-1.1 5.2 1.2-2.6 4.8-7.1 14.6-9 14.6-2.6 0-3.1-.2-3.1-.2z"/><path class="st8" d="M304.3 12.4c-.4-1.6-13.1-.6-13.1-.6s-2.6 3.6-2.7 6.5c-.1 2.9 2.1 5.5 2.9 6.1 1.2.9 5.6 3.7 5.6 3.7s3.8-.5 5.6-1.2c1.8-.7 3.9-5.6 3.9-6.5.1-3.4-2-7.1-2.2-8z"/><path class="st9" d="M297.9 20.3c2.6 1.3 5.3 5.2 5.3 5.2L300 55.2l-7.3-5.9-2.7-17.2.6-7.1s4.7-6 7.3-4.7z"/><path class="st10" d="M288.7 31.7c.1-2.8.5-6.6.5-6.6s2.7-3 3.8-3.5c.6-.2 2.6-.6 2.4 0-.2.6-2.9 1.5-3.2 2.3-.8 2.1-.6 6.4-.5 8.1.1 1.7.7 7.1 2.1 11.5 3.9-7.8 5.8-16.2 6.4-17.7.7-1.7-2.5-4.4-2.8-4.9l1.4-.4c2.4 1.6 6.9 7 7.8 9.4.9 2.4-.2 8-1.2 15.5 0 0 1.2 5.8.6 7.7-.6 1.9-4.6 3.5-6.1 3.4-11.1-1.3-9.7-6.7-9.7-6.7L290 45c-.1-.2-1.4-10.5-1.3-13.3z"/><path class="st9" d="M294.9 21.6c-.7-.1-2.1.7-2.4 2.1-.4 1.5.1 3.4.1 3.4l2.4-.1.3-.5c-.1-.5-.3-3.8-.4-4.9zM300.3 25.3c.2-.6 0-2.8-.9-3.7-1-1.2-3.1-1.4-3.1-1.4l-1 2.2.3.5c.5.1 3.6 2.1 4.7 2.4z"/><path class="st11" d="M292.5 16.8c.4 2.9 2.7 2.8 1.6 5.9-.3.7.9 1.8.9 1.8l4-2.3c-1.2-3.9-.7-5.6-.7-5.6l-5.8.2z"/><path class="st6" d="M299.2 5.7c-.4-.2-4.2-.3-4.7-.2-7 2.3-3.8 11.9-3.6 12.6.4 1.1 1.3 2.5 2.2 3.1 3.1 2 7-1.7 7.2-2.3.2-.6 5.7-10.4-1.1-13.2z"/><path class="st11" d="M300 18.7c.7.2 1.5-.5 1.8-1.5.3-1 .1-2-.6-2.2-.6-.3-1.9 3.5-1.2 3.7z"/><path class="st8" d="M304.1 9.8c-.8-2.8-3.4-4.8-7.3-5-3.1-.2-6.4 2.9-6.7 5.6 0 .5-.7 3.9-.3 4.2.3.1.2-1.1.9-2.9.5-1.2 1.4-1.8 2.2-2.8 1.2 1.7 2.3 1.1 4 1.2 1.8.1 2.5-.4 2.5-.4s.1 1.1.2 2.4c.1 1.2.1 5.2.1 5.2s4.4-2.2 4.5-5.3c.1-.5.1-1.7-.1-2.2z"/><path class="st8" d="m300.2 8.5-8.1-1c.1.8.1 1.8 2.3 3.6 2.3 2 4.9 2.2 6.9 1-.2-.9-1.1-3.6-1.1-3.6z"/><path class="st9" d="M298.9 21.9s-2 3.1-5.4 3.3l-.3.5c.4 1.1 2.3 2.6 2.3 2.6s4.8-2.7 4.6-3.9c-.1-1.2-1.2-2.5-1.2-2.5z"/><path class="st3" d="M304.3 14.9c0 1.5-1.2 3.4-2.7 4.3-1.5.9-2.7.4-2.7-1.1s1.2-3.4 2.7-4.3c1.5-.9 2.7-.4 2.7 1.1z"/><path class="st3" d="M301.7 16.1c-.3 0-.5-.2-.6-.5-.1-.4-.1-.9 0-1.6.1-2.4.3-6.5-3.7-8.4-2-1-4.1.7-4.1.7-.2.2-.6.2-.8-.1-.2-.2-.2-.6.1-.8.1-.1 2.7-2.1 5.3-.8 4.6 2.3 4.4 7 4.3 9.5 0 .6-.1 1.1 0 1.4.1.3-.1.6-.4.7 0-.1 0-.1-.1-.1z"/><path class="st8" d="M301.9 14.8c-1 .6-1.8 1.9-1.8 2.9 0 .2 0 .3.1.4-1.9 1.1-4.2 2-5.6 2.2h-.1v-.1c-.2-.3-.6-.7-1-.7-.2 0-.3.1-.3.2-.2.4.1.9.5 1 .2.1.3.1.5.1h.5c1.5-.2 3.9-1.1 5.8-2.3.3.2.9.2 1.5-.1 1-.6 1.8-1.9 1.8-2.9-.1-1-.9-1.3-1.9-.7z"/><path class="st2" d="M318.1 105.8v-38l-27.3 8.1v43.6c0 .7.6 1.2 1.2 1.2.1 0 26.1-14.9 26.1-14.9z"/><path class="st2" d="m240.8 53.3 52.3 30.5 29.2-16.9v-2.2L270 36.5l-29.2 14.7z"/><path class="st12" d="m240.8 51.2 52.3 30.4 29.2-16.9L270 34.3z"/><path class="st14" d="m292 53.6-11.2-6.5-15.9 9.1 11.2 6.5z"/><path class="st16" d="m279.5 59.5-8.7-5.1-.3.2 8.7 5zM280.7 58.8l-8.7-5-.3.2 8.7 5zM282 58.1l-8.7-5-.3.2 8.7 5zM283.2 57.4l-8.7-5-.3.2 8.7 5zM284.3 56.7l-8.7-5.1-.3.2 8.7 5zM285.5 56l-8.7-5-.3.1 8.7 5.1zM282.6 51.7l-.3.2-3.3-2 .3-.1z"/><path class="st6" d="M275.8 48.6c0 .7-.3 2.6-.6 3.1s-.2.9-.4 1.4c-.4.2-.7-.6-.7-1.2 0-2.7-.8-2.3-.7-3.1.2-1.3 1.5-2.1 1.9-2.1.4 0 .5 1 .5 1.9z"/><path class="st6" d="M273.9 45.5c1-.6 1.3.1 1.6.7.3.6.3 1.1.1 1.6-.2.5-2.6 3.3-2.8 3.3-.8-.2-3.9.8-2.9-1.2.4-.7 1.1-1.8 1.7-2.4 1-1 1.3-1.4 2.3-2z"/><path class="st6" d="m277.8 42.1 1.7 1.7-4.1 3-2.1-.9c1-1.2 4.5-3.8 4.5-3.8zM269.4 53c.1-.2.5-1.3 1.1-2.1.4-.6.9-1.1 1-1.2.2-.3-.6-.8-1.2-.3-.3.3-1.4 2.7-1.4 3.2-.1.6.2.7.5.4z"/><path class="st6" d="M269.4 52c.2-.1.7-1.2 1.4-1.9.5-.5 1.1-.9 1.2-1 .2-.3-.5-.9-1.1-.5-.3.3-1.7 2.4-1.8 2.9-.1.5 0 .8.3.5z"/><path class="st6" d="M269.9 53.1c.3-.4 1.6-2.4 1.8-2.8.2-.4-.2-.7-.7-.3-.3.3-2.2 2.8-2.3 3.2-.1.4.5.9 1.2-.1z"/><path class="st6" d="M269.6 53.8c.7-.6 3.5-2.9 3.7-3.1.3-.3-.8-.6-2.1.3-.8.6-2.8 2.5-2.8 3 .2.4.6.4 1.2-.2z"/><path class="st9" d="m277.4 42.1 2 2.1-2.5 1.7-1.6-1.9z"/><path class="st4" d="M286.6 34.8c1.5-.3 3.2 2.5 1.7 4.4-1.4 1.9-10 6-10 6L276 43c.1 0 9.1-7.9 10.6-8.2zM307.1 32.3c-.3-3.8-2.6-5.6-4.3-2.9-1.6 2.5-2.5 14.3-.4 15.5 2 1.1 4.6-.9 4.6-.9l.1-11.7z"/><path class="st6" d="M302 16c0 .2.3 2.3.8 5 0 0-1.1-.4-1.1-.5-.1-.6-.5-4.3-.3-4.7.1-.2.6-.2.6.2z"/><path class="st6" d="M300.8 18.1c.1-.1.4-.2.5 0 .2.3.3.8.4 1 .1.1.3.9.4 1.2.2.9-.6.8-.8.2-.2-.6-.8-2.3-.5-2.4z"/><path class="st6" d="M300.2 18.9c.1-.1.4-.2.5 0 .2.3.3.8.4 1 .1.1.3.9.4 1.2.2.9-.6.8-.8.2-.2-.5-.8-2.2-.5-2.4z"/><path class="st6" d="M299.7 19.6c.2 0 .4-.1.5.1.1.3.1.8.3 1.1.1.1.2.9.2 1.2.1.9-.8-.1-.9-.5 0-.3-.4-1.8-.1-1.9z"/><path class="st6" d="M301.3 18.6c.2-.1.6.1.8.3.1.1.6 1.6.9 2.8.2.7.3 1 .1 2-.4 2.5-2 3.2-2.3 2.8-.4-.4-.8-1-.9-1.9-.2-2-.2-3.4-.2-3.9 0-.7 1.3-2 1.6-2.1z"/><path class="st6" d="m303.2 28.3-.9-3.1-1.9.2.5 3.3z"/><path class="st9" d="M306.7 43.2c-.1-2.9-3.3-16.1-3.3-16.1l-2.7.9s-1.4 11.8.7 16c1.3 2.7 5.4 2.1 5.3-.8z"/><path class="st6" d="M302.4 25.6c.3-.3 2.1-5.4 1.6-5.8-.5-.5-1.2 2-1.5 2.2-.4.2-.7 4.1-.1 3.6z"/></g><circle class="st0" cx="297.7" cy="115.5" r="30"/><defs><circle id="SVGID_00000049920850001628546290000009865709601343504015_" cx="297.7" cy="115.5" r="30"/></defs><clipPath id="SVGID_00000018947296724677631860000008019480714820937119_"><use xlink:href="#SVGID_00000049920850001628546290000009865709601343504015_" style="overflow:visible"/></clipPath><g style="clip-path:url(#SVGID_00000018947296724677631860000008019480714820937119_)"><path class="st2" d="M272 168.3v-38l-27.3 8.1V182c0 .7.6 1.2 1.2 1.2.1 0 26.1-14.9 26.1-14.9z"/><path class="st3" d="M311.7 125.3c1.4 4.5-2.4 24.8-2.8 25.8-1.1 2.2-18.6-6.5-19.1-9.4-.9-5.4 0-20.1.8-22.4 1.7-4.7 19.6 1.1 21.1 6z"/><path class="st3" d="m269.2 152 18.9 11c.3.2.7.2 1 0l19-11c.7-.4.7-1.4 0-1.8l-18.9-11c-.3-.2-.7-.2-1 0l-19 11c-.7.5-.7 1.4 0 1.8z"/><path class="st5" d="M265.4 189c3.3-2.8 1.6-.6 3.7-3.9 1.2 0 3-.1 3.3.7.3.8.5 1.9.5 1.9.2 2.8-.7 4.3-.7 4.3-.4.3-.8.3-1.2 0v-.8l-3.7 2.7c-.7.6-1.7 1.1-2.7 1.4-1.1.3-2.3.1-3.2-.6-.4-.3-.7-.6-.6-1-.1-.9 3.7-3.5 4.6-4.7z"/><path class="st6" d="M265.7 191.1c2.5 1 6.5-3.2 6.5-5.3-.4-2.7.5-8.4.5-10.3 0-6.9-4.7-1.1-4.7-1.1s.1 2.4-.1 9.1c-.2 5.2-5 6.5-2.2 7.6z"/><path class="st7" d="M272.1 160c-.3 9.7 1 15.3.8 15.8-.4 1.2-5.1 1-5.5 0-.2-.4-1.4-16.2-.6-18.7.8-2.5 5.3 2.9 5.3 2.9z"/><path class="st7" d="M267.1 155.4c1.4-2.5 22.8-17.1 22.8-17.1s6 6.6 3.9 8.8c-.5.5-19.8 13.8-22.1 15.5-1.6 1.2-3.2 3.7-3.9 2.3-.7-1.2-2-6.9-.7-9.5z"/><path class="st5" d="M268.4 195.9c3.3-2.8 3.8-2.9 6-6.3 1.2 0 2.7-.5 3.6 1l.2 1.2c.2 2.8-.6 4.8-.6 4.8-.4.3-.8.3-1.2 0v-.8l-3.7 2.7c-1.1 1-3 1.7-4.4 1.6 0 0-2.2-.8-2.2-1.8-.2-1.5 1.9-1.8 2.3-2.4z"/><path class="st6" d="M270.9 195.5c2.5 1 6.9-2.1 6.6-4.3-.2-1.6-.7-2.7-.7-3.9.1-7.8.5-8.8.1-10.2-.4-1.3-3.8-.7-4.4.2-.5.9.3 4 .1 11-.1 2.2-.1 3.5-.6 4.6-.6 1.5-2 1.8-1.1 2.6z"/><path class="st5" d="M277.6 159.6s.6 19.1.1 20.2c-.5 1.1-5.5.8-6-.2s-.9-12.2-1.4-22.4l7.3 2.4z"/><path class="st5" d="M270.5 157.3c1.2-1.4 23.7-15.6 23.7-15.6l10.7-3.7c.9-.2 3.4 8.1.6 10.6-2.4 2-25.7 13.5-28.1 14.2-2.4.7-8.1-4.1-6.9-5.5z"/><path class="st5" d="M305.5 148.6c-.3.1-3.9 1.3-5.7 1-3.3-.6-10.9-8.4-10.9-8.4l1.4-8.5s10.7 5.6 13.2 6.6c5.9 2.7 2.3 9.2 2 9.3z"/><path class="st4" d="M283.5 125.2s5.3-14.9 6.9-15.6c1.6-.7 6.4-1.1 5.2 1.2-2.6 4.8-7.1 14.6-9 14.6-2.6.1-3.1-.2-3.1-.2z"/><path class="st8" d="M304.3 97.9c-.4-1.6-13.1-.6-13.1-.6s-2.6 3.6-2.7 6.5c-.1 2.9 2.1 5.5 2.9 6.1 1.2.9 5.6 3.7 5.6 3.7s3.8-.5 5.6-1.2c1.8-.7 3.9-5.6 3.9-6.5.1-3.4-2-7.1-2.2-8z"/><path class="st9" d="M297.9 105.8c2.6 1.3 5.3 5.2 5.3 5.2l-3.2 29.7-7.3-5.9-2.7-17.2.6-7.1s4.7-6 7.3-4.7z"/><path class="st10" d="M288.7 117.3c.1-2.8.5-6.6.5-6.6s2.7-3 3.8-3.5c.6-.2 2.6-.6 2.4 0-.2.6-2.9 1.5-3.2 2.3-.8 2.1-.6 6.4-.5 8.1.1 1.7.7 7.1 2.1 11.5 3.9-7.8 5.8-16.2 6.4-17.7.7-1.7-2.5-4.4-2.8-4.9l1.4-.4c2.4 1.6 6.9 7 7.8 9.4.9 2.4-.2 8-1.2 15.5 0 0 1.2 5.8.6 7.7-.6 1.9-4.6 3.5-6.1 3.4-11.1-1.3-9.7-6.7-9.7-6.7l-.2-4.8c-.1-.2-1.4-10.5-1.3-13.3z"/><path class="st9" d="M294.9 107.1c-.7-.1-2.1.7-2.4 2.1-.4 1.5.1 3.4.1 3.4l2.4-.1.3-.5c-.1-.4-.3-3.8-.4-4.9zM300.3 110.9c.2-.6 0-2.8-.9-3.7-1-1.2-3.1-1.4-3.1-1.4l-1 2.2.3.5c.5.1 3.6 2 4.7 2.4z"/><path class="st11" d="M292.5 102.3c.4 2.9 2.7 2.8 1.6 5.9-.3.7.9 1.8.9 1.8l4-2.3c-1.2-3.9-.7-5.6-.7-5.6l-5.8.2z"/><path class="st6" d="M299.2 91.3c-.4-.2-4.2-.3-4.7-.2-7 2.3-3.8 11.9-3.6 12.6.4 1.1 1.3 2.5 2.2 3.1 3.1 2 7-1.7 7.2-2.3.2-.7 5.7-10.4-1.1-13.2z"/><path class="st11" d="M300 104.2c.7.2 1.5-.5 1.8-1.5.3-1 .1-2-.6-2.2-.6-.2-1.9 3.5-1.2 3.7z"/><path class="st8" d="M304.1 95.3c-.8-2.8-3.4-4.8-7.3-5-3.1-.2-6.4 2.9-6.7 5.6 0 .5-.7 3.9-.3 4.2.3.1.2-1.1.9-2.9.5-1.2 1.4-1.8 2.2-2.8 1.2 1.7 2.3 1.1 4 1.2 1.8.1 2.5-.4 2.5-.4s.1 1.1.2 2.4c.1 1.2.1 5.2.1 5.2s4.4-2.2 4.5-5.3c.1-.4.1-1.6-.1-2.2z"/><path class="st8" d="m300.2 94-8.1-1c.1.8.1 1.8 2.3 3.6 2.3 2 4.9 2.2 6.9 1-.2-.8-1.1-3.6-1.1-3.6z"/><path class="st9" d="M298.9 107.5s-2 3.1-5.4 3.3l-.3.5c.4 1.1 2.3 2.6 2.3 2.6s4.8-2.7 4.6-3.9c-.1-1.3-1.2-2.5-1.2-2.5z"/><path class="st3" d="M304.3 100.5c0 1.5-1.2 3.4-2.7 4.3-1.5.9-2.7.4-2.7-1.1s1.2-3.4 2.7-4.3c1.5-.9 2.7-.4 2.7 1.1z"/><path class="st3" d="M301.7 101.7c-.3 0-.5-.2-.6-.5-.1-.4-.1-.9 0-1.6.1-2.4.3-6.5-3.7-8.4-2-1-4.1.7-4.1.7-.2.2-.6.2-.8-.1-.2-.2-.2-.6.1-.8.1-.1 2.7-2.1 5.3-.8 4.6 2.3 4.4 7 4.3 9.5 0 .6-.1 1.1 0 1.4.1.3-.1.6-.4.7 0-.1 0-.1-.1-.1z"/><path class="st8" d="M301.9 100.3c-1 .6-1.8 1.9-1.8 2.9 0 .2 0 .3.1.4-1.9 1.1-4.2 2-5.6 2.2h-.1v-.1c-.2-.3-.6-.7-1-.7-.2 0-.3.1-.3.2-.2.4.1.9.5 1 .2.1.3.1.5.1h.5c1.5-.2 3.9-1.1 5.8-2.3.3.2.9.2 1.5-.1 1-.6 1.8-1.9 1.8-2.9-.1-.9-.9-1.3-1.9-.7z"/><path class="st2" d="M318.1 191.4v-38l-27.3 8.1V205c0 .7.6 1.2 1.2 1.2.1.1 26.1-14.8 26.1-14.8z"/><path class="st2" d="m240.8 138.9 52.3 30.4 29.2-16.9v-2.1L270 122l-29.2 14.7z"/><path class="st12" d="m240.8 136.7 52.3 30.4 29.2-16.8-52.3-30.4z"/><path class="st14" d="m292 139.1-11.2-6.5-15.9 9.2 11.2 6.5z"/><path class="st16" d="m279.5 145-8.7-5-.3.2 8.7 5zM280.7 144.4l-8.7-5.1-.3.2 8.7 5zM282 143.7l-8.7-5.1-.3.2 8.7 5zM283.2 143l-8.7-5-.3.1 8.7 5.1zM284.3 142.2l-8.7-5-.3.2 8.7 5zM285.5 141.5l-8.7-5-.3.2 8.7 5zM282.6 137.3l-.3.1-3.3-1.9.3-.2z"/><path class="st6" d="M275.8 134.2c0 .7-.3 2.6-.6 3.1s-.2.9-.4 1.4c-.4.2-.7-.6-.7-1.2 0-2.7-.8-2.3-.7-3.1.2-1.3 1.5-2.1 1.9-2.1.4-.1.5.9.5 1.9z"/><path class="st6" d="M273.9 131c1-.6 1.3.1 1.6.7.3.6.3 1.1.1 1.6-.2.5-2.6 3.3-2.8 3.3-.8-.2-3.9.8-2.9-1.2.4-.7 1.1-1.8 1.7-2.4 1-1 1.3-1.4 2.3-2z"/><path class="st6" d="m277.8 127.7 1.7 1.7-4.1 3-2.1-.9c1-1.3 4.5-3.8 4.5-3.8zM269.4 138.5c.1-.2.5-1.3 1.1-2.1.4-.6.9-1.1 1-1.2.2-.3-.6-.8-1.2-.3-.3.3-1.4 2.7-1.4 3.2-.1.6.2.8.5.4z"/><path class="st6" d="M269.4 137.5c.2-.1.7-1.2 1.4-1.9.5-.5 1.1-.9 1.2-1 .2-.3-.5-.9-1.1-.5-.3.3-1.7 2.4-1.8 2.9-.1.5 0 .8.3.5z"/><path class="st6" d="M269.9 138.6c.3-.4 1.6-2.4 1.8-2.8.2-.4-.2-.7-.7-.3-.3.3-2.2 2.8-2.3 3.2-.1.5.5.9 1.2-.1z"/><path class="st6" d="M269.6 139.3c.7-.6 3.5-2.9 3.7-3.1.3-.3-.8-.6-2.1.3-.8.6-2.8 2.5-2.8 3 .2.4.6.5 1.2-.2z"/><path class="st9" d="m277.4 127.6 2 2.1-2.5 1.8-1.6-2z"/><path class="st4" d="M286.6 120.3c1.5-.3 3.2 2.5 1.7 4.4-1.4 1.9-10 6-10 6l-2.3-2.2c.1 0 9.1-7.8 10.6-8.2zM307.1 117.8c-.3-3.8-2.6-5.6-4.3-2.9-1.6 2.5-2.5 14.3-.4 15.5 2.1 1.1 4.6-.8 4.6-.8l.1-11.8z"/><path class="st6" d="M302 101.6c0 .2.3 2.3.8 5 0 0-1.1-.4-1.1-.5-.1-.6-.5-4.3-.3-4.7.1-.2.6-.2.6.2z"/><path class="st6" d="M300.8 103.7c.1-.1.4-.2.5 0 .2.3.3.8.4 1 .1.1.3.9.4 1.2.2.9-.6.8-.8.2-.2-.6-.8-2.3-.5-2.4z"/><path class="st6" d="M300.2 104.5c.1-.1.4-.2.5 0 .2.3.3.8.4 1 .1.1.3.9.4 1.2.2.9-.6.8-.8.2-.2-.6-.8-2.3-.5-2.4z"/><path class="st6" d="M299.7 105.1c.2 0 .4-.1.5.1.1.3.1.8.3 1.1.1.1.2.9.2 1.2.1.9-.8-.1-.9-.5 0-.3-.4-1.8-.1-1.9z"/><path class="st6" d="M301.3 104.1c.2-.1.6.1.8.3.1.1.6 1.6.9 2.8.2.7.3 1 .1 2-.4 2.5-2 3.2-2.3 2.8-.4-.4-.8-1-.9-1.9-.2-2-.2-3.4-.2-3.9 0-.7 1.3-2 1.6-2.1z"/><path class="st6" d="m303.2 113.9-.9-3.1-1.9.1.5 3.3z"/><path class="st9" d="M306.7 128.7c-.1-2.9-3.3-16.1-3.3-16.1l-2.7.9s-1.4 11.8.7 16c1.3 2.7 5.4 2.1 5.3-.8z"/><path class="st6" d="M302.4 111.2c.3-.3 2.1-5.4 1.6-5.8-.5-.5-1.2 2-1.5 2.2-.4.2-.7 4.1-.1 3.6z"/></g><circle class="st0" cx="297.7" cy="190.3" r="30"/><defs><circle id="SVGID_00000159443161303687377450000013728290247201668247_" cx="297.7" cy="190.3" r="30"/></defs><clipPath id="SVGID_00000111903262666490516130000006587013369409900727_"><use xlink:href="#SVGID_00000159443161303687377450000013728290247201668247_" style="overflow:visible"/></clipPath><g style="clip-path:url(#SVGID_00000111903262666490516130000006587013369409900727_)"><path class="st2" d="M272 243.1v-38l-27.3 8.1v43.6c0 .7.6 1.2 1.2 1.2.1 0 26.1-14.9 26.1-14.9z"/><path class="st3" d="M311.7 200.1c1.4 4.5-2.4 24.8-2.8 25.8-1.1 2.2-18.6-6.5-19.1-9.4-.9-5.4 0-20.1.8-22.4 1.7-4.7 19.6 1.1 21.1 6z"/><path class="st3" d="m269.2 226.8 18.9 11c.3.2.7.2 1 0l19-11c.7-.4.7-1.4 0-1.8l-18.9-11c-.3-.2-.7-.2-1 0l-19 11c-.7.5-.7 1.4 0 1.8z"/><path class="st5" d="M265.4 263.8c3.3-2.8 1.6-.6 3.7-3.9 1.2 0 3-.1 3.3.7.3.8.5 1.9.5 1.9.2 2.8-.7 4.3-.7 4.3-.4.3-.8.3-1.2 0v-.8l-3.7 2.7c-.7.6-1.7 1.1-2.7 1.4-1.1.3-2.3.1-3.2-.6-.4-.3-.7-.6-.6-1-.1-.9 3.7-3.5 4.6-4.7z"/><path class="st6" d="M265.7 265.9c2.5 1 6.5-3.2 6.5-5.3-.4-2.7.5-8.4.5-10.3 0-6.9-4.7-1.1-4.7-1.1s.1 2.4-.1 9.1c-.2 5.2-5 6.5-2.2 7.6z"/><path class="st7" d="M272.1 234.8c-.3 9.7 1 15.3.8 15.8-.4 1.2-5.1 1-5.5 0-.2-.4-1.4-16.2-.6-18.7.8-2.5 5.3 2.9 5.3 2.9z"/><path class="st7" d="M267.1 230.2c1.4-2.5 22.8-17.1 22.8-17.1s6 6.6 3.9 8.8c-.5.5-19.8 13.8-22.1 15.5-1.6 1.2-3.2 3.7-3.9 2.3-.7-1.2-2-7-.7-9.5z"/><path class="st5" d="M268.4 270.7c3.3-2.8 3.8-2.9 6-6.3 1.2 0 2.7-.5 3.6 1l.2 1.2c.2 2.8-.6 4.8-.6 4.8-.4.3-.8.3-1.2 0v-.8l-3.7 2.7c-1.1 1-3 1.7-4.4 1.6 0 0-2.2-.8-2.2-1.8-.2-1.5 1.9-1.8 2.3-2.4z"/><path class="st6" d="M270.9 270.3c2.5 1 6.9-2.1 6.6-4.3-.2-1.6-.7-2.7-.7-3.9.1-7.8.5-8.8.1-10.2-.4-1.3-3.8-.7-4.4.2-.5.9.3 4 .1 11-.1 2.2-.1 3.5-.6 4.6-.6 1.5-2 1.8-1.1 2.6z"/><path class="st5" d="M277.6 234.4s.6 19.1.1 20.2c-.5 1.1-5.5.8-6-.2s-.9-12.2-1.4-22.4l7.3 2.4z"/><path class="st5" d="M270.5 232.1c1.2-1.4 23.7-15.6 23.7-15.6l10.7-3.7c.9-.2 3.4 8.1.6 10.6-2.4 2-25.7 13.5-28.1 14.2-2.4.7-8.1-4.1-6.9-5.5z"/><path class="st5" d="M305.5 223.4c-.3.1-3.9 1.3-5.7 1-3.3-.6-10.9-8.4-10.9-8.4l1.4-8.5s10.7 5.6 13.2 6.6c5.9 2.7 2.3 9.2 2 9.3z"/><path class="st4" d="M283.5 200s5.3-14.9 6.9-15.6c1.6-.7 6.4-1.1 5.2 1.2-2.6 4.8-7.1 14.6-9 14.6-2.6.1-3.1-.2-3.1-.2z"/><path class="st8" d="M304.3 172.7c-.4-1.6-13.1-.6-13.1-.6s-2.6 3.6-2.7 6.5c-.1 2.9 2.1 5.5 2.9 6.1 1.2.9 5.6 3.7 5.6 3.7s3.8-.5 5.6-1.2c1.8-.7 3.9-5.6 3.9-6.5.1-3.4-2-7.1-2.2-8z"/><path class="st9" d="M297.9 180.6c2.6 1.3 5.3 5.2 5.3 5.2l-3.2 29.7-7.3-5.9-2.7-17.2.6-7.1s4.7-6 7.3-4.7z"/><path class="st10" d="M288.7 192c.1-2.8.5-6.6.5-6.6s2.7-3 3.8-3.5c.6-.2 2.6-.6 2.4 0-.2.6-2.9 1.5-3.2 2.3-.8 2.1-.6 6.4-.5 8.1.1 1.7.7 7.1 2.1 11.5 3.9-7.8 5.8-16.2 6.4-17.7.7-1.7-2.5-4.4-2.8-4.9l1.4-.4c2.4 1.6 6.9 7 7.8 9.4.9 2.4-.2 8-1.2 15.5 0 0 1.2 5.8.6 7.7-.6 1.9-4.6 3.5-6.1 3.4-11.1-1.3-9.7-6.7-9.7-6.7l-.2-4.8c-.1-.1-1.4-10.4-1.3-13.3z"/><path class="st9" d="M294.9 181.9c-.7-.1-2.1.7-2.4 2.1-.4 1.5.1 3.4.1 3.4l2.4-.1.3-.5c-.1-.4-.3-3.8-.4-4.9zM300.3 185.7c.2-.6 0-2.8-.9-3.7-1-1.2-3.1-1.4-3.1-1.4l-1 2.2.3.5c.5.1 3.6 2 4.7 2.4z"/><path class="st11" d="M292.5 177.1c.4 2.9 2.7 2.8 1.6 5.9-.3.7.9 1.8.9 1.8l4-2.3c-1.2-3.9-.7-5.6-.7-5.6l-5.8.2z"/><path class="st6" d="M299.2 166.1c-.4-.2-4.2-.3-4.7-.2-7 2.3-3.8 11.9-3.6 12.6.4 1.1 1.3 2.5 2.2 3.1 3.1 2 7-1.7 7.2-2.3.2-.7 5.7-10.4-1.1-13.2z"/><path class="st11" d="M300 179c.7.2 1.5-.5 1.8-1.5.3-1 .1-2-.6-2.2-.6-.2-1.9 3.5-1.2 3.7z"/><path class="st8" d="M304.1 170.1c-.8-2.8-3.4-4.8-7.3-5-3.1-.2-6.4 2.9-6.7 5.6 0 .5-.7 3.9-.3 4.2.3.1.2-1.1.9-2.9.5-1.2 1.4-1.8 2.2-2.8 1.2 1.7 2.3 1.1 4 1.2 1.8.1 2.5-.4 2.5-.4s.1 1.1.2 2.4c.1 1.2.1 5.2.1 5.2s4.4-2.2 4.5-5.3c.1-.4.1-1.6-.1-2.2z"/><path class="st8" d="m300.2 168.8-8.1-1c.1.8.1 1.8 2.3 3.6 2.3 2 4.9 2.2 6.9 1-.2-.8-1.1-3.6-1.1-3.6z"/><path class="st9" d="M298.9 182.3s-2 3.1-5.4 3.3l-.3.5c.4 1.1 2.3 2.6 2.3 2.6s4.8-2.7 4.6-3.9c-.1-1.3-1.2-2.5-1.2-2.5z"/><path class="st3" d="M304.3 175.3c0 1.5-1.2 3.4-2.7 4.3-1.5.9-2.7.4-2.7-1.1s1.2-3.4 2.7-4.3c1.5-.9 2.7-.4 2.7 1.1z"/><path class="st3" d="M301.7 176.4c-.3 0-.5-.2-.6-.5-.1-.4-.1-.9 0-1.6.1-2.4.3-6.5-3.7-8.4-2-1-4.1.7-4.1.7-.2.2-.6.2-.8-.1-.2-.2-.2-.6.1-.8.1-.1 2.7-2.1 5.3-.8 4.6 2.3 4.4 7 4.3 9.5 0 .6-.1 1.1 0 1.4.1.3-.1.6-.4.7 0-.1 0-.1-.1-.1z"/><path class="st8" d="M301.9 175.1c-1 .6-1.8 1.9-1.8 2.9 0 .2 0 .3.1.4-1.9 1.1-4.2 2-5.6 2.2h-.1v-.1c-.2-.3-.6-.7-1-.7-.2 0-.3.1-.3.2-.2.4.1.9.5 1 .2.1.3.1.5.1h.5c1.5-.2 3.9-1.1 5.8-2.3.3.2.9.2 1.5-.1 1-.6 1.8-1.9 1.8-2.9-.1-.9-.9-1.3-1.9-.7z"/><path class="st2" d="M318.1 266.2v-38l-27.3 8.1v43.6c0 .7.6 1.2 1.2 1.2.1-.1 26.1-14.9 26.1-14.9z"/><path class="st2" d="m240.8 213.7 52.3 30.4 29.2-16.9v-2.1L270 196.8l-29.2 14.7z"/><path class="st12" d="m240.8 211.5 52.3 30.4 29.2-16.8-52.3-30.4z"/><path class="st14" d="m292 213.9-11.2-6.5-15.9 9.2 11.2 6.5z"/><path class="st16" d="m279.5 219.8-8.7-5-.3.2 8.7 5zM280.7 219.2l-8.7-5.1-.3.2 8.7 5zM282 218.4l-8.7-5-.3.2 8.7 5zM283.2 217.8l-8.7-5-.3.1 8.7 5.1zM284.3 217l-8.7-5-.3.1 8.7 5.1zM285.5 216.3l-8.7-5-.3.2 8.7 5zM282.6 212.1l-.3.1-3.3-1.9.3-.2z"/><path class="st6" d="M275.8 209c0 .7-.3 2.6-.6 3.1s-.2.9-.4 1.4c-.4.2-.7-.6-.7-1.2 0-2.7-.8-2.3-.7-3.1.2-1.3 1.5-2.1 1.9-2.1.4-.1.5.9.5 1.9z"/><path class="st6" d="M273.9 205.8c1-.6 1.3.1 1.6.7.3.6.3 1.1.1 1.6-.2.5-2.6 3.3-2.8 3.3-.8-.2-3.9.8-2.9-1.2.4-.7 1.1-1.8 1.7-2.4 1-1 1.3-1.4 2.3-2z"/><path class="st6" d="m277.8 202.5 1.7 1.7-4.1 3-2.1-.9c1-1.3 4.5-3.8 4.5-3.8zM269.4 213.3c.1-.2.5-1.3 1.1-2.1.4-.6.9-1.1 1-1.2.2-.3-.6-.8-1.2-.3-.3.3-1.4 2.7-1.4 3.2-.1.6.2.8.5.4z"/><path class="st6" d="M269.4 212.3c.2-.1.7-1.2 1.4-1.9.5-.5 1.1-.9 1.2-1 .2-.3-.5-.9-1.1-.5-.3.3-1.7 2.4-1.8 2.9-.1.5 0 .8.3.5z"/><path class="st6" d="M269.9 213.4c.3-.4 1.6-2.4 1.8-2.8.2-.4-.2-.7-.7-.3-.3.3-2.2 2.8-2.3 3.2-.1.5.5.9 1.2-.1z"/><path class="st6" d="M269.6 214.1c.7-.6 3.5-2.9 3.7-3.1.3-.3-.8-.6-2.1.3-.8.6-2.8 2.5-2.8 3 .2.4.6.5 1.2-.2z"/><path class="st9" d="m277.4 202.4 2 2.1-2.5 1.7-1.6-1.9z"/><path class="st4" d="M286.6 195.1c1.5-.3 3.2 2.5 1.7 4.4-1.4 1.9-10 6-10 6l-2.3-2.2c.1 0 9.1-7.8 10.6-8.2zM307.1 192.6c-.3-3.8-2.6-5.6-4.3-2.9-1.6 2.5-2.5 14.3-.4 15.5 2.1 1.1 4.6-.8 4.6-.8l.1-11.8z"/><path class="st6" d="M302 176.4c0 .2.3 2.3.8 5 0 0-1.1-.4-1.1-.5-.1-.6-.5-4.3-.3-4.7.1-.2.6-.2.6.2z"/><path class="st6" d="M300.8 178.4c.1-.1.4-.2.5 0 .2.3.3.8.4 1 .1.1.3.9.4 1.2.2.9-.6.8-.8.2-.2-.5-.8-2.2-.5-2.4z"/><path class="st6" d="M300.2 179.3c.1-.1.4-.2.5 0 .2.3.3.8.4 1 .1.1.3.9.4 1.2.2.9-.6.8-.8.2-.2-.6-.8-2.3-.5-2.4z"/><path class="st6" d="M299.7 179.9c.2 0 .4-.1.5.1.1.3.1.8.3 1.1.1.1.2.9.2 1.2.1.9-.8-.1-.9-.5 0-.3-.4-1.8-.1-1.9z"/><path class="st6" d="M301.3 178.9c.2-.1.6.1.8.3.1.1.6 1.6.9 2.8.2.7.3 1 .1 2-.4 2.5-2 3.2-2.3 2.8-.4-.4-.8-1-.9-1.9-.2-2-.2-3.4-.2-3.9 0-.7 1.3-2 1.6-2.1z"/><path class="st6" d="m303.2 188.7-.9-3.1-1.9.1.5 3.3z"/><path class="st9" d="M306.7 203.5c-.1-2.9-3.3-16.1-3.3-16.1l-2.7.9s-1.4 11.8.7 16c1.3 2.7 5.4 2.1 5.3-.8z"/><path class="st6" d="M302.4 186c.3-.3 2.1-5.4 1.6-5.8-.5-.5-1.2 2-1.5 2.2-.4.2-.7 4.1-.1 3.6z"/></g><circle class="st0" cx="297.7" cy="265.1" r="30"/><defs><circle id="SVGID_00000041256471410083786130000011180723045937885071_" cx="297.7" cy="265.1" r="30"/></defs><clipPath id="SVGID_00000171718018939133534300000008955805328292259500_"><use xlink:href="#SVGID_00000041256471410083786130000011180723045937885071_" style="overflow:visible"/></clipPath><g style="clip-path:url(#SVGID_00000171718018939133534300000008955805328292259500_)"><path class="st2" d="M272 317.9v-38l-27.3 8.1v43.6c0 .7.6 1.2 1.2 1.2.1-.1 26.1-14.9 26.1-14.9z"/><path class="st3" d="M311.7 274.9c1.4 4.5-2.4 24.8-2.8 25.8-1.1 2.2-18.6-6.5-19.1-9.4-.9-5.4 0-20.1.8-22.4 1.7-4.7 19.6 1 21.1 6z"/><path class="st3" d="m269.2 301.6 18.9 11c.3.2.7.2 1 0l19-11c.7-.4.7-1.4 0-1.8l-18.9-11c-.3-.2-.7-.2-1 0l-19 11c-.7.4-.7 1.4 0 1.8z"/><path class="st5" d="M265.4 338.6c3.3-2.8 1.6-.6 3.7-3.9 1.2 0 3-.1 3.3.7.3.8.5 1.9.5 1.9.2 2.8-.7 4.3-.7 4.3-.4.3-.8.3-1.2 0v-.8l-3.7 2.7c-.7.6-1.7 1.1-2.7 1.4-1.1.3-2.3.1-3.2-.6-.4-.3-.7-.6-.6-1-.1-.9 3.7-3.5 4.6-4.7z"/><path class="st6" d="M265.7 340.7c2.5 1 6.5-3.2 6.5-5.3-.4-2.7.5-8.4.5-10.3 0-6.9-4.7-1.1-4.7-1.1s.1 2.4-.1 9.1c-.2 5.2-5 6.5-2.2 7.6z"/><path class="st7" d="M272.1 309.6c-.3 9.7 1 15.3.8 15.8-.4 1.2-5.1 1-5.5 0-.2-.4-1.4-16.2-.6-18.7.8-2.5 5.3 2.9 5.3 2.9z"/><path class="st7" d="M267.1 305c1.4-2.5 22.8-17.1 22.8-17.1s6 6.6 3.9 8.8c-.5.5-19.8 13.8-22.1 15.5-1.6 1.2-3.2 3.7-3.9 2.3-.7-1.3-2-7-.7-9.5z"/><path class="st5" d="M268.4 345.5c3.3-2.8 3.8-2.9 6-6.3 1.2 0 2.7-.5 3.6 1l.2 1.2c.2 2.8-.6 4.8-.6 4.8-.4.3-.8.3-1.2 0v-.8l-3.7 2.7c-1.1 1-3 1.7-4.4 1.6 0 0-2.2-.8-2.2-1.8-.2-1.5 1.9-1.8 2.3-2.4z"/><path class="st6" d="M270.9 345.1c2.5 1 6.9-2.1 6.6-4.3-.2-1.6-.7-2.7-.7-3.9.1-7.8.5-8.8.1-10.2-.4-1.3-3.8-.7-4.4.2-.5.9.3 4 .1 11-.1 2.2-.1 3.5-.6 4.6-.6 1.5-2 1.8-1.1 2.6z"/><path class="st5" d="M277.6 309.2s.6 19.1.1 20.2c-.5 1.1-5.5.8-6-.2s-.9-12.2-1.4-22.4l7.3 2.4z"/><path class="st5" d="M270.5 306.9c1.2-1.4 23.7-15.6 23.7-15.6l10.7-3.7c.9-.2 3.4 8.1.6 10.6-2.4 2-25.7 13.5-28.1 14.2-2.4.7-8.1-4.1-6.9-5.5z"/><path class="st5" d="M305.5 298.2c-.3.1-3.9 1.3-5.7 1-3.3-.6-10.9-8.4-10.9-8.4l1.4-8.5s10.7 5.6 13.2 6.6c5.9 2.7 2.3 9.2 2 9.3z"/><path class="st4" d="M283.5 274.8s5.3-14.9 6.9-15.6c1.6-.7 6.4-1.1 5.2 1.2-2.6 4.8-7.1 14.6-9 14.6-2.6.1-3.1-.2-3.1-.2z"/><path class="st8" d="M304.3 247.5c-.4-1.6-13.1-.6-13.1-.6s-2.6 3.6-2.7 6.5c-.1 2.9 2.1 5.5 2.9 6.1 1.2.9 5.6 3.7 5.6 3.7s3.8-.5 5.6-1.2c1.8-.7 3.9-5.6 3.9-6.5.1-3.4-2-7.1-2.2-8z"/><path class="st9" d="M297.9 255.4c2.6 1.3 5.3 5.2 5.3 5.2l-3.2 29.7-7.3-5.9-2.7-17.2.6-7.1s4.7-6 7.3-4.7z"/><path class="st10" d="M288.7 266.8c.1-2.8.5-6.6.5-6.6s2.7-3 3.8-3.5c.6-.2 2.6-.6 2.4 0-.2.6-2.9 1.5-3.2 2.3-.8 2.1-.6 6.4-.5 8.1.1 1.7.7 7.1 2.1 11.5 3.9-7.8 5.8-16.2 6.4-17.7.7-1.7-2.5-4.4-2.8-4.9l1.4-.4c2.4 1.6 6.9 7 7.8 9.4.9 2.4-.2 8-1.2 15.5 0 0 1.2 5.8.6 7.7-.6 1.9-4.6 3.5-6.1 3.4-11.1-1.3-9.7-6.7-9.7-6.7l-.2-4.8c-.1-.1-1.4-10.4-1.3-13.3z"/><path class="st9" d="M294.9 256.7c-.7-.1-2.1.7-2.4 2.1-.4 1.5.1 3.4.1 3.4l2.4-.1.3-.5c-.1-.4-.3-3.8-.4-4.9zM300.3 260.5c.2-.6 0-2.8-.9-3.7-1-1.2-3.1-1.4-3.1-1.4l-1 2.2.3.5c.5.1 3.6 2 4.7 2.4z"/><path class="st11" d="M292.5 251.9c.4 2.9 2.7 2.8 1.6 5.9-.3.7.9 1.8.9 1.8l4-2.3c-1.2-3.9-.7-5.6-.7-5.6l-5.8.2z"/><path class="st6" d="M299.2 240.9c-.4-.2-4.2-.3-4.7-.2-7 2.3-3.8 11.9-3.6 12.6.4 1.1 1.3 2.5 2.2 3.1 3.1 2 7-1.7 7.2-2.3.2-.7 5.7-10.4-1.1-13.2z"/><path class="st11" d="M300 253.8c.7.2 1.5-.5 1.8-1.5.3-1 .1-2-.6-2.2-.6-.2-1.9 3.5-1.2 3.7z"/><path class="st8" d="M304.1 244.9c-.8-2.8-3.4-4.8-7.3-5-3.1-.2-6.4 2.9-6.7 5.6 0 .5-.7 3.9-.3 4.2.3.1.2-1.1.9-2.9.5-1.2 1.4-1.8 2.2-2.8 1.2 1.7 2.3 1.1 4 1.2 1.8.1 2.5-.4 2.5-.4s.1 1.1.2 2.4c.1 1.2.1 5.2.1 5.2s4.4-2.2 4.5-5.3c.1-.4.1-1.6-.1-2.2z"/><path class="st8" d="m300.2 243.6-8.1-1c.1.8.1 1.8 2.3 3.6 2.3 2 4.9 2.2 6.9 1-.2-.8-1.1-3.6-1.1-3.6z"/><path class="st9" d="M298.9 257s-2 3.1-5.4 3.3l-.3.5c.4 1.1 2.3 2.6 2.3 2.6s4.8-2.7 4.6-3.9c-.1-1.2-1.2-2.5-1.2-2.5z"/><path class="st3" d="M304.3 250.1c0 1.5-1.2 3.4-2.7 4.3-1.5.9-2.7.4-2.7-1.1s1.2-3.4 2.7-4.3c1.5-.9 2.7-.4 2.7 1.1z"/><path class="st3" d="M301.7 251.2c-.3 0-.5-.2-.6-.5-.1-.4-.1-.9 0-1.6.1-2.4.3-6.5-3.7-8.4-2-1-4.1.7-4.1.7-.2.2-.6.2-.8-.1-.2-.2-.2-.6.1-.8.1-.1 2.7-2.1 5.3-.8 4.6 2.3 4.4 7 4.3 9.5 0 .6-.1 1.1 0 1.4.1.3-.1.6-.4.7 0-.1 0-.1-.1-.1z"/><path class="st8" d="M301.9 249.9c-1 .6-1.8 1.9-1.8 2.9 0 .2 0 .3.1.4-1.9 1.1-4.2 2-5.6 2.2h-.1v-.1c-.2-.3-.6-.7-1-.7-.2 0-.3.1-.3.2-.2.4.1.9.5 1 .2.1.3.1.5.1h.5c1.5-.2 3.9-1.1 5.8-2.3.3.2.9.2 1.5-.1 1-.6 1.8-1.9 1.8-2.9-.1-.9-.9-1.3-1.9-.7z"/><path class="st2" d="M318.1 341v-38l-27.3 8.1v43.6c0 .7.6 1.2 1.2 1.2.1-.1 26.1-14.9 26.1-14.9z"/><path class="st2" d="m240.8 288.5 52.3 30.4 29.2-16.9v-2.1L270 271.6l-29.2 14.7z"/><path class="st12" d="m240.8 286.3 52.3 30.4 29.2-16.8-52.3-30.5z"/><path class="st14" d="m292 288.7-11.2-6.5-15.9 9.2 11.2 6.4z"/><path class="st16" d="m279.5 294.6-8.7-5-.3.1 8.7 5.1zM280.7 293.9l-8.7-5-.3.2 8.7 5zM282 293.2l-8.7-5-.3.2 8.7 5zM283.2 292.6l-8.7-5-.3.1 8.7 5.1zM284.3 291.8l-8.7-5-.3.1 8.7 5.1zM285.5 291.1l-8.7-5-.3.2 8.7 5zM282.6 286.8l-.3.2-3.3-1.9.3-.2z"/><path class="st6" d="M275.8 283.7c0 .7-.3 2.6-.6 3.1s-.2.9-.4 1.4c-.4.2-.7-.6-.7-1.2 0-2.7-.8-2.3-.7-3.1.2-1.3 1.5-2.1 1.9-2.1.4 0 .5 1 .5 1.9z"/><path class="st6" d="M273.9 280.6c1-.6 1.3.1 1.6.7.3.6.3 1.1.1 1.6-.2.5-2.6 3.3-2.8 3.3-.8-.2-3.9.8-2.9-1.2.4-.7 1.1-1.8 1.7-2.4 1-1 1.3-1.4 2.3-2z"/><path class="st6" d="m277.8 277.3 1.7 1.7-4.1 3-2.1-.9c1-1.3 4.5-3.8 4.5-3.8zM269.4 288.1c.1-.2.5-1.3 1.1-2.1.4-.6.9-1.1 1-1.2.2-.3-.6-.8-1.2-.3-.3.3-1.4 2.7-1.4 3.2-.1.6.2.8.5.4z"/><path class="st6" d="M269.4 287.1c.2-.1.7-1.2 1.4-1.9.5-.5 1.1-.9 1.2-1 .2-.3-.5-.9-1.1-.5-.3.3-1.7 2.4-1.8 2.9-.1.5 0 .8.3.5z"/><path class="st6" d="M269.9 288.2c.3-.4 1.6-2.4 1.8-2.8.2-.4-.2-.7-.7-.3-.3.3-2.2 2.8-2.3 3.2-.1.5.5.9 1.2-.1z"/><path class="st6" d="M269.6 288.9c.7-.6 3.5-2.9 3.7-3.1.3-.3-.8-.6-2.1.3-.8.6-2.8 2.5-2.8 3 .2.4.6.5 1.2-.2z"/><path class="st9" d="m277.4 277.2 2 2.1-2.5 1.7-1.6-1.9z"/><path class="st4" d="M286.6 269.9c1.5-.3 3.2 2.5 1.7 4.4-1.4 1.9-10 6-10 6l-2.3-2.2c.1 0 9.1-7.8 10.6-8.2zM307.1 267.4c-.3-3.8-2.6-5.6-4.3-2.9-1.6 2.5-2.5 14.3-.4 15.5 2.1 1.1 4.6-.8 4.6-.8l.1-11.8z"/><path class="st6" d="M302 251.2c0 .2.3 2.3.8 5 0 0-1.1-.4-1.1-.5-.1-.6-.5-4.3-.3-4.7.1-.2.6-.2.6.2z"/><path class="st6" d="M300.8 253.2c.1-.1.4-.2.5 0 .2.3.3.8.4 1 .1.1.3.9.4 1.2.2.9-.6.8-.8.2-.2-.5-.8-2.2-.5-2.4z"/><path class="st6" d="M300.2 254.1c.1-.1.4-.2.5 0 .2.3.3.8.4 1 .1.1.3.9.4 1.2.2.9-.6.8-.8.2-.2-.6-.8-2.3-.5-2.4z"/><path class="st6" d="M299.7 254.7c.2 0 .4-.1.5.1.1.3.1.8.3 1.1.1.1.2.9.2 1.2.1.9-.8-.1-.9-.5 0-.3-.4-1.8-.1-1.9z"/><path class="st6" d="M301.3 253.7c.2-.1.6.1.8.3.1.1.6 1.6.9 2.8.2.7.3 1 .1 2-.4 2.5-2 3.2-2.3 2.8-.4-.4-.8-1-.9-1.9-.2-2-.2-3.4-.2-3.9 0-.7 1.3-2 1.6-2.1z"/><path class="st6" d="m303.2 263.5-.9-3.2-1.9.2.5 3.3z"/><path class="st9" d="M306.7 278.3c-.1-2.9-3.3-16.1-3.3-16.1l-2.7.9s-1.4 11.8.7 16c1.3 2.7 5.4 2.1 5.3-.8z"/><path class="st6" d="M302.4 260.8c.3-.3 2.1-5.4 1.6-5.8-.5-.5-1.2 2-1.5 2.2-.4.2-.7 4.1-.1 3.6z"/></g><path class="st20" d="M328.8 214.2c0 4.4-3.6 8-8 8h-48c-4.4 0-8-3.6-8-8s3.6-8 8-8h48c4.4 0 8 3.6 8 8z"/><path class="st14" d="M281.3 210.8v1.1H276c-.3.7-.7 1.4-1.2 2v4.8h-1.2v-3.5c-.3.3-.6.5-.9.7-.1-.3-.4-.9-.6-1.1 1-.7 1.9-1.7 2.5-2.9h-2.2v-1.1h2.7c.2-.5.3-.9.4-1.4l1.2.3c-.1.4-.2.7-.4 1.1h5zm-2.4 6.6h2.4v1.1h-6v-1.1h2.4v-2.3h-2V214h2v-1.7h1.2v1.7h2v1.1h-2v2.3zM289.5 217.5c.5 0 .6-.2.7-1.4.3.2.8.4 1.2.5-.2 1.6-.5 2.1-1.8 2.1h-1.9c-1.5 0-1.9-.4-1.9-1.7v-1.2l-3.3.3-.1-1.1 3.4-.3v-1l-2.1.3c0-.3-.2-.8-.4-1 1.9-.2 4-.6 5.3-1.2l.9 1c-.7.3-1.6.5-2.5.7v1.1l4-.4.1 1.1-4.2.4v1.3c0 .4.1.5.7.5h1.9zm-5.7-4.9h-1.2v-2.3h3.6v-.9h1.3v.9h3.7v2.3h-1.3v-1.2h-6.1v1.2zM295.8 214.7c-.4.1-.7.2-1.1.3v2.4c0 .6-.1.9-.4 1-.3.2-.8.2-1.5.2 0-.3-.2-.8-.3-1.1h.9c.1 0 .2 0 .2-.2v-2.1l-1.1.3-.3-1.1c.4-.1.9-.2 1.4-.3v-1.7h-1.2v-1.1h1.2v-1.9h1.2v1.9h1v1.1h-1v1.5l1-.2v1zm5.6 2.6v1.1h-6.1v-1.1h6.1zm-.6-1H296V210h4.8v6.3zm-1.2-5.1h-2.5v1.5h2.5v-1.5zm0 2.5h-2.5v1.5h2.5v-1.5zM304.1 212.5c-.2-.6-.7-1.6-1.2-2.3l1.1-.4c.5.7 1 1.6 1.2 2.2l-1.1.5zm3.4.4h3.2v5.9h-1.3v-.4h-6.5v-1.2h6.5v-1h-5.9V215h5.9v-.9h-6.2v-1.2h3v-3.5h1.3v3.5zm3.3-2.8c-.4.9-.9 1.8-1.4 2.5l-1-.4c.4-.7.8-1.7 1.1-2.5l1.3.4zM317.7 213.5c-.4.3-.8.5-1.2.8h3.6v4.4h-1.2v-.3h-3.4v.3h-1.2v-3.3l-1.5.6c-.1-.3-.5-.7-.7-1 1.3-.4 2.6-1 3.7-1.7h-3.4v-1h3.2v-.9h-2.3v-1h2.3v-1.1h1.2v1.1h2.2v.5c.4-.4.7-.8 1-1.3l1 .5c-.6.8-1.2 1.5-2 2.2h2.3v1h-3.6zm1.2 1.8h-3.4v.6h3.4v-.6zm0 2.2v-.7h-3.4v.7h3.4zm-2.2-5.1h.5c.4-.3.7-.6 1.1-.9h-1.6v.9z"/><path class="st20" d="M323.8 139.4c0 4.4-3.6 8-8 8h-38c-4.4 0-8-3.6-8-8s3.6-8 8-8h38c4.4 0 8 3.6 8 8z"/><path class="st14" d="M282.7 138.5c.7 1.9 1.9 3.5 3.7 4.3-.3.2-.7.8-.9 1.1-1.8-.8-3-2.3-3.7-4.2-.5 1.7-1.6 3.2-3.7 4.2-.2-.3-.5-.8-.9-1 2.3-1 3.2-2.7 3.6-4.4h-3.4v-1.2h3.6c.1-.9.1-1.8.1-2.7h1.3c0 .8 0 1.7-.1 2.7h3.9v1.2h-3.5zM290.7 135.5c-.3.8-.6 1.9-.9 2.7.6.8.7 1.4.7 2 0 .6-.1 1.1-.4 1.3-.2.1-.4.2-.6.2h-.6c0-.3-.1-.7-.3-1h.4c.1 0 .2 0 .3-.1.1-.1.1-.3.1-.6 0-.5-.1-1.1-.7-1.7.2-.6.4-1.5.6-2.2h-.8v7.8h-1V135H289.9l.8.5zm5.4 2.4c-.2 1.6-.7 2.9-1.4 3.9.5.5 1.1.9 1.8 1.1-.3.2-.6.7-.8 1-.7-.3-1.3-.7-1.8-1.2-.5.5-1.1.9-1.8 1.2-.1-.3-.4-.7-.7-1 .7-.3 1.3-.6 1.8-1.2-.4-.6-.8-1.3-1.1-2.1-.1 1.4-.5 3.1-1.3 4.2-.2-.2-.6-.6-.9-.7 1.1-1.5 1.2-3.6 1.2-5.1v-2.9h5v1.1h-4v1.5h3.1l.9.2zm-3.1.9c.2.8.6 1.5 1 2.1.4-.6.7-1.3.8-2.1H293zM302.8 136.3c-.1 2.1-.3 3.8-.8 5.1.6 1.2 1.5 1.5 2.6 1.5h2c-.1.3-.3.8-.3 1h-1.7c-1.3 0-2.3-.3-3-1.5-.4.7-.8 1.2-1.4 1.6-.1-.3-.4-.6-.6-.8.6-.4 1.2-1.1 1.5-1.9-.1-.4-.2-.8-.4-1.3-.1.3-.2.6-.4.9-.1-.2-.5-.5-.8-.7l.3-.6-.5.2v3c0 .5-.1.8-.4 1-.3.2-.7.2-1.3.2 0-.3-.1-.7-.3-1h.8c.1 0 .2 0 .2-.2v-2.6l-.9.3-.3-1.1c.3-.1.7-.2 1.2-.4v-1.5h-1v-1.1h1v-1.8h1v1.8h.7v1.1h-.7v1.1l.6-.2.1.5c.3-1.2.5-2.8.6-4.3l1 .1c0 .5-.1 1-.1 1.5H302.4l.4.1zm-1.6.9c0 .3-.1.5-.1.8.1.7.2 1.3.3 1.9.2-.8.3-1.6.4-2.6h-.6zm2.8.8c0 1.3-.1 3.1-.9 4.2-.1-.2-.5-.5-.7-.6.7-1 .7-2.5.7-3.6v-2.8h2.4v5.9H305.8V139.7c.2.2.5.3.7.4 0 .5-.1 1-.1 1.3 0 .2-.1.4-.2.5-.1.1-.3.1-.5.1h-.4c-.2 0-.4-.1-.6-.2-.1-.2-.2-.4-.2-1.1v-4.4h-.5v1.7zM307.1 143.4c.5-.4 1-1.2 1.2-1.9l1.1.3c-.3.8-.8 1.7-1.3 2.2l-1-.6zm8.2-2.4h-6.9v-3.5h2.8v-2.9h1.2v.9h3.6v1.1h-3.6v.9h2.9v3.5zm-1.2-2.3h-4.6v1.3h4.6v-1.3zm-2.9 3c.1.7.3 1.5.3 2.1l-1.2.2c0-.5-.1-1.4-.2-2.1l1.1-.2zm2-.1c.3.6.6 1.5.8 2l-1.1.3c-.1-.5-.4-1.4-.7-2l1-.3zm2-.2c.5.6 1.1 1.5 1.3 2.1l-1.1.4c-.2-.6-.7-1.5-1.2-2.1l1-.4z"/><path class="st20" d="M323.8 289c0 4.4-3.6 8-8 8h-38c-4.4 0-8-3.6-8-8s3.6-8 8-8h38c4.4 0 8 3.6 8 8z"/><path class="st14" d="M278.8 288.9c-.3-.3-1-.8-1.6-1l.6-.9c.6.2 1.3.6 1.7.9l-.7 1zm-1.5 3.9c.4-.8 1-2.1 1.5-3.2l.9.7c-.4 1.1-.9 2.2-1.3 3.2l-1.1-.7zm1.9-6.6c-.3-.3-1-.8-1.6-1.1l.7-.9c.6.2 1.3.6 1.7 1l-.8 1zm6.5 3.9c0 .4-.1.7-.1 1h.8v1h-.9c-.1.5-.2.7-.3.9-.2.3-.5.4-.8.4-.3.1-.8.1-1.3 0 0-.3-.1-.7-.3-1h1c.2 0 .3 0 .4-.2 0-.1.1-.2.1-.3h-3l-.1.5-1.1-.1c.1-.7.3-1.5.4-2.4h-.9v-1.1h1c.1-.5.1-1.1.2-1.6-.1.2-.2.3-.4.4-.2-.2-.7-.5-1-.7.7-.7 1.3-1.8 1.6-3l1.2.2-.3.9h4.3v1.1h-4.8c-.1.2-.2.4-.4.7h4.7v.5c0 .5 0 1-.1 1.5h.8v1.1h-.7zm-4 0c0 .4-.1.7-.1 1h.9c0-.3.1-.7.1-1h-.9zm.1-1h.9c0-.3 0-.6.1-.9h-.9l-.1.9zm2.8 2.1c0-.3.1-.6.1-1h-1c0 .4-.1.7-.1 1h1zm.1-2.1v-.9h-.9c0 .3-.1.6-.1.9h1zM294.6 288.9c.6.6 1.4 1 2.1 1.3-.3.2-.7.7-.9 1-.4-.2-.8-.5-1.2-.8v3h-1.2v-4.2c-.5-.5-.9-1-1.2-1.6-.7 2.8-2.1 4.7-3.9 5.7-.2-.3-.7-.7-.9-.9 1.1-.6 2-1.4 2.7-2.6-.4-.4-1-.8-1.5-1.1-.2.2-.3.4-.5.6-.2-.2-.7-.6-1-.8 1.1-1 1.9-2.7 2.3-4.5l1.2.2c-.1.4-.2.8-.4 1.2H291.8l.8.3c0 .3-.1.6-.1.9l.4-.1c.2.3.4.6.6 1v-3.3h1.2v4.7zm-4.9-2.1-.6 1.2c.5.3 1 .6 1.4 1 .3-.6.5-1.3.6-2.1h-1.4zM302.8 285.9c-.1 2.1-.3 3.8-.8 5.1.6 1.2 1.5 1.5 2.6 1.5h2c-.1.3-.3.8-.3 1h-1.7c-1.3 0-2.3-.3-3-1.5-.4.7-.8 1.2-1.4 1.6-.1-.3-.4-.6-.6-.8.6-.4 1.2-1.1 1.5-1.9-.1-.4-.2-.8-.4-1.3-.1.3-.2.6-.4.9-.1-.2-.5-.5-.8-.7l.3-.6-.5.2v3c0 .5-.1.8-.4 1-.3.2-.7.2-1.3.2 0-.3-.1-.7-.3-1h.8c.1 0 .2 0 .2-.2v-2.6l-.9.3-.3-1.1c.3-.1.7-.2 1.2-.4v-1.5h-1V286h1v-1.8h1v1.8h.7v1.1h-.7v1.1l.6-.2.1.5c.3-1.2.5-2.8.6-4.3l1 .1c0 .5-.1 1-.1 1.5H302.4l.4.1zm-1.6.9c0 .3-.1.5-.1.8.1.7.2 1.3.3 1.9.2-.8.3-1.6.4-2.6h-.6zm2.8.8c0 1.3-.1 3.1-.9 4.2-.1-.2-.5-.5-.7-.6.7-1 .7-2.5.7-3.6v-2.8h2.4v5.9H305.8V289.3c.2.2.5.3.7.4 0 .5-.1 1-.1 1.3 0 .2-.1.4-.2.5-.1.1-.3.1-.5.1h-.4c-.2 0-.4-.1-.6-.2-.1-.2-.2-.4-.2-1.1v-4.4h-.5v1.7zM307.1 293c.5-.4 1-1.2 1.2-1.9l1.1.3c-.3.8-.8 1.7-1.3 2.2l-1-.6zm8.2-2.3h-6.9v-3.5h2.8v-2.9h1.2v.9h3.6v1.1h-3.6v.9h2.9v3.5zm-1.2-2.4h-4.6v1.3h4.6v-1.3zm-2.9 3c.1.7.3 1.5.3 2.1l-1.2.2c0-.5-.1-1.4-.2-2.1l1.1-.2zm2-.1c.3.6.6 1.5.8 2l-1.1.3c-.1-.5-.4-1.4-.7-2l1-.3zm2-.2c.5.6 1.1 1.5 1.3 2.1l-1.1.4c-.2-.6-.7-1.5-1.2-2.1l1-.4z"/><circle class="st0" cx="121.2" cy="190.3" r="30"/><defs><circle id="SVGID_00000137133649160810250980000003297292637801946545_" cx="121.2" cy="190.3" r="30"/></defs><clipPath id="SVGID_00000140704854363329265620000000635186922787945626_"><use xlink:href="#SVGID_00000137133649160810250980000003297292637801946545_" style="overflow:visible"/></clipPath><g style="clip-path:url(#SVGID_00000140704854363329265620000000635186922787945626_)"><path class="st2" d="M146.9 243.1v-38l27.3 8.1v43.6c0 .7-.6 1.2-1.2 1.2-.1 0-26.1-14.9-26.1-14.9z"/><path class="st3" d="M102.1 201.8c-1.4 4.4 2.3 24.6 2.8 25.6 1.1 2.2 18.5-6.4 19-9.3.9-5.4 0-19.9-.8-22.2-1.7-4.7-19.5 1-21 5.9z"/><path class="st3" d="m144.3 228.4-18.7 10.9c-.3.2-.7.2-1 0l-18.9-10.9c-.7-.4-.7-1.4 0-1.8l18.7-10.9c.3-.2.7-.2 1 0l18.9 10.9c.7.4.7 1.4 0 1.8z"/><path class="st4" d="M130.1 201.7s-5.2-14.8-6.9-15.5c-1.6-.7-6.4-1.1-5.2 1.2 2.6 4.7 7.1 14.5 8.9 14.5 2.8.1 3.2-.2 3.2-.2z"/><path class="st5" d="M148.1 262.7c-2.9-2.5-1.4-.5-3.3-3.5-1 0-2.7-.1-2.9.6-.3.7-.4 1.7-.4 1.7-.2 2.5.6 3.8.6 3.8.4.2.7.2 1.1 0v-.7l3.3 2.4c.6.5 1.5 1 2.4 1.2 1 .3 2 .1 2.8-.5.3-.2.6-.5.6-.9-.1-.8-3.5-3.1-4.2-4.1z"/><path class="st6" d="M148.1 264.5c-2.3.9-5.8-2.8-5.7-4.7.4-2.4-.4-7.5-.4-9.1 0-6.2 4.2-1 4.2-1s-.1 2.1.1 8.1c0 4.6 4.2 5.8 1.8 6.7z"/><path class="st7" d="M142.2 236c.3 9.6-1 15.2-.8 15.7.4 1.2 5.1 1 5.5 0 .2-.4 1.3-16.1.6-18.6-.9-2.5-5.3 2.9-5.3 2.9z"/><path class="st7" d="M147.1 231.5c-1.3-2.5-22.7-17-22.7-17s-6 6.5-3.8 8.8c.5.5 19.7 13.7 21.9 15.4 1.6 1.2 3.2 3.7 3.9 2.3.7-1.4 2-7 .7-9.5z"/><path class="st5" d="M145.3 268.9c-2.9-2.5-3.4-2.6-5.3-5.6-1 0-2.4-.5-3.2.8l-.1 1.1c-.2 2.5.6 4.2.6 4.2.4.2.7.2 1.1 0v-.7l3.3 2.4c.9.9 2.7 1.5 3.9 1.4 0 0 1.9-.7 1.9-1.6.1-1.3-1.8-1.6-2.2-2z"/><path class="st6" d="M143.1 268.5c-2.3.9-6.1-1.9-5.9-3.9.2-1.4.6-2.4.6-3.5-.1-6.9-.4-7.9-.1-9 .4-1.2 3.4-.6 3.9.1.5.8-.2 3.6-.1 9.8.1 1.9.1 3.1.5 4.1.7 1.4 2 1.6 1.1 2.4z"/><path class="st5" d="M136.6 235.6s-.6 19-.1 20.1c.5 1.1 5.4.7 5.9-.2.5-1 .9-12.1 1.4-22.3l-7.2 2.4z"/><path class="st5" d="M143.7 233.3c-1.2-1.4-23.6-15.5-23.6-15.5l-10.6-3.6c-.9-.2-3.4 8.1-.6 10.5 2.3 2 25.5 13.4 27.9 14.1 2.5.7 8.1-4.1 6.9-5.5z"/><path class="st5" d="M109 224.7c.3.1 3.8 1.3 5.7.9 3.3-.6 10.8-8.3 10.8-8.3l-1.4-8.4s-10.6 5.5-13.1 6.6c-5.9 2.6-2.3 9.1-2 9.2z"/><path class="st8" d="M109.5 174.6c.4-1.6 13-.6 13-.6s2.6 3.6 2.7 6.5c.1 2.9-2.1 5.5-2.9 6-1.2.9-5.6 3.6-5.6 3.6s-3.8-.5-5.6-1.2c-1.8-.7-3.9-5.5-3.9-6.4-.1-3.3 2.1-7 2.3-7.9z"/><path class="st9" d="M115.7 183.3c-2.6 1.3-5.2 4.4-5.2 4.4l3.2 29.5 7.2-5.9 2.7-17.1-.7-7.8c0-.1-4.6-4.5-7.2-3.1z"/><path class="st10" d="M125 193.8c-.1-2.8-.7-6.9-.7-6.9s-2.6-2.9-3.7-3.5c-.6-.2-1.4-.9-1.3-.3.2.6 1.9 2.1 2.2 2.9.8 2.1.6 6.4.5 8.1-.1 1.7-.7 7.1-2.1 11.5-3.9-7.7-5.8-16.1-6.4-17.6-.7-1.7 2.5-4.4 2.7-4.9l-1.4-.4c-2.3 1.6-6.8 7-7.7 9.3-.9 2.3.2 7.9 1.2 15.4 0 0-1.2 5.7-.6 7.6.6 1.9 4.6 3.5 6.1 3.3 11-1.3 9.7-6.6 9.7-6.6l.2-4.8c0-.1 1.4-10.3 1.3-13.1z"/><path class="st9" d="M118.8 183.7c.7-.1 2 .7 2.4 2.1.4 1.5-.1 3.4-.1 3.4l-2.4-.1-.3-.5c.1-.4.3-3.8.4-4.9zM113.5 187.5c-.2-.6 0-2.7.9-3.7 1-1.2 3.1-1.4 3.1-1.4l1 2.1-.3.5c-.6.2-3.7 2.1-4.7 2.5z"/><path class="st11" d="M121.2 179c-.4 2.9-2.7 2.8-1.6 5.8.3.7-.9 1.8-.9 1.8l-4-2.3c1.2-3.9.7-5.5.7-5.5l5.8.2z"/><path class="st6" d="M114.5 168c.4-.2 4.2-.3 4.7-.2 6.9 2.3 3.8 11.8 3.6 12.5-.4 1.1-1.3 2.5-2.1 3.1-3 2-7-1.7-7.2-2.3-.3-.6-5.7-10.3 1-13.1z"/><path class="st11" d="M113.7 180.8c-.7.2-1.5-.5-1.8-1.5-.3-1-.1-2 .6-2.2.7-.1 1.9 3.5 1.2 3.7z"/><path class="st8" d="M109.7 172.1c.8-2.8 3.3-4.7 7.2-5 3.1-.2 6.3 2.9 6.6 5.5 0 .4.7 3.9.3 4.1-.3.1-.3-1.1-1-2.8-.5-1.2-1.3-1.7-2.4-2.3-1.2 1.7-2 .7-3.7.8-1.8.1-2.5-.4-2.5-.4s-.1 1.1-.2 2.4c-.1 1.2-.1 5.2-.1 5.2s-4.4-2.2-4.5-5.3c.1-.5.1-1.7.3-2.2z"/><path class="st8" d="m113.6 170.7 8-1c-.1.8-.1 1.8-2.3 3.6-2.3 2-4.8 2.2-6.8 1 .1-.8 1.1-3.6 1.1-3.6z"/><path class="st9" d="M114.8 184.1s2 3.1 5.4 3.2l.3.5c-.4 1-2.3 2.6-2.3 2.6s-4.8-2.7-4.6-3.9c.1-1.2 1.2-2.4 1.2-2.4z"/><path class="st3" d="M109.5 177.2c0 1.5 1.2 3.4 2.7 4.3 1.5.9 2.7.3 2.7-1.1 0-1.5-1.2-3.4-2.7-4.3-1.5-.9-2.7-.4-2.7 1.1z"/><path class="st3" d="M112 178.3c.3 0 .5-.2.5-.5.1-.4.1-.9 0-1.6-.1-2.4-.3-6.4 3.7-8.4 2-1 4 .7 4.1.7.2.2.6.2.8-.1.2-.2.2-.6-.1-.8-.1-.1-2.6-2.1-5.3-.8-4.6 2.3-4.4 6.9-4.3 9.4 0 .6.1 1.1 0 1.4-.1.3.1.6.4.7h.2z"/><path class="st8" d="M111.9 177c1 .6 1.8 1.9 1.8 2.9 0 .2 0 .3-.1.4 1.8 1.1 4.1 1.9 5.6 2.2h.1v-.1c.2-.3.6-.7.9-.7.2 0 .3.1.3.2.2.4-.1.9-.5 1-.2.1-.3.1-.5.1h-.5c-1.5-.2-3.9-1.1-5.8-2.3-.3.2-.9.2-1.4-.1-1-.6-1.8-1.9-1.8-2.9s.8-1.3 1.9-.7z"/><path class="st2" d="M100.8 266.2v-38l27.3 8.1v43.6c0 .7-.6 1.2-1.2 1.2-.1-.1-26.1-14.9-26.1-14.9z"/><path class="st2" d="m178.1 213.7-52.3 30.4-29.2-16.9v-2.1l52.4-28.3 29.1 14.7z"/><path class="st12" d="m178.1 211.5-52.3 30.4-29.2-16.8 52.4-30.4z"/><path class="st6" d="M140.7 207.1c1-.2 2.9-.4 2.9-.4l-3.8-2.5-1.3 1.5 2.2 1.4z"/><path class="st6" d="M140.7 207.8c-.3 1.8 2.9 5 3 4.8.4-.6.1-.9-.1-1.2-.5-.7-.4-1.6-.5-2.4 0-1-2-2.9-2.4-1.2z"/><path class="st6" d="M148 212.7c-.1.3-.6.2-.9.1-.4-.2-3-2-3.6-2.5-.3-.2-.4-1.1.2-1 0 0 4.4 3.1 4.3 3.4z"/><path class="st6" d="M143.2 206.5c-.7-.4-1.8-1.2-2.4-.6-.3.2-.4.7-.4 1 0 .5 1.5 3 1.5 3s2.6.9 2.8.7c.7-.8 1.1-2.3.7-2.6-.7-.7-1.5-1.1-2.2-1.5z"/><path class="st6" d="M144.2 209.4c.7.7 1.4 1.7 1.9 2 .5.3 2 1.8 2.5 1.3s-3.9-3.9-4.3-4c-.5-.2-.4.4-.1.7z"/><path class="st6" d="M144.6 208.7c.2.6 2.3 2.6 2.3 2.6s1.1.9 1.3.6c.2-.4-1-1.4-1-1.4s-.7-.6-1-.9c-.3-.3-.5-.8-.9-1-.5-.2-.7-.1-.7.1z"/><path class="st6" d="M145.4 207.9s-.3.4-.5.5c-.1.1 2.2 2.2 2.2 2.2s.9.6 1 .2c.1-.3-2.7-2.9-2.7-2.9z"/><path class="st9" d="m138.1 203-1.5 2.5 2.8 1.1 1.2-2.2z"/><path class="st4" d="M127.5 197.4c-1.5 0-2.6 3.1-.8 4.6 1.8 1.6 10.9 3.9 10.9 3.9l2-2.3c0 .1-10.6-6.1-12.1-6.2z"/><path class="st6" d="M133.4 215.9c-.2 0-3.5-.3-5.1-.2 0 0 .2 1 .4 1 .7 0 4.7 0 5-.3.2-.1.2-.6-.3-.5z"/><path class="st6" d="M132.6 217.2c0-.2 0-.4-.2-.5-.3-.1-2.3 0-2.7 0-1 0-2.2-.1-2.2-.1l-.2 1.3c.2 0 3-.3 3-.3s2.3 0 2.3-.4z"/><path class="st6" d="M131.5 218.1c0-.2.1-.4-.2-.5-.3-.1-.9 0-1.2-.1h-1.3c-1 0-.7.9 0 .9s2.7.1 2.7-.3z"/><path class="st6" d="M130.9 218.3c0-.2-.1-.4-.3-.5-.3 0-.8.2-1.2.2-.1 0-1 .2-1.3.3-.9.3.4.8.8.7.4 0 2.1-.3 2-.7z"/><path class="st6" d="M130.2 217.3c.2-.2.1-.7-.1-.9-.2-.3-1.9-2.1-4.7-2.2-2.7-.2-3.7 1.7-3.3 2.2.4.5.6.8 1.6 1.1 2 .7 5 1.7 5.2 1.6.1-.3 1.1-1.6 1.3-1.8z"/><path class="st6" d="m120.3 213.2 3.1 1.5.7 2.9-4.6-2.1z"/><path class="st9" d="m111.4 206.9 11 7.1-1.4 2.4s-9.1-2.9-12.8-5.7c-2.5-1.8.7-5.5 3.2-3.8z"/><path class="st6" d="M123 214.6c.3-.3 6.1-1.2 6.5-.6.4.6-2.4.8-2.6 1.2-.3.4.5.9.1 1.1-.6.1-4.6-1.2-4-1.7z"/><path class="st9" d="M106.5 193.9c.3-3.8 3.2-1.6 4.9 1.1 1.5 2.4.4 15.3.4 15.3l-4.6-.8-.7-15.6z"/><path class="st13" d="m153.8 220-15 8.7-11-6.4v1.1l11 6.4 15-8.7z"/><path class="st13" d="m142.9 213.6-15.1 8.7 11 6.4 15.1-8.7-11-6.4z"/><path class="st14" d="m152.7 220-13.9 8-9.9-5.7 14-8.1z"/><path class="st13" d="m156.1 210.9-14 8.1-3.8 9.4.5.3 15-8.7 2.8-8.9z"/></g><path class="st20" d="M147.7 214.2c0 4.4-3.6 8-8 8h-38c-4.4 0-8-3.6-8-8s3.6-8 8-8h38c4.4 0 8 3.6 8 8z"/><path class="st14" d="M107.2 215.7c.8.8 2.1 1.5 3.2 1.9-.3.2-.7.7-.8 1-1.2-.5-2.4-1.3-3.3-2.3v2.4h-1.2v-2.4c-.9 1-2.1 1.8-3.2 2.3-.2-.3-.6-.8-.8-1 1.1-.4 2.3-1.1 3.1-1.9h-2v-3.8h2.9v-.6h-3.8v-1.1h3.8v-.8h1.2v.8h3.8v1.1h-3.8v.6h3v3.8h-2.1zm-3.9-2.3h1.8v-.6h-1.8v.6zm0 1.5h1.8v-.6h-1.8v.6zm3-2.1v.6h1.8v-.6h-1.8zm1.8 1.4h-1.8v.6h1.8v-.6zM113.9 216.2c-.5.8-1.2 1.7-1.9 2.2-.3-.2-.7-.5-1-.7.7-.5 1.4-1.3 1.7-1.9l1.2.4zm6.2-4.7h-8.8v-1.1h3.7v-1h1.3v1h3.8v1.1zm-3.8 3.9v2.1c0 .6-.1.9-.5 1.1-.4.2-1 .2-1.8.2-.1-.4-.2-.8-.4-1.1h1.3c.2 0 .2 0 .2-.2v-2.1h-2.6v-3.2h6.6v3.2h-2.8zm-2.7-1h4.2v-1.1h-4.2v1.1zm4.9 1.4c.6.6 1.4 1.5 1.8 2.1l-1.2.6c-.3-.6-1.1-1.5-1.7-2.2l1.1-.5zM127.1 212.6c.8 1.5 2.1 2.9 3.5 3.6-.3.2-.7.7-.9 1.1-.6-.4-1.1-.8-1.6-1.3v1.1h-1.7v1.7h-1.2v-1.7h-1.7v-1c-.5.5-1 .9-1.6 1.3-.2-.3-.6-.8-.9-1 1.4-.8 2.7-2.2 3.4-3.7h-3v-1.2h3.8v-1.9h1.2v1.9h3.8v1.2h-3.1zm-2 3.3v-2.2c-.4.8-1 1.5-1.6 2.2h1.6zm2.8 0c-.6-.6-1.1-1.4-1.6-2.2v2.2h1.6zM134.8 216c-.2-.3-.5-.7-.9-1v3.8h-1.2v-3.4c-.4.4-.8.7-1.2 1-.1-.3-.4-.9-.6-1.1 1.1-.6 2.1-1.6 2.8-2.8h-2.4v-1.1h1.4v-1.8h1.2v1.8h.4l.2-.1.7.4c-.3.8-.7 1.5-1.2 2.1.5.4 1.2 1.1 1.5 1.3l-.7.9zm5.7 1.3v1.2h-5.7v-1.2h2.3v-3.7h-1.9v-1.1h1.9v-3h1.2v3h1.9v1.1h-1.9v3.7h2.2z"/><path class="st20" d="m151.2 30 22.9 11.9V18.1zM267.7 30l-22.9 11.9V18.1z"/><path class="st22" d="M174.1 30h2.5"/><path class="st23" d="M178.7 30h62.6"/><path class="st22" d="M242.3 30h2.5"/><path class="st20" d="M193.8 20.1V8.7h7.9v1.9h-5.5v2.7h4.8v1.9h-4.8v4.9h-2.4zM205.6 20.1h-2.2v-8.3h2V13c.3-.6.7-.9.9-1.1.3-.2.6-.3.9-.3.5 0 1 .1 1.4.4l-.7 1.9c-.4-.2-.7-.4-1-.4-.3 0-.6.1-.8.3-.2.2-.4.5-.5.9-.1.4-.2 1.4-.2 2.8v2.6zM214.5 17.5l2.2.4c-.3.8-.7 1.4-1.3 1.8-.6.4-1.4.6-2.3.6-1.4 0-2.5-.5-3.2-1.4-.5-.8-.8-1.7-.8-2.9 0-1.4.4-2.5 1.1-3.2.7-.8 1.6-1.2 2.7-1.2 1.2 0 2.2.4 2.9 1.2.7.8 1.1 2.1 1 3.7h-5.5c0 .7.2 1.2.5 1.5.3.4.8.5 1.3.5.3 0 .6-.1.9-.3s.4-.3.5-.7zm.2-2.2c0-.6-.2-1.1-.5-1.4-.3-.3-.7-.5-1.1-.5-.5 0-.9.2-1.2.5-.3.3-.5.8-.5 1.4h3.3zM223.4 17.5l2.2.4c-.3.8-.7 1.4-1.3 1.8-.6.4-1.4.6-2.3.6-1.4 0-2.5-.5-3.2-1.4-.5-.8-.8-1.7-.8-2.9 0-1.4.4-2.5 1.1-3.2.7-.8 1.6-1.2 2.7-1.2 1.2 0 2.2.4 2.9 1.2.7.8 1.1 2.1 1 3.7h-5.5c0 .7.2 1.2.5 1.5.3.4.8.5 1.3.5.3 0 .6-.1.9-.3s.4-.3.5-.7zm.2-2.2c0-.6-.2-1.1-.5-1.4-.3-.3-.7-.5-1.1-.5-.5 0-.9.2-1.2.5-.3.3-.5.8-.5 1.4h3.3zM151.2 190.3l22.9 11.9v-23.7zM267.7 190.3l-22.9 11.9v-23.7z"/><path class="st22" d="M174.1 190.3h2.5"/><path class="st23" d="M178.7 190.3h62.6"/><path class="st22" d="M242.3 190.3h2.5"/><path class="st20" d="M193.8 180.5V169h7.9v1.9h-5.5v2.7h4.8v1.9h-4.8v4.9h-2.4zM205.6 180.5h-2.2v-8.3h2v1.2c.3-.6.7-.9.9-1.1.3-.2.6-.3.9-.3.5 0 1 .1 1.4.4l-.7 1.9c-.4-.2-.7-.4-1-.4-.3 0-.6.1-.8.3-.2.2-.4.5-.5.9-.1.4-.2 1.4-.2 2.8v2.6zM214.5 177.8l2.2.4c-.3.8-.7 1.4-1.3 1.8-.6.4-1.4.6-2.3.6-1.4 0-2.5-.5-3.2-1.4-.5-.8-.8-1.7-.8-2.9 0-1.4.4-2.5 1.1-3.2.7-.8 1.6-1.2 2.7-1.2 1.2 0 2.2.4 2.9 1.2.7.8 1.1 2.1 1 3.7h-5.5c0 .7.2 1.2.5 1.5.3.4.8.5 1.3.5.3 0 .6-.1.9-.3s.4-.3.5-.7zm.2-2.2c0-.6-.2-1.1-.5-1.4-.3-.3-.7-.5-1.1-.5-.5 0-.9.2-1.2.5-.3.3-.5.8-.5 1.4h3.3zM223.4 177.8l2.2.4c-.3.8-.7 1.4-1.3 1.8-.6.4-1.4.6-2.3.6-1.4 0-2.5-.5-3.2-1.4-.5-.8-.8-1.7-.8-2.9 0-1.4.4-2.5 1.1-3.2.7-.8 1.6-1.2 2.7-1.2 1.2 0 2.2.4 2.9 1.2.7.8 1.1 2.1 1 3.7h-5.5c0 .7.2 1.2.5 1.5.3.4.8.5 1.3.5.3 0 .6-.1.9-.3s.4-.3.5-.7zm.2-2.2c0-.6-.2-1.1-.5-1.4-.3-.3-.7-.5-1.1-.5-.5 0-.9.2-1.2.5-.3.3-.5.8-.5 1.4h3.3zM151.2 159.7l25.6 3.3-8.1-22.3zM260.7 119.9l-17.5 19-8.1-22.4z"/><path class="st22" d="m172.9 152.3 2.3-.9"/><path class="st23" d="m177.1 150.7 58.9-21.4"/><path class="st22" d="m236.9 128.9 2.4-.8"/><path class="st20" d="m188.2 136.2-3.9-10.8 7.4-2.7.7 1.8-5.2 1.9.9 2.5 4.5-1.6.7 1.8-4.5 1.6 1.7 4.6-2.3.9zM199.3 132.1l-2.1.8-2.8-7.8 1.9-.7.4 1.1c.1-.6.3-1.1.5-1.4s.5-.5.8-.6c.5-.2 1-.2 1.5-.1v2c-.4-.1-.8-.1-1.1 0-.3.1-.5.3-.6.5-.1.2-.2.6-.2 1 0 .5.3 1.4.8 2.7l.9 2.5zM206.8 126.6l2.2-.4c0 .9-.2 1.6-.6 2.2-.4.6-1.1 1.1-1.9 1.4-1.4.5-2.5.4-3.5-.2-.8-.5-1.4-1.3-1.7-2.4-.5-1.3-.5-2.4-.1-3.4s1.1-1.7 2.2-2c1.2-.4 2.2-.4 3.2.1.9.5 1.7 1.6 2.2 3.2l-5.2 1.9c.2.6.6 1 1 1.2.4.2.9.3 1.4.1.3-.1.6-.3.7-.6s.2-.7.1-1.1zm-.6-2.2c-.2-.6-.6-1-1-1.2-.4-.2-.8-.2-1.2-.1-.5.2-.8.5-.9.9-.2.4-.2.9.1 1.5l3-1.1zM215.2 123.5l2.2-.4c0 .9-.2 1.6-.6 2.2-.4.6-1.1 1.1-1.9 1.4-1.4.5-2.5.4-3.5-.2-.8-.5-1.4-1.3-1.7-2.4-.5-1.3-.5-2.4-.1-3.4s1.1-1.7 2.2-2c1.2-.4 2.2-.4 3.2.1.9.5 1.7 1.6 2.2 3.2l-5.2 1.9c.2.6.6 1 1 1.2.4.2.9.3 1.4.1.3-.1.6-.3.7-.6.1-.3.1-.6.1-1.1zm-.6-2.1c-.2-.6-.6-1-1-1.2-.4-.2-.8-.2-1.2-.1-.5.2-.8.5-.9.9-.2.4-.2.9.1 1.5l3-1.1zM151.2 222.8l17.5 19 8.1-22.3zM260.7 262.7l-25.6 3.3 8.1-22.3z"/><path class="st22" d="m172.6 231.1 2.4.8"/><path class="st23" d="m176.9 232.6 58.8 21.4"/><path class="st22" d="m236.7 254.4 2.3.8"/><path class="st20" d="m194.3 227.7 3.9-10.8 7.4 2.7-.7 1.8-5.2-1.9-.9 2.5 4.5 1.6-.7 1.8-4.5-1.6-1.7 4.6-2.1-.7zM205.4 231.8l-2.1-.8 2.8-7.8 1.9.7-.4 1.1c.5-.4.9-.6 1.3-.7s.6 0 1 .1c.5.2.9.5 1.2.9l-1.3 1.6c-.3-.4-.5-.6-.8-.7-.3-.1-.6-.1-.8 0-.3.1-.5.3-.8.7-.3.4-.6 1.2-1.1 2.6l-.9 2.3zM214.7 232.3l1.9 1.1c-.5.7-1.2 1.1-1.9 1.3-.7.2-1.5.1-2.4-.2-1.4-.5-2.2-1.3-2.5-2.4-.3-.9-.2-1.9.2-3 .5-1.3 1.2-2.2 2.1-2.7.9-.5 1.9-.5 3-.2 1.2.4 1.9 1.1 2.3 2.1.4 1 .3 2.3-.3 3.9l-5.2-1.9c-.2.6-.2 1.2 0 1.6.2.5.5.8 1 .9.3.1.6.1.9 0s.7-.1.9-.5zm.9-2c.2-.6.2-1.1 0-1.5-.2-.4-.5-.7-.9-.9-.5-.2-.9-.1-1.3.1s-.7.6-.9 1.2l3.1 1.1zM223.1 235.4l1.9 1.1c-.5.7-1.2 1.1-1.9 1.3-.7.2-1.5.1-2.4-.2-1.4-.5-2.2-1.3-2.5-2.4-.3-.9-.2-1.9.2-3 .5-1.3 1.2-2.2 2.1-2.7.9-.5 1.9-.5 3-.2 1.2.4 1.9 1.1 2.3 2.1.4 1 .3 2.3-.3 3.9l-5.2-1.9c-.2.6-.2 1.2 0 1.6.2.5.5.8 1 .9.3.1.6.1.9 0 .3 0 .6-.2.9-.5zm.9-2.1c.2-.6.2-1.1 0-1.5-.2-.4-.5-.7-.9-.9-.5-.2-.9-.1-1.3.1s-.7.6-.9 1.2l3.1 1.1z"/></svg>