<svg version="1.1" id="_レイヤー_2" xmlns="http://www.w3.org/2000/svg" x="0" y="0" viewBox="0 0 819 219" style="enable-background:new 0 0 819 219" xml:space="preserve"><style>.st0{fill:#1f88ff}.st1{fill:none;stroke:#1f88ff;stroke-width:10;stroke-miterlimit:10}.st3{fill:#2e3840}.st4{fill:#f2f9fe}.st5{fill:#fff}.st6{fill:#1f88ff;stroke:#1f88ff;stroke-width:.75;stroke-miterlimit:10}</style><path class="st0" d="M614.9 40 592 51.9V28.1z"/><path class="st1" d="M158.4 40h2.5"/><path style="fill:none;stroke:#1f88ff;stroke-width:10;stroke-miterlimit:10;stroke-dasharray:4.9956,1.9982" d="M162.9 40h425.6"/><path class="st1" d="M589.5 40h2.5"/><path class="st0" d="M377.5 21.1c1 .9 2.2 1.6 3.3 2.1-.5.4-1.1 1.2-1.4 1.7-.7-.4-1.3-.8-2-1.3v4.9h-2v-6.7c-.7-.8-1.4-1.7-2-2.6-1.2 4.5-3.4 7.6-6.3 9.2-.3-.4-1.1-1.1-1.5-1.4 1.8-.9 3.2-2.3 4.3-4.1-.6-.6-1.6-1.3-2.4-1.8-.3.4-.5.7-.8.9-.3-.3-1.1-.9-1.6-1.2 1.8-1.6 3.1-4.3 3.8-7.1l1.9.4c-.2.7-.4 1.3-.6 2h2.2l.3-.1 1.2.4c-.1.5-.2.9-.2 1.4l.6-.2c.3.5.6 1 1 1.5v-5.4h2v7.4zm-7.9-3.4c-.3.7-.6 1.3-1 1.9.8.5 1.6 1 2.3 1.6.4-1 .8-2.2 1-3.4h-2.3zM383.6 23.2c-.1 1.5-.5 3.1-.9 4.1-.3-.2-1-.5-1.4-.7.5-.9.7-2.4.8-3.7l1.5.3zm12.9-.6c-.7.6-1.5 1.3-2.2 1.8.6.8 1.4 1.5 2.4 1.9-.3.3-.9 1.1-1.1 1.5-1.2-.7-2.2-1.8-2.8-3v1.8c0 .8-.1 1.3-.6 1.5-.5.3-1.2.3-2.2.3-.1-.5-.2-1.2-.4-1.6h1.3c.2 0 .3 0 .3-.2v-3.8c-.6 2.4-1.8 4.1-3.2 5-.2-.4-.8-1-1.2-1.3 1.1-.6 2-1.6 2.5-2.8h-1.6v-1.5l-1.1.5c0-.3-.1-.6-.2-.9l-.8.1v6.6H384V22l-2.2.2-.2-1.6 1.2-.1c.2-.3.5-.6.7-.9-.4-.7-1.2-1.6-1.8-2.2l.9-1.3c.1.1.2.2.4.3.4-.9.9-2 1.2-2.8l1.6.6c-.6 1.1-1.2 2.4-1.8 3.3.2.2.4.4.5.6.6-.9 1.1-1.8 1.4-2.6l1.6.7c-.9 1.3-2 2.9-3 4.2l1.4-.1c-.2-.4-.3-.7-.5-1l1.3-.6c.6 1.1 1.2 2.5 1.4 3.4l-.2.1h2.4l1 .4v-1.4H388v-6h2.5c.2-.5.4-1.1.6-1.6l2.1.3c-.2.4-.5.9-.7 1.3h3.3v6h-3v.1c.2.6.4 1.2.7 1.8.5-.5 1.1-1.1 1.5-1.6l1.5 1.1zm-9.6.3c.4.9.7 2 .8 2.7l-1.4.4c-.1-.8-.4-1.9-.7-2.8l1.3-.3zm2.8-5.5h4.3v-.8h-4.3v.8zm0 2.3h4.3v-.8h-4.3v.8zM407.9 20.8v1.8h3.4v1.7h-3.4V26c0 .6.1.7.5.7h1.2c.4 0 .5-.3.6-1.8.4.3 1.2.6 1.7.8-.2 2.1-.7 2.8-2.1 2.8h-1.7c-1.7 0-2.2-.6-2.2-2.3v-1.7h-2.1c-.4 1.7-1.4 3.3-4.4 4.3-.2-.4-.8-1.2-1.2-1.5 2.2-.7 3.2-1.7 3.6-2.7h-3.2v-1.7h3.4v-1.8h-1.3v-.5c-.7.5-1.4.9-2.1 1.3-.3-.4-.8-1.1-1.2-1.4.9-.4 1.8-.9 2.7-1.6-.4-.4-1.1-1-1.6-1.4l1.2-1c.5.3 1.1.8 1.5 1.2.4-.4.7-.9 1-1.4H399v-1.6h4.2l.3-.1 1.3.6c-.6 1.7-1.5 3.1-2.6 4.3h5.8c-1.2-1.3-2.2-3-2.9-4.9l1.7-.5c.2.6.5 1.2.8 1.7.5-.5 1.1-1 1.4-1.5l1.4 1c-.7.6-1.4 1.2-2 1.7.2.3.5.6.7.8.7-.5 1.4-1.2 1.8-1.7l1.4 1c-.7.6-1.4 1.2-2.1 1.7.8.6 1.6 1.1 2.5 1.5-.4.4-1 1.1-1.3 1.6-.7-.3-1.4-.7-2-1.2v.5h-1.5zm-2 0h-2v1.8h2v-1.8zM418.9 14.2c-.4 1-.9 2.1-1.5 3.1v11.2h-1.8V20c-.4.6-.9 1.1-1.3 1.5-.2-.4-.7-1.5-1-1.9 1.5-1.4 3-3.7 3.9-6l1.7.6zm9.6 2.3V18h-10.2v-1.5h10.2zm-9.2 6.8h8.4v5.1h-1.9v-.6h-4.6v.6h-1.8v-5.1zm8.1-3h-7.9v-1.5h7.9v1.5zm-7.9.8h7.8v1.5h-7.8v-1.5zm7.6-5.4h-7.3v-1.5h7.3v1.5zm-6 9.1v1.6h4.6v-1.6h-4.6z"/><path class="st3" d="M32.8 93.7h1.8v1.1c.2-.4.5-.7.9-.9s.8-.3 1.3-.3c.8 0 1.6.3 2.1 1s.9 1.6.9 2.8c0 1.2-.3 2.2-.9 2.8s-1.3 1-2.2 1c-.4 0-.8-.1-1.1-.2s-.7-.4-1-.8v3.7h-1.9V93.7zm1.9 3.5c0 .8.2 1.4.5 1.8s.7.6 1.2.6c.4 0 .8-.2 1.1-.5s.4-.9.4-1.8c0-.8-.2-1.3-.5-1.7s-.7-.6-1.1-.6c-.5 0-.9.2-1.2.5s-.4 1-.4 1.7zM47.7 95.9l-1.9.3c-.1-.4-.2-.7-.4-.9s-.5-.3-.9-.3c-.5 0-.9.2-1.1.5s-.4.9-.4 1.7c0 .9.1 1.5.4 1.8s.7.5 1.2.5c.4 0 .7-.1.9-.3s.4-.6.5-1.1l1.9.3c-.2.9-.6 1.5-1.1 2s-1.3.7-2.2.7c-1.1 0-1.9-.3-2.5-1S41 98.6 41 97.4c0-1.2.3-2.1 1-2.8s1.5-1 2.6-1c.9 0 1.6.2 2.1.6s.8.9 1 1.7zM93.3 42.4c0-1.3.4-2.3 1.1-3 .6-.5 1.4-.8 2.3-.8 1 0 1.8.3 2.4 1s1 1.6 1 2.7c0 .9-.1 1.7-.4 2.2s-.7 1-1.2 1.2-1.1.4-1.8.4c-1 0-1.8-.3-2.5-1s-.9-1.5-.9-2.7zm1.2 0c0 .9.2 1.6.6 2.1s.9.7 1.5.7 1.1-.2 1.5-.7.6-1.2.6-2.1c0-.9-.2-1.6-.6-2s-.9-.7-1.5-.7-1.1.2-1.5.7-.6 1-.6 2zM101.5 46v-7.3h1.1v1.1c.3-.5.5-.9.8-1s.5-.2.8-.2c.4 0 .8.1 1.3.4l-.4 1.1c-.3-.2-.6-.3-.9-.3-.3 0-.5.1-.7.2s-.4.4-.5.7c-.1.4-.2.9-.2 1.4V46h-1.3zM230.6 83.1c0 .9-.8 1.7-1.7 1.7-.9 0-1.7-.8-1.7-1.7 0-.9.8-1.7 1.7-1.7.9 0 1.7.7 1.7 1.7zM241.5 76.9v1.4h-2.8v6.9h-1.5v-8.3h4.3zM245.9 81.9c.5.5 1.6 1.8 1.8 2.2l-.9 1.3c-.2-.4-.6-1-.9-1.6v5.4h-1.5V84c-.4 1.1-.9 2.2-1.5 2.9-.1-.4-.5-1.1-.7-1.5.8-1 1.6-2.8 2-4.3h-1.7v-1.5h1.9V77h1.5v2.7h1.6v1.5h-1.6v.7zm8.1-4.2v11.2h-1.6v-.7h-3.1v.8h-1.5V77.7h6.2zm-4.6 1.4v1.6h3.1v-1.6h-3.1zm0 3v1.7h3.1v-1.7h-3.1zm3.1 4.8v-1.7h-3.1v1.7h3.1zM267.3 85.2h-5.1v2.1c0 .9-.2 1.3-.8 1.6-.6.2-1.6.3-2.9.3-.1-.4-.4-1.1-.6-1.5h2.3c.3 0 .4-.1.4-.4v-2.1h-5.1v-1.5h5.1v-1.5h-4.3v-1.5h4.3v-1.5c-1.4.1-2.7.2-4 .2 0-.4-.2-1-.4-1.4 3.1-.1 6.7-.5 8.8-1l1.1 1.3c-1.2.3-2.5.5-4 .7v1.7h4.4v1.5h-4.4v1.5h5.1v1.5zM278.4 87.5c.4 0 .5-.2.5-1.8.3.3 1 .5 1.4.6-.2 2.1-.6 2.6-1.8 2.6H277c-1.5 0-1.8-.5-1.8-2v-3.2h-1.9c-.3 2.3-.9 4.3-3.9 5.4-.2-.4-.6-1-1-1.4 2.6-.8 3.1-2.3 3.3-4h-3.1v-1.5h5v-2.1h-2.2c-.3.7-.6 1.3-1 1.8l-1.4-.7c.8-1.1 1.5-2.8 1.7-4.1l1.6.3c-.1.4-.2.8-.4 1.3h1.7V77h1.6v1.8h4v1.5h-4v2.1h5v1.5h-3.4V87c0 .4.1.5.5.5h1.1zM289.6 81.8c1.1.8 2.6 1.4 4 1.8-.3.3-.8.9-1 1.3l-.9-.3v4.6h-1.5v-.4h-5.4v.4h-1.5v-4.7c-.3.2-.7.3-1 .4-.2-.3-.6-.9-.9-1.2 1.4-.4 2.8-1.1 3.8-1.9h-3.5v-1.3h2.5c-.2-.4-.5-.9-.8-1.3l.6-.2h-1.3c0-.3-.2-.9-.3-1.2 3.1-.1 6.7-.4 8.9-.8l1 1.1c-.7.1-1.4.2-2.2.4l1.6.4c-.4.6-.7 1.1-1 1.6h2.6v1.3h-3.7zm1.1 2.2c-.9-.5-1.8-1.1-2.5-1.8v1.6h-1.5v-1.5c-.7.7-1.6 1.3-2.5 1.8h6.5zm-4.1 1.2h-1.9v.7h1.9v-.7zm-1.9 2.4h1.9v-.7h-1.9v.7zm1.9-8.7c-.6 0-1.2.1-1.7.1.3.4.6.9.8 1.3l-.6.2h1.6v-1.6zm3.5 6.3H288v.7h2.1v-.7zm0 2.4v-.7H288v.7h2.1zm-1-7.2c.3-.5.6-1.2.8-1.8-.6.1-1.2.1-1.8.2v1.8h1.4l-.4-.2zM298.7 83.6l-.2.8h6.3s0 .4-.1.6c-.3 2.1-.6 3.2-1 3.6-.4.4-.8.5-1.4.5h-2.2c0-.4-.2-1.1-.5-1.5.9.1 1.8.1 2.2.1.3 0 .5 0 .6-.1.2-.2.5-.8.6-1.8h-5c-.1.2-.2.5-.2.7l-1.7-.3c.3-.7.7-1.7.9-2.6h-2.5v-1.4h11.6v1.4h-7.4zm6-2.1h-8.5v-4.1h8.5v4.1zm-1.6-2.7h-5.4v1.4h5.4v-1.4zM307.3 89.2v-1.4h2.8v-6.9h1.5v8.3h-4.3zM325.9 78.9c1.2-.1 2.5-.2 3.7-.4V80c-1.2.2-2.8.3-4.2.3-.2.5-.5.9-.7 1.3.3-.2 1-.3 1.5-.3.8 0 1.4.3 1.7 1 .7-.3 1.2-.5 1.8-.8.5-.2 1-.4 1.4-.7l.7 1.5c-.4.1-1.1.4-1.5.5-.6.2-1.3.5-2.1.9 0 .7 0 1.7.1 2.3h-1.6c0-.4.1-1 .1-1.6-1 .6-1.5 1.1-1.5 1.7 0 .7.6.9 1.9.9 1.1 0 2.5-.1 3.7-.4l-.1 1.7c-.9.1-2.5.2-3.7.2-2 0-3.5-.5-3.5-2.2 0-1.7 1.6-2.7 3-3.5-.2-.3-.5-.4-.9-.4-.7 0-1.5.4-2 .9-.4.4-.8.9-1.2 1.4l-1.4-1c1.4-1.3 2.3-2.4 2.9-3.6h-.2c-.5 0-1.5 0-2.2-.1v-1.5c.7.1 1.6.2 2.3.2h.6l.3-1.5 1.7.1c-.4.6-.4 1-.6 1.6zM344 79.1l-.7.3.9.6c-.1.3-.3.6-.4.9-.3 1.1-1 2.4-1.9 3.7.6.4 1.1.8 1.5 1.1l-1.2 1.5c-.4-.3-.8-.7-1.4-1.2-1.1 1.2-2.6 2.3-4.6 3.1l-1.5-1.3c2.2-.7 3.7-1.7 4.8-2.8-.8-.6-1.7-1.2-2.4-1.6l1.2-1.2c.7.4 1.5.9 2.3 1.5.7-.9 1.2-2.1 1.4-2.9h-3.7c-.9 1.2-2.1 2.5-3.4 3.4l-1.4-1.1c2.3-1.4 3.5-3.2 4.1-4.3.2-.3.5-.9.6-1.4l1.8.6c-.3.5-.7 1-.8 1.3h2.7c.4 0 .7 0 1-.1-.2-.5-.6-1.1-.8-1.5l1-.4c.2.5.7 1.3.9 1.8zm1.6-.6-1 .5c-.3-.5-.7-1.3-1.1-1.8l1-.4c.4.4.9 1.2 1.1 1.7zM352.4 80.6c1.3-.8 2.8-2.1 3.7-3.2l1.4 1.3c-1 1-2.2 2-3.5 2.8v5.3c0 .6 0 1.4.1 1.7H352c.1-.3.1-1.1.1-1.7v-4.2c-1.3.7-3 1.4-4.6 1.9l-.8-1.6c2.3-.6 4.2-1.4 5.7-2.3zM363.8 78.5c.1.4.3.9.4 1.5 2-.4 4.3-.8 4.9-1 .3 0 .6-.1.8-.2l1.2.9c-.6 1.3-2.2 3.6-3.3 4.8l-1.7-.8c1-.8 2-2.2 2.4-2.9-.4.1-2.1.4-3.9.8.6 2.2 1.3 4.7 1.5 5.5l.4 1.2-1.9.5c-.1-.4-.2-.9-.3-1.3-.2-.8-.9-3.3-1.5-5.5-1.3.3-2.5.5-2.9.6l-.5-1.8c.5-.1 1-.1 1.5-.2.2 0 .8-.1 1.5-.3-.2-.6-.3-1.1-.4-1.5-.2-.6-.3-.9-.4-1.1l1.9-.4.3 1.2zM374.6 84.4c.4-1.1.4-3.6.4-5.1 0-.5 0-.9-.1-1.2h1.9c0 .1-.1.6-.1 1.2 0 1.5 0 4.3-.4 5.6-.4 1.5-1.2 2.7-2.3 3.7l-1.6-1.1c1.2-.8 1.9-2 2.2-3.1zm3.9 2.4v-7.6c0-.6-.1-1.1-.1-1.1h1.9s-.1.5-.1 1.1V86c1.1-.5 2.3-1.5 3.2-2.7l1 1.4c-1.1 1.4-3 2.8-4.4 3.5-.3.2-.4.3-.6.4l-1.1-.9c.2-.2.2-.6.2-.9zM387.1 79c1.1-.1 3.2-.3 5.6-.5 1.3-.1 2.8-.2 3.7-.2V80c-.7 0-1.8 0-2.5.2-1.6.4-2.8 2.1-2.8 3.6 0 2.1 2 2.9 4.2 3l-.6 1.8c-2.7-.2-5.3-1.6-5.3-4.5 0-1.9 1.1-3.4 1.9-4-1.2.1-3.9.4-5.4.7l-.2-1.8c.6.1 1.1 0 1.4 0zm8.5 4-1 .4c-.3-.7-.6-1.2-1-1.8l1-.4c.2.5.7 1.3 1 1.8zm1.5-.6-1 .5c-.4-.7-.6-1.2-1.1-1.8l.9-.4c.4.4.9 1.2 1.2 1.7zM429.6 78.9c-.1.4-.2.9-.3 1.3.4 0 .8-.1 1.1-.1 1.4 0 2.4.6 2.4 2.5 0 1.5-.2 3.6-.7 4.8-.4.9-1.1 1.2-2.1 1.2-.5 0-1.1-.1-1.6-.2l-.3-1.7c.5.1 1.2.3 1.6.3.4 0 .8-.1 1-.6.4-.7.5-2.3.5-3.6 0-1-.5-1.2-1.3-1.2-.2 0-.5 0-.9.1-.5 2-1.5 5.1-2.7 7l-1.7-.7c1.3-1.7 2.2-4.3 2.6-6.1-.5.1-.9.1-1.1.1-.4.1-1.1.2-1.5.2l-.2-1.8h1.4c.4 0 1-.1 1.7-.1.2-1 .3-1.9.3-2.7l1.9.2c0 .4-.1.8-.1 1.1zm5.5.2-.6.3c.8 1.2 1.8 3.4 2.1 4.5l-1.7.8c-.3-1.4-1.3-3.7-2.2-4.9l1.2-.5c-.3-.5-.6-1.1-.9-1.5l1-.4c.4.4.8 1.2 1.1 1.7zm1.5-.6-1 .4c-.3-.5-.7-1.3-1.1-1.8l1-.4c.4.5.9 1.4 1.1 1.8zM445.7 82.8v1.5h2.8v1.4h-2.8v1.4c0 .5.1.5.4.5h1c.3 0 .4-.3.5-1.5.3.3.9.5 1.4.6-.2 1.7-.6 2.2-1.7 2.2h-1.4c-1.4 0-1.8-.5-1.8-1.9v-1.4h-1.7c-.3 1.4-1.1 2.7-3.5 3.5-.2-.4-.7-.9-1-1.2 1.8-.5 2.6-1.4 2.9-2.2h-2.6v-1.4h2.8v-1.5h-1.1v-.4c-.5.4-1.1.7-1.7 1-.2-.4-.6-.9-.9-1.2.8-.3 1.5-.8 2.2-1.3-.3-.3-.9-.8-1.3-1.1l1-.8c.4.3.9.6 1.2 1 .3-.4.6-.8.8-1.2h-2.7v-1.3h3.4l.3-.1 1 .5c-.5 1.4-1.2 2.5-2.1 3.5h4.7c-1-1.1-1.8-2.4-2.4-4l1.4-.4c.2.5.4.9.6 1.4.4-.4.9-.8 1.2-1.2l1.2.8c-.5.5-1.1 1-1.7 1.4.2.2.4.5.6.7.5-.4 1.1-1 1.5-1.4l1.1.8c-.5.5-1.2 1-1.7 1.4.6.5 1.3.9 2 1.2-.4.3-.8.9-1.1 1.3-.6-.3-1.1-.6-1.6-1v.4h-1.2zm-1.6 0h-1.6v1.5h1.6v-1.5zM458.6 81.8c1.1.8 2.6 1.4 4 1.8-.3.3-.8.9-1 1.3l-.9-.3v4.6h-1.5v-.4h-5.4v.4h-1.5v-4.7c-.3.2-.7.3-1 .4-.2-.3-.6-.9-.9-1.2 1.4-.4 2.8-1.1 3.8-1.9h-3.5v-1.3h2.5c-.2-.4-.5-.9-.8-1.3l.6-.2h-1.3c0-.3-.2-.9-.3-1.2 3.1-.1 6.7-.4 8.9-.8l1 1.1c-.7.1-1.4.2-2.2.4l1.6.4c-.4.6-.7 1.1-1 1.6h2.6v1.3h-3.7zm1.1 2.2c-.9-.5-1.8-1.1-2.5-1.8v1.6h-1.5v-1.5c-.7.7-1.6 1.3-2.5 1.8h6.5zm-4.1 1.2h-1.9v.7h1.9v-.7zm-1.9 2.4h1.9v-.7h-1.9v.7zm1.9-8.7c-.6 0-1.2.1-1.7.1.3.4.7.9.8 1.3l-.6.2h1.6v-1.6zm3.5 6.3H457v.7h2.1v-.7zm0 2.4v-.7H457v.7h2.1zm-1-7.2c.3-.5.6-1.2.8-1.8-.6.1-1.2.1-1.8.2v1.8h1.4l-.4-.2zM469.1 77.6l1.8-.2c.1.7.3 1.4.5 2 .9-.1 1.8-.4 2.7-.6l.2 1.6c-.7.2-1.5.4-2.3.5.4.8.8 1.7 1.2 2.1.2.3.5.6.7.9l-.8 1.2c-.7-.1-2.4-.3-3.5-.4l.1-1.4c.6.1 1.5.1 1.9.2-.4-.6-.9-1.5-1.2-2.4-1.5.1-3.3.1-5.6-.1v-1.7c2 .2 3.6.3 5 .2-.1-.3-.2-.6-.3-.8-.1-.2-.3-.7-.4-1.1zm-2.4 8c0 1.1 1 1.6 2.8 1.6 1.4 0 2.6-.1 3.5-.3l-.1 1.6c-.7.1-1.9.3-3.5.3-2.7 0-4.3-1-4.3-2.9 0-.8.2-1.5.7-2.4l1.6.4c-.5.5-.7 1.1-.7 1.7zM479.4 77.5l1.9.1c-.1.4-.2 1-.3 1.8l.5.6c-.2.2-.4.7-.7 1v.3c1-.9 2.5-2 3.8-2 1.4 0 2 .8 2 1.9 0 1.4-.4 3.3-.4 4.6 0 .3.2.6.5.6.5 0 1.1-.3 1.7-.9l.2 1.8c-.6.6-1.4 1-2.4 1s-1.6-.7-1.6-2c0-1.4.5-3.3.5-4.5 0-.6-.3-1-.9-1-1 0-2.4 1.2-3.4 2.4v1.1c0 1.1 0 2.2.1 3.4 0 .2.1.7.1 1h-2v-1c0-1 0-1.8.1-2.9-.5.8-1.2 1.8-1.6 2.4l-1-1.4c.7-.9 2-2.6 2.8-3.7 0-.3.1-.6.1-.9-.6.1-1.6.2-2.4.3l-.2-1.7h1.1c.4 0 .9-.1 1.5-.2 0-.5.1-.9.1-1-.1-.4-.1-.7-.1-1.1zM492.9 78.2c.7 0 3.5-.1 4.2-.1.5-.1.8-.1 1-.1l.8 1.2-.9.6c-.7.5-2.1 1.6-2.9 2.3.4-.1.8-.1 1.2-.1 2.2 0 3.9 1.4 3.9 3.3 0 2.1-1.6 3.7-4.7 3.7-1.8 0-3.2-.8-3.2-2.1 0-1.1.9-2 2.3-2 1.6 0 2.6 1 2.8 2.2.7-.4 1.1-1 1.1-1.8 0-1.2-1.2-2-2.7-2-2 0-3.3 1.1-4.7 2.6l-1.2-1.2c.9-.7 2.5-2.1 3.3-2.7.7-.6 2.1-1.7 2.7-2.2-.7 0-2.5.1-3.1.1-.4 0-.8.1-1.1.1l-.1-1.7c.5-.2 1-.1 1.3-.1zm2.4 9.1h.8c-.1-.8-.6-1.4-1.3-1.4-.5 0-.8.3-.8.6 0 .4.5.8 1.3.8zM513.1 76.8l1.2.5c-1.3 1.4-2.3 3.2-2.3 5.7s1 4.3 2.3 5.7l-1.2.5c-1.4-1.4-2.6-3.5-2.6-6.2s1.2-4.8 2.6-6.2zM518.5 86.2c.5.9 1.4 1.2 2.7 1.3 1.5.1 4.6 0 6.4-.1-.2.4-.4 1.1-.5 1.5-1.6.1-4.4.1-5.9 0-1.6-.1-2.6-.4-3.4-1.4-.6.5-1.2 1-1.9 1.6l-.7-1.5c.6-.3 1.2-.7 1.8-1.2v-2.8h-1.7V82h3.1v4.2zm-.8-5.8c-.4-.6-1.4-1.5-2.2-2.1l1.1-1c.8.5 1.8 1.4 2.3 2l-1.2 1.1zm3.3 6.5h-1.5v-6.7h2.9c-.6-.3-1.2-.5-1.7-.7l1-.8 1.5.6c.4-.2.7-.5 1-.7h-4.6v-1.2h6l.3-.1.9.7c-.7.6-1.5 1.2-2.3 1.8.3.1.6.3.8.4h1.6v5.4c0 .6-.1.9-.5 1.2-.4.2-1 .2-1.8.2-.1-.4-.2-.9-.4-1.2h1c.2 0 .2-.1.2-.2V85h-1.5v1.9h-1.4V85H521v1.9zm0-5.5v.7h1.5v-.7H521zm1.5 2.5v-.7H521v.7h1.5zm2.9-2.5h-1.5v.7h1.5v-.7zm0 2.5v-.7h-1.5v.7h1.5zM540 78.8v3.1h-1.5v-1.8h-8.1v1.8h-1.5v-3.1h1.8c-.2-.4-.5-.8-.7-1.1l1.4-.6c.4.4.8 1 .9 1.4l-.7.3h2.1V77h1.6v1.8h2l-.7-.3c.3-.4.7-1 .9-1.4l1.7.5c-.4.5-.7.9-1.1 1.2h1.9zm-.7 8.4c0 .7-.1 1.1-.7 1.3-.5.2-1.2.2-2.1.2-.1-.4-.3-1-.5-1.4h1.5c.2 0 .3-.1.3-.2v-1.3h-2.3v3.3h-1.6v-3.3h-2.4v2.7h-1.6v-4.1h4v-.8h-2.8v-3h6.9v3h-2.5v.8h3.9v2.8zm-6.9-4.6h3.9v-.8h-3.9v.8zM549.7 82.8v1.5h2.8v1.4h-2.8v1.4c0 .5.1.5.4.5h1c.3 0 .4-.3.5-1.5.3.3.9.5 1.4.6-.2 1.7-.6 2.2-1.7 2.2h-1.4c-1.4 0-1.8-.5-1.8-1.9v-1.4h-1.7c-.3 1.4-1.1 2.7-3.5 3.5-.2-.4-.7-.9-1-1.2 1.8-.5 2.6-1.4 2.9-2.2h-2.6v-1.4h2.8v-1.5h-1.1v-.4c-.5.4-1.1.7-1.7 1-.2-.4-.6-.9-.9-1.2.8-.3 1.5-.8 2.2-1.3-.3-.3-.9-.8-1.3-1.1l1-.8c.4.3.9.6 1.2 1 .3-.4.6-.8.8-1.2h-2.7v-1.3h3.4l.3-.1 1 .5c-.5 1.4-1.2 2.5-2.1 3.5h4.7c-1-1.1-1.8-2.4-2.4-4l1.4-.4c.2.5.4.9.6 1.4.4-.4.9-.8 1.2-1.2l1.2.8c-.5.5-1.1 1-1.7 1.4.2.2.4.5.6.7.5-.4 1.1-1 1.5-1.4l1.1.8c-.5.5-1.2 1-1.7 1.4.6.5 1.3.9 2 1.2-.4.3-.8.9-1.1 1.3-.6-.3-1.1-.6-1.6-1v.4h-1.2zm-1.6 0h-1.6v1.5h1.6v-1.5zM558.7 77.5c-.3.8-.7 1.7-1.2 2.5v9.1H556v-6.9c-.4.5-.7.9-1.1 1.2-.1-.4-.5-1.2-.8-1.6 1.2-1.2 2.4-3 3.1-4.9l1.5.6zm7.8 1.8v1.2h-8.3v-1.2h8.3zm-7.5 5.6h6.8v4.2h-1.6v-.5h-3.7v.5H559v-4.2zm6.6-2.5h-6.4v-1.2h6.4v1.2zm-6.4.7h6.3v1.2h-6.3v-1.2zm6.2-4.4h-6v-1.2h6v1.2zm-4.9 7.4v1.3h3.7v-1.3h-3.7zM571.8 86.6h-2.6v1.1h-1.4v-10h4.1v8.9zm-2.6-7.4v2.3h1.2v-2.3h-1.2zm1.2 6v-2.4h-1.2v2.4h1.2zm7.7-3v1.1h1.2v1.3h-1.2v2.8c0 .7-.1 1.1-.7 1.4-.5.2-1.2.3-2.2.3-.1-.4-.3-1-.5-1.5h1.5c.2 0 .3-.1.3-.2v-2.8h-4.6v-1.3h4.6v-1.1H572v-1.4h2.9v-1.1h-2.5v-1.4h2.5V77h1.5v1.4h2.6v1.4h-2.6v1.1h3v1.4h-1.3zm-4.3 2.6c.6.6 1.3 1.5 1.6 2.1l-1.3.8c-.2-.6-.9-1.5-1.5-2.2l1.2-.7zM581.7 89.3l-1.2-.5c1.3-1.4 2.3-3.2 2.3-5.7s-1-4.3-2.3-5.7l1.2-.5c1.4 1.4 2.6 3.5 2.6 6.2s-1.2 4.8-2.6 6.2zM230.6 105.1c0 .9-.8 1.7-1.7 1.7-.9 0-1.7-.8-1.7-1.7 0-.9.8-1.7 1.7-1.7.9 0 1.7.7 1.7 1.7zM238 104.5h-1.8v-1.3c0-.5 0-.9.1-1.2.1-.3.3-.6.5-.8s.6-.4.9-.6l.3.7c-.4.1-.6.3-.8.5-.2.2-.2.5-.2.8h.9v1.9zm3 0h-1.8v-1.3c0-.5 0-.9.1-1.2.1-.3.3-.6.5-.8.2-.2.6-.4.9-.6l.3.7c-.4.1-.6.3-.8.5-.2.2-.2.5-.2.8h.9v1.9zM242.5 107.8l1.7-.2c0 .4.2.6.3.8s.4.3.7.3c.4 0 .7-.2.9-.5s.4-1 .5-2.1c-.4.5-1 .8-1.7.8s-1.4-.3-1.9-.8c-.5-.6-.8-1.3-.8-2.2 0-.9.3-1.7.8-2.3.6-.6 1.3-.9 2.1-.9.9 0 1.7.4 2.3 1.1.6.7.9 1.9.9 3.6 0 1.7-.3 2.9-.9 3.7s-1.5 1.1-2.5 1.1c-.7 0-1.3-.2-1.8-.6-.2-.4-.5-1-.6-1.8zm4-3.8c0-.6-.1-1-.4-1.3-.3-.3-.6-.5-.9-.5-.3 0-.6.1-.8.4-.2.3-.3.7-.3 1.3 0 .6.1 1 .4 1.3.2.3.5.4.9.4.3 0 .6-.1.9-.4.1-.3.2-.7.2-1.2zM252.7 100.7c.9 0 1.6.3 2.1 1 .6.8.9 2 .9 3.8 0 1.8-.3 3-.9 3.8-.5.6-1.2 1-2.1 1-.9 0-1.6-.3-2.2-1-.6-.7-.8-1.9-.8-3.7 0-1.8.3-3 .9-3.8.5-.8 1.2-1.1 2.1-1.1zm0 1.4c-.2 0-.4.1-.6.2-.2.1-.3.4-.4.7-.1.5-.2 1.2-.2 2.3s.1 1.8.2 2.3c.1.4.2.7.4.8.2.1.4.2.6.2s.4-.1.6-.2c.2-.1.3-.4.4-.7.1-.5.2-1.2.2-2.3s-.1-1.8-.2-2.3c-.1-.4-.2-.7-.4-.8-.2-.1-.4-.2-.6-.2zM261.5 110h-1.8v-6.7c-.7.6-1.4 1.1-2.3 1.4V103c.5-.2 1-.4 1.5-.9.5-.4.9-.9 1.1-1.5h1.4v9.4zM264.4 100.7h1.8v1.3c0 .5 0 .9-.1 1.2s-.3.6-.5.8c-.2.2-.6.4-.9.6l-.3-.7c.4-.1.6-.3.8-.5s.2-.5.2-.8h-.9v-1.9zm3 0h1.8v1.3c0 .5 0 .9-.1 1.2-.1.3-.3.6-.5.8-.2.2-.6.4-.9.6l-.3-.7c.4-.1.6-.3.8-.5.2-.2.2-.5.2-.8h-.9v-1.9zM279.6 108.7v-2.4h-2.4v-1.7h2.4v-2.4h1.6v2.4h2.4v1.7h-2.4v2.4h-1.6zM296.8 98.9v1.4H294v6.9h-1.5v-8.3h4.3zM301.1 103.9c.5.5 1.6 1.8 1.8 2.2l-.9 1.3c-.2-.4-.6-1-.9-1.6v5.4h-1.5V106c-.4 1.1-.9 2.2-1.5 2.9-.1-.4-.5-1.1-.7-1.5.8-1 1.6-2.8 2-4.3h-1.7v-1.5h1.9V99h1.5v2.7h1.6v1.5h-1.6v.7zm8.2-4.2v11.2h-1.6v-.7h-3.1v.7h-1.5V99.7h6.2zm-4.6 1.4v1.6h3.1v-1.6h-3.1zm0 3v1.7h3.1v-1.7h-3.1zm3.1 4.8v-1.7h-3.1v1.7h3.1zM322.6 107.2h-5.1v2.1c0 .9-.2 1.3-.8 1.6-.6.2-1.6.3-2.9.3-.1-.4-.4-1.1-.6-1.5h2.3c.3 0 .4-.1.4-.4v-2.1h-5.1v-1.5h5.1v-1.5h-4.3v-1.5h4.3v-1.5c-1.4.1-2.7.2-4 .2 0-.4-.2-1-.4-1.4 3.1-.1 6.7-.5 8.8-1l1.1 1.3c-1.2.3-2.5.5-4 .7v1.7h4.4v1.5h-4.4v1.5h5.1v1.5zM333.7 109.5c.4 0 .5-.2.5-1.8.3.3 1 .5 1.4.6-.2 2.1-.6 2.6-1.8 2.6h-1.5c-1.5 0-1.8-.5-1.8-2v-3.2h-1.9c-.3 2.3-.9 4.3-3.9 5.4-.2-.4-.6-1-1-1.4 2.6-.8 3.1-2.3 3.3-4h-3.1v-1.5h5v-2.1h-2.2c-.3.7-.6 1.3-1 1.8l-1.4-.7c.8-1.1 1.5-2.8 1.7-4.1l1.6.3c-.1.4-.2.8-.4 1.3h1.7V99h1.6v1.8h4v1.5h-4v2.1h5v1.5h-3.4v3.2c0 .4.1.5.5.5h1.1zM344.8 103.8c1.1.8 2.6 1.4 4 1.8-.3.3-.8.9-1 1.3l-.9-.3v4.6h-1.5v-.4H340v.4h-1.5v-4.7c-.3.2-.7.3-1 .4-.2-.3-.6-.9-.9-1.2 1.4-.4 2.8-1.1 3.8-1.9h-3.5v-1.3h2.5c-.2-.4-.5-.9-.8-1.3l.6-.2h-1.3c0-.3-.2-.9-.3-1.2 3.1-.1 6.7-.4 8.9-.8l1 1.1c-.7.1-1.4.2-2.2.4l1.6.4c-.4.6-.7 1.1-1 1.6h2.6v1.3h-3.7zm1.1 2.2c-.9-.5-1.8-1.1-2.5-1.8v1.6h-1.5v-1.5c-.7.7-1.6 1.3-2.5 1.8h6.5zm-4 1.2H340v.7h1.9v-.7zm-1.9 2.4h1.9v-.7H340v.7zm1.9-8.7c-.6 0-1.2.1-1.7.1.3.4.6.9.8 1.3l-.6.2h1.6v-1.6zm3.5 6.3h-2.1v.7h2.1v-.7zm0 2.4v-.7h-2.1v.7h2.1zm-1-7.2c.3-.5.6-1.2.8-1.8-.6.1-1.2.1-1.8.2v1.8h1.4l-.4-.2zM354 105.6l-.2.8h6.3s0 .4-.1.6c-.3 2.1-.6 3.2-1 3.6-.4.4-.8.5-1.4.5h-2.2c0-.4-.2-1.1-.5-1.5.9.1 1.8.1 2.2.1.3 0 .5 0 .7-.1.2-.2.5-.8.6-1.8h-4.9c-.1.2-.2.5-.2.7l-1.7-.3c.3-.7.7-1.7.9-2.6H350v-1.4h11.6v1.4H354zm6-2.1h-8.5v-4.1h8.5v4.1zm-1.6-2.7H353v1.4h5.4v-1.4zM362.5 111.2v-1.4h2.8v-6.9h1.5v8.3h-4.3zM381.2 100.9c1.2-.1 2.5-.2 3.7-.4v1.5c-1.2.2-2.8.3-4.2.3-.2.5-.5.9-.7 1.3.3-.2 1-.3 1.5-.3.8 0 1.4.3 1.7 1 .7-.3 1.2-.5 1.8-.8.5-.2 1-.4 1.4-.7l.6 1.5c-.4.1-1.1.4-1.5.5-.6.2-1.3.5-2.1.9 0 .7 0 1.7.1 2.3h-1.6c0-.4.1-1 .1-1.6-1 .6-1.5 1.1-1.5 1.7 0 .7.6.9 1.9.9 1.1 0 2.5-.1 3.7-.4l-.1 1.7c-.9.1-2.5.2-3.7.2-2 0-3.5-.5-3.5-2.2 0-1.7 1.6-2.7 3-3.5-.2-.3-.5-.4-.9-.4-.7 0-1.5.4-2 .9-.4.4-.8.9-1.2 1.4l-1.4-1c1.4-1.3 2.3-2.4 2.9-3.6h-.2c-.5 0-1.5 0-2.2-.1v-1.5c.7.1 1.6.2 2.3.2h.6l.3-1.5 1.7.1c-.3.6-.4 1-.5 1.6zM399.3 101.1l-.7.3.9.6c-.1.3-.3.6-.4.9-.3 1.1-1 2.4-1.9 3.7.6.4 1.1.8 1.5 1.1l-1.2 1.5c-.4-.3-.8-.7-1.4-1.2-1.1 1.2-2.6 2.3-4.6 3.1l-1.5-1.3c2.2-.7 3.7-1.7 4.8-2.8-.8-.6-1.7-1.2-2.4-1.6l1.2-1.2c.7.4 1.5.9 2.3 1.5.7-.9 1.2-2.1 1.4-2.9h-3.7c-.9 1.2-2.1 2.5-3.4 3.4l-1.4-1.1c2.3-1.4 3.5-3.2 4.1-4.3.2-.3.5-.9.6-1.4l1.9.6c-.3.5-.7 1-.8 1.3h2.7c.4 0 .7 0 1-.1-.2-.5-.6-1.1-.8-1.5l1-.4c.1.5.6 1.3.8 1.8zm1.6-.6-1 .5c-.3-.5-.7-1.3-1.1-1.8l1-.4c.4.4.9 1.2 1.1 1.7zM407.7 102.6c1.3-.8 2.8-2.1 3.7-3.2l1.4 1.3c-1 1-2.2 2-3.5 2.8v5.3c0 .6 0 1.4.1 1.7h-2.1c.1-.3.1-1.1.1-1.7v-4.2c-1.3.7-3 1.4-4.6 1.9l-.8-1.6c2.3-.6 4.2-1.4 5.7-2.3zM419.1 100.5c.1.4.3.9.4 1.5 2-.4 4.3-.8 4.9-1 .3 0 .6-.1.8-.2l1.2.9c-.6 1.3-2.2 3.6-3.3 4.8l-1.7-.8c1-.8 2-2.2 2.4-2.9-.4.1-2.1.4-3.9.8.6 2.2 1.3 4.7 1.5 5.5l.4 1.2-1.9.5c-.1-.4-.2-.9-.3-1.3-.2-.8-.9-3.3-1.5-5.5-1.3.3-2.5.5-2.9.6l-.5-1.8c.5-.1 1-.1 1.5-.2.2 0 .8-.1 1.5-.3-.2-.6-.3-1.1-.4-1.5-.2-.6-.3-.9-.4-1.1l1.9-.4.3 1.2zM429.9 106.4c.4-1.1.4-3.6.4-5.1 0-.5 0-.9-.1-1.2h1.9c0 .1-.1.6-.1 1.2 0 1.5 0 4.3-.4 5.6-.4 1.5-1.2 2.7-2.3 3.7l-1.6-1.1c1.1-.8 1.8-2 2.2-3.1zm3.9 2.4v-7.6c0-.6-.1-1.1-.1-1.1h1.9s-.1.5-.1 1.1v6.8c1.1-.5 2.3-1.5 3.2-2.7l1 1.4c-1.1 1.4-3 2.8-4.4 3.5-.3.2-.4.3-.6.4l-1.1-.9c.2-.2.2-.6.2-.9zM442.3 101c1.1-.1 3.2-.3 5.6-.5 1.3-.1 2.8-.2 3.7-.2v1.7c-.7 0-1.8 0-2.5.2-1.6.4-2.8 2.1-2.8 3.6 0 2.1 2 2.9 4.2 3l-.6 1.8c-2.7-.2-5.3-1.6-5.3-4.5 0-1.9 1.1-3.4 1.9-4-1.2.1-3.9.4-5.4.7l-.2-1.8c.7.1 1.2 0 1.4 0zm8.5 4-1 .4c-.3-.7-.6-1.2-1-1.8l1-.4c.3.5.8 1.3 1 1.8zm1.5-.6-1 .5c-.4-.7-.7-1.2-1.1-1.8l.9-.4c.5.4 1 1.2 1.2 1.7zM484.9 100.9c-.1.4-.2.9-.3 1.3.4 0 .8-.1 1.1-.1 1.4 0 2.4.6 2.4 2.5 0 1.5-.2 3.6-.7 4.8-.4.9-1.1 1.2-2.1 1.2-.5 0-1.1-.1-1.6-.2l-.3-1.7c.5.1 1.2.3 1.6.3.4 0 .8-.1 1-.6.4-.7.5-2.3.5-3.6 0-1-.5-1.2-1.3-1.2-.2 0-.5 0-.9.1-.5 2-1.5 5.1-2.7 7l-1.7-.7c1.3-1.7 2.2-4.3 2.6-6.1-.5.1-.9.1-1.1.1-.4.1-1.1.2-1.5.2l-.2-1.8h1.4c.4 0 1-.1 1.7-.1.2-1 .3-1.9.3-2.7l1.9.2c0 .4-.1.8-.1 1.1zm5.5.2-.6.3c.8 1.2 1.8 3.4 2.1 4.5l-1.7.8c-.3-1.4-1.3-3.7-2.2-4.9l1.2-.5c-.3-.5-.6-1.1-.9-1.5l1-.4c.4.4.8 1.2 1.1 1.7zm1.5-.6-1 .4c-.3-.5-.7-1.3-1.1-1.8l1-.4c.4.5.9 1.4 1.1 1.8zM501 104.8v1.5h2.8v1.4H501v1.4c0 .5.1.5.4.5h1c.3 0 .4-.3.5-1.5.3.3.9.5 1.4.6-.2 1.7-.6 2.2-1.7 2.2h-1.4c-1.4 0-1.8-.5-1.8-1.9v-1.4h-1.7c-.3 1.4-1.1 2.7-3.5 3.5-.2-.4-.7-.9-1-1.2 1.8-.5 2.6-1.4 2.9-2.2h-2.6v-1.4h2.8v-1.5h-1.1v-.4c-.5.4-1.1.7-1.7 1-.2-.4-.6-.9-.9-1.2.8-.3 1.5-.8 2.2-1.3-.3-.3-.9-.8-1.3-1.1l1-.8c.4.3.9.6 1.2 1 .3-.4.6-.8.8-1.2h-2.7v-1.3h3.4l.3-.1 1 .5c-.5 1.4-1.2 2.5-2.1 3.5h4.7c-1-1.1-1.8-2.4-2.4-4l1.4-.4c.2.5.4.9.7 1.4.4-.4.9-.8 1.2-1.2l1.2.8c-.5.5-1.1 1-1.7 1.4.2.2.4.5.6.7.5-.4 1.1-1 1.5-1.4l1.1.8c-.5.5-1.2 1-1.7 1.4.6.5 1.3.9 2 1.2-.4.3-.8.9-1.1 1.3-.6-.3-1.1-.6-1.6-1v.4H501zm-1.6 0h-1.6v1.5h1.6v-1.5zM513.8 103.8c1.1.8 2.6 1.4 4 1.8-.3.3-.8.9-1 1.3l-.9-.3v4.6h-1.5v-.4H509v.4h-1.5v-4.7c-.3.2-.7.3-1 .4-.2-.3-.6-.9-.9-1.2 1.4-.4 2.8-1.1 3.8-1.9h-3.5v-1.3h2.5c-.2-.4-.5-.9-.8-1.3l.6-.2h-1.3c0-.3-.2-.9-.3-1.2 3.1-.1 6.7-.4 8.9-.8l1 1.1c-.7.1-1.4.2-2.2.4l1.6.4c-.4.6-.7 1.1-1 1.6h2.6v1.3h-3.7zm1.1 2.2c-.9-.5-1.8-1.1-2.5-1.8v1.6h-1.5v-1.5c-.7.7-1.6 1.3-2.5 1.8h6.5zm-4 1.2H509v.7h1.9v-.7zm-1.9 2.4h1.9v-.7H509v.7zm1.9-8.7c-.6 0-1.2.1-1.7.1.3.4.6.9.8 1.3l-.6.2h1.6v-1.6zm3.5 6.3h-2.1v.7h2.1v-.7zm0 2.4v-.7h-2.1v.7h2.1zm-1-7.2c.3-.5.6-1.2.8-1.8-.6.1-1.2.1-1.8.2v1.8h1.4l-.4-.2zM524.3 99.6l1.8-.2c.1.7.3 1.4.5 2 .9-.1 1.8-.4 2.7-.6l.2 1.6c-.7.2-1.5.4-2.3.5.4.8.8 1.7 1.2 2.1.2.3.5.6.7.9l-.8 1.2c-.7-.1-2.4-.3-3.5-.4l.1-1.4c.6.1 1.5.1 1.9.2-.4-.6-.9-1.5-1.2-2.4-1.5.1-3.3.1-5.6-.1v-1.7c2 .2 3.6.3 5 .2-.1-.3-.2-.6-.3-.8 0-.2-.2-.7-.4-1.1zm-2.3 8c0 1.1 1 1.6 2.8 1.6 1.4 0 2.6-.1 3.5-.3l-.1 1.6c-.7.1-1.9.3-3.5.3-2.7 0-4.3-1-4.3-2.9 0-.8.2-1.5.7-2.4l1.6.4c-.5.5-.7 1.1-.7 1.7zM534.7 99.5l1.9.1c-.1.4-.2 1-.3 1.8l.5.6c-.2.2-.4.7-.7 1v.3c1-.9 2.5-2 3.8-2 1.4 0 2 .8 2 1.9 0 1.4-.4 3.3-.4 4.6 0 .3.2.6.5.6.5 0 1.1-.3 1.7-.9l.2 1.8c-.6.6-1.4 1-2.4 1s-1.6-.7-1.6-2c0-1.4.5-3.3.5-4.5 0-.6-.3-1-.9-1-1 0-2.4 1.2-3.4 2.4v1.1c0 1.1 0 2.2.1 3.4 0 .2.1.7.1 1h-1.8v-1c0-1 0-1.8.1-2.9-.5.8-1.2 1.8-1.6 2.4l-1-1.4c.7-.9 2-2.6 2.8-3.7 0-.3.1-.6.1-.9-.6.1-1.6.2-2.4.3l-.2-1.7h1.1c.4 0 .9-.1 1.5-.2 0-.5.1-.9.1-1-.3-.4-.3-.7-.3-1.1zM548.2 100.2c.7 0 3.5-.1 4.2-.1.5-.1.8-.1 1-.1l.8 1.2-.9.6c-.7.5-2.1 1.6-2.9 2.3.4-.1.8-.1 1.2-.1 2.2 0 3.9 1.4 3.9 3.3 0 2.1-1.6 3.7-4.7 3.7-1.8 0-3.2-.8-3.2-2.1 0-1.1.9-2 2.3-2 1.6 0 2.6 1 2.8 2.2.7-.4 1.1-1 1.1-1.8 0-1.2-1.2-2-2.7-2-2 0-3.3 1.1-4.7 2.6l-1.2-1.2c.9-.7 2.5-2.1 3.3-2.7.7-.6 2.1-1.7 2.7-2.2-.7 0-2.5.1-3.1.1-.4 0-.8.1-1.1.1l-.1-1.7c.5-.2 1-.1 1.3-.1zm2.4 9.1h.8c-.1-.8-.6-1.4-1.3-1.4-.5 0-.8.3-.8.6-.1.4.5.8 1.3.8zM230.6 127.1c0 .9-.8 1.7-1.7 1.7-.9 0-1.7-.8-1.7-1.7 0-.9.8-1.7 1.7-1.7.9 0 1.7.7 1.7 1.7zM238 126.5h-1.8v-1.3c0-.5 0-.9.1-1.2.1-.3.3-.6.5-.8s.6-.4.9-.6l.3.7c-.4.1-.6.3-.8.5-.2.2-.2.5-.2.8h.9v1.9zm3 0h-1.8v-1.3c0-.5 0-.9.1-1.2.1-.3.3-.6.5-.8.2-.2.6-.4.9-.6l.3.7c-.4.1-.6.3-.8.5-.2.2-.2.5-.2.8h.9v1.9zM242.5 129.8l1.7-.2c0 .4.2.6.3.8s.4.3.7.3c.4 0 .7-.2.9-.5s.4-1 .5-2.1c-.4.5-1 .8-1.7.8s-1.4-.3-1.9-.8c-.5-.6-.8-1.3-.8-2.2 0-.9.3-1.7.8-2.3.6-.6 1.3-.9 2.1-.9.9 0 1.7.4 2.3 1.1.6.7.9 1.9.9 3.6 0 1.7-.3 2.9-.9 3.7s-1.5 1.1-2.5 1.1c-.7 0-1.3-.2-1.8-.6-.2-.4-.5-1-.6-1.8zm4-3.8c0-.6-.1-1-.4-1.3-.3-.3-.6-.5-.9-.5-.3 0-.6.1-.8.4-.2.3-.3.7-.3 1.3 0 .6.1 1 .4 1.3.2.3.5.4.9.4.3 0 .6-.1.9-.4.1-.3.2-.7.2-1.2zM252.7 122.7c.9 0 1.6.3 2.1 1 .6.8.9 2 .9 3.8 0 1.8-.3 3-.9 3.8-.5.6-1.2 1-2.1 1-.9 0-1.6-.3-2.2-1-.6-.7-.8-1.9-.8-3.7 0-1.8.3-3 .9-3.8.5-.8 1.2-1.1 2.1-1.1zm0 1.4c-.2 0-.4.1-.6.2-.2.1-.3.4-.4.7-.1.5-.2 1.2-.2 2.3s.1 1.8.2 2.3c.1.4.2.7.4.8.2.1.4.2.6.2s.4-.1.6-.2c.2-.1.3-.4.4-.7.1-.5.2-1.2.2-2.3s-.1-1.8-.2-2.3c-.1-.4-.2-.7-.4-.8-.2-.1-.4-.2-.6-.2zM262.9 130.3v1.7h-6.3c.1-.6.3-1.2.6-1.8.3-.6 1-1.3 2-2.2.8-.7 1.3-1.3 1.5-1.5.2-.4.4-.7.4-1.1 0-.4-.1-.7-.3-.9-.2-.2-.5-.3-.9-.3s-.7.1-.9.3-.3.6-.4 1.1l-1.8-.2c.1-1 .4-1.7 1-2.1s1.3-.6 2.1-.6c.9 0 1.6.2 2.2.7s.8 1.1.8 1.8c0 .4-.1.8-.2 1.2-.1.4-.4.8-.7 1.2-.2.3-.6.7-1.2 1.2s-.9.9-1.1 1c-.2.2-.3.3-.4.5h3.6zM264.4 122.7h1.8v1.3c0 .5 0 .9-.1 1.2s-.3.6-.5.8c-.2.2-.6.4-.9.6l-.3-.7c.4-.1.6-.3.8-.5s.2-.5.2-.8h-.9v-1.9zm3 0h1.8v1.3c0 .5 0 .9-.1 1.2-.1.3-.3.6-.5.8-.2.2-.6.4-.9.6l-.3-.7c.4-.1.6-.3.8-.5.2-.2.2-.5.2-.8h-.9v-1.9zM279.6 130.7v-2.4h-2.4v-1.7h2.4v-2.4h1.6v2.4h2.4v1.7h-2.4v2.4h-1.6zM296.8 120.9v1.4H294v6.9h-1.5v-8.3h4.3zM301.1 125.9c.5.5 1.6 1.8 1.8 2.2l-.9 1.3c-.2-.4-.6-1-.9-1.6v5.4h-1.5V128c-.4 1.1-.9 2.2-1.5 2.9-.1-.4-.5-1.1-.7-1.5.8-1 1.6-2.8 2-4.3h-1.7v-1.5h1.9V121h1.5v2.7h1.6v1.5h-1.6v.7zm8.2-4.2v11.2h-1.6v-.7h-3.1v.7h-1.5v-11.3h6.2zm-4.6 1.4v1.6h3.1v-1.6h-3.1zm0 3v1.7h3.1v-1.7h-3.1zm3.1 4.8v-1.7h-3.1v1.7h3.1zM322.6 129.2h-5.1v2.1c0 .9-.2 1.3-.8 1.6-.6.2-1.6.3-2.9.3-.1-.4-.4-1.1-.6-1.5h2.3c.3 0 .4-.1.4-.4v-2.1h-5.1v-1.5h5.1v-1.5h-4.3v-1.5h4.3v-1.5c-1.4.1-2.7.2-4 .2 0-.4-.2-1-.4-1.4 3.1-.1 6.7-.5 8.8-1l1.1 1.3c-1.2.3-2.5.5-4 .7v1.7h4.4v1.5h-4.4v1.5h5.1v1.5zM333.7 131.5c.4 0 .5-.2.5-1.8.3.3 1 .5 1.4.6-.2 2.1-.6 2.6-1.8 2.6h-1.5c-1.5 0-1.8-.5-1.8-2v-3.2h-1.9c-.3 2.3-.9 4.3-3.9 5.4-.2-.4-.6-1-1-1.4 2.6-.8 3.1-2.3 3.3-4h-3.1v-1.5h5v-2.1h-2.2c-.3.7-.6 1.3-1 1.8l-1.4-.7c.8-1.1 1.5-2.8 1.7-4.1l1.6.3c-.1.4-.2.8-.4 1.3h1.7V121h1.6v1.8h4v1.5h-4v2.1h5v1.5h-3.4v3.2c0 .4.1.5.5.5h1.1zM344.8 125.8c1.1.8 2.6 1.4 4 1.8-.3.3-.8.9-1 1.3l-.9-.3v4.6h-1.5v-.4H340v.4h-1.5v-4.7c-.3.2-.7.3-1 .4-.2-.3-.6-.9-.9-1.2 1.4-.4 2.8-1.1 3.8-1.9h-3.5v-1.3h2.5c-.2-.4-.5-.9-.8-1.3l.6-.2h-1.3c0-.3-.2-.9-.3-1.2 3.1-.1 6.7-.4 8.9-.8l1 1.1c-.7.1-1.4.2-2.2.4l1.6.4c-.4.6-.7 1.1-1 1.6h2.6v1.3h-3.7zm1.1 2.2c-.9-.5-1.8-1.1-2.5-1.8v1.6h-1.5v-1.5c-.7.7-1.6 1.3-2.5 1.8h6.5zm-4 1.2H340v.7h1.9v-.7zm-1.9 2.4h1.9v-.7H340v.7zm1.9-8.7c-.6 0-1.2.1-1.7.1.3.4.6.9.8 1.3l-.6.2h1.6v-1.6zm3.5 6.3h-2.1v.7h2.1v-.7zm0 2.4v-.7h-2.1v.7h2.1zm-1-7.2c.3-.5.6-1.2.8-1.8-.6.1-1.2.1-1.8.2v1.8h1.4l-.4-.2zM354 127.6l-.2.8h6.3s0 .4-.1.6c-.3 2.1-.6 3.2-1 3.6-.4.4-.8.5-1.4.5h-2.2c0-.4-.2-1.1-.5-1.5.9.1 1.8.1 2.2.1.3 0 .5 0 .7-.1.2-.2.5-.8.6-1.8h-4.9c-.1.2-.2.5-.2.7l-1.7-.3c.3-.7.7-1.7.9-2.6H350v-1.4h11.6v1.4H354zm6-2.1h-8.5v-4.1h8.5v4.1zm-1.6-2.7H353v1.4h5.4v-1.4zM362.5 133.2v-1.4h2.8v-6.9h1.5v8.3h-4.3zM381.2 122.9c1.2-.1 2.5-.2 3.7-.4v1.5c-1.2.2-2.8.3-4.2.3-.2.5-.5.9-.7 1.3.3-.2 1-.3 1.5-.3.8 0 1.4.3 1.7 1 .7-.3 1.2-.5 1.8-.8.5-.2 1-.4 1.4-.7l.6 1.5c-.4.1-1.1.4-1.5.5-.6.2-1.3.5-2.1.9 0 .7 0 1.7.1 2.3h-1.6c0-.4.1-1 .1-1.6-1 .6-1.5 1.1-1.5 1.7 0 .7.6.9 1.9.9 1.1 0 2.5-.1 3.7-.4l-.1 1.7c-.9.1-2.5.2-3.7.2-2 0-3.5-.5-3.5-2.2 0-1.7 1.6-2.7 3-3.5-.2-.3-.5-.4-.9-.4-.7 0-1.5.4-2 .9-.4.4-.8.9-1.2 1.4l-1.4-1c1.4-1.3 2.3-2.4 2.9-3.6h-.2c-.5 0-1.5 0-2.2-.1v-1.5c.7.1 1.6.2 2.3.2h.6l.3-1.5 1.7.1c-.3.6-.4 1-.5 1.6zM399.3 123.1l-.7.3.9.6c-.1.3-.3.6-.4.9-.3 1.1-1 2.4-1.9 3.7.6.4 1.1.8 1.5 1.1l-1.2 1.5c-.4-.3-.8-.7-1.4-1.2-1.1 1.2-2.6 2.3-4.6 3.1l-1.5-1.3c2.2-.7 3.7-1.7 4.8-2.8-.8-.6-1.7-1.2-2.4-1.6l1.2-1.2c.7.4 1.5.9 2.3 1.5.7-.9 1.2-2.1 1.4-2.9h-3.7c-.9 1.2-2.1 2.5-3.4 3.4l-1.4-1.1c2.3-1.4 3.5-3.2 4.1-4.3.2-.3.5-.9.6-1.4l1.9.6c-.3.5-.7 1-.8 1.3h2.7c.4 0 .7 0 1-.1-.2-.5-.6-1.1-.8-1.5l1-.4c.1.5.6 1.3.8 1.8zm1.6-.6-1 .5c-.3-.5-.7-1.3-1.1-1.8l1-.4c.4.4.9 1.2 1.1 1.7zM407.7 124.6c1.3-.8 2.8-2.1 3.7-3.2l1.4 1.3c-1 1-2.2 2-3.5 2.8v5.3c0 .6 0 1.4.1 1.7h-2.1c.1-.3.1-1.1.1-1.7v-4.2c-1.3.7-3 1.4-4.6 1.9l-.8-1.6c2.3-.6 4.2-1.4 5.7-2.3zM419.1 122.5c.1.4.3.9.4 1.5 2-.4 4.3-.8 4.9-1 .3 0 .6-.1.8-.2l1.2.9c-.6 1.3-2.2 3.6-3.3 4.8l-1.7-.8c1-.8 2-2.2 2.4-2.9-.4.1-2.1.4-3.9.8.6 2.2 1.3 4.7 1.5 5.5l.4 1.2-1.9.5c-.1-.4-.2-.9-.3-1.3-.2-.8-.9-3.3-1.5-5.5-1.3.3-2.5.5-2.9.6l-.5-1.8c.5-.1 1-.1 1.5-.2.2 0 .8-.1 1.5-.3-.2-.6-.3-1.1-.4-1.5-.2-.6-.3-.9-.4-1.1l1.9-.4.3 1.2zM429.9 128.4c.4-1.1.4-3.6.4-5.1 0-.5 0-.9-.1-1.2h1.9c0 .1-.1.6-.1 1.2 0 1.5 0 4.3-.4 5.6-.4 1.5-1.2 2.7-2.3 3.7l-1.6-1.1c1.1-.8 1.8-2 2.2-3.1zm3.9 2.4v-7.6c0-.6-.1-1.1-.1-1.1h1.9s-.1.5-.1 1.1v6.8c1.1-.5 2.3-1.5 3.2-2.7l1 1.4c-1.1 1.4-3 2.8-4.4 3.5-.3.2-.4.3-.6.4l-1.1-.9c.2-.2.2-.6.2-.9zM442.3 123c1.1-.1 3.2-.3 5.6-.5 1.3-.1 2.8-.2 3.7-.2v1.7c-.7 0-1.8 0-2.5.2-1.6.4-2.8 2.1-2.8 3.6 0 2.1 2 2.9 4.2 3l-.6 1.8c-2.7-.2-5.3-1.6-5.3-4.5 0-1.9 1.1-3.4 1.9-4-1.2.1-3.9.4-5.4.7l-.2-1.8c.7.1 1.2 0 1.4 0zm8.5 4-1 .4c-.3-.7-.6-1.2-1-1.8l1-.4c.3.5.8 1.3 1 1.8zm1.5-.6-1 .5c-.4-.7-.7-1.2-1.1-1.8l.9-.4c.5.4 1 1.2 1.2 1.7zM484.9 122.9c-.1.4-.2.9-.3 1.3.4 0 .8-.1 1.1-.1 1.4 0 2.4.6 2.4 2.5 0 1.5-.2 3.6-.7 4.8-.4.9-1.1 1.2-2.1 1.2-.5 0-1.1-.1-1.6-.2l-.3-1.7c.5.1 1.2.3 1.6.3.4 0 .8-.1 1-.6.4-.7.5-2.3.5-3.6 0-1-.5-1.2-1.3-1.2-.2 0-.5 0-.9.1-.5 2-1.5 5.1-2.7 7l-1.7-.7c1.3-1.7 2.2-4.3 2.6-6.1-.5.1-.9.1-1.1.1-.4.1-1.1.2-1.5.2l-.2-1.8h1.4c.4 0 1-.1 1.7-.1.2-1 .3-1.9.3-2.7l1.9.2c0 .4-.1.8-.1 1.1zm5.5.2-.6.3c.8 1.2 1.8 3.4 2.1 4.5l-1.7.8c-.3-1.4-1.3-3.7-2.2-4.9l1.2-.5c-.3-.5-.6-1.1-.9-1.5l1-.4c.4.4.8 1.2 1.1 1.7zm1.5-.6-1 .4c-.3-.5-.7-1.3-1.1-1.8l1-.4c.4.5.9 1.4 1.1 1.8zM501 126.8v1.5h2.8v1.4H501v1.4c0 .5.1.5.4.5h1c.3 0 .4-.3.5-1.5.3.3.9.5 1.4.6-.2 1.7-.6 2.2-1.7 2.2h-1.4c-1.4 0-1.8-.5-1.8-1.9v-1.4h-1.7c-.3 1.4-1.1 2.7-3.5 3.5-.2-.4-.7-.9-1-1.2 1.8-.5 2.6-1.4 2.9-2.2h-2.6v-1.4h2.8v-1.5h-1.1v-.4c-.5.4-1.1.7-1.7 1-.2-.4-.6-.9-.9-1.2.8-.3 1.5-.8 2.2-1.3-.3-.3-.9-.8-1.3-1.1l1-.8c.4.3.9.6 1.2 1 .3-.4.6-.8.8-1.2h-2.7v-1.3h3.4l.3-.1 1 .5c-.5 1.4-1.2 2.5-2.1 3.5h4.7c-1-1.1-1.8-2.4-2.4-4l1.4-.4c.2.5.4.9.7 1.4.4-.4.9-.8 1.2-1.2l1.2.8c-.5.5-1.1 1-1.7 1.4.2.2.4.5.6.7.5-.4 1.1-1 1.5-1.4l1.1.8c-.5.5-1.2 1-1.7 1.4.6.5 1.3.9 2 1.2-.4.3-.8.9-1.1 1.3-.6-.3-1.1-.6-1.6-1v.4H501zm-1.6 0h-1.6v1.5h1.6v-1.5zM513.8 125.8c1.1.8 2.6 1.4 4 1.8-.3.3-.8.9-1 1.3l-.9-.3v4.6h-1.5v-.4H509v.4h-1.5v-4.7c-.3.2-.7.3-1 .4-.2-.3-.6-.9-.9-1.2 1.4-.4 2.8-1.1 3.8-1.9h-3.5v-1.3h2.5c-.2-.4-.5-.9-.8-1.3l.6-.2h-1.3c0-.3-.2-.9-.3-1.2 3.1-.1 6.7-.4 8.9-.8l1 1.1c-.7.1-1.4.2-2.2.4l1.6.4c-.4.6-.7 1.1-1 1.6h2.6v1.3h-3.7zm1.1 2.2c-.9-.5-1.8-1.1-2.5-1.8v1.6h-1.5v-1.5c-.7.7-1.6 1.3-2.5 1.8h6.5zm-4 1.2H509v.7h1.9v-.7zm-1.9 2.4h1.9v-.7H509v.7zm1.9-8.7c-.6 0-1.2.1-1.7.1.3.4.6.9.8 1.3l-.6.2h1.6v-1.6zm3.5 6.3h-2.1v.7h2.1v-.7zm0 2.4v-.7h-2.1v.7h2.1zm-1-7.2c.3-.5.6-1.2.8-1.8-.6.1-1.2.1-1.8.2v1.8h1.4l-.4-.2zM524.3 121.6l1.8-.2c.1.7.3 1.4.5 2 .9-.1 1.8-.4 2.7-.6l.2 1.6c-.7.2-1.5.4-2.3.5.4.8.8 1.7 1.2 2.1.2.3.5.6.7.9l-.8 1.2c-.7-.1-2.4-.3-3.5-.4l.1-1.4c.6.1 1.5.1 1.9.2-.4-.6-.9-1.5-1.2-2.4-1.5.1-3.3.1-5.6-.1v-1.7c2 .2 3.6.3 5 .2-.1-.3-.2-.6-.3-.8 0-.2-.2-.7-.4-1.1zm-2.3 8c0 1.1 1 1.6 2.8 1.6 1.4 0 2.6-.1 3.5-.3l-.1 1.6c-.7.1-1.9.3-3.5.3-2.7 0-4.3-1-4.3-2.9 0-.8.2-1.5.7-2.4l1.6.4c-.5.5-.7 1.1-.7 1.7zM534.7 121.5l1.9.1c-.1.4-.2 1-.3 1.8l.5.6c-.2.2-.4.7-.7 1v.3c1-.9 2.5-2 3.8-2 1.4 0 2 .8 2 1.9 0 1.4-.4 3.3-.4 4.6 0 .3.2.6.5.6.5 0 1.1-.3 1.7-.9l.2 1.8c-.6.6-1.4 1-2.4 1s-1.6-.7-1.6-2c0-1.4.5-3.3.5-4.5 0-.6-.3-1-.9-1-1 0-2.4 1.2-3.4 2.4v1.1c0 1.1 0 2.2.1 3.4 0 .2.1.7.1 1h-1.8v-1c0-1 0-1.8.1-2.9-.5.8-1.2 1.8-1.6 2.4l-1-1.4c.7-.9 2-2.6 2.8-3.7 0-.3.1-.6.1-.9-.6.1-1.6.2-2.4.3l-.2-1.7h1.1c.4 0 .9-.1 1.5-.2 0-.5.1-.9.1-1-.3-.4-.3-.7-.3-1.1zM548.2 122.2c.7 0 3.5-.1 4.2-.1.5-.1.8-.1 1-.1l.8 1.2-.9.6c-.7.5-2.1 1.6-2.9 2.3.4-.1.8-.1 1.2-.1 2.2 0 3.9 1.4 3.9 3.3 0 2.1-1.6 3.7-4.7 3.7-1.8 0-3.2-.8-3.2-2.1 0-1.1.9-2 2.3-2 1.6 0 2.6 1 2.8 2.2.7-.4 1.1-1 1.1-1.8 0-1.2-1.2-2-2.7-2-2 0-3.3 1.1-4.7 2.6l-1.2-1.2c.9-.7 2.5-2.1 3.3-2.7.7-.6 2.1-1.7 2.7-2.2-.7 0-2.5.1-3.1.1-.4 0-.8.1-1.1.1l-.1-1.7c.5-.2 1-.1 1.3-.1zm2.4 9.1h.8c-.1-.8-.6-1.4-1.3-1.4-.5 0-.8.3-.8.6-.1.4.5.8 1.3.8z"/><circle class="st4" cx="40" cy="40" r="40"/><path class="st3" d="M134.6 101V91h2v10h-2zM138.5 101V91h3.2c1.2 0 2 .1 2.4.2.6.2 1.1.5 1.4 1s.6 1.2.6 2c0 .6-.1 1.1-.3 1.6s-.5.7-.9 1-.7.4-1 .5c-.5.1-1.2.1-2.1.1h-1.3v3.8h-2zm2.1-8.3v2.8h1.1c.8 0 1.3-.1 1.6-.2s.5-.3.6-.5.2-.5.2-.8c0-.4-.1-.7-.3-.9s-.5-.4-.8-.4c-.2 0-.7-.1-1.5-.1h-.9zM152.7 94.2h-1.5v-2.8h5.3v-.5h-4.3v-1.2h10.3v1.2h-4.4v.5h5.4v2.8H162v-1.7h-3.9v2.9h-1.6v-2.9h-3.8v1.7zm9 6.7c.7 0 .8-.2.9-1.4.3.2 1 .4 1.4.5-.2 1.7-.6 2.1-2.2 2.1h-2.9c-1.9 0-2.5-.4-2.5-1.9h-2.3v.6h-1.6v-5.1h9.7v4.5H158c0 .5.2.6 1 .6h2.7zm-8.7-6.5h3v.9h-3v-.9zm3-.5h-2.8V93h2.8v.9zm-1.9 3v.6h2.3v-.6h-2.3zm2.3 2.2v-.6h-2.3v.6h2.3zm4.2-2.2H158v.6h2.5v-.6zm0 2.2v-.6H158v.6h2.6zm.8-6.1v.9h-2.7V93h2.7zm-2.7 1.4h3.1v.9h-3.1v-.9zM164.8 91.5h5.3v1.3h-5.3v-1.3zm5 10.2h-2.9v.5h-1.4v-4.8h4.3v4.3zm-.1-6.9h-4.2v-1.2h4.2v1.2zm-4.2.7h4.2v1.3h-4.2v-1.3zm4.2-4.7h-4.1v-1.3h4.1v1.3zm-2.9 7.9v1.6h1.5v-1.6h-1.5zm8.2-4v1.8h2.5v5.6h-1.7v-.6h-3.2v.7H171v-5.6h2.3v-1.8h-3v-1.6h3v-1.7c-.8.1-1.6.2-2.3.2-.1-.4-.3-1-.4-1.4 2.1-.2 4.5-.5 5.9-1l1.2 1.4c-.8.2-1.7.4-2.6.6v1.9h3v1.6H175zm.7 3.4h-3.2v2h3.2v-2z"/><circle class="st4" cx="156" cy="40" r="40"/><path class="st3" d="M648 89.7v12.5h-1.7v-.6h-8.5v.6h-1.7V89.7H648zm-1.8 10.4v-8.8h-8.5v8.8h8.5zm-3.4-5.7v1.1h2.3v3.7H639v-3.7h2.2v-1.1h-2.8V93h2.8v-1.3h1.6V93h2.9v1.3h-2.9zm.8 2.3h-3.1v1.2h3.1v-1.2zM656.9 100.3c.5.1 1 .1 1.6.1h4c-.2.4-.5 1.2-.6 1.7h-3.5c-2.6 0-4.5-.4-5.8-2.4-.4 1.1-1.1 2-1.9 2.6-.3-.3-1-.9-1.4-1.1 1.5-1.1 2.2-3.1 2.5-5.4l1.7.2-.3 1.8c.4 1.1 1.1 1.8 1.9 2.2v-4.9h-3v-1.6h7.7v1.6h-3v1.8h3.9v1.6h-3.9v1.8zm-5.2-6.2H650v-3.5h5.1v-1.4h1.8v1.4h5.1v3.5h-1.7v-1.9h-8.6v1.9zM665.3 94.2h-1.5v-2.8h5.3v-.5h-4.3v-1.2h10.3v1.2h-4.4v.5h5.4v2.8h-1.5v-1.7h-3.9v2.9h-1.6v-2.9h-3.8v1.7zm9 6.7c.7 0 .8-.2.9-1.4.3.2 1 .4 1.4.5-.2 1.7-.6 2.1-2.2 2.1h-2.9c-1.9 0-2.5-.4-2.5-1.9h-2.3v.6h-1.6v-5.1h9.7v4.5h-4.2c0 .5.2.6 1 .6h2.7zm-8.7-6.5h3v.9h-3v-.9zm3-.5h-2.8V93h2.8v.9zm-1.9 3v.6h2.3v-.6h-2.3zm2.4 2.2v-.6h-2.3v.6h2.3zm4.1-2.2h-2.5v.6h2.5v-.6zm0 2.2v-.6h-2.5v.6h2.5zm.8-6.1v.9h-2.7V93h2.7zm-2.7 1.4h3.1v.9h-3.1v-.9zM677.5 91.5h5.3v1.3h-5.3v-1.3zm4.9 10.2h-2.9v.5h-1.4v-4.8h4.3v4.3zm-.1-6.9h-4.2v-1.2h4.2v1.2zm-4.2.7h4.2v1.3h-4.2v-1.3zm4.2-4.7h-4.1v-1.3h4.1v1.3zm-2.8 7.9v1.6h1.5v-1.6h-1.5zm8.1-4v1.8h2.5v5.6h-1.7v-.6h-3.2v.7h-1.6v-5.6h2.3v-1.8h-3v-1.6h3v-1.7c-.8.1-1.6.2-2.3.2-.1-.4-.3-1-.4-1.4 2.1-.2 4.5-.5 5.9-1l1.2 1.4c-.8.2-1.7.4-2.6.6v1.9h3v1.6h-3.1zm.8 3.4h-3.2v2h3.2v-2zM716.3 42.4c0-1.3.4-2.3 1.1-3 .6-.5 1.4-.8 2.3-.8 1 0 1.8.3 2.4 1 .6.7 1 1.6 1 2.7 0 .9-.1 1.7-.4 2.2s-.7 1-1.2 1.2c-.5.3-1.1.4-1.8.4-1 0-1.8-.3-2.5-1-.6-.6-.9-1.5-.9-2.7zm1.2 0c0 .9.2 1.6.6 2.1.4.5.9.7 1.5.7s1.1-.2 1.5-.7c.4-.5.6-1.2.6-2.1 0-.9-.2-1.6-.6-2-.4-.5-.9-.7-1.5-.7s-1.1.2-1.5.7c-.4.3-.6 1-.6 2zM724.5 46v-7.3h1.1v1.1c.3-.5.5-.9.8-1s.5-.2.8-.2c.4 0 .8.1 1.3.4l-.4 1.1c-.3-.2-.6-.3-.9-.3-.3 0-.5.1-.7.2-.2.2-.4.4-.5.7-.1.4-.2.9-.2 1.4V46h-1.3z"/><circle class="st4" cx="663" cy="40" r="40"/><path class="st3" d="M769.2 92.4c-.5 1.1-1.3 2.6-2.2 3.9 1.4 1.2 3.1 3 3.9 4l-1.6 1.4c-.9-1.3-2.2-2.7-3.5-4-1.5 1.6-3.3 3-5.3 3.9l-1.4-1.5c2.3-.8 4.4-2.5 5.7-4 .9-1.1 1.8-2.4 2.1-3.4h-4.7c-.6 0-1.4.1-1.7.1v-2c.4.1 1.2.1 1.7.1h4.9c.6 0 1.2-.1 1.4-.2l1.1.9c0 .1-.3.5-.4.8zM784.9 92.8c-1 1.6-2.8 3.9-4.8 5.5.8.8 1.6 1.7 2.2 2.4l-1.6 1.3c-.6-.8-1.8-2.1-2.7-3-.8-.8-2.2-2.1-3.1-2.7l1.5-1.2c.6.4 1.5 1.2 2.4 1.9 1.6-1.3 2.9-2.9 3.6-4H775c-.6 0-1.3.1-1.6.1v-2c.4.1 1.1.1 1.6.1h7.8c.5 0 1-.1 1.3-.2l1.4 1.1c-.3.3-.5.5-.6.7zM788.3 99.7l-1.5-1c.9-.9 2.1-2.4 2.6-3.6l1.6.7c-.7 1.2-2 3.1-2.7 3.9zm5.8-8.7v1.1h3.2c.4 0 1 0 1.4-.1v1.8H794v6.5c0 .8-.5 1.3-1.5 1.3-.7 0-1.6 0-2.3-.1l-.2-1.7c.6.1 1.2.2 1.6.2.4 0 .5-.1.5-.5v-5.6h-3.6c-.4 0-1 0-1.3.1v-2c.4 0 .9.1 1.3.1h3.6V91c0-.4-.1-1-.1-1.2h2.1c.1.2 0 .8 0 1.2zm5.3 7.7-1.6.9c-.6-1.2-1.6-2.9-2.3-3.8l1.5-.8c.7.9 1.8 2.7 2.4 3.7z"/><circle class="st4" cx="779" cy="40" r="40"/><path class="st0" d="M783 134c0 8.8-7.2 16-16 16h-94c-8.8 0-16-7.2-16-16s7.2-16 16-16h94c8.8 0 16 7.2 16 16z"/><path class="st5" d="M700.9 132.6c.6.6 1.9 2.3 2.2 2.7l-1.1 1.6c-.2-.5-.7-1.3-1.2-2v6.7H699v-6.3c-.5 1.4-1.1 2.7-1.8 3.6-.2-.5-.6-1.3-.9-1.8 1-1.3 2-3.4 2.5-5.3h-2.1V130h2.3v-3.3h1.8v3.3h2v1.8h-2v.8zm10.1-5.2v13.8h-2v-.8h-3.8v.9h-1.8v-13.9h7.6zm-5.7 1.8v2h3.8v-2h-3.8zm0 3.7v2h3.8v-2h-3.8zm3.7 5.8v-2h-3.8v2h3.8zM727.3 136.6H721v2.6c0 1.1-.3 1.6-1 1.9-.8.3-1.9.3-3.6.3-.1-.5-.5-1.4-.8-1.9h2.9c.4 0 .5-.1.5-.4v-2.6h-6.3v-1.9h6.3v-1.9h-5.2V131h5.2v-1.9c-1.7.1-3.3.2-4.9.3 0-.5-.3-1.3-.5-1.7 3.9-.2 8.2-.6 10.9-1.3l1.4 1.6c-1.4.4-3.1.6-4.9.8v2.1h5.4v1.8H721v1.9h6.3v2zM740.9 139.4c.5 0 .6-.3.6-2.2.4.3 1.2.6 1.7.8-.2 2.5-.7 3.2-2.2 3.2h-1.9c-1.8 0-2.2-.6-2.2-2.4v-3.9h-2.3c-.4 2.8-1.2 5.2-4.9 6.6-.2-.5-.8-1.3-1.2-1.7 3.2-1 3.8-2.8 4-4.9h-3.8v-1.8h6.1v-2.6H732c-.4.8-.8 1.6-1.2 2.2-.4-.3-1.2-.7-1.7-.8 1-1.3 1.8-3.5 2.1-5.1l2 .4c-.1.5-.3 1-.5 1.6h2.1v-2.2h1.9v2.2h4.9v1.8H737v2.6h6.2v1.8H739v3.9c0 .5.1.6.6.6h1.3z"/><path class="st0" d="M173 23h-17.7c-.5 0-1 .4-1 1s.4 1 1 1H173c1.8 0 3.3 1.5 3.3 3.3v26c0 1.8-1.5 3.3-3.3 3.3h-33c-1.8 0-3.3-1.5-3.3-3.3v-26c0-1.8 1.4-3.2 3.1-3.3v23.9c0 2.6 2.1 4.8 4.8 4.8h3.4c2.6 0 4.8-2.1 4.8-4.8V23.7c0-2.6-2.1-4.8-4.8-4.8h-3.4c-2.4 0-4.4 1.8-4.7 4.1-2.8 0-5.1 2.3-5.1 5.2v26c0 2.9 2.3 5.2 5.2 5.2h33c2.9 0 5.2-2.3 5.2-5.2v-26c0-2.9-2.4-5.2-5.2-5.2zm-31.2.7c0-1.6 1.3-2.8 2.8-2.8h3.4c1.6 0 2.8 1.3 2.8 2.8v25.2c0 1.6-1.3 2.8-2.8 2.8h-3.4c-1.6 0-2.8-1.3-2.8-2.8V23.7z"/><path class="st0" d="M143.6 26.4c.5 0 1-.4 1-1v-1.7h1.7c.5 0 1-.4 1-1s-.4-1-1-1h-2.7c-.5 0-1 .4-1 1v2.7c0 .6.5 1 1 1zM145.4 49.8c0 .5.4 1 1 1h2.7c.5 0 1-.4 1-1v-2.7c0-.5-.4-1-1-1-.5 0-1 .4-1 1v1.7h-1.7c-.6 0-1 .4-1 1zM172.1 28.3h-15.2c-.5 0-1 .4-1 1V35c0 .5.4 1 1 1h15.2c.5 0 1-.4 1-1v-5.7c0-.6-.5-1-1-1zm-1 5.7h-13.3v-3.8h13.3V34zM164.5 37.2c-1.4 0-2.6 1.1-2.6 2.6 0 1.4 1.1 2.6 2.6 2.6 1.4 0 2.6-1.1 2.6-2.6-.1-1.5-1.2-2.6-2.6-2.6zm0 3.2c-.3 0-.6-.3-.6-.6s.3-.6.6-.6.6.3.6.6-.3.6-.6.6zM164.5 42.8c-1.4 0-2.6 1.1-2.6 2.6 0 1.4 1.1 2.6 2.6 2.6 1.4 0 2.6-1.1 2.6-2.6-.1-1.4-1.2-2.6-2.6-2.6zm0 3.2c-.3 0-.6-.3-.6-.6s.3-.6.6-.6.6.3.6.6-.3.6-.6.6zM164.5 48.4c-1.4 0-2.6 1.1-2.6 2.6 0 1.4 1.1 2.6 2.6 2.6 1.4 0 2.6-1.1 2.6-2.6-.1-1.4-1.2-2.6-2.6-2.6zm0 3.2c-.3 0-.6-.3-.6-.6s.3-.6.6-.6.6.3.6.6-.3.6-.6.6zM170.6 37.2c-1.4 0-2.6 1.1-2.6 2.6 0 1.4 1.1 2.6 2.6 2.6 1.4 0 2.6-1.1 2.6-2.6-.1-1.5-1.2-2.6-2.6-2.6zm0 3.2c-.3 0-.6-.3-.6-.6s.3-.6.6-.6.6.3.6.6-.3.6-.6.6zM170.6 42.8c-1.4 0-2.6 1.1-2.6 2.6 0 1.4 1.1 2.6 2.6 2.6 1.4 0 2.6-1.1 2.6-2.6-.1-1.4-1.2-2.6-2.6-2.6zm0 3.2c-.3 0-.6-.3-.6-.6s.3-.6.6-.6.6.3.6.6-.3.6-.6.6zM170.6 48.4c-1.4 0-2.6 1.1-2.6 2.6 0 1.4 1.1 2.6 2.6 2.6 1.4 0 2.6-1.1 2.6-2.6-.1-1.4-1.2-2.6-2.6-2.6zm0 3.2c-.3 0-.6-.3-.6-.6s.3-.6.6-.6.6.3.6.6-.3.6-.6.6zM158.4 42.3c1.4 0 2.6-1.1 2.6-2.6 0-1.4-1.1-2.6-2.6-2.6-1.4 0-2.6 1.1-2.6 2.6 0 1.4 1.2 2.6 2.6 2.6zm0-3.2c.3 0 .6.3.6.6s-.3.6-.6.6-.6-.3-.6-.6.2-.6.6-.6zM158.4 47.9c1.4 0 2.6-1.1 2.6-2.6 0-1.4-1.1-2.6-2.6-2.6-1.4 0-2.6 1.1-2.6 2.6s1.2 2.6 2.6 2.6zm0-3.1c.3 0 .6.3.6.6s-.3.6-.6.6-.6-.3-.6-.6.2-.6.6-.6zM158.4 53.5c1.4 0 2.6-1.1 2.6-2.6 0-1.4-1.1-2.6-2.6-2.6-1.4 0-2.6 1.1-2.6 2.6s1.2 2.6 2.6 2.6zm0-3.1c.3 0 .6.3.6.6s-.3.6-.6.6-.6-.3-.6-.6.2-.6.6-.6zM680 23h-17.7c-.5 0-1 .4-1 1s.4 1 1 1H680c1.8 0 3.3 1.5 3.3 3.3v26c0 1.8-1.5 3.3-3.3 3.3h-33c-1.8 0-3.3-1.5-3.3-3.3v-26c0-1.8 1.4-3.2 3.1-3.3v23.9c0 2.6 2.1 4.8 4.8 4.8h3.4c2.6 0 4.8-2.1 4.8-4.8V23.7c0-2.6-2.1-4.8-4.8-4.8h-3.4c-2.4 0-4.4 1.8-4.7 4.1-2.8 0-5.1 2.3-5.1 5.2v26c0 2.9 2.3 5.2 5.2 5.2h33c2.9 0 5.2-2.3 5.2-5.2v-26c0-2.9-2.4-5.2-5.2-5.2zm-31.2.7c0-1.6 1.3-2.8 2.8-2.8h3.4c1.6 0 2.8 1.3 2.8 2.8v25.2c0 1.6-1.3 2.8-2.8 2.8h-3.4c-1.6 0-2.8-1.3-2.8-2.8V23.7z"/><path class="st0" d="M650.6 26.4c.5 0 1-.4 1-1v-1.7h1.7c.5 0 1-.4 1-1s-.4-1-1-1h-2.7c-.5 0-1 .4-1 1v2.7c0 .6.5 1 1 1zM652.4 49.8c0 .5.4 1 1 1h2.7c.5 0 1-.4 1-1v-2.7c0-.5-.4-1-1-1-.5 0-1 .4-1 1v1.7h-1.7c-.6 0-1 .4-1 1zM679.1 28.3h-15.2c-.5 0-1 .4-1 1V35c0 .5.4 1 1 1h15.2c.5 0 1-.4 1-1v-5.7c0-.6-.5-1-1-1zm-1 5.7h-13.3v-3.8h13.3V34zM671.5 37.2c-1.4 0-2.6 1.1-2.6 2.6 0 1.4 1.1 2.6 2.6 2.6 1.4 0 2.6-1.1 2.6-2.6-.1-1.5-1.2-2.6-2.6-2.6zm0 3.2c-.3 0-.6-.3-.6-.6s.3-.6.6-.6.6.3.6.6-.3.6-.6.6zM671.5 42.8c-1.4 0-2.6 1.1-2.6 2.6 0 1.4 1.1 2.6 2.6 2.6 1.4 0 2.6-1.1 2.6-2.6-.1-1.4-1.2-2.6-2.6-2.6zm0 3.2c-.3 0-.6-.3-.6-.6s.3-.6.6-.6.6.3.6.6-.3.6-.6.6zM671.5 48.4c-1.4 0-2.6 1.1-2.6 2.6 0 1.4 1.1 2.6 2.6 2.6 1.4 0 2.6-1.1 2.6-2.6-.1-1.4-1.2-2.6-2.6-2.6zm0 3.2c-.3 0-.6-.3-.6-.6s.3-.6.6-.6.6.3.6.6-.3.6-.6.6zM677.6 37.2c-1.4 0-2.6 1.1-2.6 2.6 0 1.4 1.1 2.6 2.6 2.6 1.4 0 2.6-1.1 2.6-2.6-.1-1.5-1.2-2.6-2.6-2.6zm0 3.2c-.3 0-.6-.3-.6-.6s.3-.6.6-.6.6.3.6.6-.3.6-.6.6zM677.6 42.8c-1.4 0-2.6 1.1-2.6 2.6 0 1.4 1.1 2.6 2.6 2.6 1.4 0 2.6-1.1 2.6-2.6-.1-1.4-1.2-2.6-2.6-2.6zm0 3.2c-.3 0-.6-.3-.6-.6s.3-.6.6-.6.6.3.6.6-.3.6-.6.6zM677.6 48.4c-1.4 0-2.6 1.1-2.6 2.6 0 1.4 1.1 2.6 2.6 2.6 1.4 0 2.6-1.1 2.6-2.6-.1-1.4-1.2-2.6-2.6-2.6zm0 3.2c-.3 0-.6-.3-.6-.6s.3-.6.6-.6.6.3.6.6-.3.6-.6.6zM665.4 42.3c1.4 0 2.6-1.1 2.6-2.6 0-1.4-1.1-2.6-2.6-2.6-1.4 0-2.6 1.1-2.6 2.6 0 1.4 1.2 2.6 2.6 2.6zm0-3.2c.3 0 .6.3.6.6s-.3.6-.6.6-.6-.3-.6-.6.2-.6.6-.6zM665.4 47.9c1.4 0 2.6-1.1 2.6-2.6 0-1.4-1.1-2.6-2.6-2.6-1.4 0-2.6 1.1-2.6 2.6s1.2 2.6 2.6 2.6zm0-3.1c.3 0 .6.3.6.6s-.3.6-.6.6-.6-.3-.6-.6.2-.6.6-.6zM665.4 53.5c1.4 0 2.6-1.1 2.6-2.6 0-1.4-1.1-2.6-2.6-2.6-1.4 0-2.6 1.1-2.6 2.6s1.2 2.6 2.6 2.6zm0-3.1c.3 0 .6.3.6.6s-.3.6-.6.6-.6-.3-.6-.6.2-.6.6-.6zM787 17.3h-14.8c-2.5 0-4.5 2-4.5 4.5V59c0 2.5 2 4.5 4.5 4.5H787c2.5 0 4.5-2 4.5-4.5V21.8c0-2.5-2-4.5-4.5-4.5zm-14.9 1.5H787c1.6 0 3 1.3 3 3v1.4h-20.7v-1.4c-.1-1.6 1.2-3 2.8-3zm17.8 5.9v31.4h-20.7V24.7h20.7zM787 62h-14.8c-1.6 0-3-1.3-3-3v-1.3h20.7V59c0 1.7-1.3 3-2.9 3z"/><path class="st0" d="M775.8 59h7.5v1.6h-7.5z"/><circle class="st0" cx="782.6" cy="21.1" r=".8"/><circle class="st0" cx="779.5" cy="21.1" r=".8"/><circle class="st0" cx="776.5" cy="21.1" r=".8"/><path class="st6" d="M48.7 26.2H15.2c-.7 0-1.2.6-1.2 1.2v24.1c0 .7.6 1.2 1.2 1.2h16.3v2.7h-6.7v.9h14.3v-.9h-6.7v-2.7h16.3c.7 0 1.2-.6 1.2-1.2V27.4c.1-.7-.5-1.2-1.2-1.2zm-33.5.9h33.5c.2 0 .3.1.3.3V48H14.9V27.4c0-.2.2-.3.3-.3zm33.5 24.7H15.2c-.2 0-.3-.1-.3-.3v-2.6H49v2.6c0 .2-.1.3-.3.3zM64.8 27.9H53.6c-.7 0-1.2.6-1.2 1.2v26c0 .7.6 1.2 1.2 1.2h11.1c.7 0 1.2-.6 1.2-1.2v-26c.1-.6-.5-1.2-1.1-1.2zm-11.2.9h11.1c.2 0 .3.1.3.3V46H53.3V29.1c0-.1.2-.3.3-.3zm11.2 26.7H53.6c-.2 0-.3-.1-.3-.3V47H65v8.2c.1.1-.1.3-.2.3z"/><circle class="st6" cx="32" cy="28.4" r=".6"/><circle class="st6" cx="59.2" cy="44.8" r=".6"/><path class="st6" d="M55.8 37.7h6.8v.9h-6.8zM55.8 35.2h6.8v.9h-6.8zM55.8 32.7h6.8v.9h-6.8z"/><path class="st0" d="M171.4 130.2V218H26.7v-87.8h144.7m1-1H25.7V219h146.7v-89.8z"/><path class="st3" d="M68.2 151.5c1 0 1.7.3 2.3 1 .7.8 1 2.2 1 4.1 0 1.9-.3 3.3-1 4.1-.5.7-1.3 1-2.3 1-1 0-1.8-.4-2.4-1.1s-.9-2.1-.9-4 .3-3.2 1-4.1c.5-.6 1.3-1 2.3-1zm0 1.6c-.2 0-.4.1-.6.2s-.3.4-.4.8c-.1.5-.2 1.3-.2 2.5s.1 2 .2 2.4.3.7.4.9.4.2.6.2.4-.1.6-.2.3-.4.4-.8c.1-.5.2-1.3.2-2.5s-.1-2-.2-2.4-.3-.7-.4-.9-.4-.2-.6-.2zM72.6 158.9l1.9-.2c.1.5.2.8.5 1.1s.6.4.9.4c.4 0 .7-.2 1-.5s.4-.7.4-1.2-.1-.9-.4-1.1-.6-.4-1-.4c-.2 0-.5 0-.9.1l.2-1.6c.5 0 .9-.1 1.2-.3s.4-.6.4-1c0-.3-.1-.6-.3-.8s-.5-.3-.8-.3c-.3 0-.6.1-.8.3s-.4.6-.4 1l-1.8-.3c.1-.6.3-1.1.6-1.5s.6-.6 1-.9.9-.3 1.5-.3c.9 0 1.7.3 2.3.9.5.5.7 1 .7 1.7 0 .9-.5 1.6-1.4 2.1.6.1 1 .4 1.4.8s.5.9.5 1.6c0 .9-.3 1.6-1 2.2s-1.4.9-2.4.9c-.9 0-1.7-.3-2.3-.8s-.9-1-1-1.9zM80.7 158.9V157h3.8v1.9h-3.8zM90.1 161.6h-1.9v-7.2c-.7.7-1.5 1.1-2.5 1.5v-1.7c.5-.2 1-.5 1.6-.9s1-1 1.2-1.6h1.6v9.9zM99.4 159.8v1.8h-6.7c.1-.7.3-1.3.7-1.9s1.1-1.4 2.2-2.4c.9-.8 1.4-1.4 1.6-1.6.3-.4.4-.8.4-1.2 0-.4-.1-.8-.3-1s-.5-.3-1-.3c-.4 0-.7.1-1 .4s-.4.6-.4 1.2l-1.9-.2c.1-1.1.5-1.8 1.1-2.3s1.4-.7 2.3-.7c1 0 1.8.3 2.3.8s.8 1.2.8 2c0 .5-.1.9-.2 1.3s-.4.8-.8 1.3c-.2.3-.7.7-1.3 1.3s-1 .9-1.2 1.1-.3.4-.4.5h3.8zM100.7 158.9l1.9-.2c.1.5.2.8.5 1.1s.6.4.9.4c.4 0 .7-.2 1-.5s.4-.7.4-1.2-.1-.9-.4-1.1-.6-.4-1-.4c-.2 0-.5 0-.9.1l.2-1.6c.5 0 .9-.1 1.2-.3s.4-.6.4-1c0-.3-.1-.6-.3-.8s-.5-.3-.8-.3c-.3 0-.6.1-.8.3s-.4.6-.4 1l-1.8-.3c.1-.6.3-1.1.6-1.5s.6-.6 1-.9.9-.3 1.5-.3c.9 0 1.7.3 2.3.9.5.5.7 1 .7 1.7 0 .9-.5 1.6-1.4 2.1.6.1 1 .4 1.4.8s.5.9.5 1.6c0 .9-.3 1.6-1 2.2s-1.4.9-2.4.9c-.9 0-1.7-.3-2.3-.8s-.9-1-1-1.9zM112.3 161.6v-2h-4.1v-1.7l4.3-6.4h1.6v6.4h1.2v1.7h-1.2v2h-1.8zm0-3.7v-3.4l-2.3 3.4h2.3zM116.5 158.9V157h3.8v1.9h-3.8zM121 159l1.9-.2c.1.4.2.8.5 1s.6.4.9.4c.4 0 .7-.2 1-.5s.4-.8.4-1.5c0-.6-.1-1.1-.4-1.4s-.6-.5-1.1-.5c-.6 0-1 .2-1.5.7l-1.6-.2 1-5.2h5.1v1.8h-3.6l-.3 1.7c.4-.2.9-.3 1.3-.3.9 0 1.6.3 2.2.9s.9 1.4.9 2.4c0 .8-.2 1.6-.7 2.2-.7.9-1.6 1.3-2.7 1.3-.9 0-1.7-.2-2.3-.7s-.9-1-1-1.9zM135.3 154l-1.9.2c0-.4-.2-.7-.4-.8s-.4-.3-.7-.3c-.4 0-.7.2-1 .5s-.5 1.1-.5 2.3c.5-.6 1.1-.8 1.8-.8.8 0 1.5.3 2.1.9s.9 1.4.9 2.4-.3 1.8-.9 2.5-1.4.9-2.3.9c-1 0-1.8-.4-2.5-1.2s-1-2.1-1-3.9c0-1.8.3-3.2 1-4s1.6-1.2 2.6-1.2c.8 0 1.4.2 1.9.6s.7 1.1.9 1.9zm-4.4 4.2c0 .6.1 1.1.4 1.4s.6.5 1 .5.7-.1.9-.4.4-.7.4-1.4-.1-1.1-.4-1.4-.6-.5-1-.5-.7.1-.9.4-.4.9-.4 1.4zM136.5 153.5v-1.8h6.6v1.4c-.5.5-1.1 1.3-1.7 2.3s-1 2.1-1.3 3.2-.4 2.1-.4 3h-1.9c0-1.4.3-2.8.9-4.2s1.3-2.7 2.2-3.9h-4.4zM146 156.2c-.5-.2-.9-.5-1.1-.9s-.3-.8-.3-1.2c0-.7.3-1.4.8-1.9s1.3-.7 2.2-.7c1 0 1.7.2 2.2.7s.8 1.1.8 1.9c0 .5-.1.9-.4 1.2s-.6.6-1 .8c.6.2 1 .5 1.3 1s.4.9.4 1.5c0 .9-.3 1.7-.9 2.3s-1.4.9-2.4.9c-.9 0-1.7-.2-2.3-.7-.7-.6-1.1-1.3-1.1-2.3 0-.5.1-1 .4-1.5s.8-.9 1.4-1.1zm.2 2.4c0 .5.1.9.4 1.2s.6.4 1 .4.7-.1 1-.4.4-.7.4-1.2-.1-.8-.4-1.1-.6-.4-1-.4c-.5 0-.8.2-1 .5s-.4.6-.4 1zm.2-4.3c0 .4.1.7.3.9s.5.3.9.3.7-.1.9-.3.3-.5.3-.9-.1-.6-.3-.9-.5-.3-.9-.3-.7.1-.9.3-.3.5-.3.9zM68.2 173.5c1 0 1.7.3 2.3 1 .7.8 1 2.2 1 4.1 0 1.9-.3 3.3-1 4.1-.5.7-1.3 1-2.3 1-1 0-1.8-.4-2.4-1.1s-.9-2.1-.9-4 .3-3.2 1-4.1c.5-.6 1.3-1 2.3-1zm0 1.6c-.2 0-.4.1-.6.2s-.3.4-.4.8c-.1.5-.2 1.3-.2 2.5s.1 2 .2 2.4.3.7.4.9.4.2.6.2.4-.1.6-.2.3-.4.4-.8c.1-.5.2-1.3.2-2.5s-.1-2-.2-2.4-.3-.7-.4-.9-.4-.2-.6-.2zM72.7 181l1.9-.2c.1.4.2.8.5 1s.6.4.9.4c.4 0 .7-.2 1-.5s.4-.8.4-1.5c0-.6-.1-1.1-.4-1.4s-.6-.5-1.1-.5c-.6 0-1 .2-1.5.7l-1.6-.2 1-5.2H79v1.8h-3.6l-.3 1.7c.4-.2.9-.3 1.3-.3.9 0 1.6.3 2.2.9s.9 1.4.9 2.4c0 .8-.2 1.6-.7 2.2-.7.9-1.6 1.3-2.7 1.3-.9 0-1.7-.2-2.3-.7s-1-1-1.1-1.9zM83.7 173.5c1 0 1.7.3 2.3 1 .7.8 1 2.2 1 4.1 0 1.9-.3 3.3-1 4.1-.5.7-1.3 1-2.3 1-1 0-1.8-.4-2.4-1.1s-.9-2.1-.9-4 .3-3.2 1-4.1c.6-.6 1.4-1 2.3-1zm0 1.6c-.2 0-.4.1-.6.2s-.3.4-.4.8c-.1.5-.2 1.3-.2 2.5s.1 2 .2 2.4.3.7.4.9.4.2.6.2.4-.1.6-.2.3-.4.4-.8c.1-.5.2-1.3.2-2.5s-.1-2-.2-2.4-.3-.7-.4-.9-.3-.2-.6-.2zM88.5 180.9V179h3.8v1.9h-3.8zM97.9 183.6H96v-7.2c-.7.7-1.5 1.1-2.5 1.5v-1.7c.5-.2 1-.5 1.6-.9s1-1 1.2-1.6h1.6v9.9zM107.2 181.8v1.8h-6.7c.1-.7.3-1.3.7-1.9s1.1-1.4 2.2-2.4c.9-.8 1.4-1.4 1.6-1.6.3-.4.4-.8.4-1.2 0-.4-.1-.8-.3-1s-.5-.3-1-.3c-.4 0-.7.1-1 .4s-.4.6-.4 1.2l-1.9-.2c.1-1.1.5-1.8 1.1-2.3s1.4-.7 2.3-.7c1 0 1.8.3 2.3.8s.8 1.2.8 2c0 .5-.1.9-.2 1.3s-.4.8-.8 1.3c-.2.3-.7.7-1.3 1.3s-1 .9-1.2 1.1-.3.4-.4.5h3.8zM108.4 180.9l1.9-.2c.1.5.2.8.5 1.1s.6.4.9.4c.4 0 .7-.2 1-.5s.4-.7.4-1.2-.1-.9-.4-1.1-.6-.4-1-.4c-.2 0-.5 0-.9.1l.2-1.6c.5 0 .9-.1 1.2-.3s.4-.6.4-1c0-.3-.1-.6-.3-.8s-.5-.3-.8-.3c-.3 0-.6.1-.8.3s-.4.6-.4 1l-1.8-.3c.1-.6.3-1.1.6-1.5s.6-.6 1-.9.9-.3 1.5-.3c.9 0 1.7.3 2.3.9.5.5.7 1 .7 1.7 0 .9-.5 1.6-1.4 2.1.6.1 1 .4 1.4.8s.5.9.5 1.6c0 .9-.3 1.6-1 2.2s-1.4.9-2.4.9c-.9 0-1.7-.3-2.3-.8s-.9-1-1-1.9zM120.1 183.6v-2H116v-1.7l4.3-6.4h1.6v6.4h1.2v1.7h-1.2v2h-1.8zm0-3.7v-3.4l-2.3 3.4h2.3zM124.3 180.9V179h3.8v1.9h-3.8zM128.8 181l1.9-.2c.1.4.2.8.5 1s.6.4.9.4c.4 0 .7-.2 1-.5s.4-.8.4-1.5c0-.6-.1-1.1-.4-1.4s-.6-.5-1.1-.5c-.6 0-1 .2-1.5.7l-1.6-.2 1-5.2h5.1v1.8h-3.6l-.3 1.7c.4-.2.9-.3 1.3-.3.9 0 1.6.3 2.2.9s.9 1.4.9 2.4c0 .8-.2 1.6-.7 2.2-.7.9-1.6 1.3-2.7 1.3-.9 0-1.7-.2-2.3-.7s-.9-1-1-1.9zM143 176l-1.9.2c0-.4-.2-.7-.4-.8s-.4-.3-.7-.3c-.4 0-.7.2-1 .5s-.5 1.1-.5 2.3c.5-.6 1.1-.8 1.8-.8.8 0 1.5.3 2.1.9s.9 1.4.9 2.4-.3 1.8-.9 2.5-1.4.9-2.3.9c-1 0-1.8-.4-2.5-1.2s-1-2.1-1-3.9c0-1.8.3-3.2 1-4s1.6-1.2 2.6-1.2c.8 0 1.4.2 1.9.6s.8 1.1.9 1.9zm-4.3 4.2c0 .6.1 1.1.4 1.4s.6.5 1 .5.7-.1.9-.4.4-.7.4-1.4-.1-1.1-.4-1.4-.6-.5-1-.5-.7.1-.9.4-.4.9-.4 1.4zM144.3 175.5v-1.8h6.6v1.4c-.5.5-1.1 1.3-1.7 2.3s-1 2.1-1.3 3.2-.4 2.1-.4 3h-1.9c0-1.4.3-2.8.9-4.2s1.3-2.7 2.2-3.9h-4.4zM153.8 178.2c-.5-.2-.9-.5-1.1-.9s-.3-.8-.3-1.2c0-.7.3-1.4.8-1.9s1.3-.7 2.2-.7c1 0 1.7.2 2.2.7s.8 1.1.8 1.9c0 .5-.1.9-.4 1.2s-.6.6-1 .8c.6.2 1 .5 1.3 1s.4.9.4 1.5c0 .9-.3 1.7-.9 2.3s-1.4.9-2.4.9c-.9 0-1.7-.2-2.3-.7-.7-.6-1.1-1.3-1.1-2.3 0-.5.1-1 .4-1.5s.8-.9 1.4-1.1zm.2 2.4c0 .5.1.9.4 1.2s.6.4 1 .4.7-.1 1-.4.4-.7.4-1.2-.1-.8-.4-1.1-.6-.4-1-.4c-.5 0-.8.2-1 .5s-.4.6-.4 1zm.1-4.3c0 .4.1.7.3.9s.5.3.9.3.7-.1.9-.3.3-.5.3-.9-.1-.6-.3-.9-.5-.3-.9-.3-.7.1-.9.3-.3.5-.3.9zM68.2 195.5c1 0 1.7.3 2.3 1 .7.8 1 2.2 1 4.1 0 1.9-.3 3.3-1 4.1-.5.7-1.3 1-2.3 1-1 0-1.8-.4-2.4-1.1s-.9-2.1-.9-4 .3-3.2 1-4.1c.5-.6 1.3-1 2.3-1zm0 1.6c-.2 0-.4.1-.6.2s-.3.4-.4.8c-.1.5-.2 1.3-.2 2.5s.1 2 .2 2.4.3.7.4.9.4.2.6.2.4-.1.6-.2.3-.4.4-.8c.1-.5.2-1.3.2-2.5s-.1-2-.2-2.4-.3-.7-.4-.9-.4-.2-.6-.2zM77.6 205.6h-1.9v-7.2c-.7.7-1.5 1.1-2.5 1.5v-1.7c.5-.2 1-.5 1.6-.9s1-1 1.2-1.6h1.6v9.9zM87 203.8v1.8h-6.7c.1-.7.3-1.3.7-1.9s1.1-1.4 2.2-2.4c.9-.8 1.4-1.4 1.6-1.6.3-.4.4-.8.4-1.2 0-.4-.1-.8-.3-1s-.5-.3-1-.3c-.4 0-.7.1-1 .4s-.4.6-.4 1.2l-1.9-.2c.1-1.1.5-1.8 1.1-2.3s1.4-.7 2.3-.7c1 0 1.8.3 2.3.8s.8 1.2.8 2c0 .5-.1.9-.2 1.3s-.4.8-.8 1.3c-.2.3-.7.7-1.3 1.3s-1 .9-1.2 1.1-.3.4-.4.5H87zM91.5 195.5c1 0 1.7.3 2.3 1 .7.8 1 2.2 1 4.1 0 1.9-.3 3.3-1 4.1-.5.7-1.3 1-2.3 1-1 0-1.8-.4-2.4-1.1s-.9-2.1-.9-4 .3-3.2 1-4.1c.6-.6 1.4-1 2.3-1zm0 1.6c-.2 0-.4.1-.6.2s-.3.4-.4.8c-.1.5-.2 1.3-.2 2.5s.1 2 .2 2.4.3.7.4.9.4.2.6.2.4-.1.6-.2.3-.4.4-.8c.1-.5.2-1.3.2-2.5s-.1-2-.2-2.4-.3-.7-.4-.9-.3-.2-.6-.2zM96.3 202.9V201h3.8v1.9h-3.8zM105.6 205.6h-1.9v-7.2c-.7.7-1.5 1.1-2.5 1.5v-1.7c.5-.2 1-.5 1.6-.9s1-1 1.2-1.6h1.6v9.9zM115 203.8v1.8h-6.7c.1-.7.3-1.3.7-1.9s1.1-1.4 2.2-2.4c.9-.8 1.4-1.4 1.6-1.6.3-.4.4-.8.4-1.2 0-.4-.1-.8-.3-1s-.5-.3-1-.3c-.4 0-.7.1-1 .4s-.4.6-.4 1.2l-1.9-.2c.1-1.1.5-1.8 1.1-2.3s1.4-.7 2.3-.7c1 0 1.8.3 2.3.8s.8 1.2.8 2c0 .5-.1.9-.2 1.3s-.4.8-.8 1.3c-.2.3-.7.7-1.3 1.3s-1 .9-1.2 1.1-.3.4-.4.5h3.8zM116.2 202.9l1.9-.2c.1.5.2.8.5 1.1s.6.4.9.4c.4 0 .7-.2 1-.5s.4-.7.4-1.2-.1-.9-.4-1.1-.6-.4-1-.4c-.2 0-.5 0-.9.1l.2-1.6c.5 0 .9-.1 1.2-.3s.4-.6.4-1c0-.3-.1-.6-.3-.8s-.5-.3-.8-.3c-.3 0-.6.1-.8.3s-.4.6-.4 1l-1.8-.3c.1-.6.3-1.1.6-1.5s.6-.6 1-.9.9-.3 1.5-.3c.9 0 1.7.3 2.3.9.5.5.7 1 .7 1.7 0 .9-.5 1.6-1.4 2.1.6.1 1 .4 1.4.8s.5.9.5 1.6c0 .9-.3 1.6-1 2.2s-1.4.9-2.4.9c-.9 0-1.7-.3-2.3-.8s-.9-1-1-1.9zM124.3 202.9V201h3.8v1.9h-3.8zM132.5 205.6v-2h-4.1v-1.7l4.3-6.4h1.6v6.4h1.2v1.7h-1.2v2h-1.8zm0-3.7v-3.4l-2.3 3.4h2.3zM136.6 203l1.9-.2c.1.4.2.8.5 1s.6.4.9.4c.4 0 .7-.2 1-.5s.4-.8.4-1.5c0-.6-.1-1.1-.4-1.4s-.6-.5-1.1-.5c-.6 0-1 .2-1.5.7l-1.6-.2 1-5.2h5.1v1.8h-3.6l-.3 1.7c.4-.2.9-.3 1.3-.3.9 0 1.6.3 2.2.9s.9 1.4.9 2.4c0 .8-.2 1.6-.7 2.2-.7.9-1.6 1.3-2.7 1.3-.9 0-1.7-.2-2.3-.7s-.9-1-1-1.9zM150.8 198l-1.9.2c0-.4-.2-.7-.4-.8s-.4-.3-.7-.3c-.4 0-.7.2-1 .5s-.5 1.1-.5 2.3c.5-.6 1.1-.8 1.8-.8.8 0 1.5.3 2.1.9s.9 1.4.9 2.4-.3 1.8-.9 2.5-1.4.9-2.3.9c-1 0-1.8-.4-2.5-1.2s-1-2.1-1-3.9c0-1.8.3-3.2 1-4s1.6-1.2 2.6-1.2c.8 0 1.4.2 1.9.6s.8 1.1.9 1.9zm-4.3 4.2c0 .6.1 1.1.4 1.4s.6.5 1 .5.7-.1.9-.4.4-.7.4-1.4-.1-1.1-.4-1.4-.6-.5-1-.5-.7.1-.9.4-.4.9-.4 1.4z"/><path class="st0" d="M146.6 129.2c0 6.2-5 11.2-11.2 11.2H62.6c-6.2 0-11.2-5-11.2-11.2 0-6.2 5-11.2 11.2-11.2h72.8c6.2 0 11.2 5 11.2 11.2z"/><path class="st5" d="M78.4 123.3c-.3.8-.7 1.7-1.2 2.5v8.8h-1.4V128c-.3.4-.6.8-1 1.1-.1-.4-.6-1.2-.8-1.5 1.2-1.1 2.3-2.9 3-4.7l1.4.4zm5 6.9c.7 1.1 1.8 2.1 2.9 2.7-.3.3-.8.8-1.1 1.2-.9-.7-1.8-1.7-2.6-2.8v3.3h-1.5v-3.2c-.8 1.1-1.7 2.1-2.7 2.7-.2-.4-.7-.9-1-1.2 1.1-.6 2.3-1.6 3-2.7h-2.6v-1.4h3.3v-1.1h-2.5v-4.3h6.6v4.3h-2.6v1.1h3.3v1.4h-2.5zm-3.3-3.9h3.7v-1.7h-3.7v1.7zM91.6 125.7c-.2.3-.3.7-.5 1h5.8v6.2c0 .7-.1 1.1-.7 1.4-.5.2-1.2.3-2.2.3-.1-.4-.3-1-.5-1.4h1.6c.2 0 .3-.1.3-.3v-.8h-4.5v2.4h-1.5V129c-.5.6-1 1.1-1.7 1.5-.2-.3-.7-.9-1-1.1 1.3-.9 2.4-2.2 3.1-3.7H87v-1.4h3.4c.2-.5.4-1 .5-1.5l1.5.4c-.1.4-.3.8-.4 1.2h6.2v1.4h-6.6zm3.9 2.3H91v.8h4.5v-.8zm0 2.9v-.8H91v.8h4.5zM107.4 127.4c1.1.8 2.5 1.4 3.9 1.7-.3.3-.8.9-1 1.3l-.9-.3v4.4H108v-.3h-5.3v.4h-1.4V130c-.3.2-.7.3-1 .4-.2-.3-.6-.9-.9-1.1 1.3-.4 2.7-1.1 3.7-1.8h-3.4v-1.2h2.4c-.2-.4-.5-.9-.7-1.3l.6-.2h-1.2c0-.3-.2-.8-.3-1.1 3-.1 6.5-.3 8.6-.8l.9 1.1c-.6.1-1.4.2-2.1.3l1.5.4c-.3.5-.7 1.1-1 1.5h2.5v1.2h-3.5zm1.1 2.2c-.9-.5-1.8-1.1-2.5-1.8v1.6h-1.5v-1.5c-.7.6-1.5 1.2-2.4 1.7h6.4zm-3.9 1.1h-1.9v.7h1.9v-.7zm-1.8 2.3h1.9v-.7h-1.9v.7zm1.8-8.4c-.6 0-1.1.1-1.7.1.3.4.6.9.8 1.3l-.6.2h1.5v-1.6zm3.4 6.1h-2v.7h2v-.7zm0 2.3v-.7h-2v.7h2zm-1-6.9c.3-.5.6-1.2.8-1.8-.6.1-1.1.1-1.8.2v1.7h1.4l-.4-.1zM116.3 129.2l-.2.7h6.1s0 .4-.1.6c-.3 2.1-.6 3.1-1 3.5-.4.4-.8.5-1.4.5h-2.2c0-.4-.2-1-.5-1.4.8.1 1.8.1 2.1.1.3 0 .5 0 .6-.1.2-.2.4-.7.6-1.8h-4.8c-.1.2-.2.5-.2.7l-1.6-.3c.3-.7.6-1.6.9-2.5h-2.4v-1.4h11.3v1.4h-7.2zm5.8-2h-8.2v-4h8.2v4zm-1.6-2.7h-5.2v1.4h5.2v-1.4z"/><path class="st0" d="M420.2 74.2v17h-17v-17h17m.5-.5h-18v18h18v-18z"/><path class="st0" d="M413.3 87.5h-1.9v-7.2c-.7.7-1.5 1.1-2.5 1.5V80c.5-.2 1-.5 1.6-.9.6-.5 1-1 1.2-1.6h1.6v10zM476.2 96.2v17h-17v-17h17m.5-.5h-18v18h18v-18z"/><path class="st0" d="M470.8 107.8v1.8h-6.7c.1-.7.3-1.3.7-1.9.4-.6 1.1-1.4 2.2-2.4.9-.8 1.4-1.4 1.6-1.6.3-.4.4-.8.4-1.2 0-.4-.1-.8-.3-1-.2-.2-.5-.3-1-.3-.4 0-.7.1-1 .4-.2.2-.4.6-.4 1.2l-1.9-.2c.1-1.1.5-1.8 1.1-2.3.6-.5 1.4-.7 2.3-.7 1 0 1.8.3 2.3.8.6.5.8 1.2.8 2 0 .5-.1.9-.2 1.3-.2.4-.4.8-.8 1.3-.2.3-.7.7-1.3 1.3-.6.6-1 .9-1.2 1.1-.2.2-.3.4-.4.5h3.8zM476.2 118.2v17h-17v-17h17m.5-.5h-18v18h18v-18z"/><path class="st0" d="m464.3 128.9 1.9-.2c.1.5.2.8.5 1.1.3.3.6.4.9.4.4 0 .7-.2 1-.5.3-.3.4-.7.4-1.2s-.1-.9-.4-1.1c-.3-.3-.6-.4-1-.4-.2 0-.5 0-.9.1l.2-1.6c.5 0 .9-.1 1.2-.3s.4-.6.4-1c0-.3-.1-.6-.3-.8-.2-.2-.5-.3-.8-.3-.3 0-.6.1-.8.3-.2.2-.4.6-.4 1l-1.8-.3c.1-.6.3-1.1.6-1.5.2-.4.6-.6 1-.9.4-.2.9-.3 1.5-.3.9 0 1.7.3 2.3.9.5.5.7 1 .7 1.7 0 .9-.5 1.6-1.4 2.1.6.1 1 .4 1.4.8.3.4.5.9.5 1.6 0 .9-.3 1.6-1 2.2-.6.6-1.4.9-2.4.9-.9 0-1.7-.3-2.3-.8-.6-.4-.9-1.1-1-1.9zM59.9 148.5v17h-17v-17h17m.5-.5h-18v18h18v-18z"/><path class="st0" d="M53.1 161.9h-1.9v-7.2c-.7.7-1.5 1.1-2.5 1.5v-1.7c.5-.2 1-.5 1.6-.9s1-1 1.2-1.6h1.6v9.9zM59.9 170.5v17h-17v-17h17m.5-.5h-18v18h18v-18z"/><path class="st0" d="M54.6 182.1v1.8h-6.7c.1-.7.3-1.3.7-1.9s1.1-1.4 2.2-2.4c.9-.8 1.4-1.4 1.6-1.6.3-.4.4-.8.4-1.2 0-.4-.1-.8-.3-1s-.5-.3-1-.3c-.4 0-.7.1-1 .4s-.4.6-.4 1.2l-1.9-.2c.1-1.1.5-1.8 1.1-2.3s1.4-.7 2.3-.7c1 0 1.8.3 2.3.8s.8 1.2.8 2c0 .5-.1.9-.2 1.3s-.4.8-.8 1.3c-.2.3-.7.7-1.3 1.3s-1 .9-1.2 1.1-.3.4-.4.5h3.8zM59.9 192.5v17h-17v-17h17m.5-.5h-18v18h18v-18z"/><path class="st0" d="m48.1 203.2 1.9-.2c.1.5.2.8.5 1.1s.6.4.9.4c.4 0 .7-.2 1-.5s.4-.7.4-1.2-.1-.9-.4-1.1-.6-.4-1-.4c-.2 0-.5 0-.9.1l.2-1.6c.5 0 .9-.1 1.2-.3s.4-.6.4-1c0-.3-.1-.6-.3-.8s-.5-.3-.8-.3c-.3 0-.6.1-.8.3s-.4.6-.4 1l-1.8-.3c.1-.6.3-1.1.6-1.5s.6-.6 1-.9.9-.3 1.5-.3c.9 0 1.7.3 2.3.9.5.5.7 1 .7 1.7 0 .9-.5 1.6-1.4 2.1.6.1 1 .4 1.4.8s.5.9.5 1.6c0 .9-.3 1.6-1 2.2s-1.4.9-2.4.9c-.9 0-1.7-.3-2.3-.8s-.9-1-1-1.9z"/></svg>