<svg version="1.1" id="_レイヤー_2" xmlns="http://www.w3.org/2000/svg" xmlns:xlink="http://www.w3.org/1999/xlink" x="0" y="0" viewBox="0 0 420 207.8" style="enable-background:new 0 0 420 207.8" xml:space="preserve"><style>.st0{fill:#1f88ff}.st1{fill:none;stroke:#1f88ff;stroke-width:10;stroke-miterlimit:10}.st3{fill:#85cee7}.st5{fill:#a5c3d9}.st6{fill:#73a9d1}.st7{fill:#d7d8eb}.st8{fill:#2c345c}.st9{fill:#f2aac2}.st10{fill:#272e52}.st11{fill:#304464}.st12{fill:#e8e6fb}.st13{fill:#495699}.st14{fill:#ed9bb6}.st15{fill:#f2f2f2}.st16{fill:#94cbf2}.st17{fill:#fff}.st19{fill:#484a8a}.st20{fill:#3c3e73}.st21{fill:#9dafe0}.st22{fill:#b8c8f2}.st23{fill:#313a5d}.st24{fill:#bedef7}.st25{fill:#e6e8fb}.st26{fill:#b1e893}.st28{fill:#eec1e4}.st30{fill:#ecf57d}.st33{fill:#00527f}.st36{fill:#2e3840}.st39{fill:none;stroke:#1f88ff;stroke-width:10;stroke-miterlimit:10;stroke-dasharray:5.0506,2.0202}</style><path class="st0" d="m284.6 165.8-11.9-22.9h23.8z"/><path class="st1" d="M284.6 34v2.5"/><path style="fill:none;stroke:#1f88ff;stroke-width:10;stroke-miterlimit:10;stroke-dasharray:4.8558,1.9423" d="M284.6 38.4v101"/><path class="st1" d="M284.6 140.4v2.5"/><circle class="st3" cx="374.9" cy="30" r="30"/><defs><circle id="SVGID_1_" cx="374.9" cy="30" r="30"/></defs><clipPath id="SVGID_00000015322146137578835840000012557154828557940375_"><use xlink:href="#SVGID_1_" style="overflow:visible"/></clipPath><g style="clip-path:url(#SVGID_00000015322146137578835840000012557154828557940375_)"><path class="st5" d="M349.1 82.7v-38l-27.3 8.1v43.6c0 .7.6 1.2 1.2 1.2.2 0 26.1-14.9 26.1-14.9z"/><path class="st6" d="M394 41.5c1.4 4.4-2.3 24.6-2.8 25.6-1.1 2.2-18.5-6.4-19-9.3-.9-5.4 0-19.9.8-22.2 1.7-4.8 19.5 1 21 5.9z"/><path class="st6" d="m351.7 68 18.7 10.9c.3.2.7.2 1 0l19-10.9c.7-.4.7-1.4 0-1.8l-18.7-10.9c-.3-.2-.7-.2-1 0l-18.9 10.9c-.7.4-.7 1.4-.1 1.8z"/><path class="st7" d="M366 41.4s5.2-14.8 6.9-15.5c1.6-.7 6.4-1.1 5.2 1.2-2.6 4.7-7.1 14.5-8.9 14.5-2.8 0-3.2-.2-3.2-.2z"/><path class="st8" d="M348 102.4c2.9-2.5 1.4-.5 3.3-3.5 1 0 2.7-.1 2.9.6.3.7.4 1.7.4 1.7.2 2.5-.6 3.8-.6 3.8-.4.2-.7.2-1.1 0v-.7l-3.3 2.4c-.6.5-1.5 1-2.4 1.2-1 .3-2 .1-2.8-.5-.3-.2-.6-.5-.6-.9 0-.8 3.5-3.1 4.2-4.1z"/><path class="st9" d="M348 104.2c2.3.9 5.8-2.8 5.7-4.7-.4-2.4.4-7.5.4-9.1 0-6.2-4.2-1-4.2-1s.1 2.1-.1 8.1c0 4.6-4.3 5.7-1.8 6.7z"/><path class="st10" d="M353.9 75.6c-.3 9.6 1 15.2.8 15.7-.4 1.2-5.1 1-5.5 0-.2-.4-1.3-16.1-.6-18.6.8-2.5 5.3 2.9 5.3 2.9z"/><path class="st10" d="M349 71.1c1.3-2.5 22.7-17 22.7-17s6 6.5 3.8 8.8c-.5.5-19.7 13.7-21.9 15.4-1.6 1.2-3.2 3.7-3.9 2.3-.7-1.3-2-7-.7-9.5z"/><path class="st8" d="M350.7 108.5c2.9-2.5 3.4-2.6 5.3-5.6 1 0 2.4-.5 3.2.8l.1 1.1c.2 2.5-.6 4.2-.6 4.2-.4.2-.7.2-1.1 0v-.7l-3.3 2.4c-.9.9-2.7 1.5-3.9 1.4 0 0-1.9-.7-1.9-1.6-.1-1.2 1.9-1.5 2.2-2z"/><path class="st9" d="M353 108.1c2.3.9 6.1-1.9 5.9-3.9-.2-1.4-.6-2.4-.6-3.5.1-6.9.4-7.9.1-9-.4-1.2-3.4-.6-3.9.1-.5.8.2 3.6.1 9.8-.1 1.9-.1 3.1-.5 4.1-.7 1.4-2 1.7-1.1 2.4z"/><path class="st8" d="M359.4 75.2s.6 19 .1 20.1c-.5 1.1-5.4.7-5.9-.2-.5-1-.9-12.1-1.4-22.3l7.2 2.4z"/><path class="st8" d="M352.4 72.9c1.2-1.4 23.6-15.5 23.6-15.5l10.6-3.6c.9-.2 3.4 8.1.6 10.5-2.3 2-25.5 13.4-27.9 14.1-2.5.8-8.1-4-6.9-5.5z"/><path class="st8" d="M387.1 64.3c-.3.1-3.8 1.3-5.7.9-3.3-.6-10.8-8.3-10.8-8.3l1.4-8.4s10.6 5.5 13.1 6.6c5.9 2.7 2.3 9.1 2 9.2z"/><path class="st11" d="M386.6 14.3c-.4-1.6-13-.6-13-.6s-2.6 3.6-2.7 6.5c-.1 2.9 2.1 5.5 2.9 6 1.2.9 5.6 3.6 5.6 3.6s3.8-.5 5.6-1.2c1.8-.7 3.9-5.5 3.9-6.4 0-3.4-2.1-7-2.3-7.9z"/><path class="st12" d="M380.4 22.9c2.6 1.3 5.2 4.4 5.2 4.4l-3.2 29.5-7.2-5.9-2.7-17.1.7-7.8s4.6-4.4 7.2-3.1z"/><path class="st13" d="M371.1 33.5c.1-2.8.7-6.9.7-6.9s2.6-2.9 3.7-3.5c.6-.2 1.4-.9 1.3-.3-.2.6-1.9 2.1-2.2 2.9-.8 2.1-.6 6.4-.5 8.1.1 1.7.7 7.1 2.1 11.5 3.9-7.7 5.8-16.1 6.4-17.6.7-1.7-2.5-4.4-2.7-4.9l1.4-.4c2.3 1.6 6.8 7 7.7 9.3.9 2.3-.2 7.9-1.2 15.4 0 0 1.2 5.7.6 7.6-.6 1.9-4.6 3.5-6.1 3.3-11-1.3-9.7-6.6-9.7-6.6l-.2-4.8c0-.1-1.4-10.3-1.3-13.1z"/><path class="st12" d="M377.2 23.4c-.7-.1-2 .7-2.4 2.1-.4 1.5.1 3.4.1 3.4l2.4-.1.3-.5c0-.4-.2-3.8-.4-4.9zM382.6 27.2c.2-.6 0-2.7-.9-3.7-1-1.2-3.1-1.4-3.1-1.4l-1 2.1.3.5c.6.1 3.7 2.1 4.7 2.5z"/><path class="st14" d="M374.9 18.6c.4 2.9 2.7 2.8 1.6 5.8-.3.7.9 1.8.9 1.8l4-2.3c-1.2-3.9-.7-5.5-.7-5.5l-5.8.2z"/><path class="st9" d="M381.6 7.7c-.4-.2-4.2-.3-4.7-.2-6.9 2.3-3.8 11.8-3.6 12.5.4 1.1 1.3 2.5 2.1 3.1 3 2 7-1.7 7.2-2.3.3-.6 5.7-10.3-1-13.1z"/><path class="st14" d="M382.3 20.5c.7.2 1.5-.5 1.8-1.5.3-1 .1-2-.6-2.2-.6-.2-1.8 3.5-1.2 3.7z"/><path class="st11" d="M386.4 11.7c-.8-2.8-3.3-4.7-7.2-5-3.1-.2-6.3 2.9-6.6 5.5 0 .4-.7 3.9-.3 4.1.3.1.3-1.1 1-2.8.5-1.2 1.3-1.7 2.4-2.3 1.2 1.7 2 .7 3.7.8 1.8.1 2.5-.4 2.5-.4s.1 1.1.2 2.4c.1 1.2.1 5.2.1 5.2s4.4-2.2 4.5-5.3c-.1-.5-.1-1.7-.3-2.2z"/><path class="st11" d="m382.5 10.4-8-1c.1.8.1 1.8 2.3 3.6 2.3 2 4.8 2.2 6.8 1-.2-.9-1.1-3.6-1.1-3.6z"/><path class="st12" d="M381.3 23.7s-2 3.1-5.4 3.2l-.3.5c.4 1 2.3 2.6 2.3 2.6s4.8-2.7 4.6-3.9c-.1-1.1-1.2-2.4-1.2-2.4z"/><path class="st6" d="M386.6 16.8c0 1.5-1.2 3.4-2.7 4.3-1.5.9-2.7.3-2.7-1.1 0-1.5 1.2-3.4 2.7-4.3 1.5-.9 2.7-.4 2.7 1.1z"/><path class="st6" d="M384.1 18c-.3 0-.5-.2-.5-.5-.1-.4-.1-.9 0-1.6.1-2.4.3-6.4-3.7-8.4-2-1-4 .7-4.1.7-.2.2-.6.2-.8-.1-.2-.2-.2-.6.1-.8.1-.1 2.6-2.1 5.3-.8 4.6 2.3 4.4 6.9 4.3 9.4 0 .6-.1 1.1 0 1.4.1.3-.1.6-.4.7h-.2z"/><path class="st11" d="M384.2 16.7c-1 .6-1.8 1.9-1.8 2.9 0 .2 0 .3.1.4-1.8 1.1-4.1 1.9-5.6 2.2h-.1v-.1c-.2-.3-.6-.7-.9-.7-.2 0-.3.1-.3.2-.2.4.1.9.5 1 .2.1.3.1.5.1h.5c1.5-.2 3.9-1.1 5.8-2.3.3.2.9.2 1.4-.1 1-.6 1.8-1.9 1.8-2.9s-.9-1.3-1.9-.7z"/><path class="st5" d="M395.2 105.8v-38l-27.3 8.1v43.6c0 .7.6 1.2 1.2 1.2.2 0 26.1-14.9 26.1-14.9z"/><path class="st5" d="m317.9 53.3 52.4 30.5 29.2-16.9v-2.2l-52.4-28.2-29.2 14.7z"/><path class="st15" d="m317.9 51.2 52.4 30.4 29.2-16.9-52.4-30.4z"/><path class="st9" d="M355.4 46.8c-1-.2-2.9-.4-2.9-.4l3.8-2.5 1.3 1.5-2.2 1.4z"/><path class="st9" d="M355.4 47.5c.3 1.8-2.9 5-3 4.8-.4-.6-.1-.9.1-1.2.5-.7.4-1.6.5-2.4 0-1 2-3 2.4-1.2z"/><path class="st9" d="M348.1 52.4c.1.3.6.2.9.1.4-.2 3-2 3.6-2.5.3-.2.4-1.1-.2-1 0 0-4.4 3.1-4.3 3.4z"/><path class="st9" d="M352.9 46.1c.7-.4 1.8-1.2 2.4-.6.3.2.4.7.4 1 0 .5-1.5 3-1.5 3s-2.6.9-2.8.7c-.7-.8-1.1-2.3-.7-2.6.6-.6 1.5-1.1 2.2-1.5z"/><path class="st9" d="M351.9 49.1c-.7.7-1.4 1.7-1.9 2-.5.3-2 1.8-2.5 1.3s3.9-3.9 4.3-4c.5-.2.4.4.1.7z"/><path class="st9" d="M351.5 48.4c-.2.6-2.3 2.6-2.3 2.6s-1.1.9-1.3.6c-.2-.4 1-1.4 1-1.4s.7-.6 1-.9c.3-.3.5-.8.9-1 .4-.2.7-.2.7.1z"/><path class="st9" d="M350.7 47.6s.3.4.5.5c.1.1-2.2 2.2-2.2 2.2s-.9.6-1 .2c-.1-.3 2.7-2.9 2.7-2.9z"/><path class="st12" d="m358 42.7 1.5 2.4-2.8 1.2-1.2-2.2z"/><path class="st7" d="M368.6 37.1c1.5 0 2.6 3.1.8 4.6-1.8 1.6-10.9 3.9-10.9 3.9l-2-2.3s10.6-6.2 12.1-6.2z"/><path class="st9" d="M362.7 55.6c.2 0 3.5-.3 5.1-.2 0 0-.2 1-.4 1-.7 0-4.7 0-5-.3-.2-.1-.2-.6.3-.5z"/><path class="st9" d="M363.5 56.9c0-.2 0-.4.2-.5.3-.1 2.3 0 2.7 0 1 0 2.2-.1 2.2-.1l.2 1.3c-.2 0-3-.3-3-.3s-2.3 0-2.3-.4z"/><path class="st9" d="M364.6 57.7c0-.2-.1-.4.2-.5.3-.1.9 0 1.2-.1h1.3c1 0 .7.9 0 .9-.8 0-2.7.1-2.7-.3z"/><path class="st9" d="M365.1 58c0-.2.1-.4.3-.5.3 0 .8.2 1.2.2.1 0 1 .2 1.3.3.9.3-.4.8-.8.7-.3-.1-2-.3-2-.7z"/><path class="st9" d="M365.9 57c-.2-.2-.1-.7.1-.9.2-.3 1.9-2.1 4.7-2.2 2.7-.2 3.7 1.7 3.3 2.2-.4.5-.6.8-1.6 1.1-2 .7-5 1.7-5.2 1.6-.2-.3-1.1-1.6-1.3-1.8z"/><path class="st9" d="m375.8 52.9-3.2 1.5-.6 2.9 4.6-2.1z"/><path class="st12" d="m384.7 46.5-11 7.1 1.4 2.4s9.1-2.9 12.8-5.7c2.5-1.7-.7-5.5-3.2-3.8z"/><path class="st9" d="M373.1 54.3c-.3-.3-6.1-1.2-6.5-.6-.4.6 2.4.8 2.6 1.2.3.4-.5.9-.1 1.1.5.1 4.6-1.2 4-1.7z"/><path class="st12" d="M389.6 33.6c-.3-3.8-3.2-1.6-4.9 1.1-1.5 2.4-.4 15.3-.4 15.3l4.6-.8.7-15.6z"/><path class="st16" d="m342.3 59.6 15 8.7 11-6.3v1.1l-11 6.4-15.1-8.7z"/><path class="st16" d="m353.2 53.3-11 6.4 15.1 8.7 11-6.4-15.1-8.7z"/><path class="st17" d="m343.4 59.6 13.9 8.1 9.8-5.7-13.9-8.1z"/><path class="st16" d="m340 50.5 14 8.1 3.8 9.5-.5.2-15-8.7-2.8-8.8z"/></g><circle class="st3" cx="195.3" cy="30" r="30"/><defs><circle id="SVGID_00000003070385357680442170000003441511013853024184_" cx="195.3" cy="30" r="30"/></defs><clipPath id="SVGID_00000014600122567082121420000014228461112267881911_"><use xlink:href="#SVGID_00000003070385357680442170000003441511013853024184_" style="overflow:visible"/></clipPath><g style="clip-path:url(#SVGID_00000014600122567082121420000014228461112267881911_)"><path class="st5" d="M221 88.2v-38l27.3 8.1v43.6c0 .7-.6 1.2-1.2 1.2-.1 0-26.1-14.9-26.1-14.9zM174.9 111.3v-38l27.3 8.1V125c0 .7-.6 1.2-1.2 1.2-.1 0-26.1-14.9-26.1-14.9z"/><path class="st6" d="m174.1 68.9 19.3-11.1c.7-.4 1.5-1.9 1.4-2.6L191.3 34c-.1-.5-.4-.6-.9-.3l-19.2 10c-1.3.8-.7 3.5-.5 4.7l3.4 20.5z"/><path class="st6" d="m174.7 69.7 18.7 10.9c.3.2.7.2 1 0l18.9-10.9c.7-.4.7-1.4 0-1.8L194.6 57c-.3-.2-.7-.2-1 0l-18.9 11c-.7.4-.7 1.4 0 1.7z"/><path class="st19" d="M222.5 104.8c-.6-.3-1.5-1-1.9-1.9-.2-.4.1-1.6-1.9-1.5-2 .1-2.4 1-2.5 1.4-.1.4-1.1 2.1-.4 3.1.7.9 2.6 1.2 4.7 2.6 1.8 1.2 2.3 2 3.4 2.2 1.1.2 2.9-.4 3.2-1.6.3-1.1-.5-1.9-1.1-2.3-.6-.4-2.9-1.7-3.5-2z"/><path class="st17" d="m221.7 98.5-4.3-.4c-.3 1.1.6 2.5-.6 4.4-.7 1.2 4 4.2 4 4.2l2.4-1.4s-3-3.5-1.5-6.8z"/><path class="st20" d="M223.4 75.2c1.4 3.6-.7 24.8-.6 25.9.1 1-2.7 2.7-4 2.4-1.3-.3-3.6-2.3-3.6-2.3s1.4-19.9.5-22.5c-.8-2.5-28.9-17.8-28.9-17.8l9.5-7.6 3.9 5.6c-.1.1 21.8 12.7 23.2 16.3z"/><path class="st19" d="M218.4 114.6c.7-.6.7-1.6 0-2.1-1.8-1.2-3.8-3.2-5.2-4-.9-.5-3.1-2.8-4.2-2.4-1.2.4-2 1.6-2 2.9 0 1.2.5 1.9 1.1 2.3.6.5 3.6 2 4.2 2.7 1.2 1.2 2.8 1.8 3.4 1.8 1.2-.1 2-.6 2.7-1.2z"/><path class="st17" d="m213 100.4-4.8-.3s.8 5.7-.9 7.4c-1 1 4.4 3.1 4.4 3.1s2.3-1.5 2.2-1.6c-2.7-3.2-.9-8.6-.9-8.6z"/><path class="st20" d="M212.9 105c0 1.2-2.4 2.3-4.8 1.8-2.4-.4-2.2-2.8-2.2-3.7.1-1 .4-16.9-1.4-20-1.8-3.1-21.7-10.8-23.4-13.8-1.7-3.1.4-10.5.4-10.5.2-.5 11.1-6.7 11.1-6.7l.8 11.5s16.4 12.8 18.2 15.6c2 2.8 1.3 24.7 1.3 25.8z"/><path class="st21" d="M199.4 24.1c-1.2-.8-4.2.8-4.2.8s8.2 17.7 10.8 18.3c2.6.6 3.1-3 3.1-3s-8.6-15.4-9.7-16.1z"/><path class="st12" d="M191.3 21.8c-2.2 1.4-5.3 5.8-5.3 5.8l3.8 33.8 9.7-4.1s1.3-23.7 1-26.3c-.4-2.7-1.8-6.2-3.9-7.2-2.3-1-3.2-3.4-5.3-2z"/><path class="st13" d="m197 41-1.2-10.4c.6-1 .8-3.8.4-4.2-.4-.4-2.3-.7-2.3-.7l-1.6 2.8 2.2 2.4-1.7 10.4.1 14.2 3 .5 1.7-2.3L197 41z"/><path class="st22" d="M192.9 21.8s2.3-.9 4.1-.1c1.3.6 2.4 1.3 3.1 2.5.5.8.8 2 1 3.1.3 2.5-.3 33.2-.3 33.2l-3.6 2.3-.2-12.4s.7-14.2.9-18.7c.2-9.2-5-9.9-5-9.9zM180.1 33.2c.7-2.2 4.6-6.9 4.6-6.9 1.1-1.2 2.4-2.7 4.3-4.3 0 0-.4 1.7.1 3.5.2.9 2.2 4.9 3 8.4.9 3.6.6 7.3.8 10.7.1 2.8 2.1 9.4 2 13.8-.1 4.9-.5 7-.5 7s-3.6 2.8-5.2 2.1c-3.9-1.9-8.1-5.3-8.1-5.3s-.6-15.1-1.2-20.5c-.2-2-.4-6.3.2-8.5z"/><path class="st12" d="M194.8 20.8c2 1.9 2.2 5.7 2.2 5.7s-1.3.2-2.6-.3l-.2-.6c.1-.3-5.1-3.1-4.9-4.3.3-.7 4.9-1.1 5.5-.5z"/><path class="st23" d="M198 7.8c1.5.9 1 4.5.9 5.1 0 .5-1.3 2.1-1.3 2.1s-1.2-1.9-1.6-4.1c-.4-2.2 1.5-3.4 2-3.1zM184.1 12.4c.5-1.2 2.8-.2 3.8.4 1.5.9 2 5.9 2 5.9-.6 1.3-6.8-4-5.8-6.3z"/><path class="st14" d="M196.3 18.8c-.2 1.2-.5 2.1-.5 3.5.1 1.4 0 1.7-.6 2.2-.6.4-.8 1-2.4.5-1.1-.4-3.4-1.8-3.2-2.3.6-2.8-.1-3.1-.9-4.7-1.7-3.5 6.1-1 7.6.8z"/><path class="st9" d="M193.4 21.8c1.3 0 2 .1 3.1-.6 1.2-.7 1.7-4.2 1.7-5 0-.8-.1-3.4-.1-3.4s0-1.6-.1-2.2c-.6-5.4-5.9-7.6-10.2-5.1-5.5 3.1-3 7.4-.9 10.9.3.6 1.9 2.9 2.6 3.5.6.7 2.6 1.9 3.9 1.9z"/><path class="st23" d="M184.2 10.2c-1.1-1.4.9-3.5 2.5-5 1.4-1.6 3.6-2.1 5.5-2 1 .1 2.1-.2 4.1 1.9.8.9 2.7 2.9 2.5 3.7-.2 1.1-.9.7-.9.7l-7.3-.2-1.9.8v3.3l.3 1.1s-.6.1-.8-.1c-.8-.6-1.7-.3-1.6.5-.4.2-1 1.9-2.1-.3-.6-1.3-1.2-2.3-.3-4.4z"/><path class="st23" d="M192.8 4.5s.9 1.2.4 2.1l-3.8 2c-.8.4-1.3 1.2-1.4 2l-.1.5c-.4 1.2 9.7-2.3 9.7-2.3l.8 1.6V8.2l-5.6-3.7z"/><path class="st9" d="M186.5 13.7c-.9.1-.4 1.5.6 3 .1.2 1 1.1 1.3.9.4-.2 0-1.8 0-2.1-.4-1.1 0-2.1-1.9-1.8z"/><path class="st14" d="M186.6 14.1c-.8.1-.3 1.2.5 2.6.1.1.8.9 1.1.8.4-.2 0-1.5 0-1.7-.3-1.1.1-1.9-1.6-1.7z"/><path class="st12" d="M189.7 20.7c-.2 1 1.5 4.7 4.6 4.8l.2.7L191 30s-2.2-2.9-2.4-4.4c-.2-1.4 0-4.6 1.1-4.9z"/><path class="st6" d="M183.6 14.6c0 1.6 1.3 3.7 3 4.7 1.6.9 3 .4 3-1.2s-1.3-3.7-3-4.7-3-.4-3 1.2z"/><path class="st6" d="M186.4 15.9c.3 0 .5-.2.6-.5.1-.4.1-1 0-1.8-.1-2.6-.3-7 4-9.2 2.2-1.1 4.4.7 4.4.7.3.2.6.2.9-.1.2-.3.2-.6-.1-.9-.1-.1-2.9-2.3-5.7-.9-5 2.5-4.8 7.6-4.7 10.3 0 .6.1 1.2 0 1.5-.1.3.1.7.5.7 0 .2 0 .2.1.2z"/><path class="st11" d="M186.2 14.5c1.1.6 2 2.1 2 3.2 0 .2 0 .3-.1.5 2 1.2 4.5 2.1 6.1 2.4h.1v-.1c.2-.3.7-.8 1-.8.2 0 .3.1.4.3.2.5-.1 1-.5 1.1-.2.1-.4.1-.6.1-.2 0-.3 0-.5-.1-1.6-.3-4.2-1.2-6.3-2.5-.4.3-.9.2-1.6-.1-1.1-.6-2-2.1-2-3.2s.9-1.5 2-.8z"/><path class="st5" d="m252.2 58.8-52.3 30.5-29.2-16.9v-2.2L223 42l29.2 14.7z"/><path class="st15" d="m252.2 56.7-52.3 30.4-29.2-16.9L223 39.8z"/><path class="st24" d="M234 57.1 223.8 63l-14.3-8.3 10.1-5.9z"/><path class="st9" d="M218.7 48.1c0 .6.2 2.3.5 2.7.2.4.1.8.3 1.2.4.2.7-.5.6-1-.1-.5 1.2-1.7 1.1-2.4-.1-1.2-1.8-1.6-2.1-1.6-.4-.1-.4.3-.4 1.1z"/><path class="st25" d="m233 57.1-8.9 5c-4.3-1.7-7.3-4.6-10-9.1l9.3-5.1c1.8 5.2 5.3 7.6 9.6 9.2z"/><path class="st22" d="M222.3 60.7c-.1 0-.1 0-.2-.1s0-.2.1-.3l7.2-4c.1-.1.2 0 .3.1.1.1 0 .2-.1.3l-7.3 4c0-.1 0 0 0 0zM220.5 59.3c-.1 0-.1 0-.2-.1s0-.2.1-.3l6.9-3.9c.1-.1.2 0 .3.1.1.1 0 .2-.1.3l-7 3.9zM219.1 58c-.1 0-.1 0-.2-.1s0-.2.1-.3l6.9-3.9c.1-.1.2 0 .3.1.1.1 0 .2-.1.3l-7 3.9c.1 0 0 0 0 0zM217.8 56.7c-.1 0-.1 0-.2-.1s0-.2.1-.3l6.9-3.9c.1-.1.2 0 .3.1.1.1 0 .2-.1.3l-7 3.9c.1 0 0 0 0 0z"/><path class="st9" d="M219.9 45.2c-.7-.4-.8.6-1 1.1-.3.5 0 1 .2 1.4.2.4 2.2 2.9 2.4 2.9.7-.1 3.3.3 2.5-1.4-.3-.7-.9-1.5-1.4-1.9-.9-.8-2.2-1.8-2.7-2.1z"/><path class="st9" d="m216 43.5-1.6 2.5 4.6 1.5 1.6-1.7c-.8-1-4.6-2.3-4.6-2.3z"/><path class="st12" d="m216.3 43.3-1.4 2.9 2.3 1.1 1.4-2.8z"/><path class="st9" d="M224.7 52.9c-.1-.1-.6-1-1.1-1.7-.4-.5-.8-.9-.9-1.1-.2-.3-.3-.5-.5-.8-.1-.5.5-.8 1-.4.2.3 1.8 3.6 1.8 3.7.1.2-.1.6-.3.3z"/><path class="st9" d="M224.4 51.6c-.3-.2-1.8-2.5-1.9-2.8-.2-.3-.3-.5-.5-.8-.1-.5 1.3.4 1.8.8.3.4 1.4 2.5 1.3 2.8-.2.5-.5.3-.7 0zM223.9 53.2c-.2-.3-1.3-1.9-1.4-2.2-.2-.3-.3-.5-.5-.8-.1-.5.3-.9.8-.5.2.3 1.9 3.3 2 3.6.2.4-.3.8-.9-.1z"/><path class="st9" d="M222.5 53.2c-.3-.7-1-2.6-1.4-3.3-.1-.9.6-.8 1.2.4.4.7 1.3 3.1 1.2 3.4-.3.5-.7.3-1-.5z"/><path class="st21" d="M206.9 39.2c-1.3 0-2.1 2.8-.5 4.1 1.6 1.3 9.4 3.7 9.4 3.7l1.8-3.2s-9.4-4.7-10.7-4.6z"/><path class="st16" d="M222.1 66.1 208.2 74l-10-5.8v1.1l10.1 5.8 13.8-8z"/><path class="st16" d="m212 60.2-13.8 8 10.1 5.9 13.8-8-10.1-5.9z"/><path class="st17" d="m221 66.1-12.8 7.3-9-5.2 12.8-7.4z"/><path class="st16" d="m224.2 57.7-12.9 7.4-3.5 8.7.5.2 13.8-7.9 2.5-8.2z"/><path class="st9" d="M196 64.5c.4 0 1.5.1 2 .1.6 0 2.2.2 2.1.6-.1.5-2.2.4-2.6.5-.5.1-.9.7-1.4.5-.3-.1-.9-1.7-.1-1.7z"/><path class="st9" d="M200.4 67.9c-.1-.2-1-1.4-2.2-2.3l-.7.9s.1 0 .3.1c.6.3 1.9 2 2.4 2 .7.1.5-.3.2-.7z"/><path class="st9" d="M200 69.9c.1-.1.2-.3.2-.5-.1-.3-.4-.6-.5-.9-.2-.5-2.1-2.2-2.1-2.2l-.6.8c.2.2 1.7 1.2 1.7 1.2s.9 1.8 1.3 1.6z"/><path class="st9" d="M199.3 70.2c-.4-.7-1.5-2.3-2-2.8.1 0 .6-.1.8-.3.2-.2-.2-.5-.2-.5s.6-.1.8-.3-.2-.5-.2-.5c-1.2-1.1-3-1.3-3.4-1.4-1.5-.3-2-.2-2.8-.7-.8-.5-1.8-1.8-1.8-1.8l-2.1 1.1s2 2.4 2.6 3.1c.9 1.1 3.5 2.3 4.8 2.7.5.2 1 .6 1.5.9.3.3.6.4.7.6.2.2.6-.1.3-.4l-1.8-1.8c.3.2.6.5.6.5s1.6 1.6 1.7 1.9c.2.2.6-.1.5-.3z"/><path class="st25" d="m191.1 62.3.9 1c-.4.9-1.7 1.8-2 1.8-.4 0-1.3-1-1.3-1l2.4-1.8z"/><path class="st21" d="M186.9 41.5c.5 3.7-1.5 11-1.5 11s2.5 10.7 1.4 10.4c-.6-.2-4.5-4.4-6.1-6.9-1.6-2.5.2-18.2 2.3-20.1 1.4-1.2 3.4 1.8 3.9 5.6z"/><path class="st22" d="M185.8 37.5c.5 3.7-2.4 12.6-2.4 12.6s7.8 11.6 7.9 12.2c.1.6-1.9 2.5-2.9 2.2-.6-.2-7.7-9.6-9.2-12.1-1.6-2.5.5-16.2 2-18.5 1.6-2.3 4.1-.1 4.6 3.6z"/></g><circle class="st26" cx="126" cy="30" r="20"/><defs><circle id="SVGID_00000078015450673500921370000010548847144694241920_" cx="126" cy="30" r="20"/></defs><clipPath id="SVGID_00000039823762618051053130000008596883309677062787_"><use xlink:href="#SVGID_00000078015450673500921370000010548847144694241920_" style="overflow:visible"/></clipPath><g style="clip-path:url(#SVGID_00000039823762618051053130000008596883309677062787_)"><path class="st5" d="M143.2 68.8V43.5l18.2 5.4V78c0 .5-.4.8-.8.8-.1-.1-17.4-10-17.4-10zM112.4 84.2V58.9l18.2 5.4v29.1c0 .5-.4.8-.8.8-.1-.1-17.4-10-17.4-10z"/><path class="st6" d="m111.9 55.9 12.9-7.4c.5-.3 1-1.3.9-1.7l-2.3-14.1c-.1-.3-.3-.4-.6-.2L110 39.2c-.9.5-.5 2.3-.3 3.2l2.2 13.5z"/><path class="st6" d="m112.3 56.5 12.5 7.3c.2.1.5.1.7 0l12.6-7.3c.5-.3.5-.9 0-1.2L125.6 48c-.2-.1-.5-.1-.7 0l-12.6 7.3c-.5.3-.5.9 0 1.2z"/><path class="st19" d="M144.2 79.9c-.4-.2-1-.7-1.2-1.2-.1-.3.1-1.1-1.3-1-1.4.1-1.6.7-1.7.9-.1.3-.7 1.4-.3 2 .4.6 1.8.8 3.1 1.7 1.2.8 1.6 1.3 2.3 1.5.7.2 1.9-.3 2.1-1 .2-.7-.3-1.3-.8-1.5-.3-.4-1.8-1.2-2.2-1.4z"/><path class="st17" d="m143.6 75.7-2.9-.2c-.2.8.4 1.7-.4 2.9-.5.8 2.7 2.8 2.7 2.8l1.6-.9c0-.1-1.9-2.5-1-4.6z"/><path class="st20" d="M144.8 60.2c.9 2.4-.5 16.6-.4 17.2 0 .7-1.8 1.8-2.7 1.6-.9-.2-2.4-1.5-2.4-1.5s.9-13.3.4-15c-.6-1.7-19.3-11.9-19.3-11.9l6.3-5 2.6 3.8c0-.1 14.5 8.4 15.5 10.8z"/><path class="st19" d="M141.4 86.4c.5-.4.5-1.1 0-1.4-1.2-.8-2.5-2.1-3.5-2.7-.6-.3-2-1.8-2.8-1.6-.8.3-1.3 1.1-1.4 1.9 0 .8.3 1.2.7 1.5.4.3 2.4 1.4 2.8 1.8.8.8 1.9 1.2 2.3 1.2 1 0 1.4-.3 1.9-.7z"/><path class="st17" d="m137.8 76.9-3.2-.2s.5 3.8-.6 4.9c-.6.7 2.9 2.1 2.9 2.1s1.6-1 1.5-1.1c-1.8-2-.6-5.7-.6-5.7z"/><path class="st20" d="M137.8 80c0 .8-1.6 1.5-3.2 1.2-1.6-.3-1.5-1.8-1.4-2.5 0-.6.3-11.3-.9-13.3-1.2-2.1-14.5-7.2-15.6-9.2-1.1-2 .3-7 .3-7 .1-.3 7.4-4.5 7.4-4.5l.6 7.7s10.9 8.6 12.2 10.4c1 1.9.6 16.5.6 17.2z"/><path class="st21" d="M128.7 26c-.8-.5-2.8.5-2.8.5s5.5 11.8 7.2 12.2c1.7.4 2.1-2 2.1-2s-5.7-10.1-6.5-10.7z"/><path class="st12" d="M123.3 24.5c-1.5.9-3.6 3.8-3.6 3.8l2.5 22.6 6.5-2.7s.9-15.8.6-17.5c-.2-1.8-1.2-4.1-2.6-4.8-1.3-.7-1.9-2.3-3.4-1.4z"/><path class="st13" d="m127.2 37.3-.8-6.9c.4-.7.5-2.5.3-2.8-.2-.3-1.5-.5-1.5-.5L124 29l1.5 1.6-1.1 6.9.1 9.5 2 .3 1.1-1.5-.4-8.5z"/><path class="st22" d="M124.4 24.6s1.6-.6 2.7 0c.9.4 1.6.9 2.1 1.6.3.6.6 1.3.6 2 .2 1.7-.2 22.1-.2 22.1l-2.4 1.5-.1-8.3s.4-9.5.6-12.4c.2-6.1-3.3-6.5-3.3-6.5zM115.9 32.1c.4-1.5 3.1-4.6 3.1-4.6.7-.8 1.6-1.8 2.9-2.9 0 0-.3 1.1 0 2.3.1.6 1.5 3.3 2 5.6.6 2.4.4 4.9.5 7.2.1 1.9 1.4 6.3 1.3 9.2-.1 3.3-.4 4.7-.4 4.7s-2.4 1.9-3.4 1.4c-2.6-1.3-5.4-3.6-5.4-3.6s-.4-10.1-.8-13.7c-.1-1.3-.2-4.1.2-5.6z"/><path class="st12" d="M125.7 23.8c1.3 1.3 1.5 3.8 1.5 3.8s-.9.1-1.7-.2l-.1-.4c0-.2-3.4-2.1-3.3-2.8.1-.5 3.2-.8 3.6-.4z"/><path class="st23" d="M127.8 15.2c1 .6.7 3 .6 3.4 0 .3-.9 1.4-.9 1.4s-.8-1.3-1.1-2.7c-.2-1.5 1.1-2.3 1.4-2.1zM118.6 18.3c.3-.8 1.9-.1 2.5.3 1 .6 1.3 3.9 1.3 3.9-.3.9-4.5-2.7-3.8-4.2z"/><path class="st14" d="M126.7 22.6c-.1.8-.4 1.4-.3 2.3.1.9 0 1.2-.4 1.5-.4.3-.5.7-1.6.3-.7-.2-2.3-1.2-2.1-1.6.4-1.9-.1-2-.6-3.1-1.2-2.4 4-.7 5 .6z"/><path class="st9" d="M124.8 24.5c.9 0 1.3.1 2.1-.4s1.1-2.8 1.1-3.3-.1-2.3-.1-2.3 0-1-.1-1.5c-.4-3.6-3.9-5-6.8-3.4-3.7 2.1-2 4.9-.6 7.3.2.4 1.3 2 1.7 2.4.5.4 1.8 1.2 2.7 1.2z"/><path class="st23" d="M118.6 16.8c-.7-.9.6-2.3 1.6-3.3.9-1.1 2.4-1.4 3.7-1.3.6.1 1.4-.1 2.7 1.3.5.6 1.8 1.9 1.7 2.4-.2.7-.6.4-.6.4l-4.8-.1-1.3.5v2.2l.2.7s-.4 0-.5-.1c-.5-.4-1.1-.2-1.1.3-.3.1-.7 1.3-1.4-.2-.4-.7-.8-1.4-.2-2.8z"/><path class="st23" d="M124.4 13s.6.8.3 1.4l-2.6 1.3c-.5.3-.9.8-.9 1.3v.3c-.2.8 6.4-1.5 6.4-1.5l.6 1v-1.5l-3.8-2.3z"/><path class="st9" d="M120.1 19.1c-.6.1-.3 1 .4 2 .1.1.7.7.9.6.3-.2 0-1.2 0-1.4-.2-.7 0-1.4-1.3-1.2z"/><path class="st14" d="M120.2 19.4c-.5.1-.2.8.3 1.7.1.1.6.6.7.5.2-.1 0-1 0-1.2-.1-.6.1-1.2-1-1z"/><path class="st12" d="M122.3 23.8c-.1.7 1 3.2 3.1 3.2l.2.5-2.4 2.5s-1.5-1.9-1.6-2.9c-.1-1 0-3.1.7-3.3z"/><path class="st6" d="M118.2 19.8c0 1.1.9 2.5 2 3.1 1.1.6 2 .3 2-.8s-.9-2.5-2-3.1c-1.1-.7-2-.3-2 .8z"/><path class="st6" d="M120.1 20.6c.2 0 .4-.1.4-.3.1-.3 0-.7 0-1.2-.1-1.8-.2-4.7 2.7-6.1 1.4-.7 2.9.5 3 .5.2.1.4.1.6-.1.1-.2.1-.4-.1-.6-.1-.1-1.9-1.5-3.8-.6-3.4 1.7-3.2 5.1-3.1 6.9v1c-.2.2 0 .4.3.5-.1 0 0 0 0 0z"/><path class="st11" d="M120 19.6c.7.4 1.3 1.4 1.3 2.1v.3c1.3.8 3 1.4 4.1 1.6h.1v-.1c.1-.2.4-.5.7-.5.1 0 .2.1.2.2.1.3-.1.6-.4.8-.1.1-.3.1-.4.1h-.3c-1.1-.2-2.8-.8-4.2-1.7-.2.2-.6.2-1.1-.1-.7-.4-1.3-1.4-1.3-2.1-.1-.7.5-1 1.3-.6z"/><path class="st5" d="m164 49.2-34.9 20.3-19.5-11.2v-1.5L144.5 38l19.5 9.8z"/><path class="st15" d="m164 47.8-34.9 20.3-19.5-11.3 34.9-20.3z"/><path class="st24" d="m151.8 48.1-6.7 3.9-9.6-5.6 6.8-3.9z"/><path class="st9" d="M141.6 42.1c0 .4.2 1.5.3 1.8.2.3.1.5.2.8.2.1.5-.4.4-.7-.1-.3.8-1.1.7-1.6-.1-.8-1.2-1.1-1.4-1.1-.2 0-.2.2-.2.8z"/><path class="st25" d="m151.2 48.1-6 3.4c-2.8-1.1-4.9-3.1-6.6-6.1l6.2-3.4c1.2 3.4 3.5 5 6.4 6.1z"/><path class="st22" d="M144 50.4s-.1 0-.1-.1 0-.1.1-.2l4.8-2.7c.1 0 .1 0 .2.1 0 .1 0 .1-.1.2l-4.9 2.7zM142.8 49.6s-.1 0-.1-.1 0-.1.1-.2l4.6-2.6c.1 0 .1 0 .2.1 0 .1 0 .1-.1.2l-4.7 2.6c.1-.1 0 0 0 0zM141.9 48.6s-.1 0-.1-.1 0-.1.1-.2l4.6-2.6c.1 0 .1 0 .2.1 0 .1 0 .1-.1.2l-4.7 2.6zM141 47.8s-.1 0-.1-.1 0-.1.1-.2l4.6-2.6c.1 0 .1 0 .2.1 0 .1 0 .1-.1.2l-4.7 2.6c.1 0 .1 0 0 0z"/><path class="st9" d="M142.5 40.1c-.5-.3-.5.4-.7.8-.2.3 0 .6.1.9.1.3 1.5 2 1.6 1.9.5-.1 2.2.2 1.7-.9-.2-.4-.6-1-.9-1.3-.6-.5-1.5-1.2-1.8-1.4z"/><path class="st9" d="m139.8 39-1.1 1.7 3.1 1 1.1-1.1c-.5-.7-3.1-1.6-3.1-1.6z"/><path class="st12" d="m140.1 38.9-1 1.9 1.6.7.8-1.9z"/><path class="st9" d="M145.6 45.3c-.1-.1-.4-.7-.7-1.2-.2-.4-.5-.6-.6-.7-.1-.2-.2-.4-.3-.5 0-.4.4-.5.7-.2.2.2 1.2 2.4 1.2 2.5 0 0-.1.2-.3.1z"/><path class="st9" d="M145.4 44.4c-.2-.2-1.2-1.7-1.3-1.9-.1-.2-.2-.4-.3-.5 0-.4.8.3 1.2.5.2.2.9 1.7.8 1.9-.1.3-.2.2-.4 0zM145.1 45.5c-.2-.2-.8-1.3-1-1.5-.1-.2-.2-.4-.3-.5 0-.4.2-.6.5-.3.2.2 1.3 2.2 1.4 2.4.1.2-.2.5-.6-.1z"/><path class="st9" d="M144.2 45.5c-.2-.5-.7-1.7-.9-2.2 0-.6.4-.5.8.3.3.5.9 2.1.8 2.3-.2.2-.5.1-.7-.4z"/><path class="st21" d="M133.8 36.1c-.9 0-1.4 1.9-.3 2.7 1.1.9 6.3 2.5 6.3 2.5l1.2-2.1c-.1 0-6.4-3.1-7.2-3.1z"/><path class="st16" d="m143.9 54-9.2 5.4-6.8-3.9v.7l6.8 3.9 9.2-5.4z"/><path class="st16" d="m137.2 50.1-9.2 5.3 6.7 3.9 9.2-5.3-6.7-3.9z"/><path class="st17" d="m143.2 54-8.5 5-6.1-3.5 8.6-5z"/><path class="st16" d="m145.3 48.4-8.6 5-2.3 5.8.3.2 9.2-5.4 1.7-5.4z"/><path class="st9" d="M126.5 53c.3 0 1 .1 1.4.1.4 0 1.5.1 1.4.4-.1.3-1.5.3-1.7.3-.3.1-.6.4-.9.3-.4 0-.7-1.1-.2-1.1z"/><path class="st9" d="M129.5 55.3c-.1-.1-.7-1-1.5-1.5l-.4.6s.1 0 .2.1c.4.2 1.3 1.3 1.6 1.4.3-.1.2-.4.1-.6z"/><path class="st9" d="M129.1 56.6c.1-.1.2-.2.1-.3-.1-.2-.3-.4-.3-.6-.2-.3-1.4-1.5-1.4-1.5l-.4.5c.1.1 1.1.8 1.1.8s.7 1.3.9 1.1z"/><path class="st9" d="M128.7 56.8c-.3-.5-1-1.5-1.3-1.9.1 0 .4-.1.5-.2.1-.1-.1-.3-.1-.3s.4-.1.5-.2c.1-.1-.1-.4-.1-.4-.8-.7-2-.9-2.2-.9-1-.2-1.3-.1-1.9-.5-.5-.3-1.2-1.2-1.2-1.2l-1.4.7s1.4 1.6 1.8 2.1c.6.7 2.3 1.5 3.2 1.8.4.1.7.4 1 .6.2.2.4.3.5.4.1.1.4 0 .2-.2l-1.2-1.2c.2.1.4.3.4.3s1 1.1 1.1 1.2c0 .2.3.1.2-.1z"/><path class="st25" d="m123.2 51.5.6.7c-.3.6-1.1 1.2-1.4 1.2-.3 0-.9-.7-.9-.7l1.7-1.2z"/><path class="st21" d="M120.4 37.6c.3 2.5-1 7.3-1 7.3s1.6 7.2.9 6.9c-.4-.1-3-2.9-4.1-4.6-1-1.7.1-12.1 1.5-13.4 1.1-.6 2.4 1.3 2.7 3.8z"/><path class="st22" d="M119.7 35c.3 2.5-1.6 8.4-1.6 8.4s5.2 7.7 5.3 8.1c.1.4-1.3 1.7-1.9 1.5-.4-.1-5.1-6.4-6.1-8.1-1-1.7.3-10.8 1.3-12.4 1-1.5 2.7 0 3 2.5z"/></g><circle class="st28" cx="73.2" cy="30" r="20"/><defs><circle id="SVGID_00000008838682201064510910000014948987578711239082_" cx="73.2" cy="30" r="20"/></defs><clipPath id="SVGID_00000086689965891324616690000004264751416025613502_"><use xlink:href="#SVGID_00000008838682201064510910000014948987578711239082_" style="overflow:visible"/></clipPath><g style="clip-path:url(#SVGID_00000086689965891324616690000004264751416025613502_)"><path class="st5" d="M90.4 68.8V43.5l18.2 5.4V78c0 .5-.4.8-.8.8-.1-.1-17.4-10-17.4-10zM59.6 84.2V58.9l18.2 5.4v29.1c0 .5-.4.8-.8.8-.1-.1-17.4-10-17.4-10z"/><path class="st6" d="M59.1 55.9 72 48.5c.5-.3 1-1.3.9-1.7l-2.3-14.1c-.1-.3-.3-.4-.6-.2l-12.8 6.7c-.9.5-.5 2.3-.3 3.2l2.2 13.5z"/><path class="st6" d="M59.5 56.5 72 63.8c.2.1.5.1.7 0l12.6-7.3c.5-.3.5-.9 0-1.2L72.8 48c-.2-.1-.5-.1-.7 0l-12.6 7.3c-.5.3-.5.9 0 1.2z"/><path class="st19" d="M91.4 79.9c-.4-.2-1-.7-1.2-1.2-.1-.3.1-1.1-1.3-1-1.4.1-1.6.7-1.7.9-.1.3-.7 1.4-.3 2 .4.6 1.8.8 3.1 1.7 1.2.8 1.6 1.3 2.3 1.5.7.2 1.9-.3 2.1-1 .2-.7-.3-1.3-.8-1.5-.3-.4-1.8-1.2-2.2-1.4z"/><path class="st17" d="m90.8 75.7-2.9-.2c-.2.8.4 1.7-.4 2.9-.5.8 2.7 2.8 2.7 2.8l1.6-.9c0-.1-2-2.5-1-4.6z"/><path class="st20" d="M91.9 60.2c.9 2.4-.5 16.6-.4 17.2 0 .7-1.8 1.8-2.7 1.6-.9-.2-2.4-1.5-2.4-1.5s.9-13.3.4-15c-.6-1.7-19.3-11.9-19.3-11.9l6.3-5 2.6 3.8c0-.1 14.6 8.4 15.5 10.8z"/><path class="st19" d="M88.6 86.4c.5-.4.5-1.1 0-1.4-1.2-.8-2.5-2.1-3.5-2.7-.6-.3-2-1.8-2.8-1.6-.8.3-1.3 1.1-1.4 1.9 0 .8.3 1.2.7 1.5.4.3 2.4 1.4 2.8 1.8.8.8 1.9 1.2 2.3 1.2.9 0 1.4-.3 1.9-.7z"/><path class="st17" d="m85 76.9-3.2-.2s.5 3.8-.6 4.9c-.6.7 2.9 2.1 2.9 2.1s1.6-1 1.5-1.1c-1.8-2-.6-5.7-.6-5.7z"/><path class="st20" d="M85 80c0 .8-1.6 1.5-3.2 1.2-1.6-.3-1.5-1.8-1.4-2.5 0-.6.3-11.3-.9-13.3-1.2-2.1-14.5-7.2-15.6-9.2-1.1-2 .3-7 .3-7 .1-.3 7.4-4.5 7.4-4.5l.6 7.7S83.1 61 84.4 62.8c1 1.9.6 16.5.6 17.2z"/><path class="st21" d="M75.9 26c-.8-.5-2.8.5-2.8.5s5.5 11.8 7.2 12.2c1.7.4 2.1-2 2.1-2S76.7 26.6 75.9 26z"/><path class="st12" d="M70.5 24.5c-1.5.9-3.6 3.8-3.6 3.8l2.5 22.6 6.5-2.7s.9-15.8.6-17.5c-.2-1.8-1.2-4.1-2.6-4.8-1.3-.7-1.9-2.3-3.4-1.4z"/><path class="st13" d="m74.4 37.3-.8-6.9c.4-.7.5-2.5.3-2.8-.2-.3-1.5-.5-1.5-.5L71.2 29l1.5 1.6-1.1 6.9.1 9.5 2 .3 1.1-1.5-.4-8.5z"/><path class="st22" d="M71.6 24.6s1.6-.6 2.7 0c.9.4 1.6.9 2.1 1.6.3.6.6 1.3.6 2 .2 1.7-.2 22.1-.2 22.1l-2.4 1.5-.1-8.3s.4-9.5.6-12.4c.2-6.1-3.3-6.5-3.3-6.5zM63.1 32.1c.4-1.5 3.1-4.6 3.1-4.6.7-.8 1.6-1.8 2.9-2.9 0 0-.3 1.1 0 2.3.1.6 1.5 3.3 2 5.6.6 2.4.4 4.9.5 7.2.1 1.9 1.4 6.3 1.3 9.2-.1 3.3-.4 4.7-.4 4.7s-2.4 1.9-3.4 1.4c-2.6-1.3-5.4-3.6-5.4-3.6s-.4-10.1-.8-13.7c-.1-1.3-.2-4.1.2-5.6z"/><path class="st12" d="M72.9 23.8c1.3 1.3 1.5 3.8 1.5 3.8s-.9.1-1.7-.2l-.1-.4c0-.2-3.4-2.1-3.3-2.8.1-.5 3.2-.8 3.6-.4z"/><path class="st23" d="M75 15.2c1 .6.7 3 .6 3.4 0 .3-.9 1.4-.9 1.4s-.8-1.3-1.1-2.7c-.2-1.5 1.1-2.3 1.4-2.1zM65.8 18.3c.3-.8 1.9-.1 2.5.3 1 .6 1.3 3.9 1.3 3.9-.4.9-4.5-2.7-3.8-4.2z"/><path class="st14" d="M73.9 22.6c-.1.8-.4 1.4-.3 2.3.1.9 0 1.2-.4 1.5-.4.3-.5.7-1.6.3-.7-.2-2.3-1.2-2.1-1.6.4-1.9-.1-2-.6-3.1-1.2-2.4 4-.7 5 .6z"/><path class="st9" d="M72 24.5c.9 0 1.3.1 2.1-.4s1.1-2.8 1.1-3.3-.1-2.3-.1-2.3 0-1-.1-1.5c-.4-3.6-3.9-5-6.8-3.4-3.7 2.1-2 4.9-.6 7.3.2.4 1.3 2 1.7 2.4.5.4 1.8 1.2 2.7 1.2z"/><path class="st23" d="M65.8 16.8c-.7-.9.6-2.3 1.6-3.3.9-1.1 2.4-1.4 3.7-1.3.6.1 1.4-.1 2.7 1.3.5.6 1.8 1.9 1.7 2.4-.2.7-.6.4-.6.4l-4.8-.1-1.3.5v2.2l.2.7s-.4 0-.5-.1c-.5-.4-1.1-.2-1.1.3-.3.1-.7 1.3-1.4-.2-.4-.7-.8-1.4-.2-2.8z"/><path class="st23" d="M71.6 13s.6.8.3 1.4l-2.6 1.3c-.5.3-.9.8-.9 1.3v.3c-.2.8 6.4-1.5 6.4-1.5l.6 1v-1.5L71.6 13z"/><path class="st9" d="M67.3 19.1c-.6.1-.3 1 .4 2 .1.1.7.7.9.6.3-.2 0-1.2 0-1.4-.3-.7 0-1.4-1.3-1.2z"/><path class="st14" d="M67.4 19.4c-.5.1-.2.8.3 1.7.1.1.6.6.7.5.2-.1 0-1 0-1.2-.1-.6.1-1.2-1-1z"/><path class="st12" d="M69.5 23.8c-.1.7 1 3.2 3.1 3.2l.2.5-2.4 2.5s-1.5-1.9-1.6-2.9c-.2-1 0-3.1.7-3.3z"/><path class="st6" d="M65.4 19.8c0 1.1.9 2.5 2 3.1 1.1.6 2 .3 2-.8s-.9-2.5-2-3.1c-1.1-.7-2-.3-2 .8z"/><path class="st6" d="M67.3 20.6c.2 0 .4-.1.4-.3.1-.3 0-.7 0-1.2-.1-1.8-.2-4.7 2.7-6.1 1.4-.7 2.9.5 3 .5.2.1.4.1.6-.1.1-.2.1-.4-.1-.6-.1-.1-1.9-1.5-3.8-.6-3.4 1.7-3.2 5.1-3.1 6.9v1c-.2.2 0 .4.3.5-.1 0-.1 0 0 0z"/><path class="st11" d="M67.1 19.6c.7.4 1.3 1.4 1.3 2.1v.3c1.3.8 3 1.4 4.1 1.6h.1v-.1c.1-.2.4-.5.7-.5.1 0 .2.1.2.2.1.3-.1.6-.4.8-.1.1-.3.1-.4.1h-.3c-1.1-.2-2.8-.8-4.2-1.7-.2.2-.6.2-1.1-.1-.7-.4-1.3-1.4-1.3-2.1 0-.7.6-1 1.3-.6z"/><path class="st5" d="M111.2 49.2 76.3 69.5 56.8 58.3v-1.5L91.7 38l19.5 9.8z"/><path class="st15" d="M111.2 47.8 76.3 68.1 56.8 56.8l34.9-20.3z"/><path class="st24" d="M99 48.1 92.3 52l-9.6-5.6 6.7-3.9z"/><path class="st9" d="M88.8 42.1c0 .4.2 1.5.3 1.8.2.3.1.5.2.8.2.1.5-.4.4-.7-.1-.3.8-1.1.7-1.6-.1-.8-1.2-1.1-1.4-1.1-.2 0-.2.2-.2.8z"/><path class="st25" d="m98.3 48.1-6 3.4c-2.8-1.1-4.9-3.1-6.6-6.1L92 42c1.2 3.4 3.5 5 6.3 6.1z"/><path class="st22" d="M91.2 50.4s-.1 0-.1-.1 0-.1.1-.2l4.8-2.7c.1 0 .1 0 .2.1 0 .1 0 .1-.1.2l-4.9 2.7zM90 49.6s-.1 0-.1-.1 0-.1.1-.2l4.6-2.6c.1 0 .1 0 .2.1 0 .1 0 .1-.1.2L90 49.6c0-.1 0 0 0 0zM89.1 48.6s-.1 0-.1-.1 0-.1.1-.2l4.6-2.6c.1 0 .1 0 .2.1 0 .1 0 .1-.1.2l-4.7 2.6zM88.2 47.8s-.1 0-.1-.1 0-.1.1-.2l4.6-2.6c.1 0 .1 0 .2.1 0 .1 0 .1-.1.2l-4.7 2.6c.1 0 .1 0 0 0z"/><path class="st9" d="M89.7 40.1c-.5-.3-.5.4-.7.8-.2.3 0 .6.1.9.1.3 1.5 2 1.6 1.9.5-.1 2.2.2 1.7-.9-.2-.4-.6-1-.9-1.3-.7-.5-1.6-1.2-1.8-1.4z"/><path class="st9" d="m87 39-1.1 1.7 3.1 1 1.1-1.1C89.5 39.9 87 39 87 39z"/><path class="st12" d="m87.2 38.9-.9 1.9 1.5.7.9-1.9z"/><path class="st9" d="M92.8 45.3c-.1-.1-.4-.7-.7-1.2-.2-.4-.5-.6-.6-.7-.1-.2-.2-.4-.3-.5 0-.4.4-.5.7-.2.2.2 1.2 2.4 1.2 2.5 0 0-.1.2-.3.1z"/><path class="st9" d="M92.6 44.4c-.2-.2-1.2-1.7-1.3-1.9-.1-.2-.2-.4-.3-.5 0-.4.8.3 1.2.5.2.2.9 1.7.8 1.9-.1.3-.2.2-.4 0zM92.3 45.5c-.2-.2-.8-1.3-1-1.5-.1-.2-.2-.4-.3-.5 0-.4.2-.6.5-.3.2.2 1.3 2.2 1.4 2.4.1.2-.2.5-.6-.1z"/><path class="st9" d="M91.4 45.5c-.2-.5-.7-1.7-.9-2.2 0-.6.4-.5.8.3.3.5.9 2.1.8 2.3-.3.2-.5.1-.7-.4z"/><path class="st21" d="M80.9 36.1c-.9 0-1.4 1.9-.3 2.7 1.1.9 6.3 2.5 6.3 2.5l1.2-2.1s-6.3-3.1-7.2-3.1z"/><path class="st16" d="m91.1 54-9.3 5.4-6.7-3.9v.7l6.8 3.9 9.2-5.4z"/><path class="st16" d="m84.4 50.1-9.2 5.3 6.7 3.9 9.2-5.3-6.7-3.9z"/><path class="st17" d="m90.4 54-8.6 5-6-3.5 8.6-5z"/><path class="st16" d="m92.5 48.4-8.6 5-2.3 5.8.3.2 9.2-5.4 1.7-5.4z"/><path class="st9" d="M73.7 53c.3 0 1 .1 1.4.1.4 0 1.5.1 1.4.4-.1.3-1.5.3-1.7.3-.3.1-.6.4-.9.3-.4 0-.7-1.1-.2-1.1z"/><path class="st9" d="M76.6 55.3c-.1-.1-.7-1-1.5-1.5l-.4.6s.1 0 .2.1c.4.2 1.3 1.3 1.6 1.4.4-.1.3-.4.1-.6z"/><path class="st9" d="M76.3 56.6c.1-.1.2-.2.1-.3-.1-.2-.3-.4-.3-.6-.2-.3-1.4-1.5-1.4-1.5l-.4.5c.1.1 1.1.8 1.1.8s.7 1.3.9 1.1z"/><path class="st9" d="M75.9 56.8c-.3-.5-1-1.5-1.3-1.9.1 0 .4-.1.5-.2.1-.1-.1-.3-.1-.3s.4-.1.5-.2c.1-.1-.1-.4-.1-.4-.8-.7-2-.9-2.2-.9-1-.2-1.3-.1-1.9-.5-.5-.3-1.2-1.2-1.2-1.2l-1.5.8s1.4 1.6 1.8 2.1c.6.7 2.3 1.5 3.2 1.8.4.1.7.4 1 .6.2.2.4.3.5.4.1.1.4 0 .2-.2l-1.2-1.2c.2.1.4.3.4.3s1 1.1 1.1 1.2c.1.1.4 0 .3-.2z"/><path class="st25" d="m70.4 51.5.6.7c-.3.6-1.1 1.2-1.4 1.2-.3 0-.9-.7-.9-.7l1.7-1.2z"/><path class="st21" d="M67.6 37.6c.3 2.5-1 7.3-1 7.3s1.6 7.2.9 6.9c-.4-.1-3-2.9-4.1-4.6-1-1.7.1-12.1 1.5-13.4 1-.6 2.4 1.3 2.7 3.8z"/><path class="st22" d="M66.9 35c.3 2.5-1.6 8.4-1.6 8.4s5.2 7.7 5.3 8.1c.1.4-1.3 1.7-1.9 1.5-.4-.1-5.1-6.4-6.1-8.1-1-1.7.3-10.8 1.3-12.4 1-1.5 2.7 0 3 2.5z"/></g><circle class="st30" cx="20.4" cy="30" r="20"/><defs><circle id="SVGID_00000027592272076637185560000010553952485448657568_" cx="20.4" cy="30" r="20"/></defs><clipPath id="SVGID_00000128448095187695612980000017345703878010944667_"><use xlink:href="#SVGID_00000027592272076637185560000010553952485448657568_" style="overflow:visible"/></clipPath><g style="clip-path:url(#SVGID_00000128448095187695612980000017345703878010944667_)"><path class="st5" d="M37.6 68.8V43.5l18.2 5.4V78c0 .5-.4.8-.8.8-.2-.1-17.4-10-17.4-10zM6.8 84.2V58.9L25 64.2v29.1c0 .5-.4.8-.8.8-.1 0-17.4-9.9-17.4-9.9z"/><path class="st6" d="m6.2 55.9 12.9-7.4c.5-.3 1-1.3.9-1.7l-2.3-14.1c-.1-.3-.3-.4-.6-.2L4.4 39.2c-.9.5-.5 2.3-.3 3.2l2.1 13.5z"/><path class="st6" d="m6.6 56.5 12.5 7.3c.2.1.5.1.7 0l12.6-7.3c.5-.3.5-.9 0-1.2L19.9 48c-.2-.1-.5-.1-.7 0L6.6 55.3c-.4.3-.4.9 0 1.2z"/><path class="st19" d="M38.6 79.9c-.4-.2-1-.7-1.2-1.2-.1-.3.1-1.1-1.3-1-1.4.1-1.6.7-1.7.9-.1.3-.7 1.4-.3 2 .4.6 1.8.8 3.1 1.7 1.2.8 1.6 1.3 2.3 1.5.7.2 1.9-.3 2.1-1 .2-.7-.3-1.3-.8-1.5-.3-.4-1.8-1.2-2.2-1.4z"/><path class="st17" d="m38 75.7-2.9-.2c-.2.8.4 1.7-.4 2.9-.5.8 2.7 2.8 2.7 2.8l1.6-.9c0-.1-2-2.5-1-4.6z"/><path class="st20" d="M39.1 60.2c.9 2.4-.5 16.6-.4 17.2 0 .7-1.8 1.8-2.7 1.6-.9-.2-2.4-1.5-2.4-1.5s.9-13.3.4-15c-.6-1.7-19.3-11.9-19.3-11.9l6.3-5 2.6 3.8c0-.1 14.6 8.4 15.5 10.8z"/><path class="st19" d="M35.8 86.4c.5-.4.5-1.1 0-1.4-1.2-.8-2.5-2.1-3.5-2.7-.6-.3-2-1.8-2.8-1.6-.8.3-1.3 1.1-1.4 1.9 0 .8.3 1.2.7 1.5.4.3 2.4 1.4 2.8 1.8.8.8 1.9 1.2 2.3 1.2.9 0 1.4-.3 1.9-.7z"/><path class="st17" d="m32.2 76.9-3.2-.2s.5 3.8-.6 4.9c-.6.7 2.9 2.1 2.9 2.1s1.6-1 1.5-1.1c-1.8-2-.6-5.7-.6-5.7z"/><path class="st20" d="M32.2 80c0 .8-1.6 1.5-3.2 1.2-1.6-.3-1.5-1.8-1.4-2.5 0-.6.3-11.3-.9-13.3-1.2-2.1-14.5-7.2-15.6-9.2-1.1-2 .3-7 .3-7 .1-.3 7.4-4.5 7.4-4.5l.6 7.7S30.3 61 31.6 62.8c1 1.9.6 16.5.6 17.2z"/><path class="st21" d="M23.1 26c-.8-.5-2.8.5-2.8.5s5.5 11.8 7.2 12.2c1.7.4 2.1-2 2.1-2S23.9 26.6 23.1 26z"/><path class="st12" d="M17.7 24.5c-1.5.9-3.6 3.8-3.6 3.8l2.5 22.6 6.5-2.7s.9-15.8.6-17.5c-.2-1.8-1.2-4.1-2.6-4.8-1.3-.7-1.9-2.3-3.4-1.4z"/><path class="st13" d="m21.6 37.3-.8-6.9c.4-.7.5-2.5.3-2.8-.2-.3-1.5-.5-1.5-.5L18.4 29l1.5 1.6-1.1 6.9.1 9.5 2 .3 1.1-1.5-.4-8.5z"/><path class="st22" d="M18.8 24.6s1.6-.6 2.7 0c.9.4 1.6.9 2.1 1.6.3.6.6 1.3.6 2 .2 1.7-.2 22.1-.2 22.1l-2.4 1.5-.1-8.3s.4-9.5.6-12.4c.2-6.1-3.3-6.5-3.3-6.5zM10.3 32.1c.4-1.5 3.1-4.6 3.1-4.6.7-.8 1.6-1.8 2.9-2.9 0 0-.3 1.1 0 2.3.1.6 1.5 3.3 2 5.6.6 2.4.4 4.9.5 7.2.1 1.9 1.4 6.3 1.3 9.2-.1 3.3-.4 4.7-.4 4.7s-2.4 1.9-3.4 1.4c-2.6-1.3-5.4-3.6-5.4-3.6s-.4-10.1-.8-13.7c-.1-1.3-.3-4.1.2-5.6z"/><path class="st12" d="M20.1 23.8c1.3 1.3 1.5 3.8 1.5 3.8s-.9.1-1.7-.2l-.1-.4c0-.2-3.4-2.1-3.3-2.8.1-.5 3.2-.8 3.6-.4z"/><path class="st23" d="M22.2 15.2c1 .6.7 3 .6 3.4 0 .3-.9 1.4-.9 1.4s-.8-1.3-1.1-2.7c-.2-1.5 1.1-2.3 1.4-2.1zM13 18.3c.3-.8 1.9-.1 2.5.3 1 .6 1.3 3.9 1.3 3.9-.4.9-4.5-2.7-3.8-4.2z"/><path class="st14" d="M21.1 22.6c-.1.8-.4 1.4-.3 2.3.1.9 0 1.2-.4 1.5-.4.3-.5.7-1.6.3-.7-.2-2.3-1.2-2.1-1.6.4-1.9-.1-2-.6-3.1-1.2-2.4 4-.7 5 .6z"/><path class="st9" d="M19.2 24.5c.9 0 1.3.1 2.1-.4s1.1-2.8 1.1-3.3-.1-2.3-.1-2.3 0-1-.1-1.5c-.4-3.6-3.9-5-6.8-3.4-3.7 2.1-2 4.9-.6 7.3.2.4 1.3 2 1.7 2.4.4.4 1.8 1.2 2.7 1.2z"/><path class="st23" d="M13 16.8c-.7-.9.6-2.3 1.6-3.3.9-1.1 2.4-1.4 3.7-1.3.6.1 1.4-.1 2.7 1.3.5.6 1.8 1.9 1.7 2.4-.2.7-.6.4-.6.4l-4.8-.1-1.3.6V19l.2.7s-.4 0-.5-.1c-.5-.4-1.1-.2-1.1.3-.3.1-.7 1.3-1.4-.2-.4-.8-.8-1.5-.2-2.9z"/><path class="st23" d="M18.8 13s.6.8.3 1.4l-2.6 1.3c-.5.3-.9.8-.9 1.3v.3c-.2.8 6.4-1.5 6.4-1.5l.6 1v-1.5L18.8 13z"/><path class="st9" d="M14.5 19.1c-.6.1-.3 1 .4 2 .1.1.7.7.9.6.3-.2 0-1.2 0-1.4-.3-.7 0-1.4-1.3-1.2z"/><path class="st14" d="M14.6 19.4c-.5.1-.2.8.3 1.7.1.1.6.6.7.5.2-.1 0-1 0-1.2-.1-.6.1-1.2-1-1z"/><path class="st12" d="M16.7 23.8c-.1.7 1 3.2 3.1 3.2l.2.5-2.4 2.5s-1.5-1.9-1.6-2.9c-.2-1 0-3.1.7-3.3z"/><path class="st6" d="M12.6 19.8c0 1.1.9 2.5 2 3.1 1.1.6 2 .3 2-.8s-.9-2.5-2-3.1c-1.1-.7-2-.3-2 .8z"/><path class="st6" d="M14.5 20.6c.2 0 .4-.1.4-.3.1-.3 0-.7 0-1.2-.1-1.8-.2-4.7 2.7-6.1 1.4-.7 2.9.5 3 .5.2.1.4.1.6-.1.1-.2.1-.4-.1-.6-.1-.1-1.9-1.5-3.8-.6-3.4 1.7-3.2 5.1-3.1 6.9v1c-.2.2 0 .4.3.5-.1 0-.1 0 0 0z"/><path class="st11" d="M14.3 19.6c.7.4 1.3 1.4 1.3 2.1v.3c1.3.8 3 1.4 4.1 1.6h.1v-.1c.1-.2.4-.5.7-.5.1 0 .2.1.2.2.1.3-.1.6-.4.8-.1.1-.3.1-.4.1h-.3c-1.1-.2-2.8-.8-4.2-1.7-.2.2-.6.2-1.1-.1-.7-.4-1.3-1.4-1.3-2.1 0-.7.6-1 1.3-.6z"/><path class="st5" d="M58.4 49.2 23.5 69.5 4 58.3v-1.5L38.9 38l19.5 9.8z"/><path class="st15" d="M58.4 47.8 23.5 68.1 4 56.8l34.9-20.3z"/><path class="st24" d="M46.2 48.1 39.4 52l-9.5-5.6 6.7-3.9z"/><path class="st9" d="M36 42.1c0 .4.2 1.5.3 1.8.2.3.1.5.2.8.2.1.5-.4.4-.7-.1-.3.8-1.1.7-1.6-.1-.8-1.2-1.1-1.4-1.1-.2 0-.2.2-.2.8z"/><path class="st25" d="m45.5 48.1-6 3.4c-2.8-1.1-4.9-3.1-6.6-6.1l6.2-3.4c1.3 3.4 3.5 5 6.4 6.1z"/><path class="st22" d="M38.4 50.4s-.1 0-.1-.1 0-.1.1-.2l4.8-2.7c.1 0 .1 0 .2.1 0 .1 0 .1-.1.2l-4.9 2.7zM37.2 49.6s-.1 0-.1-.1 0-.1.1-.2l4.6-2.6c.1 0 .1 0 .2.1 0 .1 0 .1-.1.2l-4.7 2.6c0-.1 0 0 0 0zM36.3 48.6s-.1 0-.1-.1 0-.1.1-.2l4.6-2.6c.1 0 .1 0 .2.1 0 .1 0 .1-.1.2l-4.7 2.6zM35.4 47.8s-.1 0-.1-.1 0-.1.1-.2L40 45c.1 0 .1 0 .2.1 0 .1 0 .1-.1.2l-4.7 2.5c.1 0 0 0 0 0z"/><path class="st9" d="M36.8 40.1c-.5-.3-.5.4-.7.8-.2.3 0 .6.1.9.1.3 1.5 2 1.6 1.9.5-.1 2.2.2 1.7-.9-.2-.4-.6-1-.9-1.3-.6-.5-1.5-1.2-1.8-1.4z"/><path class="st9" d="m34.2 39-1.1 1.7 3.1 1 1.1-1.1c-.6-.7-3.1-1.6-3.1-1.6z"/><path class="st12" d="m34.4 38.9-.9 1.9 1.5.7.9-1.9z"/><path class="st9" d="M40 45.3c-.1-.1-.4-.7-.7-1.2-.2-.4-.5-.6-.6-.7-.1-.2-.2-.4-.3-.5 0-.4.4-.5.7-.2.2.2 1.2 2.4 1.2 2.5 0 0-.2.2-.3.1z"/><path class="st9" d="M39.8 44.4c-.2-.2-1.2-1.7-1.3-1.9-.1-.2-.2-.4-.3-.5 0-.4.8.3 1.2.5.2.2.9 1.7.8 1.9-.1.3-.2.2-.4 0zM39.5 45.5c-.2-.2-.8-1.3-1-1.5-.1-.2-.2-.4-.3-.5 0-.4.2-.6.5-.3.2.2 1.3 2.2 1.4 2.4.1.2-.2.5-.6-.1z"/><path class="st9" d="M38.5 45.5c-.2-.5-.7-1.7-.9-2.2 0-.6.4-.5.8.3.3.5.9 2.1.8 2.3-.2.2-.5.1-.7-.4z"/><path class="st21" d="M28.1 36.1c-.9 0-1.4 1.9-.3 2.7 1.1.9 6.3 2.5 6.3 2.5l1.2-2.1s-6.3-3.1-7.2-3.1z"/><path class="st16" d="M38.3 54 29 59.4l-6.7-3.9v.7l6.7 3.9 9.3-5.4z"/><path class="st16" d="m31.5 50.1-9.2 5.3 6.7 3.9 9.2-5.3-6.7-3.9z"/><path class="st17" d="M37.6 54 29 59l-6-3.5 8.5-5z"/><path class="st16" d="m39.7 48.4-8.7 5-2.3 5.8.3.2 9.3-5.4 1.7-5.4z"/><path class="st9" d="M20.9 53c.3 0 1 .1 1.4.1.4 0 1.5.1 1.4.4-.1.3-1.5.3-1.7.3-.3.1-.6.4-.9.3-.4 0-.7-1.1-.2-1.1z"/><path class="st9" d="M23.8 55.3c-.1-.1-.7-1-1.5-1.5l-.4.6s.1 0 .2.1c.4.2 1.3 1.3 1.6 1.4.4-.1.3-.4.1-.6z"/><path class="st9" d="M23.5 56.6c.1-.1.2-.2.1-.3-.1-.2-.3-.4-.3-.6-.2-.3-1.4-1.5-1.4-1.5l-.4.5c.1.1 1.1.8 1.1.8s.7 1.3.9 1.1z"/><path class="st9" d="M23.1 56.8c-.3-.5-1-1.5-1.3-1.9.1 0 .4-.1.5-.2.1-.1-.1-.3-.1-.3s.4-.1.5-.2c.1-.1-.1-.4-.1-.4-.8-.7-2-.9-2.2-.9-1-.2-1.3-.1-1.9-.5-.5-.3-1.2-1.2-1.2-1.2l-1.5.8s1.4 1.6 1.8 2.1c.6.7 2.3 1.5 3.2 1.8.4.1.7.4 1 .6.2.2.4.3.5.4.1.1.4 0 .2-.2l-1.2-1.2c.2.1.4.3.4.3s1 1.1 1.1 1.2c0 .1.4 0 .3-.2z"/><path class="st25" d="m17.6 51.5.6.7c-.3.6-1.1 1.2-1.4 1.2-.3 0-.9-.7-.9-.7l1.7-1.2z"/><path class="st21" d="M14.8 37.6c.3 2.5-1 7.3-1 7.3s1.6 7.2.9 6.9c-.4-.1-3-2.9-4.1-4.6-1-1.7.1-12.1 1.5-13.4 1-.6 2.4 1.3 2.7 3.8z"/><path class="st22" d="M14.1 35c.3 2.5-1.6 8.4-1.6 8.4s5.2 7.7 5.3 8.1c.1.4-1.3 1.7-1.9 1.5-.4-.1-5.1-6.4-6.1-8.1-1-1.7.3-10.8 1.3-12.4 1-1.5 2.7 0 3 2.5z"/></g><circle class="st26" cx="195.3" cy="165.8" r="30"/><defs><circle id="SVGID_00000088107619880043565200000000248222453077865614_" cx="195.3" cy="165.8" r="30"/></defs><clipPath id="SVGID_00000018226245843549681330000008240605542670182067_"><use xlink:href="#SVGID_00000088107619880043565200000000248222453077865614_" style="overflow:visible"/></clipPath><g style="clip-path:url(#SVGID_00000018226245843549681330000008240605542670182067_)"><path class="st5" d="M221 224v-38l27.3 8.1v43.6c0 .7-.6 1.2-1.2 1.2-.1 0-26.1-14.9-26.1-14.9zM174.9 247.1v-38l27.3 8.1v43.6c0 .7-.6 1.2-1.2 1.2-.1 0-26.1-14.9-26.1-14.9z"/><path class="st6" d="m174.1 204.7 19.3-11.1c.7-.4 1.5-1.9 1.4-2.6l-3.4-21.2c-.1-.5-.4-.6-.9-.3l-19.2 10c-1.3.8-.7 3.5-.5 4.7l3.3 20.5z"/><path class="st6" d="m174.7 205.6 18.7 10.9c.3.2.7.2 1 0l18.9-10.9c.7-.4.7-1.4 0-1.8l-18.7-10.9c-.3-.2-.7-.2-1 0l-18.9 10.9c-.7.4-.7 1.4 0 1.8z"/><path class="st19" d="M222.5 240.6c-.6-.3-1.5-1-1.9-1.9-.2-.4.1-1.6-1.9-1.5-2 .1-2.4 1-2.5 1.4-.1.4-1.1 2.1-.4 3.1.7.9 2.6 1.2 4.7 2.6 1.8 1.2 2.3 2 3.4 2.2 1.1.2 2.9-.4 3.2-1.6.3-1.1-.5-1.9-1.1-2.3-.6-.4-2.9-1.7-3.5-2z"/><path class="st17" d="m221.7 234.3-4.3-.4c-.3 1.1.6 2.5-.6 4.4-.7 1.2 4 4.2 4 4.2l2.4-1.4s-3-3.5-1.5-6.8z"/><path class="st20" d="M223.4 211c1.4 3.6-.7 24.8-.6 25.9.1 1-2.7 2.7-4 2.4-1.3-.3-3.6-2.3-3.6-2.3s1.4-19.9.5-22.5c-.8-2.5-28.9-17.8-28.9-17.8l9.5-7.6 3.9 5.6c-.1.1 21.8 12.7 23.2 16.3z"/><path class="st19" d="M218.4 250.4c.7-.6.7-1.6 0-2.1-1.8-1.2-3.8-3.2-5.2-4-.9-.5-3.1-2.8-4.2-2.4-1.2.4-2 1.6-2 2.9 0 1.2.5 1.9 1.1 2.3.6.5 3.6 2 4.2 2.7 1.2 1.2 2.8 1.8 3.4 1.8 1.2-.1 2-.6 2.7-1.2z"/><path class="st17" d="m213 236.2-4.8-.3s.8 5.7-.9 7.4c-1 1 4.4 3.1 4.4 3.1s2.3-1.5 2.2-1.6c-2.7-3.2-.9-8.6-.9-8.6z"/><path class="st20" d="M212.9 240.8c0 1.2-2.4 2.3-4.8 1.8-2.4-.4-2.2-2.8-2.2-3.7.1-1 .4-16.9-1.4-20-1.8-3.1-21.7-10.8-23.4-13.8-1.7-3.1.4-10.5.4-10.5.2-.5 11.1-6.7 11.1-6.7l.8 11.5s16.4 12.8 18.2 15.6c2 2.8 1.3 24.7 1.3 25.8z"/><path class="st21" d="M199.4 159.9c-1.2-.8-4.2.8-4.2.8s8.2 17.7 10.8 18.3c2.6.6 3.1-3 3.1-3s-8.6-15.4-9.7-16.1z"/><path class="st12" d="M191.3 157.6c-2.2 1.4-5.3 5.8-5.3 5.8l3.8 33.8 9.7-4.1s1.3-23.7 1-26.3c-.4-2.7-1.8-6.2-3.9-7.2-2.3-1-3.2-3.4-5.3-2z"/><path class="st13" d="m197 176.8-1.2-10.4c.6-1 .8-3.8.4-4.2-.4-.4-2.3-.7-2.3-.7l-1.6 2.8 2.2 2.4-1.7 10.4.1 14.2 3 .5 1.7-2.3-.6-12.7z"/><path class="st22" d="M192.9 157.6s2.3-.9 4.1-.1c1.3.6 2.4 1.3 3.1 2.5.5.8.8 2 1 3.1.3 2.5-.3 33.2-.3 33.2l-3.6 2.3-.1-12.4s.7-14.2.9-18.7c.1-9.2-5.1-9.9-5.1-9.9zM180.1 169c.7-2.2 4.6-6.9 4.6-6.9 1.1-1.2 2.4-2.7 4.3-4.3 0 0-.4 1.7.1 3.5.2.9 2.2 4.9 3 8.4.9 3.6.6 7.3.8 10.7.1 2.8 2.1 9.4 2 13.8-.1 4.9-.5 7-.5 7s-3.6 2.8-5.2 2.1c-3.9-1.9-8.1-5.3-8.1-5.3s-.6-15.1-1.2-20.5c-.2-2-.4-6.3.2-8.5z"/><path class="st12" d="M194.8 156.6c2 1.9 2.2 5.7 2.2 5.7s-1.3.2-2.6-.3l-.2-.6c.1-.3-5.1-3.1-4.9-4.3.3-.7 4.9-1.1 5.5-.5z"/><path class="st23" d="M198 143.6c1.5.9 1 4.5.9 5.1 0 .5-1.3 2.1-1.3 2.1s-1.2-1.9-1.6-4.1c-.4-2.2 1.5-3.4 2-3.1zM184.1 148.2c.5-1.2 2.8-.2 3.8.4 1.5.9 2 5.9 2 5.9-.6 1.3-6.8-4-5.8-6.3z"/><path class="st14" d="M196.3 154.6c-.2 1.2-.5 2.1-.5 3.5.1 1.4 0 1.7-.6 2.2-.6.4-.8 1-2.4.5-1.1-.4-3.4-1.8-3.2-2.3.6-2.8-.1-3.1-.9-4.7-1.7-3.5 6.1-1 7.6.8z"/><path class="st9" d="M193.4 157.6c1.3 0 2 .1 3.1-.6 1.2-.7 1.7-4.2 1.7-5 0-.8-.1-3.4-.1-3.4s0-1.6-.1-2.2c-.6-5.4-5.9-7.6-10.2-5.1-5.5 3.1-3 7.4-.9 10.9.3.6 1.9 2.9 2.6 3.5.6.7 2.6 1.9 3.9 1.9z"/><path class="st23" d="M184.2 146c-1.1-1.4.9-3.5 2.5-5 1.4-1.6 3.6-2.1 5.5-2 1 .1 2.1-.2 4.1 1.9.8.9 2.7 2.9 2.5 3.7-.2 1.1-.9.7-.9.7l-7.3-.2-1.9.8v3.3l.3 1.1s-.6.1-.8-.1c-.8-.6-1.7-.3-1.6.5-.4.2-1 1.9-2.1-.3-.6-1.3-1.2-2.3-.3-4.4z"/><path class="st23" d="M192.8 140.3s.9 1.2.4 2.1l-3.8 2c-.8.4-1.3 1.2-1.4 2l-.1.5c-.4 1.2 9.7-2.3 9.7-2.3l.8 1.6V144l-5.6-3.7z"/><path class="st9" d="M186.5 149.5c-.9.1-.4 1.5.6 3 .1.2 1 1.1 1.3.9.4-.2 0-1.8 0-2.1-.4-1.1 0-2.1-1.9-1.8z"/><path class="st14" d="M186.6 149.9c-.8.1-.3 1.2.5 2.6.1.1.8.9 1.1.8.4-.2 0-1.5 0-1.7-.3-1.1.1-1.9-1.6-1.7z"/><path class="st12" d="M189.7 156.5c-.2 1 1.5 4.7 4.6 4.8l.2.7-3.5 3.8s-2.2-2.9-2.4-4.4c-.2-1.4 0-4.6 1.1-4.9z"/><path class="st6" d="M183.6 150.4c0 1.6 1.3 3.7 3 4.7 1.6.9 3 .4 3-1.2s-1.3-3.7-3-4.7-3-.4-3 1.2z"/><path class="st6" d="M186.4 151.7c.3 0 .5-.2.6-.5.1-.4.1-1 0-1.8-.1-2.6-.3-7 4-9.2 2.2-1.1 4.4.7 4.4.7.3.2.6.2.9-.1.2-.3.2-.6-.1-.9-.1-.1-2.9-2.3-5.7-.9-5 2.5-4.8 7.6-4.7 10.3 0 .6.1 1.2 0 1.5-.1.3.1.7.5.7 0 .2 0 .2.1.2z"/><path class="st11" d="M186.2 150.3c1.1.6 2 2.1 2 3.2 0 .2 0 .3-.1.5 2 1.2 4.5 2.1 6.1 2.4h.1v-.1c.2-.3.7-.8 1-.8.2 0 .3.1.4.3.2.5-.1 1-.5 1.1-.2.1-.4.1-.6.1-.2 0-.3 0-.5-.1-1.6-.3-4.2-1.2-6.3-2.5-.4.3-.9.2-1.6-.1-1.1-.6-2-2.1-2-3.2s.9-1.5 2-.8z"/><path class="st5" d="m252.2 194.6-52.3 30.5-29.2-16.9V206l52.3-28.2 29.2 14.7z"/><path class="st15" d="m252.2 192.5-52.3 30.4-29.2-16.9 52.3-30.4z"/><path class="st24" d="m234 192.9-10.2 5.9-14.3-8.3 10.1-5.9z"/><path class="st9" d="M218.7 183.9c0 .6.2 2.3.5 2.7.2.4.1.8.3 1.2.4.2.7-.5.6-1-.1-.5 1.2-1.7 1.1-2.4-.1-1.2-1.8-1.6-2.1-1.6-.4-.1-.4.3-.4 1.1z"/><path class="st25" d="m233 192.9-8.9 5c-4.3-1.7-7.3-4.6-10-9.1l9.3-5.1c1.8 5.2 5.3 7.6 9.6 9.2z"/><path class="st22" d="M222.3 196.5c-.1 0-.1 0-.2-.1s0-.2.1-.3l7.2-4c.1-.1.2 0 .3.1.1.1 0 .2-.1.3l-7.3 4zM220.5 195.1c-.1 0-.1 0-.2-.1s0-.2.1-.3l6.9-3.9c.1-.1.2 0 .3.1.1.1 0 .2-.1.3l-7 3.9zM219.1 193.8c-.1 0-.1 0-.2-.1s0-.2.1-.3l6.9-3.9c.1-.1.2 0 .3.1.1.1 0 .2-.1.3l-7 3.9c.1 0 0 0 0 0zM217.8 192.5c-.1 0-.1 0-.2-.1s0-.2.1-.3l6.9-3.9c.1-.1.2 0 .3.1.1.1 0 .2-.1.3l-7 3.9c.1 0 0 0 0 0z"/><path class="st9" d="M219.9 181c-.7-.4-.8.6-1 1.1-.3.5 0 1 .2 1.4.2.4 2.2 2.9 2.4 2.9.7-.1 3.3.3 2.5-1.4-.3-.7-.9-1.5-1.4-1.9-.9-.8-2.2-1.8-2.7-2.1z"/><path class="st9" d="m216 179.3-1.6 2.5 4.6 1.5 1.6-1.7c-.8-1-4.6-2.3-4.6-2.3z"/><path class="st12" d="m216.3 179.1-1.4 2.9 2.3 1.1 1.4-2.8z"/><path class="st9" d="M224.7 188.7c-.1-.1-.6-1-1.1-1.7-.4-.5-.8-.9-.9-1.1-.2-.3-.3-.5-.5-.8-.1-.5.5-.8 1-.4.2.3 1.8 3.6 1.8 3.7.1.2-.1.6-.3.3z"/><path class="st9" d="M224.4 187.4c-.3-.2-1.8-2.5-1.9-2.8-.2-.3-.3-.5-.5-.8-.1-.5 1.3.4 1.8.8.3.4 1.4 2.5 1.3 2.8-.2.5-.5.3-.7 0zM223.9 189.1c-.2-.3-1.3-1.9-1.4-2.2-.2-.3-.3-.5-.5-.8-.1-.5.3-.9.8-.5.2.3 1.9 3.3 2 3.6.2.3-.3.7-.9-.1z"/><path class="st9" d="M222.5 189c-.3-.7-1-2.6-1.4-3.3-.1-.9.6-.8 1.2.4.4.7 1.3 3.1 1.2 3.4-.3.5-.7.3-1-.5z"/><path class="st21" d="M206.9 175c-1.3 0-2.1 2.8-.5 4.1 1.6 1.3 9.4 3.7 9.4 3.7l1.8-3.2s-9.4-4.7-10.7-4.6z"/><path class="st16" d="m222.1 201.9-13.9 7.9-10-5.8v1.1l10.1 5.8 13.8-8z"/><path class="st16" d="m212 196-13.8 8 10.1 5.9 13.8-8L212 196z"/><path class="st17" d="m221 201.9-12.8 7.3-9-5.2 12.8-7.4z"/><path class="st16" d="m224.2 193.5-12.9 7.4-3.5 8.7.5.2 13.8-7.9 2.5-8.2z"/><path class="st9" d="M196 200.3c.4 0 1.5.1 2 .1.6 0 2.2.2 2.1.6-.1.5-2.2.4-2.6.5-.5.1-.9.7-1.4.5-.3-.1-.9-1.7-.1-1.7z"/><path class="st9" d="M200.4 203.7c-.1-.2-1-1.4-2.2-2.3l-.7.9s.1 0 .3.1c.6.3 1.9 2 2.4 2 .7.1.5-.3.2-.7z"/><path class="st9" d="M200 205.7c.1-.1.2-.3.2-.5-.1-.3-.4-.6-.5-.9-.2-.5-2.1-2.2-2.1-2.2l-.6.8c.2.2 1.7 1.2 1.7 1.2s.9 1.8 1.3 1.6z"/><path class="st9" d="M199.3 206c-.4-.7-1.5-2.3-2-2.8.1 0 .6-.1.8-.3.2-.2-.2-.5-.2-.5s.6-.1.8-.3c.2-.2-.2-.5-.2-.5-1.2-1.1-3-1.3-3.4-1.4-1.5-.3-2-.2-2.8-.7-.8-.5-1.8-1.8-1.8-1.8l-2.1 1.1s2 2.4 2.6 3.1c.9 1.1 3.5 2.3 4.8 2.7.5.2 1 .6 1.5.9.3.3.6.4.7.6.2.2.6-.1.3-.4l-1.8-1.8c.3.2.6.5.6.5s1.6 1.6 1.7 1.9c.2.2.6-.1.5-.3z"/><path class="st25" d="m191.1 198.1.9 1c-.4.9-1.7 1.8-2 1.8-.4 0-1.3-1-1.3-1l2.4-1.8z"/><path class="st21" d="M186.9 177.3c.5 3.7-1.5 11-1.5 11s2.5 10.7 1.4 10.4c-.6-.2-4.5-4.4-6.1-6.9-1.6-2.5.2-18.2 2.3-20.1 1.4-1.2 3.4 1.8 3.9 5.6z"/><path class="st22" d="M185.8 173.3c.5 3.7-2.4 12.6-2.4 12.6s7.8 11.6 7.9 12.2c.1.6-1.9 2.5-2.9 2.2-.6-.2-7.7-9.6-9.2-12.1-1.6-2.5.5-16.2 2-18.5 1.6-2.3 4.1-.1 4.6 3.6z"/></g><path class="st0" d="M221.3 64.6c0 4.4-3.6 8-8 8h-36c-4.4 0-8-3.6-8-8s3.6-8 8-8h36c4.4 0 8 3.6 8 8z"/><path class="st17" d="M183 66.9c.4.7 1.1.9 2.1 1 1.2 0 3.6 0 4.9-.1-.1.3-.3.8-.4 1.2-1.2.1-3.3.1-4.6 0-1.2 0-2-.3-2.6-1.1-.5.4-.9.8-1.5 1.2l-.5-1.2c.4-.2.9-.6 1.4-.9v-2.2h-1.3v-1.1h2.4v3.2zm-.5-4.5c-.3-.5-1.1-1.2-1.7-1.6l.8-.8c.6.4 1.4 1.1 1.7 1.5l-.8.9zm2.5 5.1h-1.1v-5.1h2.2c-.5-.2-.9-.4-1.3-.6l.8-.6c.3.1.8.3 1.2.5.3-.2.5-.3.8-.5H184v-.9h4.6l.2-.1.7.6c-.5.5-1.1.9-1.8 1.3l.6.3h1.2v4.1c0 .5-.1.7-.4.9-.3.2-.7.2-1.3.2 0-.3-.2-.7-.3-.9h.8c.1 0 .1 0 .1-.1V66h-1.2v1.5h-1.1V66H185v1.5zm0-4.3v.5h1.1v-.5H185zm1.2 1.9v-.6H185v.6h1.2zm2.2-1.9h-1.2v.5h1.2v-.5zm0 1.9v-.6h-1.2v.6h1.2zM190.6 61.5h3.8v.9h-3.8v-.9zm3.5 7.3H192v.4h-1v-3.4h3.1v3zm0-5h-3V63h3v.8zm-3 .5h3v.9h-3v-.9zm3-3.3h-2.9v-.9h2.9v.9zm-2 5.7v1.1h1.1v-1.1h-1.1zm5.7-2.9v1.3h1.7v4h-1.2v-.4H196v.5h-1v-4h1.6v-1.3h-2.1v-1.1h2.1v-1.2c-.6.1-1.1.1-1.7.2 0-.3-.2-.7-.3-1 1.5-.1 3.2-.4 4.2-.7l.8 1c-.6.2-1.2.3-1.9.4v1.4h2.1V64h-2zm.6 2.4h-2.3v1.4h2.3v-1.4zM209.4 61.6v5h-1.2v-.5h-2.3v3.1h-1.3v-3.1h-2.2v.5h-1.2v-5h3.4v-1.7h1.3v1.7h3.5zm-4.8 3.3v-2.1h-2.2v2.1h2.2zm3.6 0v-2.1h-2.3v2.1h2.3z"/><path class="st33" d="M118.2 64.6c0 4.4-3.6 8-8 8h-74c-4.4 0-8-3.6-8-8s3.6-8 8-8h74c4.4 0 8 3.6 8 8z"/><circle class="st28" cx="126" cy="165.1" r="20"/><defs><circle id="SVGID_00000134956730858460456650000016161384890845049242_" cx="126" cy="165.1" r="20"/></defs><clipPath id="SVGID_00000034795498571808956890000015771419863743102601_"><use xlink:href="#SVGID_00000134956730858460456650000016161384890845049242_" style="overflow:visible"/></clipPath><g style="clip-path:url(#SVGID_00000034795498571808956890000015771419863743102601_)"><path class="st5" d="M143.2 204v-25.3l18.2 5.4v29.1c0 .5-.4.8-.8.8-.1-.1-17.4-10-17.4-10zM112.4 219.4V194l18.2 5.4v29.1c0 .5-.4.8-.8.8-.1 0-17.4-9.9-17.4-9.9z"/><path class="st6" d="m111.9 191.1 12.9-7.4c.5-.3 1-1.3.9-1.7l-2.3-14.1c-.1-.3-.3-.4-.6-.2l-12.8 6.7c-.9.5-.5 2.3-.3 3.2l2.2 13.5z"/><path class="st6" d="m112.3 191.6 12.5 7.3c.2.1.5.1.7 0l12.6-7.3c.5-.3.5-.9 0-1.2l-12.5-7.3c-.2-.1-.5-.1-.7 0l-12.6 7.3c-.5.3-.5 1 0 1.2z"/><path class="st19" d="M144.2 215c-.4-.2-1-.7-1.2-1.2-.1-.3.1-1.1-1.3-1-1.4.1-1.6.7-1.7.9-.1.3-.7 1.4-.3 2 .4.6 1.8.8 3.1 1.7 1.2.8 1.6 1.3 2.3 1.5.7.2 1.9-.3 2.1-1 .2-.7-.3-1.3-.8-1.5-.3-.3-1.8-1.2-2.2-1.4z"/><path class="st17" d="m143.6 210.8-2.9-.2c-.2.8.4 1.7-.4 2.9-.5.8 2.7 2.8 2.7 2.8l1.6-.9c0-.1-1.9-2.4-1-4.6z"/><path class="st20" d="M144.8 195.3c.9 2.4-.5 16.6-.4 17.2 0 .7-1.8 1.8-2.7 1.6-.9-.2-2.4-1.5-2.4-1.5s.9-13.3.4-15c-.6-1.7-19.3-11.9-19.3-11.9l6.3-5 2.6 3.8s14.5 8.4 15.5 10.8z"/><path class="st19" d="M141.4 221.5c.5-.4.5-1.1 0-1.4-1.2-.8-2.5-2.1-3.5-2.7-.6-.3-2-1.8-2.8-1.6-.8.3-1.3 1.1-1.4 1.9 0 .8.3 1.2.7 1.5.4.3 2.4 1.4 2.8 1.8.8.8 1.9 1.2 2.3 1.2 1 .1 1.4-.3 1.9-.7z"/><path class="st17" d="m137.8 212.1-3.2-.2s.5 3.8-.6 4.9c-.6.7 2.9 2.1 2.9 2.1s1.6-1 1.5-1.1c-1.8-2.1-.6-5.7-.6-5.7z"/><path class="st20" d="M137.8 215.2c0 .8-1.6 1.5-3.2 1.2-1.6-.3-1.5-1.8-1.4-2.5 0-.6.3-11.3-.9-13.3-1.2-2.1-14.5-7.2-15.6-9.2-1.1-2 .3-7 .3-7 .1-.3 7.4-4.5 7.4-4.5l.6 7.7s10.9 8.6 12.2 10.4c1 1.8.6 16.4.6 17.2z"/><path class="st21" d="M128.7 161.2c-.8-.5-2.8.5-2.8.5s5.5 11.8 7.2 12.2c1.7.4 2.1-2 2.1-2s-5.7-10.2-6.5-10.7z"/><path class="st12" d="M123.3 159.7c-1.5.9-3.6 3.8-3.6 3.8l2.5 22.6 6.5-2.7s.9-15.8.6-17.5c-.2-1.8-1.2-4.1-2.6-4.8-1.3-.8-1.9-2.4-3.4-1.4z"/><path class="st13" d="m127.2 172.5-.8-6.9c.4-.7.5-2.5.3-2.8-.2-.3-1.5-.5-1.5-.5l-1.1 1.9 1.5 1.6-1.1 6.9.1 9.5 2 .3 1.1-1.5-.5-8.5z"/><path class="st22" d="M124.4 159.7s1.6-.6 2.7 0c.9.4 1.6.9 2.1 1.6.3.6.6 1.3.6 2 .2 1.7-.2 22.1-.2 22.1l-2.4 1.5-.1-8.3s.4-9.5.6-12.4c.2-6-3.3-6.5-3.3-6.5zM115.9 167.3c.4-1.5 3.1-4.6 3.1-4.6.7-.8 1.6-1.8 2.9-2.9 0 0-.3 1.1 0 2.3.1.6 1.5 3.3 2 5.6.6 2.4.4 4.9.5 7.2.1 1.9 1.4 6.3 1.3 9.2-.1 3.3-.4 4.7-.4 4.7s-2.4 1.9-3.4 1.4c-2.6-1.3-5.4-3.6-5.4-3.6s-.4-10.1-.8-13.7c-.1-1.3-.2-4.1.2-5.6z"/><path class="st12" d="M125.7 159c1.3 1.3 1.5 3.8 1.5 3.8s-.9.1-1.7-.2l-.1-.4c0-.2-3.4-2.1-3.3-2.8.1-.5 3.2-.8 3.6-.4z"/><path class="st23" d="M127.8 150.3c1 .6.7 3 .6 3.4 0 .3-.9 1.4-.9 1.4s-.8-1.3-1.1-2.7c-.2-1.4 1.1-2.3 1.4-2.1zM118.6 153.4c.3-.8 1.9-.1 2.5.3 1 .6 1.3 3.9 1.3 3.9-.3.9-4.5-2.6-3.8-4.2z"/><path class="st14" d="M126.7 157.7c-.1.8-.4 1.4-.3 2.3.1.9 0 1.2-.4 1.5-.4.3-.5.7-1.6.3-.7-.2-2.3-1.2-2.1-1.6.4-1.9-.1-2-.6-3.1-1.2-2.3 4-.6 5 .6z"/><path class="st9" d="M124.8 159.7c.9 0 1.3.1 2.1-.4s1.1-2.8 1.1-3.3-.1-2.3-.1-2.3 0-1-.1-1.5c-.4-3.6-3.9-5-6.8-3.4-3.7 2.1-2 4.9-.6 7.3.2.4 1.3 2 1.7 2.4.5.4 1.8 1.2 2.7 1.2z"/><path class="st23" d="M118.6 152c-.7-.9.6-2.3 1.6-3.3.9-1.1 2.4-1.4 3.7-1.3.6.1 1.4-.1 2.7 1.3.5.6 1.8 1.9 1.7 2.4-.2.7-.6.4-.6.4l-4.8-.1-1.3.5v2.2l.2.7s-.4 0-.5-.1c-.5-.4-1.1-.2-1.1.3-.3.1-.7 1.3-1.4-.2-.4-.8-.8-1.5-.2-2.8z"/><path class="st23" d="M124.4 148.1s.6.8.3 1.4l-2.6 1.3c-.5.3-.9.8-.9 1.3v.3c-.2.8 6.4-1.5 6.4-1.5l.6 1v-1.5l-3.8-2.3z"/><path class="st9" d="M120.1 154.3c-.6.1-.3 1 .4 2 .1.1.7.7.9.6.3-.2 0-1.2 0-1.4-.2-.7 0-1.4-1.3-1.2z"/><path class="st14" d="M120.2 154.6c-.5.1-.2.8.3 1.7.1.1.6.6.7.5.2-.1 0-1 0-1.2-.1-.6.1-1.2-1-1z"/><path class="st12" d="M122.3 158.9c-.1.7 1 3.2 3.1 3.2l.2.5-2.4 2.5s-1.5-1.9-1.6-2.9c-.1-.9 0-3.1.7-3.3z"/><path class="st6" d="M118.2 154.9c0 1.1.9 2.5 2 3.1 1.1.6 2 .3 2-.8s-.9-2.5-2-3.1c-1.1-.7-2-.3-2 .8z"/><path class="st6" d="M120.1 155.7c.2 0 .4-.1.4-.3.1-.3 0-.7 0-1.2-.1-1.8-.2-4.7 2.7-6.1 1.4-.7 2.9.5 3 .5.2.1.4.1.6-.1.1-.2.1-.4-.1-.6-.1-.1-1.9-1.5-3.8-.6-3.4 1.7-3.2 5.1-3.1 6.9v1c-.2.3 0 .5.3.5-.1 0 0 0 0 0z"/><path class="st11" d="M120 154.8c.7.4 1.3 1.4 1.3 2.1v.3c1.3.8 3 1.4 4.1 1.6h.1v-.1c.1-.2.4-.5.7-.5.1 0 .2.1.2.2.1.3-.1.6-.4.8-.1.1-.3.1-.4.1h-.3c-1.1-.2-2.8-.8-4.2-1.7-.2.2-.6.2-1.1-.1-.7-.4-1.3-1.4-1.3-2.1-.1-.8.5-1 1.3-.6z"/><path class="st5" d="m164 184.4-34.9 20.2-19.5-11.2V192l34.9-18.9 19.5 9.8z"/><path class="st15" d="m164 182.9-34.9 20.3-19.5-11.2 34.9-20.3z"/><path class="st24" d="m151.8 183.2-6.7 3.9-9.6-5.5 6.8-3.9z"/><path class="st9" d="M141.6 177.2c0 .4.2 1.5.3 1.8.2.3.1.5.2.8.2.1.5-.4.4-.7-.1-.3.8-1.1.7-1.6-.1-.8-1.2-1.1-1.4-1.1-.2 0-.2.3-.2.8z"/><path class="st25" d="m151.2 183.2-6 3.4c-2.8-1.1-4.9-3.1-6.6-6.1l6.2-3.4c1.2 3.5 3.5 5 6.4 6.1z"/><path class="st22" d="M144 185.6s-.1 0-.1-.1 0-.1.1-.2l4.8-2.7c.1 0 .1 0 .2.1 0 .1 0 .1-.1.2l-4.9 2.7zM142.8 184.7s-.1 0-.1-.1 0-.1.1-.2l4.6-2.6c.1 0 .1 0 .2.1 0 .1 0 .1-.1.2l-4.7 2.6c.1 0 0 0 0 0zM141.9 183.8s-.1 0-.1-.1 0-.1.1-.2l4.6-2.6c.1 0 .1 0 .2.1 0 .1 0 .1-.1.2l-4.7 2.6zM141 182.9s-.1 0-.1-.1 0-.1.1-.2l4.6-2.6c.1 0 .1 0 .2.1 0 .1 0 .1-.1.2l-4.7 2.6c.1 0 .1 0 0 0z"/><path class="st9" d="M142.5 175.3c-.5-.3-.5.4-.7.8-.2.3 0 .6.1.9.1.3 1.5 2 1.6 1.9.5-.1 2.2.2 1.7-.9-.2-.4-.6-1-.9-1.3-.6-.5-1.5-1.2-1.8-1.4z"/><path class="st9" d="m139.8 174.1-1.1 1.7 3.1 1 1.1-1.1c-.5-.7-3.1-1.6-3.1-1.6z"/><path class="st12" d="m140.1 174-1 1.9 1.6.8.8-1.9z"/><path class="st9" d="M145.6 180.4c-.1-.1-.4-.7-.7-1.2-.2-.4-.5-.6-.6-.7-.1-.2-.2-.4-.3-.5 0-.4.4-.5.7-.2.2.2 1.2 2.4 1.2 2.5 0 .1-.1.3-.3.1z"/><path class="st9" d="M145.4 179.6c-.2-.2-1.2-1.7-1.3-1.9-.1-.2-.2-.4-.3-.5 0-.4.8.3 1.2.5.2.2.9 1.7.8 1.9-.1.2-.2.1-.4 0zM145.1 180.6c-.2-.2-.8-1.3-1-1.5-.1-.2-.2-.4-.3-.5 0-.4.2-.6.5-.3.2.2 1.3 2.2 1.4 2.4.1.3-.2.5-.6-.1z"/><path class="st9" d="M144.2 180.6c-.2-.5-.7-1.7-.9-2.2 0-.6.4-.5.8.3.3.5.9 2.1.8 2.3-.2.3-.5.2-.7-.4z"/><path class="st21" d="M133.8 171.3c-.9 0-1.4 1.9-.3 2.7 1.1.9 6.3 2.5 6.3 2.5l1.2-2.1c-.1 0-6.4-3.2-7.2-3.1z"/><path class="st16" d="m143.9 189.2-9.2 5.3-6.8-3.9v.7l6.8 3.9 9.2-5.3z"/><path class="st16" d="m137.2 185.3-9.2 5.3 6.7 3.9 9.2-5.3-6.7-3.9z"/><path class="st17" d="m143.2 189.2-8.5 4.9-6.1-3.5 8.6-4.9z"/><path class="st16" d="m145.3 183.6-8.6 5-2.3 5.7.3.2 9.2-5.3 1.7-5.4z"/><path class="st9" d="M126.5 188.2c.3 0 1 .1 1.4.1.4 0 1.5.1 1.4.4-.1.3-1.5.3-1.7.3-.3.1-.6.4-.9.3-.4-.1-.7-1.1-.2-1.1z"/><path class="st9" d="M129.5 190.4c-.1-.1-.7-1-1.5-1.5l-.4.6s.1 0 .2.1c.4.2 1.3 1.3 1.6 1.4.3-.1.2-.3.1-.6zM129.1 191.8c.1-.1.2-.2.1-.3-.1-.2-.3-.4-.3-.6-.2-.3-1.4-1.5-1.4-1.5l-.4.5c.1.1 1.1.8 1.1.8s.7 1.2.9 1.1z"/><path class="st9" d="M128.7 191.9c-.3-.5-1-1.5-1.3-1.9.1 0 .4-.1.5-.2.1-.1-.1-.3-.1-.3s.4-.1.5-.2-.1-.4-.1-.4c-.8-.7-2-.9-2.2-.9-1-.2-1.3-.1-1.9-.5-.5-.3-1.2-1.2-1.2-1.2l-1.4.7s1.4 1.6 1.8 2.1c.6.7 2.3 1.5 3.2 1.8.4.1.7.4 1 .6.2.2.4.3.5.4.1.1.4 0 .2-.2l-1.2-1.2c.2.1.4.3.4.3s1 1.1 1.1 1.2c0 .3.3.1.2-.1z"/><path class="st25" d="m123.2 186.7.6.7c-.3.6-1.1 1.2-1.4 1.2-.3 0-.9-.7-.9-.7l1.7-1.2z"/><path class="st21" d="M120.4 172.8c.3 2.5-1 7.3-1 7.3s1.6 7.2.9 6.9c-.4-.1-3-2.9-4.1-4.6-1-1.7.1-12.1 1.5-13.4 1.1-.7 2.4 1.3 2.7 3.8z"/><path class="st22" d="M119.7 170.2c.3 2.5-1.6 8.4-1.6 8.4s5.2 7.7 5.3 8.1c.1.4-1.3 1.7-1.9 1.5-.4-.1-5.1-6.4-6.1-8.1-1-1.7.3-10.8 1.3-12.4 1-1.5 2.7 0 3 2.5z"/></g><circle class="st30" cx="73.2" cy="165.1" r="20"/><defs><circle id="SVGID_00000006700499354339854710000002819855395972679334_" cx="73.2" cy="165.1" r="20"/></defs><clipPath id="SVGID_00000150804058796562023930000015485839980458243722_"><use xlink:href="#SVGID_00000006700499354339854710000002819855395972679334_" style="overflow:visible"/></clipPath><g style="clip-path:url(#SVGID_00000150804058796562023930000015485839980458243722_)"><path class="st5" d="M90.4 204v-25.3l18.2 5.4v29.1c0 .5-.4.8-.8.8-.1-.1-17.4-10-17.4-10zM59.6 219.4V194l18.2 5.4v29.1c0 .5-.4.8-.8.8-.1 0-17.4-9.9-17.4-9.9z"/><path class="st6" d="m59.1 191.1 12.9-7.4c.5-.3 1-1.3.9-1.7l-2.3-14.1c-.1-.3-.3-.4-.6-.2l-12.8 6.7c-.9.5-.5 2.3-.3 3.2l2.2 13.5z"/><path class="st6" d="m59.5 191.6 12.5 7.3c.2.1.5.1.7 0l12.6-7.3c.5-.3.5-.9 0-1.2l-12.5-7.3c-.2-.1-.5-.1-.7 0l-12.6 7.3c-.5.3-.5 1 0 1.2z"/><path class="st19" d="M91.4 215c-.4-.2-1-.7-1.2-1.2-.1-.3.1-1.1-1.3-1-1.4.1-1.6.7-1.7.9-.1.3-.7 1.4-.3 2 .4.6 1.8.8 3.1 1.7 1.2.8 1.6 1.3 2.3 1.5.7.2 1.9-.3 2.1-1 .2-.7-.3-1.3-.8-1.5-.3-.3-1.8-1.2-2.2-1.4z"/><path class="st17" d="m90.8 210.8-2.9-.2c-.2.8.4 1.7-.4 2.9-.5.8 2.7 2.8 2.7 2.8l1.6-.9c0-.1-2-2.4-1-4.6z"/><path class="st20" d="M91.9 195.3c.9 2.4-.5 16.6-.4 17.2 0 .7-1.8 1.8-2.7 1.6-.9-.2-2.4-1.5-2.4-1.5s.9-13.3.4-15c-.6-1.7-19.3-11.9-19.3-11.9l6.3-5 2.6 3.8s14.6 8.4 15.5 10.8z"/><path class="st19" d="M88.6 221.5c.5-.4.5-1.1 0-1.4-1.2-.8-2.5-2.1-3.5-2.7-.6-.3-2-1.8-2.8-1.6-.8.3-1.3 1.1-1.4 1.9 0 .8.3 1.2.7 1.5.4.3 2.4 1.4 2.8 1.8.8.8 1.9 1.2 2.3 1.2.9.1 1.4-.3 1.9-.7z"/><path class="st17" d="m85 212.1-3.2-.2s.5 3.8-.6 4.9c-.6.7 2.9 2.1 2.9 2.1s1.6-1 1.5-1.1c-1.8-2.1-.6-5.7-.6-5.7z"/><path class="st20" d="M85 215.2c0 .8-1.6 1.5-3.2 1.2-1.6-.3-1.5-1.8-1.4-2.5 0-.6.3-11.3-.9-13.3-1.2-2.1-14.5-7.2-15.6-9.2-1.1-2 .3-7 .3-7 .1-.3 7.4-4.5 7.4-4.5l.6 7.7s10.9 8.6 12.2 10.4c1 1.8.6 16.4.6 17.2z"/><path class="st21" d="M75.9 161.2c-.8-.5-2.8.5-2.8.5s5.5 11.8 7.2 12.2c1.7.4 2.1-2 2.1-2s-5.7-10.2-6.5-10.7z"/><path class="st12" d="M70.5 159.7c-1.5.9-3.6 3.8-3.6 3.8l2.5 22.6 6.5-2.7s.9-15.8.6-17.5c-.2-1.8-1.2-4.1-2.6-4.8-1.3-.8-1.9-2.4-3.4-1.4z"/><path class="st13" d="m74.4 172.5-.8-6.9c.4-.7.5-2.5.3-2.8-.2-.3-1.5-.5-1.5-.5l-1.1 1.9 1.5 1.6-1.1 6.9.1 9.5 2 .3 1.1-1.5-.5-8.5z"/><path class="st22" d="M71.6 159.7s1.6-.6 2.7 0c.9.4 1.6.9 2.1 1.6.3.6.6 1.3.6 2 .2 1.7-.2 22.1-.2 22.1l-2.4 1.5-.1-8.3s.4-9.5.6-12.4c.2-6-3.3-6.5-3.3-6.5zM63.1 167.3c.4-1.5 3.1-4.6 3.1-4.6.7-.8 1.6-1.8 2.9-2.9 0 0-.3 1.1 0 2.3.1.6 1.5 3.3 2 5.6.6 2.4.4 4.9.5 7.2.1 1.9 1.4 6.3 1.3 9.2-.1 3.3-.4 4.7-.4 4.7s-2.4 1.9-3.4 1.4c-2.6-1.3-5.4-3.6-5.4-3.6s-.4-10.1-.8-13.7c-.1-1.3-.2-4.1.2-5.6z"/><path class="st12" d="M72.9 159c1.3 1.3 1.5 3.8 1.5 3.8s-.9.1-1.7-.2l-.1-.4c0-.2-3.4-2.1-3.3-2.8.1-.5 3.2-.8 3.6-.4z"/><path class="st23" d="M75 150.3c1 .6.7 3 .6 3.4 0 .3-.9 1.4-.9 1.4s-.8-1.3-1.1-2.7c-.2-1.4 1.1-2.3 1.4-2.1zM65.8 153.4c.3-.8 1.9-.1 2.5.3 1 .6 1.3 3.9 1.3 3.9-.4.9-4.5-2.6-3.8-4.2z"/><path class="st14" d="M73.9 157.7c-.1.8-.4 1.4-.3 2.3.1.9 0 1.2-.4 1.5-.4.3-.5.7-1.6.3-.7-.2-2.3-1.2-2.1-1.6.4-1.9-.1-2-.6-3.1-1.2-2.3 4-.6 5 .6z"/><path class="st9" d="M72 159.7c.9 0 1.3.1 2.1-.4s1.1-2.8 1.1-3.3-.1-2.3-.1-2.3 0-1-.1-1.5c-.4-3.6-3.9-5-6.8-3.4-3.7 2.1-2 4.9-.6 7.3.2.4 1.3 2 1.7 2.4.5.4 1.8 1.2 2.7 1.2z"/><path class="st23" d="M65.8 152c-.7-.9.6-2.3 1.6-3.3.9-1.1 2.4-1.4 3.7-1.3.6.1 1.4-.1 2.7 1.3.5.6 1.8 1.9 1.7 2.4-.2.7-.6.4-.6.4l-4.8-.1-1.3.5v2.2l.2.7s-.4 0-.5-.1c-.5-.4-1.1-.2-1.1.3-.3.1-.7 1.3-1.4-.2-.4-.8-.8-1.5-.2-2.8z"/><path class="st23" d="M71.6 148.1s.6.8.3 1.4l-2.6 1.3c-.5.3-.9.8-.9 1.3v.3c-.2.8 6.4-1.5 6.4-1.5l.6 1v-1.5l-3.8-2.3z"/><path class="st9" d="M67.3 154.3c-.6.1-.3 1 .4 2 .1.1.7.7.9.6.3-.2 0-1.2 0-1.4-.3-.7 0-1.4-1.3-1.2z"/><path class="st14" d="M67.4 154.6c-.5.1-.2.8.3 1.7.1.1.6.6.7.5.2-.1 0-1 0-1.2-.1-.6.1-1.2-1-1z"/><path class="st12" d="M69.5 158.9c-.1.7 1 3.2 3.1 3.2l.2.5-2.4 2.5s-1.5-1.9-1.6-2.9c-.2-.9 0-3.1.7-3.3z"/><path class="st6" d="M65.4 154.9c0 1.1.9 2.5 2 3.1 1.1.6 2 .3 2-.8s-.9-2.5-2-3.1c-1.1-.7-2-.3-2 .8z"/><path class="st6" d="M67.3 155.7c.2 0 .4-.1.4-.3.1-.3 0-.7 0-1.2-.1-1.8-.2-4.7 2.7-6.1 1.4-.7 2.9.5 3 .5.2.1.4.1.6-.1.1-.2.1-.4-.1-.6-.1-.1-1.9-1.5-3.8-.6-3.4 1.7-3.2 5.1-3.1 6.9v1c-.2.3 0 .5.3.5-.1 0-.1 0 0 0z"/><path class="st11" d="M67.1 154.8c.7.4 1.3 1.4 1.3 2.1v.3c1.3.8 3 1.4 4.1 1.6h.1v-.1c.1-.2.4-.5.7-.5.1 0 .2.1.2.2.1.3-.1.6-.4.8-.1.1-.3.1-.4.1h-.3c-1.1-.2-2.8-.8-4.2-1.7-.2.2-.6.2-1.1-.1-.7-.4-1.3-1.4-1.3-2.1 0-.8.6-1 1.3-.6z"/><path class="st5" d="m111.2 184.4-34.9 20.2-19.5-11.2V192l34.9-18.9 19.5 9.8z"/><path class="st15" d="m111.2 182.9-34.9 20.3L56.8 192l34.9-20.3z"/><path class="st24" d="m99 183.2-6.7 3.9-9.6-5.5 6.7-3.9z"/><path class="st9" d="M88.8 177.2c0 .4.2 1.5.3 1.8.2.3.1.5.2.8.2.1.5-.4.4-.7-.1-.3.8-1.1.7-1.6-.1-.8-1.2-1.1-1.4-1.1-.2 0-.2.3-.2.8z"/><path class="st25" d="m98.3 183.2-6 3.4c-2.8-1.1-4.9-3.1-6.6-6.1l6.2-3.4c1.3 3.5 3.6 5 6.4 6.1z"/><path class="st22" d="M91.2 185.6s-.1 0-.1-.1 0-.1.1-.2l4.8-2.7c.1 0 .1 0 .2.1 0 .1 0 .1-.1.2l-4.9 2.7zM90 184.7s-.1 0-.1-.1 0-.1.1-.2l4.6-2.6c.1 0 .1 0 .2.1 0 .1 0 .1-.1.2l-4.7 2.6zM89.1 183.8s-.1 0-.1-.1 0-.1.1-.2l4.6-2.6c.1 0 .1 0 .2.1 0 .1 0 .1-.1.2l-4.7 2.6zM88.2 182.9s-.1 0-.1-.1 0-.1.1-.2l4.6-2.6c.1 0 .1 0 .2.1 0 .1 0 .1-.1.2l-4.7 2.6c.1 0 .1 0 0 0z"/><path class="st9" d="M89.7 175.3c-.5-.3-.5.4-.7.8-.2.3 0 .6.1.9.1.3 1.5 2 1.6 1.9.5-.1 2.2.2 1.7-.9-.2-.4-.6-1-.9-1.3-.7-.5-1.6-1.2-1.8-1.4z"/><path class="st9" d="m87 174.1-1.1 1.7 3.1 1 1.1-1.1c-.6-.7-3.1-1.6-3.1-1.6z"/><path class="st12" d="m87.2 174-.9 1.9 1.5.8.9-1.9z"/><path class="st9" d="M92.8 180.4c-.1-.1-.4-.7-.7-1.2-.2-.4-.5-.6-.6-.7-.1-.2-.2-.4-.3-.5 0-.4.4-.5.7-.2.2.2 1.2 2.4 1.2 2.5 0 .1-.1.3-.3.1z"/><path class="st9" d="M92.6 179.6c-.2-.2-1.2-1.7-1.3-1.9-.1-.2-.2-.4-.3-.5 0-.4.8.3 1.2.5.2.2.9 1.7.8 1.9-.1.2-.2.1-.4 0zM92.3 180.6c-.2-.2-.8-1.3-1-1.5-.1-.2-.2-.4-.3-.5 0-.4.2-.6.5-.3.2.2 1.3 2.2 1.4 2.4.1.3-.2.5-.6-.1z"/><path class="st9" d="M91.4 180.6c-.2-.5-.7-1.7-.9-2.2 0-.6.4-.5.8.3.3.5.9 2.1.8 2.3-.3.3-.5.2-.7-.4z"/><path class="st21" d="M80.9 171.3c-.9 0-1.4 1.9-.3 2.7 1.1.9 6.3 2.5 6.3 2.5l1.2-2.1s-6.3-3.2-7.2-3.1z"/><path class="st16" d="m91.1 189.2-9.3 5.3-6.7-3.9v.7l6.8 3.9 9.2-5.3z"/><path class="st16" d="m84.4 185.3-9.2 5.3 6.7 3.9 9.2-5.3-6.7-3.9z"/><path class="st17" d="m90.4 189.2-8.6 4.9-6-3.5 8.6-4.9z"/><path class="st16" d="m92.5 183.6-8.6 5-2.3 5.7.3.2 9.2-5.3 1.7-5.4z"/><path class="st9" d="M73.7 188.2c.3 0 1 .1 1.4.1.4 0 1.5.1 1.4.4-.1.3-1.5.3-1.7.3-.3.1-.6.4-.9.3-.4-.1-.7-1.1-.2-1.1z"/><path class="st9" d="M76.6 190.4c-.1-.1-.7-1-1.5-1.5l-.4.6s.1 0 .2.1c.4.2 1.3 1.3 1.6 1.4.4-.1.3-.3.1-.6z"/><path class="st9" d="M76.3 191.8c.1-.1.2-.2.1-.3-.1-.2-.3-.4-.3-.6-.2-.3-1.4-1.5-1.4-1.5l-.4.5c.1.1 1.1.8 1.1.8s.7 1.2.9 1.1z"/><path class="st9" d="M75.9 191.9c-.3-.5-1-1.5-1.3-1.9.1 0 .4-.1.5-.2.1-.1-.1-.3-.1-.3s.4-.1.5-.2-.1-.4-.1-.4c-.8-.7-2-.9-2.2-.9-1-.2-1.3-.1-1.9-.5-.5-.3-1.2-1.2-1.2-1.2l-1.4.7s1.4 1.6 1.8 2.1c.6.7 2.3 1.5 3.2 1.8.4.1.7.4 1 .6.2.2.4.3.5.4.1.1.4 0 .2-.2l-1.2-1.2c.2.1.4.3.4.3s1 1.1 1.1 1.2c0 .3.3.1.2-.1z"/><path class="st25" d="m70.4 186.7.6.7c-.3.6-1.1 1.2-1.4 1.2-.3 0-.9-.7-.9-.7l1.7-1.2z"/><path class="st21" d="M67.6 172.8c.3 2.5-1 7.3-1 7.3s1.6 7.2.9 6.9c-.4-.1-3-2.9-4.1-4.6-1-1.7.1-12.1 1.5-13.4 1-.7 2.4 1.3 2.7 3.8z"/><path class="st22" d="M66.9 170.2c.3 2.5-1.6 8.4-1.6 8.4s5.2 7.7 5.3 8.1c.1.4-1.3 1.7-1.9 1.5-.4-.1-5.1-6.4-6.1-8.1-1-1.7.3-10.8 1.3-12.4 1-1.5 2.7 0 3 2.5z"/></g><path class="st33" d="M143.2 199.8c0 4.4-3.6 8-8 8h-74c-4.4 0-8-3.6-8-8s3.6-8 8-8h74c4.4 0 8 3.6 8 8z"/><path class="st17" d="M66.6 64v.8h1.2v1.1h-1.2v2c0 .6-.1.9-.5 1.1-.4.2-.9.2-1.7.2-.1-.3-.2-.8-.4-1.1h1.2c.2 0 .2 0 .2-.2v-2h-3.9v-1.1h3.9V64h-4v-.9c-.1.2-.3.4-.5.6v5.5h-1.1V65c-.3.3-.6.6-.9.8-.1-.3-.4-.9-.6-1.2.9-.6 1.8-1.6 2.4-2.6l1 .4c-.1.1-.2.3-.3.4h2.5v-.9h-2V61h2v-1.1h1.2V61h2.2v1.1h-2.2v.9h2.6v1h-1.1zm-4.9-3.7c-.6.9-1.7 1.9-2.6 2.5-.1-.3-.4-.7-.6-1 .8-.5 1.6-1.3 2-1.9l1.2.4zm1.4 5.6c.5.5 1 1.2 1.2 1.7l-1 .6c-.2-.5-.7-1.2-1.1-1.7l.9-.6zM77.3 66.2c-.3.6-.7 1.1-1.1 1.5.2.3.4.5.7.5s.3-.2.4-1c.2.2.5.4.8.5-.2 1.1-.5 1.4-1.2 1.4-.6 0-1-.3-1.4-.8-.5.3-1 .6-1.5.8-.1-.2-.4-.6-.6-.8.6-.2 1.2-.5 1.7-.9-.2-.5-.3-1-.5-1.7h-1.1v.4c.4.3.9.6 1.2.9l-.6.8c-.2-.2-.5-.4-.8-.7-.2.8-.6 1.4-1.3 1.9-.1-.2-.4-.6-.7-.8.9-.6 1.1-1.5 1.2-2.5h-.6v-.4l-.6.7c-.1-.3-.3-.8-.5-1.2v4.4h-1.1v-3.7c-.2.7-.5 1.4-.8 1.9-.1-.3-.3-.7-.5-1 .5-.8 1-2.2 1.2-3.4h-1v-1.1h1.1v-2.1h1.1v2.1h.9c-.1-.1-.2-.1-.2-.2l.4-.6.2.1c.2-.4.4-.9.5-1.3l.9.3c-.3.5-.6 1-.8 1.4.1.1.2.2.2.3.2-.3.4-.7.5-1l.7.3v-1.4h1v1.6l.3-.4.2.1c.2-.4.4-.9.5-1.3l.9.3c-.3.5-.6 1-.8 1.4l.3.3c.2-.3.4-.7.5-1l.8.4c-.4.6-.9 1.4-1.3 1.9h.6c0-.1-.1-.3-.2-.4l.7-.2c.2.5.5 1.1.5 1.5l-.7.3c0-.1 0-.2-.1-.4l-.7.1c.3.2.6.4.8.6l-.4.3h.8v.9h-1.4l.9.4zm-3-1.3c0-.2 0-.4-.1-.6l-.7.3v-.3c-.6.1-1.3.1-1.8.2l-.2-.9h.3l.6-.9-.7-.7v1h-.9v.4c.2.3.7 1.1.9 1.5h2.6zm-.5-2.1c.2.3.3.8.4 1.1-.1-.7-.1-1.5-.1-2.3-.4.6-.9 1.3-1.3 1.9h.5c-.1-.2-.1-.3-.2-.4l.7-.3zm1.6.6c.2-.2.3-.5.5-.7-.2-.3-.5-.6-.8-.8 0 .5 0 1 .1 1.5h.2zm.8 1.5c-.1-.1-.3-.3-.5-.4l.4-.4c-.3 0-.6.1-.9.1V64c0 .3.1.6.1.9h.9zm-.7.9c.1.3.1.6.2.9l.6-.9h-.8zM87.3 61.6v5h-1.2v-.5h-2.3v3.1h-1.3v-3.1h-2.2v.5h-1.2v-5h3.4v-1.7h1.3v1.7h3.5zm-4.7 3.3v-2.1h-2.2v2.1h2.2zm3.5 0v-2.1h-2.3v2.1h2.3z"/><path class="st0" d="M327.6 91.3c0 8.8-7.2 16-16 16h-54c-8.8 0-16-7.2-16-16s7.2-16 16-16h54c8.8 0 16 7.2 16 16zM221.3 199.8c0 4.4-3.6 8-8 8h-36c-4.4 0-8-3.6-8-8s3.6-8 8-8h36c4.4 0 8 3.6 8 8z"/><path class="st17" d="M183 202.1c.4.7 1.1.9 2.1 1 1.2 0 3.6 0 4.9-.1-.1.3-.3.8-.4 1.2-1.2.1-3.3.1-4.6 0-1.2 0-2-.3-2.6-1.1-.5.4-.9.8-1.5 1.2l-.5-1.2c.4-.2.9-.6 1.4-.9V200h-1.3v-1.1h2.4v3.2zm-.5-4.5c-.3-.5-1.1-1.2-1.7-1.6l.8-.8c.6.4 1.4 1.1 1.7 1.5l-.8.9zm2.5 5h-1.1v-5.1h2.2c-.5-.2-.9-.4-1.3-.6l.8-.6c.3.1.8.3 1.2.5.3-.2.5-.3.8-.5H184v-.9h4.6l.2-.1.7.6c-.5.5-1.1.9-1.8 1.3l.6.3h1.2v4.1c0 .5-.1.7-.4.9-.3.2-.7.2-1.3.2 0-.3-.2-.7-.3-.9h.8c.1 0 .1 0 .1-.1v-.5h-1.2v1.5h-1.1v-1.5H185v1.4zm0-4.3v.5h1.1v-.5H185zm1.2 2v-.6H185v.6h1.2zm2.2-2h-1.2v.5h1.2v-.5zm0 2v-.6h-1.2v.6h1.2zM190.6 196.7h3.8v.9h-3.8v-.9zm3.5 7.2H192v.4h-1v-3.4h3.1v3zm0-4.9h-3v-.9h3v.9zm-3 .5h3v.9h-3v-.9zm3-3.3h-2.9v-.9h2.9v.9zm-2 5.6v1.1h1.1v-1.1h-1.1zm5.7-2.8v1.3h1.7v4h-1.2v-.4H196v.5h-1v-4h1.6V199h-2.1v-1.1h2.1v-1.2c-.6.1-1.1.1-1.7.2 0-.3-.2-.7-.3-1 1.5-.1 3.2-.4 4.2-.7l.8 1c-.6.2-1.2.3-1.9.4v1.4h2.1v1.1h-2zm.6 2.4h-2.3v1.4h2.3v-1.4zM209.4 196.7v5h-1.2v-.5h-2.3v3.1h-1.3v-3.1h-2.2v.5h-1.2v-5h3.4V195h1.3v1.7h3.5zm-4.8 3.3v-2.1h-2.2v2.1h2.2zm3.6 0v-2.1h-2.3v2.1h2.3zM91.6 199.2v.8h1.2v1.1h-1.2v2c0 .6-.1.9-.5 1.1-.4.2-.9.2-1.7.2-.1-.3-.2-.8-.4-1.1h1.2c.2 0 .2 0 .2-.2v-2h-3.9V200h3.9v-.8h-4v-.9c-.1.2-.3.4-.5.6v5.5h-1.1v-4.1c-.3.3-.6.6-.9.8-.1-.3-.4-.9-.6-1.2.9-.6 1.8-1.6 2.4-2.6l1 .4c-.1.1-.2.3-.3.4h2.5v-.9h-2v-1.1h2V195h1.2v1.1h2.2v1.1h-2.2v.9h2.6v1.1h-1.1zm-4.9-3.7c-.6.9-1.7 1.9-2.6 2.5-.1-.3-.4-.7-.6-1 .8-.5 1.6-1.3 2-1.9l1.2.4zm1.4 5.6c.5.5 1 1.2 1.2 1.7l-1 .6c-.2-.5-.7-1.2-1.1-1.7l.9-.6zM102.3 201.3c-.3.6-.7 1.1-1.1 1.5.2.3.4.5.7.5s.3-.2.4-1c.2.2.5.4.8.5-.2 1.1-.5 1.4-1.2 1.4-.6 0-1-.3-1.4-.8-.5.3-1 .6-1.5.8-.1-.2-.4-.6-.6-.8.6-.2 1.2-.5 1.7-.9-.2-.5-.3-1-.5-1.7h-1.1v.4c.4.3.9.6 1.2.9l-.6.8c-.2-.2-.5-.4-.8-.7-.2.8-.6 1.4-1.3 1.9-.1-.2-.4-.6-.7-.8.9-.6 1.1-1.5 1.2-2.5h-.6v-.4l-.4.6c-.1-.3-.3-.8-.5-1.2v4.4h-1.1v-3.7c-.2.7-.5 1.4-.8 1.9-.1-.3-.3-.7-.5-1 .5-.8 1-2.2 1.2-3.4h-1v-1h1.1v-2H96v2.1h.9c-.1-.1-.2-.1-.2-.2l.4-.6.2.1c.2-.4.4-.9.5-1.3l.9.3c-.3.5-.6 1-.8 1.4.1.1.2.2.2.3.2-.3.4-.7.5-1l.7.3V195h1v1.6l.3-.4.2.1c.2-.4.4-.9.5-1.3l.9.3c-.3.5-.6 1-.8 1.4l.3.3c.2-.3.4-.7.5-1l.8.4c-.4.6-.9 1.4-1.3 1.9h.6c0-.1-.1-.3-.2-.4l.7-.2c.2.5.5 1.1.5 1.5l-.7.3c0-.1 0-.2-.1-.4l-.7.1c.3.2.6.4.8.6l-.2.2h.8v.9h-1.4l.5.4zm-3-1.2c0-.2 0-.4-.1-.6l-.7.3v-.3c-.6.1-1.3.1-1.8.2l-.2-.9h.3l.6-.9-.7-.7v1.1h-.9v.4c.2.3.7 1.1.9 1.5h2.6zm-.5-2.2c.2.3.3.8.4 1.1-.1-.7-.1-1.5-.1-2.3-.4.6-.9 1.3-1.3 1.9h.5c-.1-.2-.1-.3-.2-.4l.7-.3zm1.6.6c.2-.2.3-.5.5-.7-.2-.3-.5-.6-.8-.8 0 .5 0 1 .1 1.5h.2zm.8 1.6c-.1-.1-.3-.3-.5-.4l.4-.4c-.3 0-.6.1-.9.1l-.1-.3c0 .3.1.6.1.9h1zm-.7.9c.1.3.1.6.2.9l.6-.9h-.8zM112.3 196.7v5h-1.2v-.5h-2.3v3.1h-1.3v-3.1h-2.2v.5h-1.2v-5h3.4V195h1.3v1.7h3.5zm-4.7 3.3v-2.1h-2.2v2.1h2.2zm3.5 0v-2.1h-2.3v2.1h2.3zM263.3 93.2c-.2 1.5-.5 3.1-1 4.1-.3-.2-1-.5-1.5-.7.5-.9.7-2.4.8-3.7l1.7.3zm12.1-7.6c-.6 1.5-1.5 2.9-2.6 4 1.1.8 2.3 1.5 3.6 1.9-.4.4-.9 1.1-1.2 1.6-1.3-.5-2.5-1.3-3.6-2.3-1.1.9-2.4 1.6-3.6 2.2-.1-.2-.3-.6-.6-.9l-1.2.5c0-.2-.1-.5-.2-.8l-.8.1v6.5h-1.6V92l-2.3.1-.2-1.6h1.2c.2-.3.5-.7.8-1-.5-.7-1.2-1.5-1.9-2.2l.8-1.3c.1.1.2.2.4.3.4-.9.9-1.9 1.2-2.8l1.6.6c-.6 1.1-1.2 2.3-1.8 3.2.2.2.4.4.5.6.5-.9 1.1-1.8 1.4-2.6l1.6.7c-.9 1.4-2 3-3 4.3l1.5-.1-.6-1.2 1.3-.5c.4.8.9 1.8 1.2 2.6 1.1-.4 2.1-1 3-1.7-.4-.5-.8-1-1.2-1.6-.4.5-.9.9-1.4 1.4-.3-.4-.9-1-1.3-1.2 1.7-1.3 2.9-3.1 3.5-4.6l1.9.3-.6 1.2h2.8l.3-.1 1.1.8zm-8.8 7.2c.4.9.8 2.1 1 2.9l-1.4.5c-.1-.8-.6-2-.9-3l1.3-.4zm2.3 1.9c2.1.6 4.5 1.6 6 2.4l-1.1 1.5c-1.4-.9-3.9-2-6-2.5l1.1-1.4zm1.7-2.7c1.2.4 2.5 1.2 3.3 1.7l-1.1 1.3c-.8-.6-2.1-1.4-3.3-1.9l1.1-1.1zm-.5-5.3c.4.6.8 1.2 1.4 1.8.5-.6 1-1.2 1.4-1.8h-2.8zM277.2 86.2h6.1v1.5h-6.1v-1.5zm5.6 11.6h-3.3v.6h-1.6V93h4.9v4.8zm-.1-7.9h-4.8v-1.4h4.8v1.4zm-4.8.8h4.8v1.4h-4.8v-1.4zm4.8-5.2H278V84h4.7v1.5zm-3.2 9v1.8h1.7v-1.8h-1.7zm9.2-4.6V92h2.8v6.4h-1.9v-.7H286v.8h-1.8V92h2.6v-2.1h-3.4v-1.8h3.4v-2l-2.7.3c-.1-.5-.3-1.2-.5-1.6 2.4-.2 5.1-.6 6.8-1.2l1.3 1.6c-.9.3-1.9.5-3 .7v2.2h3.4v1.8h-3.4zm.9 3.8H286V96h3.6v-2.3zM298.2 87.6c-.4.6-.8 1.3-1.2 1.9v9h-1.8v-6.9l-1.2 1.2c-.2-.4-.7-1.4-1-1.8 1.3-1 2.7-2.6 3.6-4.1l1.6.7zm-.3-3.4c-1 1.4-2.5 2.9-3.8 3.9-.2-.4-.7-1.1-1-1.4 1.1-.8 2.5-2.1 3.1-3.2l1.7.7zm8.9 8.1c-.5 1.4-1.4 2.5-2.4 3.5 1.2.5 2.5.9 4 1.2-.4.4-.9 1.1-1.1 1.6-1.7-.3-3.2-.9-4.4-1.7-1.3.8-2.9 1.3-4.5 1.7-.2-.5-.6-1.2-.9-1.6 1.4-.2 2.8-.7 3.9-1.2-.5-.4-.9-.9-1.3-1.4-.5.4-1 .7-1.4 1-.3-.4-.9-1.1-1.2-1.4 1.4-.7 2.7-1.7 3.6-3l-3.2.1-.2-1.7h2.5c.2-.2.5-.4.7-.6-.7-.8-1.9-1.6-2.8-2.3l1.1-1.2.9.6c.6-.7 1.3-1.6 1.7-2.3l1.6.8c-.7.8-1.5 1.7-2.1 2.4.3.3.7.5.9.8 1-.9 1.9-2 2.6-2.8l1.7.9c-1.2 1.2-2.6 2.6-3.9 3.7h2.9c-.3-.4-.5-.7-.8-1l1.5-.8c.9 1 2 2.5 2.4 3.5l-1.6.9c-.1-.3-.3-.7-.5-1.1-1.1 0-2.1.1-3.2.1l-.6.9h2.9l.3-.1.9.5zm-5.6.9c.4.6 1 1.1 1.6 1.6.6-.5 1.1-1 1.5-1.6h-3.1z"/><path class="st36" d="M338.3 97.8v1c.7-.1 1.3-.2 1.9-.4v.7c-.5.1-1.2.2-1.9.3v1.5c.7-.2 1.4-.3 2-.3 1.3 0 2.3.7 2.3 1.8s-.7 1.8-1.9 2.1c-.4.1-.8.1-1.1.1l-.3-.7c.3 0 .7 0 1.1-.1.8-.2 1.5-.6 1.5-1.4 0-.8-.7-1.2-1.5-1.2-.7 0-1.3.1-2 .4v2c0 .8-.3 1.1-.8 1.1-.7 0-1.9-.7-1.9-1.5 0-.7.9-1.5 2-2v-1.7h-1.9v-.7c.5.1.8.1 1.2.1h.7v-1.6h.8c-.2 0-.2.3-.2.5zm-1 6.1c.2 0 .3-.1.3-.4v-1.6c-.7.3-1.3.9-1.3 1.3 0 .3.6.7 1 .7zm5.9-4.4-.4.6c-.4-.4-1.4-1-2-1.4l.3-.5c.7.3 1.7.9 2.1 1.3zM346.7 99c-.2.4-.5.7-.7 1.1v4.9h-.6v-4.1c-.3.4-.7.7-1 1-.1-.2-.2-.5-.4-.7.8-.6 1.7-1.5 2.2-2.4l.5.2zm-.1-1.9c-.5.8-1.4 1.6-2.2 2.1-.1-.2-.2-.4-.3-.5.7-.5 1.5-1.2 1.9-1.8l.6.2zm4.4 3.2v1h1.2v.6H351v2.3c0 .4-.1.6-.4.7-.3.1-.7.1-1.4.1 0-.2-.1-.5-.2-.6h1.2c.1 0 .2 0 .2-.2v-2.3h-3.6v-.6h3.6v-1h-3.7v-.6h2.5v-1.1h-2V98h2v-1.1h.7V98h2v.6h-2v1.1h2.5v.6H351zm-3 1.9c.4.5.9 1.1 1.1 1.5l-.6.3c-.2-.4-.6-1.1-1.1-1.6l.6-.2zM356.5 98c0 .2-.1.4-.1.7.6-.1 1.2-.2 1.7-.3v.6c-.6.1-1.2.2-1.9.3l-.3 1.2c-.3 1.3-.9 3.1-1.4 4.1l-.8-.3c.5-.9 1.2-2.8 1.5-4 .1-.3.2-.6.2-1h-1.8v-.7c.4.1.8.1 1.1.1h1c.1-.3.1-.6.1-.8v-.7l.9.1c-.1.2-.2.5-.2.7zm1.1 5c0 .4.2.8 1.5.8.6 0 1.2-.1 1.8-.2v.7c-.5.1-1.1.1-1.7.1-1.4 0-2.2-.4-2.2-1.3 0-.4.1-.7.1-1.1l.7.1c-.2.4-.2.7-.2.9zm1.6-3.1c.5 0 1.1 0 1.6.1v.7c-.5-.1-1-.1-1.5-.1-.6 0-1.1 0-1.7.1v-.7c.4 0 1-.1 1.6-.1zM368.3 98v1.3c.4 0 .7 0 1-.1h.7v.7h-.7c-.3 0-.6 0-1 .1 0 .7 0 1.5-.1 1.9-.1.4-.3.5-.7.5-.3 0-.9-.1-1.2-.1v-.6c.3.1.7.1.9.1.2 0 .3 0 .3-.2 0-.3.1-.9.1-1.5-.9.1-2 .2-2.9.3v2.2c0 1 0 1.3 1.6 1.3 1 0 2.1-.1 2.7-.2v.8c-.6.1-1.7.1-2.6.1-2.1 0-2.3-.5-2.3-1.9v-2.2c-.4 0-.7.1-1 .1-.3 0-.7.1-.9.1l-.1-.7c.3 0 .6 0 .9-.1.2 0 .6-.1 1-.1v-1.3c0-.3 0-.5-.1-.8h.8v1.9c.9-.1 1.9-.2 2.9-.3v-2h.8c-.1.3-.1.6-.1.7zM378.7 99.1c-.2 1.5-.6 2.7-1.2 3.6.5.8 1.1 1.4 1.9 1.7-.2.1-.4.4-.5.6-.8-.4-1.4-1-1.8-1.7-.6.7-1.3 1.3-2.2 1.7-.1-.1-.3-.5-.4-.6 1-.4 1.7-1 2.2-1.7-.4-.7-.7-1.6-.9-2.5-.2.4-.4.7-.6 1-.1-.1-.4-.3-.6-.4.1-.1.2-.3.3-.4l-.3.2c0-.1-.1-.2-.2-.4-1.2.1-2.4.2-3.3.3l-.1-.6h.6c.2-.5.5-1.2.7-1.8h-1.2v-.6h4v.5H373c-.2.6-.5 1.2-.7 1.7.6 0 1.2-.1 1.8-.1l-.6-.9.5-.3c.4.5.8 1.1 1 1.6.5-.9.8-2.1 1-3.3l.7.1c-.1.5-.2 1.1-.4 1.6h2.8v.6h-.4zm-3.4 4.7c-1.5.3-3 .5-4.1.7l-.1-.7c.5-.1 1.1-.2 1.7-.3v-1.4h-1.5v-.6h1.5v-1h.6v1h1.6v.6h-1.6v1.3l1.8-.3.1.7zm.9-4.6c.2 1 .5 2 .9 2.8.4-.8.7-1.8.9-3h-1.8v.2zM382.6 98.2c0 1-.1 3.1-.1 4.5 0 1 .6 1.3 1.5 1.3 1.6 0 2.6-.9 3.2-1.9l.5.6c-.6.9-1.8 2-3.8 2-1.3 0-2.2-.5-2.2-2 0-1.3.1-3.6.1-4.6 0-.3 0-.7-.1-.9h.9c.1.4.1.7 0 1zM393.8 97.8v.5c.8 0 1.6-.1 2.4-.2v.7c-.7.1-1.6.2-2.4.2v1.3c.9 0 1.7-.1 2.5-.2v.7c-.8.1-1.6.2-2.5.2 0 .5 0 1 .1 1.4 1.2.3 2.1 1 2.6 1.4l-.4.6c-.5-.5-1.3-1-2.2-1.4v.6c0 .6-.4 1.3-1.6 1.3-1.3 0-2-.5-2-1.3s.8-1.4 2.1-1.4c.3 0 .5 0 .8.1v-1.2h-.5c-.6 0-1.6-.1-2.3-.1v-.7c.6.1 1.7.2 2.3.2h.5V99.3h-.4c-.6 0-1.7-.1-2.3-.2v-.7c.6.1 1.7.2 2.3.2h.4v-1.1h.8c-.2-.1-.2 0-.2.3zm-1.6 6.3c.5 0 1-.2 1-.8v-.6c-.3-.1-.6-.1-.9-.1-.9 0-1.3.3-1.3.7s.3.8 1.2.8zM400.6 98.2c0 1-.1 3.1-.1 4.5 0 1 .6 1.3 1.5 1.3 1.6 0 2.6-.9 3.2-1.9l.5.6c-.6.9-1.8 2-3.8 2-1.3 0-2.2-.5-2.2-2 0-1.3.1-3.6.1-4.6 0-.3 0-.7-.1-.9h.9c.1.4.1.7 0 1zM410.5 98c0 .2-.1.4-.1.7.6-.1 1.2-.2 1.7-.3v.6c-.6.1-1.2.2-1.9.3l-.3 1.2c-.3 1.3-.9 3.1-1.4 4.1l-.8-.3c.5-.9 1.2-2.8 1.5-4 .1-.3.2-.6.2-1h-1.8v-.7c.4.1.8.1 1.1.1h1c.1-.3.1-.6.1-.8v-.7l.9.1c-.1.2-.2.5-.2.7zm1.1 5c0 .4.2.8 1.5.8.6 0 1.2-.1 1.8-.2v.7c-.5.1-1.1.1-1.7.1-1.4 0-2.2-.4-2.2-1.3 0-.4.1-.7.1-1.1l.7.1c-.2.4-.2.7-.2.9zm1.6-3.1c.5 0 1.1 0 1.6.1v.7c-.5-.1-1-.1-1.5-.1-.6 0-1.1 0-1.7.1v-.7c.4 0 1-.1 1.6-.1zM343.7 114.7c0 .7.7 1.2 2.1 1.2 1.2 0 2.4-.1 3.1-.4v.8c-.6.2-1.8.3-3.1.3-1.8 0-2.9-.6-2.9-1.7 0-.5.1-.9.2-1.3l.7.1c0 .3-.1.6-.1 1zm2.2-4.6c.9 0 1.8-.1 2.4-.1v.7c-.6 0-1.6.1-2.4.1-.9 0-1.7 0-2.4-.1v-.7c.7.1 1.5.1 2.4.1zM354.1 110c0 .1-.1.3-.1.5 1.1 0 2.4-.2 3.5-.4v.7c-1.1.2-2.5.3-3.7.4-.2.8-.4 1.6-.6 2.1.8-.5 1.6-.8 2.5-.8 1.4 0 2.3.7 2.3 1.8 0 1.9-1.9 2.6-4.7 2.3l-.2-.7c2.1.3 4.1-.1 4.1-1.5 0-.7-.6-1.2-1.6-1.2-1.1 0-2.1.4-2.7 1.1-.1.1-.2.3-.3.4l-.7-.2c.5-.9.8-2.2 1-3.2-.6 0-1.2 0-1.7-.1v-.7c.5.1 1.2.2 1.7.2h.2c0-.2.1-.4.1-.6v-.7h.8c.2.1.1.4.1.6zM361.9 113.4c.9-.8 1.9-1.1 2.9-1.1 1.4 0 2.3.8 2.3 1.9 0 1.6-1.4 2.7-4.8 2.4l-.2-.7c2.8.4 4.2-.5 4.2-1.7 0-.7-.7-1.2-1.6-1.2-1.2 0-2.2.5-2.8 1.2-.1.2-.2.3-.3.5l-.7-.2c.2-.8.4-2.7.5-3.7l.8.1c-.1.6-.2 2-.3 2.5zm4-3.4-.2.7c-.9-.1-2.8-.5-3.5-.7l.2-.7c.8.2 2.7.6 3.5.7zM377 112.9c0 2.2-1.8 4.1-4.1 4.1-2.2 0-4.1-1.8-4.1-4.1s1.8-4.1 4.1-4.1c2.3.1 4.1 1.9 4.1 4.1zm-7.4 0c0 1.9 1.5 3.4 3.4 3.4s3.4-1.5 3.4-3.4-1.5-3.4-3.4-3.4-3.4 1.6-3.4 3.4zM386 112.9c0 2.2-1.8 4.1-4.1 4.1-2.2 0-4.1-1.8-4.1-4.1s1.8-4.1 4.1-4.1c2.3.1 4.1 1.9 4.1 4.1zm-7.4 0c0 1.9 1.5 3.4 3.4 3.4s3.4-1.5 3.4-3.4-1.5-3.4-3.4-3.4-3.4 1.6-3.4 3.4zM387.9 110.4c.6-.1 2.3-.2 3.9-.4 1-.1 1.8-.1 2.4-.2v.7c-.5 0-1.3 0-1.8.1-1.3.4-2.1 1.8-2.1 2.9 0 1.8 1.6 2.3 3.1 2.4l-.3.7c-1.7-.1-3.6-1-3.6-3 0-1.4.9-2.5 1.7-3-1 .1-3.3.3-4.2.5l-.1-.8c.6.1.9.1 1 .1zm5.8 2.5-.5.2c-.2-.4-.5-.9-.7-1.3l.5-.2c.2.4.6.9.7 1.3zm1.1-.4-.5.2c-.2-.4-.5-.9-.8-1.3l.4-.2c.3.4.7.9.9 1.3zM401 109.8v.6h2.7v.7H401v1.5c.2.3.3.7.3 1.2 0 1.2-.6 2.6-2.7 3.2l-.6-.6c1.2-.3 2-.8 2.4-1.6-.2.2-.5.2-.8.2-.8 0-1.5-.5-1.5-1.5 0-.9.7-1.6 1.6-1.6.2 0 .4 0 .6.1v-.9c-1.4 0-2.9.1-4 .2v-.7c1 0 2.7-.1 4-.1v-.6c0-.2 0-.5-.1-.6h.8v.5zm-1.3 4.5c.5 0 .9-.4.8-1.3-.1-.4-.5-.6-.8-.6-.5 0-.9.4-.9 1 0 .5.4.9.9.9zM407.5 115.5c0 .8-.6 1.4-1.4 1.4-.7 0-1.4-.6-1.4-1.4 0-.8.6-1.4 1.4-1.4.8 0 1.4.7 1.4 1.4zm-.4 0c0-.5-.4-.9-.9-.9s-.9.4-.9.9.4.9.9.9.9-.4.9-.9z"/><path style="fill:none;stroke:#2e3840;stroke-width:.5;stroke-miterlimit:10" d="M330.2 122.8h40.7l4 5 4-5h40.7"/><circle class="st3" cx="374.9" cy="165.8" r="30"/><defs><circle id="SVGID_00000107585515754871918340000011731393110994721667_" cx="374.9" cy="165.8" r="30"/></defs><clipPath id="SVGID_00000179628133994274954810000013327287198614422928_"><use xlink:href="#SVGID_00000107585515754871918340000011731393110994721667_" style="overflow:visible"/></clipPath><g style="clip-path:url(#SVGID_00000179628133994274954810000013327287198614422928_)"><path class="st5" d="M349.1 218.5v-38l-27.3 8.1v43.6c0 .7.6 1.2 1.2 1.2.2 0 26.1-14.9 26.1-14.9z"/><path class="st6" d="M388.9 175.6c1.4 4.5-2.4 24.8-2.8 25.8-1.1 2.2-18.6-6.5-19.1-9.4-.9-5.4 0-20.1.8-22.4 1.7-4.8 19.5 1 21.1 6z"/><path class="st6" d="m346.3 202.3 18.9 11c.3.2.7.2 1 0l19-11c.7-.4.7-1.4 0-1.8l-18.9-11c-.3-.2-.7-.2-1 0l-19 11c-.6.4-.6 1.4 0 1.8z"/><path class="st8" d="M342.5 239.3c3.3-2.8 1.6-.6 3.7-3.9 1.2 0 3-.1 3.3.7.3.8.5 1.9.5 1.9.2 2.8-.7 4.3-.7 4.3-.4.3-.8.3-1.2 0v-.8l-3.7 2.7c-.7.6-1.7 1.1-2.7 1.4-1.1.3-2.3.1-3.2-.6-.4-.3-.7-.6-.6-1-.1-1 3.8-3.6 4.6-4.7z"/><path class="st9" d="M342.8 241.3c2.5 1 6.5-3.2 6.5-5.3-.4-2.7.5-8.4.5-10.3 0-6.9-4.7-1.1-4.7-1.1s.1 2.4-.1 9.1c-.2 5.3-5 6.6-2.2 7.6z"/><path class="st10" d="M349.2 210.2c-.3 9.7 1 15.3.8 15.8-.4 1.2-5.1 1-5.5 0-.2-.4-1.4-16.2-.6-18.7.8-2.5 5.3 2.9 5.3 2.9z"/><path class="st10" d="M344.3 205.7c1.4-2.5 22.8-17.1 22.8-17.1s6 6.6 3.9 8.8c-.5.5-19.8 13.8-22.1 15.5-1.6 1.2-3.2 3.7-3.9 2.3-.7-1.3-2.1-7-.7-9.5z"/><path class="st8" d="M345.6 246.2c3.3-2.8 3.8-2.9 6-6.3 1.2 0 2.7-.5 3.6 1l.2 1.2c.2 2.8-.6 4.8-.6 4.8-.4.3-.8.3-1.2 0v-.8l-3.7 2.7c-1.1 1-3 1.7-4.4 1.6 0 0-2.2-.8-2.2-1.8-.3-1.5 1.9-1.9 2.3-2.4z"/><path class="st9" d="M348.1 245.8c2.5 1 6.9-2.1 6.6-4.3-.2-1.6-.7-2.7-.7-3.9.1-7.8.5-8.8.1-10.2-.4-1.3-3.8-.7-4.4.2-.5.9.3 4 .1 11-.1 2.2-.1 3.5-.6 4.6-.6 1.4-2.1 1.7-1.1 2.6z"/><path class="st8" d="M354.8 209.8s.6 19.1.1 20.2c-.5 1.1-5.5.8-6-.2s-.9-12.2-1.4-22.4l7.3 2.4z"/><path class="st8" d="M347.7 207.5c1.2-1.4 23.7-15.6 23.7-15.6l10.7-3.7c.9-.2 3.4 8.1.6 10.6-2.4 2-25.7 13.5-28.1 14.2-2.5.8-8.1-4-6.9-5.5z"/><path class="st8" d="M382.7 198.9c-.3.1-3.9 1.3-5.7 1-3.3-.6-10.9-8.4-10.9-8.4l1.4-8.5s10.7 5.6 13.2 6.6c5.9 2.6 2.2 9.2 2 9.3z"/><path class="st7" d="M360.7 175.5s5.3-14.9 6.9-15.6c1.6-.7 6.4-1.1 5.2 1.2-2.6 4.8-7.1 14.6-9 14.6-2.7 0-3.1-.2-3.1-.2z"/><path class="st11" d="M381.4 148.2c-.4-1.6-13.1-.6-13.1-.6s-2.6 3.6-2.7 6.5c-.1 2.9 2.1 5.5 2.9 6.1 1.2.9 5.6 3.7 5.6 3.7s3.8-.5 5.6-1.2c1.8-.7 3.9-5.6 3.9-6.5.2-3.4-1.9-7.1-2.2-8z"/><path class="st12" d="M375.1 156.1c2.6 1.3 5.3 5.2 5.3 5.2l-3.2 29.7-7.3-5.9-2.7-17.2.6-7.1s4.7-6 7.3-4.7z"/><path class="st13" d="M365.8 167.5c.1-2.8.5-6.6.5-6.6s2.7-3 3.8-3.5c.6-.2 2.6-.6 2.4 0-.2.6-2.9 1.5-3.2 2.3-.8 2.1-.6 6.4-.5 8.1.1 1.7.7 7.1 2.1 11.5 3.9-7.8 5.8-16.2 6.4-17.7.7-1.7-2.5-4.4-2.8-4.9l1.4-.4c2.4 1.6 6.9 7 7.8 9.4.9 2.4-.2 8-1.2 15.5 0 0 1.2 5.8.6 7.7-.6 1.9-4.6 3.5-6.1 3.4-11.1-1.3-9.7-6.7-9.7-6.7l-.2-4.8c0-.2-1.4-10.5-1.3-13.3z"/><path class="st12" d="M372 157.4c-.7-.1-2.1.7-2.4 2.1-.4 1.5.1 3.4.1 3.4l2.4-.1.3-.5c-.1-.5-.3-3.8-.4-4.9zM377.4 161.2c.2-.6 0-2.8-.9-3.7-1-1.2-3.1-1.4-3.1-1.4l-1 2.2.3.5c.6 0 3.7 2 4.7 2.4z"/><path class="st14" d="M369.6 152.6c.4 2.9 2.7 2.8 1.6 5.9-.3.7.9 1.8.9 1.8l4-2.3c-1.2-3.9-.7-5.6-.7-5.6l-5.8.2z"/><path class="st9" d="M376.4 141.5c-.4-.2-4.2-.3-4.7-.2-7 2.3-3.8 11.9-3.6 12.6.4 1.1 1.3 2.5 2.2 3.1 3.1 2 7-1.7 7.2-2.3.2-.6 5.7-10.4-1.1-13.2z"/><path class="st14" d="M377.2 154.5c.7.2 1.5-.5 1.8-1.5.3-1 .1-2-.6-2.2-.7-.3-1.9 3.5-1.2 3.7z"/><path class="st11" d="M381.3 145.6c-.8-2.8-3.4-4.8-7.3-5-3.1-.2-6.4 2.9-6.7 5.6 0 .5-.7 3.9-.3 4.2.3.1.2-1.1.9-2.9.5-1.2 1.4-1.8 2.2-2.8 1.2 1.7 2.3 1.1 4 1.2 1.8.1 2.5-.4 2.5-.4s.1 1.1.2 2.4c.1 1.2.1 5.2.1 5.2s4.4-2.2 4.5-5.3c.1-.5 0-1.7-.1-2.2z"/><path class="st11" d="m377.3 144.3-8.1-1c.1.8.1 1.8 2.3 3.6 2.3 2 4.9 2.2 6.9 1-.1-.9-1.1-3.6-1.1-3.6z"/><path class="st12" d="M376.1 157.7s-2 3.1-5.4 3.3l-.3.5c.4 1.1 2.3 2.6 2.3 2.6s4.8-2.7 4.6-3.9c-.1-1.2-1.2-2.5-1.2-2.5z"/><path class="st6" d="M381.4 150.7c0 1.5-1.2 3.4-2.7 4.3-1.5.9-2.7.4-2.7-1.1s1.2-3.4 2.7-4.3c1.5-.9 2.7-.4 2.7 1.1z"/><path class="st6" d="M378.9 151.9c-.3 0-.5-.2-.6-.5-.1-.4-.1-.9 0-1.6.1-2.4.3-6.5-3.7-8.4-2-1-4.1.7-4.1.7-.2.2-.6.2-.8-.1-.2-.2-.2-.6.1-.8.1-.1 2.7-2.1 5.3-.8 4.6 2.3 4.4 7 4.3 9.5 0 .6-.1 1.1 0 1.4.1.3-.1.6-.4.7 0-.1-.1-.1-.1-.1z"/><path class="st11" d="M379.1 150.6c-1 .6-1.8 1.9-1.8 2.9 0 .2 0 .3.1.4-1.9 1.1-4.2 2-5.6 2.2h-.1v-.1c-.2-.3-.6-.7-1-.7-.2 0-.3.1-.3.2-.2.4.1.9.5 1 .2.1.3.1.5.1h.5c1.5-.2 3.9-1.1 5.8-2.3.3.2.9.2 1.5-.1 1-.6 1.8-1.9 1.8-2.9-.1-.9-.9-1.3-1.9-.7z"/><path class="st5" d="M395.2 241.6v-38l-27.3 8.1v43.6c0 .7.6 1.2 1.2 1.2.2 0 26.1-14.9 26.1-14.9z"/><path class="st5" d="m317.9 189.1 52.4 30.5 29.2-16.9v-2.2l-52.4-28.2-29.2 14.7z"/><path class="st15" d="m317.9 187 52.4 30.4 29.2-16.9-52.4-30.4z"/><path class="st17" d="m369.1 189.4-11.2-6.5-15.8 9.1 11.2 6.5z"/><path class="st22" d="m356.7 195.3-8.7-5.1-.3.2 8.7 5zM357.9 194.6l-8.7-5-.3.2 8.7 5zM359.2 193.9l-8.7-5-.3.2 8.7 5zM360.4 193.3l-8.7-5.1-.3.2 8.7 5zM361.5 192.5l-8.7-5.1-.3.2 8.7 5zM362.7 191.8l-8.7-5-.3.2 8.7 5zM359.8 187.5l-.3.2-3.4-2 .3-.1z"/><path class="st9" d="M353 184.4c0 .7-.3 2.6-.6 3.1s-.2.9-.4 1.4c-.4.2-.7-.6-.7-1.2 0-2.7-.8-2.3-.7-3.1.2-1.3 1.5-2.1 1.9-2.1.4 0 .5 1 .5 1.9z"/><path class="st9" d="M351.1 181.3c1-.6 1.3.1 1.6.7.3.6.3 1.1.1 1.6-.2.5-2.6 3.3-2.8 3.3-.8-.2-3.9.8-2.9-1.2.4-.7 1.1-1.8 1.7-2.4 1-1 1.3-1.4 2.3-2z"/><path class="st9" d="m355 177.9 1.7 1.7-4.1 3-2.1-.9c1-1.2 4.5-3.8 4.5-3.8zM346.5 188.8c.1-.2.5-1.3 1.1-2.1.4-.6.9-1.1 1-1.2.2-.3-.6-.8-1.2-.3-.3.3-1.4 2.7-1.4 3.2 0 .6.3.7.5.4z"/><path class="st9" d="M346.5 187.8c.2-.1.7-1.2 1.4-1.9.5-.5 1.1-.9 1.2-1 .2-.3-.5-.9-1.1-.5-.3.3-1.7 2.4-1.8 2.9-.1.5 0 .8.3.5z"/><path class="st9" d="M347.1 188.9c.3-.4 1.6-2.4 1.8-2.8.2-.4-.2-.7-.7-.3-.3.3-2.2 2.8-2.3 3.2-.2.4.5.9 1.2-.1z"/><path class="st9" d="M346.8 189.6c.7-.6 3.5-2.9 3.7-3.1.3-.3-.8-.6-2.1.3-.8.6-2.8 2.5-2.8 3 .1.4.5.4 1.2-.2z"/><path class="st12" d="m354.6 177.9 1.9 2.1-2.5 1.7-1.6-1.9z"/><path class="st7" d="M363.8 170.6c1.5-.3 3.2 2.5 1.7 4.4-1.4 1.9-10 6-10 6l-2.3-2.2s9.1-7.9 10.6-8.2zM384.2 168.1c-.3-3.8-2.6-5.6-4.3-2.9-1.6 2.5-2.5 14.3-.4 15.5 2.1 1.1 4.6-.8 4.6-.8l.1-11.8z"/><path class="st9" d="M379.1 151.8c0 .2.3 2.3.8 5 0 0-1.1-.4-1.1-.5-.1-.6-.5-4.3-.3-4.7.2-.2.7-.2.6.2z"/><path class="st9" d="M378 153.9c.1-.1.4-.2.5 0 .2.3.3.8.4 1 .1.1.3.9.4 1.2.2.9-.6.8-.8.2-.3-.6-.8-2.3-.5-2.4z"/><path class="st9" d="M377.4 154.7c.1-.1.4-.2.5 0 .2.3.3.8.4 1 .1.1.3.9.4 1.2.2.9-.6.8-.8.2-.3-.5-.8-2.2-.5-2.4z"/><path class="st9" d="M376.9 155.4c.2 0 .4-.1.5.1.1.3.1.8.3 1.1.1.1.2.9.2 1.2.1.9-.8-.1-.9-.5-.1-.3-.4-1.8-.1-1.9z"/><path class="st9" d="M378.4 154.4c.2-.1.6.1.8.3.1.1.6 1.6.9 2.8.2.7.3 1 .1 2-.4 2.5-2 3.2-2.3 2.8-.4-.4-.8-1-.9-1.9-.2-2-.2-3.4-.2-3.9 0-.7 1.4-2 1.6-2.1z"/><path class="st9" d="m380.4 164.1-.9-3.1-1.9.2.5 3.3z"/><path class="st12" d="M383.9 179c-.1-2.9-3.3-16.1-3.3-16.1l-2.7.9s-1.4 11.8.7 16c1.3 2.7 5.4 2.1 5.3-.8z"/><path class="st9" d="M379.6 161.4c.3-.3 2.1-5.4 1.6-5.8s-1.2 2-1.5 2.2c-.5.2-.8 4.1-.1 3.6z"/></g><path class="st0" d="m226.4 30 22.9 11.9V18.1zM342.9 30 320 41.9V18.1z"/><path class="st1" d="M249.3 30h2.5"/><path class="st39" d="M253.8 30h62.6"/><path class="st1" d="M317.5 30h2.5"/><path class="st0" d="m226.4 165.1 22.9 11.9v-23.7zM342.9 165.1 320 177v-23.7z"/><path class="st1" d="M249.3 165.1h2.5"/><path class="st39" d="M253.8 165.1h62.6"/><path class="st1" d="M317.5 165.1h2.5"/></svg>