<svg version="1.1" id="_レイヤー_2" xmlns="http://www.w3.org/2000/svg" xmlns:xlink="http://www.w3.org/1999/xlink" x="0" y="0" viewBox="0 0 420 288" style="enable-background:new 0 0 420 288" xml:space="preserve"><style>.st0{fill:#1f88ff}.st1,.st2{fill:none;stroke:#1f88ff;stroke-width:8;stroke-miterlimit:10}.st2{stroke-dasharray:5.0555,2.0222}.st4{fill:#73a9d1}.st5{fill:#a5c3d9}.st6{fill:#484a8a}.st7{fill:#e8e6fb}.st8{fill:#3c3e73}.st9{fill:#9dafe0}.st10{fill:#495699}.st11{fill:#b8c8f2}.st12{fill:#313a5d}.st13{fill:#ed9bb6}.st14{fill:#f2aac2}.st15{fill:#304464}.st16{fill:#76acd6}.st17{fill:#fff}.st18{fill:#3c3e7a}.st19{fill:#636b8c}.st20{fill:#2c345c}.st21{fill:#272e52}.st22{fill:#d7d8eb}.st23{enable-background:new}.st24{fill:#cce1f0}.st25{fill:#f2f2f2}.st26{fill:#bedef7}.st27{fill:#e6e8fb}.st28{fill:#cfd4e3}.st30{fill:#f2f9fe}.st31{fill:#00527f}.st32{fill:#85cee7}.st34{fill:#94cbf2}</style><path class="st0" d="m107.2 133.3 8.2-15.8H99z"/><path class="st1" d="M107.2 117.5V115"/><path class="st2" d="M107.2 113V71.5"/><path class="st1" d="M107.2 70.5V68"/><path class="st0" d="m312.7 133.3 8.2-15.8h-16.4z"/><path class="st1" d="M312.7 117.5V115"/><path class="st2" d="M312.7 113V71.5"/><path class="st1" d="M312.7 70.5V68"/><path class="st0" d="M47.5 287.1h-2.2l-.9-2.3h-4l-.8 2.3h-2.1l3.9-10h2.1l4 10zm-3.8-4-1.4-3.7-1.4 3.7h2.8zM63 277.5l-1 .4 1.2.7c-.2.3-.4.7-.5 1-.4 1.2-1.2 3.1-2.5 4.7s-3 2.9-5.6 4l-1.7-1.5c2.9-.9 4.4-2.1 5.6-3.5 1-1.1 1.8-2.8 2-3.8h-3.9c-.9 1.2-2.2 2.5-3.5 3.4l-1.6-1.2c2.5-1.5 3.7-3.3 4.4-4.5.2-.3.5-1 .6-1.5l2.1.7c-.3.5-.7 1.1-.9 1.4v.1h2.8c.4 0 .9-.1 1.2-.2l.1.1c-.3-.6-.7-1.3-1-1.8l1.1-.4c.4.5.9 1.4 1.1 1.9zm1.7-.6-1.1.5c-.3-.6-.7-1.4-1.1-1.9l1.1-.4c.3.4.9 1.3 1.1 1.8zM67.9 283.2c.4-1.2.4-3.9.4-5.5 0-.6 0-.9-.1-1.3h2.1c0 .1-.1.7-.1 1.3 0 1.7 0 4.6-.4 6-.4 1.6-1.3 3-2.5 4l-1.7-1.1c1.2-.9 2-2.2 2.3-3.4zm4.3 2.5v-8.2c0-.6-.1-1.2-.1-1.2h2.1s-.1.6-.1 1.2v7.3c1.1-.5 2.5-1.6 3.5-3l1.1 1.5c-1.2 1.5-3.2 3-4.7 3.8-.3.2-.5.3-.6.4l-1.2-1c-.1 0 0-.4 0-.8zM82.5 280.7H90c.7 0 1.3-.1 1.6-.1v2.2c-.3 0-1.1-.1-1.6-.1h-7.5c-.8 0-1.7 0-2.3.1v-2.2c.6 0 1.6.1 2.3.1zM105.1 275.1c.9 0 1.7.8 1.7 1.7 0 .9-.8 1.7-1.7 1.7h-.2c0 .2-.1.3-.1.4-.3 1.4-.9 3.5-2.1 5.1-1.3 1.7-3.1 3.1-5.6 3.9l-1.5-1.7c2.8-.6 4.4-1.9 5.5-3.3.9-1.2 1.5-2.7 1.6-3.9h-6.5c-.6 0-1.3 0-1.7.1v-2c.4.1 1.2.1 1.7.1h6.5c.2 0 .5 0 .8-.1v-.3c-.1-.9.7-1.7 1.6-1.7zm0 2.5c.4 0 .8-.4.8-.8s-.4-.8-.8-.8-.8.4-.8.8.3.8.8.8zM114.8 286.5h5.2v1.5h-11.9v-1.5h5v-1.7h-3.9v-1.5h3.9v-1.6h-3.2v-1.1c-.5.4-1 .7-1.6 1-.2-.4-.7-1-1.1-1.3 2.4-1.2 4.7-3.4 5.7-5.1h1.7c1.5 2.1 3.8 4 6 4.9-.4.4-.8 1-1.1 1.5l-1.5-.9v1.1h-3.3v1.6h3.9v1.5h-3.9v1.6zm2.8-6.2c-1.5-1.1-2.8-2.3-3.6-3.5-.8 1.1-2 2.4-3.5 3.5h7.1zM130.9 285.9c1.3.4 2.8.9 3.8 1.3l-1.5 1.2c-1.1-.5-3-1.2-4.5-1.6l1.2-.8H126l1.1.8c-1.1.7-2.9 1.3-4.3 1.7-.3-.4-.9-.9-1.3-1.2 1.2-.3 2.7-.8 3.6-1.2h-2.2v-6.2h10.2v6.2h-2.2zm1.7-6.8h-9.1v-3.5h9.1v3.5zm-8.1 2.3h6.9v-.6h-6.9v.6zm0 1.7h6.9v-.6h-6.9v.6zm0 1.6h6.9v-.6h-6.9v.6zm6.4-7.8h-5.7v.9h5.7v-.9zM138.8 277.6c-.2.9-.7 3.7-.7 5.1 0 .3 0 .6.1.9.2-.5.4-1 .6-1.4l.9.7c-.4 1.2-.9 2.7-1 3.4 0 .2-.1.5-.1.7v.6l-1.6.1c-.3-1-.5-2.7-.5-4.6 0-2.1.4-4.5.6-5.5 0-.4.1-.9.1-1.4l2 .2c-.2.2-.4.9-.4 1.2zm3.4 6.8c0 .6.5 1 2 1 1.2 0 2.3-.1 3.5-.4v1.9c-.9.2-2 .3-3.6.3-2.4 0-3.6-.9-3.6-2.3 0-.5.1-1.1.2-1.8l1.6.2c0 .4-.1.8-.1 1.1zm5.1-7.1v1.8c-1.7.2-4.3.2-6 0v-1.8c1.7.2 4.5.1 6 0zM154.3 281.6c-.1.2-.1.4-.2.6h6.9v6.1h-1.7v-.4h-4.9v.4h-1.7v-3.7c-.6.8-1.4 1.6-2.1 2.1-.3-.3-.9-1-1.2-1.2 1.4-.9 2.5-2.3 3.2-3.9h-2.7v-1.3h5.3v-.6h-4v-1.2h4v-.6h-4.7v-1.3h2.3c-.2-.3-.4-.7-.6-.9l1.5-.5c.4.4.7 1 .9 1.4h-.1 3.1-.1c.3-.4.6-1 .7-1.4l1.8.4c-.3.4-.5.7-.8 1h2.4v1.3h-4.8v.6h4.1v1.2h-4.1v.6h5.4v1.3h-7.9zm.1 1.7v.5h4.9v-.5h-4.9zm4.8 1.4h-4.9v.5h4.9v-.5zm0 2v-.5h-4.9v.5h4.9zM168.1 275.7c-.4.9-.8 1.8-1.3 2.7v9.8h-1.6v-7.4c-.4.5-.8.9-1.2 1.3-.2-.4-.6-1.3-.9-1.7 1.3-1.3 2.6-3.2 3.4-5.2l1.6.5zm8.5 2v1.3h-9v-1.3h9zm-8.1 6.1h7.3v4.5h-1.7v-.5h-4v.6h-1.6v-4.6zm7.1-2.7h-6.9v-1.3h6.9v1.3zm-6.9.7h6.8v1.3h-6.8v-1.3zm6.7-4.7H169v-1.3h6.4v1.3zm-5.3 7.9v1.4h4V285h-4zM243.9 277.1h4c.8 0 1.4 0 1.8.1.4.1.7.2 1 .4.3.2.6.5.8.8s.3.7.3 1.2-.1.9-.4 1.3c-.3.4-.6.7-1 .9.6.2 1.1.5 1.4.9s.5.9.5 1.5c0 .5-.1.9-.3 1.3-.2.4-.5.8-.9 1-.4.3-.8.4-1.4.5-.3 0-1.2.1-2.4.1h-3.4v-10zm2.1 1.6v2.3h2.8c.3 0 .6-.2.8-.4.2-.2.3-.5.3-.8 0-.3-.1-.6-.3-.8-.2-.2-.4-.3-.8-.4H246zm0 4v2.7h1.9c.7 0 1.2 0 1.4-.1.3-.1.5-.2.7-.4.2-.2.3-.5.3-.9 0-.3-.1-.6-.2-.8s-.4-.4-.6-.5c-.3-.1-.9-.1-1.8-.1H246zM268.5 277.5l-1 .4 1.2.7c-.2.3-.4.7-.5 1-.4 1.2-1.2 3.1-2.5 4.7s-3 2.9-5.6 4l-1.7-1.5c2.9-.9 4.4-2.1 5.6-3.5 1-1.1 1.8-2.8 2-3.8h-3.9c-.9 1.2-2.2 2.5-3.5 3.4l-1.6-1.2c2.5-1.5 3.7-3.3 4.4-4.5.2-.3.5-1 .6-1.5l2.1.7c-.3.5-.7 1.1-.9 1.4v.1h2.8c.4 0 .9-.1 1.2-.2l.1.1c-.3-.6-.7-1.3-1-1.8l1.1-.4c.4.5.9 1.4 1.1 1.9zm1.7-.6-1.1.5c-.3-.6-.7-1.4-1.1-1.9l1.1-.4c.4.4.9 1.3 1.1 1.8zM273.5 283.2c.4-1.2.4-3.9.4-5.5 0-.6 0-.9-.1-1.3h2.1c0 .1-.1.7-.1 1.3 0 1.7 0 4.6-.4 6-.4 1.6-1.3 3-2.5 4l-1.7-1.1c1.1-.9 1.9-2.2 2.3-3.4zm4.2 2.5v-8.2c0-.6-.1-1.2-.1-1.2h2.1s-.1.6-.1 1.2v7.3c1.1-.5 2.5-1.6 3.5-3l1.1 1.5c-1.2 1.5-3.2 3-4.7 3.8-.3.2-.5.3-.6.4l-1.2-1c-.1 0 0-.4 0-.8zM288.1 280.7h7.5c.7 0 1.3-.1 1.6-.1v2.2c-.3 0-1.1-.1-1.6-.1h-7.5c-.8 0-1.7 0-2.3.1v-2.2c.5 0 1.5.1 2.3.1zM310.6 275.1c.9 0 1.7.8 1.7 1.7 0 .9-.8 1.7-1.7 1.7h-.2c0 .2-.1.3-.1.4-.3 1.4-.9 3.5-2.1 5.1-1.3 1.7-3.1 3.1-5.6 3.9l-1.5-1.7c2.8-.6 4.4-1.9 5.5-3.3.9-1.2 1.5-2.7 1.6-3.9h-6.5c-.6 0-1.3 0-1.7.1v-2c.4.1 1.2.1 1.7.1h6.5c.2 0 .5 0 .8-.1v-.3c-.1-.9.7-1.7 1.6-1.7zm0 2.5c.4 0 .8-.4.8-.8s-.4-.8-.8-.8-.8.4-.8.8.3.8.8.8zM320.4 286.5h5.2v1.5h-11.9v-1.5h5v-1.7h-3.9v-1.5h3.9v-1.6h-3.2v-1.1c-.5.4-1 .7-1.6 1-.2-.4-.7-1-1-1.3 2.4-1.2 4.7-3.4 5.7-5.1h1.7c1.5 2.1 3.8 4 6 4.9-.4.4-.8 1-1.1 1.5l-1.5-.9v1.1h-3.3v1.6h3.9v1.5h-3.9v1.6zm2.7-6.2c-1.5-1.1-2.8-2.3-3.6-3.5-.8 1.1-2 2.4-3.5 3.5h7.1zM336.4 285.9c1.3.4 2.8.9 3.8 1.3l-1.5 1.2c-1.1-.5-3-1.2-4.5-1.6l1.2-.8h-3.8l1.1.8c-1.1.7-2.9 1.3-4.3 1.7-.3-.4-.9-.9-1.3-1.2 1.2-.3 2.7-.8 3.6-1.2h-2.2v-6.2h10.2v6.2h-2.3zm1.8-6.8H329v-3.5h9.1v3.5zm-8.1 2.3h6.9v-.6h-6.9v.6zm0 1.7h6.9v-.6h-6.9v.6zm0 1.6h6.9v-.6h-6.9v.6zm6.3-7.8h-5.7v.9h5.7v-.9zM344.3 277.6c-.2.9-.7 3.7-.7 5.1 0 .3 0 .6.1.9.2-.5.4-1 .6-1.4l.9.7c-.4 1.2-.9 2.7-1 3.4 0 .2-.1.5-.1.7v.6l-1.6.1c-.3-1-.5-2.7-.5-4.6 0-2.1.4-4.5.6-5.5 0-.4.1-.9.1-1.4l2 .2c-.2.2-.4.9-.4 1.2zm3.5 6.8c0 .6.5 1 2 1 1.2 0 2.3-.1 3.5-.4v1.9c-.9.2-2 .3-3.6.3-2.4 0-3.6-.9-3.6-2.3 0-.5.1-1.1.2-1.8l1.6.2c-.1.4-.1.8-.1 1.1zm5-7.1v1.8c-1.7.2-4.3.2-6 0v-1.8c1.7.2 4.5.1 6 0zM359.8 281.6c-.1.2-.1.4-.2.6h6.9v6.1h-1.7v-.4h-4.9v.4h-1.7v-3.7c-.6.8-1.4 1.6-2.1 2.1-.3-.3-.9-1-1.2-1.2 1.4-.9 2.5-2.3 3.2-3.9h-2.7v-1.3h5.3v-.6h-4v-1.2h4v-.6H356v-1.3h2.3c-.2-.3-.4-.7-.6-.9l1.5-.5c.4.4.7 1 .9 1.4h-.1 3.1-.1c.3-.4.6-1 .7-1.4l1.8.4c-.3.4-.5.7-.8 1h2.4v1.3h-4.8v.6h4.1v1.2h-4.1v.6h5.4v1.3h-7.9zm.1 1.7v.5h4.9v-.5h-4.9zm4.9 1.4h-4.9v.5h4.9v-.5zm0 2v-.5h-4.9v.5h4.9zM373.6 275.7c-.4.9-.8 1.8-1.3 2.7v9.8h-1.6v-7.4c-.4.5-.8.9-1.2 1.3-.2-.4-.6-1.3-.9-1.7 1.3-1.3 2.6-3.2 3.4-5.2l1.6.5zm8.5 2v1.3h-9v-1.3h9zm-8.1 6.1h7.3v4.5h-1.7v-.5h-4v.6H374v-4.6zm7.1-2.7h-6.9v-1.3h6.9v1.3zm-6.9.7h6.8v1.3h-6.8v-1.3zm6.7-4.7h-6.4v-1.3h6.4v1.3zm-5.3 7.9v1.4h4V285h-4z"/><defs><path id="SVGID_1_" d="M9.2 175h196v90.5H9.2z"/></defs><clipPath id="SVGID_00000171704694711774331200000014881905163667325852_"><use xlink:href="#SVGID_1_" style="overflow:visible"/></clipPath><g style="clip-path:url(#SVGID_00000171704694711774331200000014881905163667325852_)"><path class="st4" d="m182.1 277.6-17.9-10.3c-.6-.4-1.4-1.8-1.3-2.4l3.2-19.7c.1-.4.4-.5.8-.3l17.8 9.3c1.2.7.7 3.2.5 4.4l-3.1 19z"/><path class="st5" d="M163.3 311.7c-.5 0-.9-.4-.9-.9V288c0-.5.4-.9.9-.9s.9.4.9.9v22.8c0 .5-.4.9-.9.9z"/><path class="st4" d="m181.6 278.4-17.4 10.1c-.3.2-.7.2-.9 0l-17.5-10.1c-.6-.4-.6-1.3 0-1.6l17.4-10.1c.3-.2.7-.2.9 0l17.5 10.1c.6.3.6 1.3 0 1.6z"/><path class="st6" d="M137.2 310.9c.6-.3 1.4-.9 1.7-1.7.2-.4-.1-1.5 1.8-1.4 1.9.1 2.2.9 2.3 1.3.1.4 1 2 .4 2.8-.6.8-2.5 1.1-4.4 2.4-1.6 1.1-2.2 1.8-3.2 2.1-1 .2-2.7-.4-3-1.4-.3-1 .5-1.7 1.1-2.1.6-.5 2.7-1.7 3.3-2z"/><path class="st7" d="m137.9 305.1 4-.3c.3 1.1-.5 2.3.5 4 .7 1.1-3.7 3.9-3.7 3.9l-2.2-1.3s2.8-3.3 1.4-6.3z"/><path class="st8" d="M136.4 283.5c-1.3 3.3.6 23 .6 24-.1 1 2.5 2.5 3.7 2.2 1.2-.3 3.4-2.1 3.4-2.1s-1.3-18.5-.5-20.9c.8-2.4 26.8-16.5 26.8-16.5l-8.8-7-3.6 5.2c-.1 0-20.4 11.8-21.6 15.1z"/><path class="st6" d="M141.3 320.5c-.7-.5-.7-1.5 0-2 1.7-1.1 3.5-3 4.8-3.7.8-.4 2.8-2.6 3.9-2.2 1.1.4 1.9 1.5 1.9 2.7 0 1.2-.5 1.7-1 2.1-.5.4-3.3 1.9-3.9 2.5-1.2 1.1-2.6 1.7-3.2 1.6-1.1.1-1.8-.4-2.5-1z"/><path class="st7" d="m146 307.6 4.4-.3s-.7 5.2.9 6.9c.9.9-4.1 2.9-4.1 2.9s-2.2-1.4-2.1-1.5c2.6-2.9.9-8 .9-8z"/><path class="st8" d="M146.1 311.2c0 1.1 2.2 2.1 4.5 1.7 2.3-.4 2.1-2.6 2-3.5-.1-.9-.4-15.7 1.3-18.5 1.7-2.9 20.1-10 21.7-12.8 1.5-2.8-.4-9.7-.4-9.7-.2-.5-10.3-6.2-10.3-6.2l-.8 10.7s-15.2 11.9-16.9 14.5c-1.8 2.4-1.1 22.7-1.1 23.8z"/><path class="st9" d="M158.6 236c1.1-.7 3.9.7 3.9.7s-7.7 16.4-10 17c-2.4.5-2.9-2.7-2.9-2.7s8-14.3 9-15z"/><path class="st7" d="M166.2 233.9c2 1.3 5 5.3 5 5.3l-3.5 31.4-9-3.8s-1.2-22-.9-24.4c.3-2.5 1.6-5.8 3.6-6.7 1.9-.9 2.7-3.1 4.8-1.8z"/><path class="st10" d="m160.8 251.7 1.1-9.6c-.6-.9-.8-3.5-.4-3.9.3-.4 2.1-.7 2.1-.7l1.5 2.6-2 2.2 1.5 9.7-.1 13.2-2.8.5-1.5-2.1.6-11.9z"/><path class="st11" d="M164.6 234s-2.2-.8-3.8-.1c-1.2.6-2.2 1.2-2.9 2.3-.4.8-.8 1.9-.9 2.8-.3 2.3.3 30.8.3 30.8l3.4 2.1.1-11.5s-.6-13.2-.9-17.3c-.1-8.5 4.7-9.1 4.7-9.1zM176.5 244.5c-.6-2-4.2-6.4-4.2-6.4-1-1.1-2.2-2.5-4-4 0 0 .4 1.6-.1 3.2-.2.8-2.1 4.6-2.8 7.8-.8 3.3-.6 6.8-.7 10-.1 2.6-1.9 8.8-1.8 12.8.1 4.5.5 6.5.5 6.5s3.4 2.6 4.8 1.9c3.6-1.7 7.5-5 7.5-5s.6-14 1.1-19c.1-1.8.3-5.7-.3-7.8z"/><path class="st7" d="M162.8 233c-1.8 1.8-2 5.3-2 5.3s1.2.1 2.4-.3l.2-.5c-.1-.2 4.7-2.9 4.5-3.9-.2-.8-4.5-1.2-5.1-.6z"/><path class="st12" d="M159.9 220.9c-1.4.8-.9 4.2-.9 4.7s1.2 2 1.2 2 1.1-1.8 1.5-3.8c.4-2-1.4-3.1-1.8-2.9zM172.8 225.2c-.5-1.1-2.6-.1-3.5.4-1.4.8-1.8 5.5-1.8 5.5.5 1.2 6.2-3.7 5.3-5.9z"/><path class="st13" d="M161.5 231.2c.2 1.1.5 1.9.4 3.2-.1 1.3 0 1.6.6 2.1.6.4.7 1 2.3.5 1-.3 3.2-1.7 3-2.2-.5-2.6.1-2.8.8-4.4 1.5-3.3-5.7-.9-7.1.8z"/><path class="st14" d="M164.2 233.9c-1.2 0-1.8.1-2.9-.6-1.1-.7-1.6-3.9-1.6-4.6 0-.7.1-3.1.1-3.1s0-1.4.1-2c.5-5 5.4-7 9.5-4.8 5.1 2.9 2.8 6.8.8 10.1-.3.5-1.8 2.7-2.4 3.3-.6.6-2.4 1.7-3.6 1.7z"/><path class="st12" d="M172.7 223.2c1-1.3-.8-3.3-2.3-4.6-1.3-1.5-3.3-2-5.1-1.8-.9.1-2-.2-3.8 1.8-.8.8-2.5 2.7-2.3 3.4.2 1 .9.6.9.6l6.7-.2 1.8.7v3l-.3 1s.6.1.8-.1c.7-.6 1.6-.3 1.5.4.4.2.9 1.8 2-.3.4-1.1 1-2 .1-3.9z"/><path class="st12" d="M164.7 217.9s-.8 1.1-.4 1.9l3.6 1.8c.7.4 1.2 1.1 1.3 1.9v.5c.3 1.1-9-2.1-9-2.1l-.8 1.5v-2l5.3-3.5z"/><path class="st14" d="M170.6 226.4c.8.1.4 1.4-.5 2.8-.1.2-.9 1-1.2.8-.4-.2 0-1.6 0-1.9.3-1-.1-2 1.7-1.7z"/><path class="st13" d="M170.5 226.8c.7.1.3 1.2-.5 2.4-.1.1-.8.8-1 .7-.3-.2 0-1.4 0-1.6.3-.9 0-1.7 1.5-1.5z"/><path class="st7" d="M167.6 232.9c.2.9-1.3 4.4-4.3 4.5l-.2.7 3.3 3.5s2.1-2.7 2.2-4.1c.2-1.3 0-4.3-1-4.6z"/><ellipse transform="rotate(-53.051 170.511 228.845)" class="st4" cx="170.5" cy="228.9" rx="3.6" ry="2.1"/><path class="st4" d="M170.7 228.4c-.3 0-.5-.2-.6-.5-.1-.4-.1-1 0-1.7.1-2.4.3-6.5-3.7-8.5-2-1-4.1.7-4.1.7-.2.2-.6.2-.8-.1-.2-.2-.2-.6.1-.8.1-.1 2.7-2.1 5.3-.8 4.7 2.3 4.5 7 4.3 9.6 0 .6-.1 1.1 0 1.4.1.3-.1.6-.4.7h-.1z"/><path class="st15" d="M170.9 227.1c-1 .6-1.9 1.9-1.9 2.9 0 .2 0 .3.1.4-1.9 1.1-4.2 2-5.7 2.2h-.1v-.1c-.2-.3-.6-.7-1-.7-.2 0-.3.1-.3.2-.2.4.1.9.5 1.1.2.1.3.1.5.1h.5c1.5-.3 3.9-1.2 5.9-2.3.3.2.9.2 1.5-.1 1-.6 1.9-1.9 1.9-2.9-.1-1-.9-1.4-1.9-.8z"/><path class="st4" d="M99.9 237.8 82 227.4c-.6-.4-1.4-1.8-1.3-2.4l3.2-19.7c.1-.4.4-.5.8-.3l17.8 9.3c1.2.7.7 3.2.5 4.4l-3.1 19.1z"/><path class="st5" d="M81.1 271.9c-.5 0-.9-.4-.9-.9v-22.8c0-.5.4-.9.9-.9s.9.4.9.9V271c0 .5-.4.9-.9.9zM98.8 261.5c-.5 0-.9-.4-.9-.9v-21.9c0-.5.4-.9.9-.9s.9.4.9.9v21.9c0 .5-.4.9-.9.9z"/><path class="st4" d="M99.4 238.5 82 248.6c-.3.2-.7.2-.9 0l-17.5-10.1c-.6-.4-.6-1.3 0-1.6L81 226.8c.3-.2.7-.2.9 0l17.5 10.1c.6.4.6 1.3 0 1.6z"/><path class="st6" d="M54.9 271c.6-.3 1.4-.9 1.7-1.7.2-.4-.1-1.5 1.8-1.4 1.9.1 2.2.9 2.3 1.3.1.4 1 2 .4 2.8-.6.8-2.5 1.1-4.4 2.4-1.6 1.1-2.2 1.8-3.2 2.1-1 .2-2.7-.4-3-1.4-.3-1 .5-1.7 1.1-2.1.7-.4 2.8-1.7 3.3-2z"/><path class="st7" d="m55.7 265.2 4-.3c.3 1.1-.5 2.3.5 4 .7 1.1-3.7 3.9-3.7 3.9l-2.2-1.3s2.8-3.2 1.4-6.3z"/><path class="st16" d="M54.1 243.6c-1.3 3.3.6 23 .6 24-.1 1 2.5 2.5 3.7 2.2 1.2-.3 3.4-2.1 3.4-2.1s-1.3-18.5-.5-20.9c.8-2.4 26.8-16.5 26.8-16.5l-8.8-7-3.6 5.2s-20.3 11.8-21.6 15.1z"/><path class="st6" d="M59.1 280.7c-.7-.5-.7-1.5 0-2 1.7-1.1 3.5-3 4.8-3.7.8-.4 2.8-2.6 3.9-2.2 1.1.4 1.9 1.5 1.9 2.7 0 1.2-.5 1.7-1 2.1-.5.4-3.3 1.9-3.9 2.5-1.2 1.1-2.6 1.7-3.2 1.6-1.1 0-1.8-.5-2.5-1z"/><path class="st7" d="m63.8 267.7 4.4-.3s-.7 5.2.9 6.9c.9.9-4.1 2.9-4.1 2.9s-2.2-1.4-2.1-1.5c2.6-2.9.9-8 .9-8z"/><path class="st16" d="M63.8 271.3c0 1.1 2.2 2.1 4.5 1.7 2.3-.4 2.1-2.6 2-3.5-.1-.9-.4-15.7 1.3-18.5 1.7-2.9 20.1-10 21.7-12.8 1.5-2.8-.4-9.7-.4-9.7-.2-.5-10.3-6.2-10.3-6.2l-.8 10.7s-15.2 11.9-16.9 14.5c-1.7 2.4-1.1 22.7-1.1 23.8z"/><path class="st16" d="M76 225.9c.4 2.9-.5 8.1 1.2 9.3 1.7 1.2 4.5 3.1 6.6 3.6 1.6.4 9.7-2.7 9.9-3.1.5-1.3-1.5-9.4-1.7-10.6-.5-2.5-16.4-2-16 .8z"/><path class="st17" d="M94.6 204.3c-.6-2.2-5.1-5.9-5.1-5.9-1.1-1.2-4.1-4.3-4.4-4.5-2.1-1.3-5.5.3-7.3 1.1-2.3 1-2.6.5-3.4 2.9-.8 2.4.5 26.4 1 28 .6 1.9 8.2 5.7 10.4 5.6 2.5-.1 6.7-4.3 6.7-4.3s.2-8.6.9-13.9c.1-1.8 1.9-6.8 1.2-9z"/><path class="st6" d="M78.1 233.4s-1.2-25.8-1.3-30.2c-.1-4.1 2.7-10.2 1.9-9.8-2.3 1-4.8 1.4-5.6 3.9-.8 2.4.2 28 .2 32.3.1 1.8 4.8 3.8 4.8 3.8zM93.3 213c.2-1.8 2-6.9 1.3-9-.6-2.2-8.7-9.8-8.7-9.8 3.6 7-4.4 33-4.5 33 0 0-.7 5.5.5 7 .6.7 1.8 2 4.4 2.2 2.9.2 8.4-3.1 8.4-3.1l-1.8-8.2c.3-6.2-.3-6.8.4-12.1z"/><path class="st18" d="M89.9 206.5c-3.3 6.7-2.2 24.1-1.5 25 1.2 1.6 4.8-6.6 4.8-6.6s-.7-23.9-3.3-18.4z"/><path class="st17" d="M79.3 194.3c-1.8 2.3-2.3 6.2-2.3 6.2s2.2-1.1 3.5-1.8c0 0 5.6-3.5 5.2-4.7-.2-.8-5.9-.5-6.4.3z"/><path class="st19" d="M74.5 180.3c-1.5 1.1-.4 5.3-.3 5.8.1.5 2.1 3.3 2.1 3.3s.4-2.3.6-4.7c0-2.3-1.9-4.8-2.4-4.4zM88.9 184.7c-.7-1.2-2.4 0-3.4.7-1.5 1.1-1.2 6.6-1.2 6.6.8 1.4 6-4.9 4.6-7.3z"/><path class="st13" d="M77.5 193.1c.4 1.2 1.2 1.1 1.3 2.6.1 1.5 1.8 2.2 1.8 2.2s1 0 2.7-.8c1.1-.5 2-2.1 2-2.1s-.4-2 .2-3.9c1.3-4-6.6-.1-8 2z"/><path class="st14" d="M82.3 194.8c-1.5.9-2.9.8-4.3.2-1.3-.6-2.6-3.5-2.8-4.4-.2-.9-.5-3.6-.5-3.6s-.2-1.7-.2-2.4c-.2-5.9 5.1-8.9 10.1-7 6.4 2.5 4.2 6.6 2.5 10.7-.3.6-.9 3-1.4 3.8-.6.8-2.2 1.9-3.4 2.7z"/><path class="st19" d="M89.1 182.7s1.2-2.6-2.4-4.4c-1.7-1.5-5-3.1-7.5-2.4-2.5.7-2.7 1.5-2.7 1.5-2.4 1.1-3.5 5.7-2.6 5.4.9-.4 1.2-2 1.2-2 3.6.6.5 1.8 8.9-.4l.2 3.3c0 .1-.7 1.6-.6 2.4.1.7 1.7 1.8 1.7 1.8s.1 1.7.3 1.5c.7-.8 1.6-2.7 1.5-1.9.5.1 1.2 1.5 2-1 .6-1.4 0-3.8 0-3.8z"/><path class="st14" d="M87.2 185.8c1.2.3.6 2.7 0 3.5-.6.8-1.1 1.1-1.5 1-.5-.2-.3-2.2-.3-2.2s.6-2.6 1.8-2.3z"/><path class="st13" d="M87.1 186.1c.6 0 .6 1.3-.2 2.8-.1.2-.7.6-1 .4-.4-.2-.3-1.1-.3-1.3.3-1.1 1-1.9 1.5-1.9z"/><path class="st17" d="M85.3 193.8c0 1.2-1.6 2.9-4.7 4.2l-.1.7 4.7 3.8s2-4.4 1.8-5.7c-.2-1.4-.5-3.1-1.7-3z"/><path class="st4" d="M88.8 187.2c0 1.6-1.3 3.5-2.8 4.4-1.6.9-2.8.4-2.8-1.2s1.3-3.5 2.8-4.4c1.5-.9 2.8-.4 2.8 1.2z"/><path class="st4" d="M86.1 187.9c-.3 0-.5-.2-.6-.5-.1-.4-.1-1 0-1.7.1-2.5.3-6.7-3.8-8.7-2.1-1-4.2.7-4.2.7-.3.2-.6.2-.8-.1-.2-.3-.2-.6.1-.8.1-.1 2.8-2.2 5.5-.9 4.8 2.4 4.6 7.2 4.5 9.9 0 .6-.1 1.2 0 1.4.1.3-.1.6-.5.7h-.2z"/><path class="st15" d="M86.1 187.2c-1 .7-1.6 2.2-1.5 3.2 0 .2.1.3.1.4-1.8 1.4-4 2.6-5.5 3.1h-.1s0-.1-.1-.1c-.2-.3-.7-.6-1.1-.6-.2 0-.3.1-.3.3-.1.5.3.9.7 1 .2.1.4.1.6 0 .2 0 .3-.1.5-.1 1.5-.5 3.8-1.7 5.7-3.2.4.2.9.1 1.5-.3 1-.7 1.6-2.2 1.5-3.2-.2-1-1.1-1.2-2-.5z"/><path class="st6" d="M94.8 205.8c-.4-4.2-3-3.4-4.8-.4-1.7 2.7 0 17.1 0 17.1s3.2 2.7 4.8 1.8c1.7-.9 0-18.5 0-18.5z"/><path class="st4" d="M137.7 227.9c1.3 4.2-2.2 23.4-2.7 24.3-1 2.1-17.6-6.1-18.1-8.9-.9-5.1 0-19 .8-21.2 1.6-4.3 18.5 1.1 20 5.8z"/><path class="st4" d="m97.5 253.1 17.8 10.4c.3.2.7.2 1 0l18-10.4c.6-.4.6-1.3 0-1.7L116.5 241c-.3-.2-.7-.2-1 0l-18 10.4c-.7.4-.7 1.4 0 1.7z"/><path class="st20" d="M95.3 286.8c2.9-2.5 1.4-.5 3.3-3.5 1 0 2.6-.1 2.9.6.3.7.4 1.7.4 1.7.2 2.5-.6 3.8-.6 3.8-.4.2-.7.2-1.1 0v-.7l-3.3 2.4c-.6.5-1.5 1-2.4 1.2-1 .3-2 .1-2.8-.5-.3-.2-.6-.5-.6-.8.1-1 3.5-3.2 4.2-4.2z"/><path class="st14" d="M95.6 288.5c2.2.8 5.7-2.8 5.7-4.6-.4-2.4.4-7.4.4-9 0-6.1-4.1-1-4.1-1s.1 2.1-.1 7.9c-.1 4.7-4.4 5.8-1.9 6.7z"/><path class="st21" d="M100.2 260.6c-.3 9.2.9 14.4.8 15-.4 1.2-4.8 1-5.2 0-.2-.4-1.3-15.3-.5-17.7.6-2.4 4.9 2.7 4.9 2.7z"/><path class="st21" d="M95.5 256.4c1.3-2.4 21.5-16.2 21.5-16.2s5.7 6.2 3.7 8.4c-.5.5-18.7 13-20.8 14.7-1.5 1.2-3 3.5-3.7 2.2-.7-1.4-1.9-6.8-.7-9.1z"/><path class="st20" d="M98 292.8c2.9-2.5 3.4-2.6 5.2-5.5 1 0 2.4-.5 3.1.8l.1 1.1c.2 2.5-.6 4.2-.6 4.2-.4.2-.7.2-1.1 0v-.7l-3.3 2.4c-.9.8-2.6 1.5-3.8 1.4 0 0-1.9-.7-1.9-1.5 0-1.4 1.9-1.7 2.3-2.2z"/><path class="st14" d="M100.2 292.5c2.2.8 6-1.9 5.8-3.8-.2-1.4-.6-2.4-.6-3.4.1-6.8.4-7.7.1-8.9-.4-1.2-3.4-.6-3.8.1-.5.8.2 3.5.1 9.7-.1 1.9-.1 3.1-.5 4-.7 1.2-2 1.5-1.1 2.3z"/><path class="st20" d="M105.5 260.3s.5 18.1.1 19.1c-.4 1.1-5.2.7-5.7-.2-.5-.9-.8-11.5-1.4-21.2l7 2.3z"/><path class="st20" d="M98.7 258.1c1.1-1.4 22.4-14.7 22.4-14.7l10.1-3.5c.9-.2 3.2 7.7.5 10-2.2 1.9-24.3 12.7-26.6 13.4-2.2.7-7.5-3.9-6.4-5.2z"/><path class="st20" d="M131.8 249.9c-.3.1-3.6 1.2-5.4.9-3.1-.6-10.3-7.9-10.3-7.9l1.3-8s10.1 5.3 12.5 6.3c5.6 2.4 2.1 8.6 1.9 8.7z"/><path class="st22" d="M111 227.8s5-14.1 6.5-14.8c1.5-.7 6.1-1 4.9 1.1-2.5 4.5-6.7 13.8-8.5 13.8-2.5.1-2.9-.1-2.9-.1z"/><path class="st15" d="M130.6 202c-.4-1.5-12.4-.5-12.4-.5s-2.5 3.4-2.6 6.2c-.1 2.7 2 5.2 2.8 5.8 1.2.8 5.3 3.5 5.3 3.5s3.6-.5 5.3-1.2c1.7-.6 3.7-5.3 3.7-6.1.2-3.3-1.8-6.8-2.1-7.7z"/><path class="st7" d="M124.6 209.5c2.5 1.3 5 4.9 5 4.9l-3 28-6.9-5.6-2.5-16.2.5-6.7s4.5-5.7 6.9-4.4z"/><path class="st10" d="M115.9 220.3c.1-2.7.4-6.2.4-6.2s2.5-2.9 3.6-3.3c.5-.2 2.5-.6 2.3 0-.2.6-2.8 1.4-3 2.1-.7 2-.6 6.1-.5 7.7.1 1.6.7 6.7 2 10.9 3.7-7.4 5.5-15.3 6.1-16.8.6-1.6-2.4-4.2-2.6-4.7l1.3-.4c2.2 1.5 6.5 6.6 7.4 8.9.9 2.2-.2 7.6-1.2 14.6 0 0 1.1 5.5.6 7.2-.6 1.8-4.4 3.3-5.8 3.2-10.5-1.3-9.2-6.3-9.2-6.3l-.2-4.5s-1.3-9.7-1.2-12.4z"/><path class="st7" d="M121.7 210.7c-.7-.1-1.9.7-2.3 2-.3 1.5.1 3.2.1 3.2l2.2-.1.3-.5c0-.4-.2-3.6-.3-4.6zM126.8 214.3c.1-.5 0-2.6-.8-3.5-1-1.1-2.9-1.3-2.9-1.3l-.9 2 .3.5c.4.1 3.3 1.9 4.3 2.3z"/><path class="st13" d="M119.5 206.2c.3 2.7 2.6 2.7 1.5 5.5-.2.6.9 1.7.9 1.7l3.8-2.1c-1.1-3.7-.7-5.3-.7-5.3l-5.5.2z"/><path class="st14" d="M125.8 195.7c-.4-.2-4-.3-4.4-.2-6.6 2.1-3.6 11.3-3.4 11.9.4 1.1 1.2 2.4 2 2.9 2.9 1.9 6.7-1.6 6.8-2.2.3-.5 5.5-9.7-1-12.4z"/><path class="st13" d="M126.6 207.9c.6.2 1.4-.4 1.7-1.4.3-1 .1-1.9-.5-2.1-.7-.2-1.8 3.4-1.2 3.5z"/><path class="st15" d="M130.5 199.6c-.8-2.7-3.2-4.5-6.9-4.8-2.9-.2-6 2.7-6.3 5.3 0 .4-.7 3.7-.2 3.9.3.1.2-1.1.9-2.7.4-1.1 1.3-1.7 2.1-2.6 1.2 1.6 2.1 1.1 3.8 1.2 1.7.1 2.4-.3 2.4-.3s.1 1.1.2 2.3c.1 1.1.1 4.9.1 4.9s4.2-2.1 4.2-5c-.2-.6-.2-1.7-.3-2.2z"/><path class="st15" d="m126.8 198.3-7.6-.9c.1.8.1 1.7 2.2 3.4 2.2 1.9 4.6 2.1 6.5.9-.3-.8-1.1-3.4-1.1-3.4z"/><path class="st7" d="M125.6 211s-1.9 2.9-5.1 3.1l-.3.5c.4 1 2.2 2.5 2.2 2.5s4.5-2.6 4.4-3.7c-.2-1.2-1.2-2.4-1.2-2.4z"/><path class="st4" d="M130.6 204.4c0 1.4-1.1 3.2-2.6 4.1-1.4.8-2.6.3-2.6-1.1 0-1.4 1.1-3.2 2.6-4.1 1.5-.8 2.6-.3 2.6 1.1z"/><path class="st4" d="M128.2 205.5c-.2 0-.5-.2-.5-.4-.1-.4 0-.9 0-1.6.1-2.3.3-6.1-3.5-8-1.9-.9-3.8.6-3.9.6-.2.2-.6.2-.7-.1-.2-.2-.2-.6.1-.7.1-.1 2.5-2 5-.8 4.4 2.2 4.2 6.6 4.1 9v1.3c.1.3-.1.6-.4.6-.1.1-.1.1-.2.1z"/><path class="st15" d="M128.4 204.3c-1 .6-1.7 1.8-1.7 2.7 0 .2 0 .3.1.4-1.8 1-3.9 1.9-5.3 2.1h-.1v-.1c-.2-.3-.6-.7-.9-.7-.1 0-.3.1-.3.2-.2.4.1.8.5 1 .2.1.3.1.5.1h.4c1.4-.2 3.7-1.1 5.5-2.2.3.2.8.2 1.4-.1 1-.6 1.7-1.8 1.7-2.7-.1-.9-.9-1.3-1.8-.7z"/><path class="st22" d="M133.3 220.8c-.3-3.6-2.5-5.3-4.1-2.7-1.5 2.3-2.4 13.5-.4 14.6 2 1.1 4.4-.8 4.4-.8l.1-11.1z"/><path class="st14" d="M128.4 205.5c0 .2.3 2.2.8 4.7 0 0-1-.3-1-.5-.1-.6-.5-4.1-.3-4.4.1-.2.6-.2.5.2z"/><path class="st14" d="M127.4 207.4c.1-.1.4-.2.5 0 .2.2.2.7.4 1 .1.1.3.9.4 1.1.2.8-.6.8-.8.2-.3-.5-.8-2.1-.5-2.3z"/><path class="st14" d="M126.8 208.2c.1-.1.4-.2.5 0 .2.2.2.7.4 1 .1.1.3.9.4 1.1.2.8-.6.8-.8.2-.3-.6-.8-2.2-.5-2.3z"/><path class="st14" d="M126.3 208.8c.1 0 .4-.1.5.1.1.3.1.7.3 1 0 .1.2.9.2 1.2.1.9-.8-.1-.9-.4 0-.3-.4-1.8-.1-1.9z"/><path class="st14" d="M127.8 207.9c.2-.1.6.1.8.3.1.1.6 1.5.9 2.6.2.7.3.9.1 1.8-.4 2.4-1.9 3-2.2 2.6-.4-.4-.8-.9-.9-1.8-.2-1.9-.2-3.2-.2-3.7s1.3-1.7 1.5-1.8z"/><path class="st14" d="m129.6 217.1-.8-3-1.8.2.5 3.1z"/><path class="st7" d="M132.9 231.1c-.1-2.8-3.1-15.2-3.1-15.2l-2.5.9s-1.3 11.1.6 15.1c1.3 2.5 5.1 2 5-.8z"/><path class="st14" d="M128.8 214.5c.3-.2 2-5.1 1.5-5.5-.5-.4-1.1 1.9-1.4 2.1-.3.2-.6 3.9-.1 3.4z"/><g class="st23"><path class="st24" d="M49.5 211.9v56.2c0 1.5-1 2.9-2.9 4l-24.2 14-1.6-1.6v-56.2c-.1 0 28.7-15.3 28.7-16.4zM178.5 282.7v56.2c0 1.5-1 2.9-2.9 4l-24.2 14-1.6-1.6v-56.2c-.1.1 28.7-15.3 28.7-16.4z"/><path class="st5" d="M22.1 226.3c-3.8 2.2-3.3 6.1 1.2 8.7l118.1 68.6c4.5 2.6 11.3 2.9 15.1.7l24.1-13.9c3.8-2.2 3.3-6.1-1.2-8.7L61.2 213.1c-4.5-2.6-11.3-2.9-15.1-.7l-24 13.9z"/><path class="st25" d="M22.1 223.6c-3.8 2.2-3.3 6.1 1.2 8.7l118.1 68.6c4.5 2.6 11.3 2.9 15.1.7l24.1-13.9c3.8-2.2 3.3-6.1-1.2-8.7L61.2 210.4c-4.5-2.6-11.3-2.9-15.1-.7l-24 13.9z"/></g><path class="st26" d="m126.5 266.7 9.4 5.4 13.4-7.7-9.5-5.4z"/><path class="st14" d="M140.7 258.3c0 .5-.2 2.1-.4 2.5-.2.4-.1.7-.3 1.1-.3.1-.7-.5-.6-.9.1-.4-1.1-1.6-1-2.3.1-1.1 1.7-1.5 2-1.5.3 0 .3.4.3 1.1z"/><path class="st27" d="m127.4 266.7 8.3 4.7c4-1.5 6.8-4.3 9.3-8.4l-8.7-4.8c-1.7 4.8-4.8 7-8.9 8.5z"/><path class="st11" d="M137.4 270c.1 0 .1 0 .2-.1s0-.2-.1-.3l-6.7-3.7c-.1-.1-.2 0-.3.1-.1.1 0 .2.1.3l6.8 3.7c-.1 0 0 0 0 0zM139.1 268.8c.1 0 .1 0 .2-.1s0-.2-.1-.3l-6.4-3.6c-.1-.1-.2 0-.3.1-.1.1 0 .2.1.3l6.5 3.6c-.1-.1-.1 0 0 0zM140.3 267.5c.1 0 .1 0 .2-.1s0-.2-.1-.3l-6.4-3.6c-.1-.1-.2 0-.3.1-.1.1 0 .2.1.3l6.5 3.6zM141.5 266.3c.1 0 .1 0 .2-.1s0-.2-.1-.3l-6.4-3.6c-.1-.1-.2 0-.3.1-.1.1 0 .2.1.3l6.5 3.6z"/><path class="st14" d="M139.5 255.7c.6-.4.7.6 1 1.1.2.5 0 .9-.2 1.3s-2.1 2.7-2.3 2.7c-.6-.1-3.1.3-2.3-1.3.3-.6.8-1.4 1.3-1.8.9-.8 2.1-1.8 2.5-2z"/><path class="st14" d="m143.2 254 1.5 2.3-4.3 1.4-1.5-1.6c.8-.8 4.3-2.1 4.3-2.1z"/><path class="st7" d="m142.9 253.9 1.3 2.6-2.1 1.1-1.3-2.7z"/><path class="st14" d="M135.2 262.8c.1-.1.6-1 1-1.6.3-.5.7-.9.8-1 .1-.2.3-.5.4-.7.1-.5-.5-.7-.9-.3-.2.3-1.6 3.3-1.7 3.5-.1 0 .1.3.4.1z"/><path class="st14" d="M135.4 261.6c.2-.2 1.6-2.3 1.8-2.6.1-.2.3-.5.4-.7.1-.5-1.2.4-1.6.8-.3.3-1.3 2.3-1.2 2.6.2.3.4.1.6-.1zM135.9 263.1c.2-.3 1.2-1.8 1.3-2 .1-.2.3-.5.4-.7.1-.5-.3-.8-.7-.4-.2.3-1.8 3-1.9 3.3-.1.2.3.6.9-.2z"/><path class="st14" d="M137.2 263.1c.3-.7.9-2.4 1.3-3 .1-.8-.5-.7-1.1.4-.4.7-1.2 2.9-1.1 3.2.2.2.6.1.9-.6z"/><path class="st9" d="M151.7 250c1.2 0 2 2.6.5 3.8-1.5 1.2-8.7 3.4-8.7 3.4l-1.7-2.9c0 .1 8.6-4.3 9.9-4.3z"/><path class="st14" d="M103.8 236.2c0 .6-.3 2.5-.5 2.9-.3.4-.1.8-.4 1.3-.4.2-.7-.6-.7-1.1 0-2.6-.8-2.2-.7-3 .2-1.3 1.4-1.9 1.8-2 .4.1.5 1.1.5 1.9z"/><path class="st14" d="M101.9 233.3c.9-.5 1.2.1 1.5.7.3.6.3 1.1.1 1.5-.2.5-2.4 3.2-2.7 3.1-.7-.2-3.6.7-2.7-1.1.3-.7 1.1-1.7 1.6-2.3 1-1 1.3-1.3 2.2-1.9z"/><path class="st14" d="m105.6 230.1 1.6 1.6-3.9 2.8-2-.8c1.1-1.2 4.3-3.6 4.3-3.6zM97.7 240.4c.1-.2.5-1.2 1-2 .4-.6.9-1 .9-1.1.2-.3-.6-.7-1.1-.3-.3.3-1.3 2.6-1.3 3.1-.1.4.2.6.5.3z"/><path class="st14" d="M97.7 239.4c.2-.1.7-1.1 1.3-1.8.5-.5 1-.9 1.1-1 .2-.2-.5-.8-1-.5-.3.3-1.6 2.2-1.7 2.7-.1.6 0 .9.3.6z"/><path class="st14" d="M98.2 240.5c.3-.3 1.5-2.2 1.7-2.7s-.2-.7-.7-.3c-.3.3-2 2.7-2.2 3-.1.5.5.9 1.2 0z"/><path class="st14" d="M97.9 241.1c.6-.6 3.3-2.7 3.5-3 .3-.3-.8-.6-2 .3-.8.5-2.6 2.4-2.6 2.8.1.5.5.5 1.1-.1z"/><path class="st7" d="m105.3 230.1 1.8 2-2.4 1.6-1.5-1.9z"/><path class="st22" d="M114 223.2c1.4-.3 3 2.4 1.6 4.2-1.3 1.8-9.4 5.6-9.4 5.6l-2.2-2.1s8.6-7.4 10-7.7z"/><path class="st14" d="M58.7 223.5c0 .6-.3 2.6-.6 3-.3.4-.2.9-.4 1.4-.4.2-.7-.6-.7-1.1 0-2.7-.8-2.3-.7-3.1.2-1.3 1.5-2 1.8-2 .5-.1.6.9.6 1.8z"/><path class="st14" d="M56.8 220.4c1-.6 1.3.1 1.6.7.3.6.3 1.1.1 1.6-.2.5-2.5 3.3-2.8 3.2-.8-.2-3.8.8-2.8-1.2.4-.7 1.1-1.8 1.7-2.4.9-.9 1.2-1.3 2.2-1.9z"/><path class="st14" d="m60.6 217.1 1.7 1.7-4 2.9-2-.9c.9-1.2 4.3-3.7 4.3-3.7zM52.3 227.8c.1-.2.5-1.2 1.1-2 .4-.6.9-1 1-1.2.2-.3-.6-.8-1.1-.3-.3.3-1.3 2.7-1.4 3.2-.1.5.2.6.4.3z"/><path class="st14" d="M52.3 226.8c.2-.1.7-1.1 1.4-1.8.5-.5 1-.9 1.2-1 .2-.3-.5-.8-1.1-.5-.3.3-1.6 2.3-1.7 2.8-.2.5-.1.8.2.5z"/><path class="st14" d="M52.9 227.9c.3-.4 1.5-2.3 1.8-2.8.2-.4-.2-.7-.7-.3-.3.3-2.1 2.8-2.3 3.2-.2.4.5.9 1.2-.1z"/><path class="st14" d="M52.6 228.6c.6-.6 3.4-2.8 3.7-3.1.3-.3-.8-.6-2 .3-.8.6-2.7 2.5-2.7 2.9-.1.5.3.5 1-.1z"/><path class="st7" d="m60.2 217.1 1.9 2.1-2.4 1.6-1.6-1.9z"/><path class="st6" d="M67 209.6s4.8 2.3 3.4 4.2c-1.4 1.9-9.3 6.4-9.3 6.4l-2.3-2.2 8.2-8.4z"/><path class="st6" d="M73.1 196.7c1-1.1 3.9.4 3.8 2.7-.2 2.3-6.5 14.3-6.5 14.3l-4.3-3c0 .1 6-12.9 7-14z"/><path class="st14" d="M66 230.8c.2.1 3.9-.4 5.7-.2 0 0-.2 1.1-.4 1.2-.8 0-5.3 0-5.6-.3-.3-.2-.2-.8.3-.7z"/><path class="st14" d="M66.9 232.3c0-.2 0-.5.2-.6.4-.1 2.6 0 3 0 1.1 0 2.4-.1 2.4-.1l.2 1.5c-.3 0-3.3-.4-3.3-.4s-2.5.1-2.5-.4z"/><path class="st14" d="M68.1 233.3c0-.2-.1-.5.2-.6.4-.1 1 0 1.3-.1.2 0 1.2-.1 1.5 0 1.1 0 .8 1 0 1s-2.9.1-3-.3z"/><path class="st14" d="M68.8 233.6c0-.2.1-.5.4-.5.4 0 .9.2 1.3.2.2 0 1.1.2 1.5.3 1.1.3-.5.9-.9.8-.5-.1-2.4-.4-2.3-.8z"/><path class="st14" d="M69.6 232.4c-.2-.2-.1-.7.1-1 .2-.3 2.2-2.3 5.2-2.5 3.1-.2 4.1 1.9 3.7 2.5-.4.6-1.1 1-2.2 1.4-2.3.8-5.1 1.8-5.3 1.6-.2-.3-1.3-1.8-1.5-2z"/><path class="st14" d="m80.7 227.8-3.5 1.7-.8 3.3 5.2-2.4z"/><path class="st17" d="m81.8 227.2-3.9 1.7 1.3 2.8 3.5-1.9z"/><path class="st6" d="m90.6 220.7-11.8 7.4 1.7 3.3s9.5-3.2 13.7-6.3c2.8-2.1-.8-6.3-3.6-4.4z"/><path class="st17" d="m73 228.5-11-6.3-15.5 8.9 11 6.4z"/><path class="st11" d="m60.8 234.3-8.5-4.9-.3.1 8.5 5zM62 233.6l-8.5-4.9-.3.2 8.5 4.9zM63.3 232.9l-8.5-4.9-.3.2 8.5 4.9zM64.5 232.3l-8.6-4.9-.2.2 8.5 4.9zM65.5 231.5l-8.5-4.9-.3.2 8.5 4.9zM66.7 230.9l-8.5-4.9-.3.1 8.5 5zM63.9 226.7l-.3.2-3.3-1.9.3-.2z"/><path class="st14" d="M77.6 229.4c-.4-.3-6.8-1.3-7.2-.6-.4.7 2.6.9 2.9 1.3.4.4-.6 1-.1 1.2.6.1 5.2-1.3 4.4-1.9zM147.9 268.4c.2.1 3.9-.4 5.7-.2 0 0-.2 1.1-.4 1.2-.8 0-5.3 0-5.6-.3-.2-.3-.1-.8.3-.7z"/><path class="st14" d="M148.8 269.9c0-.2 0-.5.2-.6.4-.1 2.6 0 3 0 1.1 0 2.4-.1 2.4-.1l.2 1.5c-.3 0-3.3-.4-3.3-.4s-2.4 0-2.5-.4z"/><path class="st14" d="M150.1 270.8c0-.2-.1-.5.2-.6.4-.1 1 0 1.3-.1.2 0 1.2-.1 1.5 0 1.1 0 .8 1 0 1s-2.9.1-3-.3z"/><path class="st14" d="M150.7 271.1c0-.2.1-.5.4-.5.4 0 .9.2 1.3.2.2 0 1.1.2 1.5.3 1.1.3-.5.9-.9.8-.4-.1-2.3-.4-2.3-.8z"/><path class="st14" d="M151.5 270c-.2-.2-.1-.7.1-1 .2-.3 2.2-2.3 5.2-2.5 3.1-.2 4.1 1.9 3.7 2.5-.4.6-1.1 1-2.2 1.4-2.3.8-5.1 1.8-5.3 1.6-.1-.3-1.3-1.8-1.5-2z"/><path class="st14" d="m162.6 265.4-3.5 1.7-.7 3.2 5.1-2.4z"/><path class="st17" d="m163.8 264.7-3.9 1.7 1.3 2.9 3.5-2z"/><path class="st9" d="m172.2 260.5-10.1 6.6s8.3 1.1 12.5-2c2.7-2 .4-6.5-2.4-4.6z"/><path class="st11" d="m172.6 258.3-11.8 7.4 1.7 3.3s8.3-2.9 12.5-6.1c2.7-2 .4-6.6-2.4-4.6z"/><path class="st11" d="m171.5 246.5 1 13.9 3.7.1s1.7-9.9.9-15.1c-.6-3.4-6-2.2-5.6 1.1z"/><path class="st14" d="M159.6 266.9c-.4-.3-6.8-1.3-7.2-.6-.4.7 2.6.9 2.9 1.3.4.4-.6 1-.1 1.2.6.2 5.1-1.3 4.4-1.9z"/><path class="st27" d="m35.9 204.4-1.5.8 32.1 18.5 1.4-.8z"/><path class="st27" d="M66.5 223.7v22.8l1.4-.8v-22.8z"/><path class="st28" d="M66.5 223.7v22.8l-31.6-18.9-.5-22.4z"/><path class="st5" d="m66.5 246.8-32.1-18.5v-22.8L66.5 224zM53.9 244.3l-2.6 1.5-8.5-4.9.4-.7 2.2-.8 8.1 3.9z"/><path class="st27" d="m53.5 243.3-2.4 1.4-7.9-4.5 2.4-1.4z"/><path class="st27" d="m49.2 243.7 2-.9-.8-10.1-.4.2z"/><path class="st5" d="m45.5 230.3-.6 11.1 4.3 2.3.8-10.8z"/><path class="st27" d="m50.5 232.7-.5.2-4.5-2.6.4-.2zM74.6 226.4l-1.4.8 32.1 18.5 1.4-.8z"/><path class="st27" d="M105.3 245.7v22.8l1.4-.8v-22.8z"/><path class="st28" d="M105.3 245.7v22.8l-31.6-19-.5-22.3z"/><path class="st5" d="m105.3 268.7-32.1-18.5v-22.8l32.1 18.5zM92.7 266.3l-2.6 1.4-8.5-4.9.4-.7 2.2-.8 8 4z"/><path class="st27" d="m92.2 265.3-2.3 1.3-7.9-4.5 2.4-1.4z"/><path class="st27" d="m88 265.6 2-.9-.8-10.1-.4.3z"/><path class="st5" d="m84.3 252.2-.6 11.1 4.3 2.3.8-10.7z"/><path class="st27" d="m89.2 254.6-.4.3-4.5-2.7.4-.2zM114.8 249.6l-1.4.7 32.1 18.6 1.4-.8z"/><path class="st27" d="M145.5 268.9v22.7l1.4-.7v-22.8z"/><path class="st28" d="M145.5 268.9v22.7l-31.6-18.9-.5-22.4z"/><path class="st5" d="m145.5 291.9-32.1-18.5v-22.8l32.1 18.5zM132.9 289.4l-2.6 1.5-8.5-4.9.4-.7 2.2-.8 8.1 3.9z"/><path class="st27" d="m132.5 288.4-2.4 1.4-7.9-4.5 2.4-1.4z"/><path class="st27" d="m128.2 288.8 2-.9-.8-10.1-.4.2z"/><path class="st5" d="m124.5 275.4-.6 11.1 4.3 2.3.8-10.8z"/><path class="st27" d="m129.4 277.8-.4.2-4.5-2.6.4-.2z"/></g><defs><path id="SVGID_00000178169998265346141910000007081165613957781671_" d="M214.7 175h196v90.5h-196z"/></defs><clipPath id="SVGID_00000083795562332447052430000009921037655260531887_"><use xlink:href="#SVGID_00000178169998265346141910000007081165613957781671_" style="overflow:visible"/></clipPath><g style="clip-path:url(#SVGID_00000083795562332447052430000009921037655260531887_)"><path class="st4" d="m387.6 277.6-17.9-10.3c-.6-.4-1.4-1.8-1.3-2.4l3.2-19.7c.1-.4.4-.5.8-.3l17.8 9.3c1.2.7.7 3.2.5 4.4l-3.1 19z"/><path class="st5" d="M368.8 311.7c-.5 0-.9-.4-.9-.9V288c0-.5.4-.9.9-.9s.9.4.9.9v22.8c0 .5-.4.9-.9.9z"/><path class="st4" d="m387.1 278.4-17.4 10.1c-.3.2-.7.2-.9 0l-17.5-10.1c-.6-.4-.6-1.3 0-1.6l17.4-10.1c.3-.2.7-.2.9 0l17.5 10.1c.6.3.6 1.3 0 1.6z"/><path class="st6" d="M342.7 310.9c.6-.3 1.4-.9 1.7-1.7.2-.4-.1-1.5 1.8-1.4 1.9.1 2.2.9 2.3 1.3.1.4 1 2 .4 2.8-.6.8-2.5 1.1-4.4 2.4-1.6 1.1-2.2 1.8-3.2 2.1-1 .2-2.7-.4-3-1.4-.3-1 .5-1.7 1.1-2.1.6-.5 2.7-1.7 3.3-2z"/><path class="st7" d="m343.4 305.1 4-.3c.3 1.1-.5 2.3.5 4 .7 1.1-3.7 3.9-3.7 3.9l-2.2-1.3s2.8-3.3 1.4-6.3z"/><path class="st8" d="M341.9 283.5c-1.3 3.3.6 23 .6 24-.1 1 2.5 2.5 3.7 2.2 1.2-.3 3.4-2.1 3.4-2.1s-1.3-18.5-.5-20.9c.8-2.4 26.8-16.5 26.8-16.5l-8.8-7-3.6 5.2c-.1 0-20.3 11.8-21.6 15.1z"/><path class="st6" d="M346.8 320.5c-.7-.5-.7-1.5 0-2 1.7-1.1 3.5-3 4.8-3.7.8-.4 2.8-2.6 3.9-2.2 1.1.4 1.9 1.5 1.9 2.7 0 1.2-.5 1.7-1 2.1-.5.4-3.3 1.9-3.9 2.5-1.2 1.1-2.6 1.7-3.2 1.6-1.1.1-1.8-.4-2.5-1z"/><path class="st7" d="m351.6 307.6 4.4-.3s-.7 5.2.9 6.9c.9.9-4.1 2.9-4.1 2.9s-2.2-1.4-2.1-1.5c2.6-2.9.9-8 .9-8z"/><path class="st8" d="M351.6 311.2c0 1.1 2.2 2.1 4.5 1.7 2.3-.4 2.1-2.6 2-3.5-.1-.9-.4-15.7 1.3-18.5 1.7-2.9 20.1-10 21.7-12.8 1.5-2.8-.4-9.7-.4-9.7-.2-.5-10.3-6.2-10.3-6.2l-.8 10.7s-15.2 11.9-16.9 14.5c-1.7 2.4-1.1 22.7-1.1 23.8z"/><path class="st9" d="M364.2 236c1.1-.7 3.9.7 3.9.7s-7.7 16.4-10 17c-2.4.5-2.9-2.7-2.9-2.7s7.9-14.3 9-15z"/><path class="st7" d="M371.7 233.9c2 1.3 5 5.3 5 5.3l-3.5 31.4-9-3.8s-1.2-22-.9-24.4c.3-2.5 1.6-5.8 3.6-6.7 1.9-.9 2.8-3.1 4.8-1.8z"/><path class="st10" d="m366.3 251.7 1.1-9.6c-.6-.9-.8-3.5-.4-3.9.3-.4 2.1-.7 2.1-.7l1.5 2.6-2 2.2 1.5 9.7-.1 13.2-2.8.5-1.5-2.1.6-11.9z"/><path class="st11" d="M370.2 234s-2.2-.8-3.8-.1c-1.2.6-2.2 1.2-2.9 2.3-.4.8-.8 1.9-.9 2.8-.3 2.3.3 30.8.3 30.8l3.4 2.1.1-11.5s-.6-13.2-.9-17.3c-.1-8.5 4.7-9.1 4.7-9.1zM382 244.5c-.6-2-4.2-6.4-4.2-6.4-1-1.1-2.2-2.5-4-4 0 0 .4 1.6-.1 3.2-.2.8-2.1 4.6-2.8 7.8-.8 3.3-.6 6.8-.7 10-.1 2.6-1.9 8.8-1.8 12.8.1 4.5.5 6.5.5 6.5s3.4 2.6 4.8 1.9c3.6-1.7 7.5-5 7.5-5s.6-14 1.1-19c.1-1.8.3-5.7-.3-7.8z"/><path class="st7" d="M368.4 233c-1.8 1.8-2 5.3-2 5.3s1.2.1 2.4-.3l.2-.5c-.1-.2 4.7-2.9 4.5-3.9-.2-.8-4.6-1.2-5.1-.6z"/><path class="st12" d="M365.4 220.9c-1.4.8-.9 4.2-.9 4.7s1.2 2 1.2 2 1.1-1.8 1.5-3.8c.4-2-1.3-3.1-1.8-2.9zM378.3 225.2c-.5-1.1-2.6-.1-3.5.4-1.4.8-1.8 5.5-1.8 5.5.5 1.2 6.2-3.7 5.3-5.9z"/><path class="st13" d="M367 231.2c.2 1.1.5 1.9.4 3.2-.1 1.3 0 1.6.6 2.1.6.4.7 1 2.3.5 1-.3 3.2-1.7 3-2.2-.5-2.6.1-2.8.8-4.4 1.6-3.3-5.7-.9-7.1.8z"/><path class="st14" d="M369.7 233.9c-1.2 0-1.8.1-2.9-.6-1.1-.7-1.6-3.9-1.6-4.6 0-.7.1-3.1.1-3.1s0-1.4.1-2c.5-5 5.4-7 9.5-4.8 5.1 2.9 2.8 6.8.8 10.1-.3.5-1.8 2.7-2.4 3.3-.5.6-2.4 1.7-3.6 1.7z"/><path class="st12" d="M378.2 223.2c1-1.3-.8-3.3-2.3-4.6-1.3-1.5-3.3-2-5.1-1.8-.9.1-2-.2-3.8 1.8-.8.8-2.5 2.7-2.3 3.4.2 1 .9.6.9.6l6.7-.2 1.8.7v3l-.3 1s.6.1.8-.1c.7-.6 1.6-.3 1.5.4.4.2.9 1.8 2-.3.5-1.1 1-2 .1-3.9z"/><path class="st12" d="M370.2 217.9s-.8 1.1-.4 1.9l3.6 1.8c.7.4 1.2 1.1 1.3 1.9v.5c.3 1.1-9-2.1-9-2.1l-.8 1.5v-2l5.3-3.5z"/><path class="st14" d="M376.1 226.4c.8.1.4 1.4-.5 2.8-.1.2-.9 1-1.2.8-.4-.2 0-1.6 0-1.9.3-1-.1-2 1.7-1.7z"/><path class="st13" d="M376 226.8c.7.1.3 1.2-.5 2.4-.1.1-.8.8-1 .7-.3-.2 0-1.4 0-1.6.3-.9 0-1.7 1.5-1.5z"/><path class="st7" d="M373.2 232.9c.2.9-1.3 4.4-4.3 4.5l-.2.7 3.3 3.5s2.1-2.7 2.2-4.1c.1-1.3-.1-4.3-1-4.6z"/><ellipse transform="rotate(-53.051 376.022 228.843)" class="st4" cx="376" cy="228.9" rx="3.6" ry="2.1"/><path class="st4" d="M376.2 228.4c-.3 0-.5-.2-.6-.5-.1-.4-.1-1 0-1.7.1-2.4.3-6.5-3.7-8.5-2-1-4.1.7-4.1.7-.2.2-.6.2-.8-.1-.2-.2-.2-.6.1-.8.1-.1 2.7-2.1 5.3-.8 4.7 2.3 4.5 7 4.3 9.6 0 .6-.1 1.1 0 1.4.1.3-.1.6-.4.7h-.1z"/><path class="st15" d="M376.4 227.1c-1 .6-1.9 1.9-1.9 2.9 0 .2 0 .3.1.4-1.9 1.1-4.2 2-5.7 2.2h-.1v-.1c-.2-.3-.6-.7-1-.7-.2 0-.3.1-.3.2-.2.4.1.9.5 1.1.2.1.3.1.5.1h.5c1.5-.3 3.9-1.2 5.9-2.3.3.2.9.2 1.5-.1 1-.6 1.9-1.9 1.9-2.9-.1-1-.9-1.4-1.9-.8z"/><path class="st4" d="m305.4 237.8-17.9-10.3c-.6-.4-1.4-1.8-1.3-2.4l3.2-19.7c.1-.4.4-.5.8-.3l17.8 9.3c1.2.7.7 3.2.5 4.4l-3.1 19z"/><path class="st5" d="M286.6 271.9c-.5 0-.9-.4-.9-.9v-22.8c0-.5.4-.9.9-.9s.9.4.9.9V271c0 .5-.4.9-.9.9zM304.3 261.5c-.5 0-.9-.4-.9-.9v-21.9c0-.5.4-.9.9-.9s.9.4.9.9v21.9c0 .5-.4.9-.9.9z"/><path class="st4" d="m304.9 238.5-17.4 10.1c-.3.2-.7.2-.9 0L269 238.5c-.6-.4-.6-1.3 0-1.6l17.4-10.1c.3-.2.7-.2.9 0l17.5 10.1c.7.4.7 1.3.1 1.6z"/><path class="st6" d="M260.5 271c.6-.3 1.4-.9 1.7-1.7.2-.4-.1-1.5 1.8-1.4 1.9.1 2.2.9 2.3 1.3.1.4 1 2 .4 2.8-.6.8-2.5 1.1-4.4 2.4-1.6 1.1-2.2 1.8-3.2 2.1-1 .2-2.7-.4-3-1.4-.3-1 .5-1.7 1.1-2.1.6-.4 2.7-1.7 3.3-2z"/><path class="st7" d="m261.2 265.2 4-.3c.3 1.1-.5 2.3.5 4 .7 1.1-3.7 3.9-3.7 3.9l-2.2-1.3s2.8-3.2 1.4-6.3z"/><path class="st16" d="M259.7 243.6c-1.3 3.3.6 23 .6 24-.1 1 2.5 2.5 3.7 2.2 1.2-.3 3.4-2.1 3.4-2.1s-1.3-18.5-.5-20.9c.8-2.4 26.8-16.5 26.8-16.5l-8.8-7-3.6 5.2c-.1 0-20.4 11.8-21.6 15.1z"/><path class="st6" d="M264.6 280.7c-.7-.5-.7-1.5 0-2 1.7-1.1 3.5-3 4.8-3.7.8-.4 2.8-2.6 3.9-2.2 1.1.4 1.9 1.5 1.9 2.7 0 1.2-.5 1.7-1 2.1-.5.4-3.3 1.9-3.9 2.5-1.2 1.1-2.6 1.7-3.2 1.6-1.1 0-1.8-.5-2.5-1z"/><path class="st7" d="m269.3 267.7 4.4-.3s-.7 5.2.9 6.9c.9.9-4.1 2.9-4.1 2.9s-2.2-1.4-2.1-1.5c2.6-2.9.9-8 .9-8z"/><path class="st16" d="M269.4 271.3c0 1.1 2.2 2.1 4.5 1.7 2.3-.4 2.1-2.6 2-3.5-.1-.9-.4-15.7 1.3-18.5 1.7-2.9 20.1-10 21.7-12.8 1.5-2.8-.4-9.7-.4-9.7-.2-.5-10.3-6.2-10.3-6.2l-.8 10.7s-15.2 11.9-16.9 14.5c-1.8 2.4-1.1 22.7-1.1 23.8z"/><path class="st16" d="M281.5 225.9c.4 2.9-.5 8.1 1.2 9.3 1.7 1.2 4.5 3.1 6.6 3.6 1.6.4 9.7-2.7 9.9-3.1.5-1.3-1.5-9.4-1.7-10.6-.4-2.5-16.4-2-16 .8z"/><path class="st17" d="M300.2 204.3c-.6-2.2-5.1-5.9-5.1-5.9-1.1-1.2-4.1-4.3-4.4-4.5-2.1-1.3-5.5.3-7.3 1.1-2.3 1-2.6.5-3.4 2.9-.8 2.4.5 26.4 1 28 .6 1.9 8.2 5.7 10.4 5.6 2.5-.1 6.7-4.3 6.7-4.3s.2-8.6.9-13.9c.1-1.8 1.8-6.8 1.2-9z"/><path class="st6" d="M283.6 233.4s-1.2-25.8-1.3-30.2c-.1-4.1 2.7-10.2 1.9-9.8-2.3 1-4.8 1.4-5.6 3.9-.8 2.4.2 28 .2 32.3.1 1.8 4.8 3.8 4.8 3.8zM298.8 213c.2-1.8 2-6.9 1.3-9-.6-2.2-8.7-9.8-8.7-9.8 3.6 7-4.4 33-4.5 33 0 0-.7 5.5.5 7 .6.7 1.8 2 4.4 2.2 2.9.2 8.4-3.1 8.4-3.1l-1.8-8.2c.4-6.2-.2-6.8.4-12.1z"/><path class="st18" d="M295.4 206.5c-3.3 6.7-2.2 24.1-1.5 25 1.2 1.6 4.8-6.6 4.8-6.6s-.6-23.9-3.3-18.4z"/><path class="st17" d="M284.8 194.3c-1.8 2.3-2.3 6.2-2.3 6.2s2.2-1.1 3.5-1.8c0 0 5.6-3.5 5.2-4.7-.2-.8-5.9-.5-6.4.3z"/><path class="st19" d="M280 180.3c-1.5 1.1-.4 5.3-.3 5.8.1.5 2.1 3.3 2.1 3.3s.4-2.3.6-4.7c0-2.3-1.9-4.8-2.4-4.4zM294.4 184.7c-.7-1.2-2.4 0-3.4.7-1.5 1.1-1.2 6.6-1.2 6.6.8 1.4 6.1-4.9 4.6-7.3z"/><path class="st13" d="M283.1 193.1c.4 1.2 1.2 1.1 1.3 2.6.1 1.5 1.8 2.2 1.8 2.2s1 0 2.7-.8c1.1-.5 2-2.1 2-2.1s-.4-2 .2-3.9c1.2-4-6.7-.1-8 2z"/><path class="st14" d="M287.8 194.8c-1.5.9-2.9.8-4.3.2-1.3-.6-2.6-3.5-2.8-4.4-.2-.9-.5-3.6-.5-3.6s-.2-1.7-.2-2.4c-.2-5.9 5.1-8.9 10.1-7 6.4 2.5 4.2 6.6 2.5 10.7-.3.6-.9 3-1.4 3.8-.6.8-2.1 1.9-3.4 2.7z"/><path class="st19" d="M294.6 182.7s1.2-2.6-2.4-4.4c-1.7-1.5-5-3.1-7.5-2.4-2.5.7-2.7 1.5-2.7 1.5-2.4 1.1-3.5 5.7-2.6 5.4.9-.4 1.2-2 1.2-2 3.6.6.5 1.8 8.9-.4l.2 3.3c0 .1-.7 1.6-.6 2.4.1.7 1.7 1.8 1.7 1.8s.1 1.7.3 1.5c.7-.8 1.6-2.7 1.5-1.9.5.1 1.2 1.5 2-1 .6-1.4 0-3.8 0-3.8z"/><path class="st14" d="M292.7 185.8c1.2.3.6 2.7 0 3.5-.6.8-1.1 1.1-1.5 1-.5-.2-.3-2.2-.3-2.2s.6-2.6 1.8-2.3z"/><path class="st13" d="M292.7 186.1c.6 0 .6 1.3-.2 2.8-.1.2-.7.6-1 .4-.4-.2-.3-1.1-.3-1.3.2-1.1.9-1.9 1.5-1.9z"/><path class="st17" d="M290.9 193.8c0 1.2-1.6 2.9-4.7 4.2l-.1.7 4.7 3.8s2-4.4 1.8-5.7c-.3-1.4-.6-3.1-1.7-3z"/><path class="st4" d="M294.3 187.2c0 1.6-1.3 3.5-2.8 4.4-1.6.9-2.8.4-2.8-1.2s1.3-3.5 2.8-4.4c1.6-.9 2.8-.4 2.8 1.2z"/><path class="st4" d="M291.6 187.9c-.3 0-.5-.2-.6-.5-.1-.4-.1-1 0-1.7.1-2.5.3-6.7-3.8-8.7-2.1-1-4.2.7-4.2.7-.3.2-.6.2-.8-.1-.2-.3-.2-.6.1-.8.1-.1 2.8-2.2 5.5-.9 4.8 2.4 4.6 7.2 4.5 9.9 0 .6-.1 1.2 0 1.4.1.3-.1.6-.5.7h-.2z"/><path class="st15" d="M291.6 187.2c-1 .7-1.6 2.2-1.5 3.2 0 .2.1.3.1.4-1.8 1.4-4 2.6-5.5 3.1h-.1s0-.1-.1-.1c-.2-.3-.7-.6-1.1-.6-.2 0-.3.1-.3.3-.1.5.3.9.7 1 .2.1.4.1.6 0 .2 0 .3-.1.5-.1 1.5-.5 3.8-1.7 5.7-3.2.4.2.9.1 1.5-.3 1-.7 1.6-2.2 1.5-3.2-.2-1-1.1-1.2-2-.5z"/><path class="st6" d="M300.4 205.8c-.4-4.2-3-3.4-4.8-.4-1.7 2.7 0 17.1 0 17.1s3.2 2.7 4.8 1.8c1.6-.9 0-18.5 0-18.5z"/><path class="st4" d="M343.2 227.9c1.3 4.2-2.2 23.4-2.7 24.3-1 2.1-17.6-6.1-18.1-8.9-.9-5.1 0-19 .8-21.2 1.6-4.3 18.5 1.1 20 5.8z"/><path class="st4" d="m303 253.1 17.8 10.4c.3.2.7.2 1 0l18-10.4c.6-.4.6-1.3 0-1.7L322 241c-.3-.2-.7-.2-1 0l-18 10.4c-.6.4-.6 1.4 0 1.7z"/><path class="st20" d="M300.8 286.8c2.9-2.5 1.4-.5 3.3-3.5 1 0 2.6-.1 2.9.6.3.7.4 1.7.4 1.7.2 2.5-.6 3.8-.6 3.8-.4.2-.7.2-1.1 0v-.7l-3.3 2.4c-.6.5-1.5 1-2.4 1.2-1 .3-2 .1-2.8-.5-.3-.2-.6-.5-.6-.8.1-1 3.5-3.2 4.2-4.2z"/><path class="st14" d="M301.1 288.5c2.2.8 5.7-2.8 5.7-4.6-.4-2.4.4-7.4.4-9 0-6.1-4.1-1-4.1-1s.1 2.1-.1 7.9c-.1 4.7-4.4 5.8-1.9 6.7z"/><path class="st21" d="M305.7 260.6c-.3 9.2.9 14.4.8 15-.4 1.2-4.8 1-5.2 0-.2-.4-1.3-15.3-.5-17.7.7-2.4 4.9 2.7 4.9 2.7z"/><path class="st21" d="M301.1 256.4c1.3-2.4 21.5-16.2 21.5-16.2s5.7 6.2 3.7 8.4c-.5.5-18.7 13-20.8 14.7-1.5 1.2-3 3.5-3.7 2.2-.7-1.4-2-6.8-.7-9.1z"/><path class="st20" d="M303.5 292.8c2.9-2.5 3.4-2.6 5.2-5.5 1 0 2.4-.5 3.1.8l.1 1.1c.2 2.5-.6 4.2-.6 4.2-.4.2-.7.2-1.1 0v-.7l-3.3 2.4c-.9.8-2.6 1.5-3.8 1.4 0 0-1.9-.7-1.9-1.5.1-1.4 1.9-1.7 2.3-2.2z"/><path class="st14" d="M305.7 292.5c2.2.8 6-1.9 5.8-3.8-.2-1.4-.6-2.4-.6-3.4.1-6.8.4-7.7.1-8.9-.4-1.2-3.4-.6-3.8.1-.5.8.2 3.5.1 9.7-.1 1.9-.1 3.1-.5 4-.6 1.2-1.9 1.5-1.1 2.3z"/><path class="st20" d="M311 260.3s.5 18.1.1 19.1c-.4 1.1-5.2.7-5.7-.2-.5-.9-.8-11.5-1.4-21.2l7 2.3z"/><path class="st20" d="M304.3 258.1c1.1-1.4 22.4-14.7 22.4-14.7l10.1-3.5c.9-.2 3.2 7.7.5 10-2.2 1.9-24.3 12.7-26.6 13.4-2.3.7-7.6-3.9-6.4-5.2z"/><path class="st20" d="M337.3 249.9c-.3.1-3.6 1.2-5.4.9-3.1-.6-10.3-7.9-10.3-7.9l1.3-8s10.1 5.3 12.5 6.3c5.6 2.4 2.2 8.6 1.9 8.7z"/><path class="st22" d="M316.6 227.8s5-14.1 6.5-14.8c1.5-.7 6.1-1 4.9 1.1-2.5 4.5-6.7 13.8-8.5 13.8-2.5.1-2.9-.1-2.9-.1z"/><path class="st15" d="M336.1 202c-.4-1.5-12.4-.5-12.4-.5s-2.5 3.4-2.6 6.2c-.1 2.7 2 5.2 2.8 5.8 1.2.8 5.3 3.5 5.3 3.5s3.6-.5 5.3-1.2c1.7-.6 3.7-5.3 3.7-6.1.2-3.3-1.8-6.8-2.1-7.7z"/><path class="st7" d="M330.1 209.5c2.5 1.3 5 4.9 5 4.9l-3 28-6.9-5.6-2.5-16.2.5-6.7c.1 0 4.5-5.7 6.9-4.4z"/><path class="st10" d="M321.4 220.3c.1-2.7.4-6.2.4-6.2s2.5-2.9 3.6-3.3c.5-.2 2.5-.6 2.3 0-.2.6-2.8 1.4-3 2.1-.7 2-.6 6.1-.5 7.7.1 1.6.7 6.7 2 10.9 3.7-7.4 5.5-15.3 6.1-16.8.6-1.6-2.4-4.2-2.6-4.7l1.3-.4c2.2 1.5 6.5 6.6 7.4 8.9.9 2.2-.2 7.6-1.2 14.6 0 0 1.1 5.5.6 7.2-.6 1.8-4.4 3.3-5.8 3.2-10.5-1.3-9.2-6.3-9.2-6.3l-.2-4.5s-1.3-9.7-1.2-12.4z"/><path class="st7" d="M327.3 210.7c-.7-.1-1.9.7-2.3 2-.3 1.5.1 3.2.1 3.2l2.2-.1.3-.5c0-.4-.2-3.6-.3-4.6zM332.4 214.3c.1-.5 0-2.6-.8-3.5-1-1.1-2.9-1.3-2.9-1.3l-.9 2 .3.5c.3.1 3.3 1.9 4.3 2.3z"/><path class="st13" d="M325 206.2c.3 2.7 2.6 2.7 1.5 5.5-.2.6.9 1.7.9 1.7l3.8-2.1c-1.1-3.7-.7-5.3-.7-5.3l-5.5.2z"/><path class="st14" d="M331.4 195.7c-.4-.2-4-.3-4.4-.2-6.6 2.1-3.6 11.3-3.4 11.9.4 1.1 1.2 2.4 2 2.9 2.9 1.9 6.7-1.6 6.8-2.2.2-.5 5.4-9.7-1-12.4z"/><path class="st13" d="M332.1 207.9c.6.2 1.4-.4 1.7-1.4.3-1 .1-1.9-.5-2.1-.7-.2-1.8 3.4-1.2 3.5z"/><path class="st15" d="M336 199.6c-.8-2.7-3.2-4.5-6.9-4.8-2.9-.2-6 2.7-6.3 5.3 0 .4-.7 3.7-.2 3.9.3.1.2-1.1.9-2.7.4-1.1 1.3-1.7 2.1-2.6 1.2 1.6 2.1 1.1 3.8 1.2 1.7.1 2.4-.3 2.4-.3s.1 1.1.2 2.3c.1 1.1.1 4.9.1 4.9s4.2-2.1 4.2-5c-.1-.6-.2-1.7-.3-2.2z"/><path class="st15" d="m332.3 198.3-7.6-.9c.1.8.1 1.7 2.2 3.4 2.2 1.9 4.6 2.1 6.5.9-.3-.8-1.1-3.4-1.1-3.4z"/><path class="st7" d="M331.1 211s-1.9 2.9-5.1 3.1l-.3.5c.4 1 2.2 2.5 2.2 2.5s4.5-2.6 4.4-3.7c-.2-1.2-1.2-2.4-1.2-2.4z"/><path class="st4" d="M336.1 204.4c0 1.4-1.1 3.2-2.6 4.1-1.4.8-2.6.3-2.6-1.1 0-1.4 1.1-3.2 2.6-4.1 1.5-.8 2.6-.3 2.6 1.1z"/><path class="st4" d="M333.7 205.5c-.2 0-.5-.2-.5-.4-.1-.4 0-.9 0-1.6.1-2.3.3-6.1-3.5-8-1.9-.9-3.8.6-3.9.6-.2.2-.6.2-.7-.1-.2-.2-.2-.6.1-.7.1-.1 2.5-2 5-.8 4.4 2.2 4.2 6.6 4.1 9v1.3c.1.3-.1.6-.4.6-.1.1-.1.1-.2.1z"/><path class="st15" d="M333.9 204.3c-1 .6-1.7 1.8-1.7 2.7 0 .2 0 .3.1.4-1.8 1-3.9 1.9-5.3 2.1h-.1v-.1c-.2-.3-.6-.7-.9-.7-.1 0-.3.1-.3.2-.2.4.1.8.5 1 .2.1.3.1.5.1h.4c1.4-.2 3.7-1.1 5.5-2.2.3.2.8.2 1.4-.1 1-.6 1.7-1.8 1.7-2.7-.1-.9-.8-1.3-1.8-.7z"/><path class="st22" d="M338.8 220.8c-.3-3.6-2.5-5.3-4.1-2.7-1.5 2.3-2.4 13.5-.4 14.6 2 1.1 4.4-.8 4.4-.8l.1-11.1z"/><path class="st14" d="M334 205.5c0 .2.3 2.2.8 4.7 0 0-1-.3-1-.5-.1-.6-.5-4.1-.3-4.4.1-.2.5-.2.5.2z"/><path class="st14" d="M332.9 207.4c.1-.1.4-.2.5 0 .2.2.2.7.4 1 .1.1.3.9.4 1.1.2.8-.6.8-.8.2-.3-.5-.8-2.1-.5-2.3z"/><path class="st14" d="M332.3 208.2c.1-.1.4-.2.5 0 .2.2.2.7.4 1 .1.1.3.9.4 1.1.2.8-.6.8-.8.2-.3-.6-.8-2.2-.5-2.3z"/><path class="st14" d="M331.9 208.8c.1 0 .4-.1.5.1.1.3.1.7.3 1 0 .1.2.9.2 1.2.1.9-.8-.1-.9-.4-.1-.3-.5-1.8-.1-1.9z"/><path class="st14" d="M333.3 207.9c.2-.1.6.1.8.3.1.1.6 1.5.9 2.6.2.7.3.9.1 1.8-.4 2.4-1.9 3-2.2 2.6-.4-.4-.8-.9-.9-1.8-.2-1.9-.2-3.2-.2-3.7s1.3-1.7 1.5-1.8z"/><path class="st14" d="m335.1 217.1-.8-3-1.8.2.5 3.1z"/><path class="st7" d="M338.5 231.1c-.1-2.8-3.1-15.2-3.1-15.2l-2.5.9s-1.3 11.1.6 15.1c1.2 2.5 5 2 5-.8z"/><path class="st14" d="M334.4 214.5c.3-.2 2-5.1 1.5-5.5-.5-.4-1.1 1.9-1.4 2.1-.4.2-.7 3.9-.1 3.4z"/><g class="st23"><path class="st24" d="M255 211.9v56.2c0 1.5-1 2.9-2.9 4l-24.2 14-1.6-1.6v-56.2c-.1 0 28.7-15.3 28.7-16.4zM384 282.7v56.2c0 1.5-1 2.9-2.9 4l-24.2 14-1.6-1.6v-56.2c-.1.1 28.7-15.3 28.7-16.4z"/><path class="st5" d="M227.6 226.3c-3.8 2.2-3.3 6.1 1.2 8.7l118.1 68.6c4.5 2.6 11.3 2.9 15.1.7l24.1-13.9c3.8-2.2 3.3-6.1-1.2-8.7l-118.1-68.6c-4.5-2.6-11.3-2.9-15.1-.7l-24.1 13.9z"/><path class="st25" d="M227.6 223.6c-3.8 2.2-3.3 6.1 1.2 8.7l118.1 68.6c4.5 2.6 11.3 2.9 15.1.7l24.1-13.9c3.8-2.2 3.3-6.1-1.2-8.7l-118.1-68.6c-4.5-2.6-11.3-2.9-15.1-.7l-24.1 13.9z"/></g><path class="st26" d="m332 266.7 9.4 5.4 13.4-7.7-9.5-5.4z"/><path class="st14" d="M346.2 258.3c0 .5-.2 2.1-.4 2.5-.2.4-.1.7-.3 1.1-.3.1-.7-.5-.6-.9.1-.4-1.1-1.6-1-2.3.1-1.1 1.7-1.5 2-1.5.3 0 .3.4.3 1.1z"/><path class="st27" d="m333 266.7 8.3 4.7c4-1.5 6.8-4.3 9.3-8.4l-8.7-4.8c-1.8 4.8-4.9 7-8.9 8.5z"/><path class="st11" d="M342.9 270c.1 0 .1 0 .2-.1s0-.2-.1-.3l-6.7-3.7c-.1-.1-.2 0-.3.1-.1.1 0 .2.1.3l6.8 3.7zM344.6 268.8c.1 0 .1 0 .2-.1s0-.2-.1-.3l-6.4-3.6c-.1-.1-.2 0-.3.1-.1.1 0 .2.1.3l6.5 3.6c-.1-.1 0 0 0 0zM345.8 267.5c.1 0 .1 0 .2-.1s0-.2-.1-.3l-6.4-3.6c-.1-.1-.2 0-.3.1-.1.1 0 .2.1.3l6.5 3.6zM347 266.3c.1 0 .1 0 .2-.1s0-.2-.1-.3l-6.4-3.6c-.1-.1-.2 0-.3.1-.1.1 0 .2.1.3l6.5 3.6z"/><path class="st14" d="M345.1 255.7c.6-.4.7.6 1 1.1.2.5 0 .9-.2 1.3s-2.1 2.7-2.3 2.7c-.6-.1-3.1.3-2.3-1.3.3-.6.8-1.4 1.3-1.8.8-.8 2.1-1.8 2.5-2z"/><path class="st14" d="m348.7 254 1.5 2.3-4.3 1.4-1.5-1.6c.8-.8 4.3-2.1 4.3-2.1z"/><path class="st7" d="m348.4 253.9 1.3 2.6-2.1 1.1-1.3-2.7z"/><path class="st14" d="M340.7 262.8c.1-.1.6-1 1-1.6.3-.5.7-.9.8-1 .1-.2.3-.5.4-.7.1-.5-.5-.7-.9-.3-.2.3-1.6 3.3-1.7 3.5-.1 0 .2.3.4.1z"/><path class="st14" d="M340.9 261.6c.2-.2 1.6-2.3 1.8-2.6.1-.2.3-.5.4-.7.1-.5-1.2.4-1.6.8-.3.3-1.3 2.3-1.2 2.6.2.3.4.1.6-.1zM341.4 263.1c.2-.3 1.2-1.8 1.3-2 .1-.2.3-.5.4-.7.1-.5-.3-.8-.7-.4-.2.3-1.8 3-1.9 3.3-.1.2.3.6.9-.2z"/><path class="st14" d="M342.7 263.1c.3-.7.9-2.4 1.3-3 .1-.8-.5-.7-1.1.4-.4.7-1.2 2.9-1.1 3.2.2.2.6.1.9-.6z"/><path class="st9" d="M357.2 250c1.2 0 2 2.6.5 3.8-1.5 1.2-8.7 3.4-8.7 3.4l-1.7-2.9c0 .1 8.6-4.3 9.9-4.3z"/><path class="st14" d="M309.3 236.2c0 .6-.3 2.5-.5 2.9-.3.4-.1.8-.4 1.3-.4.2-.7-.6-.7-1.1 0-2.6-.8-2.2-.7-3 .2-1.3 1.4-1.9 1.8-2 .4.1.5 1.1.5 1.9z"/><path class="st14" d="M307.5 233.3c.9-.5 1.2.1 1.5.7.3.6.3 1.1.1 1.5-.2.5-2.4 3.2-2.7 3.1-.7-.2-3.6.7-2.7-1.1.3-.7 1.1-1.7 1.6-2.3.9-1 1.2-1.3 2.2-1.9z"/><path class="st14" d="m311.2 230.1 1.6 1.6-3.9 2.8-2-.8c1-1.2 4.3-3.6 4.3-3.6zM303.2 240.4c.1-.2.5-1.2 1-2 .4-.6.9-1 .9-1.1.2-.3-.6-.7-1.1-.3-.3.3-1.3 2.6-1.3 3.1 0 .4.2.6.5.3z"/><path class="st14" d="M303.2 239.4c.2-.1.7-1.1 1.3-1.8.5-.5 1-.9 1.1-1 .2-.2-.5-.8-1-.5-.3.3-1.6 2.2-1.7 2.7-.1.6 0 .9.3.6z"/><path class="st14" d="M303.7 240.5c.3-.3 1.5-2.2 1.7-2.7s-.2-.7-.7-.3c-.3.3-2 2.7-2.2 3-.1.5.5.9 1.2 0z"/><path class="st14" d="M303.4 241.1c.6-.6 3.3-2.7 3.5-3 .3-.3-.8-.6-2 .3-.8.5-2.6 2.4-2.6 2.8.1.5.5.5 1.1-.1z"/><path class="st7" d="m310.8 230.1 1.8 2-2.3 1.6-1.6-1.9z"/><path class="st22" d="M319.5 223.2c1.4-.3 3 2.4 1.6 4.2-1.3 1.8-9.4 5.6-9.4 5.6l-2.2-2.1s8.6-7.4 10-7.7z"/><path class="st14" d="M264.2 223.5c0 .6-.3 2.6-.6 3-.3.4-.2.9-.4 1.4-.4.2-.7-.6-.7-1.1 0-2.7-.8-2.3-.7-3.1.2-1.3 1.5-2 1.8-2 .5-.1.6.9.6 1.8z"/><path class="st14" d="M262.3 220.4c1-.6 1.3.1 1.6.7.3.6.3 1.1.1 1.6-.2.5-2.5 3.3-2.8 3.2-.8-.2-3.8.8-2.8-1.2.4-.7 1.1-1.8 1.7-2.4.9-.9 1.2-1.3 2.2-1.9z"/><path class="st14" d="m266.1 217.1 1.7 1.7-4 2.9-2-.9c.9-1.2 4.3-3.7 4.3-3.7zM257.8 227.8c.1-.2.5-1.2 1.1-2 .4-.6.9-1 1-1.2.2-.3-.6-.8-1.1-.3-.3.3-1.3 2.7-1.4 3.2-.1.5.2.6.4.3z"/><path class="st14" d="M257.9 226.8c.2-.1.7-1.1 1.4-1.8.5-.5 1-.9 1.2-1 .2-.3-.5-.8-1.1-.5-.3.3-1.6 2.3-1.7 2.8-.3.5-.2.8.2.5z"/><path class="st14" d="M258.4 227.9c.3-.4 1.5-2.3 1.8-2.8.2-.4-.2-.7-.7-.3-.3.3-2.1 2.8-2.3 3.2-.2.4.5.9 1.2-.1z"/><path class="st14" d="M258.1 228.6c.6-.6 3.4-2.8 3.7-3.1.3-.3-.8-.6-2 .3-.8.6-2.7 2.5-2.7 2.9 0 .5.3.5 1-.1z"/><path class="st7" d="m265.7 217.1 1.9 2.1-2.4 1.6-1.6-1.9z"/><path class="st6" d="M272.5 209.6s4.8 2.3 3.4 4.2c-1.4 1.9-9.3 6.4-9.3 6.4l-2.3-2.2 8.2-8.4z"/><path class="st6" d="M278.6 196.7c1-1.1 3.9.4 3.8 2.7-.2 2.3-6.5 14.3-6.5 14.3l-4.3-3c0 .1 6-12.9 7-14z"/><path class="st14" d="M271.5 230.8c.2.1 3.9-.4 5.7-.2 0 0-.2 1.1-.4 1.2-.8 0-5.3 0-5.6-.3-.2-.2-.2-.8.3-.7z"/><path class="st14" d="M272.4 232.3c0-.2 0-.5.2-.6.4-.1 2.6 0 3 0 1.1 0 2.4-.1 2.4-.1l.2 1.5c-.3 0-3.3-.4-3.3-.4s-2.5.1-2.5-.4z"/><path class="st14" d="M273.7 233.3c0-.2-.1-.5.2-.6.4-.1 1 0 1.3-.1.2 0 1.2-.1 1.5 0 1.1 0 .8 1 0 1s-3 .1-3-.3z"/><path class="st14" d="M274.3 233.6c0-.2.1-.5.4-.5.4 0 .9.2 1.3.2.2 0 1.1.2 1.5.3 1.1.3-.5.9-.9.8-.5-.1-2.4-.4-2.3-.8z"/><path class="st14" d="M275.1 232.4c-.2-.2-.1-.7.1-1 .2-.3 2.2-2.3 5.2-2.5 3.1-.2 4.1 1.9 3.7 2.5-.4.6-1.1 1-2.2 1.4-2.3.8-5.1 1.8-5.3 1.6-.2-.3-1.3-1.8-1.5-2z"/><path class="st14" d="m286.2 227.8-3.5 1.7-.8 3.3 5.2-2.4z"/><path class="st17" d="m287.3 227.2-3.9 1.7 1.3 2.8 3.5-1.9z"/><path class="st6" d="m296.2 220.7-11.8 7.4 1.7 3.3s9.5-3.2 13.7-6.3c2.7-2.1-.8-6.3-3.6-4.4z"/><path class="st17" d="m278.5 228.5-10.9-6.3-15.6 8.9 11 6.4z"/><path class="st11" d="m266.3 234.3-8.5-4.9-.3.1 8.6 5zM267.5 233.6l-8.5-4.9-.3.2 8.5 4.9zM268.8 232.9l-8.5-4.9-.3.2 8.5 4.9zM270 232.3l-8.5-4.9-.3.2 8.5 4.9zM271.1 231.5l-8.6-4.9-.3.2 8.6 4.9zM272.2 230.9l-8.5-4.9-.3.1 8.5 5zM269.4 226.7l-.3.2-3.3-1.9.3-.2z"/><path class="st14" d="M283.2 229.4c-.4-.3-6.8-1.3-7.2-.6-.4.7 2.6.9 2.9 1.3.4.4-.6 1-.1 1.2.5.1 5.1-1.3 4.4-1.9zM353.5 268.4c.2.1 3.9-.4 5.7-.2 0 0-.2 1.1-.4 1.2-.8 0-5.3 0-5.6-.3-.3-.3-.2-.8.3-.7z"/><path class="st14" d="M354.4 269.9c0-.2 0-.5.2-.6.4-.1 2.6 0 3 0 1.1 0 2.4-.1 2.4-.1l.2 1.5c-.3 0-3.3-.4-3.3-.4s-2.5 0-2.5-.4z"/><path class="st14" d="M355.6 270.8c0-.2-.1-.5.2-.6.4-.1 1 0 1.3-.1.2 0 1.2-.1 1.5 0 1.1 0 .8 1 0 1s-2.9.1-3-.3z"/><path class="st14" d="M356.2 271.1c0-.2.1-.5.4-.5.4 0 .9.2 1.3.2.2 0 1.1.2 1.5.3 1.1.3-.5.9-.9.8-.4-.1-2.3-.4-2.3-.8z"/><path class="st14" d="M357.1 270c-.2-.2-.1-.7.1-1 .2-.3 2.2-2.3 5.2-2.5 3.1-.2 4.1 1.9 3.7 2.5-.4.6-1.1 1-2.2 1.4-2.3.8-5.1 1.8-5.3 1.6-.2-.3-1.3-1.8-1.5-2z"/><path class="st14" d="m368.1 265.4-3.5 1.7-.7 3.2 5.2-2.4z"/><path class="st17" d="m369.3 264.7-3.9 1.7 1.3 2.9 3.5-2z"/><path class="st9" d="m377.7 260.5-10.1 6.6s8.3 1.1 12.5-2c2.7-2 .4-6.5-2.4-4.6z"/><path class="st11" d="m378.1 258.3-11.8 7.4 1.7 3.3s8.3-2.9 12.5-6.1c2.7-2 .4-6.6-2.4-4.6z"/><path class="st11" d="m377 246.5 1 13.9 3.7.1s1.7-9.9.9-15.1c-.6-3.4-6-2.2-5.6 1.1z"/><path class="st14" d="M365.1 266.9c-.4-.3-6.8-1.3-7.2-.6-.4.7 2.6.9 2.9 1.3.4.4-.6 1-.1 1.2.6.2 5.2-1.3 4.4-1.9z"/><path class="st27" d="m241.4 204.4-1.4.8 32 18.5 1.4-.8z"/><path class="st27" d="M272 223.7v22.8l1.4-.8v-22.8z"/><path class="st28" d="M272 223.7v22.8l-31.6-18.9-.4-22.4z"/><path class="st5" d="m272 246.8-32-18.5v-22.8l32 18.5zM259.4 244.3l-2.6 1.5-8.5-4.9.5-.7 2.1-.8 8.1 3.9z"/><path class="st27" d="m259 243.3-2.4 1.4-7.8-4.5 2.3-1.4z"/><path class="st27" d="m254.8 243.7 1.9-.9-.7-10.1-.4.2z"/><path class="st5" d="m251 230.3-.6 11.1 4.4 2.3.8-10.8z"/><path class="st27" d="m256 232.7-.4.2-4.6-2.6.4-.2zM280.2 226.4l-1.5.8 32.1 18.5 1.4-.8z"/><path class="st27" d="M310.8 245.7v22.8l1.4-.8v-22.8z"/><path class="st28" d="M310.8 245.7v22.8l-31.6-19-.5-22.3z"/><path class="st5" d="m310.8 268.7-32.1-18.5v-22.8l32.1 18.5zM298.2 266.3l-2.6 1.4-8.5-4.9.4-.7 2.2-.8 8.1 4z"/><path class="st27" d="m297.8 265.3-2.4 1.3-7.9-4.5 2.4-1.4z"/><path class="st27" d="m293.5 265.6 2-.9-.8-10.1-.4.3z"/><path class="st5" d="m289.8 252.2-.6 11.1 4.3 2.3.8-10.7z"/><path class="st27" d="m294.8 254.6-.4.3-4.6-2.7.4-.2zM320.4 249.6l-1.4.7 32 18.6 1.4-.8z"/><path class="st27" d="M351 268.9v22.7l1.4-.7v-22.8z"/><path class="st28" d="M351 268.9v22.7l-31.6-18.9-.4-22.4z"/><path class="st5" d="m351 291.9-32-18.5v-22.8l32 18.5zM338.4 289.4l-2.6 1.5-8.5-4.9.4-.7 2.2-.8 8.1 3.9z"/><path class="st27" d="m338 288.4-2.4 1.4-7.9-4.5 2.4-1.4z"/><path class="st27" d="m333.7 288.8 2-.9-.7-10.1-.5.2z"/><path class="st5" d="m330 275.4-.6 11.1 4.3 2.3.8-10.8z"/><path class="st27" d="m335 277.8-.4.2-4.6-2.6.4-.2z"/></g><path class="st30" d="M205.2 93.8c0 8.8-7.2 16-16 16h-164c-8.8 0-16-7.2-16-16s7.2-16 16-16h164c8.8 0 16 7.2 16 16z"/><path class="st31" d="M35.8 88.4c1.1 0 2 .4 2.6 1.2.7.9 1.1 2.5 1.1 4.7s-.4 3.7-1.1 4.7c-.6.8-1.5 1.2-2.6 1.2s-2-.4-2.7-1.3c-.7-.9-1-2.4-1-4.6 0-2.2.4-3.7 1.1-4.7.6-.8 1.5-1.2 2.6-1.2zm0 1.8c-.3 0-.5.1-.7.3-.2.2-.4.5-.5.9-.2.6-.2 1.5-.2 2.9s.1 2.3.2 2.8.3.8.5 1c.2.2.4.2.7.2s.5-.1.7-.3c.2-.2.4-.5.5-.9.2-.6.2-1.5.2-2.9s-.1-2.2-.2-2.7-.3-.8-.5-1c-.2-.2-.5-.3-.7-.3zM40.9 96.9l2.1-.3c.1.5.2 1 .5 1.2.3.3.7.4 1.1.4.5 0 .8-.2 1.1-.5s.5-.8.5-1.4c0-.6-.1-1-.4-1.3-.3-.3-.7-.5-1.1-.5-.3 0-.6.1-1 .2l.2-1.8c.6 0 1-.1 1.4-.4s.5-.6.5-1.1c0-.4-.1-.7-.3-.9-.2-.2-.5-.3-.9-.3s-.7.1-1 .4c-.3.3-.4.6-.5 1.1l-2-.3c.1-.7.4-1.2.6-1.7s.7-.7 1.2-1c.5-.2 1.1-.4 1.7-.4 1.1 0 1.9.3 2.6 1 .5.6.8 1.2.8 1.9 0 1-.5 1.8-1.6 2.4.7.1 1.2.5 1.6.9.4.5.6 1.1.6 1.8 0 1-.4 1.9-1.1 2.6-.7.7-1.6 1.1-2.7 1.1-1 0-1.9-.3-2.6-.9-.8-.5-1.2-1.3-1.3-2.2zM50.1 96.8v-2.2h4.3v2.2h-4.3zM54.6 99.9l3-4.3-2.9-4h2.7l1.5 2.3 1.5-2.3H63l-2.8 3.9 3.1 4.4h-2.7l-1.7-2.6-1.7 2.6h-2.6zM63.5 99.9l3-4.3-2.9-4h2.7l1.5 2.3 1.5-2.3h2.6l-2.8 3.9 3.1 4.4h-2.7l-1.7-2.6-1.7 2.6h-2.6zM72.4 99.9l3-4.3-2.9-4h2.7l1.5 2.3 1.5-2.3h2.6L78 95.5l3.1 4.4h-2.7l-1.7-2.6-1.7 2.6h-2.6zM81.3 99.9l3-4.3-2.9-4h2.7l1.5 2.3 1.5-2.3h2.6l-2.8 3.9 3.1 4.4h-2.7l-1.7-2.6-1.7 2.6h-2.6zM91 96.8v-2.2h4.3v2.2H91zM95.5 99.9l3-4.3-2.9-4h2.7l1.5 2.3 1.5-2.3h2.6l-2.8 3.9 3.1 4.4h-2.7l-1.7-2.6-1.7 2.6h-2.6zM104.4 99.9l3-4.3-2.9-4h2.7l1.5 2.3 1.5-2.3h2.6l-2.8 3.9 3.1 4.4h-2.7l-1.7-2.6-1.7 2.6h-2.6zM113.3 99.9l3-4.3-2.9-4h2.7l1.5 2.3 1.5-2.3h2.6l-2.8 3.9 3.1 4.4h-2.7l-1.7-2.6-1.7 2.6h-2.6zM128.4 99.9h-2.2v-8.3c-.8.8-1.7 1.3-2.8 1.7v-2c.6-.2 1.2-.5 1.9-1.1s1.1-1.1 1.4-1.8h1.8v11.5zM137 93.9c.7-.8 2-2.4 3-3.6 1.1-1.3 2.2-1.4 3.3-.2 1.1 1.1 2.4 2.7 3.3 3.7 1 1.1 2.4 2.6 3.9 3.9l-1.6 1.9c-1.2-1.1-2.5-2.6-3.5-3.8-1-1.2-2.2-2.7-2.9-3.6-.6-.6-.9-.5-1.3 0-.6.8-1.8 2.4-2.5 3.3-.4.5-.7 1.1-1 1.5l-2-2c.4-.2.8-.6 1.3-1.1zM155.6 89.6c-.4 2.1-1.1 3.7-3 4.8-.2-.4-.7-1.1-1.1-1.4 1.4-.8 2-1.9 2.3-3.3h-1.9v-1.6h2.1c0-.5 0-1 .1-1.6h1.8c0 .5 0 1.1-.1 1.6h3.3v.7c-.1 2.8-.3 4.1-.7 4.5-.3.4-.6.5-1.1.6-.4.1-1 .1-1.7 0 0-.5-.2-1.2-.5-1.7.5.1 1 .1 1.2.1.2 0 .3 0 .5-.2s.3-.8.4-2.4h-1.6zm5.5 7c1.3 1.2 3.4 2.2 5.4 2.7-.4.4-1 1.1-1.3 1.6-1.9-.6-3.8-1.8-5.3-3.2v3.6h-2v-3.6c-1.4 1.4-3.3 2.7-5.2 3.3-.3-.5-.8-1.2-1.2-1.5 2-.6 4-1.7 5.4-2.9h-5v-1.7h6.1v-1.2h2v1.2h6.1v1.7h-5zm4.7-3.2h-6v-5.8h6v5.8zm-1.9-4.2h-2.3v2.5h2.3v-2.5zM169.7 92.2H168V89h6v-.6h-4.9V87h11.8v1.4h-5v.6h6.2v3.2h-1.8v-2h-4.4v3.3H174v-3.3h-4.4v2zm10.3 7.6c.8 0 .9-.2 1.1-1.6.4.3 1.1.5 1.6.6-.2 1.9-.7 2.4-2.5 2.4h-3.4c-2.2 0-2.8-.5-2.8-2.1h-2.7v.7h-1.8V94h11.1v5h-4.8c0 .6.2.7 1.2.7h3zm-10-7.5h3.5v1H170v-1zm3.5-.6h-3.2v-1h3.2v1zm-2.2 3.5v.7h2.7v-.7h-2.7zm2.7 2.6v-.7h-2.7v.7h2.7zm4.7-2.6h-2.9v.7h2.9v-.7zm0 2.6v-.7h-2.9v.7h2.9zm.9-7.1v1h-3.1v-1h3.1zm-3.1 1.6h3.5v1h-3.5v-1z"/><path class="st30" d="M410.7 93.8c0 8.8-7.2 16-16 16h-164c-8.8 0-16-7.2-16-16s7.2-16 16-16h164c8.8 0 16 7.2 16 16z"/><path class="st31" d="M241.3 88.4c1.1 0 2 .4 2.6 1.2.7.9 1.1 2.5 1.1 4.7s-.4 3.7-1.1 4.7c-.6.8-1.5 1.2-2.6 1.2s-2-.4-2.7-1.3c-.7-.9-1-2.4-1-4.6 0-2.2.4-3.7 1.1-4.7.6-.8 1.5-1.2 2.6-1.2zm0 1.8c-.3 0-.5.1-.7.3-.2.2-.4.5-.5.9-.2.6-.2 1.5-.2 2.9s.1 2.3.2 2.8.3.8.5 1c.2.2.4.2.7.2s.5-.1.7-.3c.2-.2.4-.5.5-.9.2-.6.2-1.5.2-2.9s-.1-2.3-.2-2.8-.3-.8-.5-1c-.2-.1-.4-.2-.7-.2zM246.4 96.9l2.1-.3c.1.5.2 1 .5 1.2.3.3.7.4 1.1.4.5 0 .8-.2 1.1-.5s.5-.8.5-1.4c0-.6-.1-1-.4-1.3-.3-.3-.7-.5-1.1-.5-.3 0-.6.1-1 .2l.2-1.8c.6 0 1-.1 1.4-.4s.5-.6.5-1.1c0-.4-.1-.7-.3-.9-.2-.2-.5-.3-.9-.3s-.7.1-1 .4c-.3.3-.4.6-.5 1.1l-2-.3c.1-.7.4-1.2.6-1.7s.7-.7 1.2-1c.5-.2 1.1-.4 1.7-.4 1.1 0 1.9.3 2.6 1 .5.6.8 1.2.8 1.9 0 1-.5 1.8-1.6 2.4.7.1 1.2.5 1.6.9.4.5.6 1.1.6 1.8 0 1-.4 1.9-1.1 2.6-.7.7-1.6 1.1-2.7 1.1-1 0-1.9-.3-2.6-.9-.8-.5-1.2-1.3-1.3-2.2zM255.6 96.8v-2.2h4.3v2.2h-4.3zM260.1 99.9l3-4.3-2.9-4h2.7l1.5 2.3 1.5-2.3h2.6l-2.8 3.9 3.1 4.4h-2.7l-1.7-2.6-1.7 2.6h-2.6zM269 99.9l3-4.3-2.9-4h2.7l1.5 2.3 1.5-2.3h2.6l-2.8 3.9 3.1 4.4H275l-1.7-2.6-1.7 2.6H269zM277.9 99.9l3-4.3-2.9-4h2.7l1.5 2.3 1.5-2.3h2.6l-2.8 3.9 3.1 4.4h-2.7l-1.7-2.6-1.7 2.6h-2.6zM286.8 99.9l3-4.3-2.9-4h2.7l1.5 2.3 1.5-2.3h2.6l-2.8 3.9 3.1 4.4h-2.7l-1.7-2.6-1.7 2.6h-2.6zM296.5 96.8v-2.2h4.3v2.2h-4.3zM301 99.9l3-4.3-2.9-4h2.7l1.5 2.3 1.5-2.3h2.6l-2.8 3.9 3.1 4.4H307l-1.7-2.6-1.7 2.6H301zM309.9 99.9l3-4.3-2.9-4h2.7l1.5 2.3 1.5-2.3h2.6l-2.8 3.9 3.1 4.4h-2.7l-1.7-2.6-1.7 2.6h-2.6zM318.8 99.9l3-4.3-2.9-4h2.7l1.5 2.3 1.5-2.3h2.6l-2.8 3.9 3.1 4.4h-2.7l-1.7-2.6-1.7 2.6h-2.6zM335.7 97.9v2H328c.1-.8.3-1.5.8-2.2.4-.7 1.2-1.6 2.5-2.7 1-.9 1.6-1.5 1.8-1.9.3-.5.5-.9.5-1.3 0-.5-.1-.9-.4-1.1-.3-.3-.6-.4-1.1-.4-.5 0-.8.1-1.1.4-.3.3-.4.7-.5 1.4l-2.2-.2c.1-1.2.5-2.1 1.2-2.6s1.5-.8 2.6-.8 2 .3 2.7.9 1 1.4 1 2.3c0 .5-.1 1-.3 1.5-.2.5-.5 1-.9 1.5-.3.3-.7.8-1.4 1.5-.7.6-1.1 1.1-1.3 1.3-.2.2-.3.4-.4.6h4.2zM342.5 93.9c.7-.8 2-2.4 3-3.6 1.1-1.3 2.2-1.4 3.3-.2 1.1 1.1 2.4 2.7 3.3 3.7 1 1.1 2.4 2.6 3.9 3.9l-1.6 1.9c-1.2-1.1-2.5-2.6-3.5-3.8-1-1.2-2.2-2.7-2.9-3.6-.6-.6-.9-.5-1.3 0-.6.8-1.8 2.4-2.5 3.3-.4.5-.7 1.1-1 1.5l-2-2c.4-.2.8-.6 1.3-1.1zM361.1 89.6c-.4 2.1-1.1 3.7-3 4.8-.2-.4-.7-1.1-1.1-1.4 1.4-.8 2-1.9 2.3-3.3h-1.9v-1.6h2.1c0-.5 0-1 .1-1.6h1.8c0 .5 0 1.1-.1 1.6h3.3v.7c-.1 2.8-.3 4.1-.7 4.5-.3.4-.6.5-1.1.6-.4.1-1 .1-1.7 0 0-.5-.2-1.2-.5-1.7.5.1 1 .1 1.2.1.2 0 .3 0 .5-.2s.3-.8.4-2.4h-1.6zm5.6 7c1.3 1.2 3.4 2.2 5.4 2.7-.4.4-1 1.1-1.3 1.6-1.9-.6-3.8-1.8-5.3-3.2v3.6h-2v-3.6c-1.4 1.4-3.3 2.7-5.2 3.3-.3-.5-.8-1.2-1.2-1.5 2-.6 4-1.7 5.4-2.9h-5v-1.7h6.1v-1.2h2v1.2h6.1v1.7h-5zm4.6-3.2h-6v-5.8h6v5.8zm-1.9-4.2h-2.3v2.5h2.3v-2.5zM375.2 92.2h-1.7V89h6v-.6h-4.9V87h11.8v1.4h-5v.6h6.2v3.2h-1.8v-2h-4.4v3.3h-1.9v-3.3h-4.4v2zm10.3 7.6c.8 0 .9-.2 1.1-1.6.4.3 1.1.5 1.6.6-.2 1.9-.7 2.4-2.5 2.4h-3.4c-2.2 0-2.8-.5-2.8-2.1h-2.7v.7H375V94h11.1v5h-4.8c0 .6.2.7 1.2.7h3zm-10-7.5h3.5v1h-3.5v-1zm3.5-.6h-3.2v-1h3.2v1zm-2.2 3.5v.7h2.7v-.7h-2.7zm2.7 2.6v-.7h-2.7v.7h2.7zm4.7-2.6h-2.9v.7h2.9v-.7zm0 2.6v-.7h-2.9v.7h2.9zm1-7.1v1H382v-1h3.2zm-3.2 1.6h3.5v1H382v-1z"/><path class="st0" d="M154.8 145.4c0 6.2-5 11.2-11.2 11.2H70.8c-6.2 0-11.2-5-11.2-11.2 0-6.2 5-11.2 11.2-11.2h72.8c6.2 0 11.2 5 11.2 11.2z"/><path class="st17" d="M84.9 149.7h-2l-.8-2h-3.6l-.7 2h-1.9l3.5-9h1.9l3.6 9zm-3.3-3.6-1.2-3.3-1.2 3.3h2.4zM98.9 141.1l-.9.4 1.1.7c-.1.2-.3.6-.4.9-.3 1.1-1.1 2.8-2.2 4.2-1.2 1.5-2.7 2.6-5.1 3.6l-1.5-1.3c2.6-.8 4-1.9 5.1-3.1.9-1 1.6-2.5 1.8-3.4h-3.5c-.8 1.1-1.9 2.2-3.2 3l-1.4-1.1c2.2-1.3 3.3-3 3.9-4.1.2-.3.5-.9.6-1.3l1.9.6c-.3.4-.6 1-.8 1.3v.1h2.5c.4 0 .8-.1 1.1-.2l.1.1c-.3-.5-.6-1.2-.9-1.6l1-.4c.2.3.6 1.1.8 1.6zm1.6-.6-1 .4c-.3-.5-.7-1.3-1-1.7l1-.4c.3.4.7 1.2 1 1.7zM103.4 146.2c.4-1.1.4-3.5.4-5 0-.5 0-.8-.1-1.2h1.9c0 .1-.1.6-.1 1.1 0 1.5 0 4.1-.4 5.4-.4 1.4-1.2 2.7-2.2 3.6l-1.5-1c.9-.7 1.6-1.8 2-2.9zm3.8 2.3v-7.3c0-.6-.1-1-.1-1.1h1.9s-.1.5-.1 1.1v6.6c1-.4 2.3-1.4 3.1-2.7l1 1.4c-1 1.4-2.9 2.7-4.3 3.4-.3.2-.4.3-.5.4l-1.1-.9c0-.3.1-.6.1-.9zM116.5 143.9h6.8c.6 0 1.1-.1 1.5-.1v2c-.3 0-.9-.1-1.5-.1h-6.8c-.7 0-1.6 0-2 .1v-2c.4.1 1.4.1 2 .1zM136.8 138.9c.8 0 1.5.7 1.5 1.5s-.7 1.5-1.5 1.5h-.2c0 .1-.1.3-.1.4-.3 1.2-.8 3.2-1.9 4.6-1.1 1.5-2.8 2.8-5.1 3.5l-1.4-1.5c2.5-.6 3.9-1.7 4.9-3 .8-1 1.3-2.5 1.5-3.6h-5.9c-.6 0-1.2 0-1.5.1v-1.8c.4.1 1.1.1 1.5.1h5.8c.2 0 .5 0 .7-.1v-.2c.2-.8.9-1.5 1.7-1.5zm0 2.2c.4 0 .7-.3.7-.7 0-.4-.3-.7-.7-.7-.4 0-.7.3-.7.7 0 .4.3.7.7.7z"/><path class="st0" d="M360.3 145.4c0 6.2-5 11.2-11.2 11.2h-72.8c-6.2 0-11.2-5-11.2-11.2 0-6.2 5-11.2 11.2-11.2h72.8c6.2 0 11.2 5 11.2 11.2z"/><path class="st17" d="M282.3 140.6h3.6c.7 0 1.2 0 1.6.1s.7.2.9.4c.3.2.5.4.7.8s.3.7.3 1.1c0 .4-.1.8-.3 1.2-.2.4-.5.6-.9.8.5.2 1 .4 1.3.8.3.4.4.8.4 1.4 0 .4-.1.8-.3 1.2-.2.4-.5.7-.8.9-.3.2-.7.4-1.2.4-.3 0-1 .1-2.2.1h-3.1v-9.2zm1.8 1.5v2.1h2.5c.3 0 .6-.1.7-.3.2-.2.3-.4.3-.7 0-.3-.1-.5-.2-.7-.2-.2-.4-.3-.7-.3h-2.6zm0 3.6v2.4h1.7c.7 0 1.1 0 1.2-.1.3 0 .5-.2.7-.4.2-.2.3-.4.3-.8 0-.3-.1-.5-.2-.7-.1-.2-.3-.3-.6-.4-.2-.1-.8-.1-1.6-.1h-1.5zM304.5 141.1l-.9.4 1.1.7c-.1.2-.3.6-.4.9-.3 1.1-1.1 2.8-2.2 4.2-1.2 1.5-2.7 2.6-5.1 3.6l-1.5-1.3c2.6-.8 4-1.9 5.1-3.1.9-1 1.6-2.5 1.8-3.4h-3.5c-.8 1.1-1.9 2.2-3.2 3l-1.4-1.1c2.2-1.3 3.3-3 3.9-4.1.2-.3.5-.9.6-1.3l1.9.6c-.3.4-.6 1-.8 1.3v.1h2.5c.4 0 .8-.1 1.1-.2l.1.1c-.3-.5-.6-1.2-.9-1.6l1-.4c.1.3.5 1.1.8 1.6zm1.5-.6-1 .4c-.3-.5-.7-1.3-1-1.7l1-.4c.3.4.7 1.2 1 1.7zM308.9 146.2c.4-1.1.4-3.5.4-5 0-.5 0-.8-.1-1.2h1.9c0 .1-.1.6-.1 1.1 0 1.5 0 4.1-.4 5.4-.4 1.4-1.2 2.7-2.2 3.6l-1.5-1c1-.7 1.6-1.8 2-2.9zm3.8 2.3v-7.3c0-.6-.1-1-.1-1.1h1.9s-.1.5-.1 1.1v6.6c1-.4 2.3-1.4 3.1-2.7l1 1.4c-1 1.4-2.9 2.7-4.3 3.4-.3.2-.4.3-.5.4l-1.1-.9c0-.3.1-.6.1-.9zM322 143.9h6.8c.6 0 1.1-.1 1.5-.1v2c-.3 0-.9-.1-1.5-.1H322c-.7 0-1.6 0-2 .1v-2c.5.1 1.4.1 2 .1zM342.3 138.9c.8 0 1.5.7 1.5 1.5s-.7 1.5-1.5 1.5h-.2c0 .1-.1.3-.1.4-.3 1.2-.8 3.2-1.9 4.6-1.1 1.5-2.8 2.8-5.1 3.5l-1.4-1.5c2.5-.6 3.9-1.7 4.9-3 .8-1 1.3-2.5 1.5-3.6h-5.9c-.6 0-1.2 0-1.5.1v-1.8c.4.1 1.1.1 1.5.1h5.8c.2 0 .5 0 .7-.1v-.2c.2-.8.9-1.5 1.7-1.5zm0 2.2c.4 0 .7-.3.7-.7 0-.4-.3-.7-.7-.7-.4 0-.7.3-.7.7 0 .4.3.7.7.7z"/><circle class="st32" cx="107.2" cy="30" r="30"/><defs><circle id="SVGID_00000164504347658395708550000009214477993736456095_" cx="107.2" cy="30" r="30"/></defs><clipPath id="SVGID_00000000905895637734051530000005235570302180060052_"><use xlink:href="#SVGID_00000164504347658395708550000009214477993736456095_" style="overflow:visible"/></clipPath><g style="clip-path:url(#SVGID_00000000905895637734051530000005235570302180060052_)"><path class="st5" d="M81.5 88.2v-38l-27.3 8.1v43.6c0 .7.6 1.2 1.2 1.2.1 0 26.1-14.9 26.1-14.9zM127.6 111.3v-38l-27.3 8.1V125c0 .7.6 1.2 1.2 1.2.1 0 26.1-14.9 26.1-14.9z"/><path class="st4" d="m128.4 68.9-19.3-11.1c-.7-.4-1.5-1.9-1.4-2.6l3.4-21.2c.1-.5.4-.6.9-.3l19.2 10c1.3.8.7 3.5.5 4.7l-3.3 20.5z"/><path class="st4" d="m127.8 69.7-18.7 10.9c-.3.2-.7.2-1 0L89.2 69.7c-.7-.4-.7-1.4 0-1.8L107.9 57c.3-.2.7-.2 1 0l18.9 11c.7.4.7 1.4 0 1.7z"/><path class="st6" d="M80 104.8c.6-.3 1.5-1 1.9-1.9.2-.4-.1-1.6 1.9-1.5 2 .1 2.4 1 2.5 1.4.1.4 1.1 2.1.4 3.1-.7.9-2.6 1.2-4.7 2.6-1.8 1.2-2.3 2-3.4 2.2-1.1.2-2.9-.4-3.2-1.6-.3-1.1.5-1.9 1.1-2.3.6-.4 2.8-1.7 3.5-2z"/><path class="st17" d="m80.8 98.5 4.3-.4c.3 1.1-.6 2.5.6 4.4.7 1.2-4 4.2-4 4.2l-2.4-1.4s3-3.5 1.5-6.8z"/><path class="st8" d="M79.1 75.2c-1.4 3.6.7 24.8.6 25.9-.1 1 2.7 2.7 4 2.4 1.3-.3 3.6-2.3 3.6-2.3s-1.3-19.9-.5-22.5c.8-2.5 28.9-17.8 28.9-17.8l-9.5-7.6-3.9 5.6c0 .1-21.8 12.7-23.2 16.3z"/><path class="st6" d="M84.1 114.6c-.7-.6-.7-1.6 0-2.1 1.8-1.2 3.8-3.2 5.2-4 .9-.5 3.1-2.8 4.2-2.4 1.2.4 2 1.6 2 2.9 0 1.2-.5 1.9-1.1 2.3-.6.5-3.6 2-4.2 2.7-1.2 1.2-2.8 1.8-3.4 1.8-1.2-.1-2-.6-2.7-1.2z"/><path class="st17" d="m89.5 100.4 4.8-.3s-.8 5.7.9 7.4c1 1-4.4 3.1-4.4 3.1s-2.3-1.5-2.2-1.6c2.7-3.2.9-8.6.9-8.6z"/><path class="st8" d="M89.6 105c0 1.2 2.4 2.3 4.8 1.8 2.4-.4 2.2-2.8 2.2-3.7-.1-1-.4-16.9 1.4-20 1.8-3.1 21.7-10.8 23.4-13.8 1.7-3.1-.4-10.5-.4-10.5-.2-.5-11.1-6.7-11.1-6.7l-.8 11.5S92.7 76.4 90.9 79.2c-2 2.8-1.3 24.7-1.3 25.8z"/><path class="st9" d="M103.1 24.1c1.2-.8 4.2.8 4.2.8s-8.2 17.7-10.8 18.3c-2.6.6-3.1-3-3.1-3s8.6-15.4 9.7-16.1z"/><path class="st7" d="M111.2 21.8c2.2 1.4 5.3 5.8 5.3 5.8l-3.8 33.8-9.7-4.1s-1.3-23.7-1-26.3c.4-2.7 1.8-6.2 3.9-7.2 2.2-1 3.1-3.4 5.3-2z"/><path class="st10" d="m105.4 41 1.2-10.4c-.6-1-.8-3.8-.4-4.2.4-.4 2.3-.7 2.3-.7l1.6 2.8-2.2 2.4 1.7 10.4-.1 14.2-3 .5-1.7-2.3.6-12.7z"/><path class="st11" d="M109.6 21.8s-2.3-.9-4.1-.1c-1.3.6-2.4 1.3-3.1 2.5-.5.8-.8 2-1 3.1-.3 2.5.3 33.2.3 33.2l3.6 2.3.1-12.4s-.7-14.2-.9-18.7c-.1-9.2 5.1-9.9 5.1-9.9zM122.4 33.2c-.7-2.2-4.6-6.9-4.6-6.9-1.1-1.2-2.4-2.7-4.3-4.3 0 0 .4 1.7-.1 3.5-.2.9-2.2 4.9-3 8.4-.9 3.6-.6 7.3-.8 10.7-.1 2.8-2.1 9.4-2 13.8.1 4.9.5 7 .5 7s3.6 2.8 5.2 2.1c3.9-1.9 8.1-5.3 8.1-5.3s.6-15.1 1.2-20.5c.2-2 .4-6.3-.2-8.5z"/><path class="st7" d="M107.6 20.8c-2 1.9-2.2 5.7-2.2 5.7s1.3.2 2.6-.3l.2-.6c-.1-.3 5.1-3.1 4.9-4.3-.2-.7-4.8-1.1-5.5-.5z"/><path class="st12" d="M104.5 7.8c-1.5.9-1 4.5-.9 5.1 0 .5 1.3 2.1 1.3 2.1s1.2-1.9 1.6-4.1c.4-2.2-1.6-3.4-2-3.1zM118.4 12.4c-.5-1.2-2.8-.2-3.8.4-1.5.9-2 5.9-2 5.9.6 1.3 6.8-4 5.8-6.3z"/><path class="st13" d="M106.2 18.8c.2 1.2.5 2.1.5 3.5-.1 1.4 0 1.7.6 2.2.6.4.8 1 2.4.5 1.1-.4 3.4-1.8 3.2-2.3-.6-2.8.1-3.1.9-4.7 1.7-3.5-6.1-1-7.6.8z"/><path class="st14" d="M109.1 21.8c-1.3 0-2 .1-3.1-.6-1.2-.7-1.7-4.2-1.7-5 0-.8.1-3.4.1-3.4s0-1.6.1-2.2c.6-5.4 5.9-7.6 10.2-5.1 5.5 3.1 3 7.4.9 10.9-.3.6-1.9 2.9-2.6 3.5-.6.7-2.6 1.9-3.9 1.9z"/><path class="st12" d="M118.3 10.2c1.1-1.4-.9-3.5-2.5-5-1.4-1.6-3.6-2.1-5.5-2-1 .1-2.1-.2-4.1 1.9-.8.9-2.7 2.9-2.5 3.7.2 1.1.9.7.9.7l7.3-.2 1.9.8v3.3l-.3 1.1s.6.1.8-.1c.8-.6 1.7-.3 1.6.5.4.2 1 1.9 2.1-.3.6-1.3 1.2-2.3.3-4.4z"/><path class="st12" d="M109.6 4.5s-.9 1.2-.4 2.1l3.8 2c.8.4 1.3 1.2 1.4 2l.1.5c.4 1.2-9.7-2.3-9.7-2.3l-.8 1.6V8.2l5.6-3.7z"/><path class="st14" d="M116 13.7c.9.1.4 1.5-.6 3-.1.2-1 1.1-1.3.9-.4-.2 0-1.8 0-2.1.4-1.1 0-2.1 1.9-1.8z"/><path class="st13" d="M115.9 14.1c.8.1.3 1.2-.5 2.6-.1.1-.8.9-1.1.8-.4-.2 0-1.5 0-1.7.3-1.1-.1-1.9 1.6-1.7z"/><path class="st7" d="M112.8 20.7c.2 1-1.5 4.7-4.6 4.8l-.2.7 3.5 3.8s2.2-2.9 2.4-4.4c.2-1.4 0-4.6-1.1-4.9z"/><path class="st4" d="M118.9 14.6c0 1.6-1.3 3.7-3 4.7-1.6.9-3 .4-3-1.2s1.3-3.7 3-4.7c1.6-1 3-.4 3 1.2z"/><path class="st4" d="M116.1 15.9c-.3 0-.5-.2-.6-.5-.1-.4-.1-1 0-1.8.1-2.6.3-7-4-9.2-2.2-1.1-4.4.7-4.4.7-.3.2-.6.2-.9-.1-.2-.3-.2-.6.1-.9.1-.1 2.9-2.3 5.7-.9 5 2.5 4.8 7.6 4.7 10.3 0 .6-.1 1.2 0 1.5.1.3-.1.7-.5.7 0 .2 0 .2-.1.2z"/><path class="st15" d="M116.3 14.5c-1.1.6-2 2.1-2 3.2 0 .2 0 .3.1.5-2 1.2-4.5 2.1-6.1 2.4h-.1v-.1c-.2-.3-.7-.8-1-.8-.2 0-.3.1-.4.3-.2.5.1 1 .5 1.1.2.1.4.1.6.1.2 0 .3 0 .5-.1 1.6-.3 4.2-1.2 6.3-2.5.4.3.9.2 1.6-.1 1.1-.6 2-2.1 2-3.2s-.9-1.5-2-.8z"/><path class="st5" d="m50.3 58.8 52.3 30.5 29.2-16.9v-2.2L79.4 42 50.3 56.7z"/><path class="st25" d="m50.3 56.7 52.3 30.4 29.2-16.9-52.4-30.4z"/><path class="st26" d="M68.5 57.1 78.6 63 93 54.7l-10.1-5.9z"/><path class="st14" d="M83.8 48.1c0 .6-.2 2.3-.5 2.7-.2.4-.1.8-.3 1.2-.4.2-.7-.5-.6-1 .1-.5-1.2-1.7-1.1-2.4.1-1.2 1.8-1.6 2.1-1.6.4-.1.4.3.4 1.1z"/><path class="st27" d="m69.5 57.1 8.9 5c4.3-1.7 7.3-4.6 10-9.1l-9.3-5c-1.9 5.1-5.3 7.5-9.6 9.1z"/><path class="st11" d="M80.2 60.7c.1 0 .1 0 .2-.1s0-.2-.1-.3l-7.2-4c-.1-.1-.2 0-.3.1-.1.1 0 .2.1.3l7.3 4c0-.1 0 0 0 0zM82 59.3c.1 0 .1 0 .2-.1s0-.2-.1-.3L75.2 55c-.1-.1-.2 0-.3.1-.1.1 0 .2.1.3l7 3.9zM83.4 58c.1 0 .1 0 .2-.1s0-.2-.1-.3l-6.9-3.9c-.1-.1-.2 0-.3.1-.1.1 0 .2.1.3l7 3.9c-.1 0 0 0 0 0zM84.7 56.7c.1 0 .1 0 .2-.1s0-.2-.1-.3l-6.9-3.9c-.1-.1-.2 0-.3.1-.1.1 0 .2.1.3l7 3.9c-.1 0-.1 0 0 0z"/><path class="st14" d="M82.5 45.2c.7-.4.8.6 1 1.1.3.5 0 1-.2 1.4-.2.4-2.2 2.9-2.4 2.9-.7-.1-3.3.3-2.5-1.4.3-.7.9-1.5 1.4-1.9 1-.8 2.3-1.8 2.7-2.1z"/><path class="st14" d="m86.5 43.5 1.6 2.5-4.6 1.5-1.6-1.7c.8-1 4.6-2.3 4.6-2.3z"/><path class="st7" d="m86.1 43.3 1.5 2.9-2.3 1.1-1.4-2.8z"/><path class="st14" d="M77.8 52.9c.1-.1.6-1 1.1-1.7.4-.5.8-.9.9-1.1.2-.3.3-.5.5-.8.1-.5-.5-.8-1-.4-.2.3-1.8 3.6-1.8 3.7-.1.2.1.6.3.3z"/><path class="st14" d="M78.1 51.6c.3-.2 1.8-2.5 1.9-2.8.2-.3.3-.5.5-.8.1-.5-1.3.4-1.8.8-.3.4-1.4 2.5-1.3 2.8.2.5.5.3.7 0zM78.6 53.2c.2-.3 1.3-1.9 1.4-2.2.2-.3.3-.5.5-.8.1-.5-.3-.9-.8-.5-.2.3-1.9 3.3-2 3.6-.2.4.3.8.9-.1z"/><path class="st14" d="M80 53.2c.3-.7 1-2.6 1.4-3.3.1-.9-.6-.8-1.2.4-.4.7-1.3 3.1-1.2 3.4.2.5.7.3 1-.5z"/><path class="st9" d="M95.6 39.2c1.3 0 2.1 2.8.5 4.1-1.6 1.3-9.4 3.7-9.4 3.7l-1.8-3.2s9.4-4.7 10.7-4.6z"/><path class="st34" d="M80.4 66.1 94.3 74l10-5.8v1.1l-10.1 5.8-13.8-8z"/><path class="st34" d="m90.5 60.2-10.1 5.9 13.8 8 10.1-5.9-13.8-8z"/><path class="st17" d="m81.4 66.1 12.9 7.3 9-5.2-12.8-7.4z"/><path class="st34" d="m78.3 57.7 12.9 7.4 3.5 8.7-.5.2-13.8-7.9-2.5-8.2z"/><path class="st14" d="M106.5 64.5c-.4 0-1.5.1-2 .1-.6 0-2.2.2-2.1.6.1.5 2.2.4 2.6.5.5.1.9.7 1.4.5.3-.1.9-1.7.1-1.7z"/><path class="st14" d="M102 67.9c.1-.2 1-1.4 2.2-2.3l.7.9s-.1 0-.3.1c-.6.3-1.9 2-2.4 2-.6.1-.4-.3-.2-.7z"/><path class="st14" d="M102.5 69.9c-.1-.1-.2-.3-.2-.5.1-.3.4-.6.5-.9.2-.5 2.1-2.2 2.1-2.2l.6.8c-.2.2-1.7 1.2-1.7 1.2s-1 1.8-1.3 1.6z"/><path class="st14" d="M103.2 70.2c.4-.7 1.5-2.3 2-2.8-.1 0-.6-.1-.8-.3-.2-.2.2-.5.2-.5s-.6-.1-.8-.3.2-.5.2-.5c1.2-1.1 3-1.3 3.4-1.4 1.5-.3 2-.2 2.8-.7.8-.5 1.8-1.8 1.8-1.8l2.1 1.1s-2 2.4-2.6 3.1c-.9 1.1-3.5 2.3-4.8 2.7-.5.2-1 .6-1.5.9-.3.3-.6.4-.7.6-.2.2-.6-.1-.3-.4l1.8-1.8c-.3.2-.6.5-.6.5s-1.6 1.6-1.7 1.9c-.2.2-.6-.1-.5-.3z"/><path class="st27" d="m111.4 62.3-.9 1c.4.9 1.7 1.8 2 1.8.4 0 1.3-1 1.3-1l-2.4-1.8z"/><path class="st9" d="M115.6 41.5c-.5 3.7 1.5 11 1.5 11s-2.5 10.7-1.4 10.4c.6-.2 4.5-4.4 6.1-6.9 1.6-2.5-.2-18.2-2.3-20.1-1.4-1.2-3.4 1.8-3.9 5.6z"/><path class="st11" d="M116.6 37.5c-.5 3.7 2.4 12.6 2.4 12.6s-7.8 11.6-7.9 12.2c-.1.6 1.9 2.5 2.9 2.2.6-.2 7.7-9.6 9.2-12.1 1.6-2.5-.5-16.2-2-18.5-1.5-2.3-4-.1-4.6 3.6z"/></g><circle class="st32" cx="312.7" cy="30" r="30"/><defs><circle id="SVGID_00000055698489433120738180000004372534547771447981_" cx="312.7" cy="30" r="30"/></defs><clipPath id="SVGID_00000124132127123503062080000002807136199000533182_"><use xlink:href="#SVGID_00000055698489433120738180000004372534547771447981_" style="overflow:visible"/></clipPath><g style="clip-path:url(#SVGID_00000124132127123503062080000002807136199000533182_)"><path class="st5" d="M287 88.2v-38l-27.3 8.1v43.6c0 .7.6 1.2 1.2 1.2.1 0 26.1-14.9 26.1-14.9zM333.1 111.3v-38l-27.3 8.1V125c0 .7.6 1.2 1.2 1.2.1 0 26.1-14.9 26.1-14.9z"/><path class="st4" d="m334 68.9-19.3-11.1c-.7-.4-1.5-1.9-1.4-2.6l3.4-21.2c.1-.5.4-.6.9-.3l19.2 10c1.3.8.7 3.5.5 4.7L334 68.9z"/><path class="st4" d="m333.4 69.7-18.7 10.9c-.3.2-.7.2-1 0l-18.9-10.9c-.7-.4-.7-1.4 0-1.8L313.5 57c.3-.2.7-.2 1 0l18.8 11c.7.4.7 1.4.1 1.7z"/><path class="st6" d="M285.5 104.8c.6-.3 1.5-1 1.9-1.9.2-.4-.1-1.6 1.9-1.5 2 .1 2.4 1 2.5 1.4.1.4 1.1 2.1.4 3.1-.7.9-2.6 1.2-4.7 2.6-1.8 1.2-2.3 2-3.4 2.2-1.1.2-2.9-.4-3.2-1.6-.3-1.1.5-1.9 1.1-2.3.6-.4 2.9-1.7 3.5-2z"/><path class="st17" d="m286.3 98.5 4.3-.4c.3 1.1-.6 2.5.6 4.4.7 1.2-4 4.2-4 4.2l-2.4-1.4s3-3.5 1.5-6.8z"/><path class="st8" d="M284.6 75.2c-1.4 3.6.7 24.8.6 25.9-.1 1 2.7 2.7 4 2.4 1.3-.3 3.6-2.3 3.6-2.3s-1.4-19.9-.5-22.5c.8-2.5 28.9-17.8 28.9-17.8l-9.5-7.6-3.9 5.6c.1.1-21.8 12.7-23.2 16.3z"/><path class="st6" d="M289.6 114.6c-.7-.6-.7-1.6 0-2.1 1.8-1.2 3.8-3.2 5.2-4 .9-.5 3.1-2.8 4.2-2.4 1.2.4 2 1.6 2 2.9 0 1.2-.5 1.9-1.1 2.3-.6.5-3.6 2-4.2 2.7-1.2 1.2-2.8 1.8-3.4 1.8-1.2-.1-2-.6-2.7-1.2z"/><path class="st17" d="m295 100.4 4.8-.3s-.8 5.7.9 7.4c1 1-4.4 3.1-4.4 3.1s-2.3-1.5-2.2-1.6c2.7-3.2.9-8.6.9-8.6z"/><path class="st8" d="M295.1 105c0 1.2 2.4 2.3 4.8 1.8 2.4-.4 2.2-2.8 2.2-3.7-.1-1-.4-16.9 1.4-20 1.8-3.1 21.7-10.8 23.4-13.8 1.7-3.1-.4-10.5-.4-10.5-.2-.5-11.1-6.7-11.1-6.7l-.8 11.5s-16.4 12.8-18.2 15.6c-2 2.8-1.3 24.7-1.3 25.8z"/><path class="st9" d="M308.6 24.1c1.2-.8 4.2.8 4.2.8s-8.2 17.7-10.8 18.3c-2.6.6-3.1-3-3.1-3s8.6-15.4 9.7-16.1z"/><path class="st7" d="M316.8 21.8c2.2 1.4 5.3 5.8 5.3 5.8l-3.8 33.8-9.7-4.1s-1.3-23.7-1-26.3c.4-2.7 1.8-6.2 3.9-7.2 2.2-1 3.1-3.4 5.3-2z"/><path class="st10" d="m311 41 1.2-10.4c-.6-1-.8-3.8-.4-4.2.4-.4 2.3-.7 2.3-.7l1.6 2.8-2.2 2.4 1.7 10.4-.1 14.2-3 .5-1.7-2.3.6-12.7z"/><path class="st11" d="M315.1 21.8s-2.3-.9-4.1-.1c-1.3.6-2.4 1.3-3.1 2.5-.5.8-.8 2-1 3.1-.3 2.5.3 33.2.3 33.2l3.6 2.3.1-12.4s-.7-14.2-.9-18.7c-.1-9.2 5.1-9.9 5.1-9.9zM327.9 33.2c-.7-2.2-4.6-6.9-4.6-6.9-1.1-1.2-2.4-2.7-4.3-4.3 0 0 .4 1.7-.1 3.5-.2.9-2.2 4.9-3 8.4-.9 3.6-.6 7.3-.8 10.7-.1 2.8-2.1 9.4-2 13.8.1 4.9.5 7 .5 7s3.6 2.8 5.2 2.1c3.9-1.9 8.1-5.3 8.1-5.3s.6-15.1 1.2-20.5c.2-2 .5-6.3-.2-8.5z"/><path class="st7" d="M313.2 20.8c-2 1.9-2.2 5.7-2.2 5.7s1.3.2 2.6-.3l.2-.6c-.1-.3 5.1-3.1 4.9-4.3-.3-.7-4.9-1.1-5.5-.5z"/><path class="st12" d="M310 7.8c-1.5.9-1 4.5-.9 5.1 0 .5 1.3 2.1 1.3 2.1s1.2-1.9 1.6-4.1c.4-2.2-1.5-3.4-2-3.1zM323.9 12.4c-.5-1.2-2.8-.2-3.8.4-1.5.9-2 5.9-2 5.9.6 1.3 6.8-4 5.8-6.3z"/><path class="st13" d="M311.7 18.8c.2 1.2.5 2.1.5 3.5-.1 1.4 0 1.7.6 2.2.6.4.8 1 2.4.5 1.1-.4 3.4-1.8 3.2-2.3-.6-2.8.1-3.1.9-4.7 1.7-3.5-6.1-1-7.6.8z"/><path class="st14" d="M314.6 21.8c-1.3 0-2 .1-3.1-.6-1.2-.7-1.7-4.2-1.7-5 0-.8.1-3.4.1-3.4s0-1.6.1-2.2c.6-5.4 5.9-7.6 10.2-5.1 5.5 3.1 3 7.4.9 10.9-.3.6-1.9 2.9-2.6 3.5-.6.7-2.6 1.9-3.9 1.9z"/><path class="st12" d="M323.8 10.2c1.1-1.4-.9-3.5-2.5-5-1.4-1.6-3.6-2.1-5.5-2-1 .1-2.1-.2-4.1 1.9-.8.9-2.7 2.9-2.5 3.7.2 1.1.9.7.9.7l7.3-.2 1.9.8v3.3l-.3 1.1s.6.1.8-.1c.8-.6 1.7-.3 1.6.5.4.2 1 1.9 2.1-.3.7-1.3 1.2-2.3.3-4.4z"/><path class="st12" d="M315.2 4.5s-.9 1.2-.4 2.1l3.8 2c.8.4 1.3 1.2 1.4 2l.1.5c.4 1.2-9.7-2.3-9.7-2.3l-.8 1.6V8.2l5.6-3.7z"/><path class="st14" d="M321.5 13.7c.9.1.4 1.5-.6 3-.1.2-1 1.1-1.3.9-.4-.2 0-1.8 0-2.1.4-1.1 0-2.1 1.9-1.8z"/><path class="st13" d="M321.4 14.1c.8.1.3 1.2-.5 2.6-.1.1-.8.9-1.1.8-.4-.2 0-1.5 0-1.7.3-1.1 0-1.9 1.6-1.7z"/><path class="st7" d="M318.3 20.7c.2 1-1.5 4.7-4.6 4.8l-.2.7L317 30s2.2-2.9 2.4-4.4c.2-1.4 0-4.6-1.1-4.9z"/><path class="st4" d="M324.4 14.6c0 1.6-1.3 3.7-3 4.7-1.6.9-3 .4-3-1.2s1.3-3.7 3-4.7 3-.4 3 1.2z"/><path class="st4" d="M321.6 15.9c-.3 0-.5-.2-.6-.5-.1-.4-.1-1 0-1.8.1-2.6.3-7-4-9.2-2.2-1.1-4.4.7-4.4.7-.3.2-.6.2-.9-.1-.2-.3-.2-.6.1-.9.1-.1 2.9-2.3 5.7-.9 5 2.5 4.8 7.6 4.7 10.3 0 .6-.1 1.2 0 1.5.1.3-.1.7-.5.7 0 .2 0 .2-.1.2z"/><path class="st15" d="M321.8 14.5c-1.1.6-2 2.1-2 3.2 0 .2 0 .3.1.5-2 1.2-4.5 2.1-6.1 2.4h-.1v-.1c-.2-.3-.7-.8-1-.8-.2 0-.3.1-.4.3-.2.5.1 1 .5 1.1.2.1.4.1.6.1.2 0 .3 0 .5-.1 1.6-.3 4.2-1.2 6.3-2.5.4.3.9.2 1.6-.1 1.1-.6 2-2.1 2-3.2s-.9-1.5-2-.8z"/><path class="st5" d="m255.8 58.8 52.3 30.5 29.2-16.9v-2.2L285 42l-29.2 14.7z"/><path class="st25" d="m255.8 56.7 52.3 30.4 29.2-16.9L285 39.8z"/><path class="st26" d="m274 57.1 10.2 5.9 14.3-8.3-10.1-5.9z"/><path class="st14" d="M289.3 48.1c0 .6-.2 2.3-.5 2.7-.2.4-.1.8-.3 1.2-.4.2-.7-.5-.6-1 .1-.5-1.2-1.7-1.1-2.4.1-1.2 1.8-1.6 2.1-1.6.4-.1.4.3.4 1.1z"/><path class="st27" d="m275 57.1 8.9 5c4.3-1.7 7.3-4.6 10-9.1l-9.3-5.1c-1.8 5.2-5.3 7.6-9.6 9.2z"/><path class="st11" d="M285.8 60.7c.1 0 .1 0 .2-.1s0-.2-.1-.3l-7.2-4c-.1-.1-.2 0-.3.1-.1.1 0 .2.1.3l7.3 4c-.1-.1-.1 0 0 0zM287.5 59.3c.1 0 .1 0 .2-.1s0-.2-.1-.3l-6.9-3.9c-.1-.1-.2 0-.3.1-.1.1 0 .2.1.3l7 3.9zM288.9 58c.1 0 .1 0 .2-.1s0-.2-.1-.3l-6.9-3.9c-.1-.1-.2 0-.3.1-.1.1 0 .2.1.3l7 3.9c-.1 0 0 0 0 0zM290.2 56.7c.1 0 .1 0 .2-.1s0-.2-.1-.3l-6.9-3.9c-.1-.1-.2 0-.3.1-.1.1 0 .2.1.3l7 3.9c-.1 0 0 0 0 0z"/><path class="st14" d="M288.1 45.2c.7-.4.8.6 1 1.1.3.5 0 1-.2 1.4-.2.4-2.2 2.9-2.4 2.9-.7-.1-3.3.3-2.5-1.4.3-.7.9-1.5 1.4-1.9.9-.8 2.2-1.8 2.7-2.1z"/><path class="st14" d="m292 43.5 1.6 2.5-4.6 1.5-1.6-1.7c.8-1 4.6-2.3 4.6-2.3z"/><path class="st7" d="m291.7 43.3 1.4 2.9-2.3 1.1-1.4-2.8z"/><path class="st14" d="M283.4 52.9c.1-.1.6-1 1.1-1.7.4-.5.8-.9.9-1.1.2-.3.3-.5.5-.8.1-.5-.5-.8-1-.4-.2.3-1.8 3.6-1.8 3.7-.2.2 0 .6.3.3z"/><path class="st14" d="M283.6 51.6c.3-.2 1.8-2.5 1.9-2.8.2-.3.3-.5.5-.8.1-.5-1.3.4-1.8.8-.3.4-1.4 2.5-1.3 2.8.2.5.5.3.7 0zM284.1 53.2c.2-.3 1.3-1.9 1.4-2.2.2-.3.3-.5.5-.8.1-.5-.3-.9-.8-.5-.2.3-1.9 3.3-2 3.6-.1.4.3.8.9-.1z"/><path class="st14" d="M285.5 53.2c.3-.7 1-2.6 1.4-3.3.1-.9-.6-.8-1.2.4-.4.7-1.3 3.1-1.2 3.4.3.5.7.3 1-.5z"/><path class="st9" d="M301.1 39.2c1.3 0 2.1 2.8.5 4.1-1.6 1.3-9.4 3.7-9.4 3.7l-1.8-3.2s9.4-4.7 10.7-4.6z"/><path class="st34" d="m285.9 66.1 13.9 7.9 10.1-5.8-.1 1.1-10 5.8-13.9-8z"/><path class="st34" d="m296 60.2-10.1 5.9 13.8 8 10.1-5.9-13.8-8z"/><path class="st17" d="m287 66.1 12.8 7.3 9-5.2-12.8-7.4z"/><path class="st34" d="m283.8 57.7 12.9 7.4 3.5 8.7-.4.2-13.9-7.9-2.5-8.2z"/><path class="st14" d="M312 64.5c-.4 0-1.5.1-2 .1-.6 0-2.2.2-2.1.6.1.5 2.2.4 2.6.5.5.1.9.7 1.4.5.3-.1.9-1.7.1-1.7z"/><path class="st14" d="M307.6 67.9c.1-.2 1-1.4 2.2-2.3l.7.9s-.1 0-.3.1c-.6.3-1.9 2-2.4 2-.6.1-.4-.3-.2-.7z"/><path class="st14" d="M308.1 69.9c-.1-.1-.2-.3-.2-.5.1-.3.4-.6.5-.9.2-.5 2.1-2.2 2.1-2.2l.6.8c-.2.2-1.7 1.2-1.7 1.2s-1 1.8-1.3 1.6z"/><path class="st14" d="M308.7 70.2c.4-.7 1.5-2.3 2-2.8-.1 0-.6-.1-.8-.3-.2-.2.2-.5.2-.5s-.6-.1-.8-.3c-.2-.2.2-.5.2-.5 1.2-1.1 3-1.3 3.4-1.4 1.5-.3 2-.2 2.8-.7.8-.5 1.8-1.8 1.8-1.8l2.1 1.1s-2 2.4-2.6 3.1c-.9 1.1-3.5 2.3-4.8 2.7-.5.2-1 .6-1.5.9-.3.3-.6.4-.7.6-.2.2-.6-.1-.3-.4l1.8-1.8c-.3.2-.6.5-.6.5s-1.6 1.6-1.7 1.9c-.1.2-.6-.1-.5-.3z"/><path class="st27" d="m316.9 62.3-.9 1c.4.9 1.7 1.8 2 1.8.4 0 1.3-1 1.3-1l-2.4-1.8z"/><path class="st9" d="M321.1 41.5c-.5 3.7 1.5 11 1.5 11s-2.5 10.7-1.4 10.4c.6-.2 4.5-4.4 6.1-6.9 1.6-2.5-.2-18.2-2.3-20.1-1.4-1.2-3.4 1.8-3.9 5.6z"/><path class="st11" d="M322.2 37.5c-.5 3.7 2.4 12.6 2.4 12.6s-7.8 11.6-7.9 12.2c-.1.6 1.9 2.5 2.9 2.2.6-.2 7.7-9.6 9.2-12.1 1.6-2.5-.5-16.2-2-18.5-1.6-2.3-4.1-.1-4.6 3.6z"/></g><path class="st0" d="M134.2 60c0 4.4-3.6 8-8 8h-38c-4.4 0-8-3.6-8-8s3.6-8 8-8h38c4.4 0 8 3.6 8 8z"/><path class="st17" d="M99 59.7v1.1h2.1v1.1H99V63c0 .4 0 .4.3.4h.8c.3 0 .3-.2.4-1.1.2.2.7.4 1.1.5-.1 1.3-.4 1.7-1.3 1.7h-1.1c-1.1 0-1.3-.4-1.3-1.5v-1.1h-1.3c-.2 1-.9 2-2.7 2.7-.2-.3-.5-.7-.8-.9 1.4-.4 2-1 2.2-1.7h-2v-1.1h2.1v-1.1h-.8v-.3c-.4.3-.9.6-1.3.8-.2-.3-.5-.7-.7-.9.6-.2 1.1-.6 1.7-1-.3-.3-.7-.6-1-.8l.8-.6c.3.2.7.5 1 .7.2-.3.5-.6.6-.9h-2v-1h2.5l.8.4c-.4 1-.9 1.9-1.6 2.7H99c-.8-.8-1.4-1.9-1.8-3.1l1.1-.3c.1.4.3.7.5 1.1.3-.3.7-.6.9-.9l.9.6c-.4.4-.9.8-1.3 1.1.1.2.3.3.4.5.4-.3.8-.7 1.1-1.1l.9.6c-.4.4-.9.8-1.3 1.1.5.4 1 .7 1.6.9-.3.2-.6.7-.8 1-.4-.2-.8-.5-1.2-.7v.3h-1zm-1.2 0h-1.2v1.1h1.2v-1.1zM105.9 55.6c-.3.6-.6 1.3-.9 1.9v7h-1.1v-5.3c-.3.3-.5.7-.8.9-.1-.3-.4-.9-.6-1.2.9-.9 1.9-2.3 2.4-3.7l1 .4zm6 1.4v1h-6.4v-1h6.4zm-5.8 4.3h5.2v3.2h-1.2v-.4h-2.9v.4h-1.1v-3.2zm5.1-1.9h-4.9v-.9h4.9v.9zm-4.9.5h4.9v.9h-4.9v-.9zm4.7-3.4h-4.6v-.9h4.6v.9zm-3.7 5.7v1h2.9v-1h-2.9zM118.1 59.3c-.4.3-.8.5-1.2.8h3.6v4.4h-1.2v-.3h-3.4v.3h-1.2v-3.3l-1.5.6c-.1-.3-.5-.7-.7-1 1.3-.4 2.6-1 3.7-1.7h-3.4v-1h3.2v-.9h-2.3v-1h2.3v-1.1h1.2v1.1h2.2v.5c.4-.4.7-.8 1-1.3l1 .5c-.6.8-1.2 1.5-2 2.2h2.3v1h-3.6zm1.2 1.7h-3.4v.6h3.4V61zm0 2.3v-.7h-3.4v.7h3.4zm-2.2-5.1h.5c.4-.3.7-.6 1.1-.9h-1.6v.9z"/><path class="st0" d="M339.7 60c0 4.4-3.6 8-8 8h-38c-4.4 0-8-3.6-8-8s3.6-8 8-8h38c4.4 0 8 3.6 8 8z"/><path class="st17" d="M304.5 59.7v1.1h2.1v1.1h-2.1V63c0 .4 0 .4.3.4h.8c.3 0 .3-.2.4-1.1.2.2.7.4 1.1.5-.1 1.3-.4 1.7-1.3 1.7h-1.1c-1.1 0-1.3-.4-1.3-1.5v-1.1H302c-.2 1-.9 2-2.7 2.7-.2-.3-.5-.7-.8-.9 1.4-.4 2-1 2.2-1.7h-2v-1.1h2.1v-1.1h-.8v-.3c-.4.3-.9.6-1.3.8-.2-.3-.5-.7-.7-.9.6-.2 1.1-.6 1.7-1-.3-.3-.7-.6-1-.8l.8-.6c.3.2.7.5 1 .7.2-.3.5-.6.6-.9h-2v-1H301.9l.8.4c-.4 1-.9 1.9-1.6 2.7h3.6c-.8-.8-1.4-1.9-1.8-3.1l1.1-.3c.1.4.3.7.5 1.1.3-.3.7-.6.9-.9l.9.6c-.4.4-.9.8-1.3 1.1.1.2.3.3.4.5.4-.3.8-.7 1.1-1.1l.9.6c-.4.4-.9.8-1.3 1.1.5.4 1 .7 1.6.9-.3.2-.6.7-.8 1-.4-.2-.8-.5-1.2-.7v.3h-1.2zm-1.2 0h-1.2v1.1h1.2v-1.1zM311.4 55.6c-.3.6-.6 1.3-.9 1.9v7h-1.1v-5.3c-.3.3-.5.7-.8.9-.1-.3-.4-.9-.6-1.2.9-.9 1.9-2.3 2.4-3.7l1 .4zm6 1.4v1H311v-1h6.4zm-5.8 4.3h5.2v3.2h-1.2v-.4h-2.9v.4h-1.1v-3.2zm5.1-1.9h-4.9v-.9h4.9v.9zm-4.9.5h4.9v.9h-4.9v-.9zm4.7-3.4H312v-.9h4.6v.9zm-3.7 5.7v1h2.9v-1h-2.9zM323.6 59.3c-.4.3-.8.5-1.2.8h3.6v4.4h-1.2v-.3h-3.4v.3h-1.2v-3.3l-1.5.6c-.1-.3-.5-.7-.7-1 1.3-.4 2.6-1 3.7-1.7h-3.4v-1h3.2v-.9h-2.3v-1h2.3v-1.1h1.2v1.1h2.2v.5c.4-.4.7-.8 1-1.3l1 .5c-.6.8-1.2 1.5-2 2.2h2.3v1h-3.6zm1.2 1.7h-3.4v.6h3.4V61zm0 2.3v-.7h-3.4v.7h3.4zm-2.2-5.1h.5c.4-.3.7-.6 1.1-.9h-1.6v.9z"/></svg>