<svg id="_レイヤー_2" xmlns="http://www.w3.org/2000/svg" viewBox="0 0 80 80"><defs><style>.cls-2{fill:#1f88ff}</style></defs><g id="contents"><circle cx="40" cy="40" r="40" style="fill:#f2f9fe"/><path class="cls-2" d="M57.38 25.47H22.85c-2.19 0-3.96 1.78-3.96 3.96v21.35c0 2.19 1.78 3.96 3.96 3.96h34.52c2.19 0 3.96-1.78 3.96-3.96V29.43c0-2.19-1.78-3.96-3.96-3.96Zm1.4 25.31c0 .77-.63 1.4-1.4 1.4H22.85c-.77 0-1.4-.63-1.4-1.4V29.43c0-.77.63-1.4 1.4-1.4h34.52c.77 0 1.4.63 1.4 1.4v21.35Z"/><path class="cls-2" d="m53.82 31.94-13.7 8.54-13.7-8.54a1.279 1.279 0 0 0-1.35 2.17l14.38 8.97c.21.13.44.19.68.19s.47-.06.68-.19l14.38-8.97a1.279 1.279 0 0 0-1.35-2.17Z"/></g></svg>