<svg version="1.1" id="_レイヤー_2" xmlns="http://www.w3.org/2000/svg" xmlns:xlink="http://www.w3.org/1999/xlink" x="0" y="0" viewBox="0 0 420 369.2" style="enable-background:new 0 0 420 369.2" xml:space="preserve"><style>.st0{fill:#1f88ff}.st1{fill:#fff}.st2{fill:none;stroke:#1f88ff;stroke-width:10;stroke-miterlimit:10}.st4{fill:#2e3840}.st8{fill:#a5c3d9}.st9{fill:#73a9d1}.st10{fill:#2c345c}.st11{fill:#f2aac2}.st12{fill:#272e52}.st13{fill:#d7d8eb}.st14{fill:#304464}.st15{fill:#e8e6fb}.st17{fill:#ed9bb6}.st19{fill:#b8c8f2}.st22{fill:none;stroke:#1f88ff;stroke-width:10;stroke-miterlimit:10;stroke-dasharray:5.0831,2.0332}</style><path class="st0" d="M0 0h216v40H0z"/><path class="st1" d="M28.3 19.4c-.1.3-.2.6-.4.9h10.8v9.6H36v-.6h-7.7v.6h-2.6V24c-1 1.3-2.1 2.5-3.3 3.4-.4-.5-1.4-1.5-2-2 2.2-1.4 4-3.6 5-6.1h-4.2v-2h8.3v-.9h-6.2v-1.9h6.2v-.9h-7.3v-2H26l-.9-1.5 2.3-.7c.6.6 1.2 1.5 1.4 2.2h-.1 4.8-.2c.4-.6.9-1.5 1.1-2.2l2.9.7c-.4.6-.9 1.1-1.2 1.5h3.7v2h-7.5v.9h6.4v1.9h-6.4v.9h8.4v2H28.3zm.1 2.7v.8h7.7v-.8h-7.7zm7.7 2.2h-7.7v.8h7.7v-.8zm0 3.1v-.8h-7.7v.8h7.7zM50.1 10.2c-.6 1.4-1.3 2.9-2 4.2v15.4h-2.5V18.2c-.6.8-1.2 1.5-1.8 2.1-.2-.6-.9-2-1.4-2.7 2.1-2 4.1-5.1 5.3-8.2l2.4.8zm13.2 3.1v2.1H49.2v-2.1h14.1zm-12.7 9.5h11.5v7h-2.6V29h-6.3v.9h-2.5v-7.1zm11.2-4.2H51v-2h10.8v2zM51 19.7h10.7v2H51v-2zm10.4-7.4H51.3v-2h10.1v2zm-8.3 12.5V27h6.3v-2.2h-6.3zM72.3 25.7h-4.5v1.9h-2.4V10.7h6.9v15zM67.9 13v3.9h2V13h-2zm2 10.3v-4.1h-2v4.1h2zM83 18.2v1.9h2.1v2.3H83v4.8c0 1.3-.2 1.9-1.1 2.3-.9.4-2 .4-3.7.4-.1-.7-.5-1.8-.8-2.5H80c.4 0 .5-.1.5-.4v-4.7h-7.7V20h7.7v-1.9h-7.8v-2.3h5V14h-4.2v-2.3h4.2V9.4h2.6v2.3h4.4V14h-4.4v1.9h5v2.3H83zm-7.3 4.4c1 1.1 2.2 2.5 2.7 3.6l-2.2 1.3c-.4-1-1.5-2.6-2.5-3.7l2-1.2zM98 29l-1.7-2.6c.8-.1 1.5-.2 2-.4 2.8-.7 5-2.7 5-5.9 0-3-1.7-5.3-4.6-5.8-.3 1.9-.7 3.9-1.3 6-1.3 4.4-3.2 7.2-5.6 7.2-2.4 0-4.5-2.7-4.5-6.4 0-5.1 4.4-9.4 10.1-9.4 5.5 0 8.9 3.8 8.9 8.6.1 4.6-2.7 7.9-8.3 8.7zm-6-4.9c.9 0 1.8-1.4 2.7-4.4.5-1.6.9-3.5 1.2-5.3-3.6.7-5.6 4-5.6 6.4-.1 2.2.8 3.3 1.7 3.3zM123.1 22.9c-.2 1.1-.7 2.2-1.3 3.1 2.2.7 4.8 1.1 7.8 1.3-.6.6-1.3 1.7-1.6 2.4-3.2-.3-5.9-.9-8.1-1.8-1.1.8-2.5 1.5-4.3 2-.3-.6-1.1-1.6-1.6-2.2 1.5-.3 2.7-.7 3.6-1.2-1-.7-1.9-1.6-2.6-2.6l2.3-.8c.6.7 1.3 1.3 2.2 1.8.5-.7.9-1.4 1.1-2.1h-4.8V14h5.1v-1.3h-5.3v-2c-.5 1.4-1.1 2.8-1.8 4.1v15h-2.5V19c-.4.5-.7 1-1.1 1.4-.2-.6-1-2-1.4-2.7 1.8-2 3.6-5.1 4.6-8.3l2.5.8-.1.3h13.4v2.3h-5.5v1.3h5v8.8h-5.6zm-4.9-5.3h2.6V16h-2.6v1.6zm2.6 3.4V19.3h-2.6V21h2.6zm5-1.6h-2.4V21h2.5v-1.6zm-2.4-3.4v1.6h2.4V16h-2.4zM137.7 19.5c1.1.8 3.3 2.7 3.9 3.1l-1.5 2.2c-.5-.7-1.5-1.7-2.3-2.6v7.6h-2.5V22c-1 2-2.2 3.9-3.4 5.2-.3-.8-.9-1.9-1.3-2.6 1.6-1.5 3.2-4 4.2-6.3H131v-2.4h4.2v-2.7c-1.3.2-2.5.4-3.7.6-.1-.6-.4-1.5-.7-2 3.2-.5 6.7-1.3 8.8-2.3l1.8 2c-1.1.4-2.4.8-3.7 1.1v3.3h3.8v2.4h-3.8v1.2zm7.4 4.8h-2.6V12h2.6v12.3zm5.3-14.5v16.9c0 1.5-.3 2.2-1.2 2.7-.9.4-2.4.5-4.4.5-.1-.7-.5-2-.9-2.7 1.4.1 2.8.1 3.3.1.4 0 .6-.2.6-.6V9.8h2.6zM172.1 23.3c-.6 1.3-1.5 2.4-2.5 3.4.4.7.9 1 1.5 1s.7-.4.9-2.2c.5.5 1.2.9 1.7 1.2-.4 2.5-1 3.1-2.7 3.1-1.2 0-2.2-.6-3-1.8-1 .7-2.1 1.3-3.3 1.7-.3-.5-.9-1.3-1.4-1.7 1.4-.5 2.6-1.2 3.7-2-.4-1.1-.7-2.3-1-3.7h-2.5c0 .3-.1.6-.1.8 1 .6 2 1.4 2.6 2l-1.4 1.7c-.4-.4-1-1-1.7-1.5-.5 1.7-1.4 3.1-2.9 4.2-.3-.5-.9-1.3-1.5-1.7 1.9-1.3 2.5-3.4 2.7-5.6h-1.4v-1l-.9 1.3c-.2-.7-.7-1.7-1.1-2.6v9.7h-2.3v-8.1c-.5 1.6-1.1 3.1-1.8 4.1-.2-.7-.7-1.6-1.1-2.2 1.1-1.7 2.2-4.8 2.7-7.4H153v-2.4h2.4V9.4h2.3v4.5h2c-.2-.2-.3-.3-.5-.4l1-1.4.4.3c.4-.9.8-2 1.1-2.8l1.9.7c-.6 1.1-1.3 2.3-1.8 3.1.2.2.4.4.5.6.4-.7.8-1.5 1.1-2.1l1.5.7V9.4h2.3V13l.6-.9.4.3c.4-.9.8-2 1.1-2.8l2 .7c-.6 1.1-1.3 2.3-1.8 3.1l.6.6c.4-.7.8-1.5 1.1-2.1l1.8.9c-.9 1.4-1.9 3-2.9 4.3l1.3-.1c-.1-.3-.2-.6-.4-.9l1.5-.5c.5 1 1 2.4 1.1 3.3l-1.6.7c0-.2-.1-.6-.2-.9l-1.6.2c.6.4 1.3 1 1.7 1.4l-.4.4h1.7v2H170l2.1.6zm-6.6-2.8c0-.5-.1-.9-.2-1.4l-1.5.6c0-.2 0-.4-.1-.7-1.4.2-2.8.3-4 .5l-.4-1.9h.7c.4-.6.9-1.2 1.3-1.9-.4-.5-1-1.1-1.6-1.6v2.3h-2v.9c.5.7 1.5 2.4 2 3.3h5.8zm-1.1-4.7c.4.7.7 1.7.9 2.5-.2-1.6-.3-3.3-.3-5.1-.9 1.4-1.9 2.9-2.9 4.1l1.2-.1c-.1-.4-.2-.7-.4-1l1.5-.4zm3.5 1.4c.4-.5.7-1 1.1-1.6-.5-.6-1.1-1.2-1.8-1.8 0 1.2.1 2.3.2 3.4h.5zm1.7 3.3c-.3-.3-.7-.6-1.1-.8l1-.9c-.7.1-1.3.2-1.9.2l-.1-.6.3 2.1h1.8zm-1.5 2c.2.7.3 1.4.5 2 .5-.6.9-1.3 1.3-2h-1.8zM183.2 10.8c1.1 1.6 2.2 3.7 2.7 5.1l-2.4 1c-.1-.4-.2-.7-.4-1.2-2.9.2-5.9.4-8.1.5l-.2-2.5h1.7c.6-1.4 1.2-3.1 1.6-4.4l2.7.5c-.5 1.3-1.1 2.6-1.6 3.8l2.9-.1c-.3-.6-.7-1.2-1-1.8l2.1-.9zm1.1 16.5c0 1.1-.2 1.8-.9 2.2-.7.4-1.8.4-3.1.4-.1-.7-.5-1.7-.8-2.3h1.9c.3 0 .4-.1.4-.3v-1.5h-3.3V30H176V17.3h8.3v10zm-5.9-7.9v1.1h3.3v-1.1h-3.3zm3.3 4.4v-1.3h-3.3v1.3h3.3zm7.5-4.6c-2.6 0-3.2-.8-3.2-3.2V9.4h2.6v3.1c1.5-.6 2.9-1.3 4-1.8l1.7 1.9c-1.7.8-3.7 1.5-5.6 2.1V16c0 .8.1.9 1 .9h2.4c.7 0 .9-.3.9-2.2.5.4 1.6.8 2.3 1-.3 2.8-1 3.6-3 3.6h-3.1zm3 8.3c.7 0 .9-.4 1-2.6.6.4 1.6.8 2.3 1-.3 3.1-.9 4-3.1 4h-3.1c-2.6 0-3.2-.7-3.2-3.2v-6.9h2.6v3c1.6-.6 3.1-1.4 4.1-2.1l1.7 1.9c-1.7.9-3.9 1.7-5.9 2.3v1.8c0 .8.2.9 1 .9h2.6z"/><path class="st0" d="m113.9 162.9-1.2 25.8-20.6-11.8z"/><path class="st2" d="m67.4 244.2 1.3-2.2"/><path style="fill:none;stroke:#1f88ff;stroke-width:10;stroke-miterlimit:10;stroke-dasharray:5.0506,2.0202" d="m69.7 240.3 31.3-54.2"/><path class="st2" d="m101.5 185.2 1.3-2.2"/><path class="st0" d="M130.2 183.1c0 2.3-.2 5.7-1.5 7.9-.3-.3-1.1-.8-1.4-.9 1.1-2 1.2-4.9 1.2-7v-3.5h5V178h1.7v1.6h5.1v1.6h-10.1v1.9zm-.3 6c.6-1.1.9-2.7 1-4.2l1.5.3c-.2 1.6-.4 3.5-1 4.6l-1.5-.7zm6.3.2c.4 0 .5-.3.6-2.3.4.3 1 .6 1.5.7-.2 2.4-.6 3.1-1.9 3.1h-1.6c-1.5 0-1.8-.5-1.8-2v-4.9h1.7v4.9c0 .5.1.6.4.6h1.1zm.1-4.8c-.7-.7-2.1-1.6-3.3-2.2l1.1-1.1c1.1.5 2.6 1.4 3.4 2l-1.2 1.3zm2.5 0c.8 1.5 1.6 3.3 1.9 4.6l-1.6.7c-.2-1.2-.9-3.2-1.7-4.7l1.4-.6zM149.5 180.4c-.2.4-.5.7-.7.9 1.5 1.7 3.7 3 5.8 3.6-.4.4-.7 1-1 1.4-.9-.4-1.9-.9-2.9-1.5v.6h-5.6v-.7c-.9.6-1.9 1.1-3 1.6-.2-.4-.6-.9-.9-1.3 2.4-.9 4.6-2.5 5.7-4h.8c-.3-.2-.5-.4-.7-.4l.3-.3h-1.7c.2.4.5.8.6 1.2l-1.5.5c-.1-.4-.4-1.1-.8-1.7h-.1c-.4.7-.8 1.2-1.3 1.7-.3-.3-1-.7-1.4-.9.9-.8 1.7-2.2 2.2-3.5l1.6.4c-.1.3-.2.6-.4.9h3v1.1c.6-.7 1.1-1.5 1.4-2.4l1.6.4c-.1.3-.2.6-.4.9h3.9v1.4h-2c.3.4.5.8.7 1.1l-1.5.5c-.2-.4-.6-1.1-1-1.7h-.7zm-5.7 6.1h8.3v4.5h-1.7v-.3h-5.1v.4h-1.6v-4.6zm1.6 1.4v1.3h5.1v-1.3h-5.1zm4.3-3.7c-.7-.5-1.3-1.1-1.8-1.6-.4.5-1.1 1.1-1.7 1.6h3.5z"/><path class="st4" d="M83.8 62.2v1c.7-.1 1.3-.2 1.9-.4v.7c-.5.1-1.2.2-1.9.3v1.5c.7-.2 1.4-.3 2-.3 1.3 0 2.3.7 2.3 1.8s-.7 1.8-1.9 2.1c-.5.1-.9.1-1.2.2l-.3-.7c.3 0 .7 0 1.1-.1.8-.2 1.5-.6 1.5-1.4 0-.8-.7-1.2-1.5-1.2-.7 0-1.3.1-2 .4v2c0 .8-.3 1.1-.8 1.1-.7 0-1.9-.7-1.9-1.5 0-.7.9-1.5 2-2V64h-1.9v-.7c.5.1.8.1 1.2.1h.7v-1.6h.8s0 .2-.1.4zm-1 6.1c.2 0 .3-.1.3-.4v-1.6c-.7.3-1.3.9-1.3 1.3.1.4.7.7 1 .7zm6-4.4-.4.6c-.4-.4-1.4-1-2-1.4l.3-.5c.6.4 1.6 1 2.1 1.3zM93.4 63.2h-2.8v1.3H90v-1.7h3.4v-.5h-2.9v-.5H97v.5h-3v.5h3.5v1.7h-.6v-1.3H94v2.1h-.6v-2.1zm3.2 5.7c.5 0 .6-.2.6-1.1.2.1.4.2.6.2-.1 1.1-.3 1.4-1.2 1.4h-2.1c-1 0-1.3-.2-1.3-.9v-.3h-2v.5h-.6v-3.1h6.1v2.7H94v.3c0 .3.1.4.7.4h1.9zm-5.8-4.3h2.1v.4h-2.1v-.4zm2.1-.5H91v-.4h1.9v.4zm-1.6 2v.6h2v-.6h-2zm2 1.6v-.6h-2v.6h2zm2.8-1.6H94v.6h2.1v-.6zm0 1.6v-.6H94v.6h2.1zm.3-4v.4h-1.9v-.4h1.9zm-1.9.9h2.1v.4h-2.1v-.4zM98.6 62.8h3.3v.5h-3.3v-.5zm3.1 6.3h-2.1v.4H99v-3h2.7v2.6zm-.1-4.5H99V64h2.6v.6zm-2.6.7h2.6v.5H99v-.5zm2.6-3.2h-2.5v-.5h2.5v.5zm-2 4.9v1.5h1.5V67h-1.5zm5.2-2.5V66h1.7v3.4h-.7V69h-2.6v.5h-.6V66h1.6v-1.5H102v-.6h2.1v-1.4c-.6.1-1.2.1-1.7.2 0-.2-.1-.4-.2-.6 1.4-.1 3-.4 3.9-.6l.5.5c-.5.2-1.1.3-1.8.4v1.5h2.1v.6h-2.1zm1 2.1h-2.6v1.8h2.6v-1.8zM111.4 62.1c0 .2-.1.4-.1.7 1.1-.1 2.2-.2 3.2-.4v.7c-.9.2-2.1.3-3.2.3 0 .4-.1.7-.1 1.1.5-.1 1.1-.2 1.5-.2h.3v-.1c0-.1.1-.4.1-.5l.7.2c-.1.1-.1.4-.2.5 1.1.3 1.8 1.1 1.8 2.1 0 1.3-.9 2.4-2.9 2.7l-.4-.6c1.6-.2 2.6-1 2.6-2.2 0-.7-.5-1.3-1.3-1.5-.5 1.3-1.2 2.3-2 2.9.1.3.1.5.2.7l-.6.2c-.1-.2-.1-.3-.1-.5-.5.3-1 .5-1.5.5-.6 0-1.1-.4-1.1-1.1 0-1.2 1-2.3 2.3-2.9 0-.5.1-.9.1-1.3h-.5c-.4 0-1.1 0-1.5-.1v-.7c.3.1 1.1.1 1.5.1h.6c0-.3.1-.5.1-.7v-.4h.8c-.3.2-.3.4-.3.5zm-2 6c.4 0 .8-.2 1.2-.5-.1-.6-.2-1.4-.2-2v-.2c-.9.5-1.5 1.4-1.5 2.1 0 .4.1.6.5.6zm1.8-1c.6-.6 1.2-1.3 1.5-2.3h-.2c-.6 0-1.1.1-1.5.3v.4c0 .6.1 1.1.2 1.6zM118.8 64.2c.4-.9 1.3-2 2.4-2 1.2 0 2.1 1.2 2.1 3.1 0 2.5-1.6 3.6-3.8 4l-.4-.6c2-.3 3.5-1.1 3.5-3.3 0-1.4-.5-2.4-1.4-2.4-1.1 0-2.2 1.6-2.3 2.8v1.1l-.7.1c0-.3-.1-.8-.1-1.4 0-.9.2-2.2.3-2.9 0-.3.1-.5.1-.8h.8c-.2.5-.4 1.7-.5 2.3zM128.9 62.4c-.1.3-.1.8-.2 1.3.4 0 .8-.1 1-.1.8 0 1.5.3 1.5 1.5 0 1.1-.2 2.5-.5 3.2-.3.6-.7.7-1.3.7-.4 0-.8-.1-1.1-.1l-.1-.8c.4.1.8.2 1.1.2.3 0 .6-.1.8-.5.3-.6.4-1.8.4-2.8 0-.8-.4-1-1-1-.2 0-.6 0-1 .1-.3 1.3-.9 3.3-1.9 4.9l-.7-.3c.9-1.2 1.6-3.3 1.9-4.5-.5 0-.9.1-1.1.1-.2 0-.6.1-.8.1l-.1-.8h.8c.3 0 .8-.1 1.4-.1.1-.6.2-1.4.2-2l.8.1c0 .4 0 .6-.1.8zm4.9 3.7-.7.3c-.3-.9-1-2.5-1.6-3.2l.7-.3c.5.7 1.3 2.3 1.6 3.2zm-.8-3.3-.5.2c-.2-.4-.5-.9-.7-1.3l.5-.2c.2.4.5.9.7 1.3zm1-.4-.5.2c-.2-.4-.5-.9-.7-1.2l.5-.2c.2.3.5.9.7 1.2zM138.2 64.5c.8-.5 1.8-1 2.3-1.3.3-.2.5-.3.6-.4l.4.6c-.2.1-.4.2-.7.4-.6.3-1.9.9-2.7 1.5-.8.5-1.3 1.1-1.3 1.8s.7 1.2 2.1 1.2c1 0 2.2-.1 2.9-.3v.8c-.7.1-1.7.2-2.8.2-1.7 0-2.9-.5-2.9-1.9 0-.9.6-1.7 1.6-2.3-.4-.7-.9-1.8-1.3-2.8l.7-.3c.2 1.1.7 2.1 1.1 2.8zM148.2 64.5c-1 0-1.9.3-2.5.5-.3.1-.5.2-.8.3l-.2-.8c.3 0 .6-.1.8-.1.6-.1 1.7-.4 2.7-.4 1.3 0 2.2.7 2.2 2 0 2-1.8 3.1-4.1 3.4l-.4-.7c2.2-.3 3.7-1.1 3.7-2.7.1-.9-.5-1.5-1.4-1.5zm1.5-2.3-.1.7c-1-.1-2.8-.2-3.8-.4l.1-.7c1 .2 3 .4 3.8.4zM154.3 67.2c0 .7.7 1.2 2.1 1.2 1.2 0 2.4-.1 3.1-.4v.8c-.6.2-1.8.3-3.1.3-1.8 0-2.9-.6-2.9-1.7 0-.5.1-.9.2-1.3l.7.1c0 .4-.1.7-.1 1zm2.2-4.5c.9 0 1.8-.1 2.4-.1v.7c-.6 0-1.6.1-2.4.1-.9 0-1.7 0-2.4-.1v-.7c.7.1 1.5.1 2.4.1zm3.5.1-.5.2c-.2-.4-.5-.9-.7-1.3l.5-.2c.1.4.5 1 .7 1.3zm1-.3-.5.2c-.2-.4-.5-.9-.7-1.2l.5-.2c.2.2.5.8.7 1.2zM165.6 61.8l.8-.1c.1.4.2 1 .4 1.5.6-.1 1.4-.2 2-.4l.1.7c-.5.2-1.3.3-1.9.4.3.7.7 1.4 1 1.8.1.2.3.3.4.5l-.4.5c-.4-.1-1.5-.2-2.2-.3l.1-.6c.5 0 1.2.1 1.5.1-.3-.5-.8-1.3-1.1-2.1-1.1.1-2.4.1-3.8 0v-.7c1.3.2 2.6.2 3.6.1-.1-.3-.2-.6-.3-.8 0-.1-.1-.4-.2-.6zm-2.1 5.5c0 .9.8 1.2 2.1 1.2.9 0 1.7-.1 2.3-.2v.7c-.6.1-1.3.2-2.3.2-1.7 0-2.8-.6-2.8-1.8 0-.5.2-1 .4-1.5l.7.2c-.2.4-.4.8-.4 1.2zm5.4-4.7-.5.2c-.2-.4-.5-.9-.7-1.3l.5-.2c.2.4.5 1 .7 1.3zm1-.3-.5.2c-.2-.4-.5-.9-.7-1.3l.5-.2c.2.4.5.9.7 1.3zM172.1 63.4c0 .6 0 1.4.1 2.1.1 1.5.6 2.5 1.2 2.5.5 0 .9-.9 1.1-1.8l.6.6c-.5 1.5-1.1 2.1-1.7 2.1-.9 0-1.7-.8-1.9-3.2-.1-.8-.1-1.9-.1-2.4 0-.2 0-.6-.1-.8h.9c0 .2-.1.7-.1.9zm6.4 3.8-.7.3c-.2-1.6-.7-3.5-1.6-4.5l.7-.2c.8 1 1.5 2.9 1.6 4.4zM184.3 62.3v.5c.8 0 1.6-.1 2.4-.2v.7c-.7.1-1.6.2-2.4.2v1.3c.9 0 1.7-.1 2.5-.2v.7c-.8.1-1.6.2-2.5.2 0 .5 0 1 .1 1.4 1.2.3 2.1 1 2.6 1.4l-.4.6c-.5-.5-1.3-1-2.2-1.4v.6c0 .6-.4 1.3-1.6 1.3-1.3 0-2-.5-2-1.3s.8-1.4 2.1-1.4c.3 0 .5 0 .8.1v-1.2h-.5c-.6 0-1.6-.1-2.3-.1v-.7c.6.1 1.7.2 2.3.2h.5V63.8h-.4c-.6 0-1.7-.1-2.3-.2v-.7c.6.1 1.7.2 2.3.2h.4V62h.8c-.2-.2-.2 0-.2.3zm-1.5 6.3c.5 0 1-.2 1-.8v-.6c-.3-.1-.6-.1-.9-.1-.9 0-1.3.3-1.3.7s.3.8 1.2.8zM193.8 62.2v.6h2.7v.7h-2.7V65c.2.3.3.7.3 1.2 0 1.2-.6 2.6-2.7 3.2l-.6-.6c1.2-.3 2-.8 2.4-1.6-.2.2-.5.2-.8.2-.8 0-1.5-.5-1.5-1.5 0-.9.7-1.6 1.6-1.6.2 0 .4 0 .6.1v-.9c-1.4 0-2.9.1-4 .2V63c1 0 2.7-.1 4-.1v-.6c0-.2 0-.5-.1-.6h.8v.5zm-1.3 4.5c.5 0 .9-.4.8-1.3-.1-.4-.4-.6-.8-.6-.5 0-.9.4-.9 1s.4.9.9.9zM200.3 68c0 .8-.6 1.4-1.4 1.4-.7 0-1.4-.6-1.4-1.4 0-.8.6-1.4 1.4-1.4.8 0 1.4.6 1.4 1.4zm-.4 0c0-.5-.4-.9-.9-.9s-.9.4-.9.9.4.9.9.9.9-.4.9-.9zM105.9 78.1c-.1-.3-.4-.9-.7-1.4v4.7h-.7V77c-.3 1-.7 2-1.1 2.6-.1-.2-.2-.5-.4-.6.6-.7 1.2-2.2 1.4-3.4h-1.2V75h1.3v-1.7h.7V75h1.1v.6h-1.1v.3c.2.3 1 1.4 1.1 1.7l-.4.5zm3.7-.3c.5 1.1 1.2 2.1 1.9 2.7-.2.1-.4.3-.5.5-.7-.6-1.4-1.7-1.8-2.8v3.3h-.7v-3.2c-.5 1.1-1.4 2.2-2.2 2.8-.1-.2-.3-.4-.5-.5.9-.6 1.7-1.7 2.3-2.8h-1.8v-.6h2.1v-1.6h-1.1c-.2.5-.4 1-.6 1.3-.1-.1-.4-.3-.5-.3.5-.7.8-1.8.9-2.9l.6.1c-.1.4-.1.8-.2 1.2h.9v-1.7h.7V75h1.8v.6h-1.8v1.6h2.1v.6h-1.6zM117.6 75.6c.2 3 .9 5.2 1.8 5.2.2 0 .4-.5.4-1.7.2.2.4.3.6.4-.1 1.6-.4 2-1.1 2-1.5 0-2.2-2.6-2.4-5.9h-4.6V75h4.6v-1.6h.7V75h2.7v.6h-2.7zm-2.8 4.4c.6-.1 1.3-.3 1.9-.4l.1.6c-1.5.4-3.2.7-4.3 1l-.2-.7c.5-.1 1.2-.2 1.9-.4v-2.6h-1.6v-.6h3.9v.6h-1.7V80zm4.6-5.2c-.3-.3-.8-.8-1.3-1.1l.5-.4c.5.3 1 .8 1.3 1.1l-.5.4zM125.5 73.3c.9 1.3 2.5 2.5 3.9 3.1-.2.2-.3.4-.4.6-1.4-.7-3-1.9-3.8-3-.7 1.1-2.2 2.3-3.7 3.1-.1-.2-.2-.4-.4-.5 1.5-.7 3-2 3.7-3.2h.7zm-4 4.5h7.4v.6h-4.2c-.3.7-.7 1.4-1.1 2.1 1.1 0 2.4-.1 3.6-.1-.4-.4-.8-.9-1.2-1.2l.6-.3c.8.7 1.7 1.7 2.1 2.4l-.6.4c-.1-.2-.2-.4-.4-.6-2.2.1-4.5.2-6.1.3l-.1-.7h1.3c.3-.6.7-1.4 1-2.1h-2.4v-.8zm5.8-1.7v.6H123v-.6h4.3zM133.4 78.9c-.2-.3-.7-.8-1.1-1.1v3.7h-.7V78c-.4.4-.9.8-1.4 1.1-.1-.2-.2-.5-.4-.6 1.1-.6 2.2-1.8 2.8-3h-2.5V75h1.4v-1.7h.7V75h.9l.4.3c-.3.7-.7 1.4-1.2 2 .4.3 1.2 1 1.4 1.2l-.3.4zm5 1.7v.7h-5v-.7h2.3v-3.7h-1.9v-.6h1.9v-2.9h.7v2.9h1.9v.6h-1.9v3.7h2zM147.3 77.4c0 2.2-1.8 4.1-4.1 4.1s-4.1-1.8-4.1-4.1 1.8-4.1 4.1-4.1 4.1 1.8 4.1 4.1zm-7.5 0c0 1.9 1.5 3.4 3.4 3.4s3.4-1.5 3.4-3.4-1.5-3.4-3.4-3.4-3.4 1.5-3.4 3.4zM156.3 77.4c0 2.2-1.8 4.1-4.1 4.1s-4.1-1.8-4.1-4.1 1.8-4.1 4.1-4.1 4.1 1.8 4.1 4.1zm-7.5 0c0 1.9 1.5 3.4 3.4 3.4s3.4-1.5 3.4-3.4-1.5-3.4-3.4-3.4-3.4 1.5-3.4 3.4zM158.2 74.8c.6-.1 2.3-.2 3.9-.4 1-.1 1.8-.1 2.4-.2v.8c-.5 0-1.3 0-1.8.1-1.3.4-2.1 1.8-2.1 2.9 0 1.8 1.6 2.3 3.1 2.4l-.3.7c-1.7-.1-3.6-1-3.6-3 0-1.4.9-2.5 1.7-3-1 .1-3.3.3-4.2.5l-.1-.8c.6.1.9.1 1 0zm5.8 2.6-.5.2c-.2-.4-.5-.9-.7-1.3l.5-.2c.2.3.6.9.7 1.3zm1.1-.4-.5.2c-.2-.4-.5-.9-.8-1.3l.4-.2c.3.4.7.9.9 1.3zM171.3 74.2v.6h2.7v.7h-2.7V77c.2.3.3.7.3 1.2 0 1.2-.6 2.6-2.7 3.2l-.6-.6c1.2-.3 2-.8 2.4-1.6-.2.2-.5.2-.8.2-.8 0-1.5-.5-1.5-1.5 0-.9.7-1.6 1.6-1.6.2 0 .4 0 .6.1v-.9c-1.4 0-2.9.1-4 .2V75c1 0 2.7-.1 4-.1v-.6c0-.2 0-.5-.1-.6h.8v.5zm-1.3 4.5c.5 0 .9-.4.8-1.3-.1-.4-.4-.6-.8-.6-.5 0-.9.4-.9 1s.4.9.9.9zM177.8 80c0 .8-.6 1.4-1.4 1.4-.7 0-1.4-.6-1.4-1.4 0-.8.6-1.4 1.4-1.4.8 0 1.4.6 1.4 1.4zm-.4 0c0-.5-.4-.9-.9-.9s-.9.4-.9.9.4.9.9.9.9-.4.9-.9zM200.1 130.4c0 .7-.2 1.1-.7 1.3-.5.2-1.5.2-2.8.2 0-.3-.2-.8-.4-1.1h2.4c.3 0 .4-.1.4-.4v-8.5h-4.3c0 .6-.1 1.3-.3 1.9 1.5 1.3 3.3 3.1 4.2 4.2l-.9.7c-.8-1-2.3-2.5-3.6-3.8-.6 1.4-1.6 2.8-3.6 4-.2-.2-.5-.6-.8-.8 3.3-1.8 3.8-4.2 3.9-6.2h-4.3V132h-1.1v-11.2h5.4v-2.6h1.1v2.6h5.4v9.6zM203.9 126.9c-.2 1.4-.6 2.8-1 3.8l-.8-.4c.5-.9.8-2.3.9-3.6l.9.2zm1.6-1.3v6.3h-1v-6.3l-2.4.1-.1-1h1l.9-1.2c-.4-.7-1.2-1.5-1.9-2.2l.6-.7.4.4c.5-.9 1-2 1.3-2.8l1 .4c-.5 1-1.2 2.2-1.7 3.1.3.3.6.7.8 1 .6-.9 1.2-1.9 1.6-2.7l.9.4c-.9 1.4-2 3.1-3 4.3l2.2-.1c-.2-.4-.4-.9-.7-1.3l.8-.3c.6 1 1.2 2.2 1.5 3.1l-.9.4c-.1-.3-.2-.6-.3-1l-1 .1zm1.4 1.1c.4.8.7 1.9.8 2.7l-.9.3c-.1-.7-.4-1.8-.8-2.7l.9-.3zm3.9-.2c-.5 2.4-1.7 3.9-3.2 4.8-.1-.2-.5-.6-.7-.8 1.2-.6 2.2-1.8 2.7-3.3h-2v-1h2.6l.6.3zm5-.2c-.7.6-1.6 1.4-2.3 1.9.6.9 1.5 1.7 2.6 2.2-.2.2-.5.6-.7.9-1.6-.8-2.6-2.2-3.3-3.6v3.1c0 .6-.1.8-.5 1-.4.1-1 .2-1.9.2 0-.3-.2-.7-.3-1h1.4c.2 0 .2 0 .2-.2V125h-3v-5.3h2.5c.2-.5.5-1.1.6-1.6l1.2.2c-.2.5-.5.9-.7 1.3h3.5v5.3H212v.2c.2.7.5 1.5.9 2.2.7-.5 1.4-1.3 1.9-1.8l1 .8zm-6.6-4.4h5v-1.3h-5v1.3zm0 2.2h5v-1.3h-5v1.3zM220.1 128.1c0 1.2 1.2 1.9 3.6 1.9 2.1 0 4-.2 5.1-.6v1.3c-1.1.3-3 .5-5.1.5-3 0-4.8-1-4.8-2.9 0-.8.2-1.5.3-2.1l1.2.1c-.2.7-.3 1.3-.3 1.8zm3.7-7.5c1.4 0 3-.1 4-.2v1.2c-1 .1-2.7.2-4 .2-1.5 0-2.8-.1-4-.2v-1.2c1.1.1 2.5.2 4 .2zm5.7.2-.8.4c-.3-.6-.8-1.5-1.2-2.1l.8-.3c.3.5.9 1.4 1.2 2zm1.7-.6-.8.4c-.3-.6-.8-1.5-1.2-2.1l.8-.3c.3.5.9 1.4 1.2 2zM238.2 123.6c1.4-.9 3-1.6 3.9-2.1.4-.3.8-.5 1.1-.7l.7 1.1c-.3.2-.7.4-1.2.6-1 .5-3.1 1.5-4.6 2.5-1.4.9-2.2 1.9-2.2 3 0 1.2 1.2 2 3.6 2 1.6 0 3.6-.2 4.8-.5v1.3c-1.1.2-2.9.4-4.7.4-2.8 0-4.9-.8-4.9-3.1 0-1.5 1-2.8 2.6-3.9-.7-1.2-1.5-3-2.2-4.6l1.2-.5c.5 1.6 1.2 3.3 1.9 4.5zM250.3 120.5c-.3 1.4-.8 4.1-.8 5.7 0 .7 0 1.4.1 2.1.3-.7.6-1.6.9-2.2l.6.5c-.4 1.1-.9 2.7-1.1 3.4 0 .2-.1.5-.1.7v.5l-1.1.1c-.3-1.1-.6-2.8-.6-4.8 0-2.2.5-4.8.7-6 .1-.3.1-.7.1-1.1l1.3.1c.2.2 0 .7 0 1zm3.5 7.6c0 .7.5 1.3 2.5 1.3 1.4 0 2.5-.1 3.7-.4v1.3c-.9.2-2.2.3-3.8.3-2.5 0-3.6-.8-3.6-2.2 0-.5.1-1 .3-1.8l1.1.1c-.1.6-.2 1-.2 1.4zm5.8-7.5v1.2c-1.6.2-4.5.2-6.2 0v-1.2c1.7.3 4.7.3 6.2 0zM267.8 123.7c1.3-.8 2.7-1.5 3.5-1.9.4-.3.8-.5 1.1-.7l.6 1.1c-.3.2-.7.4-1.1.6-1 .5-2.7 1.3-4.2 2.3-1.4.9-2.2 1.9-2.2 3 0 1.2 1.2 2 3.6 2 1.6 0 3.6-.2 4.8-.5v1.3c-1.1.2-2.9.4-4.7.4-2.8 0-4.8-.8-4.8-3.1 0-1.6 1-2.8 2.6-3.9-.7-1.2-1.5-3-2.2-4.6l1.2-.5c.4 1.7 1.2 3.4 1.8 4.5zm6.7-2.5-.8.4c-.3-.6-.8-1.5-1.2-2.1l.8-.3c.3.5.8 1.4 1.2 2zm1.6-.6-.8.4c-.3-.6-.8-1.5-1.3-2.1l.8-.3c.5.5 1.1 1.4 1.3 2zM284.6 131.2l-.7-1.1c.5 0 .9-.1 1.3-.2 1.9-.4 3.8-1.9 3.8-4.5 0-2.3-1.5-4.1-4-4.3-.2 1.4-.5 2.9-.9 4.3-.9 3.1-2.1 4.7-3.5 4.7-1.3 0-2.7-1.5-2.7-4 0-3.3 2.9-6.1 6.6-6.1 3.5 0 5.7 2.5 5.7 5.5 0 3.2-2.1 5.3-5.6 5.7zm-4-2.5c.7 0 1.5-1 2.3-3.5.4-1.2.7-2.7.8-4-2.9.4-4.6 2.8-4.6 4.9 0 1.8.8 2.6 1.5 2.6zM300.8 123.3c1.3 1.2 3.4 2.2 5.3 2.7-.3.2-.6.6-.8.9-.5-.1-.9-.3-1.4-.5v5.4h-1.1v-.4h-7.3v.5h-1.1v-5.5c-.5.3-1.1.5-1.6.7-.1-.3-.4-.7-.7-.9 1.8-.6 3.8-1.7 5.2-2.9h-4.8v-1h3.2c-.2-.6-.6-1.3-1.1-1.8l.9-.4c-.7 0-1.4.1-2 .1 0-.2-.1-.6-.2-.9 3.6-.1 7.8-.5 10.2-1l.8.8c-1.3.3-2.9.5-4.7.6v2.5h2.1l-.4-.2c.4-.6 1-1.6 1.2-2.3l1.2.3c-.4.8-1 1.6-1.4 2.1h3.4v1h-4.9zm2.6 2.9c-1.4-.7-2.8-1.7-3.8-2.7v2.4h-1.1v-2.4c-1 1-2.3 1.9-3.6 2.7h8.5zm-4.9.9h-3v1.3h3v-1.3zm-3 3.4h3v-1.4h-3v1.4zm3-10.5c-.9.1-1.9.1-2.8.2.5.6 1 1.4 1.2 2l-.6.2h2.2V120zm4.3 7.1h-3.2v1.3h3.2v-1.3zm0 3.4v-1.4h-3.2v1.4h3.2zM311.8 125.4c-.2.4-.3.9-.5 1.3h7.5s0 .4-.1.5c-.4 2.6-.7 3.8-1.3 4.3-.3.3-.7.4-1.3.4-.5 0-1.5 0-2.5-.1 0-.3-.1-.8-.4-1 1.1.1 2.1.1 2.6.1.3 0 .5 0 .7-.1.4-.3.7-1.2 1-3H311c-.1.4-.3.7-.4 1l-1.2-.2c.4-.8.8-2.1 1.2-3.2h-3.2v-1h13.4v1h-9zm7.1-2.2h-9.5v-4.4h9.5v4.4zm-1.1-3.4h-7.3v2.4h7.3v-2.4zM328 120.6c1.5-.1 3.2-.2 4.6-.5v1.1c-1.5.2-3.3.4-5 .4-.3.8-.8 1.6-1.4 2.3.6-.4 1.4-.6 2.1-.6 1 0 1.8.5 2 1.3 1-.5 1.9-.9 2.7-1.2.5-.2.8-.4 1.2-.6l.5 1.1c-.4.1-.9.3-1.3.5-.8.3-1.9.8-3 1.3v2.9h-1.2v-2.3c-1.4.7-2.4 1.5-2.4 2.5 0 1.2 1.2 1.4 2.7 1.4 1.2 0 2.8-.1 4.1-.4v1.2c-1.1.2-2.8.3-4.1.3-2.1 0-3.9-.5-3.9-2.3 0-1.8 1.8-2.9 3.5-3.8-.2-.6-.7-.9-1.4-.9-.9 0-1.9.5-2.6 1.1-.4.4-.9 1-1.4 1.6l-1-.8c1.9-1.8 2.9-3.4 3.5-4.6h-.7c-.6 0-1.6 0-2.5-.1v-1.1c.8.1 1.8.2 2.5.2h1c.2-.6.3-1.3.4-1.9l1.2.1c.3.6.2 1.1-.1 1.8zM192 150.6c-.1.3-.3.6-.4.9h7.6v6.4H198v-.5h-6.3v.5h-1.1v-4.7c-.8 1.2-1.7 2.2-2.7 2.9l-.8-.8c1.6-1.1 2.8-2.7 3.6-4.6h-3.1v-.9h5.9v-1H189v-.9h4.5v-1h-5.2v-.9h2.7c-.2-.4-.6-.9-.9-1.3l1-.3c.5.5.9 1.1 1.1 1.5l-.2.1h4l-.2-.1c.3-.4.8-1.1 1-1.6l1.2.3c-.3.5-.7.9-1 1.3h2.9v.9h-5.2v1h4.6v.9h-4.6v1h5.9v.9H192zm-.3 1.7v.9h6.3v-.9h-6.3zm6.3 1.6h-6.3v.9h6.3v-.9zm0 2.6v-.9h-6.3v.9h6.3zM206.8 144.6c-.4 1-.9 2.1-1.5 3.1v10.2h-1.1v-8.6c-.5.8-1.1 1.4-1.7 2-.1-.2-.4-.8-.6-1.1 1.5-1.4 3-3.6 3.8-5.9l1.1.3zm9.1 2.4v.9h-9.7v-.9h9.7zm-8.6 6.2h7.6v4.7h-1.1v-.7h-5.4v.7h-1.1v-4.7zm7.5-3.2h-7.3v-.9h7.3v.9zm-7.3 1.1h7.3v.9h-7.3v-.9zm7-5.3h-6.9v-.9h6.9v.9zm-6.1 8.3v2.2h5.4v-2.2h-5.4zM224.1 145l1.3-.2c.1.7.4 1.7.7 2.6 1.1-.1 2.3-.4 3.3-.7l.1 1.2c-.9.3-2.1.5-3.1.6.5 1.2 1.1 2.3 1.7 3.1.2.3.4.5.7.8l-.6.8c-.7-.2-2.5-.3-3.6-.4l.1-1c.8.1 1.9.2 2.5.2-.6-.9-1.3-2.2-1.8-3.4-1.8.2-3.9.2-6.3 0v-1.2c2.2.3 4.3.3 5.9.2-.2-.6-.3-1-.4-1.4-.3-.4-.4-.8-.5-1.2zm-3.5 9.2c0 1.4 1.3 2.1 3.5 2.1 1.5 0 2.8-.1 3.9-.4l-.1 1.2c-.9.2-2.2.3-3.9.3-2.8 0-4.6-1-4.6-3.1 0-.8.3-1.6.7-2.5l1.2.3c-.5.7-.7 1.4-.7 2.1zM242.6 146.3v2.1c.6 0 1.2-.1 1.7-.1.4 0 .8-.1 1.2-.1v1.2h-1.2c-.5 0-1 0-1.7.1 0 1.1-.1 2.4-.2 3.1-.1.7-.5.9-1.2.9-.5 0-1.6-.1-2-.2v-1c.5.1 1.2.2 1.5.2.4 0 .5-.1.6-.4.1-.5.1-1.5.2-2.5-1.5.1-3.3.3-4.8.4v3.7c0 1.6.1 2.2 2.7 2.2 1.6 0 3.5-.2 4.5-.4v1.3c-1 .1-2.8.2-4.4.2-3.5 0-3.8-.8-3.9-3.2v-3.7c-.7.1-1.2.1-1.6.2-.5.1-1.1.1-1.5.2l-.1-1.2c.5 0 1 0 1.6-.1.4 0 1-.1 1.7-.1V147c0-.5 0-.8-.1-1.3h1.3c0 .3-.1.8-.1 1.2v2c1.5-.1 3.2-.3 4.8-.4v-2.1c0-.3 0-.9-.1-1.1h1.3c-.2.2-.2.7-.2 1zM251.2 145.8c.8 0 4.4-.1 5.1-.2.4 0 .7-.1.8-.1l.7.9c-.3.2-.6.4-.8.6-.8.6-2.8 2.3-4 3.3.7-.2 1.4-.3 2.1-.3 2.5 0 4.3 1.5 4.3 3.5 0 2.4-2 4-5.2 4-2 0-3.3-.9-3.3-2.1 0-1 .9-2 2.3-2 1.9 0 2.9 1.2 3.1 2.7 1.2-.5 1.9-1.3 1.9-2.6 0-1.5-1.4-2.6-3.4-2.6-2.5 0-3.8 1.1-5.7 3l-.9-.9c1.2-1 3.2-2.6 4-3.4.8-.7 2.7-2.3 3.5-2.9-.8 0-3.8.2-4.6.2-.3 0-.7 0-1 .1v-1.2h1.1zm2.9 10.6c.4 0 .8 0 1.2-.1-.1-1.2-.9-2-2-2-.7 0-1.2.4-1.2 1s.8 1.1 2 1.1zM268 146c-.1.4-.2 1.3-.4 2.1.7-.1 1.3-.1 1.7-.1 1.3 0 2.4.5 2.4 2.5 0 1.8-.2 4.2-.9 5.4-.5 1-1.2 1.3-2.2 1.3-.6 0-1.3-.1-1.8-.2l-.2-1.2c.6.2 1.4.3 1.8.3.6 0 1-.1 1.3-.8.5-1 .7-3 .7-4.6 0-1.4-.6-1.6-1.6-1.6-.4 0-1 0-1.6.1-.6 2.2-1.6 5.5-3.1 8.1l-1.2-.5c1.5-2.1 2.7-5.5 3.2-7.5-.8.1-1.5.2-1.9.2-.3 0-1 .1-1.3.2l-.1-1.3h1.3c.5 0 1.4-.1 2.3-.2.2-1.1.4-2.2.4-3.3l1.4.1c-.1.3-.2.7-.2 1zm8.1 6-1.2.6c-.4-1.5-1.6-4.2-2.7-5.4l1.1-.5c.9 1.2 2.2 3.9 2.8 5.3zM282.9 147.6h-5.7v-.9h5.7v.9zm-.6 9.5h-3.5v.7h-1v-5h4.5v4.3zm-4.4-8.4h4.4v.9h-4.4v-.9zm0 2h4.4v.9h-4.4v-.9zm4.4-5.1H278v-.9h4.3v.9zm-3.4 8v2.5h2.5v-2.5h-2.5zm6.2-7.1c0 1.3-.3 2.9-1.9 3.9-.2-.2-.6-.6-.8-.7 1.4-.9 1.7-2.2 1.7-3.2v-1.8h4.7v3.7c0 .3 0 .4.3.4h.8c.3 0 .3-.2.4-1.6.2.2.6.3.9.4-.1 1.8-.4 2.2-1.2 2.2h-1c-.9 0-1.2-.3-1.2-1.3v-2.7h-2.6v.7zm5 4.4c-.5 1.8-1.4 3.3-2.5 4.4 1 .7 2.1 1.3 3.5 1.6-.2.2-.6.7-.7.9-1.4-.4-2.5-1-3.6-1.8-1.1.9-2.4 1.5-3.8 1.9-.1-.3-.4-.8-.6-1 1.3-.3 2.5-.9 3.5-1.6-.9-.9-1.6-2-2.1-3.3l1-.3c.4 1.1 1.1 2.1 1.9 2.9.8-.8 1.5-1.8 2-2.9H283v-1h6.4l.7.2zM299.6 156.4c.7.1 1.6.2 2.4.2h3.8c-.2.3-.4.8-.4 1.1H302c-3.1 0-5.3-.5-6.7-3.1-.5 1.4-1.3 2.5-2.2 3.3-.2-.2-.6-.6-.9-.8 1.7-1.3 2.5-3.4 2.8-6.1l1.1.1c-.1.7-.2 1.4-.4 2 .6 1.6 1.5 2.4 2.8 2.9v-6.3h-3.7v-1h8.7v1h-3.8v2.5h4.4v1h-4.4v3.2zm-5.7-7.2h-1.1V146h5.6v-1.7h1.2v1.7h5.7v3.2h-1.1V147H294v2.2zM320.7 146.4h-1.8v9.9c0 .8-.2 1.2-.8 1.4-.6.2-1.6.2-3.1.2-.1-.3-.3-.9-.5-1.2 1.2.1 2.4 0 2.8 0 .3 0 .4-.1.4-.4v-9.9h-10.3v-1.1h13.3v1.1zm-10.6 7.7v1.2H309v-6.8h6.1v5.6h-5zm0-4.4v3.4h3.9v-3.4h-3.9zM327.5 145.3c.8 1 1.6 2.4 1.9 3.3l-.9.4c-.1-.3-.2-.6-.4-.9-2.1.1-4.3.2-5.8.3l-.1-1h1.1c.5-.9 1.1-2.2 1.4-3.1l1.1.3c-.4.9-.9 2-1.4 2.8l3.1-.1c-.3-.5-.7-1.1-1-1.5l1-.5zm.9 11.3c0 .6-.1.9-.5 1-.4.2-1.1.2-2 .2-.1-.3-.2-.7-.4-1h1.5c.2 0 .2 0 .2-.2v-1.8H324v3h-1v-8.4h5.3v7.2zm-4.2-6.1v1.3h3.2v-1.3h-3.2zm3.1 3.5v-1.4h-3.2v1.4h3.2zm4.3-3.2c-1.4 0-1.8-.3-1.8-1.6v-4.9h1.1v2.5c1.3-.4 2.6-1 3.5-1.4l.7.8c-1.2.6-2.8 1.1-4.2 1.5v1.5c0 .5.1.6.8.6h2.4c.6 0 .7-.2.7-1.7.2.2.7.4 1 .4-.1 1.8-.5 2.3-1.7 2.3h-2.5zm2.6 6c.6 0 .7-.3.8-2 .3.2.7.4 1 .4-.2 2-.5 2.5-1.7 2.5h-2.7c-1.4 0-1.8-.3-1.8-1.6v-5h1.1v2.4c1.4-.4 2.8-1 3.6-1.6l.7.8c-1.2.7-2.9 1.2-4.4 1.7v1.7c0 .5.1.6.8.6h2.6z"/><path style="fill:none;stroke:#2e3840;stroke-width:.5;stroke-miterlimit:10" d="M72.4 87.3h64.3l4 5 4-5h64.2"/><path class="st0" d="M89.7 256.6h76.5v24.7H89.7z"/><path class="st0" d="m184.7 269-23.6 20.1v-40.2z"/><circle cx="143.1" cy="139" r="30" style="fill:#85cee7"/><defs><circle id="SVGID_1_" cx="143.1" cy="139" r="30"/></defs><clipPath id="SVGID_00000156556408490761594900000015821459232255774901_"><use xlink:href="#SVGID_1_" style="overflow:visible"/></clipPath><g style="clip-path:url(#SVGID_00000156556408490761594900000015821459232255774901_)"><path class="st8" d="M117.3 191.7v-38L90 161.8v43.6c0 .7.6 1.2 1.2 1.2.2 0 26.1-14.9 26.1-14.9z"/><path class="st9" d="M157.1 148.8c1.4 4.5-2.4 24.8-2.8 25.8-1.1 2.2-18.6-6.5-19.1-9.4-.9-5.4 0-20.1.8-22.4 1.6-4.8 19.5 1 21.1 6z"/><path class="st9" d="m114.5 175.5 18.9 11c.3.2.7.2 1 0l19-11c.7-.4.7-1.4 0-1.8l-18.9-11c-.3-.2-.7-.2-1 0l-19 11c-.7.4-.7 1.4 0 1.8z"/><path class="st10" d="M110.7 212.5c3.3-2.8 1.6-.6 3.7-3.9 1.2 0 3-.1 3.3.7.3.8.5 1.9.5 1.9.2 2.8-.7 4.3-.7 4.3-.4.3-.8.3-1.2 0v-.8l-3.7 2.7c-.7.6-1.7 1.1-2.7 1.4-1.1.3-2.3.1-3.2-.6-.4-.3-.7-.6-.6-1-.1-1 3.8-3.6 4.6-4.7z"/><path class="st11" d="M111 214.5c2.5 1 6.5-3.2 6.5-5.3-.4-2.7.5-8.4.5-10.3 0-6.9-4.7-1.1-4.7-1.1s.1 2.4-.1 9.1c-.2 5.3-5 6.6-2.2 7.6z"/><path class="st12" d="M117.4 183.4c-.3 9.7 1 15.3.8 15.8-.4 1.2-5.1 1-5.5 0-.2-.4-1.4-16.2-.6-18.7.8-2.5 5.3 2.9 5.3 2.9z"/><path class="st12" d="M112.5 178.9c1.4-2.5 22.8-17.1 22.8-17.1s6 6.6 3.9 8.8c-.5.5-19.8 13.8-22.1 15.5-1.6 1.2-3.2 3.7-3.9 2.3-.7-1.3-2.1-7-.7-9.5z"/><path class="st10" d="M113.8 219.4c3.3-2.8 3.8-2.9 6-6.3 1.2 0 2.7-.5 3.6 1l.2 1.2c.2 2.8-.6 4.8-.6 4.8-.4.3-.8.3-1.2 0v-.8l-3.7 2.7c-1.1 1-3 1.7-4.4 1.6 0 0-2.2-.8-2.2-1.8-.3-1.5 1.8-1.9 2.3-2.4z"/><path class="st11" d="M116.3 219c2.5 1 6.9-2.1 6.6-4.3-.2-1.6-.7-2.7-.7-3.9.1-7.8.5-8.8.1-10.2-.4-1.3-3.8-.7-4.4.2-.5.9.3 4 .1 11-.1 2.2-.1 3.5-.6 4.6-.6 1.4-2.1 1.7-1.1 2.6z"/><path class="st10" d="M123 183s.6 19.1.1 20.2c-.5 1.1-5.5.8-6-.2s-.9-12.2-1.4-22.4l7.3 2.4z"/><path class="st10" d="M115.9 180.7c1.2-1.4 23.7-15.6 23.7-15.6l10.7-3.7c.9-.2 3.4 8.1.6 10.6-2.4 2-25.7 13.5-28.1 14.2-2.5.8-8.1-4-6.9-5.5z"/><path class="st10" d="M150.8 172.1c-.3.1-3.9 1.3-5.7 1-3.3-.6-10.9-8.4-10.9-8.4l1.4-8.5s10.7 5.6 13.2 6.6c5.9 2.6 2.3 9.2 2 9.3z"/><path class="st13" d="M128.9 148.7s5.3-14.9 6.9-15.6c1.6-.7 6.4-1.1 5.2 1.2-2.6 4.8-7.1 14.6-9 14.6-2.7 0-3.1-.2-3.1-.2z"/><path class="st14" d="M149.6 121.4c-.4-1.6-13.1-.6-13.1-.6s-2.6 3.6-2.7 6.5c-.1 2.9 2.1 5.5 2.9 6.1 1.2.9 5.6 3.7 5.6 3.7s3.8-.5 5.6-1.2c1.8-.7 3.9-5.6 3.9-6.5.2-3.4-2-7.1-2.2-8z"/><path class="st15" d="M143.3 129.3c2.6 1.3 5.3 5.2 5.3 5.2l-3.2 29.7-7.3-5.9-2.7-17.2.6-7.1s4.6-6 7.3-4.7z"/><path d="M134 140.7c.1-2.8.5-6.6.5-6.6s2.7-3 3.8-3.5c.6-.2 2.6-.6 2.4 0-.2.6-2.9 1.5-3.2 2.3-.8 2.1-.6 6.4-.5 8.1.1 1.7.7 7.1 2.1 11.5 3.9-7.8 5.8-16.2 6.4-17.7.7-1.7-2.5-4.4-2.8-4.9l1.4-.4c2.4 1.6 6.9 7 7.8 9.4.9 2.4-.2 8-1.2 15.5 0 0 1.2 5.8.6 7.7-.6 1.9-4.6 3.5-6.1 3.4-11.1-1.3-9.7-6.7-9.7-6.7l-.2-4.8c0-.2-1.4-10.5-1.3-13.3z" style="fill:#495699"/><path class="st15" d="M140.2 130.6c-.7-.1-2.1.7-2.4 2.1-.4 1.5.1 3.4.1 3.4l2.4-.1.3-.5c-.1-.5-.3-3.8-.4-4.9zM145.6 134.3c.2-.6 0-2.8-.9-3.7-1-1.2-3.1-1.4-3.1-1.4l-1 2.2.3.5c.5.1 3.6 2.1 4.7 2.4z"/><path class="st17" d="M137.8 125.8c.4 2.9 2.7 2.8 1.6 5.9-.3.7.9 1.8.9 1.8l4-2.3c-1.2-3.9-.7-5.6-.7-5.6l-5.8.2z"/><path class="st11" d="M144.5 114.7c-.4-.2-4.2-.3-4.7-.2-7 2.3-3.8 11.9-3.6 12.6.4 1.1 1.3 2.5 2.2 3.1 3.1 2 7-1.7 7.2-2.3.2-.6 5.7-10.4-1.1-13.2z"/><path class="st17" d="M145.3 127.7c.7.2 1.5-.5 1.8-1.5.3-1 .1-2-.6-2.2-.6-.3-1.8 3.5-1.2 3.7z"/><path class="st14" d="M149.4 118.8c-.8-2.8-3.4-4.8-7.3-5-3.1-.2-6.4 2.9-6.7 5.6 0 .5-.7 3.9-.3 4.2.3.1.2-1.1.9-2.9.5-1.2 1.4-1.8 2.2-2.8 1.2 1.7 2.3 1.1 4 1.2 1.8.1 2.5-.4 2.5-.4s.1 1.1.2 2.4c.1 1.2.1 5.2.1 5.2s4.4-2.2 4.5-5.3c.1-.5.1-1.7-.1-2.2z"/><path class="st14" d="m145.5 117.5-8.1-1c.1.8.1 1.8 2.3 3.6 2.3 2 4.9 2.2 6.9 1-.2-.9-1.1-3.6-1.1-3.6z"/><path class="st15" d="M144.3 130.9s-2 3.1-5.4 3.3l-.3.5c.4 1.1 2.3 2.6 2.3 2.6s4.8-2.7 4.6-3.9c-.1-1.2-1.2-2.5-1.2-2.5z"/><path class="st9" d="M149.6 123.9c0 1.5-1.2 3.4-2.7 4.3-1.5.9-2.7.4-2.7-1.1s1.2-3.4 2.7-4.3c1.5-.9 2.7-.4 2.7 1.1z"/><path class="st9" d="M147.1 125.1c-.3 0-.5-.2-.6-.5-.1-.4-.1-.9 0-1.6.1-2.4.3-6.5-3.7-8.4-2-1-4.1.7-4.1.7-.2.2-.6.2-.8-.1-.2-.2-.2-.6.1-.8.1-.1 2.7-2.1 5.3-.8 4.6 2.3 4.4 7 4.3 9.5 0 .6-.1 1.1 0 1.4.1.3-.1.6-.4.7l-.1-.1z"/><path class="st14" d="M147.2 123.8c-1 .6-1.8 1.9-1.8 2.9 0 .2 0 .3.1.4-1.9 1.1-4.2 2-5.6 2.2h-.1v-.1c-.2-.3-.6-.7-1-.7-.2 0-.3.1-.3.2-.2.4.1.9.5 1 .2.1.3.1.5.1h.5c1.5-.2 3.9-1.1 5.8-2.3.3.2.9.2 1.5-.1 1-.6 1.8-1.9 1.8-2.9s-.9-1.3-1.9-.7z"/><path class="st8" d="M163.4 214.8v-38l-27.3 8.1v43.6c0 .7.6 1.2 1.2 1.2.2 0 26.1-14.9 26.1-14.9z"/><path class="st8" d="m86.1 162.3 52.4 30.5 29.2-16.9v-2.2l-52.4-28.2-29.2 14.7z"/><path style="fill:#f2f2f2" d="m86.1 160.2 52.4 30.4 29.2-16.9-52.4-30.4z"/><path class="st1" d="m137.3 162.6-11.2-6.5-15.9 9.1 11.2 6.5z"/><path class="st19" d="m124.8 168.5-8.7-5.1-.3.2 8.8 5zM126.1 167.8l-8.8-5-.2.2 8.7 5zM127.4 167.1l-8.7-5-.3.2 8.7 5zM128.6 166.4l-8.7-5-.3.2 8.7 5zM129.7 165.7l-8.7-5.1-.3.2 8.7 5zM130.9 165l-8.7-5-.3.1 8.7 5.1zM127.9 160.7l-.3.2-3.3-2 .3-.1z"/><path class="st11" d="M121.2 157.6c0 .7-.3 2.6-.6 3.1s-.2.9-.4 1.4c-.4.2-.7-.6-.7-1.2 0-2.7-.8-2.3-.7-3.1.2-1.3 1.5-2.1 1.9-2.1.4 0 .5 1 .5 1.9z"/><path class="st11" d="M119.2 154.5c1-.6 1.3.1 1.6.7.3.6.3 1.1.1 1.6-.2.5-2.6 3.3-2.8 3.3-.8-.2-3.9.8-2.9-1.2.4-.7 1.1-1.8 1.7-2.4 1-1 1.3-1.4 2.3-2z"/><path class="st11" d="m123.1 151.1 1.7 1.7-4.1 3-2.1-.9c1.1-1.2 4.5-3.8 4.5-3.8zM114.7 162c.1-.2.5-1.3 1.1-2.1.4-.6.9-1.1 1-1.2.2-.3-.6-.8-1.2-.3-.3.3-1.4 2.7-1.4 3.2 0 .6.2.7.5.4z"/><path class="st11" d="M114.7 161c.2-.1.7-1.2 1.4-1.9.5-.5 1.1-.9 1.2-1 .2-.3-.5-.9-1.1-.5-.3.3-1.7 2.4-1.8 2.9-.1.5 0 .8.3.5z"/><path class="st11" d="M115.3 162.1c.3-.4 1.6-2.4 1.8-2.8.2-.4-.2-.7-.7-.3-.3.3-2.2 2.8-2.3 3.2-.2.4.4.9 1.2-.1z"/><path class="st11" d="M115 162.8c.7-.6 3.5-2.9 3.7-3.1.3-.3-.8-.6-2.1.3-.8.6-2.8 2.5-2.8 3 .1.4.5.4 1.2-.2z"/><path class="st15" d="m122.7 151.1 2 2.1-2.5 1.7-1.6-1.9z"/><path class="st13" d="M132 143.8c1.5-.3 3.2 2.5 1.7 4.4-1.4 1.9-10 6-10 6l-2.3-2.2s9.1-7.9 10.6-8.2zM152.4 141.3c-.3-3.8-2.6-5.6-4.3-2.9-1.6 2.5-2.5 14.3-.4 15.5 2.1 1.1 4.6-.8 4.6-.8l.1-11.8z"/><path class="st11" d="M147.3 125c0 .2.3 2.3.8 5 0 0-1.1-.4-1.1-.5-.1-.6-.5-4.3-.3-4.7.2-.2.6-.2.6.2z"/><path class="st11" d="M146.2 127.1c.1-.1.4-.2.5 0 .2.3.3.8.4 1 .1.1.3.9.4 1.2.2.9-.6.8-.8.2-.3-.6-.9-2.3-.5-2.4z"/><path class="st11" d="M145.6 127.9c.1-.1.4-.2.5 0 .2.3.3.8.4 1 .1.1.3.9.4 1.2.2.9-.6.8-.8.2-.3-.5-.9-2.2-.5-2.4z"/><path class="st11" d="M145.1 128.6c.2 0 .4-.1.5.1.1.3.1.8.3 1.1.1.1.2.9.2 1.2.1.9-.8-.1-.9-.5-.1-.3-.5-1.8-.1-1.9z"/><path class="st11" d="M146.6 127.6c.2-.1.6.1.8.3.1.1.6 1.6.9 2.8.2.7.3 1 .1 2-.4 2.5-2 3.2-2.3 2.8-.4-.4-.8-1-.9-1.9-.2-2-.2-3.4-.2-3.9 0-.7 1.4-2 1.6-2.1z"/><path class="st11" d="m148.5 137.3-.8-3.1-1.9.2.5 3.3z"/><path class="st15" d="M152 152.2c-.1-2.9-3.3-16.1-3.3-16.1l-2.7.9s-1.4 11.8.7 16c1.4 2.7 5.4 2.1 5.3-.8z"/><path class="st11" d="M147.7 134.6c.3-.3 2.1-5.4 1.6-5.8-.5-.5-1.2 2-1.5 2.2-.4.2-.7 4.1-.1 3.6z"/></g><circle cx="51" cy="269" r="40" style="fill:#fff;stroke:#ffe410;stroke-width:5;stroke-miterlimit:10"/><path d="M84 220.5c0 8.8-7.2 16-16 16H34c-8.8 0-16-7.2-16-16s7.2-16 16-16h34c8.8 0 16 7.2 16 16z" style="fill:#ffe410"/><path class="st0" d="m41.1 220.3-.3.6h7.9v7h-2v-.5h-5.6v.5h-1.9v-4.2c-.7 1-1.6 1.8-2.4 2.4-.3-.4-1-1.1-1.4-1.4 1.6-1 2.9-2.6 3.7-4.4H36v-1.5h6v-.7h-4.5v-1.4H42v-.7h-5.3v-1.5h2.7c-.2-.4-.4-.8-.7-1.1l1.7-.5c.4.5.8 1.1 1 1.6h-.1 3.5-.1c.3-.5.7-1.1.8-1.6l2.1.5c-.3.4-.6.8-.9 1.1h2.7v1.5h-5.5v.7h4.6v1.4h-4.6v.7H50v1.5h-8.9zm0 2v.6h5.6v-.6h-5.6zm5.6 1.6h-5.6v.6h5.6v-.6zm0 2.2v-.6h-5.6v.6h5.6zM56.9 213.6c-.4 1-.9 2.1-1.5 3.1v11.2h-1.8v-8.5c-.4.6-.9 1.1-1.3 1.5-.2-.4-.7-1.5-1-1.9 1.5-1.4 3-3.7 3.9-6l1.7.6zm9.6 2.3v1.5H56.3v-1.5h10.2zm-9.2 6.9h8.4v5.1h-1.9v-.6h-4.6v.6h-1.8v-5.1zm8.1-3.1h-7.9v-1.5h7.9v1.5zm-7.9.8h7.8v1.5h-7.8v-1.5zm7.6-5.4h-7.3v-1.5h7.3v1.5zm-6 9.2v1.6h4.6v-1.6h-4.6zM68 252H50.3c-.5 0-1 .4-1 1s.4 1 1 1H68c1.8 0 3.3 1.5 3.3 3.3v26c0 1.8-1.5 3.3-3.3 3.3H35c-1.8 0-3.3-1.5-3.3-3.3v-26c0-1.8 1.4-3.2 3.1-3.3v23.9c0 2.6 2.1 4.8 4.8 4.8H43c2.6 0 4.8-2.1 4.8-4.8v-25.2c0-2.6-2.1-4.8-4.8-4.8h-3.4c-2.4 0-4.4 1.8-4.7 4.1-2.8 0-5.1 2.3-5.1 5.2v26c0 2.9 2.3 5.2 5.2 5.2h33c2.9 0 5.2-2.3 5.2-5.2v-26c0-2.9-2.4-5.2-5.2-5.2zm-31.2.7c0-1.6 1.3-2.8 2.8-2.8H43c1.6 0 2.8 1.3 2.8 2.8v25.2c0 1.6-1.3 2.8-2.8 2.8h-3.4c-1.6 0-2.8-1.3-2.8-2.8v-25.2z"/><path class="st0" d="M38.6 255.4c.5 0 1-.4 1-1v-1.7h1.7c.5 0 1-.4 1-1s-.4-1-1-1h-2.7c-.5 0-1 .4-1 1v2.7c0 .6.5 1 1 1zM40.4 278.8c0 .5.4 1 1 1H44c.5 0 1-.4 1-1v-2.7c0-.5-.4-1-1-1-.5 0-1 .4-1 1v1.7h-1.7c-.5 0-.9.4-.9 1zM67.1 257.3H51.8c-.5 0-1 .4-1 1v5.7c0 .5.4 1 1 1H67c.5 0 1-.4 1-1v-5.7c.1-.6-.4-1-.9-1zm-1 5.7H52.8v-3.8h13.3v3.8zM59.5 266.2c-1.4 0-2.6 1.1-2.6 2.6 0 1.4 1.1 2.6 2.6 2.6s2.6-1.1 2.6-2.6c-.1-1.5-1.2-2.6-2.6-2.6zm0 3.2c-.3 0-.6-.3-.6-.6s.3-.6.6-.6.6.3.6.6-.3.6-.6.6zM59.5 271.8c-1.4 0-2.6 1.1-2.6 2.6 0 1.4 1.1 2.6 2.6 2.6s2.6-1.1 2.6-2.6c-.1-1.4-1.2-2.6-2.6-2.6zm0 3.2c-.3 0-.6-.3-.6-.6s.3-.6.6-.6.6.3.6.6-.3.6-.6.6zM59.5 277.4c-1.4 0-2.6 1.1-2.6 2.6s1.1 2.6 2.6 2.6 2.6-1.1 2.6-2.6-1.2-2.6-2.6-2.6zm0 3.2c-.3 0-.6-.3-.6-.6s.3-.6.6-.6.6.3.6.6-.3.6-.6.6zM65.6 266.2c-1.4 0-2.6 1.1-2.6 2.6 0 1.4 1.1 2.6 2.6 2.6s2.6-1.1 2.6-2.6c-.1-1.5-1.2-2.6-2.6-2.6zm0 3.2c-.3 0-.6-.3-.6-.6s.3-.6.6-.6.6.3.6.6-.3.6-.6.6zM65.6 271.8c-1.4 0-2.6 1.1-2.6 2.6 0 1.4 1.1 2.6 2.6 2.6s2.6-1.1 2.6-2.6c-.1-1.4-1.2-2.6-2.6-2.6zm0 3.2c-.3 0-.6-.3-.6-.6s.3-.6.6-.6.6.3.6.6-.3.6-.6.6zM65.6 277.4c-1.4 0-2.6 1.1-2.6 2.6s1.1 2.6 2.6 2.6 2.6-1.1 2.6-2.6-1.2-2.6-2.6-2.6zm0 3.2c-.3 0-.6-.3-.6-.6s.3-.6.6-.6.6.3.6.6-.3.6-.6.6zM53.4 271.3c1.4 0 2.6-1.1 2.6-2.6 0-1.4-1.1-2.6-2.6-2.6s-2.6 1.1-2.6 2.6c0 1.4 1.2 2.6 2.6 2.6zm0-3.2c.3 0 .6.3.6.6s-.3.6-.6.6-.6-.3-.6-.6.2-.6.6-.6zM53.4 276.9c1.4 0 2.6-1.1 2.6-2.6 0-1.4-1.1-2.6-2.6-2.6s-2.6 1.1-2.6 2.6 1.2 2.6 2.6 2.6zm0-3.1c.3 0 .6.3.6.6s-.3.6-.6.6-.6-.3-.6-.6c0-.4.2-.6.6-.6zM53.4 282.5c1.4 0 2.6-1.1 2.6-2.6s-1.1-2.6-2.6-2.6-2.6 1.1-2.6 2.6 1.2 2.6 2.6 2.6zm0-3.1c.3 0 .6.3.6.6s-.3.6-.6.6-.6-.3-.6-.6.2-.6.6-.6zM370.5 269l-23 11.9v-23.8z"/><path class="st2" d="M219.5 269h2.5"/><path class="st22" d="M224.1 269H344"/><path class="st2" d="M345 269h2.5"/><path class="st0" d="m354.7 169-9.9 23.8-15.3-18.1z"/><path class="st2" d="m239.1 266 1.9-1.6"/><path class="st22" d="m242.6 263.1 91.9-77.1"/><path class="st2" d="m335.2 185.4 2-1.7"/><path class="st0" d="m354.7 369-9.9-23.8-15.3 18.1z"/><path class="st2" d="m239.1 272 1.9 1.6"/><path class="st22" d="m242.6 274.9 91.9 77.1"/><path class="st2" d="m335.2 352.6 2 1.7"/><circle class="st0" cx="224.7" cy="269" r="40"/><path class="st1" d="M210.9 267.6c1.7 1.2 4.2 3.1 5.3 4.3l-1.6 1.5c-1-1.2-3.2-3-4.9-4.3v8.3h-2.1v-7.8c-1.5 1.6-3.2 2.9-5.1 3.9-.3-.5-.9-1.3-1.3-1.7 2.9-1.4 5.4-3.8 6.9-6.3h-6.4v-2h13.9v2h-5l-.9 1.5v1.7l1.2-1.1zM231.8 264.7v1.8h-8.6c-.5 1.1-1.1 2.2-1.9 3.2v7.7h-1.9v-5.6c-.4.4-.9.8-1.4 1.1-.2-.5-.6-1.4-.9-1.8 1.7-1.1 3-2.8 4-4.6h-3.5v-1.8h4.3c.3-.8.5-1.5.7-2.2l2 .5c-.2.6-.4 1.2-.6 1.7h7.8zm-3.8 10.5h3.8v1.8h-9.6v-1.8h3.9v-3.6h-3.2v-1.8h3.2v-2.7h1.9v2.7h3.2v1.8H228v3.6zM238.7 274.3h-3.2v1.4h-1.8v-12.3h5v10.9zm-3.2-9.2v2.8h1.5v-2.8h-1.5zm1.5 7.5v-3h-1.5v3h1.5zm9.5-3.7v1.4h1.5v1.6h-1.5v3.5c0 .9-.2 1.4-.8 1.7-.6.3-1.5.3-2.7.3-.1-.5-.4-1.3-.6-1.8h1.9c.3 0 .3-.1.3-.3v-3.4H239v-1.6h5.6v-1.4H239v-1.7h3.6v-1.4h-3.1v-1.7h3.1v-1.7h1.9v1.7h3.2v1.7h-3.2v1.4h3.6v1.7h-1.6zm-5.3 3.2c.7.8 1.6 1.8 1.9 2.6l-1.6.9c-.3-.7-1.1-1.9-1.8-2.7l1.5-.8z"/></svg>